<?xml version="1.0" encoding="utf-8"?>
<!-- Generator: Adobe Illustrator 22.1.0, SVG Export Plug-In . SVG Version: 6.00 Build 0)  -->
<svg version="1.1" xmlns="http://www.w3.org/2000/svg" xmlns:xlink="http://www.w3.org/1999/xlink" x="0px" y="0px"
	 viewBox="0 0 2000 1400" style="enable-background:new 0 0 2000 1400;" xml:space="preserve">
<style type="text/css">
	.st0{fill:#EC526D;}
	.st1{fill:#FFFFFF;}
	.st2{fill:url(#XMLID_2_);}
	.st3{fill:#CE344F;}
	.st4{fill:url(#XMLID_3_);}
	.st5{fill:url(#XMLID_4_);}
	.st6{fill:#BFCBEB;}
	.st7{fill:#8B9AC3;}
	.st8{fill:#2F4B92;}
	.st9{clip-path:url(#XMLID_6_);}
	.st10{fill:url(#XMLID_7_);}
	.st11{fill:url(#XMLID_8_);}
	.st12{fill:url(#XMLID_9_);}
	.st13{fill:url(#XMLID_10_);}
	.st14{fill:url(#XMLID_11_);}
	.st15{fill:url(#XMLID_12_);}
	.st16{fill:url(#XMLID_13_);}
	.st17{fill:url(#XMLID_14_);}
	.st18{fill:url(#XMLID_15_);}
	.st19{fill:url(#XMLID_16_);}
	.st20{opacity:0.2;}
	.st21{fill:url(#XMLID_17_);}
	.st22{fill:#1E3B82;}
	.st23{fill:url(#XMLID_18_);}
	.st24{fill:url(#XMLID_19_);}
	.st25{fill:url(#XMLID_20_);}
	.st26{fill:url(#XMLID_21_);}
	.st27{fill:url(#XMLID_22_);}
	.st28{fill:url(#XMLID_23_);}
	.st29{fill:url(#XMLID_24_);}
</style>
<g id="background">
</g>
<g id="object">
	<g>
		<path class="st0" d="M710.3,454.9c-2.5,0-4.8-0.4-6.9-1.2c-2.1-0.8-3.8-2-5.2-3.6c-1.4-1.6-2.6-3.5-3.4-5.7
			c-0.8-2.2-1.2-4.7-1.2-7.6V411h8.1v26.3c0,1.4,0.2,2.8,0.5,4c0.4,1.2,0.9,2.2,1.6,3.1c0.7,0.9,1.6,1.6,2.7,2.1
			c1.1,0.5,2.3,0.8,3.7,0.8c1.4,0,2.7-0.2,3.8-0.8c1.1-0.5,2-1.2,2.7-2.1c0.7-0.9,1.3-1.9,1.6-3.1c0.4-1.2,0.5-2.5,0.5-4V411h8.1
			v25.9c0,2.7-0.4,5.1-1.2,7.4c-0.8,2.2-1.9,4.1-3.4,5.7c-1.5,1.6-3.2,2.8-5.3,3.7C715.2,454.5,712.9,454.9,710.3,454.9z"/>
		<path class="st0" d="M733.8,411h7.9v12.1l-0.5,5.3h0.5c0.8-1.4,2-2.5,3.6-3.4c1.6-0.9,3.3-1.4,5.3-1.4c3.8,0,6.6,1.1,8.4,3.4
			c1.8,2.2,2.7,5.3,2.7,9.2V454h-7.9v-16.9c0-2-0.5-3.6-1.4-4.6c-1-1.1-2.3-1.6-4-1.6c-1.1,0-2,0.2-2.9,0.7
			c-0.8,0.5-1.6,1.1-2.1,1.9c-0.6,0.8-1,1.7-1.3,2.8c-0.3,1.1-0.4,2.2-0.4,3.4V454h-7.9V411z"/>
		<path class="st0" d="M768.2,431.9h20.3v7h-20.3V431.9z"/>
		<path class="st0" d="M816.6,454.9c-3.2,0-6.2-0.6-8.9-1.7c-2.7-1.2-5.1-2.8-7.1-4.8c-2-2-3.6-4.4-4.7-7.1
			c-1.1-2.7-1.7-5.7-1.7-8.8c0-3.1,0.6-6,1.7-8.8c1.1-2.7,2.7-5.1,4.7-7.1c2-2,4.4-3.6,7.1-4.8c2.7-1.2,5.7-1.7,8.9-1.7
			c3.2,0,6.2,0.6,8.9,1.7c2.7,1.2,5.1,2.8,7.1,4.8c2,2,3.6,4.4,4.7,7.1c1.1,2.7,1.7,5.7,1.7,8.8c0,3.1-0.6,6.1-1.7,8.8
			c-1.1,2.7-2.7,5.1-4.7,7.1c-2,2-4.4,3.6-7.1,4.8C822.8,454.4,819.8,454.9,816.6,454.9z M816.6,447.3c2,0,3.9-0.4,5.6-1.1
			c1.7-0.7,3.3-1.7,4.6-3c1.3-1.3,2.3-2.8,3.1-4.7c0.7-1.8,1.1-3.8,1.1-6c0-2.2-0.4-4.2-1.1-6c-0.7-1.8-1.8-3.4-3.1-4.7
			c-1.3-1.3-2.8-2.3-4.6-3c-1.7-0.7-3.6-1.1-5.6-1.1c-2,0-3.9,0.4-5.6,1.1c-1.7,0.7-3.3,1.7-4.6,3c-1.3,1.3-2.3,2.8-3.1,4.7
			c-0.7,1.8-1.1,3.8-1.1,6c0,2.2,0.4,4.2,1.1,6c0.7,1.8,1.8,3.4,3.1,4.7c1.3,1.3,2.8,2.3,4.6,3C812.7,446.9,814.6,447.3,816.6,447.3
			z"/>
		<path class="st0" d="M844.6,411h7.9v12.1l-0.5,5.3h0.5c0.8-1.4,2-2.5,3.6-3.4c1.6-0.9,3.3-1.4,5.3-1.4c3.8,0,6.6,1.1,8.4,3.4
			c1.8,2.2,2.7,5.3,2.7,9.2V454h-7.9v-16.9c0-2-0.5-3.6-1.4-4.6c-1-1.1-2.3-1.6-4-1.6c-1.1,0-2,0.2-2.9,0.7
			c-0.8,0.5-1.6,1.1-2.1,1.9c-0.6,0.8-1,1.7-1.3,2.8c-0.3,1.1-0.5,2.2-0.5,3.4V454h-7.9V411z"/>
		<path class="st0" d="M883.8,454c-1.4,0-2.7-0.5-3.7-1.5c-1-1-1.5-2.2-1.5-3.7c0-1.4,0.5-2.7,1.5-3.7c1-1,2.2-1.5,3.7-1.5
			c1.4,0,2.7,0.5,3.7,1.5c1,1,1.5,2.2,1.5,3.7c0,1.4-0.5,2.7-1.5,3.7C886.5,453.5,885.2,454,883.8,454z M879.7,423.4V411h8.1v12.4
			l-0.8,15.8h-6.4L879.7,423.4z"/>
		<path class="st0" d="M909.4,411h9.4l17.3,28.8h0.5l-0.5-8.3V411h8v43h-8.5l-18.2-30.4h-0.5l0.5,8.3V454h-8V411z"/>
		<path class="st0" d="M965.7,423.6c2.3,0,4.4,0.4,6.3,1.2c1.9,0.8,3.5,1.9,4.9,3.2c1.4,1.4,2.5,3,3.2,5c0.8,1.9,1.2,4,1.2,6.3
			c0,2.3-0.4,4.4-1.2,6.3c-0.8,1.9-1.9,3.6-3.2,4.9c-1.4,1.4-3,2.5-4.9,3.2c-1.9,0.8-4,1.2-6.3,1.2c-2.3,0-4.4-0.4-6.3-1.2
			c-1.9-0.8-3.5-1.9-4.9-3.2c-1.4-1.4-2.5-3-3.2-4.9s-1.2-4-1.2-6.3c0-2.3,0.4-4.4,1.2-6.3s1.9-3.6,3.2-5c1.4-1.4,3-2.5,4.9-3.2
			C961.3,424,963.4,423.6,965.7,423.6z M965.7,447.7c1,0,2-0.2,2.9-0.6c0.9-0.4,1.8-0.9,2.5-1.6c0.7-0.7,1.3-1.6,1.7-2.6
			c0.4-1,0.6-2.2,0.6-3.5c0-1.3-0.2-2.5-0.6-3.5c-0.4-1-1-1.9-1.7-2.6c-0.7-0.7-1.6-1.3-2.5-1.6c-0.9-0.4-1.9-0.6-2.9-0.6
			c-1,0-2,0.2-2.9,0.6c-0.9,0.4-1.7,0.9-2.5,1.6c-0.7,0.7-1.3,1.6-1.7,2.6c-0.4,1-0.6,2.2-0.6,3.5c0,1.3,0.2,2.5,0.6,3.5
			c0.4,1,1,1.9,1.7,2.6c0.7,0.7,1.5,1.3,2.5,1.6C963.7,447.5,964.7,447.7,965.7,447.7z"/>
		<path class="st0" d="M988.7,431.3h-5.2v-6.7h5.2v-9h7.9v9h7.2v6.7h-7.2v11.7c0,0.7,0.1,1.4,0.2,1.9c0.1,0.6,0.4,1.1,0.8,1.5
			c0.6,0.7,1.4,1,2.4,1c0.7,0,1.2-0.1,1.6-0.2c0.4-0.1,0.8-0.3,1.1-0.6l2.2,6.9c-0.9,0.4-1.9,0.8-3,1c-1.1,0.2-2.2,0.3-3.5,0.3
			c-1.5,0-2.8-0.2-4-0.7c-1.2-0.5-2.2-1.1-3-1.9c-1.9-1.8-2.8-4.5-2.8-7.8V431.3z"/>
		<path class="st0" d="M1009.8,411h7.9v12.1l-0.5,5.3h0.5c0.8-1.4,2-2.5,3.6-3.4c1.6-0.9,3.3-1.4,5.3-1.4c3.8,0,6.6,1.1,8.4,3.4
			c1.8,2.2,2.7,5.3,2.7,9.2V454h-7.9v-16.9c0-2-0.5-3.6-1.4-4.6c-1-1.1-2.3-1.6-4-1.6c-1.1,0-2,0.2-2.9,0.7
			c-0.8,0.5-1.6,1.1-2.1,1.9c-0.6,0.8-1,1.7-1.3,2.8c-0.3,1.1-0.5,2.2-0.5,3.4V454h-7.9V411z"/>
		<path class="st0" d="M1048.6,420.6c-0.7,0-1.3-0.1-2-0.4c-0.6-0.3-1.2-0.6-1.6-1.1c-0.5-0.5-0.8-1-1.1-1.6c-0.3-0.6-0.4-1.3-0.4-2
			c0-0.7,0.1-1.4,0.4-2c0.3-0.6,0.6-1.1,1.1-1.6c0.5-0.5,1-0.8,1.6-1.1c0.6-0.3,1.3-0.4,2-0.4c1.4,0,2.6,0.5,3.6,1.5
			c1,1,1.5,2.2,1.5,3.6c0,1.4-0.5,2.6-1.5,3.6C1051.2,420.1,1050,420.6,1048.6,420.6z M1044.7,454v-29.4h7.9V454H1044.7z"/>
		<path class="st0" d="M1067.1,428.4h0.5c0.9-1.5,2.2-2.6,3.7-3.5c1.6-0.9,3.3-1.3,5.3-1.3c1.8,0,3.5,0.3,4.9,0.9
			c1.4,0.6,2.5,1.5,3.4,2.5c0.9,1.1,1.6,2.4,2,4c0.5,1.5,0.7,3.3,0.7,5.1V454h-7.9v-16.9c0-2.1-0.5-3.7-1.4-4.7
			c-0.9-1-2.3-1.5-4.1-1.5c-1.1,0-2,0.2-2.9,0.7c-0.8,0.5-1.5,1.1-2.1,1.9c-0.6,0.8-1,1.7-1.3,2.8c-0.3,1.1-0.4,2.2-0.4,3.4V454
			h-7.9v-29.4h7.4V428.4z"/>
		<path class="st0" d="M1107.5,467.9c-2.1,0-3.9-0.3-5.5-0.8c-1.6-0.5-3-1.2-4.2-2.1c-1.2-0.9-2.2-1.8-3-2.8c-0.8-1-1.4-2.1-1.7-3.1
			l7.5-3c0.6,1.6,1.5,2.8,2.8,3.6c1.3,0.9,2.7,1.3,4.3,1.3c2.5,0,4.4-0.8,5.9-2.4c1.4-1.6,2.2-3.8,2.2-6.6v-2h-0.5
			c-0.9,1.3-2.1,2.3-3.6,3c-1.5,0.7-3.3,1.1-5.3,1.1c-1.8,0-3.5-0.4-5.1-1.1c-1.7-0.7-3.1-1.7-4.4-3.1c-1.3-1.3-2.3-2.9-3.1-4.8
			c-0.8-1.9-1.2-3.9-1.2-6.2s0.4-4.4,1.2-6.3c0.8-1.9,1.8-3.5,3.1-4.8c1.3-1.3,2.8-2.3,4.4-3.1c1.7-0.7,3.4-1.1,5.1-1.1
			c2,0,3.8,0.4,5.3,1.1c1.5,0.7,2.7,1.8,3.6,3h0.5v-3.2h7.5v27.3c0,2.5-0.4,4.7-1.1,6.7c-0.8,2-1.8,3.7-3.2,5
			c-1.4,1.4-3,2.4-4.9,3.2C1111.9,467.5,1109.8,467.9,1107.5,467.9z M1107.8,446.9c1,0,1.9-0.2,2.8-0.5c0.9-0.4,1.8-0.9,2.5-1.6
			c0.7-0.7,1.3-1.5,1.7-2.5c0.4-1,0.7-2.2,0.7-3.4c0-1.3-0.2-2.5-0.7-3.5c-0.4-1-1-1.9-1.7-2.6c-0.7-0.7-1.6-1.2-2.5-1.6
			c-0.9-0.4-1.9-0.5-2.8-0.5c-1,0-1.9,0.2-2.8,0.5c-0.9,0.4-1.7,0.9-2.5,1.6c-0.7,0.7-1.3,1.6-1.7,2.6c-0.4,1-0.7,2.1-0.7,3.4
			c0,1.3,0.2,2.4,0.7,3.4c0.4,1,1,1.8,1.7,2.5c0.7,0.7,1.5,1.2,2.5,1.6C1105.9,446.7,1106.8,446.9,1107.8,446.9z"/>
		<path class="st0" d="M1142.9,411h7.9v12.1l-0.5,5.3h0.5c0.8-1.4,2-2.5,3.6-3.4c1.6-0.9,3.3-1.4,5.3-1.4c3.8,0,6.6,1.1,8.4,3.4
			c1.8,2.2,2.7,5.3,2.7,9.2V454h-7.9v-16.9c0-2-0.5-3.6-1.4-4.6c-1-1.1-2.3-1.6-4-1.6c-1.1,0-2,0.2-2.9,0.7
			c-0.8,0.5-1.6,1.1-2.1,1.9c-0.6,0.8-1,1.7-1.3,2.8c-0.3,1.1-0.4,2.2-0.4,3.4V454h-7.9V411z"/>
		<path class="st0" d="M1205.2,446.9c-1.4,2.4-3.2,4.3-5.5,5.8c-2.3,1.5-5.1,2.2-8.4,2.2c-2.2,0-4.3-0.4-6.2-1.2
			c-1.9-0.8-3.6-1.9-5-3.3c-1.4-1.4-2.5-3-3.3-5c-0.8-1.9-1.2-4-1.2-6.3c0-2.1,0.4-4.1,1.1-6c0.8-1.9,1.8-3.6,3.2-5
			c1.4-1.4,3-2.5,4.8-3.4c1.9-0.8,3.9-1.3,6.2-1.3c2.4,0,4.5,0.4,6.3,1.2c1.8,0.8,3.4,1.9,4.6,3.2c1.2,1.4,2.2,3,2.8,4.9
			c0.6,1.9,1,3.9,1,6.1c0,0.3,0,0.5,0,0.7c0,0.2-0.1,0.5-0.1,0.7c0,0.2-0.1,0.4-0.1,0.7h-22.1c0.2,1.2,0.5,2.2,1,3.1
			c0.5,0.9,1.1,1.6,1.9,2.2c0.7,0.6,1.5,1,2.4,1.3c0.9,0.3,1.8,0.4,2.7,0.4c1.8,0,3.3-0.4,4.5-1.2c1.2-0.8,2.1-1.8,2.8-3.1
			L1205.2,446.9z M1198.1,435.5c0-0.5-0.2-1.1-0.5-1.7c-0.3-0.6-0.7-1.2-1.3-1.8c-0.6-0.6-1.3-1-2.2-1.4c-0.9-0.4-1.9-0.5-3.1-0.5
			c-1.7,0-3.2,0.5-4.4,1.4s-2.2,2.3-2.7,4H1198.1z"/>
		<path class="st0" d="M1210.7,424.6h7.4v4.1h0.5c0.4-0.7,0.8-1.4,1.4-2c0.6-0.6,1.3-1.1,2-1.6c0.7-0.4,1.5-0.8,2.4-1.1
			c0.9-0.3,1.7-0.4,2.6-0.4c1,0,1.9,0.1,2.7,0.3c0.7,0.2,1.4,0.5,1.9,0.9l-2.1,7c-0.5-0.2-1-0.4-1.6-0.6c-0.6-0.1-1.3-0.2-2.1-0.2
			c-1.1,0-2.1,0.2-2.9,0.6c-0.9,0.4-1.6,1-2.2,1.8c-0.6,0.8-1.1,1.7-1.4,2.7c-0.3,1-0.5,2.1-0.5,3.3V454h-7.9V424.6z"/>
		<path class="st0" d="M1261.2,446.9c-1.4,2.4-3.2,4.3-5.5,5.8c-2.3,1.5-5.1,2.2-8.4,2.2c-2.2,0-4.3-0.4-6.2-1.2
			c-1.9-0.8-3.6-1.9-5-3.3c-1.4-1.4-2.5-3-3.3-5c-0.8-1.9-1.2-4-1.2-6.3c0-2.1,0.4-4.1,1.1-6c0.8-1.9,1.8-3.6,3.2-5
			c1.4-1.4,3-2.5,4.8-3.4c1.9-0.8,3.9-1.3,6.2-1.3c2.4,0,4.5,0.4,6.3,1.2c1.8,0.8,3.4,1.9,4.6,3.2c1.2,1.4,2.2,3,2.8,4.9
			c0.6,1.9,1,3.9,1,6.1c0,0.3,0,0.5,0,0.7c0,0.2-0.1,0.5-0.1,0.7c0,0.2-0.1,0.4-0.1,0.7h-22.1c0.2,1.2,0.5,2.2,1,3.1
			c0.5,0.9,1.1,1.6,1.9,2.2c0.7,0.6,1.5,1,2.4,1.3c0.9,0.3,1.8,0.4,2.7,0.4c1.8,0,3.3-0.4,4.5-1.2c1.2-0.8,2.1-1.8,2.8-3.1
			L1261.2,446.9z M1254,435.5c0-0.5-0.2-1.1-0.5-1.7c-0.3-0.6-0.7-1.2-1.3-1.8c-0.6-0.6-1.3-1-2.2-1.4c-0.9-0.4-1.9-0.5-3.1-0.5
			c-1.7,0-3.2,0.5-4.4,1.4s-2.2,2.3-2.7,4H1254z"/>
		<path class="st0" d="M1271.4,454c-1.4,0-2.7-0.5-3.7-1.5c-1-1-1.5-2.2-1.5-3.6c0-1.4,0.5-2.6,1.5-3.5c1-1,2.2-1.4,3.7-1.4
			c1.4,0,2.7,0.5,3.7,1.4c1,1,1.5,2.1,1.5,3.5c0,1.4-0.5,2.6-1.5,3.6C1274.1,453.5,1272.9,454,1271.4,454z"/>
		<path class="st0" d="M1287.6,454c-1.4,0-2.7-0.5-3.7-1.5c-1-1-1.5-2.2-1.5-3.6c0-1.4,0.5-2.6,1.5-3.5c1-1,2.2-1.4,3.7-1.4
			c1.4,0,2.7,0.5,3.7,1.4c1,1,1.5,2.1,1.5,3.5c0,1.4-0.5,2.6-1.5,3.6C1290.2,453.5,1289,454,1287.6,454z"/>
		<path class="st0" d="M1303.7,454c-1.4,0-2.7-0.5-3.7-1.5c-1-1-1.5-2.2-1.5-3.6c0-1.4,0.5-2.6,1.5-3.5c1-1,2.2-1.4,3.7-1.4
			c1.4,0,2.7,0.5,3.7,1.4c1,1,1.5,2.1,1.5,3.5c0,1.4-0.5,2.6-1.5,3.6C1306.4,453.5,1305.2,454,1303.7,454z"/>
	</g>
	<g>
		<path class="st1" d="M919.1,1105.2h9.8c0.1,0.2,0.1,0.5,0.1,0.8c0,0.3,0.1,0.6,0.1,1c0,1.3-0.2,2.5-0.6,3.6
			c-0.4,1.1-1,2.2-1.8,3.1c-0.9,1-2,1.7-3.2,2.2c-1.2,0.5-2.7,0.8-4.3,0.8c-1.5,0-2.8-0.3-4.1-0.8c-1.3-0.5-2.4-1.3-3.4-2.2
			c-1-0.9-1.7-2-2.3-3.3c-0.6-1.3-0.8-2.7-0.8-4.2c0-1.5,0.3-2.9,0.8-4.2c0.6-1.3,1.3-2.4,2.3-3.3c1-0.9,2.1-1.7,3.4-2.2
			c1.3-0.5,2.7-0.8,4.1-0.8c1.6,0,3.1,0.3,4.4,0.8c1.3,0.6,2.4,1.3,3.3,2.3l-2.6,2.5c-0.7-0.7-1.4-1.2-2.2-1.6
			c-0.8-0.4-1.8-0.5-2.9-0.5c-0.9,0-1.8,0.2-2.6,0.5c-0.8,0.3-1.5,0.8-2.2,1.4c-0.6,0.6-1.1,1.3-1.5,2.2c-0.4,0.8-0.5,1.8-0.5,2.8
			c0,1,0.2,2,0.5,2.8c0.4,0.8,0.9,1.6,1.5,2.2c0.6,0.6,1.3,1.1,2.2,1.4c0.8,0.3,1.7,0.5,2.6,0.5c1.1,0,2-0.2,2.7-0.5
			c0.7-0.3,1.4-0.7,1.9-1.2c0.4-0.3,0.7-0.8,1-1.3c0.3-0.5,0.5-1.1,0.6-1.7h-6.3V1105.2z"/>
		<path class="st1" d="M938.2,1102c1.1,0,2,0.2,2.9,0.5c0.9,0.4,1.7,0.9,2.3,1.5c0.6,0.6,1.1,1.4,1.5,2.3c0.4,0.9,0.5,1.9,0.5,2.9
			c0,1.1-0.2,2-0.5,2.9c-0.4,0.9-0.9,1.7-1.5,2.3c-0.6,0.6-1.4,1.1-2.3,1.5c-0.9,0.4-1.9,0.5-2.9,0.5c-1.1,0-2-0.2-2.9-0.5
			c-0.9-0.4-1.7-0.9-2.3-1.5c-0.6-0.6-1.1-1.4-1.5-2.3c-0.4-0.9-0.5-1.9-0.5-2.9c0-1.1,0.2-2,0.5-2.9c0.4-0.9,0.9-1.7,1.5-2.3
			c0.6-0.6,1.4-1.1,2.3-1.5S937.1,1102,938.2,1102z M938.2,1113.2c0.5,0,0.9-0.1,1.4-0.3c0.4-0.2,0.8-0.4,1.2-0.8
			c0.3-0.3,0.6-0.7,0.8-1.2c0.2-0.5,0.3-1,0.3-1.7s-0.1-1.2-0.3-1.7c-0.2-0.5-0.5-0.9-0.8-1.2c-0.3-0.3-0.7-0.6-1.2-0.8
			c-0.4-0.2-0.9-0.3-1.4-0.3c-0.5,0-0.9,0.1-1.4,0.3c-0.4,0.2-0.8,0.4-1.1,0.8c-0.3,0.3-0.6,0.7-0.8,1.2c-0.2,0.5-0.3,1-0.3,1.7
			s0.1,1.2,0.3,1.7c0.2,0.5,0.5,0.9,0.8,1.2c0.3,0.3,0.7,0.6,1.1,0.8C937.2,1113.2,937.7,1113.2,938.2,1113.2z"/>
		<path class="st1" d="M954,1096.1h3.7v6l-0.2,2h0.2c0.3-0.6,0.9-1.1,1.6-1.5c0.7-0.4,1.6-0.6,2.6-0.6c0.9,0,1.7,0.2,2.5,0.5
			c0.8,0.4,1.5,0.9,2.1,1.5c0.6,0.6,1.1,1.4,1.4,2.3c0.4,0.9,0.5,1.9,0.5,2.9c0,1.1-0.2,2-0.5,2.9c-0.4,0.9-0.8,1.7-1.4,2.3
			c-0.6,0.6-1.3,1.1-2.1,1.5c-0.8,0.4-1.6,0.5-2.5,0.5c-1,0-1.9-0.2-2.6-0.6c-0.7-0.4-1.2-0.9-1.6-1.5h-0.2v1.7H954V1096.1z
			 M961.1,1113.2c0.5,0,0.9-0.1,1.4-0.3c0.4-0.2,0.8-0.4,1.2-0.8c0.3-0.3,0.6-0.7,0.8-1.2c0.2-0.5,0.3-1,0.3-1.6
			c0-0.6-0.1-1.1-0.3-1.6c-0.2-0.5-0.5-0.9-0.8-1.2c-0.3-0.3-0.7-0.6-1.2-0.8c-0.4-0.2-0.9-0.3-1.4-0.3c-0.5,0-0.9,0.1-1.4,0.3
			c-0.4,0.2-0.8,0.4-1.2,0.8c-0.3,0.3-0.6,0.7-0.8,1.2c-0.2,0.5-0.3,1-0.3,1.7s0.1,1.2,0.3,1.7c0.2,0.5,0.5,0.9,0.8,1.2
			c0.3,0.3,0.7,0.6,1.2,0.8C960.1,1113.2,960.6,1113.2,961.1,1113.2z"/>
		<path class="st1" d="M979.2,1114.7H979c-0.4,0.5-0.9,1-1.6,1.3c-0.6,0.4-1.4,0.6-2.3,0.6c-0.7,0-1.4-0.1-2-0.4
			c-0.6-0.2-1.2-0.6-1.6-1c-0.5-0.4-0.8-0.9-1.1-1.5c-0.3-0.6-0.4-1.2-0.4-1.9c0-0.7,0.1-1.3,0.4-1.9c0.3-0.6,0.7-1.1,1.2-1.5
			c0.5-0.4,1.1-0.7,1.8-0.9c0.7-0.2,1.4-0.3,2.2-0.3c0.9,0,1.6,0.1,2.2,0.2c0.6,0.1,1.1,0.3,1.4,0.4v-0.4c0-0.7-0.3-1.3-0.9-1.8
			c-0.6-0.5-1.3-0.7-2.2-0.7c-1.3,0-2.3,0.5-3.2,1.6l-2.7-1.8c1.5-1.8,3.4-2.7,6-2.7c2.1,0,3.8,0.5,4.9,1.5c1.1,1,1.7,2.5,1.7,4.4
			v8.2h-3.6V1114.7z M979.2,1110.6c-0.4-0.2-0.9-0.4-1.3-0.5c-0.5-0.1-1-0.2-1.5-0.2c-0.9,0-1.6,0.2-2,0.6c-0.5,0.4-0.7,0.9-0.7,1.4
			c0,0.6,0.2,1,0.7,1.3c0.5,0.3,1,0.5,1.6,0.5c0.5,0,0.9-0.1,1.3-0.3c0.4-0.2,0.8-0.4,1-0.7c0.3-0.3,0.5-0.6,0.7-1
			C979.1,1111.4,979.2,1111,979.2,1110.6z"/>
		<path class="st1" d="M998.6,1112.7c-0.6,1.2-1.4,2.1-2.5,2.8c-1.1,0.7-2.4,1.1-4,1.1c-1.1,0-2-0.2-2.9-0.5
			c-0.9-0.4-1.7-0.9-2.3-1.5c-0.6-0.7-1.1-1.4-1.5-2.3c-0.4-0.9-0.5-1.9-0.5-2.9c0-1.1,0.2-2,0.5-2.9c0.4-0.9,0.9-1.7,1.5-2.3
			c0.6-0.6,1.4-1.1,2.3-1.5c0.9-0.4,1.9-0.5,2.9-0.5c1.6,0,2.9,0.4,4,1.1c1.1,0.7,1.9,1.7,2.4,2.8l-3.4,1.4
			c-0.3-0.6-0.7-1.1-1.2-1.4c-0.5-0.3-1.1-0.5-1.9-0.5c-0.5,0-0.9,0.1-1.4,0.3c-0.4,0.2-0.8,0.4-1.1,0.8c-0.3,0.3-0.6,0.7-0.8,1.2
			c-0.2,0.5-0.3,1-0.3,1.6c0,0.6,0.1,1.1,0.3,1.6c0.2,0.5,0.4,0.9,0.8,1.2c0.3,0.3,0.7,0.6,1.1,0.8c0.4,0.2,0.9,0.3,1.4,0.3
			c0.8,0,1.4-0.2,1.9-0.5c0.5-0.3,1-0.8,1.3-1.5L998.6,1112.7z"/>
		<path class="st1" d="M1000.9,1096.1h3.7v10.9h0.2l4.6-4.6h4.5v0.2l-5.1,5l5.5,8.3v0.2h-4.3l-3.8-6l-1.6,1.6v4.4h-3.7V1096.1z"/>
		<path class="st1" d="M1021.9,1096.1h3.7v5.6l-0.2,2.5h0.2c0.4-0.7,1-1.2,1.7-1.6c0.7-0.4,1.6-0.6,2.5-0.6c1.8,0,3.1,0.5,3.9,1.6
			c0.8,1,1.3,2.5,1.3,4.3v8.3h-3.7v-7.9c0-1-0.2-1.7-0.7-2.2c-0.4-0.5-1.1-0.7-1.9-0.7c-0.5,0-1,0.1-1.3,0.3c-0.4,0.2-0.7,0.5-1,0.9
			c-0.3,0.4-0.5,0.8-0.6,1.3c-0.1,0.5-0.2,1-0.2,1.6v6.7h-3.7V1096.1z"/>
		<path class="st1" d="M1044.4,1102c1.1,0,2,0.2,2.9,0.5s1.7,0.9,2.3,1.5c0.6,0.6,1.1,1.4,1.5,2.3c0.4,0.9,0.5,1.9,0.5,2.9
			c0,1.1-0.2,2-0.5,2.9c-0.4,0.9-0.9,1.7-1.5,2.3c-0.6,0.6-1.4,1.1-2.3,1.5c-0.9,0.4-1.9,0.5-2.9,0.5c-1.1,0-2-0.2-2.9-0.5
			c-0.9-0.4-1.7-0.9-2.3-1.5c-0.6-0.6-1.1-1.4-1.5-2.3c-0.4-0.9-0.5-1.9-0.5-2.9c0-1.1,0.2-2,0.5-2.9c0.4-0.9,0.9-1.7,1.5-2.3
			c0.6-0.6,1.4-1.1,2.3-1.5C1042.4,1102.2,1043.4,1102,1044.4,1102z M1044.4,1113.2c0.5,0,0.9-0.1,1.4-0.3c0.4-0.2,0.8-0.4,1.2-0.8
			c0.3-0.3,0.6-0.7,0.8-1.2c0.2-0.5,0.3-1,0.3-1.7s-0.1-1.2-0.3-1.7c-0.2-0.5-0.5-0.9-0.8-1.2c-0.3-0.3-0.7-0.6-1.2-0.8
			c-0.4-0.2-0.9-0.3-1.4-0.3c-0.5,0-0.9,0.1-1.4,0.3c-0.4,0.2-0.8,0.4-1.1,0.8c-0.3,0.3-0.6,0.7-0.8,1.2c-0.2,0.5-0.3,1-0.3,1.7
			s0.1,1.2,0.3,1.7c0.2,0.5,0.5,0.9,0.8,1.2c0.3,0.3,0.7,0.6,1.1,0.8C1043.5,1113.2,1044,1113.2,1044.4,1113.2z"/>
		<path class="st1" d="M1053.8,1102.5h3.4v1.8h0.2c0.4-0.7,1-1.2,1.8-1.6c0.7-0.4,1.6-0.6,2.5-0.6c1,0,1.9,0.2,2.6,0.7
			c0.7,0.5,1.2,1.1,1.5,1.8c0.4-0.7,1-1.3,1.8-1.8c0.8-0.5,1.7-0.7,2.9-0.7c0.8,0,1.6,0.1,2.2,0.4c0.6,0.3,1.1,0.6,1.5,1.1
			c0.4,0.5,0.7,1.1,0.9,1.8c0.2,0.7,0.3,1.4,0.3,2.2v8.7h-3.7v-8c0-1.9-0.8-2.8-2.3-2.8c-0.5,0-0.9,0.1-1.3,0.3
			c-0.4,0.2-0.7,0.5-0.9,0.9c-0.3,0.4-0.4,0.8-0.6,1.3s-0.2,1-0.2,1.6v6.7h-3.7v-8c0-1.9-0.8-2.8-2.4-2.8c-0.5,0-0.9,0.1-1.2,0.3
			c-0.4,0.2-0.7,0.5-0.9,0.9c-0.2,0.4-0.4,0.8-0.6,1.3c-0.1,0.5-0.2,1-0.2,1.6v6.7h-3.7V1102.5z"/>
		<path class="st1" d="M1091.4,1112.9c-0.6,1.1-1.5,2-2.6,2.7c-1.1,0.7-2.4,1-3.9,1c-1,0-2-0.2-2.9-0.5c-0.9-0.4-1.7-0.9-2.3-1.5
			c-0.7-0.7-1.2-1.4-1.5-2.3c-0.4-0.9-0.5-1.9-0.5-2.9c0-1,0.2-1.9,0.5-2.8c0.4-0.9,0.8-1.7,1.5-2.3c0.6-0.7,1.4-1.2,2.3-1.6
			c0.9-0.4,1.8-0.6,2.9-0.6c1.1,0,2.1,0.2,2.9,0.5s1.6,0.9,2.2,1.5c0.6,0.6,1,1.4,1.3,2.3c0.3,0.9,0.4,1.8,0.4,2.9
			c0,0.1,0,0.2,0,0.3c0,0.1,0,0.2,0,0.3c0,0.1,0,0.2,0,0.3h-10.3c0.1,0.6,0.2,1,0.5,1.4c0.2,0.4,0.5,0.7,0.9,1
			c0.3,0.3,0.7,0.5,1.1,0.6c0.4,0.1,0.8,0.2,1.3,0.2c0.8,0,1.5-0.2,2.1-0.6s1-0.9,1.3-1.4L1091.4,1112.9z M1088.1,1107.6
			c0-0.2-0.1-0.5-0.2-0.8c-0.1-0.3-0.3-0.6-0.6-0.8c-0.3-0.3-0.6-0.5-1-0.6c-0.4-0.2-0.9-0.3-1.4-0.3c-0.8,0-1.5,0.2-2.1,0.7
			c-0.6,0.4-1,1.1-1.3,1.9H1088.1z"/>
	</g>
	<g>
		<path id="XMLID_122_" class="st0" d="M693.2,860.4H533.7L518.7,796l170.8-203.3h92.2v199.5h41.9v68.2h-41.9v64h-88.5V860.4z
			 M693.2,792.7v-94.6l-78.6,94.6H693.2z"/>
		<path id="XMLID_90_" class="st0" d="M1351,860.4h-159.5l-15.1-64.5l170.8-203.3h92.2v199.5h41.9v68.2h-41.9v64H1351V860.4z
			 M1351,792.7v-94.6l-78.6,94.6H1351z"/>
		<g>
			<linearGradient id="XMLID_2_" gradientUnits="userSpaceOnUse" x1="1018.5554" y1="932.9238" x2="1018.5554" y2="812.6516">
				<stop  offset="0" style="stop-color:#FFFFFF"/>
				<stop  offset="9.853089e-02" style="stop-color:#F7F8FB"/>
				<stop  offset="0.4121" style="stop-color:#E1E6EF"/>
				<stop  offset="0.7167" style="stop-color:#D4DBE8"/>
				<stop  offset="1" style="stop-color:#D0D7E6"/>
			</linearGradient>
			<path id="XMLID_313_" class="st2" d="M883.3,832.6c-65.9,46.2-23.6,106.5,78.6,96.2c102.3-10.3,171.6,30.9,213.2-30.9
				s-50.7-85.5-145.3-85.3C935.1,812.9,910.3,813.8,883.3,832.6z"/>
			<polygon id="XMLID_312_" class="st3" points="1123.3,698.1 1131.1,702.7 1142.7,698.1 1138.8,708.6 1150.3,717 1135.1,714.5 
				1131.1,723.2 1125.4,717 1116,719.5 1124,707.5 			"/>
			<polygon id="XMLID_311_" class="st3" points="950.7,860.3 952.9,857.6 951.8,852.8 955.6,855 959.5,851 957.7,856.7 960.8,858.8 
				958.1,860.6 958.5,864.3 954.4,860.6 			"/>
			<circle id="XMLID_310_" class="st3" cx="964.2" cy="584" r="10.6"/>
			<circle id="XMLID_309_" class="st3" cx="1074.7" cy="584" r="10.6"/>
			<linearGradient id="XMLID_3_" gradientUnits="userSpaceOnUse" x1="921.4919" y1="637.7869" x2="941.045" y2="637.7869">
				<stop  offset="0" style="stop-color:#46B8FB"/>
				<stop  offset="0.535" style="stop-color:#77FFFC"/>
				<stop  offset="1" style="stop-color:#B5FFFD"/>
			</linearGradient>
			<path id="XMLID_308_" class="st4" d="M930.9,651.2H941v-26.8h-10.1c-5.2,0-9.4,4.2-9.4,9.4v7.9
				C921.5,647,925.7,651.2,930.9,651.2z"/>
			<linearGradient id="XMLID_4_" gradientUnits="userSpaceOnUse" x1="1095.4391" y1="637.7869" x2="1114.9922" y2="637.7869">
				<stop  offset="0" style="stop-color:#46B8FB"/>
				<stop  offset="0.535" style="stop-color:#77FFFC"/>
				<stop  offset="1" style="stop-color:#B5FFFD"/>
			</linearGradient>
			<path id="XMLID_307_" class="st5" d="M1105.6,651.2h-10.1v-26.8h10.1c5.2,0,9.4,4.2,9.4,9.4v7.9
				C1115,647,1110.8,651.2,1105.6,651.2z"/>
			<g id="XMLID_305_">
				<path id="XMLID_306_" class="st6" d="M926,797.6c-0.6-0.2-14.4-4-21.1-16c-4-7.1-4.7-15.4-2.1-24.6c8.5-29.6,41.7-34,43.1-34.2
					l1.4,11.3c-1.1,0.1-27.1,3.7-33.5,26c-1.8,6.2-1.4,11.5,1,15.9c4.4,7.7,14,10.5,14.1,10.5L926,797.6z"/>
			</g>
			<g id="XMLID_291_">
				<g id="XMLID_303_">
					<path id="XMLID_304_" class="st7" d="M946.3,734.3l-2.1-11.2c1.1-0.2,1.7-0.3,1.7-0.3l1.4,11.3
						C947.3,734.2,946.9,734.2,946.3,734.3z"/>
				</g>
				<g id="XMLID_294_">
					<path id="XMLID_295_" class="st7" d="M914.8,792.2c-0.9-0.6-1.8-1.3-2.6-1.9l7.3-8.8c0.6,0.5,1.2,0.9,1.8,1.3L914.8,792.2z
						 M905,781.8c-0.6-1-1.1-2-1.5-3.1l10.5-4.4c0.3,0.6,0.6,1.2,0.9,1.8L905,781.8z M902.1,767.7v-0.2c0-1-0.3-2.1-0.2-3.1
						l11.2,1.1c-0.1,0.7,0.2,1.4,0.2,2.1L902.1,767.7z M914.5,758l-10.7-3.9c0.4-1,0.8-2,1.2-2.9l10.4,4.7
						C915.1,756.6,914.8,757.3,914.5,758z M919.4,749.3l-9-7.1c0.6-0.8,1.3-1.6,2-2.4l8.4,7.7C920.4,748.1,919.9,748.7,919.4,749.3z
						 M926.8,742.4l-6.6-9.3c0.8-0.6,1.7-1.1,2.6-1.7l6,9.7C928.1,741.5,927.5,741.9,926.8,742.4z M936.1,737.4l-4.3-10.6
						c0.9-0.4,1.9-0.7,2.8-1.1l3.8,10.8C937.7,736.7,936.9,737,936.1,737.4z"/>
				</g>
				<g id="XMLID_292_">
					<path id="XMLID_293_" class="st7" d="M926,797.6c-0.1,0-0.8-0.2-1.8-0.6l3.8-10.8c0.5,0.2,0.9,0.3,0.9,0.3L926,797.6z"/>
				</g>
			</g>
			<g id="XMLID_289_">
				<path id="XMLID_290_" class="st6" d="M1104,720.3l-0.8-1.7c0.1,0,5.2-2.3,7.3-3.6c0.5-0.3,1-1.9,1.4-3.2
					c0.7-2.2,1.4-4.6,3.1-5.3c0.8-0.4,1.7-0.3,2.7,0.1c1.4,0.7,2.4,1.4,3.2,2c1.8,1.3,2.8,2.1,7.2,1.3l0.4,1.9
					c-4.9,0.9-6.5,0-8.7-1.6c-0.8-0.6-1.6-1.2-2.9-1.8c-0.7-0.3-1.1-0.2-1.2-0.1c-0.9,0.4-1.5,2.5-2,4.1c-0.6,1.9-1.1,3.6-2.2,4.3
					C1109.3,717.9,1104.2,720.2,1104,720.3z"/>
			</g>
			<g id="XMLID_287_">
				<polygon id="XMLID_288_" class="st6" points="1125,736.8 1115.7,736.8 1104.8,730.2 1105.8,728.5 1116.3,734.7 1125,734.7 				
					"/>
			</g>
			
				<ellipse id="XMLID_286_" transform="matrix(0.2282 -0.9736 0.9736 0.2282 21.3649 1483.937)" class="st3" cx="946.7" cy="728.5" rx="15.7" ry="15.7"/>
			
				<ellipse id="XMLID_285_" transform="matrix(0.7071 -0.7071 0.7071 0.7071 -194.8899 986.4791)" class="st3" cx="1093.3" cy="728.5" rx="15.7" ry="15.7"/>
			<path id="XMLID_284_" class="st3" d="M936.3,660.2h14.6v-44.8h-14.6c-2.8,0-5,2.2-5,5v34.8C931.3,657.9,933.5,660.2,936.3,660.2z
				"/>
			<path id="XMLID_283_" class="st3" d="M1100.2,660.2h-14.6v-44.8h14.6c2.8,0,5,2.2,5,5v34.8C1105.2,657.9,1103,660.2,1100.2,660.2
				z"/>
			<g id="XMLID_281_">
				<path id="XMLID_282_" class="st6" d="M971,847.2c-0.1,0-8.6-3.2-11.9-4.2c-1-0.3-1.9,0.2-3.3,1.1c-1.7,1.1-3.9,2.4-7.1,1.3
					c-5.4-1.9-6.6-8.6-6.7-8.9l1.9-0.3c0,0.1,1.1,5.9,5.4,7.4c2.3,0.8,3.8-0.1,5.5-1.1c1.4-0.9,2.9-1.8,4.8-1.3
					c3.4,0.9,11.7,4.1,12,4.2L971,847.2z"/>
			</g>
			<g id="XMLID_279_">
				<path id="XMLID_280_" class="st6" d="M957,858.9l-0.1-1.9c9-0.2,11.8-8.6,11.9-8.7l1.8,0.6C970.6,849,967.3,858.7,957,858.9z"/>
			</g>
			
				<ellipse id="XMLID_278_" transform="matrix(0.1302 -0.9915 0.9915 0.1302 9.8034 1702.3763)" class="st3" cx="975.1" cy="845.6" rx="15.7" ry="15.7"/>
			<g id="XMLID_276_">
				<path id="XMLID_277_" class="st6" d="M1093.7,900.1c-0.1-0.3-5.8-27.2-34.5-49.8l7.1-9c32.2,25.4,38.4,55.3,38.6,56.6
					L1093.7,900.1l5.6-1.1L1093.7,900.1z"/>
			</g>
			<g id="XMLID_268_">
				<path id="XMLID_269_" class="st7" d="M1093.7,900.1c0,0-0.2-0.8-0.6-2.3l11-3.2c0.6,2,0.8,3.1,0.8,3.3L1093.7,900.1l5.6-1.1
					L1093.7,900.1z M1090.1,889.5c-0.3-0.8-0.7-1.6-1.1-2.4l10.3-4.9c0.4,1,0.9,1.9,1.2,2.8L1090.1,889.5z M1084.8,879.2
					c-0.4-0.8-0.9-1.5-1.4-2.3l9.7-6.1c0.5,0.9,1.1,1.7,1.6,2.6L1084.8,879.2z M1078.2,869.5c-0.5-0.7-1.1-1.4-1.7-2.1l8.9-7.2
					c0.6,0.8,1.3,1.6,1.9,2.4L1078.2,869.5z M1070.6,860.6c-0.6-0.6-1.3-1.3-1.9-1.9l8-8.1c0.7,0.7,1.4,1.4,2.1,2.1L1070.6,860.6z
					 M1062,852.5c-0.7-0.6-1.4-1.1-2.1-1.7l7.1-8.9c0.8,0.6,1.6,1.3,2.3,1.9L1062,852.5z"/>
			</g>
			
				<ellipse id="XMLID_267_" transform="matrix(0.7071 -0.7071 0.7071 0.7071 -287.6355 996.7883)" class="st3" cx="1059.4" cy="845.6" rx="15.7" ry="15.7"/>
			<path id="XMLID_266_" class="st3" d="M1000.6,814.5h35.5c7,0,12.6-5.6,12.6-12.6v-4.8H988v4.8
				C988,808.9,993.7,814.5,1000.6,814.5z"/>
			<rect id="XMLID_265_" x="1006.5" y="814.5" class="st8" width="25.7" height="15.4"/>
			<path id="XMLID_264_" class="st0" d="M1045.3,865.6h-53.8c-5.1,0-9.5-3.4-10.7-8.4l-5.4-21.2c-1.8-7,3.5-13.8,10.7-13.8h64.5
				c7.2,0,12.5,6.8,10.7,13.8l-5.4,21.2C1054.8,862.2,1050.4,865.6,1045.3,865.6z"/>
			<rect id="XMLID_263_" x="1006.5" y="686.5" class="st8" width="25.7" height="15.4"/>
			<path id="XMLID_262_" class="st3" d="M1000.6,702h35.5c7,0,12.6,5.6,12.6,12.6v4.8H988v-4.8C988,707.6,993.7,702,1000.6,702z"/>
			<path id="XMLID_261_" class="st0" d="M1067.5,805.5h-98.3c-11.4,0-20.6-9.2-20.6-20.6v-57c0-11.4,9.2-20.6,20.6-20.6h98.3
				c11.4,0,20.6,9.2,20.6,20.6v57C1088.1,796.3,1078.9,805.5,1067.5,805.5z"/>
			<path id="XMLID_260_" class="st3" d="M1047,692.3h-57.2c-8.3,0-15.1-6.8-15.1-15.1v-2.3h87.4v2.3
				C1062.1,685.6,1055.3,692.3,1047,692.3z"/>
			<path id="XMLID_259_" class="st0" d="M1067.5,682.8h-98.3c-11.4,0-20.6-9.2-20.6-20.6v-57c0-11.4,9.2-20.6,20.6-20.6h98.3
				c11.4,0,20.6,9.2,20.6,20.6v57C1088.1,673.5,1078.9,682.8,1067.5,682.8z"/>
			<g id="XMLID_198_">
				<defs>
					<path id="XMLID_200_" d="M1059.5,788.9h-82.3c-2.7,0-5-2.2-5-5v-47.6c0-2.7,2.2-5,5-5h82.3c2.7,0,5,2.2,5,5v47.6
						C1064.5,786.7,1062.3,788.9,1059.5,788.9z"/>
				</defs>
				<linearGradient id="XMLID_5_" gradientUnits="userSpaceOnUse" x1="972.2917" y1="760.1595" x2="1064.4852" y2="760.1595">
					<stop  offset="0" style="stop-color:#4600A3"/>
					<stop  offset="1" style="stop-color:#6400C4"/>
				</linearGradient>
				<use xlink:href="#XMLID_200_"  style="overflow:visible;fill:url(#XMLID_5_);"/>
				<clipPath id="XMLID_6_">
					<use xlink:href="#XMLID_200_"  style="overflow:visible;"/>
				</clipPath>
				<g id="XMLID_233_" class="st9">
					<g id="XMLID_257_">
						<linearGradient id="XMLID_7_" gradientUnits="userSpaceOnUse" x1="1032.7229" y1="784.7313" x2="1067.2657" y2="784.7313">
							<stop  offset="0.4264" style="stop-color:#4C47CC"/>
							<stop  offset="0.7654" style="stop-color:#4E61CD"/>
							<stop  offset="1" style="stop-color:#617BFF"/>
						</linearGradient>
						<path id="XMLID_258_" class="st10" d="M1035.6,792.2l-2.9-0.1l0.2-8.9c0.1-3.3,2.8-5.9,6.1-5.9h28.3v2.9H1039
							c-1.7,0-3.2,1.4-3.2,3.1L1035.6,792.2z"/>
					</g>
					<g id="XMLID_255_">
						<linearGradient id="XMLID_8_" gradientUnits="userSpaceOnUse" x1="1037.6846" y1="789.6934" x2="1072.2275" y2="789.6934">
							<stop  offset="0.4264" style="stop-color:#4C47CC"/>
							<stop  offset="0.7654" style="stop-color:#4E61CD"/>
							<stop  offset="1" style="stop-color:#617BFF"/>
						</linearGradient>
						<path id="XMLID_256_" class="st11" d="M1040.5,797.1l-2.9-0.1l0.2-11.3c0-1.9,1.7-3.5,3.6-3.5h30.7v2.9h-30.7
							c-0.4,0-0.7,0.3-0.7,0.7L1040.5,797.1z"/>
					</g>
					<linearGradient id="XMLID_9_" gradientUnits="userSpaceOnUse" x1="1014.5184" y1="750.8068" x2="1066.8724" y2="750.8068">
						<stop  offset="0.4264" style="stop-color:#4C47CC"/>
						<stop  offset="0.7654" style="stop-color:#4E61CD"/>
						<stop  offset="1" style="stop-color:#617BFF"/>
					</linearGradient>
					<path id="XMLID_254_" class="st12" d="M1051.2,773.4h-21c-8.7,0-15.7-7-15.7-15.7v-29.5h52.4v29.5
						C1066.9,766.4,1059.9,773.4,1051.2,773.4z"/>
					<linearGradient id="XMLID_10_" gradientUnits="userSpaceOnUse" x1="1021.9958" y1="754.8234" x2="1054.5609" y2="754.8234">
						<stop  offset="0" style="stop-color:#46B8FB"/>
						<stop  offset="0.535" style="stop-color:#77FFFC"/>
						<stop  offset="1" style="stop-color:#B5FFFD"/>
					</linearGradient>
					<path id="XMLID_251_" class="st13" d="M1051.9,754.3c0-1-0.1-2.1-0.4-3l3-2.7l-3.2-5.6l-3.8,1.3c-1.5-1.4-3.3-2.2-5.3-2.8
						l-0.8-3.7h-6.4l-0.8,3.7c-2,0.6-3.8,1.6-5.3,2.9l-3.8-1.3l-3.2,5.5l3,2.6c-0.2,1-0.4,2-0.4,3c0,1,0.1,2.1,0.4,3l-3,2.6l3.2,5.6
						l3.8-1.3c1.5,1.4,3.3,2.7,5.3,3.3l0.8,4.2h6.4l0.8-4.2c2-0.6,3.8-1.8,5.3-3.2l3.8,1.2l3.2-5.6l-3-2.7
						C1051.8,756.4,1051.9,755.4,1051.9,754.3z M1038.3,762.1c-4.3,0-7.8-3.5-7.8-7.8c0-4.3,3.5-7.8,7.8-7.8c4.3,0,7.8,3.5,7.8,7.8
						C1046,758.6,1042.6,762.1,1038.3,762.1z"/>
					<linearGradient id="XMLID_11_" gradientUnits="userSpaceOnUse" x1="1012.4579" y1="776.8357" x2="1035.8578" y2="776.8357">
						<stop  offset="0" style="stop-color:#6400C4"/>
						<stop  offset="1" style="stop-color:#BB73FF"/>
					</linearGradient>
					<path id="XMLID_248_" class="st14" d="M1031.8,782.1c0.4-0.6,0.7-1.2,1-1.8l2.7-0.3l0.3-4.4l-2.6-0.8c-0.3-1.4-1-2.6-1.8-3.7
						l1-2.4l-3.6-2.5l-1.9,1.8c-1.4-0.4-2.7-0.6-4.1-0.4l-1.6-2.2l-3.9,1.9l0.7,2.6c-0.5,0.5-1,1-1.4,1.6c-0.4,0.6-0.7,1.2-1,1.8
						l-2.7,0.3l-0.3,4.4l2.6,0.8c0.3,1.4,0.9,2.7,1.8,3.8l-1.1,2.5l3.6,2.5l2-1.9c1.4,0.4,2.8,0.5,4.1,0.3l1.7,2.2l4-1.9l-0.7-2.6
						C1031,783.2,1031.4,782.7,1031.8,782.1z M1021.2,781.2c-2.4-1.7-3-4.9-1.4-7.4c1.7-2.4,4.9-3,7.4-1.4s3,4.9,1.4,7.4
						C1026.9,782.2,1023.6,782.8,1021.2,781.2z"/>
					<linearGradient id="XMLID_12_" gradientUnits="userSpaceOnUse" x1="988.0245" y1="738.4547" x2="1018.8642" y2="738.4547">
						<stop  offset="0" style="stop-color:#6400C4"/>
						<stop  offset="1" style="stop-color:#BB73FF"/>
					</linearGradient>
					<path id="XMLID_247_" class="st15" d="M1012.7,749.5h-18.5c-3.4,0-6.2-2.8-6.2-6.2v-15.9h30.8v15.9
						C1018.9,746.7,1016.1,749.5,1012.7,749.5z"/>
					<linearGradient id="XMLID_13_" gradientUnits="userSpaceOnUse" x1="993.0093" y1="743.7114" x2="996.9688" y2="743.7114">
						<stop  offset="0" style="stop-color:#46B8FB"/>
						<stop  offset="0.535" style="stop-color:#77FFFC"/>
						<stop  offset="1" style="stop-color:#B5FFFD"/>
					</linearGradient>
					<path id="XMLID_246_" class="st16" d="M997,743.7c0,1.1-0.9,2-2,2s-2-0.9-2-2s0.9-2,2-2S997,742.6,997,743.7z"/>
					<g id="XMLID_244_">
						<path id="XMLID_245_" class="st6" d="M989.1,762.6h-1.9v-3.3c0-2.6,2.1-4.8,4.8-4.8c1.6,0,2.9-1.3,2.9-2.9v-2.2h1.9v2.2
							c0,2.6-2.1,4.8-4.8,4.8c-1.6,0-2.9,1.3-2.9,2.9V762.6z"/>
					</g>
					<g id="XMLID_239_">
						<rect id="XMLID_243_" x="997.6" y="749.5" class="st6" width="2.1" height="13.8"/>
					</g>
					<path id="XMLID_238_" class="st6" d="M1004.6,743.7c0,1.1-0.9,2-2,2s-2-0.9-2-2s0.9-2,2-2S1004.6,742.6,1004.6,743.7z"/>
					<linearGradient id="XMLID_14_" gradientUnits="userSpaceOnUse" x1="978.9955" y1="779.3582" x2="1010.116" y2="779.3582">
						<stop  offset="0" style="stop-color:#46B8FB"/>
						<stop  offset="0.535" style="stop-color:#77FFFC"/>
						<stop  offset="1" style="stop-color:#B5FFFD"/>
					</linearGradient>
					<path id="XMLID_237_" class="st17" d="M1004.1,796.6H985c-3.3,0-6-2.7-6-6v-22.6c0-3.3,2.7-6,6-6h19.1c3.3,0,6,2.7,6,6v22.6
						C1010.1,794,1007.4,796.6,1004.1,796.6z"/>
					<linearGradient id="XMLID_15_" gradientUnits="userSpaceOnUse" x1="978.9955" y1="771.2045" x2="994.5558" y2="771.2045">
						<stop  offset="0.4264" style="stop-color:#4C47CC"/>
						<stop  offset="0.7654" style="stop-color:#4E61CD"/>
						<stop  offset="1" style="stop-color:#617BFF"/>
					</linearGradient>
					<path id="XMLID_236_" class="st18" d="M992.4,773.4H979V769h13.4c1.2,0,2.2,1,2.2,2.2l0,0C994.6,772.4,993.6,773.4,992.4,773.4
						z"/>
					<linearGradient id="XMLID_16_" gradientUnits="userSpaceOnUse" x1="978.9955" y1="781.3123" x2="994.5558" y2="781.3123">
						<stop  offset="0.4264" style="stop-color:#4C47CC"/>
						<stop  offset="0.7654" style="stop-color:#4E61CD"/>
						<stop  offset="1" style="stop-color:#617BFF"/>
					</linearGradient>
					<path id="XMLID_235_" class="st19" d="M992.4,783.5H979v-4.4h13.4c1.2,0,2.2,1,2.2,2.2l0,0
						C994.6,782.5,993.6,783.5,992.4,783.5z"/>
					<rect id="XMLID_234_" x="970.2" y="727.4" class="st20" width="104" height="8.1"/>
				</g>
			</g>
			<g id="XMLID_149_">
				
					<ellipse id="XMLID_156_" transform="matrix(0.8924 -0.4512 0.4512 0.8924 -180.5169 513.7452)" class="st3" cx="987.2" cy="635.5" rx="15.7" ry="15.7"/>
				<linearGradient id="XMLID_17_" gradientUnits="userSpaceOnUse" x1="976.866" y1="635.4625" x2="997.5261" y2="635.4625">
					<stop  offset="0" style="stop-color:#46B8FB"/>
					<stop  offset="0.535" style="stop-color:#77FFFC"/>
					<stop  offset="1" style="stop-color:#B5FFFD"/>
				</linearGradient>
				<circle id="XMLID_150_" class="st21" cx="987.2" cy="635.5" r="10.3"/>
			</g>
			<rect id="XMLID_148_" x="1001.8" y="660.2" class="st3" width="34.2" height="11.3"/>
			<path id="XMLID_146_" class="st3" d="M1054.8,646.9l-16.5-16.5c-1.6-1.6-1.6-4.1,0-5.7l0,0c1.6-1.6,4.1-1.6,5.7,0l16.5,16.5
				c1.6,1.6,1.6,4.1,0,5.7l0,0C1059,648.5,1056.4,648.5,1054.8,646.9z"/>
			<path id="XMLID_145_" class="st3" d="M1044,646.9l16.5-16.5c1.6-1.6,1.6-4.1,0-5.7l0,0c-1.6-1.6-4.1-1.6-5.7,0l-16.5,16.5
				c-1.6,1.6-1.6,4.1,0,5.7l0,0C1039.9,648.5,1042.5,648.5,1044,646.9z"/>
			<g id="XMLID_143_">
				<path id="XMLID_144_" class="st22" d="M962.9,578l-2.8-0.7c0.1-0.3,1.9-7.2-3.1-8.5c-2.2-0.6-4.6-0.5-6.6-0.5
					c-3.5,0.1-7.5,0.3-8.8-4.1c-1-3.7,2.5-5.7,5.4-7.4c3.6-2.1,4.8-3.1,4.1-4.8c-1.1-2.7-3-3.2-5-3.7c-1.8-0.5-3.8-1-4.7-3.3l2.7-1
					c0.3,0.8,1,1.1,2.7,1.6c2.2,0.6,5.1,1.4,6.8,5.4c1.8,4.2-2.3,6.6-5.3,8.4c-2.8,1.6-4.5,2.7-4.1,4.2c0.6,2.1,2,2.2,5.9,2.1
					c2.3-0.1,4.8-0.2,7.5,0.6C963.9,567.7,963.8,574.6,962.9,578z"/>
			</g>
			<linearGradient id="XMLID_18_" gradientUnits="userSpaceOnUse" x1="1061.74" y1="745.4658" x2="1068.0729" y2="745.4658">
				<stop  offset="0" style="stop-color:#46B8FB"/>
				<stop  offset="0.535" style="stop-color:#77FFFC"/>
				<stop  offset="1" style="stop-color:#B5FFFD"/>
			</linearGradient>
			<path id="XMLID_142_" class="st23" d="M1064.9,752.7L1064.9,752.7c-1.7,0-3.2-1.4-3.2-3.2v-8.2c0-1.7,1.4-3.2,3.2-3.2l0,0
				c1.7,0,3.2,1.4,3.2,3.2v8.2C1068.1,751.3,1066.7,752.7,1064.9,752.7z"/>
			<linearGradient id="XMLID_19_" gradientUnits="userSpaceOnUse" x1="1061.74" y1="776.2584" x2="1068.0729" y2="776.2584">
				<stop  offset="0" style="stop-color:#46B8FB"/>
				<stop  offset="0.535" style="stop-color:#77FFFC"/>
				<stop  offset="1" style="stop-color:#B5FFFD"/>
			</linearGradient>
			<path id="XMLID_141_" class="st24" d="M1064.9,783.5L1064.9,783.5c-1.7,0-3.2-1.4-3.2-3.2v-8.2c0-1.7,1.4-3.2,3.2-3.2l0,0
				c1.7,0,3.2,1.4,3.2,3.2v8.2C1068.1,782.1,1066.7,783.5,1064.9,783.5z"/>
			<g id="XMLID_127_">
				<linearGradient id="XMLID_20_" gradientUnits="userSpaceOnUse" x1="914.4839" y1="801.5584" x2="946.8237" y2="801.5584">
					<stop  offset="0" style="stop-color:#46B8FB"/>
					<stop  offset="0.535" style="stop-color:#77FFFC"/>
					<stop  offset="1" style="stop-color:#B5FFFD"/>
				</linearGradient>
				<polygon id="XMLID_140_" class="st25" points="924.9,828.9 914.5,824.3 936.4,774.2 946.8,778.8 				"/>
				<linearGradient id="XMLID_21_" gradientUnits="userSpaceOnUse" x1="934.7125" y1="759.7115" x2="961.6264" y2="759.7115">
					<stop  offset="0" style="stop-color:#46B8FB"/>
					<stop  offset="0.535" style="stop-color:#77FFFC"/>
					<stop  offset="1" style="stop-color:#B5FFFD"/>
				</linearGradient>
				<path id="XMLID_138_" class="st26" d="M943.6,748.4c0,0-1.5-0.8-2.8,1c-1.4,1.8-9.3,8.8-4.5,15.7c4.8,6.9,17.3,7.8,22.3,2.9
					c4.4-4.3,3.5-9,0.9-14.6c-1.3-2.8-1.9-2.9-3.3-3l-0.8,6.7c-0.4,3.2-3.3,5.4-6.4,5.1l-1.1-0.1c-3.2-0.4-5.5-3.3-5.1-6.5
					L943.6,748.4z"/>
				<linearGradient id="XMLID_22_" gradientUnits="userSpaceOnUse" x1="935.6537" y1="771.9539" x2="956.9501" y2="771.9539">
					<stop  offset="0" style="stop-color:#46B8FB"/>
					<stop  offset="0.535" style="stop-color:#77FFFC"/>
					<stop  offset="1" style="stop-color:#B5FFFD"/>
				</linearGradient>
				<path id="XMLID_134_" class="st27" d="M935.7,764.2c0,0,3,5,0.3,11l10.4,4.6c0,0,3.1-7.4,10.5-10.4L935.7,764.2z"/>
				<linearGradient id="XMLID_23_" gradientUnits="userSpaceOnUse" x1="907.6263" y1="833.208" x2="926.0815" y2="833.208">
					<stop  offset="0" style="stop-color:#46B8FB"/>
					<stop  offset="0.535" style="stop-color:#77FFFC"/>
					<stop  offset="1" style="stop-color:#B5FFFD"/>
				</linearGradient>
				<path id="XMLID_128_" class="st28" d="M920.6,824.8c-4.7-2-10.1,0.1-12.1,4.8c-2,4.7,0.1,10.1,4.8,12.1c4.7,2,10.1-0.1,12.1-4.8
					C927.3,832.2,925.2,826.8,920.6,824.8z M915,837.5c-2.4-1-3.5-3.8-2.4-6.2c1-2.4,3.8-3.5,6.2-2.4c2.4,1,3.5,3.8,2.4,6.2
					C920.1,837.5,917.3,838.5,915,837.5z"/>
			</g>
			<g id="XMLID_119_">
				<path id="XMLID_120_" class="st6" d="M917.6,896.5l-6.3-9.5c1.1-0.7,26.6-17.4,67.4-12.5l-1.4,11.3
					C941,881.4,917.9,896.3,917.6,896.5z"/>
			</g>
			<g id="XMLID_110_">
				<path id="XMLID_111_" class="st7" d="M917.6,896.5l-6.3-9.5c0.1-0.1,1.1-0.7,2.9-1.7l5.5,10C918.4,896,917.7,896.5,917.6,896.5z
					 M927.7,891.6l-4.2-10.6c0.9-0.4,1.8-0.7,2.8-1.1l3.9,10.8C929.3,891,928.5,891.3,927.7,891.6z M938.8,888.1L936,877
					c1-0.2,1.9-0.5,2.9-0.7l2.5,11.2C940.5,887.6,939.6,887.9,938.8,888.1z M950.3,885.9l-1.5-11.3c1-0.1,2-0.2,3-0.3l1.2,11.4
					C952,885.7,951.1,885.8,950.3,885.9z M976.4,885.7c-0.9-0.1-1.8-0.2-2.7-0.3l1-11.4c1,0.1,2,0.2,3,0.3L976.4,885.7z M962,885
					l-0.2-11.4c0.7,0,1.3,0,2,0l1,0l-0.1,11.4l-0.9,0C963.2,885,962.6,885,962,885z"/>
			</g>
			
				<ellipse id="XMLID_109_" transform="matrix(0.1596 -0.9872 0.9872 0.1596 -113.8397 1653.035)" class="st3" cx="914" cy="893.4" rx="10.9" ry="10.9"/>
			<path id="XMLID_108_" class="st3" d="M1090.8,892.7c-4.3,4.2-4.3,11.2-0.1,15.4c4.2,4.3,11.2,4.3,15.4,0.1
				c4.3-4.2,4.3-11.2,0.1-15.4C1102,888.5,1095.1,888.5,1090.8,892.7z"/>
			<path id="XMLID_54_" class="st6" d="M1020.3,883.3h-11l-5.5,9l5.5,9h11l5.5-9L1020.3,883.3z M1014.8,895.1
				c-2.1,0-3.8-1.7-3.8-3.8c0-2.1,1.7-3.8,3.8-3.8s3.8,1.7,3.8,3.8C1018.6,893.3,1016.9,895.1,1014.8,895.1z"/>
			<path id="XMLID_51_" class="st3" d="M1114.3,857.6h-13.2c-1,0-1.9-0.8-1.9-1.9v-4.9c0-1,0.8-1.9,1.9-1.9h13.2
				c1,0,1.9,0.8,1.9,1.9v4.9C1116.2,856.8,1115.4,857.6,1114.3,857.6z"/>
			<path id="XMLID_50_" class="st0" d="M1085.6,907.1l10,21.3l72.6-34.2l-2.5-5.2c-4.2-8.9-14.8-12.7-23.6-8.5L1085.6,907.1z"/>
			<path id="XMLID_49_" class="st0" d="M918.3,907.2l-22.2,7.9l-26.9-75.6l5.5-1.9c9.2-3.3,19.4,1.5,22.7,10.8L918.3,907.2z"/>
			<circle id="XMLID_48_" class="st0" cx="933.5" cy="795.3" r="15.2"/>
			<linearGradient id="XMLID_24_" gradientUnits="userSpaceOnUse" x1="938.3946" y1="544.6213" x2="946.2126" y2="544.6213">
				<stop  offset="0" style="stop-color:#46B8FB"/>
				<stop  offset="0.535" style="stop-color:#77FFFC"/>
				<stop  offset="1" style="stop-color:#B5FFFD"/>
			</linearGradient>
			<path id="XMLID_46_" class="st29" d="M946.2,544.6c0,2.2-1.8,3.9-3.9,3.9c-2.2,0-3.9-1.8-3.9-3.9c0-2.2,1.8-3.9,3.9-3.9
				C944.5,540.7,946.2,542.5,946.2,544.6z"/>
			<path id="XMLID_44_" class="st0" d="M1142,870c0,2.4-1.9,4.3-4.3,4.3c-2.4,0-4.3-1.9-4.3-4.3c0-2.4,1.9-4.3,4.3-4.3
				C1140.1,865.7,1142,867.6,1142,870z"/>
		</g>
	</g>
</g>
</svg>
