<?xml version="1.0" encoding="utf-8"?>
<!-- Generator: Adobe Illustrator 22.1.0, SVG Export Plug-In . SVG Version: 6.00 Build 0)  -->
<svg version="1.1" id="Layer_1" xmlns="http://www.w3.org/2000/svg" xmlns:xlink="http://www.w3.org/1999/xlink" x="0px" y="0px"
	 viewBox="0 0 192 115.2" style="enable-background:new 0 0 192 115.2;" xml:space="preserve">
<style type="text/css">
	.st0{fill:#EFF1F4;}
	.st1{opacity:0.45;}
	.st2{fill:#FAFAFA;}
	.st3{fill:#F9F9F9;}
	.st4{fill:#F7F7F7;}
	.st5{fill:#F4F4F4;}
	.st6{fill:#F5F5F5;}
	.st7{fill:#F1F1F1;}
	.st8{fill:#EFEFEF;}
	.st9{fill:#EBEBEB;}
	.st10{fill:#E8E8E8;}
	.st11{fill:#E3E3E3;}
	.st12{fill:#DFDFDF;}
	.st13{fill:#D7D7D7;}
	.st14{fill:#D1D1D1;}
	.st15{fill:#CFCFCF;}
	.st16{fill:#C9C9C9;}
	.st17{fill:#C0C0C0;}
	.st18{fill:#BABABA;}
	.st19{fill:#BFBFBF;}
	.st20{fill:#B3B3B3;}
	.st21{fill:#ABABAB;}
	.st22{fill:#A3A3A3;}
	.st23{fill:#9C9C9C;}
	.st24{fill:#949494;}
	.st25{fill:#969696;}
	.st26{fill:#929292;}
	.st27{fill:#8A8A8A;}
	.st28{fill:#848484;}
	.st29{fill:#7D7D7D;}
	.st30{fill:#777777;}
	.st31{fill:#727272;}
	.st32{fill:#737373;}
	.st33{fill:#6C6C6C;}
	.st34{fill:#707070;}
	.st35{fill:#676767;}
	.st36{fill:#636363;}
	.st37{fill:#5B5B5B;}
	.st38{fill:#565656;}
	.st39{fill:#535353;}
	.st40{fill:#4F4F4F;}
	.st41{fill:#505050;}
	.st42{fill:#4D4D4D;}
	.st43{fill:#4B4B4B;}
	.st44{fill:#494949;}
	.st45{fill:#4A4A4A;}
	.st46{fill:#484848;}
	.st47{fill:#474747;}
	.st48{fill:#464646;}
	.st49{fill:#454545;}
	.st50{fill:#444444;}
	.st51{fill:#434343;}
	.st52{fill:#424242;}
	.st53{fill:#404040;}
	.st54{fill:url(#SVGID_1_);}
	.st55{opacity:0.5;}
	.st56{fill:#FFFFFF;stroke:#FFFFFF;stroke-width:0.25;stroke-miterlimit:10;stroke-dasharray:5,2;}
	.st57{fill:#FFFFFF;}
	.st58{fill:none;stroke:#FFFFFF;stroke-width:0.25;stroke-miterlimit:10;stroke-dasharray:5,2;}
	.st59{opacity:0.15;}
	.st60{fill:none;}
	.st61{opacity:0.15;fill:#FFFFFF;enable-background:new    ;}
</style>
<g id="BG">
	<g>
		<rect class="st0" width="192" height="115.2"/>
	</g>
	<g class="st1">
		<path class="st2" d="M8.7,107.4c0.7,2.5,1.8,4.6,3.3,6.3h172.1c1.2-1.4,2.1-3,2.8-4.9c1.5-4.1,1.7-8.4,1.7-12.7
			c0-22.4,0.3-44.9-0.2-67.3c-0.1-3-0.3-6-1.1-8.9c-1.5-5.3-4.8-9-10-10.9c-4.1-1.5-8.4-1.6-12.6-1.6c-22.2-0.1-44.4,0-71.2,0
			C75,7.7,51.9,7.1,28.8,7.6c-3,0.1-6,0.3-8.9,1.1c-5.2,1.5-8.9,4.7-10.8,9.8C7.6,22.7,7.5,27,7.5,31.3c0,22.4-0.3,44.9,0.2,67.3
			C7.7,101.6,7.9,104.5,8.7,107.4z"/>
		<path class="st3" d="M8.8,95c0.1,1.9,0,3.8,0.2,5.8c0.2,2.6,0.7,5.2,1.6,7.7c0.8,2.1,1.9,3.8,3.4,5.3h168.1c1-1,1.9-2.1,2.6-3.5
			c1.8-3.4,2.4-7.1,2.6-10.9c0.2-4.7,0.2-9.5,0.2-14.2c0-7.1,0-14.2,0-23.3c-0.1-8.5,0.3-18.9-0.2-29.4c-0.1-1.9,0-3.8-0.2-5.8
			c-0.2-2.6-0.7-5.2-1.6-7.7c-1.3-3.4-3.5-5.9-6.6-7.6c-3.4-1.8-7.1-2.4-10.9-2.6c-4.8-0.2-9.6-0.3-14.5-0.2
			C113.1,8.7,72.7,8.3,32.3,8.8c-1.9,0-3.8,0-5.7,0.2C24,9.2,21.4,9.6,19,10.5c-3.4,1.3-5.9,3.4-7.6,6.6c-1.9,3.5-2.4,7.2-2.6,11
			c-0.2,4.7-0.3,9.5-0.2,14.2C8.6,59.9,8.3,77.4,8.8,95z"/>
		<path class="st4" d="M9.4,97.1c0.1,2.7,0.2,5.3,0.7,7.9c0.7,3.5,2.2,6.5,4.7,8.7h166.3c1.3-1.2,2.5-2.6,3.3-4.5
			c1.4-2.9,2-6.1,2-9.2c0.1-4.4,0.3-8.8,0.3-13.2c0-7.7,0-15.4,0-24.7c-0.1-9.5,0.1-20.7-0.2-31.8c-0.1-2.6-0.2-5.3-0.7-7.8
			c-1-4.8-3.4-8.7-8.1-10.9c-2.9-1.4-6-1.9-9.1-2c-3.5-0.2-7-0.3-10.6-0.2C115.3,9.5,72.7,9.1,30,9.6c-2.6,0-5.3,0.2-7.8,0.7
			c-4.8,1-8.7,3.4-10.9,8.1c-1.4,2.9-1.9,6-2,9.1c0.1,3.8-0.1,7.6-0.1,11.5C9.3,58.4,9,77.7,9.4,97.1z"/>
		<path class="st5" d="M11.2,106.1c0.9,3.1,2.5,5.8,5.1,7.7h1.4c-2.7-1.6-4.5-4-5.4-7.3c-0.1-0.3-0.2-0.5-0.3-0.7
			c-0.4-0.9-0.7-1.8-0.6-2.8c0-0.2,0-0.3-0.1-0.5c-0.3-0.5-0.3-0.9-0.2-1.4c0-0.2,0-0.3-0.1-0.5c-0.4-0.9-0.4-1.8-0.1-2.7
			c0-0.7,0.1-1.3-0.1-2c-0.2-0.5-0.1-1-0.1-1.5c0-20.3,0-40.7,0-61c0-0.5-0.1-1,0.1-1.5c0.1-0.7,0.1-1.3,0.1-2
			c-0.2-0.9-0.3-1.8,0.1-2.7c0.1-0.2,0.2-0.4,0.2-0.6s0.1-0.3,0.1-0.5c0-0.4,0-0.9,0.2-1.3c0.5-3,1.5-5.7,3.4-8.1
			c0.4-0.6,0.8-1.1,1.4-1.4c2.4-1.8,5.2-2.9,8.1-3.5c0.4-0.2,0.9-0.1,1.3-0.1c0.2,0,0.4,0,0.5-0.1c0.7-0.2,1.3-0.1,2-0.1
			c0.4,0,0.8,0,1.2-0.1c0.5-0.1,1-0.1,1.6-0.1c44.5,0,89.1,0,133.6,0c0.5,0,1-0.1,1.6,0.1c0.4,0.1,0.8,0.1,1.2,0.1
			c0.7,0,1.3-0.1,2,0.1c0.2,0,0.3,0.1,0.5,0.1c0.4,0,0.9,0,1.3,0.2c0.2,0.1,0.4,0.2,0.6,0.2c2.8,0.5,5.2,1.6,7.5,3.3
			c0.7,0.3,1.1,0.7,1.4,1.4c0.9,1.2,1.5,2.4,2.1,3.7c0.6,1.4,0.9,2.9,1.4,4.4c0.2,0.4,0.1,0.9,0.2,1.3c0,0.2,0,0.3,0.1,0.5
			c0.2,0.7,0.1,1.3,0.1,2c0,0.4,0,0.8,0.1,1.2c0.1,0.5,0.1,1,0.1,1.5c0,21.7,0,43.3,0,65c0,0.5,0.1,1-0.1,1.6
			c-0.1,0.4-0.1,0.8-0.1,1.2c0,0.7,0.1,1.3-0.1,2c0,0.2-0.1,0.3-0.1,0.5c0,0.4,0,0.9-0.2,1.3c-0.3,1.1-0.6,2.2-0.8,3.3
			c0.2,0.9-0.2,1.6-0.5,2.3c-0.2,0.5-0.7,0.9-0.2,1.5c0.6-0.7,0.8-1.7,1.3-2.5c0.3-0.6,0.5-1.3,0.7-2c0-0.3-0.1-0.7,0.2-0.9
			c0.3-0.3,0-0.8,0.2-1.1c0.3-0.4-0.1-0.9,0.2-1.3c0.3-0.7-0.1-1.5,0.2-2.2c0.2-0.4,0.1-0.8,0.1-1.2c0-23.3,0-46.7,0-70
			c0-0.4,0.1-0.8-0.1-1.2c-0.3-0.7,0.1-1.5-0.2-2.2c-0.3-0.4,0.1-0.9-0.2-1.3c-0.3-0.3,0-0.8-0.2-1.1c-0.3-0.2-0.2-0.6-0.2-0.9
			c-0.2-0.7-0.4-1.4-0.7-2c-0.6-1.1-1.2-2.2-1.8-3.3c-0.2-0.3-0.5-0.6-0.7-0.9c-0.5-0.4-1-0.8-1.3-1.3c-0.3-0.2-0.6-0.5-0.9-0.7
			c-1.1-0.6-2.2-1.2-3.3-1.8c-0.6-0.3-1.3-0.5-2-0.7c-0.3,0-0.7,0.1-0.9-0.2c-0.3-0.3-0.8,0-1.1-0.2c-0.4-0.3-0.9,0.1-1.3-0.2l0,0
			c-0.7-0.3-1.5,0.1-2.2-0.2c-0.4-0.2-0.8-0.1-1.2-0.1c-46.2,0-92.5,0-138.7,0c-0.4,0-0.8-0.1-1.2,0.1c-2.1-0.1-4.2,0.4-6.2,0.9
			c-3.3,1-6.1,2.8-8.1,5.8C10.7,21,10,25.1,10,29.3c-0.1,22.7,0,45.3,0,68C10.1,100,10.4,103.1,11.2,106.1z"/>
		<path class="st6" d="M168.6,10.3c-47,0-94.1,0-141.1,0c0.3-0.4,0.8-0.2,1.2-0.2c46.3,0,92.5,0,138.8,0
			C167.8,10.1,168.2,10,168.6,10.3z"/>
		<path class="st6" d="M185.7,99.9c0-24.1,0-48.3,0-72.4c0.4,0.3,0.2,0.8,0.2,1.2c0,23.4,0,46.8,0,70.1
			C185.9,99.2,186.1,99.6,185.7,99.9z"/>
		<path class="st5" d="M179.1,113.7c0.3-0.2,0.6-0.4,0.9-0.6c0.7-0.5,1.2-1.2,1.9-1.7c0.3-0.3,0.4-0.8,0.8-1c0-0.2,0-0.3,0.2-0.4
			c0-0.7,0.5-1.2,0.7-1.8c0.2-0.6,0.8-1.2,0.2-1.9c-0.3,0.1-0.4,0.4-0.5,0.6c-0.6,1.4-1.4,2.8-2.3,4.1c-0.3,0.7-0.7,1.1-1.4,1.3
			c-0.7,0.6-1.5,1-2.2,1.5L179.1,113.7L179.1,113.7z"/>
		<path class="st5" d="M179.9,113.1c0.5-0.7,1.1-1.3,1.8-1.8l0.1,0.1c0,0.1,0,0.3-0.1,0.4c-0.5,0.4-1,0.8-1.3,1.3
			C180.2,113.1,180.1,113.1,179.9,113.1z"/>
		<path class="st6" d="M184.8,21.9c-0.4-0.6-0.6-1.3-0.7-2C184.7,20.5,184.8,21.2,184.8,21.9z"/>
		<path class="st6" d="M184.2,107.5c0.1-0.7,0.3-1.4,0.7-2C184.8,106.2,184.7,106.9,184.2,107.5z"/>
		<path class="st6" d="M176.1,11.9c-0.7-0.1-1.4-0.3-2-0.7C174.9,11.2,175.6,11.4,176.1,11.9z"/>
		<path class="st6" d="M185.5,102.2c0.1-0.7-0.2-1.5,0.2-2.2C185.6,100.7,185.9,101.5,185.5,102.2z"/>
		<path class="st6" d="M170.8,10.6c-0.7-0.1-1.5,0.2-2.2-0.2C169.3,10.4,170.1,10.1,170.8,10.6z"/>
		<path class="st6" d="M185.7,27.5c-0.5-0.7-0.1-1.5-0.2-2.2C185.9,26,185.6,26.8,185.7,27.5z"/>
		<path class="st5" d="M181.7,111.3c0.1-0.5,0.4-0.8,0.9-0.9c-0.1,0.1-0.1,0.3-0.2,0.4C182.2,111,182.1,111.4,181.7,111.3z"/>
		<path class="st6" d="M182.4,16.6c-0.4-0.2-0.7-0.4-0.7-0.9C182.1,15.9,182.4,16.1,182.4,16.6z"/>
		<path class="st6" d="M185.3,103.5c0.1-0.4-0.2-0.9,0.2-1.3C185.4,102.6,185.7,103.1,185.3,103.5z"/>
		<path class="st6" d="M181.7,111.3c0.2-0.1,0.4-0.3,0.7-0.4c0,0.5-0.3,0.7-0.7,0.9C181.7,111.6,181.7,111.4,181.7,111.3z"/>
		<path class="st6" d="M172.1,10.8c-0.4-0.1-0.9,0.2-1.3-0.2C171.2,10.6,171.7,10.4,172.1,10.8z"/>
		<path class="st6" d="M185.5,25.3c-0.4-0.4-0.2-0.9-0.2-1.3C185.7,24.3,185.4,24.8,185.5,25.3z"/>
		<path class="st6" d="M180.4,14.3c-0.5,0-0.7-0.3-0.9-0.7C179.9,13.7,180.2,14,180.4,14.3z"/>
		<path class="st6" d="M185,104.6c0.1-0.4-0.1-0.8,0.2-1.1C185.2,103.9,185.4,104.3,185,104.6z"/>
		<path class="st6" d="M185.3,23.9c-0.4-0.3-0.2-0.7-0.2-1.1C185.4,23.1,185.2,23.6,185.3,23.9z"/>
		<path class="st6" d="M173.2,11c-0.4-0.1-0.8,0.1-1.1-0.2C172.5,10.8,172.9,10.6,173.2,11z"/>
		<path class="st7" d="M10.7,94.9c0,1,0.4,2,0.1,3c-0.2,0.9-0.2,1.8,0.1,2.7c0,0.1,0,0.3,0,0.4c0.1,0.4-0.1,0.9,0.2,1.3
			c0,0.1,0,0.3,0,0.4c0.1,1,0.3,2,0.7,2.9c0,0.2,0,0.5,0.2,0.7c1,3.2,2.9,5.7,5.5,7.3h160.3c0.6-0.4,1.2-0.8,1.8-1.3
			c0.5-0.4,1-0.8,1.3-1.3c1.2-1.5,2-3.2,2.7-4.9c0.3-1.1,0.6-2.2,0.9-3.3c0.3-0.4-0.1-0.9,0.2-1.3V101c0.3-0.6-0.1-1.4,0.2-2v-1.1
			c0.2-22.8,0.2-45.6,0-68.4v-1.1c-0.3-0.6,0.1-1.4-0.2-2V26c-0.3-0.4,0.1-0.9-0.2-1.3c-0.1-0.2-0.2-0.4-0.2-0.6
			c-0.5-2.8-1.6-5.4-3.4-7.6c-0.4-0.5-0.8-1-1.3-1.3c-0.9-0.7-1.8-1.2-2.8-1.8c-1.7-0.9-3.6-1.3-5.4-1.8c-0.4-0.3-0.9,0.1-1.3-0.2
			c-0.1,0-0.3,0-0.4,0c-0.6-0.3-1.4,0.1-2-0.2c-0.4,0-0.7,0-1.1,0c-45.7-0.2-91.4-0.2-137.1,0c-0.4,0-0.7,0-1.1,0
			c-0.6,0.3-1.4-0.1-2,0.2c-0.1,0-0.3,0-0.4,0c-0.4,0.3-0.9-0.1-1.3,0.2c-3.1,0.5-5.9,1.5-8.2,3.6c-0.5,0.4-1,0.8-1.3,1.3
			c-2.2,2.3-3.2,5.1-3.6,8.2c-0.3,0.4,0.1,0.9-0.2,1.3c0,0.1,0,0.3,0,0.4c-0.3,0.7-0.3,1.4-0.4,2.1c-0.1,0.4,0.1,0.8,0.1,1.2
			c0.3,1-0.2,1.9-0.2,2.9C10.8,53.3,10.8,74.1,10.7,94.9z"/>
		<path class="st7" d="M166.5,11c-0.3,0.2-0.7,0.3-1.1,0.2c-1.6-0.4-3.2-0.2-4.9-0.2c-42.7,0-85.4,0-128.1,0c-1,0-2,0.6-3,0
			c0.3-0.4,0.8-0.2,1.2-0.2c44.9,0,89.8,0,134.8,0C165.8,10.8,166.2,10.6,166.5,11z"/>
		<path class="st7" d="M11,29.5c0.2,0.3,0.3,0.7,0.2,1.1c-0.4,1.6-0.2,3.2-0.2,4.9c0,19.9,0,39.7,0,59.6c0,1,0.6,2,0,2.9
			c-0.1,0.1-0.1,0.1-0.2,0c0-0.7,0-1.3,0-2c-0.2-0.4-0.1-0.8-0.1-1.2c0-20.7,0-41.3,0-62c0-0.4-0.1-0.8,0.1-1.2c0-0.7,0-1.3,0-2
			C10.8,29.4,10.9,29.4,11,29.5z"/>
		<path class="st7" d="M185,97.9c-0.2-0.3-0.3-0.7-0.2-1.1c0.4-1.6,0.2-3.2,0.2-4.9c0-19.9,0-39.7,0-59.6c0-1-0.6-2,0-2.9
			c0.4,0.3,0.2,0.8,0.2,1.2c0,22,0,44.1,0,66.1C185.3,97.2,185.4,97.6,185,97.9z"/>
		<path class="st5" d="M10.8,31.5c0,21.5,0,42.9,0,64.4c-0.4-0.3-0.2-0.8-0.2-1.2c0-20.7,0-41.4,0-62.1
			C10.5,32.3,10.4,31.8,10.8,31.5z"/>
		<path class="st5" d="M16.4,113.1c0.3,0.2,0.5,0.4,0.8,0.6h0.7c-2.1-1.2-3.7-2.9-4.8-5.3c-0.3-0.7-0.5-1.5-1-2.1
			c0,0.4,0,0.7,0.2,1.1C13.1,109.7,14.5,111.6,16.4,113.1z"/>
		<path class="st5" d="M10.8,97.9c0.1,0,0.1,0,0.2,0c0,0.9,0,1.8,0,2.7C10.4,99.8,10.4,98.9,10.8,97.9z"/>
		<path class="st5" d="M11.2,102.8c0.3,0.9,0.6,1.9,0.7,2.9C11.2,104.9,11,103.9,11.2,102.8z"/>
		<path class="st5" d="M11,29.5c-0.1,0-0.1,0-0.2,0c-0.4-0.9-0.3-1.8,0.2-2.7c0.2,0.5,0.2,1,0,1.6C11,28.8,11,29.1,11,29.5z"/>
		<path class="st7" d="M181,16.4c-0.5-0.4-1-0.8-1.3-1.3C180.4,15.2,180.8,15.6,181,16.4z"/>
		<path class="st7" d="M16.3,15c-0.4,0.5-0.8,1-1.3,1.3C15.2,15.6,15.6,15.2,16.3,15z"/>
		<path class="st5" d="M11,101c0.4,0.4,0.2,0.9,0.2,1.3C10.6,102,10.7,101.5,11,101z"/>
		<path class="st7" d="M28.4,11c-0.6,0.4-1.3,0.1-2,0.2C27,10.8,27.7,11.1,28.4,11z"/>
		<path class="st7" d="M185,28.4c-0.4-0.6-0.1-1.3-0.2-2C185.3,27,184.9,27.7,185,28.4z"/>
		<path class="st7" d="M184.8,101c0.1-0.7-0.2-1.4,0.2-2C184.9,99.7,185.3,100.4,184.8,101z"/>
		<path class="st7" d="M11,28.4c0-0.5,0-1,0-1.6c0-0.2,0-0.3,0.2-0.4C11.1,27,11.4,27.8,11,28.4z"/>
		<path class="st7" d="M169.7,11.2c-0.7-0.1-1.4,0.2-2-0.2C168.3,11.1,169,10.8,169.7,11.2z"/>
		<path class="st7" d="M184.6,102.8c0.1-0.4-0.2-0.9,0.2-1.3C184.8,101.9,185,102.4,184.6,102.8z"/>
		<path class="st7" d="M171.5,11.4c-0.4-0.1-0.9,0.2-1.3-0.2C170.6,11.3,171.1,11,171.5,11.4z"/>
		<path class="st7" d="M25.9,11.2c-0.4,0.4-0.9,0.2-1.3,0.2C25,11,25.5,11.3,25.9,11.2z"/>
		<path class="st7" d="M11.4,24.6c-0.1,0.4,0.2,0.9-0.2,1.3C11.3,25.5,11,25,11.4,24.6z"/>
		<path class="st7" d="M184.8,25.9c-0.4-0.4-0.2-0.9-0.2-1.3C185,25,184.8,25.5,184.8,25.9z"/>
		<path class="st7" d="M179.7,112.4c0.4-0.5,0.8-1,1.3-1.3C180.8,111.8,180.4,112.2,179.7,112.4z"/>
		<path class="st8" d="M19.4,113.7h157.3c2.4-1.2,4.4-3.1,5.7-5.7c1.8-3.5,2.2-7.3,2.2-11.1c0.1-21.8,0-43.5,0-65.3
			c0-3.1-0.3-6.3-1.1-9.3c-1.1-3.8-3.2-6.8-6.8-8.6c-3.5-1.8-7.3-2.2-11.1-2.2c-44.6-0.1-89.3,0-133.9,0c-3.1,0-6.3,0.3-9.3,1.1
			c-4.6,1.3-7.8,4.1-9.3,8.6c-1.2,3.4-1.4,6.9-1.5,10.4c0,21.5,0,42.9,0,64.4c0.1,3.1,0.3,6.2,1.1,9.2
			C13.6,108.9,15.8,111.9,19.4,113.7z"/>
		<path class="st8" d="M11.4,31.5c0.4,0.3,0.2,0.8,0.2,1.2c0,20.7,0,41.4,0,62.1c0,0.4,0.1,0.8-0.2,1.2c-0.4-0.3-0.2-0.8-0.2-1.2
			c0-20.7,0-41.4,0-62.1C11.2,32.3,11.1,31.8,11.4,31.5z"/>
		<path class="st9" d="M12.1,29.7c0-3.2,0.5-6.4,1.8-9.4c2.1-4.7,6.1-6.9,10.9-7.7c1.7-0.3,3.5-0.4,5.3-0.5
			c44.2-0.5,88.3-0.1,132.5-0.2c4.1,0,8.4,0.1,12.3,1.7c3.6,1.4,6.2,3.9,7.5,7.5c0.8,2.1,1.4,4.1,1.3,6.4c0,0.3,0.1,0.7-0.5,0.6
			c-0.4-0.4-0.3-0.9-0.3-1.4c-0.3-2.8-1-5.6-2.7-7.9c-2.2-3.2-5.4-4.7-9.1-5.4c-2-0.4-4.1-0.5-6.2-0.5c-44.6,0-89.3,0-133.9,0
			c-3.6,0-7.1,0.3-10.4,1.9c-3.7,1.7-5.7,4.7-6.8,8.4c-0.4,1.4-0.6,2.9-0.7,4.4c0,0.7-0.1,1.4-0.4,2.1
			C12.5,29.8,12.3,29.9,12.1,29.7z"/>
		<path class="st9" d="M20.9,113.7h2.7c-3.1-0.8-5.9-2.3-7.8-5.1c-1.7-2.5-2.5-5.4-2.7-8.5c-0.1-0.8-0.1-1.6-0.4-2.4
			c-0.2-0.2-0.4-0.2-0.6-0.1c0,2.9,0.5,5.8,1.5,8.6C14.9,109.9,17.4,112.3,20.9,113.7z"/>
		<path class="st9" d="M183.5,28.2c0.1-0.2,0.1-0.4,0.2-0.7c0.2,0.2,0.2,0.4,0.2,0.6c-0.2,2.4,0.2,4.8,0.2,7.2c0,19.4,0,38.8,0,58.2
			c0,1.4-0.4,2.8-0.2,4.2c-0.2,0.1-0.4,0.1-0.6-0.1c-0.3-0.6-0.2-1.3-0.2-2c0-21.1,0-42.3,0-63.4c0-0.9,0-1.7,0-2.6
			C183.1,29.1,183.1,28.6,183.5,28.2z"/>
		<path class="st9" d="M12.5,97.7c-0.1,0-0.3,0-0.4,0c-0.4-22.7-0.4-45.3,0-68c0.1,0,0.3,0,0.4,0c0.4,0.4,0.3,0.9,0.3,1.4
			c0,21.7,0,43.5,0,65.2C12.8,96.8,12.9,97.3,12.5,97.7z"/>
		<path class="st9" d="M175.2,113.7c3-1.2,5.5-3.3,6.9-6.6c1.3-3,1.8-6.1,1.8-9.4h-0.4c-0.3,0.2-0.3,0.6-0.3,0.9
			c-0.2,1.2-0.2,2.4-0.4,3.6c-0.5,2.8-1.5,5.4-3.5,7.6c-1.9,2.1-4.2,3.2-6.7,3.9H175.2z"/>
		<path class="st10" d="M20.5,113c0.6,0.3,1.3,0.6,1.9,0.8h151.2c3.5-1.2,6.2-3.2,7.9-6.7c1.4-3,1.8-6.1,2-9.3V28.2
			c-0.2-0.2-0.2-0.4-0.2-0.6c0.1-1.5-0.3-3-0.7-4.5c-1.1-3.8-3.2-6.8-6.9-8.6c-2.9-1.4-6.1-1.9-9.2-2c-45.3,0-90.5,0-135.8,0
			c-2.5,0-5,0.2-7.5,0.9c-3.8,1.1-6.9,3.2-8.7,6.9c-1.5,3-1.8,6.1-2,9.4v68c0.1,2.3,0.3,4.6,1,6.9C14.7,108.3,16.8,111.2,20.5,113z"
			/>
		<path class="st11" d="M13.1,93.4c0,1.4-0.1,2.9,0.3,4.3c0,0.5,0,1,0,1.6c-0.2,0.5,0,0.9,0.2,1.3v0.7c-0.1,0.3,0.1,0.5,0.2,0.7
			c0,0.2,0,0.4,0,0.7c0.2,0.8,0.3,1.7,0.7,2.5c0.1,0.2,0.1,0.4,0.2,0.7c0.1,0.3,0.2,0.6,0.4,0.9c0.1,0.1,0.1,0.3,0.2,0.4
			c1.1,2.1,2.8,3.8,4.9,4.9c0.6,0.4,1.3,0.7,2,0.9c0.2,0.2,0.4,0.2,0.7,0.2h0.2c0.5,0.3,1,0.4,1.6,0.4c0.2,0,0.4,0,0.7,0
			c0.1,0.1,0.2,0.1,0.3,0.2h144.6c0.1-0.1,0.2-0.1,0.3-0.2c0.2,0,0.4,0,0.7,0c0.5-0.1,1.1-0.1,1.6-0.4h0.2c0.2,0,0.5-0.1,0.7-0.2
			l2-0.9c2.1-1.1,3.8-2.8,4.9-4.9c0-0.2,0-0.3,0.2-0.4c0.2-0.3,0.3-0.6,0.4-0.9c0-0.2,0-0.5,0.2-0.7c0.4-0.8,0.5-1.6,0.7-2.5V102
			c0.2-0.2,0.4-0.4,0.2-0.7v-0.7c0.2-0.3,0.3-0.7,0.2-1.1v-1.8c0.4-1.4,0.3-2.9,0.3-4.3c0-19.8,0-39.6,0-59.4c0-1.4,0.1-2.9-0.3-4.3
			v-1.8c0.1-0.4,0-0.8-0.2-1.1v-0.7c0.1-0.3-0.1-0.5-0.2-0.7v-0.7c-0.2-0.8-0.3-1.7-0.7-2.5c-0.3-0.2-0.2-0.4-0.2-0.7
			c-0.1-0.3-0.2-0.6-0.4-0.9c-0.2-0.1-0.2-0.3-0.2-0.4c-1.1-2.1-2.8-3.8-4.9-4.9c-0.9-0.4-1.7-1-2.6-1.2c-1.9-0.6-3.9-1-5.9-0.8
			c-0.8,0.1-1.5-0.5-2.4-0.5c-44.5,0-89,0-133.4,0c-1,0-1.9,0.8-2.8,0.4c-1-0.4-1.9,0.1-2.7,0.2c-1.9,0.1-3.8,0.8-5.4,1.9
			c-2.1,1.1-3.8,2.8-4.9,4.9c-0.1,0.1-0.1,0.3-0.2,0.4c-0.2,0.3-0.3,0.6-0.4,0.9c-0.1,0.2-0.1,0.4-0.2,0.7c-0.4,0.8-0.5,1.6-0.7,2.5
			c0,0.2,0,0.4,0,0.7c-0.2,0.2-0.4,0.4-0.2,0.7v0.7c-0.2,0.4-0.4,0.9-0.2,1.3c0,0.5,0,1,0,1.6c-0.4,1.4-0.3,2.9-0.3,4.3
			C13.1,53.8,13.1,73.6,13.1,93.4z"/>
		<path class="st11" d="M13.4,29.7c-0.4,22.7-0.4,45.3,0,68C13,97.3,13,96.8,13,96.3c0-21.7,0-43.4,0-65.1
			C13,30.6,13,30.1,13.4,29.7z"/>
		<path class="st11" d="M182.6,97.7c0.4-22.7,0.4-45.3,0-68c0.5,0.4,0.4,0.9,0.4,1.4c0,21.7,0,43.4,0,65.1
			C183,96.8,183.1,97.3,182.6,97.7z"/>
		<path class="st11" d="M175.7,112c0.4-0.9,1.4-1.1,2.1-1.7c1-1,1.8-2.2,2.8-3.2c0,0.6-0.3,1.1-0.6,1.5
			C178.7,109.9,177.7,111.6,175.7,112z"/>
		<path class="st11" d="M20.3,15.5c-0.4,1-1.6,1.1-2.3,1.8c-1,1-1.6,2.2-2.7,3.1c0-0.6,0.3-1.1,0.6-1.5
			C17.3,17.5,18.3,15.9,20.3,15.5z"/>
		<path class="st11" d="M180.6,20.4c-1-0.4-1.1-1.6-1.8-2.3c-1-1-2.2-1.6-3.1-2.7c0.6,0,1.1,0.3,1.5,0.6
			C178.5,17.3,180.2,18.3,180.6,20.4z"/>
		<path class="st11" d="M15.4,107.1c1,0.4,1.1,1.6,1.8,2.3c1,1,2.2,1.6,3.1,2.7c-0.6,0-1.1-0.3-1.5-0.6
			C17.5,110.1,15.8,109.1,15.4,107.1z"/>
		<path class="st11" d="M14.5,22.4c-0.1,0.8-0.3,1.7-0.7,2.5C13.8,23.9,13.9,23.1,14.5,22.4z"/>
		<path class="st11" d="M182.1,24.8c-0.4-0.8-0.5-1.6-0.7-2.5C182.1,23.1,182.3,23.9,182.1,24.8z"/>
		<path class="st11" d="M181.5,105.1c0.1-0.8,0.3-1.7,0.7-2.5C182.3,103.5,182.1,104.3,181.5,105.1z"/>
		<path class="st11" d="M13.9,102.6c0.4,0.8,0.5,1.6,0.7,2.5C13.9,104.3,13.8,103.5,13.9,102.6z"/>
		<path class="st11" d="M171.2,113.5c0.5-0.3,1-0.4,1.6-0.4C172.4,113.6,171.9,113.7,171.2,113.5z"/>
		<path class="st11" d="M23.2,113.1c0.5,0,1.1,0.1,1.6,0.4C24.2,113.7,23.6,113.6,23.2,113.1z"/>
		<path class="st11" d="M13.4,99.3c0.1,0.4,0.3,0.9,0.2,1.3C13.1,100.2,13.1,99.8,13.4,99.3z"/>
		<path class="st11" d="M13.7,26.8c0.1,0.5-0.1,0.9-0.2,1.3C13.1,27.6,13.1,27.2,13.7,26.8z"/>
		<path class="st11" d="M182.4,100.6c0-0.4,0-0.8,0.2-1.1C183,100,182.9,100.3,182.4,100.6z"/>
		<path class="st11" d="M182.6,27.9c-0.2-0.3-0.2-0.7-0.2-1.1C182.8,27.1,183,27.5,182.6,27.9z"/>
		<path class="st11" d="M181.3,21.7c-0.3-0.2-0.4-0.5-0.4-0.9C181.1,21,181.5,21.2,181.3,21.7z"/>
		<path class="st11" d="M15.2,20.8c0,0.4-0.2,0.7-0.4,0.9C14.6,21.2,14.9,21,15.2,20.8z"/>
		<path class="st11" d="M14.8,105.7c0.3,0.2,0.4,0.5,0.4,0.9C14.9,106.4,14.6,106.2,14.8,105.7z"/>
		<path class="st11" d="M180.8,106.6c0-0.4,0.2-0.7,0.4-0.9C181.5,106.2,181.1,106.4,180.8,106.6z"/>
		<path class="st11" d="M182.1,101.9c0.1-0.2,0.1-0.4,0.2-0.7C182.7,101.6,182.6,101.8,182.1,101.9z"/>
		<path class="st11" d="M22.3,112.9c0.2,0,0.5,0,0.7,0.2C22.6,113.5,22.5,113.1,22.3,112.9z"/>
		<path class="st11" d="M182.4,26.2c-0.1-0.2-0.1-0.4-0.2-0.7C182.6,25.6,182.7,25.8,182.4,26.2z"/>
		<path class="st11" d="M173,113.1c0.2-0.3,0.4-0.2,0.7-0.2C173.5,113.1,173.4,113.5,173,113.1z"/>
		<path class="st11" d="M13.7,101.3c0.1,0.2,0.1,0.4,0.2,0.7C13.4,101.8,13.3,101.6,13.7,101.3z"/>
		<path class="st11" d="M13.9,25.5c-0.1,0.2-0.1,0.4-0.2,0.7C13.3,25.8,13.4,25.6,13.9,25.5z"/>
		<path class="st12" d="M14.3,102.4c1,5,3.8,8.6,8.8,10.2c2.9,0.9,5.8,1.1,8.8,1.1c2,0,4,0,6,0h126.5c2.2,0,4.4-0.2,6.6-0.7
			c5.1-1,8.6-3.8,10.2-8.8c0.9-2.9,1.1-5.8,1.1-8.8c0.1-20.8,0-41.7,0-62.5c0-2.7-0.2-5.3-0.7-7.9c-1-5.1-3.7-8.6-8.7-10.2
			c-2.9-0.9-5.8-1.1-8.7-1.2c-22.1-0.1-44.1,0-66.2,0c-21.7,0-43.5,0-65.2,0c-2.6,0-5.2,0.2-7.8,0.7c-5,1-8.6,3.8-10.2,8.8
			c-0.9,2.8-1.1,5.7-1.1,8.6c-0.1,20.9,0,41.8,0,62.7C13.7,97.2,13.8,99.8,14.3,102.4z"/>
		<path class="st13" d="M166.1,113c-0.8-0.4-1.6,0.1-2.5,0.1c-43.8,0-87.5,0-131.3,0c-3,0-5.9-0.3-8.8-1.1c-4.9-1.5-7.6-5-8.6-10
			c-0.5-2.6-0.7-5.2-0.7-7.8c0-20.6,0-41.2,0-61.7c0-3,0.3-5.9,1.1-8.8c1.5-5,5.1-7.6,10.1-8.6c2.6-0.5,5.2-0.7,7.9-0.7
			c43.3,0,86.7,0,130,0c3,0,6,0.2,8.9,1.1c5,1.5,7.7,5.1,8.7,10c0.5,2.6,0.7,5.2,0.7,7.9c0,20.5,0,41,0,61.5c0,3-0.2,5.9-1.1,8.8
			c-1.5,5-5,7.6-9.9,8.7C169.2,112.7,167.7,112.8,166.1,113z"/>
		<path class="st14" d="M98,15c22.1,0,44.3,0,66.4,0c3.2,0,6.4,0.3,9.4,1.7c3.7,1.7,5.7,4.8,6.5,8.7c0.5,2.6,0.7,5.2,0.7,7.8
			c0,20.8,0,41.7,0,62.5c0,3.2-0.3,6.4-1.7,9.4c-1.8,3.7-4.8,5.7-8.7,6.5c-2.6,0.5-5.2,0.7-7.8,0.7c-43.7,0-87.4,0-131.1,0
			c-3.2,0-6.4-0.3-9.4-1.7c-3.7-1.7-5.7-4.8-6.5-8.7c-0.5-2.6-0.7-5.2-0.7-7.8c0-20.8,0-41.7,0-62.5c0-3.2,0.3-6.4,1.7-9.4
			c1.8-3.7,4.8-5.7,8.7-6.5c2.6-0.5,5.2-0.7,7.8-0.7C54.9,15,76.4,15,98,15z"/>
		<path class="st15" d="M15.7,32.6c-0.1-3,0.1-6,1.1-8.9c0.9-2.6,2.5-4.6,4.9-6c2.5-1.5,5.4-1.9,8.2-2c11.1-0.5,22.3-0.2,33.4-0.2
			c32.9,0,65.8,0,98.7,0c3.5,0,7.1,0,10.5,1.3c2.6,1,4.7,2.6,6.1,5.2c1.5,2.8,1.8,5.7,1.9,8.8c0.5,20.9,0.1,41.7,0.2,62.6
			c0,3.4,0,6.9-1.2,10.3c-1,3-2.9,5.1-5.7,6.4c-3.2,1.5-6.7,1.7-10.2,1.7c-0.4,0.2-0.8,0.1-1.2,0.1c-42.8,0-85.6,0-128.4,0
			c-0.4,0-0.8,0.1-1.2-0.1c-3.1,0.1-6.1-0.1-9.1-1.1c-2.6-1-4.7-2.6-6-5.2c-1.8-3.4-1.9-7-1.9-10.6c-0.2-0.4-0.1-0.8-0.1-1.2
			c0-19.9,0-39.9,0-59.8C15.6,33.4,15.5,33,15.7,32.6z"/>
		<path class="st15" d="M32.6,111.7c43.6,0,87.2,0,130.8,0c-0.3,0.4-0.8,0.2-1.2,0.2c-42.8,0-85.7,0-128.5,0
			C33.4,112,32.9,112.1,32.6,111.7z"/>
		<path class="st15" d="M15.7,32.6c0,20.7,0,41.5,0,62.2c-0.4-0.3-0.2-0.8-0.2-1.2c0-20,0-39.9,0-59.9C15.4,33.4,15.3,33,15.7,32.6z
			"/>
		<path class="st16" d="M98,111.5c-22.2,0-44.4,0-66.6,0c-2.9,0-5.9-0.3-8.6-1.7c-3.9-1.9-5.6-5.2-6.3-9.2C16.1,98,16,95.5,16,92.9
			c0-20.5,0-41,0-61.5c0-2.9,0.3-5.9,1.6-8.6c1.8-3.9,5.1-5.7,9.1-6.4c2.5-0.4,5-0.5,7.5-0.5c43.5,0,86.9,0,130.4,0
			c3,0,6,0.3,8.7,1.7c3.9,1.9,5.6,5.2,6.3,9.2c0.4,2.6,0.5,5.1,0.5,7.7c0,20.5,0,41,0,61.5c0,2.9-0.3,5.9-1.6,8.6
			c-1.8,3.9-5.1,5.7-9.1,6.4c-2.5,0.4-5,0.5-7.5,0.5C140.5,111.5,119.2,111.5,98,111.5z"/>
		<path class="st17" d="M98,16.6c22.5,0,45,0,67.5,0c2.6,0,5.3,0.4,7.6,1.6c2.8,1.4,4.6,3.7,5.5,6.7c0.8,2.9,0.9,5.8,0.9,8.8
			c0,21,0,42,0,63.1c0,2.7-0.4,5.3-1.6,7.7c-1.1,2.2-2.8,3.9-5.2,4.9c-2.6,1.1-5.2,1.4-8,1.4c-44.6,0-89.3,0-133.9,0
			c-2.7,0-5.4-0.4-7.8-1.6c-2.2-1.1-4-2.8-4.9-5.2c-1.1-2.6-1.4-5.3-1.4-8.1c0-21.8,0-43.7,0-65.5c0-2.6,0.4-5.3,1.6-7.6
			c1.4-2.7,3.7-4.6,6.7-5.4c2.8-0.8,5.7-0.9,8.6-0.9C55,16.6,76.5,16.6,98,16.6z"/>
		<path class="st18" d="M22.3,108.2c-0.2-0.1-0.4-0.3-0.7-0.4c-0.8-0.6-1.4-1.3-2-2c-0.1-0.2-0.3-0.4-0.4-0.7
			c-1.6-2.5-2.1-5.3-2.1-8.2c0-20.7,0-41.3,0-62c0-3.1,0-6.1,0.7-9.1c0.3-1.2,0.7-2.3,1.4-3.4c1-1.1,2-2.2,3.1-3.1
			c1.9-1.2,4.1-1.6,6.3-1.9c1.9-0.2,3.8-0.2,5.7-0.2c43.7,0,87.3,0,131,0c2.9,0,5.8,0.5,8.4,2.1c0.2,0.1,0.4,0.3,0.7,0.4
			c0.8,0.6,1.4,1.3,2,2c0.1,0.2,0.3,0.4,0.4,0.7c1.2,1.9,1.7,4.1,1.9,6.3c0.2,1.9,0.2,3.8,0.2,5.7c0,20.8,0,41.6,0,62.5
			c0,2.9-0.5,5.7-2.1,8.3c-0.1,0.1-0.3,0.1-0.4,0.2c-0.3-0.3-0.1-0.6,0-0.9c0.1-0.4,0.2-0.7,0.5-1s0.4-0.7,0.5-1.2
			c0-0.1,0.1-0.2,0.1-0.4c0.6-1.9,0.8-3.8,0.8-5.8c0-21.6,0-43.1,0-64.7c0-2-0.3-3.9-0.9-5.8c0-0.1-0.1-0.3-0.1-0.4
			c-0.1-0.5-0.3-0.9-0.7-1.3c-2-3.9-5.5-5.2-9.6-5.7c-2.4-0.3-4.8-0.2-7.2-0.2c-42.3,0-84.6,0-126.9,0c-2.8,0-5.6,0.2-8.3,1.3
			c-3,1.2-4.8,3.4-5.7,6.4c-0.6,2-0.9,4.1-0.9,6.3c0,21.5,0,42.9,0,64.4c0,2.4,0.4,4.7,1.4,6.9c0.7,1.5,1.5,2.9,3,3.8
			c0.5,0.3,0.8,0.7,1.3,1c0.4,0.3,0.9,0.5,1.4,0.6c0.1,0,0.3,0.1,0.4,0.1c1.9,0.6,3.8,0.9,5.8,0.9c44.5,0,88.9,0,133.4,0
			c1.9,0,3.8-0.3,5.7-0.8c0.1,0,0.2-0.1,0.4-0.1c0.4-0.1,0.9-0.2,1.2-0.5c0.3-0.2,0.6-0.4,1-0.5c0.3-0.1,0.6-0.2,0.9,0
			c-0.1,0.1-0.1,0.3-0.2,0.4c-2.5,1.6-5.3,2.1-8.2,2.1c-34.3,0-68.6,0-102.9,0c-9.1,0-18.3,0-27.4,0c-3.2,0-6.4,0.1-9.5-0.7
			C24.5,109.3,23.4,108.9,22.3,108.2z"/>
		<path class="st17" d="M22.3,108.2c1.6,0.7,3.2,1.4,5,1.6c1.1,0.1,2.3,0.4,3.4,0.4c44.8,0,89.6,0,134.5,0c2.7,0,5.3-0.4,7.7-1.7
			c0.2-0.1,0.5-0.2,0.7-0.3c-0.7,1.1-2,1.2-3,1.5c-1.6,0.5-3.2,0.7-4.9,0.7c-30.5,0-61,0-91.4,0c-13.1,0-26.2-0.1-39.2,0
			c-3.2,0-6.4,0.1-9.5-0.7C24.4,109.4,23.1,109.3,22.3,108.2z"/>
		<path class="st19" d="M173.7,19.3c-1.6-0.7-3.2-1.5-5-1.6c-1.1-0.1-2.3-0.4-3.4-0.4c-44.8,0-89.6,0-134.5,0
			c-2.7,0-5.3,0.4-7.7,1.7c-0.2,0.1-0.5,0.2-0.7,0.3c1.1-1.1,2.7-1.4,4.1-1.7c1.7-0.4,3.3-0.5,5.1-0.5c44.7,0,89.3,0,134,0
			c2.5,0,5,0.4,7.3,1.6C173.1,18.8,173.5,18.9,173.7,19.3z"/>
		<path class="st17" d="M19.2,22.4c-0.7,1.6-1.5,3.2-1.6,5c-0.1,1.1-0.4,2.3-0.4,3.4c0,21.9,0,43.9,0,65.8c0,2.7,0.4,5.3,1.7,7.7
			c0.1,0.2,0.2,0.5,0.3,0.7c-1.1-0.7-1.2-2-1.5-3c-0.5-1.6-0.7-3.2-0.7-4.9c0-20.7,0-41.3,0-62c0-3.2-0.1-6.4,0.7-9.5
			C18,24.5,18.1,23.2,19.2,22.4z"/>
		<path class="st19" d="M176.8,105.1c0.7-1.6,1.5-3.2,1.6-5c0.1-1.1,0.4-2.3,0.4-3.4c0-21.9,0-43.9,0-65.8c0-2.7-0.4-5.3-1.7-7.7
			c-0.1-0.2-0.2-0.5-0.3-0.7c1.1,1.1,1.4,2.7,1.7,4.1c0.4,1.7,0.5,3.3,0.5,5.1c0,21.8,0,43.6,0,65.5c0,2.5-0.4,4.9-1.6,7.2
			C177.3,104.5,177.2,104.9,176.8,105.1z"/>
		<path class="st18" d="M173.9,107.7c-0.3,0.1-0.6,0.1-0.9,0.2c-0.1-0.4,0.2-0.6,0.4-0.7c1-0.7,1.8-1.5,2.5-2.5
			c0.2-0.2,0.3-0.5,0.7-0.4c-0.1,0.3-0.1,0.6-0.2,0.9C175.8,106.4,175,107.2,173.9,107.7z"/>
		<path class="st19" d="M176.4,21.7c-0.8-0.6-1.4-1.2-2-2C175.3,20.1,176,20.8,176.4,21.7z"/>
		<path class="st17" d="M19.7,105.7c0.8,0.6,1.4,1.2,2,2C20.7,107.3,20.1,106.7,19.7,105.7z"/>
		<path class="st20" d="M176.6,104.4c-1,1.4-2.2,2.6-3.6,3.6c-0.3,0.1-0.6,0.3-0.9,0.4c-0.4,0.2-0.8,0.2-1.1,0.4l0,0
			c-2.5,0.8-5,1-7.6,1c-43.6,0-87.1,0-130.7,0c-2.6,0-5.1-0.3-7.6-1l0,0c-0.3-0.2-0.8-0.3-1.1-0.4c-2.2-1.1-3.9-2.8-4.9-5.1
			c-1-2.4-1.4-4.9-1.4-7.5c0-21.5,0-43,0-64.5c0-2.5,0.4-5,1.4-7.3c1.5-3.5,4.5-5.2,8.1-5.8c1.7-0.3,3.5-0.5,5.3-0.5
			c44.1,0,88.1,0,132.2,0c3.3,0,6.5,0.5,9.4,2.6c1.4,1,2.1,2.4,3,3.7c0.2,0.4,0.2,0.8,0.4,1.1l0,0c0.7,2.5,1,5,1,7.6
			c0,20.7,0,41.4,0,62.1c0,2.6-0.3,5.1-1,7.6l0,0c-0.2,0.4-0.3,0.8-0.4,1.1C176.7,103.7,176.6,104,176.6,104.4z"/>
		<path class="st18" d="M25,108.8c1.6,0.2,3.2,0.7,4.8,0.8c0.5,0,0.9,0.1,1.4,0.1c44.5,0,89,0,133.5,0c1.8,0,3.5-0.3,5.2-0.7
			c0.3-0.1,0.7-0.1,1-0.2c-0.9,0.6-2,0.7-3.1,0.8c-1.2,0.1-2.5,0.3-3.8,0.3c-44.3,0-88.7,0-133,0C29.1,109.9,27,109.8,25,108.8z"/>
		<path class="st18" d="M177.5,102.4c0.2-1.6,0.7-3.2,0.8-4.8c0-0.5,0.1-0.9,0.1-1.4c0-21.6,0-43.3,0-64.9c0-1.8-0.3-3.5-0.7-5.2
			c-0.1-0.3-0.1-0.7-0.1-1c0.6,0.9,0.7,2,0.8,3.1c0.1,1.2,0.3,2.5,0.3,3.8c0,21.5,0,43,0,64.5C178.6,98.4,178.4,100.5,177.5,102.4z"
			/>
		<path class="st18" d="M177,103.5c0-0.4,0.1-0.8,0.4-1.1C177.5,102.8,177.4,103.2,177,103.5z"/>
		<path class="st18" d="M23.9,108.4c0.4,0,0.8,0.1,1.1,0.4C24.6,108.9,24.2,108.8,23.9,108.4z"/>
		<path class="st18" d="M171,108.8c0.3-0.4,0.7-0.5,1.1-0.4C171.8,108.8,171.4,108.9,171,108.8z"/>
		<path class="st18" d="M177.5,25c-0.4-0.3-0.5-0.7-0.4-1.1C177.4,24.2,177.5,24.6,177.5,25z"/>
		<path class="st21" d="M97.9,109.3c-21.6,0-43.2,0-64.7,0c-2.4,0-4.9-0.2-7.2-0.9c-2.8-0.8-4.9-2.4-6.2-5c-0.9-1.8-1.4-3.9-1.4-5.9
			c-0.5-21.6-0.1-43.2-0.2-64.8c0-2.2,0.2-4.5,0.8-6.7c0.8-2.8,2.4-4.9,5-6.2c1.8-1,3.9-1.3,5.9-1.4c5.5-0.4,11-0.2,16.6-0.2
			c38.8,0,77.6,0,116.3,0c2.4,0,4.8,0.2,7.1,0.8c2.8,0.8,5,2.4,6.3,5c1,1.9,1.4,4,1.4,6.1c0.5,15.3,0.1,30.7,0.2,46
			c0,5.6,0,11.2,0,16.8c0,2.8-0.1,5.6-0.8,8.4s-2.4,5-4.9,6.4c-1.9,1-4,1.4-6.1,1.5c-10.8,0.5-21.6,0.2-32.4,0.2
			C121.7,109.3,109.8,109.3,97.9,109.3z"/>
		<path class="st22" d="M97.9,108.6c-21.8,0-43.6,0-65.4,0c-2.1,0-4.2-0.2-6.2-0.8c-4.2-1.2-6.4-4.1-7-8.3c-0.3-1.7-0.5-3.5-0.5-5.3
			c0-20.6,0-41.2,0-61.7c0-2.1,0.2-4.1,0.8-6.1c1.2-4.2,4.1-6.4,8.4-7.1c1.8-0.3,3.5-0.5,5.3-0.5c43.4,0,86.8,0,130.2,0
			c2.1,0,4.3,0.2,6.4,0.8c4.2,1.2,6.4,4.1,7,8.3c0.3,1.7,0.5,3.5,0.5,5.3c0,20.6,0,41.2,0,61.7c0,2.1-0.2,4.1-0.8,6.1
			c-1.2,4.2-4.1,6.4-8.4,7.1c-1.8,0.3-3.5,0.5-5.3,0.5C141.2,108.6,119.6,108.6,97.9,108.6z"/>
		<path class="st23" d="M98.1,19.5c22,0,44,0,66,0c2.8,0,5.5,0.5,7.9,1.9c1.6,0.9,2.8,2.4,3.5,4.2c0.7,2,1.2,4.1,1.2,6.3
			c0,21.3,0,42.6,0,63.8c0,2.7-0.5,5.4-1.9,7.7c-0.9,1.5-2.3,2.8-4.1,3.4c-2,0.7-4.1,1.2-6.3,1.2c-44.2,0-88.3,0-132.5,0
			c-2.7,0-5.4-0.5-7.7-1.9c-1.6-0.9-2.9-2.4-3.5-4.3c-0.7-2.1-1.1-4.2-1.1-6.4c0-21.1,0-42.2,0-63.3c0-2.8,0.5-5.5,1.9-7.9
			c0.9-1.6,2.3-2.8,4.2-3.5c2-0.7,4.1-1.2,6.3-1.2C53.9,19.5,76,19.5,98.1,19.5z"/>
		<path class="st24" d="M22.1,103.3c-1.2-1.3-1.5-2.9-1.8-4.6c-0.4-2.5-0.5-5-0.5-7.5c0-19.1,0-38.1,0-57.2c0-2.7,0.1-5.5,1.1-8.1
			c0.9-2.4,2.6-4.1,5.1-5c2.9-1,5.8-1.1,8.8-1.1c42.3,0,84.6,0,126.9,0c2.8,0,5.6,0.1,8.2,1.1c1.6,0.6,3.1,1.4,3.9,3.1
			c0.1,0.2,0.2,0.4-0.1,0.5c-0.8-0.2-1-0.9-1.5-1.4c-1.9-1.6-4.1-2.1-6.5-2.4c-2.8-0.3-5.6-0.2-8.4-0.2c-41.1,0-82.3,0-123.4,0
			c-2,0-3.9,0.2-5.8,0.6c-4,0.9-6.2,3.3-6.9,7.3c-0.3,2-0.5,4-0.5,6c0,19.8,0,39.5,0,59.3c0,2.4,0.2,4.7,1,7
			c0.3,0.9,0.9,1.6,1.2,2.5C22.5,104.2,22.4,103.5,22.1,103.3z"/>
		<path class="st25" d="M173.9,24.6c0-0.1,0-0.3,0-0.4c1.1,1.1,1.4,2.7,1.7,4.1c0.4,1.7,0.5,3.4,0.5,5.1c0,20.4,0,40.8,0,61.3
			c0,3.1-0.3,6.2-2.2,8.9c-0.7,1-1.5,1.9-2.7,2.2c-0.1-0.3,0-0.5,0.2-0.8c2.5-1.8,3.3-4.4,3.7-7.3c0.2-1.8,0.2-3.6,0.2-5.4
			c0-19.7,0-39.4,0-59c0-2.7-0.4-5.4-1.4-7.9C173.8,25,173.8,24.8,173.9,24.6z"/>
		<path class="st25" d="M169,106.6c-0.7,0.5-1.6,0.5-2.4,0.6c-1.3,0.2-2.7,0.3-4.1,0.3c-43.2,0-86.3,0-129.5,0c-2,0-4.1,0-6-0.9
			c0.3-0.3,0.6-0.2,0.9-0.2c0.1,0,0.2,0,0.3,0.1c0.4,0.1,0.9,0.1,1.3,0.1c0.1,0,0.2,0,0.3,0.1c0.6,0.2,1.3,0.1,2,0.1
			c0.5,0,0.9,0,1.4,0.1c0.5,0.2,1,0.1,1.6,0.1c42.2,0,84.3,0,126.5,0c0.5,0,1,0.1,1.5-0.1c0.5-0.1,0.9-0.1,1.4-0.1
			c0.7,0,1.3,0.1,2-0.1c0.1,0,0.2-0.1,0.3-0.1c0.4-0.1,0.9,0,1.3-0.1c0.1,0,0.2-0.1,0.3-0.1C168.4,106.4,168.7,106.3,169,106.6z"/>
		<path class="st24" d="M25.2,106c-0.5,0-0.8-0.4-1.1-0.7c-0.2-0.2-0.6-0.3-0.4-0.7c1,0,1.6,0.7,2.3,1.2c0,0.1,0,0.2-0.1,0.3
			C25.6,106.1,25.4,106.1,25.2,106z"/>
		<path class="st25" d="M23.7,104.6c0.1,0.2,0.3,0.4,0.4,0.7c-0.9-0.4-1.6-1.1-2-2c0.2,0.1,0.4,0.3,0.7,0.4
			C23.2,103.9,23.5,104.2,23.7,104.6z"/>
		<path class="st24" d="M28.1,106.6c-0.4,0-0.7,0-1.1,0c-0.2,0-0.5,0-0.7-0.2c-0.1-0.2-0.6,0-0.4-0.4l0,0
			C26.8,105.7,27.6,105.8,28.1,106.6z"/>
		<path class="st24" d="M169,106.6c-0.4,0-0.7,0-1.1,0c0.4-0.8,1.3-0.7,2-0.9c0.1,0,0.2,0.1,0.3,0.1c0.1,0.4-0.3,0.3-0.5,0.5
			C169.4,106.5,169.2,106.5,169,106.6z"/>
		<path class="st24" d="M171.5,105.3c-0.1,0.1-0.1,0.3-0.2,0.4c-0.1,0.1-0.3,0.1-0.4,0.2c-0.2,0.1-0.4,0.2-0.7,0
			C170.3,105.2,170.8,105.1,171.5,105.3z"/>
		<path class="st25" d="M25.9,106c0.1,0.1,0.3,0.3,0.4,0.4c-0.4,0-0.8-0.1-1.1-0.4C25.5,106,25.7,106,25.9,106z"/>
		<path class="st25" d="M170.1,106c0.2,0,0.4,0,0.7,0c-0.3,0.4-0.7,0.5-1.1,0.4C169.8,106.2,170,106.1,170.1,106z"/>
		<path class="st26" d="M171.5,105.3c-0.5,0.1-1,0.3-1.3,0.7c-0.8,0.1-1.5,0.4-2.2,0.7c-0.4,0.3-0.9-0.1-1.3,0.2c-0.1,0-0.1,0-0.2,0
			c-0.6,0.3-1.4-0.1-2,0.2c-0.4,0-0.9,0-1.3,0c-0.4,0.2-0.8,0.1-1.2,0.1c-42.5,0-85,0-127.5,0c-0.4,0-0.8,0.1-1.2-0.1
			c-0.4,0-0.9,0-1.3,0c-0.6-0.3-1.4,0.1-2-0.2c-0.1,0-0.1,0-0.2,0c-0.4-0.3-0.9,0.1-1.3-0.2l0,0c-0.7-0.3-1.4-0.6-2.2-0.7
			c-0.7-0.4-1.5-0.9-2.2-1.3c-0.4-0.2-0.7-0.5-0.9-0.9c-1.1-1.8-1.9-3.7-2.1-5.8c-0.1-1.2-0.3-2.3-0.3-3.5c0-20.5,0-41,0-61.5
			c0-2,0.3-4,0.8-5.9c1.1-3.8,3.8-5.6,7.5-6.2c2.4-0.4,4.8-0.5,7.3-0.5c42.3,0,84.5,0,126.8,0c2.1,0,4.1,0.2,6.1,0.8
			c1.9,0.5,3.5,1.4,4.6,3.1c0.1,0.1,0.3,0.2,0.4,0.3c1.3,2.3,1.7,4.8,1.8,7.4c0.1,21.2,0.1,42.3,0,63.5c0,2.6-0.4,5.2-1.9,7.5
			C173.1,103.9,172.3,104.6,171.5,105.3z"/>
		<path class="st24" d="M33,107.1c43.3,0,86.6,0,129.9,0c-0.3,0.4-0.8,0.2-1.2,0.2c-42.5,0-85.1,0-127.6,0
			C33.8,107.3,33.4,107.4,33,107.1z"/>
		<path class="st24" d="M164.3,107.1c0.6-0.4,1.3-0.1,2-0.2C165.7,107.3,165,107,164.3,107.1z"/>
		<path class="st24" d="M29.7,106.8c0.7,0.1,1.4-0.2,2,0.2C31,107,30.3,107.3,29.7,106.8z"/>
		<path class="st24" d="M166.5,106.8c0.4-0.4,0.9-0.2,1.3-0.2C167.5,107,167,106.8,166.5,106.8z"/>
		<path class="st24" d="M28.1,106.6c0.4,0.1,0.9-0.2,1.3,0.2C29,106.8,28.5,107,28.1,106.6z"/>
		<path class="st27" d="M98.1,20.8c21.7,0,43.4,0,65.1,0c3,0,6,0.4,8.6,2.3c1.4,1,2.1,2.6,2.6,4.1c0.6,1.7,0.8,3.5,0.8,5.2
			c0,20.8,0,41.7,0,62.5c0,3-0.5,6-2.4,8.5c-1,1.3-2.5,1.9-4,2.4c-1.7,0.5-3.5,0.8-5.4,0.8c-43.6,0-87.1,0-130.7,0
			c-3.1,0-6.1-0.5-8.7-2.4c-1.3-1-1.9-2.4-2.4-3.9c-0.6-1.7-0.8-3.5-0.8-5.3c0-20.8,0-41.6,0-62.4c0-3,0.5-6.1,2.5-8.6
			c1-1.3,2.5-1.9,4.1-2.4c1.8-0.5,3.6-0.8,5.5-0.8C54.6,20.8,76.3,20.8,98.1,20.8z"/>
		<path class="st28" d="M26.8,22.4c1.4-0.6,2.8-0.9,4.3-0.9c43.5-0.5,86.9-0.1,130.4-0.2c2.6,0,5.2,0.1,7.7,1.1
			c3.1,1.3,4.6,3.7,5.1,6.8c0.4,2.4,0.5,4.8,0.5,7.3c0,18.8,0,37.6,0,56.5c0,2.1-0.1,4.3-0.6,6.4c-0.1,0.4-0.1,0.8-0.4,1.1
			c-0.3,0-0.5-0.2-0.6-0.5c0.8-3.3,0.9-6.8,0.9-10.2c0-17.9,0-35.8,0-53.7c0-2.2,0-4.5-0.5-6.7c-0.9-4.2-3-6.2-7.3-6.8
			c-2.1-0.3-4.1-0.4-6.2-0.4c-41.3,0-82.6,0-123.9,0c-3,0-5.9,0.2-8.8,0.9C26.9,22.9,26.8,22.7,26.8,22.4z"/>
		<path class="st28" d="M26.6,104.8c-2-0.6-3.4-2-4-4c-0.7-1.8-1-3.7-1-5.6c-0.5-20.2-0.1-40.4-0.2-60.6c0-2.7,0-5.5,1.2-8l0,0
			c0.2-0.3,0.2-0.6,0.4-0.9l0,0c0.2-0.3,0.4-0.4,0.6,0c-0.4,1.5-1,2.9-1.2,4.5c-0.2,1.8-0.3,3.7-0.3,5.5C22,54.4,22,73.1,22,91.7
			c0,2.1,0,4.3,0.5,6.4c0.9,4.2,3,6.2,7.2,6.8c2,0.3,4.1,0.4,6.1,0.4c41.4,0,82.9,0,124.3,0c3.4,0,6.9-0.2,10.1-1.6
			c0.5,0.2,0.3,0.4,0,0.6s-0.6,0.3-0.9,0.4c-1.8,0.7-3.6,1-5.5,1c-43.1,0.5-86.2,0.1-129.3,0.2C31.9,106,29.1,106,26.6,104.8z"/>
		<path class="st28" d="M26.6,104.8c4.7,1.4,9.5,1.1,14.3,1.1c38.1,0,76.1,0,114.2,0c4.8,0,9.6,0.2,14.3-1.1
			c-1.1,0.9-2.5,0.9-3.8,1.1c-1.4,0.1-2.8,0.3-4.2,0.3c-42.3,0-84.6,0-126.9,0c-2.2,0-4.4-0.1-6.5-0.7
			C27.5,105.4,27,105.3,26.6,104.8z"/>
		<path class="st28" d="M22.6,26.6c-1.4,4.7-1.1,9.5-1.1,14.3c0,15.2,0,30.4,0,45.6c0,4.8-0.2,9.6,1.1,14.3
			c-0.9-1.1-0.9-2.5-1.1-3.8c-0.1-1.4-0.3-2.7-0.3-4.1c0-19.5,0-39,0-58.5c0-2.1,0.1-4.3,0.6-6.4C22.1,27.6,22.1,27,22.6,26.6z"/>
		<path class="st28" d="M170.3,104.4c0.1-0.1,0.1-0.3,0.2-0.4c-0.1-0.2,0-0.4,0.1-0.5c1-1,1.8-2.1,2.6-3.3c0.2,0,0.3,0,0.4,0.2
			C173.1,102.2,172.2,103.6,170.3,104.4z"/>
		<path class="st28" d="M23.5,25.5c-0.1,0.1-0.3,0.1-0.4,0.2c0.7-1.8,2.2-2.6,3.8-3.3c0.1,0.1,0.1,0.3,0.2,0.4
			C25.8,23.7,24.9,24.9,23.5,25.5z"/>
		<path class="st28" d="M169.4,104.8c0.2-0.3,0.5-0.4,0.9-0.4C170.2,104.8,169.8,104.9,169.4,104.8z"/>
		<path class="st28" d="M23,25.7c0,0.4-0.2,0.7-0.4,0.9C22.5,26.2,22.6,25.9,23,25.7z"/>
		<path class="st29" d="M23.5,25.5c1.2-0.9,2.1-2.2,3.6-2.7c2.1-0.6,4.2-0.9,6.3-0.9c42.4-0.5,84.8-0.1,127.2-0.2
			c2.3,0,4.7,0.1,6.9,0.6c3.6,0.9,5.8,3.2,6.4,7.5c0.3,2.5,0.5,5,0.5,7.5c0,18.1,0,36.2,0,54.3c0,2.8,0.1,5.8-1.1,8.5
			c-0.3,1.7-1.7,2.6-2.7,3.8c-2.6,1.2-5.4,1.5-8.3,1.6c-1.9,0.1-3.8,0.1-5.8,0.1c-40.2,0-80.4,0-120.5,0c-2.5,0-5-0.1-7.5-0.6
			c-3.5-0.7-5.8-3.4-6.3-7.4c-0.3-2.3-0.4-4.7-0.4-7.1c0-18.2-0.1-36.5,0-54.7c0-2.9,0-5.9,1.1-8.6C23,26.7,23.2,26.1,23.5,25.5z"/>
		<path class="st30" d="M97.9,105.1c-21.5,0-43,0-64.5,0c-1.9,0-3.9-0.2-5.7-0.8c-2.7-1-4.4-3-4.9-5.9c-0.3-1.7-0.5-3.4-0.5-5.1
			c0-19.9,0-39.9,0-59.8c0-1.9,0.2-3.9,0.8-5.7c1-2.7,3-4.4,5.9-4.9c1.7-0.3,3.4-0.5,5.1-0.5c42.8,0,85.6,0,128.4,0
			c2,0,4,0.2,5.8,0.8c2.7,1,4.4,3,4.9,5.9c0.3,1.7,0.5,3.4,0.5,5.1c0,19.9,0,39.9,0,59.8c0,1.9-0.2,3.9-0.8,5.7
			c-1,2.7-3,4.4-5.9,4.9c-1.7,0.3-3.4,0.5-5.1,0.5C140.5,105.1,119.2,105.1,97.9,105.1z"/>
		<path class="st31" d="M28.1,23.7c1.8-0.8,3.7-0.9,5.5-0.9c42.9,0,85.8,0,128.8,0c1.8,0,3.7,0.2,5.5,0.8c3.7,1.2,5,3.9,5.1,7.5
			c0.6,20.9,0.1,41.9,0.2,62.8c0,2.4-0.2,5-1.6,7.1c-0.9,1.3-2.1,2.3-3.7,2.7c-0.1,0.1-0.2,0.1-0.3,0c0.2-0.9,1.1-0.8,1.6-1.2
			c1.9-1.2,2.8-2.9,2.8-5.2c0.5-3.7,0.4-7.5,0.4-11.2c0-16.7,0-33.4,0-50.1c0-2.1,0-4.3-0.6-6.4c-0.8-3.3-2.7-5-6-5.5
			c-2-0.3-4-0.4-6-0.4c-41.2,0-82.4,0-123.6,0c-2.1,0-4.1,0.2-6.2,0.4c-0.6-0.1-1.2,0-1.8,0C28.1,23.9,28.1,23.8,28.1,23.7z"/>
		<path class="st32" d="M167.7,103.7c0.1,0,0.1,0,0.2,0c-1.7,0.8-3.5,0.9-5.3,0.9c-43.1,0-86.1,0-129.2,0c-1.8,0-3.6-0.2-5.3-0.8
			c-3.6-1.2-4.9-4-5-7.5C22.5,75.5,23,54.7,22.8,34c0-1.8,0.2-3.6,0.7-5.4c0.7-2.4,2.1-4.2,4.7-4.9c0,0.1,0,0.1,0,0.2
			c-0.1,0.4-0.4,0.5-0.7,0.6c-2.8,1.4-3.7,4-3.8,6.8c-0.7,20-0.3,39.8-0.3,59.7c0,2.2-0.1,4.5,0.4,6.6c0.6,2.4,1.5,4.4,4,5.3
			c0.4,0.1,0.8,0.5,1.3,0.5c0.1,0,0.2,0.1,0.3,0.1c0.4,0.1,0.8,0.1,1.2,0.2c0.8,0.1,1.6,0,2.4,0.1c0.8,0,1.6-0.1,2.5,0.1
			c0.5,0.2,1,0.1,1.5,0.1c40.7,0,81.5,0,122.2,0c0.5,0,1,0,1.4-0.1c0.7-0.2,1.4-0.1,2.1-0.1c0.1,0,0.3,0,0.4,0c1.2,0,2.3,0,3.5-0.3
			C166.9,103.4,167.3,103.4,167.7,103.7z"/>
		<path class="st33" d="M163,104.2h-0.1h-0.1c-1.1-0.3-2.3,0-3.4,0c-8.6,0-17.2,0-25.8,0c-32,0-63.9,0-95.9,0c-1.5,0-3-0.2-4.6-0.1
			c-0.4,0-0.8,0-1.2,0c-0.5-0.2-1,0-1.5-0.2c-0.4-0.1-0.8,0.1-1.1-0.1l0,0c-0.4-0.1-0.8-0.2-1.2-0.5c-2.3-0.7-3.5-2.4-4.2-4.5
			c-0.4-1.2-0.5-2.5-0.5-3.7c-0.2-4.7-0.1-9.4-0.1-14c0-14.4,0-28.9,0-43.3c0-2.2,0-4.5,0.2-6.7c0.3-2.7,1.3-4.9,3.7-6.3
			c0.8-0.5,1.6-0.6,2.5-0.9c43.5-1,87-0.2,130.4-0.4c2.2,0,4.4,0.1,6.5,0.6c3.7,0.9,5.1,2.9,5.7,6.4c0.4,2.5,0.5,5.1,0.5,7.6
			c0,17.8,0,35.5,0,53.3c0,2.2-0.3,4.3-0.4,6.5c-0.5,2.2-1.5,4.1-3.5,5.2c-1.6,0.8-3.3,1.1-5.1,1.2C163.5,104.1,163.2,104,163,104.2
			z"/>
		<path class="st34" d="M29.7,23.7c-1.5,0.7-3,1.1-4.1,2.4s-1.8,2.8-1.9,4.5c-0.5,21.3-0.1,42.7-0.2,64c0,2.6,0.4,5.2,2.6,7.2
			c0.7,0.6,1.5,1,2.2,1.4c-0.1,0.1-0.1,0.1-0.2,0c-1.5-0.2-2.5-1-3.3-2.2c-1.3-1.9-1.6-4.1-1.7-6.4C22.6,75.3,23,56,23,36.7
			c0-2.3-0.1-4.7,0.4-7.1c0.6-2.7,1.9-4.9,4.7-5.8C28.6,23.6,29.2,23.7,29.7,23.7z"/>
		<path class="st34" d="M163,104.2c0.6-0.4,1.3-0.4,1.9-0.4c3.7-0.2,6.2-2,7.2-5.6c0-0.2,0.2-0.3,0.3-0.5c0,2.3-1.8,4.8-4,5.6
			c-0.3,0.1-0.6,0.2-0.7,0.5C166.1,103.8,164.6,104.4,163,104.2z"/>
		<path class="st34" d="M32.8,103.9c42.8,0,85.6,0,128.4,0c0.5,0,1-0.2,1.5,0.2c-0.7,0-1.3,0-2,0c-0.4,0.2-0.8,0.1-1.2,0.1
			c-41,0-82.1,0-123.1,0c-0.4,0-0.8,0.1-1.2-0.1c-0.8,0-1.6,0-2.5,0C32.7,104.1,32.7,104.1,32.8,103.9
			C32.8,104,32.8,103.9,32.8,103.9z"/>
		<path class="st34" d="M35.3,104.2c41.8,0,83.7,0,125.5,0c-0.3,0.4-0.8,0.2-1.2,0.2c-41.1,0-82.1,0-123.2,0
			C36,104.4,35.6,104.5,35.3,104.2z"/>
		<path class="st34" d="M32.8,103.9c0,0.1,0,0.1,0,0.2c-0.8-0.1-1.7,0.3-2.5-0.2l0.1-0.1c0.4,0,0.8-0.1,1.2,0.1
			C32.1,103.9,32.4,103.9,32.8,103.9z"/>
		<path class="st34" d="M28.1,103.3c0.1,0,0.1,0,0.2,0c0.3,0.1,0.6,0.3,0.9,0.4C28.8,103.7,28.4,103.8,28.1,103.3z"/>
		<path class="st34" d="M29.3,103.7c0.4,0,0.7,0,1.1,0c0.1,0,0.1,0.1,0.1,0.1v0.1l0,0C30,103.9,29.6,104.1,29.3,103.7z"/>
		<path class="st35" d="M98.1,23.9c21.5,0,42.9,0,64.4,0c1.9,0,3.8,0.3,5.5,1c2,0.9,3.3,2.7,3.7,5c0.3,1.7,0.5,3.4,0.5,5.2
			c0,19.6,0,39.2,0,58.7c0,1.9-0.3,3.9-1,5.6c-0.9,2-2.6,3.2-4.9,3.6c-1.6,0.3-3.3,0.5-5,0.5c-42.5,0-85.1,0-127.6,0
			c-1.9,0-3.9-0.3-5.6-1c-2-0.9-3.3-2.7-3.7-5c-0.3-1.7-0.5-3.4-0.5-5.2c0-19.6,0-39.2,0-58.7c0-1.9,0.3-3.9,1-5.6
			c0.9-2,2.6-3.2,4.9-3.6c1.6-0.3,3.3-0.5,5-0.5C55.9,23.9,77,23.9,98.1,23.9z"/>
		<path class="st34" d="M30.4,103.9c0-0.1,0-0.1,0-0.2c0.4,0.1,0.9-0.2,1.3,0.2C31.3,103.9,30.8,103.9,30.4,103.9z"/>
		<path class="st36" d="M24.3,94.4c0-19.3,0-38.5,0-57.6c0-2.2-0.1-4.4,0.3-6.6c0.7-3.4,3.3-5.2,6.3-5.6c2-0.3,3.9-0.1,5.8-0.1
			c40.8-0.1,81.6-0.1,122.3,0c2.2,0,4.5-0.1,6.7,0.3c3.4,0.7,5.2,3.3,5.6,6.3c0.3,1.9,0.1,3.8,0.1,5.7c0.1,18,0.1,36,0,53.9
			c0,2.2,0.1,4.4-0.3,6.6c-0.7,3.4-3.3,5.2-6.3,5.6c-2,0.3-3.9,0.1-5.8,0.1c-40.8,0.1-81.6,0.1-122.3,0c-2.2,0-4.5,0.1-6.7-0.3
			c-3.4-0.7-5.3-3.2-5.5-6.2C24.5,95.8,24.2,95.1,24.3,94.4z"/>
		<path class="st37" d="M164.6,102.1c-2.1,0.8-4.2,0.2-6.3,0.2c-40.2,0.1-80.4,0.1-120.6,0.1c-1.5,0-3,0-4.5-0.1
			c-2-0.1-4-0.3-5.7-1.6c-1.5-1.2-2.2-2.8-2.2-4.5c-0.6-19.3-0.2-38.7-0.3-58c0-1.6,0.1-3.2,0.1-4.8c0-1.9,0.3-3.9,1.5-5.6
			c1.1-1.5,2.8-2,4.5-2.4c2.2-0.5,4.4-0.2,6.6-0.2c40.2-0.1,80.4,0,120.6,0c1.5,0,3,0,4.5,0.1c2,0.1,4,0.3,5.7,1.6
			c1.5,1.2,2.2,2.8,2.2,4.5c0.6,19.3,0.2,38.7,0.3,58c0,1.6-0.1,3.2-0.1,4.8c0,1.9-0.3,4-1.6,5.7
			C168.1,101.4,166.4,101.8,164.6,102.1z"/>
		<path class="st38" d="M25.7,65.8c0-11.5,0-20.8,0-30.2c0-1.8,0.3-3.5,0.6-5.2c0.3-2.2,2.6-3.8,4.8-4.2c6-1,12.1-0.5,18.2-0.5
			c37.3-0.1,74.6-0.1,111.9,0c1.9,0,4.1,0,5.8,1.1c1.5,1,2.6,2.2,2.9,4.3c0.8,4.8,0.4,9.6,0.5,14.4c0.1,15.7,0.1,31.4,0,47.1
			c0,1.8,0,3.9-1,5.5s-2.2,2.7-4.4,3.1c-3.7,0.6-7.4,0.5-11,0.5c-39.6,0-79.3,0-118.9,0c-2,0-4.3,0-6-1.2c-1.4-1-2.5-2.2-2.7-4.1
			C25,85.5,26.2,74.6,25.7,65.8z"/>
		<path class="st39" d="M98,26.4c20.4,0,40.8,0,61.2,0c2.4,0,4.8-0.1,7.1,1c1.7,0.8,2.6,2.2,2.9,4c0.3,1.8,0.5,3.7,0.5,5.5
			c0,17.9,0.1,35.7,0,53.6c0,2.4,0.1,4.9-1,7.2c-0.8,1.7-2.2,2.6-4,2.9c-2,0.3-4.1,0.5-6.2,0.5c-40.5,0-81,0-121.4,0
			c-2.4,0-4.9,0.1-7.2-1c-1.7-0.8-2.6-2.2-2.9-4s-0.5-3.7-0.5-5.5c0-17.9-0.1-35.7,0-53.6c0-2.4-0.1-4.9,1-7.2
			c0.8-1.7,2.2-2.6,4-2.9c2-0.3,4.1-0.5,6.2-0.5C57.8,26.4,77.9,26.4,98,26.4z"/>
		<path class="st40" d="M36.4,27.1c41.1,0,82.2,0,123.3,0c0.3,0.2,0.7,0.3,0.3,0.7c-0.6,0.4-1.3,0.3-2,0.3c-13.6,0-27.2,0-40.8,0
			c-26.4,0-52.7,0-79.1,0c-0.7,0-1.4,0.2-2.1-0.2C35.6,27.3,36.1,27.2,36.4,27.1z"/>
		<path class="st40" d="M159.9,100.4c-41.2,0-82.5,0-123.7,0c-0.3-0.2-0.4-0.4,0-0.6c0.5-0.2,1-0.1,1.5-0.1c40.2,0,80.4,0,120.6,0
			c0.5,0,1-0.1,1.5,0.1C160.2,99.9,160.2,100.1,159.9,100.4z"/>
		<path class="st41" d="M160.1,27.5c-0.1-0.1-0.3-0.3-0.4-0.4c1.8,0,3.6-0.1,5.4,0.5c2.3,0.7,3.4,2.4,3.8,4.6c0.2,1.3,0.2,2.7,0.2,4
			c0,18.7,0,37.3,0,56c-0.2,0.1-0.4,0.1-0.6-0.1c-0.3-0.6-0.2-1.2-0.2-1.7c0-18.2,0-36.4,0-54.6c0-1.2-0.1-2.4-0.4-3.5
			c-0.6-2.6-2.3-4-4.9-4.2C161.9,28,161,28,160.1,27.5z"/>
		<path class="st40" d="M27,91.2c0-18.4,0-36.7,0-55.1c0.2-0.3,0.4-0.4,0.6,0c0.2,0.5,0.1,1,0.1,1.5c0,17.3,0,34.6,0,51.9
			c0,0.5,0.1,1-0.1,1.5C27.5,91.6,27.3,91.6,27,91.2z"/>
		<path class="st41" d="M27.5,36c-0.1,0.1-0.3,0.1-0.4,0.2c0-1.8-0.1-3.5,0.5-5.3c0.7-2.2,2.4-3.3,4.5-3.7c1.4-0.3,2.9-0.2,4.3-0.2
			c-0.1,0.1-0.3,0.3-0.4,0.4c-0.8,0.5-1.7,0.4-2.6,0.5c-3.4,0.3-5.1,2-5.4,5.4C27.9,34.3,28,35.2,27.5,36z"/>
		<path class="st41" d="M168.6,92.1c0.1,0,0.3,0,0.4,0c0.1,1.5-0.1,2.9-0.5,4.4c-0.7,2.2-2.3,3.3-4.5,3.7c-1.4,0.3-2.7,0.2-4.1,0.2
			c0.1-0.1,0.1-0.3,0.2-0.4c0.8-0.5,1.7-0.4,2.6-0.5c3.5-0.4,5.1-2,5.4-5.4C168.1,93.4,168.1,92.7,168.6,92.1z"/>
		<path class="st41" d="M27,91.2c0.1,0.1,0.3,0.1,0.4,0.2c0.4,0.5,0.3,1.1,0.3,1.6s-0.1,0.9,0.1,1.4c0.2,1.1,0.4,2.1,1,3
			c0.2,0.4,0.5,0.7,1,1c0.9,0.7,2,0.8,3,1c0.5,0.1,0.9,0.1,1.4,0.1c0.6,0,1.2-0.1,1.7,0.3c0.1,0.1,0.1,0.3,0.2,0.4
			c-1.8,0-3.5,0.1-5.3-0.5c-2.2-0.7-3.3-2.4-3.7-4.5C27,94,27,92.6,27,91.2z"/>
		<path class="st42" d="M35.9,99.9c-0.6,0-1.2,0-1.8,0c-0.4-0.3-0.9,0.1-1.3-0.2c-1.1-0.1-2.3-0.2-3.1-1.1c-0.4-0.2-0.7-0.5-0.9-0.9
			c-1-0.8-1-2-1.1-3.1c-0.3-0.4,0.1-0.9-0.2-1.3c0-0.6,0-1.2,0-1.8c0-18.5,0-37,0-55.5c0-1.3,0.1-2.6,0.4-3.8
			c0.6-2.7,2.1-4.1,4.9-4.4c1.1-0.1,2.1-0.4,3.2-0.3c0.4,0.2,0.8,0.2,1.3,0.2c40.5,0,81,0,121.6,0c0.4,0,0.9,0,1.3-0.2
			c1.3,0,2.6,0.1,3.8,0.4c2.7,0.6,4.1,2.3,4.4,5c0.2,1.7,0.2,3.5,0.2,5.2c0,18,0,36,0,54c-0.2,1.2-0.2,2.4-0.5,3.6
			c-0.5,2.3-2.4,3.8-4.9,4c-1,0.1-2,0.4-3.1,0.3C118.7,99.9,77.3,99.9,35.9,99.9z"/>
		<path class="st40" d="M28.8,97.7c0.4,0.2,0.7,0.5,0.9,0.9C29.2,98.5,28.9,98.2,28.8,97.7z"/>
		<path class="st40" d="M27.5,93.2c0.4,0.4,0.2,0.9,0.2,1.3C27.3,94.2,27.5,93.7,27.5,93.2z"/>
		<path class="st40" d="M32.8,99.7c0.4,0.1,0.9-0.2,1.3,0.2C33.7,99.9,33.2,100.1,32.8,99.7z"/>
		<path class="st43" d="M34.8,28.2c0.4-0.2,0.8-0.2,1.3-0.2c41.3,0,82.5,0,123.8,0c0.4,0,0.9,0,1.3,0.2c-0.1,0.5-0.5,0.5-0.8,0.5
			c-0.4,0-0.8,0-1.2,0c-40.7,0-81.5,0-122.2,0c-0.4,0-0.8,0-1.2,0C35.3,28.6,34.9,28.7,34.8,28.2z"/>
		<path class="st44" d="M34.8,28.2c0.3,0.4,0.8,0.2,1.2,0.2c41.4,0,82.7,0,124.1,0c0.4,0,0.8,0.1,1.2-0.2c0.7,0.1,1.4,0.1,2.1,0.3
			c3,0.6,4.4,2.4,4.4,5.7c-0.2,0.7,0.4,1.6-0.4,2.2c-0.4-0.3-0.4-0.8-0.4-1.2c0-0.8-0.1-1.6-0.3-2.3c-0.5-2.3-2.4-3.5-5.1-3.7
			c-2.6-0.2-5.3-0.2-7.9-0.2c-38.4,0-76.8,0-115.1,0c-1.6,0-3.2,0.2-4.8,0.4c-3.3,0.4-4.4,2.5-4.6,5.4c0,0.6,0.2,1.2-0.3,1.7
			c-0.6-0.1-0.5-0.6-0.5-0.9c0-0.4,0.1-0.9,0-1.3c0-0.1,0-0.3,0-0.4c0.2-3.4,2-5.2,5.3-5.3C34.1,28.3,34.5,28.2,34.8,28.2z"/>
		<path class="st45" d="M161.9,99c-0.2,0.3-0.6,0.2-0.9,0.2c-0.4,0.2-0.8,0.1-1.2,0.1c-41.2,0-82.3,0-123.5,0
			c-0.4,0-0.8,0.1-1.2-0.1c-0.3,0-0.7,0.1-0.9-0.2c0.5-0.9,1.4-0.4,2.1-0.5c0.1,0,0.3,0.1,0.4,0.1c0.5,0.1,1,0.1,1.6,0.1
			c39.8,0,79.6,0,119.4,0c0.5,0,1,0,1.6,0c0.1,0,0.3-0.1,0.4-0.1c0.5-0.1,0.9-0.1,1.4,0C161.4,98.6,161.8,98.5,161.9,99z"/>
		<path class="st43" d="M35,99.3c42,0,84,0,125.9,0c-0.3,0.4-0.8,0.2-1.2,0.2c-41.2,0-82.4,0-123.6,0C35.8,99.5,35.4,99.6,35,99.3z"
			/>
		<path class="st45" d="M28.4,34.2c0.5,0.7,0.1,1.5,0.2,2.2c0,0.1,0,0.1,0,0.2c0.1,0.6,0,1.1,0,1.7c0,16.9,0,33.8,0,50.7
			c0,0.6,0,1.1,0,1.7c0,0.1,0.1,0.3,0.1,0.4c0.1,0.5,0.1,0.9,0,1.4c0,0.3,0,0.7-0.5,0.8c-0.3-0.2-0.2-0.6-0.2-0.9
			c-0.1-0.4,0-0.8,0-1.2c0-18.3,0-36.6,0-54.9c0-0.4-0.1-0.8,0.1-1.2C28.2,34.8,28,34.4,28.4,34.2z"/>
		<path class="st45" d="M167.4,36.4c0.1-0.7-0.2-1.5,0.2-2.2c0.4,0.3,0.2,0.8,0.2,1.2c0,18.9,0,37.8,0,56.8c0,0.4,0.1,0.8-0.2,1.2
			c-0.9-0.5-0.4-1.4-0.5-2.1c0-0.1,0.1-0.3,0.1-0.4c0.1-0.6,0.1-1.1,0.1-1.7c0-17,0-33.9,0-50.9c0-0.5,0-1,0-1.6
			C167.4,36.6,167.4,36.5,167.4,36.4z"/>
		<path class="st43" d="M28.1,35.1c0,19.1,0,38.2,0,57.3c-0.4-0.3-0.2-0.8-0.2-1.2c0-18.3,0-36.6,0-55
			C27.9,35.8,27.8,35.4,28.1,35.1z"/>
		<path class="st44" d="M167.4,91c0.1,0.7-0.2,1.5,0.2,2.2c0,0.1,0,0.3,0,0.4c-0.3,0.4-0.2,0.9-0.3,1.4c-0.5,2-1.8,3.2-3.8,3.7
			c-0.4,0.1-0.8,0-1.2,0.3c-0.1,0-0.3,0-0.4,0c-0.7-0.5-1.5-0.1-2.2-0.2c0.2-0.8,0.9-0.5,1.4-0.5c1.6-0.1,3.1-0.3,4.3-1.5
			c1.3-1.2,1.5-2.8,1.6-4.5C167,91.9,166.7,91.3,167.4,91z"/>
		<path class="st44" d="M28.4,93.2c0.5-0.7,0.1-1.5,0.2-2.2c0.8,0.2,0.5,0.9,0.5,1.4c0.1,1.6,0.3,3.2,1.6,4.5
			c1.2,1.2,2.7,1.3,4.3,1.5c0.5,0,1.1-0.3,1.4,0.5c-0.7,0.1-1.5-0.2-2.2,0.2c-0.1,0-0.3,0-0.4,0c-0.6-0.3-1.2-0.1-1.8-0.4
			c-1.9-0.7-3-2.1-3.4-4.1c0-0.3,0-0.6-0.2-0.9C28.4,93.5,28.4,93.4,28.4,93.2z"/>
		<path class="st43" d="M33.7,28.4c-0.7,0.2-1.4,0.4-2.1,0.6c-1.9,0.6-2.7,2.1-3,3.9c-0.1,0.3,0.1,0.6-0.2,0.8
			c-0.5-2.4,1.3-4.8,3.7-5.3C32.5,28.3,33.1,27.9,33.7,28.4z"/>
		<path class="st45" d="M28.4,93.7c0.4,0.2,0.4,0.5,0.5,0.9c0.2,2,2,3.8,4,4c0.4,0,0.7,0,0.9,0.5c-0.4,0-0.7,0.3-1.1,0
			c-0.8-0.2-1.6-0.4-2.2-0.9c-0.1-0.1-0.1-0.1-0.2-0.2c-0.3-0.2-0.5-0.4-0.7-0.7c-0.1-0.1-0.1-0.1-0.2-0.2c-0.5-0.7-0.7-1.5-0.9-2.2
			C28.1,94.4,28.1,94.1,28.4,93.7z"/>
		<path class="st45" d="M162.3,99c0.2-0.4,0.5-0.4,0.9-0.5c2-0.2,3.8-2,4-4c0-0.4,0-0.7,0.5-0.9C167.6,97,165.6,99,162.3,99z"/>
		<path class="st43" d="M30.4,98.1c0.7,0.3,1.5,0.6,2.2,0.9C31.8,99,30.9,98.9,30.4,98.1z"/>
		<path class="st43" d="M28.4,94.8c0.3,0.7,0.6,1.5,0.9,2.2C28.5,96.5,28.4,95.6,28.4,94.8z"/>
		<path class="st43" d="M29.5,97.3c0.3,0.1,0.5,0.4,0.7,0.7C29.7,97.9,29.5,97.7,29.5,97.3z"/>
		<path class="st46" d="M36.4,98.8c-0.9-0.5-1.9-0.2-2.9-0.4c-3.2-0.5-4.5-2.8-4.7-5.7c0-0.6,0.2-1.2-0.2-1.7
			c-0.2-0.3-0.1-0.7-0.1-1.1c0-17.5,0-34.9,0-52.4c0-0.4-0.1-0.7,0.1-1.1c0.5-0.9,0.2-1.9,0.4-2.9c0.5-3.2,2.7-4.4,5.6-4.7
			c5.4-0.4,10.8-0.2,16.2-0.2c35.7,0,71.4,0,107.2,0c1.5,0,3.1,0.2,4.6,0.4c3.2,0.4,4.4,2.7,4.7,5.6c0,0.6-0.2,1.3,0.2,1.8
			c0.2,0.3,0.1,0.7,0.1,1.1c0,17.5,0,34.9,0,52.4c0,0.4,0.1,0.7-0.1,1.1c-0.5,0.9-0.2,1.9-0.4,2.9c-0.5,3.2-2.8,4.5-5.7,4.7
			c-0.6,0-1.2-0.2-1.7,0.2c-0.4,0.2-0.8,0.1-1.2,0.1c-40.3,0-80.6,0-120.8,0C37.2,98.9,36.8,99,36.4,98.8z"/>
		<path class="st44" d="M36.4,98.8c41.1,0,82.2,0,123.3,0c-0.3,0.4-0.8,0.2-1.2,0.2c-40.3,0-80.6,0-120.9,0
			C37.2,99,36.7,99.2,36.4,98.8z"/>
		<path class="st44" d="M28.6,36.4c0,18.2,0,36.4,0,54.6c-0.4-0.3-0.2-0.8-0.2-1.2c0-17.4,0-34.9,0-52.3
			C28.4,37.2,28.2,36.7,28.6,36.4z"/>
		<path class="st44" d="M167.4,91c0-18.2,0-36.4,0-54.6c0.4,0.3,0.2,0.8,0.2,1.2c0,17.4,0,34.9,0,52.3
			C167.7,90.3,167.8,90.7,167.4,91z"/>
		<path class="st47" d="M158.3,98.4c-39.3,0-78.6,0-117.9,0.1c-2.6,0-5.1-0.1-7.6-0.5c-2.2-0.3-3.6-2.2-3.6-4.4
			c0-0.9-0.1-1.8-0.4-2.7c-0.2-0.7-0.2-1.3,0-2c0.1-0.5,0.2-1,0.2-1.5c0-15.7,0.1-31.3-0.1-47c0-2.5,0.2-4.9,0.5-7.3
			c0.3-2.2,2.2-3.6,4.4-3.6c0.9,0,1.8-0.1,2.7-0.4c0.7-0.2,1.3-0.2,2,0c0.6,0.1,1.2,0.2,1.8,0.2c38.4,0,76.8,0,115.2-0.1
			c2.6,0,5.1,0.1,7.6,0.5c2.2,0.3,3.6,2.2,3.6,4.4c0,0.9,0.1,1.8,0.4,2.7c0.2,0.7,0.2,1.3,0,2c-0.1,0.5-0.2,1-0.2,1.5
			c0,15.7-0.1,31.3,0.1,47c0,2.2-0.3,4.3-0.3,6.5c-0.1,2.1-1.5,3.8-3.6,4.2c-1.6,0.3-3.3,0.3-4.9,0.8
			C158.3,98.6,158.3,98.5,158.3,98.4z"/>
		<path class="st48" d="M102,98.1c-23.2,0-42.5,0-61.7-0.1c-2.5,0-5,0.1-7.5-0.6c-1.5-0.4-2.5-1.4-2.9-2.9c-0.3-1.2-0.4-2.4-0.5-3.6
			c-0.5-16.9-0.1-33.8-0.1-50.7c0-2.4-0.1-5,0.6-7.4c0.5-1.6,1.4-2.6,3-3c1.1-0.3,2.3-0.4,3.5-0.5c39.8-0.5,79.5-0.1,119.3-0.2
			c2.5,0,5-0.1,7.5,0.6c1.5,0.4,2.5,1.4,2.9,2.9c0.3,1.2,0.4,2.4,0.5,3.6c0.5,16.9,0.1,33.8,0.1,50.7c0,2.4,0.1,5-0.6,7.4
			c-0.5,1.6-1.4,2.6-3,3c-1.1,0.3-2.3,0.4-3.5,0.5C139.1,98.5,118.5,97.9,102,98.1z"/>
		<path class="st49" d="M98,97.7c-20.7,0-41.4,0-62.1,0c-1.6,0-3.3-0.2-4.6-1.3c-1.4-1.2-1.6-2.8-1.6-4.5c0-18.8,0-37.6,0-56.4
			c0-1.6,0.3-3.4,1.7-4.5c1.2-1,2.8-1.3,4.3-1.3c5.9,0,11.9,0,17.8,0c35.5,0,71,0,106.5,0c1.6,0,3.3,0.2,4.6,1.3
			c1.4,1.2,1.6,2.8,1.6,4.5c0,18.8,0,37.6,0,56.4c0,1.7-0.3,3.5-1.8,4.6c-1.3,1-2.8,1.2-4.4,1.2C139.4,97.7,118.7,97.7,98,97.7z"/>
		<path class="st50" d="M97.9,97.3c-20.6,0-41.2,0-61.8,0c-0.9,0-1.7-0.1-2.5-0.3c-2.3-0.6-3.2-1.9-3.4-5.1c-0.1-3.7,0-7.5,0-11.3
			c0-14.8,0-29.6,0-44.5c0-0.9,0.1-1.7,0.3-2.5c0.7-2.6,2.2-3,4.9-3.4c0.3,0,0.6,0,0.9,0c41.2,0,82.4,0,123.6,0
			c0.9,0,1.7,0.1,2.5,0.3c2.3,0.5,3.5,2.4,3.5,5.3c0,11.5,0,23,0,34.5c0,6.9,0,13.7,0,20.6c0,0.9-0.1,1.8-0.3,2.6
			c-0.5,2.3-2.3,3.6-5.2,3.7c-4.1,0-8.2,0-12.4,0C131.3,97.3,114.6,97.3,97.9,97.3z"/>
		<path class="st51" d="M98,30.8c19.3,0,38.6,0,57.9,0c1.9,0,3.9,0.1,5.7,0.4c2.2,0.4,3.2,1.8,3.3,4c0.3,5.4,0.2,10.9,0.2,16.4
			c0,11.9,0,23.8,0,35.8c0,2-0.1,3.9-0.4,5.8c-0.3,2.1-1.8,3.1-3.9,3.2c-4.4,0.2-8.8,0.2-13.2,0.2c-35.8,0-71.6,0-107.4,0
			c-1.8,0-3.5-0.2-5.3-0.2c-2.4-0.1-3.8-1.8-3.9-4.3c-0.4-11.4-0.1-22.8-0.2-34.2c0-6-0.1-12,0-17.9c0-1.9-0.1-3.8,0.3-5.6
			c0.5-2.2,1.8-3.1,4-3.3c5.7-0.3,11.3-0.2,17-0.2C67.5,30.8,82.8,30.8,98,30.8z"/>
		<path class="st52" d="M98.1,31.5c20.4,0,40.7,0,61.1,0c1.3,0,2.6,0.1,3.7,0.9c1.4,1,1.6,2.5,1.6,4c0,18.2,0.1,36.4,0,54.6
			c0,3.4-1.3,4.9-5.2,4.9c-24,0-48.1,0-72.1,0c-16.8,0-33.6,0-50.5,0c-1.4,0-2.8-0.1-3.9-1.2c-1.2-1.1-1.3-2.6-1.3-4.1
			c0-12,0-23.9,0-35.9c0-6.1,0-12.1,0-18.2c0-1.4,0.2-2.8,1.3-3.9c1.1-1.1,2.5-1.2,3.9-1.2C57.2,31.5,77.7,31.5,98.1,31.5z"/>
		<path class="st53" d="M98.1,33.7c19.9,0,39.7,0,59.6,0c2.9,0,4.6,1.8,4.6,4.6c-0.1,17-0.1,33.9,0,50.9c0,2.8-1.8,4.5-4.5,4.5
			c-39.9,0-79.8,0-119.7,0c-3,0-4.5-1.5-4.5-4.4c0-17,0-34.1,0-51.1c0-2.9,1.5-4.4,4.4-4.4C58.1,33.7,78.1,33.7,98.1,33.7z"/>
	</g>
</g>
<g id="Object">
	
		<linearGradient id="SVGID_1_" gradientUnits="userSpaceOnUse" x1="3.0822" y1="12.9021" x2="130.1585" y2="77.8612" gradientTransform="matrix(1 0 0 -1 0 118)">
		<stop  offset="0" style="stop-color:#B9E793"/>
		<stop  offset="1" style="stop-color:#1CB1BB"/>
	</linearGradient>
	<rect class="st54" width="192" height="115.2"/>
	<g class="st55">
		<path class="st56" d="M40.2,83.7c-0.2,0-0.4-0.2-0.4-0.4c0-0.2,0.2-0.4,0.4-0.4s0.4,0.2,0.4,0.4C40.6,83.5,40.4,83.7,40.2,83.7z
			 M40.2,83.2c-0.1,0-0.2,0.1-0.2,0.2s0.1,0.2,0.2,0.2c0.1,0,0.2-0.1,0.2-0.2C40.4,83.2,40.3,83.2,40.2,83.2z"/>
	</g>
	<g>
		<path class="st57" d="M64.3,87.2c-0.1,0-0.3-0.2-0.3-0.3c0,0.1-0.2,0.3-0.3,0.3c0.1,0,0.3,0.2,0.3,0.3
			C64,87.3,64.1,87.2,64.3,87.2z"/>
		<circle class="st57" cx="64" cy="88.3" r="0.3"/>
		<path class="st57" d="M64.3,89.6c-0.1,0-0.3-0.2-0.3-0.3c0,0.1-0.2,0.3-0.3,0.3c0.1,0,0.3,0.2,0.3,0.3
			C64,89.7,64.1,89.6,64.3,89.6z"/>
		<path class="st57" d="M63.2,87.2c-0.1,0-0.3-0.2-0.3-0.3c0,0.1-0.2,0.3-0.3,0.3c0.1,0,0.3,0.2,0.3,0.3
			C62.9,87.3,63,87.2,63.2,87.2z"/>
		<circle class="st57" cx="62.9" cy="88.3" r="0.3"/>
		<path class="st57" d="M63.2,89.6c-0.1,0-0.3-0.2-0.3-0.3c0,0.1-0.2,0.3-0.3,0.3c0.1,0,0.3,0.2,0.3,0.3
			C62.9,89.7,63,89.6,63.2,89.6z"/>
		<path class="st57" d="M62.1,87.2c-0.1,0-0.3-0.2-0.3-0.3c0,0.1-0.2,0.3-0.3,0.3c0.1,0,0.3,0.2,0.3,0.3
			C61.7,87.3,61.9,87.2,62.1,87.2z"/>
		<path class="st57" d="M62.1,88.3c-0.1,0-0.3-0.2-0.3-0.3c0,0.1-0.2,0.3-0.3,0.3c0.1,0,0.3,0.2,0.3,0.3
			C61.7,88.4,61.9,88.3,62.1,88.3z"/>
		<path class="st57" d="M62.1,89.6c-0.1,0-0.3-0.2-0.3-0.3c0,0.1-0.2,0.3-0.3,0.3c0.1,0,0.3,0.2,0.3,0.3
			C61.7,89.7,61.9,89.6,62.1,89.6z"/>
		<path class="st57" d="M60.9,87.2c-0.1,0-0.3-0.2-0.3-0.3c0,0.1-0.2,0.3-0.3,0.3c0.1,0,0.3,0.2,0.3,0.3
			C60.6,87.3,60.8,87.2,60.9,87.2z"/>
		<path class="st57" d="M60.9,88.3c-0.1,0-0.3-0.2-0.3-0.3c0,0.1-0.2,0.3-0.3,0.3c0.1,0,0.3,0.2,0.3,0.3
			C60.6,88.4,60.8,88.3,60.9,88.3z"/>
		<path class="st57" d="M60.9,89.6c-0.1,0-0.3-0.2-0.3-0.3c0,0.1-0.2,0.3-0.3,0.3c0.1,0,0.3,0.2,0.3,0.3
			C60.6,89.7,60.8,89.6,60.9,89.6z"/>
		<path class="st57" d="M59.8,87.2c-0.1,0-0.3-0.2-0.3-0.3c0,0.1-0.2,0.3-0.3,0.3c0.1,0,0.3,0.2,0.3,0.3
			C59.5,87.3,59.7,87.2,59.8,87.2z"/>
		<circle class="st57" cx="59.5" cy="88.3" r="0.3"/>
		<path class="st57" d="M59.8,89.6c-0.1,0-0.3-0.2-0.3-0.3c0,0.1-0.2,0.3-0.3,0.3c0.1,0,0.3,0.2,0.3,0.3
			C59.5,89.7,59.7,89.6,59.8,89.6z"/>
		<path class="st57" d="M58.7,87.2c-0.1,0-0.3-0.2-0.3-0.3c0,0.1-0.2,0.3-0.3,0.3c0.1,0,0.3,0.2,0.3,0.3
			C58.4,87.3,58.6,87.2,58.7,87.2z"/>
		<circle class="st57" cx="58.4" cy="88.3" r="0.3"/>
		<path class="st57" d="M58.7,89.6c-0.1,0-0.3-0.2-0.3-0.3c0,0.1-0.2,0.3-0.3,0.3c0.1,0,0.3,0.2,0.3,0.3
			C58.4,89.7,58.6,89.6,58.7,89.6z"/>
		<path class="st57" d="M57.6,87.2c-0.1,0-0.3-0.2-0.3-0.3c0,0.1-0.2,0.3-0.3,0.3c0.1,0,0.3,0.2,0.3,0.3
			C57.3,87.3,57.5,87.2,57.6,87.2z"/>
		<path class="st57" d="M57.6,88.3c-0.1,0-0.3-0.2-0.3-0.3c0,0.1-0.2,0.3-0.3,0.3c0.1,0,0.3,0.2,0.3,0.3
			C57.3,88.4,57.5,88.3,57.6,88.3z"/>
		<path class="st57" d="M57.6,89.6c-0.1,0-0.3-0.2-0.3-0.3c0,0.1-0.2,0.3-0.3,0.3c0.1,0,0.3,0.2,0.3,0.3
			C57.3,89.7,57.5,89.6,57.6,89.6z"/>
		<path class="st57" d="M56.5,87.2c-0.1,0-0.3-0.2-0.3-0.3c0,0.1-0.2,0.3-0.3,0.3c0.1,0,0.3,0.2,0.3,0.3
			C56.2,87.3,56.3,87.2,56.5,87.2z"/>
		<path class="st57" d="M56.5,88.3c-0.1,0-0.3-0.2-0.3-0.3c0,0.1-0.2,0.3-0.3,0.3c0.1,0,0.3,0.2,0.3,0.3
			C56.2,88.4,56.3,88.3,56.5,88.3z"/>
		<path class="st57" d="M56.5,89.6c-0.1,0-0.3-0.2-0.3-0.3c0,0.1-0.2,0.3-0.3,0.3c0.1,0,0.3,0.2,0.3,0.3
			C56.2,89.7,56.3,89.6,56.5,89.6z"/>
	</g>
	<path class="st56" d="M44,42.7c0,0.2-0.1,0.3-0.3,0.3s-0.3-0.1-0.3-0.3s0.1-0.3,0.3-0.3C43.8,42.5,44,42.6,44,42.7z"/>
	<path class="st56" d="M36.4,22.3c0,0.2-0.1,0.3-0.3,0.3s-0.3-0.1-0.3-0.3s0.1-0.3,0.3-0.3C36.2,22.1,36.4,22.2,36.4,22.3z"/>
	<g class="st55">
		<path class="st56" d="M157.8,48.9c-0.3,0-0.6-0.3-0.6-0.6s0.3-0.6,0.6-0.6s0.6,0.3,0.6,0.6C158.3,48.7,158.1,48.9,157.8,48.9z
			 M157.8,48.1c-0.1,0-0.2,0.1-0.2,0.2c0,0.1,0.1,0.2,0.2,0.2c0.1,0,0.2-0.1,0.2-0.2C158,48.2,157.9,48.1,157.8,48.1z"/>
	</g>
	<path class="st56" d="M26.3,88.4c0,0.3-0.3,0.6-0.6,0.6c-0.3,0-0.6-0.3-0.6-0.6c0-0.3,0.3-0.6,0.6-0.6S26.3,88,26.3,88.4z"/>
	<g class="st55">
		<g>
			<g>
				<line class="st58" x1="110.1" y1="90.4" x2="110.1" y2="90.8"/>
				<path class="st56" d="M110.1,90.9C110,90.9,110,90.8,110.1,90.9l-0.1-0.4c0-0.1,0.1-0.1,0.1-0.1c0.1,0,0.1,0.1,0.1,0.1
					L110.1,90.9L110.1,90.9z"/>
			</g>
			<g>
				<line class="st58" x1="110.1" y1="91.8" x2="110.1" y2="92.1"/>
				<path class="st56" d="M110.1,92.3C110,92.3,110,92.2,110.1,92.3l-0.1-0.4c0-0.1,0.1-0.1,0.1-0.1c0.1,0,0.1,0.1,0.1,0.1
					L110.1,92.3C110.2,92.2,110.1,92.3,110.1,92.3z"/>
			</g>
		</g>
		<g>
			<g>
				<line class="st58" x1="109.5" y1="90.7" x2="109.7" y2="90.9"/>
				<path class="st56" d="M109.7,91C109.7,91,109.6,91,109.7,91l-0.3-0.3c0,0,0-0.1,0-0.2c0,0,0.1,0,0.2,0l0.2,0.2
					C109.8,90.9,109.8,91,109.7,91L109.7,91z"/>
			</g>
			<g>
				<line class="st58" x1="110.4" y1="91.7" x2="110.7" y2="91.9"/>
				<path class="st56" d="M110.7,92C110.6,92,110.6,92,110.7,92l-0.3-0.3c0,0,0-0.1,0-0.2c0,0,0.1,0,0.2,0l0.2,0.2
					C110.8,91.8,110.8,91.9,110.7,92L110.7,92z"/>
			</g>
		</g>
		<g>
			<g>
				<line class="st58" x1="109.2" y1="91.3" x2="109.5" y2="91.3"/>
				<path class="st56" d="M109.5,91.4h-0.3c-0.1,0-0.1-0.1-0.1-0.1l0.1-0.1h0.3C109.6,91.2,109.6,91.3,109.5,91.4
					C109.6,91.3,109.6,91.4,109.5,91.4z"/>
			</g>
			<g>
				<line class="st58" x1="110.6" y1="91.3" x2="110.9" y2="91.3"/>
				<path class="st56" d="M110.9,91.4h-0.3c-0.1,0-0.1-0.1-0.1-0.1l0.1-0.1h0.3C111,91.2,111,91.3,110.9,91.4
					C111,91.3,111,91.4,110.9,91.4z"/>
			</g>
		</g>
		<g>
			<g>
				<line class="st58" x1="109.5" y1="91.9" x2="109.7" y2="91.7"/>
				<path class="st56" d="M109.5,92C109.4,92,109.4,92,109.5,92c-0.1-0.1-0.1-0.2-0.1-0.2l0.2-0.2c0,0,0.1,0,0.2,0c0,0,0,0.1,0,0.2
					L109.5,92L109.5,92z"/>
			</g>
			<g>
				<line class="st58" x1="110.4" y1="90.9" x2="110.7" y2="90.7"/>
				<path class="st56" d="M110.4,91L110.4,91c-0.1-0.1-0.1-0.2-0.1-0.2l0.2-0.2c0,0,0.1,0,0.2,0c0,0,0,0.1,0,0.2L110.4,91
					C110.5,91,110.5,91,110.4,91z"/>
			</g>
		</g>
	</g>
	<g class="st59">
		<g>
			<g>
				<line class="st60" x1="95.9" y1="83.1" x2="95.9" y2="83.4"/>
				<path class="st57" d="M95.9,83.5C95.8,83.5,95.8,83.4,95.9,83.5l-0.1-0.4c0-0.1,0.1-0.1,0.1-0.1c0.1,0,0.1,0.1,0.1,0.1
					L95.9,83.5C96.1,83.5,96,83.5,95.9,83.5z"/>
			</g>
			<g>
				<line class="st60" x1="95.9" y1="84.6" x2="95.9" y2="84.9"/>
				<path class="st57" d="M95.9,85C95.8,85,95.8,84.9,95.9,85l-0.1-0.4c0-0.1,0.1-0.1,0.1-0.1c0.1,0,0.1,0.1,0.1,0.1L95.9,85
					C96.1,85,96,85,95.9,85z"/>
			</g>
		</g>
		<g>
			<g>
				<line class="st60" x1="95.3" y1="83.3" x2="95.5" y2="83.6"/>
				<path class="st57" d="M95.5,83.7L95.5,83.7l-0.3-0.3c0,0,0-0.1,0-0.2c0,0,0.1,0,0.2,0l0.2,0.2C95.7,83.5,95.7,83.6,95.5,83.7
					C95.6,83.7,95.6,83.7,95.5,83.7z"/>
			</g>
			<g>
				<line class="st60" x1="96.4" y1="84.4" x2="96.6" y2="84.6"/>
				<path class="st57" d="M96.6,84.7C96.6,84.7,96.5,84.7,96.6,84.7l-0.3-0.3c0,0,0-0.1,0-0.2c0,0,0.1,0,0.2,0l0.2,0.2
					C96.7,84.6,96.7,84.7,96.6,84.7C96.7,84.7,96.6,84.7,96.6,84.7z"/>
			</g>
		</g>
		<g>
			<g>
				<line class="st60" x1="95" y1="84" x2="95.4" y2="84"/>
				<path class="st57" d="M95.4,84.1H95c-0.1,0-0.1-0.1-0.1-0.1c0-0.1,0.1-0.1,0.1-0.1h0.3C95.4,83.9,95.4,84,95.4,84.1
					C95.5,84,95.4,84.1,95.4,84.1z"/>
			</g>
			<g>
				<line class="st60" x1="96.5" y1="84" x2="96.9" y2="84"/>
				<path class="st57" d="M96.9,84.1h-0.3c-0.1,0-0.1-0.1-0.1-0.1c0-0.1,0.1-0.1,0.1-0.1h0.3C97,83.9,97,84,96.9,84.1L96.9,84.1z"/>
			</g>
		</g>
		<g>
			<g>
				<line class="st60" x1="95.3" y1="84.6" x2="95.5" y2="84.4"/>
				<path class="st57" d="M95.3,84.7C95.3,84.7,95.2,84.7,95.3,84.7c-0.1-0.1-0.1-0.2-0.1-0.2l0.2-0.2c0,0,0.1,0,0.2,0
					c0,0,0,0.1,0,0.2L95.3,84.7C95.4,84.7,95.3,84.7,95.3,84.7z"/>
			</g>
			<g>
				<line class="st60" x1="96.4" y1="83.6" x2="96.6" y2="83.3"/>
				<path class="st57" d="M96.4,83.7C96.3,83.7,96.3,83.7,96.4,83.7c-0.1-0.1-0.1-0.2-0.1-0.2l0.2-0.2c0,0,0.1,0,0.2,0
					c0,0,0,0.1,0,0.2L96.4,83.7L96.4,83.7z"/>
			</g>
		</g>
	</g>
	<g class="st55">
		<g>
			<g>
				<line class="st58" x1="24.2" y1="51.7" x2="24.2" y2="52"/>
				<path class="st56" d="M24.2,52.1c-0.1,0-0.1-0.1-0.1-0.1v-0.3c0-0.1,0.1-0.1,0.1-0.1l0.1,0.1V52C24.3,52.1,24.3,52.1,24.2,52.1z
					"/>
			</g>
			<g>
				<line class="st58" x1="24.2" y1="53.2" x2="24.2" y2="53.6"/>
				<path class="st56" d="M24.2,53.7c-0.1,0-0.1-0.1-0.1-0.1v-0.3c0-0.1,0.1-0.1,0.1-0.1l0.1,0.1v0.3C24.3,53.6,24.3,53.7,24.2,53.7
					z"/>
			</g>
		</g>
		<g>
			<g>
				<line class="st58" x1="23.4" y1="52.2" x2="23.7" y2="52.3"/>
				<path class="st56" d="M23.7,52.4L23.7,52.4l-0.4-0.2c-0.1,0-0.1-0.1,0-0.2c0-0.1,0.1-0.1,0.2,0l0.3,0.2c0.1,0,0.1,0.1,0,0.2
					C23.8,52.4,23.7,52.4,23.7,52.4z"/>
			</g>
			<g>
				<line class="st58" x1="24.7" y1="52.9" x2="25" y2="53.1"/>
				<path class="st56" d="M25,53.2L25,53.2L24.7,53c-0.1,0-0.1-0.1,0-0.2c0-0.1,0.1-0.1,0.2,0l0.3,0.2c0.1,0,0.1,0.1,0,0.2
					C25.1,53.2,25.1,53.2,25,53.2z"/>
			</g>
		</g>
		<g>
			<g>
				<line class="st58" x1="23.4" y1="53.1" x2="23.7" y2="52.9"/>
				<path class="st56" d="M23.4,53.2c0,0-0.1,0-0.1-0.1s0-0.1,0-0.2l0.3-0.2c0.1,0,0.1,0,0.2,0c0,0.1,0,0.1,0,0.2L23.4,53.2
					L23.4,53.2z"/>
			</g>
			<g>
				<line class="st58" x1="24.7" y1="52.3" x2="25" y2="52.2"/>
				<path class="st56" d="M24.7,52.4c0,0-0.1,0-0.1-0.1s0-0.1,0-0.2l0.3-0.2c0.1,0,0.1,0,0.2,0c0,0.1,0,0.1,0,0.2L24.7,52.4
					C24.8,52.4,24.8,52.4,24.7,52.4z"/>
			</g>
		</g>
	</g>
	<g class="st55">
		<g>
			<g>
				<line class="st58" x1="20" y1="71.8" x2="20" y2="72.1"/>
				<path class="st56" d="M20,72.3c-0.1,0-0.1-0.1-0.1-0.1v-0.4c0-0.1,0.1-0.1,0.1-0.1c0.1,0,0.1,0.1,0.1,0.1v0.4
					C20.1,72.2,20,72.3,20,72.3z"/>
			</g>
			<g>
				<line class="st58" x1="20" y1="73.4" x2="20" y2="73.8"/>
				<path class="st56" d="M20,73.9c-0.1,0-0.1-0.1-0.1-0.1v-0.4c0-0.1,0.1-0.1,0.1-0.1c0.1,0,0.1,0.1,0.1,0.1v0.4
					C20.1,73.9,20,73.9,20,73.9z"/>
			</g>
		</g>
		<g>
			<g>
				<line class="st58" x1="19.1" y1="72.3" x2="19.4" y2="72.5"/>
				<path class="st56" d="M19.4,72.6L19.4,72.6L19,72.4c-0.1,0-0.1-0.1,0-0.2c0-0.1,0.1-0.1,0.2,0l0.3,0.2c0.1,0,0.1,0.1,0,0.2
					C19.5,72.6,19.5,72.6,19.4,72.6z"/>
			</g>
			<g>
				<line class="st58" x1="20.5" y1="73.1" x2="20.9" y2="73.3"/>
				<path class="st56" d="M20.9,73.4C20.9,73.4,20.8,73.4,20.9,73.4l-0.4-0.2c-0.1,0-0.1-0.1,0-0.2c0-0.1,0.1-0.1,0.2,0l0.3,0.2
					c0.1,0,0.1,0.1,0,0.2H20.9z"/>
			</g>
		</g>
		<g>
			<g>
				<line class="st58" x1="19.1" y1="73.3" x2="19.4" y2="73.1"/>
				<path class="st56" d="M19.1,73.4c0,0-0.1,0-0.1-0.1s0-0.1,0-0.2l0.3-0.2c0.1,0,0.1,0,0.2,0c0,0.1,0,0.1,0,0.2L19.1,73.4
					L19.1,73.4z"/>
			</g>
			<g>
				<line class="st58" x1="20.5" y1="72.5" x2="20.9" y2="72.3"/>
				<path class="st56" d="M20.5,72.6c0,0-0.1,0-0.1-0.1s0-0.1,0-0.2l0.3-0.2c0.1,0,0.1,0,0.2,0c0,0.1,0,0.1,0,0.2L20.5,72.6
					C20.6,72.6,20.6,72.6,20.5,72.6z"/>
			</g>
		</g>
	</g>
	<path class="st57" d="M158.8,83.8c0.1,0.1,0.2,0.1,0.3,0.1s0.2,0,0.3-0.1L160,83l0.1-0.1c0,0,0.1,0,0.1,0.1l0.5,0.8
		c0.1,0.1,0.2,0.1,0.3,0.1l0,0c0.1,0,0.2,0,0.3-0.1L162,83l0.1-0.1c0,0,0.1,0,0.1,0.1l0.5,0.8c0.1,0.1,0.2,0.1,0.3,0.1
		s0.2,0,0.3-0.1L164,83l0.1-0.1c0,0,0.1,0,0.1,0.1l0.5,0.8c0.1,0.1,0.2,0.1,0.3,0.1l0,0c0.1,0,0.2,0,0.3-0.1l0.9-1.1l-0.2-0.1
		l-0.9,1.1l-0.1,0.1c0,0-0.1,0-0.1-0.1l-0.5-0.8c-0.1-0.1-0.2-0.1-0.3-0.1s-0.2,0-0.3,0.1l-0.6,0.8l-0.1,0.1c0,0-0.1,0-0.1-0.1
		l-0.5-0.8c-0.1-0.1-0.2-0.1-0.3-0.1s-0.2,0-0.3,0.1l-0.6,0.8l-0.1,0.1c0,0-0.1,0-0.1-0.1l-0.5-0.8c-0.1-0.1-0.2-0.1-0.3-0.1
		s-0.2,0-0.3,0.1l-0.6,0.8l-0.1,0.1c0,0-0.1,0-0.1-0.1l-0.8-1.1l-0.2,0.1L158.8,83.8z"/>
	<path class="st57" d="M158.8,82.3c0.1,0.1,0.2,0.1,0.3,0.1s0.2,0,0.3-0.1l0.6-0.8l0.1-0.1c0,0,0.1,0,0.1,0.1l0.5,0.8
		c0.1,0.1,0.2,0.1,0.3,0.1l0,0c0.1,0,0.2,0,0.3-0.1l0.6-0.8l0.1-0.1c0,0,0.1,0,0.1,0.1l0.5,0.8c0.1,0.1,0.2,0.1,0.3,0.1
		s0.2,0,0.3-0.1l0.6-0.8l0.1-0.1c0,0,0.1,0,0.1,0.1l0.5,0.8c0.1,0.1,0.2,0.1,0.3,0.1l0,0c0.1,0,0.2,0,0.3-0.1l0.9-1.1l-0.2-0.1
		l-0.9,1.1l-0.1,0.1c0,0-0.1,0-0.1-0.1l-0.5-0.8c-0.1-0.1-0.2-0.1-0.3-0.1s-0.2,0-0.3,0.1l-0.6,0.8l-0.1,0.1c0,0-0.1,0-0.1-0.1
		l-0.5-0.8c-0.1-0.1-0.2-0.1-0.3-0.1s-0.2,0-0.3,0.1l-0.6,0.8l-0.1,0.1c0,0-0.1,0-0.1-0.1l-0.5-0.8c-0.1-0.1-0.2-0.1-0.3-0.1
		s-0.2,0-0.3,0.1l-0.6,0.8l-0.1,0.1c0,0-0.1,0-0.1-0.1l-0.8-1.1l-0.2,0.1L158.8,82.3z"/>
	<g>
		<path class="st57" d="M25.6,36.7L25.6,36.7l0.8-1.1c0.1-0.1,0.1-0.1,0.2-0.1s0.2,0,0.2,0.1l0.6,0.8c0,0.1,0.1,0.1,0.2,0.1
			s0.1,0,0.2-0.1l0.7-0.8c0.1-0.1,0.1-0.1,0.2-0.1s0.2,0,0.2,0.1l0.6,0.8c0,0.1,0.1,0.1,0.2,0.1s0.1,0,0.2-0.1l0.7-0.8
			c0.1-0.1,0.1-0.1,0.2-0.1s0.2,0,0.2,0.1l0.6,0.8c0,0.1,0.1,0.1,0.2,0.1s0.1,0,0.2-0.1l0.7-0.8c0.1-0.1,0.1-0.1,0.2-0.1
			c0.1,0,0.2,0,0.2,0.1l0.8,1.1h-0.1L33,35.6c0-0.1-0.1-0.1-0.2-0.1c-0.1,0-0.1,0-0.2,0.1L32,36.4c-0.1,0.1-0.1,0.1-0.2,0.1
			s-0.2,0-0.2-0.1L31,35.6c0-0.1-0.1-0.1-0.2-0.1s-0.1,0-0.2,0.1l-0.7,0.8c-0.1,0.1-0.1,0.1-0.2,0.1s-0.2,0-0.2-0.1l-0.6-0.8
			c0-0.1-0.1-0.1-0.2-0.1s-0.1,0-0.2,0.1l-0.7,0.8c-0.1,0.1-0.1,0.1-0.2,0.1s-0.2,0-0.2-0.1l-0.6-0.8c0-0.1-0.1-0.1-0.2-0.1
			s-0.1,0-0.2,0.1L25.6,36.7z"/>
	</g>
	<path class="st61" d="M81.1,52.8l0.2,0.1V53H81c0,0,0,0,0,0.1l-0.1,0.2h-0.1V53c0-0.1,0-0.1-0.1-0.1l-0.2-0.1v-0.1h0.3
		c0.1,0,0.1,0,0.1-0.1l0.1-0.2h0.1L81.1,52.8C81,52.7,81.1,52.8,81.1,52.8z"/>
	<circle class="st56" cx="113.2" cy="96.7" r="0.3"/>
	<g>
		<path class="st56" d="M149.8,19.3c-0.3,0-0.5-0.2-0.5-0.5s0.2-0.5,0.5-0.5s0.5,0.2,0.5,0.5C150.3,19.1,150.1,19.3,149.8,19.3z
			 M149.8,18.5c-0.2,0-0.3,0.1-0.3,0.3c0,0.2,0.1,0.3,0.3,0.3s0.3-0.1,0.3-0.3S150,18.5,149.8,18.5z"/>
	</g>
	<path class="st57" d="M163.4,41.9c-0.1-0.1-0.2-0.1-0.3-0.1s-0.2,0-0.3,0.1l-0.6,0.8l-0.1,0.1c0,0-0.1,0-0.1-0.1l-0.5-0.8
		c-0.1-0.1-0.2-0.1-0.3-0.1l0,0c-0.1,0-0.2,0-0.3,0.1l-0.6,0.8l-0.1,0.1c0,0-0.1,0-0.1-0.1l-0.5-0.8c-0.1-0.1-0.2-0.1-0.3-0.1
		s-0.2,0-0.3,0.1l-0.6,0.8l-0.1,0.1c0,0-0.1,0-0.1-0.1l-0.5-0.8c-0.1-0.1-0.2-0.1-0.3-0.1l0,0c-0.1,0-0.2,0-0.3,0.1L156,43l0.2,0.1
		l0.9-1.1l0.1-0.1c0,0,0.1,0,0.1,0.1l0.5,0.8c0.1,0.1,0.2,0.1,0.3,0.1s0.2,0,0.3-0.1L159,42l0.1-0.1c0,0,0.1,0,0.1,0.1l0.5,0.8
		c0.1,0.1,0.2,0.1,0.3,0.1s0.2,0,0.3-0.1L161,42l0.1-0.1c0,0,0.1,0,0.1,0.1l0.5,0.8c0.1,0.1,0.2,0.1,0.3,0.1s0.2,0,0.3-0.1L163,42
		l0.1-0.1c0,0,0.1,0,0.1,0.1l0.8,1.1l0.2-0.1L163.4,41.9z"/>
</g>
<g id="Text">
</g>
</svg>
