<?xml version="1.0" encoding="utf-8"?>
<!-- Generator: Adobe Illustrator 22.1.0, SVG Export Plug-In . SVG Version: 6.00 Build 0)  -->
<svg version="1.1" id="_x2014_ÎÓÈ_x5F_1" xmlns="http://www.w3.org/2000/svg" xmlns:xlink="http://www.w3.org/1999/xlink"
	 x="0px" y="0px" viewBox="0 0 1600 1200" style="enable-background:new 0 0 1600 1200;" xml:space="preserve">
<style type="text/css">
	.st0{fill:#FFFFFF;}
	.st1{opacity:0.1;fill:#92D2FC;}
	.st2{opacity:0.15;fill:#4DA9FF;}
	.st3{fill:#D4DAFF;}
	.st4{fill:#9B81CB;}
	.st5{opacity:5.000000e-02;fill:#B99AF2;}
	.st6{fill:#633B25;}
	.st7{fill:#1E004C;}
	.st8{fill:#4D88FF;}
	.st9{fill:#F2F2F2;}
	.st10{fill:#2B0073;}
	.st11{fill:#5C96DB;}
	.st12{fill:#300C6D;}
	.st13{fill:#42210B;}
	.st14{fill:#6AE3E0;}
	.st15{fill:#49B2AF;}
	.st16{fill:#FFCBA5;}
	.st17{fill:#F6921E;}
	.st18{fill:#FFB37C;}
	.st19{fill:#F05A24;}
	.st20{fill:#245BC6;}
	.st21{opacity:0.3;fill:#4DA9FF;}
	.st22{opacity:0.2;fill:#D4DAFF;}
	.st23{fill:#EC1C24;}
</style>
<rect y="0" class="st0" width="1600" height="1200"/>
<path class="st1" d="M1600,0v1200H542.2c0,0,39-347.6,384.1-424.3s225-404.7-54-515C573.4,142.8,542.1,0,542.1,0L1600,0z"/>
<path class="st2" d="M605.3,1200c0,0,52.1-271.3,261.6-362.9c158.9-69.5,229,26.5,316.2-34.5c84.1-58.9,49.7-149.2,115.4-254.3
	c56.1-89.7,72.3-73.9,71.3-152.3c-1.6-118.2-248.7-63-382.7-165C837.3,117.1,800,0,800,0l800,0v1200H605.3z"/>
<path class="st2" d="M1283,828.4c35,27.6,77.1,27.7,113.3,12c36.1-15.7,10.6-73.4-42.9-72.5c-53.5,0.9-37.1-23.4-37.1-23.4
	s4.4-7.3-25.2,8.7C1261.4,769.2,1249.5,802,1283,828.4z"/>
<path class="st2" d="M1056.7,979.2c2.7,30.2,57.6,56.1,79.9,48.8c39.4-13-1.1-50.2-11.7-55.7
	C1114.2,966.8,1053.9,948.2,1056.7,979.2z"/>
<g>
	<path class="st3" d="M828.3,818.2c-3.9,0-7.1-3.2-7.1-7.1v-119c0-3.9,3.2-7.1,7.1-7.1s7.1,3.2,7.1,7.1v119
		C835.4,815.1,832.2,818.2,828.3,818.2z"/>
	<g>
		<path class="st3" d="M803.1,857.9c2-3.4,5.4-5.2,7.6-3.9l2.6,1.5l-7.2,12.4l-2.6-1.5C801.3,865.1,801.2,861.3,803.1,857.9z"/>
		<path class="st4" d="M805.8,859.4c-2,3.4-1.8,7.2,0.4,8.5c2.2,1.3,5.6-0.5,7.6-3.9c2-3.4,1.8-7.2-0.4-8.5
			C811.1,854.3,807.8,856,805.8,859.4z"/>
		<path class="st3" d="M807.6,860.5c2-3.4,5.4-5.2,7.6-3.9l2.6,1.5l-7.2,12.4L808,869C805.8,867.7,805.6,863.9,807.6,860.5z"/>
		<path class="st4" d="M810.2,862c-2,3.4-1.8,7.2,0.4,8.5c2.2,1.3,5.6-0.5,7.6-3.9c2-3.4,1.8-7.2-0.4-8.5
			C815.6,856.8,812.2,858.6,810.2,862z"/>
	</g>
	<g>
		<path class="st3" d="M760,841.4c2-3.4,5.4-5.2,7.6-3.9l2.6,1.5l-7.2,12.4l-2.6-1.5C758.2,848.6,758,844.8,760,841.4z"/>
		<path class="st4" d="M762.6,842.9c-2,3.4-1.8,7.2,0.4,8.5c2.2,1.3,5.6-0.5,7.6-3.9c2-3.4,1.8-7.2-0.4-8.5
			C768,837.8,764.6,839.5,762.6,842.9z"/>
		<path class="st3" d="M764.4,843.9c2-3.4,5.4-5.2,7.6-3.9l2.6,1.5l-7.2,12.4l-2.6-1.5C762.6,851.2,762.4,847.4,764.4,843.9z"/>
		<path class="st4" d="M767,845.5c-2,3.4-1.8,7.2,0.4,8.5c2.2,1.3,5.6-0.5,7.6-3.9c2-3.4,1.8-7.2-0.4-8.5
			C772.4,840.3,769,842,767,845.5z"/>
	</g>
	<g>
		<path class="st3" d="M756.9,810c2-3.4,5.4-5.2,7.6-3.9l2.6,1.5l-7.2,12.4l-2.6-1.5C755.1,817.2,754.9,813.4,756.9,810z"/>
		<path class="st4" d="M759.5,811.5c-2,3.4-1.8,7.2,0.4,8.5c2.2,1.3,5.6-0.5,7.6-3.9c2-3.4,1.8-7.2-0.4-8.5
			C764.9,806.3,761.5,808.1,759.5,811.5z"/>
		<path class="st3" d="M761.3,812.5c2-3.4,5.4-5.2,7.6-3.9l2.6,1.5l-7.2,12.4l-2.6-1.5C759.5,819.8,759.3,816,761.3,812.5z"/>
		<path class="st4" d="M764,814.1c-2,3.4-1.8,7.2,0.4,8.5c2.2,1.3,5.6-0.5,7.6-3.9c2-3.4,1.8-7.2-0.4-8.5
			C769.3,808.9,765.9,810.6,764,814.1z"/>
	</g>
	<g>
		<path class="st3" d="M838,792.7c2-3.4,5.4-5.2,7.6-3.9l2.6,1.5l-7.2,12.4l-2.6-1.5C836.2,799.9,836.1,796.1,838,792.7z"/>
		<path class="st4" d="M840.7,794.2c-2,3.4-1.8,7.2,0.4,8.5c2.2,1.3,5.6-0.5,7.6-3.9c2-3.4,1.8-7.2-0.4-8.5
			C846,789,842.7,790.8,840.7,794.2z"/>
		<path class="st3" d="M842.5,795.2c2-3.4,5.4-5.2,7.6-3.9l2.6,1.5l-7.2,12.4l-2.6-1.5C840.7,802.5,840.5,798.6,842.5,795.2z"/>
		<path class="st4" d="M845.1,796.7c-2,3.4-1.8,7.2,0.4,8.5c2.2,1.3,5.6-0.5,7.6-3.9c2-3.4,1.8-7.2-0.4-8.5
			C850.5,791.6,847.1,793.3,845.1,796.7z"/>
	</g>
	<g>
		<path class="st3" d="M885,811c2-3.4,5.4-5.2,7.6-3.9l2.6,1.5l-7.2,12.4l-2.6-1.5C883.2,818.3,883,814.5,885,811z"/>
		<path class="st4" d="M887.6,812.6c-2,3.4-1.8,7.2,0.4,8.5c2.2,1.3,5.6-0.5,7.6-3.9c2-3.4,1.8-7.2-0.4-8.5
			C893,807.4,889.6,809.1,887.6,812.6z"/>
		<path class="st3" d="M889.4,813.6c2-3.4,5.4-5.2,7.6-3.9l2.6,1.5l-7.2,12.4l-2.6-1.5C887.6,820.8,887.4,817,889.4,813.6z"/>
		<path class="st4" d="M892.1,815.1c-2,3.4-1.8,7.2,0.4,8.5c2.2,1.3,5.6-0.5,7.6-3.9c2-3.4,1.8-7.2-0.4-8.5
			C897.4,809.9,894,811.7,892.1,815.1z"/>
	</g>
	<g>
		<path class="st3" d="M880.5,852.1c2-3.4,5.4-5.2,7.6-3.9l2.6,1.5l-7.2,12.4l-2.6-1.5C878.7,859.3,878.6,855.5,880.5,852.1z"/>
		<path class="st4" d="M883.2,853.6c-2,3.4-1.8,7.2,0.4,8.5c2.2,1.3,5.6-0.5,7.6-3.9c2-3.4,1.8-7.2-0.4-8.5
			C888.5,848.4,885.2,850.2,883.2,853.6z"/>
		<path class="st3" d="M884.9,854.6c2-3.4,5.4-5.2,7.6-3.9l2.6,1.5l-7.2,12.4l-2.6-1.5C883.1,861.9,883,858.1,884.9,854.6z"/>
		<path class="st4" d="M887.6,856.2c-2,3.4-1.8,7.2,0.4,8.5c2.2,1.3,5.6-0.5,7.6-3.9c2-3.4,1.8-7.2-0.4-8.5
			C893,851,889.6,852.7,887.6,856.2z"/>
	</g>
	<path class="st3" d="M768.7,843.4c-0.9,0-1.8-0.4-2.3-1.2c-0.9-1.3-0.6-3,0.6-4c35.1-25.4,67.5-32.1,88.5-33.3
		c22.9-1.3,37.3,3.4,37.9,3.6c1.5,0.5,2.3,2.1,1.8,3.6c-0.5,1.5-2.1,2.3-3.6,1.8c-0.2-0.1-14.3-4.6-36-3.3
		c-20.2,1.2-51.3,7.7-85.2,32.2C769.9,843.2,769.3,843.4,768.7,843.4z"/>
	<path class="st3" d="M883.3,848.6c-0.8,0-1.5-0.3-2.1-0.9c-20.8-23-46.1-36-75.1-38.7c-21.7-2-37.5,2.9-37.7,3
		c-1.5,0.5-3.1-0.4-3.6-1.8c-0.5-1.5,0.3-3.1,1.8-3.6c0.7-0.2,16.9-5.3,39.7-3.2c21,1.9,51.8,10.4,79.1,40.5c1.1,1.2,1,3-0.2,4
		C884.6,848.3,883.9,848.6,883.3,848.6z"/>
	<path class="st3" d="M810.7,859.3c-0.2,0-0.4,0-0.6-0.1c-1.5-0.3-2.5-1.8-2.2-3.3c11-55.7,35.3-65.9,36.3-66.3
		c1.5-0.6,3.1,0.1,3.7,1.6c0.6,1.5-0.1,3.1-1.6,3.7c-0.3,0.1-22.5,10.1-32.8,62.1C813.2,858.3,812,859.3,810.7,859.3z"/>
	<g>
		<g>
			<path class="st5" d="M809.2,683.7c-31.6,15.2-46.7,8-56.3,15.2c-2.2,1.6-4.8,4.6-7.7,8.3l-1.9-1l2.9-60.8l-11.1-62.6l104.2-60.2
				l0,0c2-1.4,5.7-1,6.8,1.2c4.8,9.3,10.1,42.1,10.1,62.9c0,20.8-2.8,46.8,2.9,58.2C852.5,646.1,840.8,668.5,809.2,683.7z"/>
			<path class="st3" d="M944.7,699.1c2.1,3.7,1,8.8-1.4,10.5l0,0l-0.1,0c-0.1,0.1-0.3,0.2-0.4,0.2L838.6,770l-24.5-25.9l-68.8-37
				c2.8-3.7,5.5-6.7,7.7-8.3c9.6-7.2,24.7,0,56.3-15.2c31.6-15.2,43.3-37.6,50-38.9C865,656.2,929.8,672.8,944.7,699.1z"/>
		</g>
		<path class="st0" d="M744.9,582.2c4.8,9.3,10.1,42.1,10.1,62.9c0,20.8-2.8,46.8,2.9,58.2c5.8,11.4,70.6,27.9,85.5,54.2
			c3.1,5.5-0.9,14.4-5.9,9.8c-5.1-4.6-42.6-35.1-79.5-48.8c-12.4-4.6-24.4-13.8-20.7-31.2c3.6-16.9,5.4-24.9,5.9-46
			c0.5-21.1-3.3-50.1-6-55.7C734.5,579.9,743,578.6,744.9,582.2z"/>
		<path class="st3" d="M741.5,584.1c4.8,9.3,10.1,42.1,10.1,62.9c0,20.8-2.8,46.8,2.9,58.2c5.8,11.4,70.6,27.9,85.5,54.2
			c3.1,5.5-0.9,14.4-5.9,9.8c-5.1-4.6-42.6-35.1-79.5-48.8c-12.4-4.6-24.4-13.8-20.7-31.2c3.6-16.9,5.4-24.9,5.9-46
			c0.5-21.1-3.3-50.1-6-55.7C731.1,581.9,739.6,580.6,741.5,584.1z"/>
	</g>
	<g>
		<path class="st6" d="M1326.2,379.5c-4,0-7.9-2.2-10-5.9c-7.6-13.9-7.3-30.5-7.2-32.3c0.2-6.2,5.2-11,11.4-11c0.1,0,0.2,0,0.4,0
			c6.3,0.2,11.2,5.4,11,11.7c-0.1,3.3,0.6,13.6,4.5,20.8c3,5.5,1,12.4-4.6,15.4C1329.9,379.1,1328.1,379.5,1326.2,379.5z"/>
		<path class="st0" d="M1335.8,760.2c11.8,6.8,9.7,16.8,9.5,23.9c-0.2,7.1-41.9,33.5-58.7,29.2c-16.8-4.3-6.4-27.5,11-42.6
			C1315,755.6,1324.5,753.7,1335.8,760.2z"/>
		<path class="st7" d="M1334.8,762.2c8.5,4.9,9.3,12.1-3.2,18.7c-8.2,4.3-18.5,2.1-23.5-2.7c-8-7.8,1-13.2,2.3-14.3
			C1314.2,760.8,1323,755.3,1334.8,762.2z"/>
		<path class="st0" d="M1337.9,751.6c0.3,13.3,0.2,17.1,0,18.7c-0.2,1.7-9.1,15.3-25.3,6.9c-16.2-8.4,15.9-20.5,15.9-20.5
			L1337.9,751.6z"/>
		<path class="st7" d="M1290.3,810.2c23.8-2.3,47.3-21.6,55.2-30.3v0c-0.1,1.5-0.2,2.9-0.2,4.3c-0.2,7.1-41.9,33.5-58.7,29.2
			c-6.9-1.8-9.2-6.7-8.3-12.9C1278.2,801,1278.3,811.3,1290.3,810.2z"/>
		<path class="st7" d="M1303.2,794.1c-0.7,0-1.3-0.5-1.4-1.2l-3.2-16.9c-0.1-0.8,0.4-1.5,1.1-1.7c0.8-0.1,1.5,0.4,1.7,1.1l3.2,16.9
			c0.1,0.8-0.4,1.5-1.1,1.7C1303.4,794,1303.3,794.1,1303.2,794.1z"/>
		<path class="st7" d="M1310.8,785.8C1310.8,785.8,1310.8,785.8,1310.8,785.8l-18.9-1.2c-0.8,0-1.4-0.7-1.3-1.5s0.7-1.4,1.5-1.3
			l18.8,1.2c0.8,0,1.4,0.7,1.3,1.5C1312.2,785.3,1311.6,785.8,1310.8,785.8z"/>
		<path class="st0" d="M1381.6,791c11.8,6.8,9.7,16.8,9.5,23.9c-0.2,7.1-41.9,33.5-58.7,29.2c-16.8-4.3-6.4-27.5,11-42.6
			C1360.8,786.3,1370.3,784.4,1381.6,791z"/>
		<path class="st7" d="M1380.7,792.9c8.5,4.9,9.3,12.1-3.2,18.7c-8.2,4.3-18.5,2.1-23.5-2.7c-8-7.8,1-13.2,2.3-14.3
			C1360,791.5,1368.8,786.1,1380.7,792.9z"/>
		<path class="st0" d="M1383.8,782.3c0.3,13.3,0.2,17.1,0,18.7c-0.2,1.7-9.1,15.3-25.3,6.9c-16.2-8.4,15.9-20.5,15.9-20.5
			L1383.8,782.3z"/>
		<path class="st6" d="M1297.8,454.4c-7.3,0-13.3-3.3-16.3-9.1c-4-7.7-2.4-17.7,5.3-32.7c4.5-8.7,9.6-16.1,9.8-16.4
			c3.6-5.2,10.7-6.4,15.8-2.9c5.2,3.6,6.4,10.7,2.9,15.8c-3.9,5.6-7.6,12.1-10,17.4c2.4-2.4,5.3-5.8,8.8-10.9
			c7.5-10.9,14.2-24.2,18.7-33.1c1.1-2.2,2.1-4.1,2.9-5.7c2.9-5.6,9.8-7.7,15.3-4.8c5.6,2.9,7.7,9.8,4.8,15.3
			c-0.8,1.5-1.7,3.3-2.8,5.4c-14.9,29.7-32.8,61.4-55.2,61.5C1297.9,454.4,1297.9,454.4,1297.8,454.4z"/>
		<path class="st8" d="M1371.5,794.8c-0.4,0-0.7,0-1.1,0c-11-0.6-19.4-10-18.8-20.9c0.1-1,5.2-98.6,5.2-134.4
			c0-27,2.8-63.9,4.5-83.2l-6.1-3.5c-8.9,25.1-19.8,60.7-19.8,80.6c0,35.2,9.2,111.5,9.3,112.3c1.3,10.9-6.5,20.8-17.4,22.1
			c-10.9,1.3-20.8-6.5-22.1-17.4c-0.4-3.2-9.6-79.5-9.6-117.1c0-39.5,27.6-109.2,30.8-117c2.2-5.3,6.5-9.5,12-11.4
			c5.4-1.9,11.4-1.3,16.4,1.6l37.4,21.6c6.8,3.9,10.6,11.4,9.9,19.1c-0.1,0.6-5.4,56.8-5.4,92.1c0,36.9-5.1,132.5-5.3,136.6
			C1390.8,786.6,1382,794.8,1371.5,794.8z"/>
		<path class="st0" d="M1410.1,403.6c19.4,45.1-2.1,131-6.3,146.6c-3.4,12.6-53.5-12.8-73-23.2c-4.4-2.4-6.7-7.4-5.6-12.3
			c2.6-11,3.8-31.2,6.2-62.8c1.3-16.6,4.5-67.5,10.2-82.3C1348.9,350.6,1389.2,355,1410.1,403.6z"/>
		<path class="st9" d="M1410.4,414.8c1.8,20.4-8.1,73.6-25.7,91.6c-17.6,18-40.2,13.4-58,0.2l1.8-17.1h40.2l24.3-37L1410.4,414.8z"
			/>
		<path class="st6" d="M1351.2,505.6c-16.5,0-34.9-11.9-57.1-36.9c-3.7-4.1-3.3-10.4,0.8-14.1c4.1-3.7,10.4-3.3,14,0.8
			c24.3,27.3,37.9,31.4,45,29.9c14.1-2.9,23.8-31.3,32.3-56.4c1.4-4,2.7-8,4.1-11.9c1.8-5.2,7.5-7.9,12.7-6.1
			c5.2,1.8,7.9,7.5,6.1,12.7c-1.4,3.9-2.7,7.8-4,11.7c-10.8,31.7-21.9,64.4-47.2,69.5C1355.7,505.4,1353.5,505.6,1351.2,505.6z"/>
		<path class="st0" d="M1375.5,458.4c2.9-2.6,17.5,1.2,17.3,10.3c0,0,22.4-48.3,16.6-57.7c-8.5-13.8-17.6,2.2-18.4,4
			C1390.3,416.7,1375.5,458.4,1375.5,458.4z"/>
		<path class="st0" d="M1313,417.3c9.2-0.6,17.2,13.5,16,16.8c0,0,38.1-41,26.1-65.2c-7.2-14.6-17.2,0.8-22.6,13.3
			C1329.7,388.6,1313,417.3,1313,417.3z"/>
		<path class="st6" d="M1306,414.1c-2,0-4.1-0.5-5.9-1.7c-5.4-3.3-7-10.3-3.7-15.6l23.1-37.6c3.3-5.4,10.3-7,15.6-3.7
			c5.4,3.3,7,10.3,3.7,15.6l-23.1,37.6C1313.6,412.2,1309.8,414.1,1306,414.1z"/>
		<path class="st6" d="M1370.2,360.6c7.3,3.5,10.9,15.6,0.1,24c-10.8,8.4-32.1-4-19.6-19.5C1357.7,356.6,1365.7,358.5,1370.2,360.6z
			"/>
		<path class="st7" d="M1309.6,370.2l16,6c1.7,0.6,3.5-0.2,4.2-1.9l14.2-37.6c0.6-1.7-0.2-3.5-1.9-4.2l-16-6
			c-1.7-0.6-3.5,0.2-4.2,1.9l-14.2,37.6C1307,367.7,1307.9,369.6,1309.6,370.2z"/>
		<path class="st10" d="M1311.8,370.9l16,6c1.7,0.6,3.5-0.2,4.2-1.9l14.2-37.6c0.6-1.7-0.2-3.5-1.9-4.2l-16-6
			c-1.7-0.6-3.5,0.2-4.2,1.9l-14.2,37.6C1309.3,368.4,1310.1,370.2,1311.8,370.9z"/>
		<path class="st0" d="M1315.8,364.3l13.2,5c1.7,0.6,3.5-0.2,4.2-1.9l10.4-27.7c0.6-1.7-0.2-3.5-1.9-4.2l-13.2-5
			c-1.7-0.6-3.5,0.2-4.2,1.9l-10.4,27.7C1313.3,361.8,1314.2,363.7,1315.8,364.3z"/>
		<path class="st11" d="M1319.6,369.8c-0.5,1.1-0.2,2.4,0.6,2.7c0.8,0.4,1.9-0.3,2.4-1.4c0.5-1.1,0.2-2.4-0.6-2.7
			C1321.1,368,1320.1,368.6,1319.6,369.8z"/>
		<path class="st11" d="M1326.1,328.3c-0.3,0.6-0.1,1.2,0.3,1.4s1-0.1,1.2-0.7c0.3-0.6,0.1-1.2-0.3-1.4
			C1326.9,327.4,1326.3,327.7,1326.1,328.3z"/>
		<path class="st6" d="M1360.6,384.6c-5.3,0-10.1-3.8-11.1-9.2l-4.7-23.9c-1.2-6.2,2.8-12.1,9-13.4c6.2-1.2,12.1,2.8,13.4,9
			l4.7,23.9c1.2,6.2-2.8,12.1-9,13.4C1362.1,384.5,1361.3,384.6,1360.6,384.6z"/>
		<circle class="st6" cx="1355.1" cy="330.3" r="34.7"/>
		<path class="st12" d="M1396,327.1c0-2.1-1-4-2.5-5.2c0.1-0.5,0.2-1,0.2-1.5c0-2.7-1.6-5.1-3.9-6.1c0.6-1,0.9-2.1,0.9-3.4
			c0-3.7-3-6.7-6.7-6.7c0-3.7-3-6.7-6.7-6.7c-0.7,0-1.4,0.1-2.1,0.3c-1-2.5-3.4-4.3-6.2-4.3c-0.9,0-1.8,0.2-2.6,0.5
			c-1.2-2-3.3-3.3-5.8-3.3c-1.2,0-2.4,0.3-3.3,0.9c-1-0.6-2.1-0.9-3.3-0.9c-2.7,0-5,1.6-6.1,3.8c-1-0.7-2.3-1.1-3.6-1.1
			c-1.8,0-3.4,0.7-4.6,1.9c-0.7-0.2-1.3-0.3-2.1-0.3c-3.2,0-5.9,2.3-6.6,5.3c-0.5-0.1-1-0.2-1.5-0.2c-3.7,0-6.7,3-6.7,6.7
			c0,0.2,0,0.4,0,0.7c-2.3,1.1-3.8,3.4-3.8,6c0,1.1,0.3,2.2,0.8,3.1c-3.1,0.6-5.5,3.3-5.5,6.6c0,1.6,0.5,3,1.5,4.2
			c-0.9,1.1-1.5,2.6-1.5,4.2c0,3.4,2.5,6.2,5.7,6.6c1,1.6,2.6,2.8,4.5,3.1c2.1,1.9,4.9,3.1,7.9,3.1c1.6,0,3.1-0.3,4.5-0.9
			c1.6,2.3,4.3,3.8,7.4,3.8c1.5,0,2.9-0.4,4.2-1c1.2,1.7,3.2,2.9,5.5,2.9c2.7,0,4.9-1.6,6-3.8c0.9,0.5,1.9,0.7,3,0.7
			c3.5,0,6.3-2.6,6.7-6c0.3,0,0.6,0.1,0.9,0.1c1.6,0,3-0.5,4.2-1.5c0.9,0.3,1.8,0.6,2.8,0.7c0,0.3-0.1,0.7-0.1,1
			c0,1.5,0.5,2.9,1.3,4c-0.1,0.5-0.2,1.1-0.2,1.7c0,3.7,3,6.7,6.7,6.7s6.7-3,6.7-6.7c0-1.5-0.5-2.9-1.3-4c0.1-0.3,0.1-0.6,0.2-0.9
			c3-0.7,5.3-3.3,5.3-6.5c0-1.5-0.5-2.8-1.3-3.9C1395.5,329.9,1396,328.5,1396,327.1z"/>
		<circle class="st6" cx="1374.3" cy="342.6" r="6.7"/>
		<path class="st6" d="M1299.3,470.9c-2.7,0-5.4-1-7.6-2.9c-0.9-0.8-1.7-1.5-2.5-2.2c-7.9-7.1-16.9-15.1-12.1-27
			c2.2-5.5,5.9-8.6,7-9.4c5-3.8,12.1-2.9,15.9,2.1c3.1,4.1,3.1,9.6,0.2,13.6c1.2,1.2,2.8,2.5,4.1,3.7c0.8,0.7,1.7,1.5,2.6,2.3
			c4.7,4.2,5,11.4,0.8,16.1C1305.5,469.6,1302.4,470.9,1299.3,470.9z M1297.9,447.3C1297.9,447.3,1297.9,447.3,1297.9,447.3
			C1297.9,447.3,1297.9,447.3,1297.9,447.3z M1297.9,447.3C1297.9,447.3,1297.9,447.3,1297.9,447.3
			C1297.9,447.3,1297.9,447.3,1297.9,447.3z"/>
		<circle class="st13" cx="1374.3" cy="342.6" r="3.9"/>
		<path class="st7" d="M1336.2,840.9c23.8-2.3,47.3-21.6,55.2-30.3v0c-0.1,1.5-0.2,2.9-0.2,4.3c-0.2,7.1-41.9,33.5-58.7,29.2
			c-6.9-1.8-9.2-6.7-8.3-12.9C1324.1,831.7,1324.1,842.1,1336.2,840.9z"/>
		<path class="st7" d="M1349,824.8c-0.7,0-1.3-0.5-1.4-1.2l-3.2-16.9c-0.1-0.8,0.4-1.5,1.1-1.7c0.8-0.2,1.5,0.4,1.7,1.1l3.2,16.9
			c0.1,0.8-0.4,1.5-1.1,1.7C1349.2,824.8,1349.1,824.8,1349,824.8z"/>
		<path class="st7" d="M1356.7,816.6C1356.7,816.6,1356.6,816.6,1356.7,816.6l-18.9-1.2c-0.8,0-1.4-0.7-1.3-1.5
			c0-0.8,0.7-1.4,1.5-1.3l18.8,1.2c0.8,0,1.4,0.7,1.3,1.5C1358.1,816,1357.4,816.6,1356.7,816.6z"/>
	</g>
	<g>
		<path class="st3" d="M1140.8,528.3l0.2,1.3l36.4-21c14.1-8.1,31.4-8.1,45.4,0l49.7,28.7l-0.5-13.2l21.8-2.9v99.6
			c0,4.4-2.2,8.8-6.5,11.3l-64.4,37.2c-14.1,8.1-31.4,8.1-45.4,0L1113,632c-4.3-2.5-6.5-6.9-6.5-11.3v-99.6L1140.8,528.3z"/>
		<path class="st0" d="M1113,532.4l64.4,37.2c14.1,8.1,31.4,8.1,45.4,0l64.4-37.2c8.7-5,8.7-17.5,0-22.5l-64.4-37.2
			c-14.1-8.1-31.4-8.1-45.4,0l-64.4,37.2C1104.3,514.9,1104.3,527.4,1113,532.4z"/>
		<path class="st14" d="M1041.8,680.5c-0.4-1-8.9-25.9-12.9-57.5c-5.7-44.7,0.2-80.2,17.4-105.4c19.8-29,59.5-30.7,94.4-32.3
			c11-0.5,21.4-0.9,29.8-2.2c9.7-1.5,12-3.5,12.1-3.5c-0.1,0.1-0.5,0.5-0.7,1.1L1219,495c-5.1,13.3-17.1,22.1-35.5,26.2
			c-12.2,2.7-26.2,3.3-41.1,4c-24.4,1.1-54.7,2.4-63.3,15c-23.9,34.9-7.9,103.8,0.3,127.4L1041.8,680.5z"/>
		<path class="st14" d="M1143.9,727.6c-7.6,0-14.8-4.3-18.1-11.6c-0.5-1.1-12-26.5-19.1-58.8c-10.1-46.2-6.3-82.6,11.3-108.4
			c18.6-27.2,48.2-33.1,71.9-37.8c12.7-2.5,27-5.4,29-10.5c4-10.3,15.5-15.4,25.7-11.4c10.3,4,15.4,15.5,11.4,25.7
			c-9.8,25.5-35.6,30.7-58.3,35.2c-19.2,3.8-37.4,7.5-46.8,21.3c-23.2,33.9,0.9,105.7,11.2,128.2c4.6,10,0.2,21.8-9.8,26.4
			C1149.5,727.1,1146.7,727.6,1143.9,727.6z"/>
		<path class="st15" d="M1080.6,493.6c4.3,1.6,4.3,3.7,4.3,8.9c0,5.1-11.1,25-24.5,30.7s-22.7,0.3-22.7,0.3s9-20.3,13.1-22.8
			C1054.9,508.2,1080.6,493.6,1080.6,493.6z"/>
		<path class="st15" d="M1154.4,485c19.8,6.8,67.4,38.1,60.4,61.1c0,0,23.3-4.1,29.4-13.6c6.2-9.5-44.9-43.6-44.9-43.6l-28.6-4
			H1154.4z"/>
		<path class="st16" d="M1067.1,513.5c-1.1,0-2.2-0.2-3.4-0.6c-5.2-1.9-7.9-7.6-6-12.7c1.1-3,26.7-73.1,81.7-107.6
			c4.7-2.9,10.8-1.5,13.7,3.1c2.9,4.7,1.5,10.8-3.1,13.7c-49.2,30.8-73.3,96.8-73.5,97.4C1075,511,1071.2,513.5,1067.1,513.5z"/>
		<path class="st16" d="M1040.4,529.9c-3.2,0-6.4-1.4-8.7-4c-4.1-4.8-3.5-12,1.3-16c18-15.3,28.7-16.8,31.5-16.9l0.8,22.7
			c0,0,0.3,0,0.8-0.1c-0.1,0-6.3,1.2-18.5,11.6C1045.6,529,1043,529.9,1040.4,529.9z"/>
		<path class="st16" d="M1060.1,527.9c-0.7,0-1.4-0.2-2-0.6c-1.5-1.1-1.8-3.2-0.7-4.6l10.1-13.8c1.1-1.5,3.2-1.8,4.6-0.7
			c1.5,1.1,1.8,3.2,0.7,4.6l-10.1,13.8C1062.1,527.4,1061.1,527.9,1060.1,527.9z"/>
		<path class="st17" d="M1261.4,405.4c-9.6-46.7-81-46.9-97.2-34.8c-16.2,12.1-18.6,13.7-24.8,17.9c-10.3,6.8,0.3,32.6,13.5,26.6
			c3.4-1.5,4.6-6,8.8,10.2c14.9,56.9-17.6,59.8-17.6,59.8c10.5-0.1,23.6,8.1,48.4,22.5c24.9,14.4,44.5,34.6,42.1,50.6
			c-0.2,1.5,51.9-20.8,28.9-141.9C1262.9,413,1262.1,408.9,1261.4,405.4z"/>
		<path class="st16" d="M1210.8,372.3c14.9,4.4,11.9,19.8,1,28.7c-10.8,8.9-31.5,3.7-32.6-10.5
			C1178.4,379.9,1185.2,364.7,1210.8,372.3z"/>
		<path class="st12" d="M1187.3,321.9c4.5-12.2,8-14.7,19-17.3c11.1-2.5,30,8.4,24.6,16.1c-5.4,7.6-5,14.4,6.6,15.3
			c11.7,0.9,18.6,7.2,12,17c-6.6,9.8-10.6,13.5-18.6,5.9c-8-7.6-11.2,7.2-21.7,4.2c-10.5-3.1-9.1-21.9-13.1-27
			C1192.1,330.8,1187.3,321.9,1187.3,321.9z"/>
		
			<ellipse transform="matrix(0.1602 -0.9871 0.9871 0.1602 644.1128 1466.7836)" class="st16" cx="1184.1" cy="354.9" rx="34.2" ry="34.2"/>
		<path class="st17" d="M1191.3,317.2c-2.4,3.8,0.9,10.1,7.3,14.2c6.4,4,13.6,4.2,16,0.4c2.4-3.8-0.9-10.1-7.3-14.2
			C1200.9,313.5,1193.7,313.4,1191.3,317.2z"/>
		<path class="st12" d="M1215.1,371.2c-6.2,10.8-15.5-2.6-19.9-5.2c0,0-21.2,11.5-47.1-6.9c0,0-5.7-21.8,18.3-36.2
			c26.5-15.8,47.7,8,50.5,16.4C1218.3,343.2,1223.5,356.8,1215.1,371.2z"/>
		<g>
			<path class="st16" d="M1192.2,369.1c0-3.7,3-6.7,6.7-6.7s6.7,3,6.7,6.7c0,3.7-3,6.7-6.7,6.7S1192.2,372.8,1192.2,369.1z"/>
		</g>
		<path class="st18" d="M1194.9,369.1c0-2.2,1.8-4.1,4.1-4.1s4.1,1.8,4.1,4.1c0,2.2-1.8,4.1-4.1,4.1S1194.9,371.3,1194.9,369.1z"/>
		<path class="st12" d="M1195.6,377.5c0-1.9,1.5-3.4,3.4-3.4s3.4,1.5,3.4,3.4c0,1.9-1.5,3.4-3.4,3.4S1195.6,379.4,1195.6,377.5z"/>
		<path class="st19" d="M1241.4,436.5c0,36.1-15.6,62.5-41.1,51.4c-0.1,0-0.2-0.1-0.2-0.1c-25.6-11.4,24.2,33.3,24.2,33.3h18.7
			l10.8-39.3l-5.6-43.5L1241.4,436.5z"/>
	</g>
	<g>
		<path class="st10" d="M888.9,838.2c-5.1,2.3-10.4,7-10.4,14.6c0,6.3,6.7,15.6,26.6,35c20,19.4,26.3,4.3,26.3,4.3l-35.8-38.1
			L888.9,838.2z"/>
		<path class="st8" d="M914.7,841.9c0,0,22.9,36.7,18.6,47.4c-4.3,10.5-10.5,7.5-16.1,4.6c-5.6-2.8-33.8-30.4-35.1-41.8
			c-1.8-15.3,19.1-19.8,26-17.9C910.8,835,914.7,841.9,914.7,841.9z"/>
		<path class="st10" d="M920.2,855c0.3,6.6-5,7.2-9.2,6.8c-6.2-0.6-20.6-13.1-13.3-22.9C911.8,820.1,920.2,855,920.2,855z"/>
		<path class="st0" d="M919.1,856.8l12.6-14.6c4.5-5.1,3.9-12.9-1.3-17.4c-5.1-4.5-12.9-3.9-17.4,1.3l-11.3,12.3
			c-4.5,5.1-1.9,11.2,2.1,15.7C910.7,861.8,916.6,859.6,919.1,856.8z"/>
		<path class="st12" d="M922.4,854c-5.6,0-11.2-2.4-15.1-7c-7.1-8.4-6.1-20.9,2.2-28.1c19-16.3,45.3-47.7,44.2-66.5
			c-0.2-3.7-1.4-8.1-8.8-13c-37-24.9-75.8-33.1-76.2-33.2c-10.8-2.2-17.7-12.8-15.4-23.5c2.2-10.8,12.8-17.7,23.5-15.4
			c1.9,0.4,46.9,10,90.3,39.1c20.5,13.8,25.6,31.4,26.3,43.8c2.6,45.8-51.9,93.7-58.1,99C931.5,852.5,926.9,854,922.4,854z"/>
		<path class="st12" d="M993.1,920.2c-8,0-15.6-4.9-18.6-12.8c-9.2-24.2-38.5-92.6-62.6-117.9c-11.9-12.5-52.1-35.8-74.7-47.5
			c-9.7-5.1-13.5-17.1-8.5-26.8c5.1-9.7,17.1-13.5,26.8-8.5c6.6,3.4,64.7,34,85.1,55.4c34.6,36.3,69.5,127.3,71,131.2
			c3.9,10.3-1.2,21.8-11.5,25.7C997.8,919.8,995.4,920.2,993.1,920.2z"/>
		<path class="st12" d="M850.4,746.3c-2.8,0-5.6-0.6-8.3-1.7c-0.4-0.2-10.1-4.4-20.4-10c-18.4-10.1-27.3-18.1-30.6-27.7
			c-2.3-6.6-3.5-19.4,13.7-31.5c5.1-3.5,11.7-7.2,20.5-11.3c13.6-6.3,27.5-11.2,28.1-11.4c5.9-2.1,12.5-1.3,17.8,2.3
			c5.6,3.8,22.1,14.6,30,18.9c7.7,4.1,12.1,12.7,10.5,21.2c-1.6,8.5-8.2,14.9-16.8,16c-1.5,0.3-11.8,2.7-19.7,12.6
			c-1.5,1.8-3.2,3.4-5.2,4.6c-0.4,5.5-3.2,10.6-7.7,14.1C858.9,744.9,854.7,746.3,850.4,746.3z"/>
		<path class="st8" d="M848.9,567.4c-17.2,50.4,52.5,106.4,53.6,107c1,0.6-37.1-18.3-69.9,52.3c0,0-6.9,20.2-31.9,17
			c0,0-57.6-130.4-44.6-172.7c14.4-46.9,58.7-45.4,83.1-25.3C850.1,554.9,848.9,567.4,848.9,567.4z"/>
		<path class="st20" d="M767.9,601.3c0,0-0.7,52.7,8.8,63.4c9.5,10.7-7.5-4.8-7.7-5.5s-10.7-33.5-10.2-36.2L767.9,601.3z"/>
		<polygon class="st20" points="839.9,712.2 831.2,729.7 787,710.5 780.1,692.1 		"/>
		<path class="st8" d="M852.2,719c-0.8,0-1.6-0.1-2.3-0.2c-0.8-0.1-20.1-3.5-42.8-11.3c-31.7-11-53.8-25.1-65.7-42
			c-8.7-12.4-11.8-26-9.3-40.4c3.5-19.7,26.1-61,28.7-65.6c3.7-6.6,12-9.1,18.7-5.4c6.6,3.7,9.1,12,5.4,18.7
			c-8.8,16-23.6,45.7-25.7,57.2c-1.3,7.1,0.2,13.4,4.7,19.7c17.4,24.8,71.3,38.8,90.6,42.1c7.5,1.3,12.5,8.4,11.2,15.9
			C864.5,714.2,858.7,719,852.2,719z"/>
		<path class="st16" d="M802.3,535.5c14.7,3.5,18,21.9,9.8,34.2c-9,13.4-32.4,5.5-39.1-5.1c-6.7-10.6,1.3-18.5,3.5-20.1
			C778.7,542.9,790.3,532.6,802.3,535.5z"/>
		
			<ellipse transform="matrix(0.9089 -0.4169 0.4169 0.9089 -137.9077 382.5064)" class="st16" cx="806.8" cy="507" rx="34.2" ry="34.2"/>
		<path class="st16" d="M788.8,564.6c-1.3,0-2.7-0.2-4-0.7c-5.9-2.2-8.9-8.7-6.7-14.6l8.5-22.8c2.2-5.9,8.7-8.9,14.6-6.7
			c5.9,2.2,8.9,8.7,6.7,14.6l-8.5,22.8C797.8,561.8,793.4,564.6,788.8,564.6z"/>
		<path class="st12" d="M915.5,875.9c-0.2,0-0.5-0.1-0.7-0.2c-0.7-0.4-0.9-1.3-0.5-1.9l7.3-12.5c0.4-0.7,1.3-0.9,1.9-0.5
			c0.7,0.4,0.9,1.3,0.5,1.9l-7.3,12.5C916.5,875.6,916,875.9,915.5,875.9z"/>
		<path class="st12" d="M926.2,871c-0.1,0-0.2,0-0.3,0l-14.6-3.4c-0.8-0.2-1.2-0.9-1.1-1.7c0.2-0.8,0.9-1.2,1.7-1.1l14.6,3.4
			c0.8,0.2,1.2,0.9,1.1,1.7C927.5,870.6,926.9,871,926.2,871z"/>
		<path class="st17" d="M774.3,491.8c8.3-27.1,44.3-23.5,54.9-13.2c3.1,3,5.9,6.5,8.2,10.1l2.8-1.5c2.4,6.1,3.1,10.7,3.3,13.1h2.8
			c-0.9,7.8-3.3,11.5-3.3,11.5c-9.8,23-42.4,15.4-52.8,7.2c-2.4-1.9-8.9,10.7-8.9,10.7S767,515.7,774.3,491.8z"/>
		<path class="st16" d="M780.6,523c-1.5-3.4,0-7.3,3.4-8.9c3.4-1.5,7.3,0,8.9,3.4c1.5,3.4,0,7.3-3.4,8.9S782.1,526.4,780.6,523z"/>
		<path class="st18" d="M783.7,521.7c-0.8-1.7,0-3.7,1.7-4.4c1.7-0.8,3.7,0,4.4,1.7c0.8,1.7,0,3.7-1.7,4.4
			C786.4,524.1,784.4,523.3,783.7,521.7z"/>
		<path class="st0" d="M1002.3,929.7c-4.4,0-8.6-2.4-10.9-6.5l-6.1-11.4c-3.2-6-1-13.5,5-16.7c6-3.2,13.5-1,16.7,5l6.1,11.4
			c3.2,6,1,13.5-5,16.7C1006.3,929.2,1004.3,929.7,1002.3,929.7z"/>
		<path class="st20" d="M1006.8,909.8c-0.5-4.7-8.9-2.5-11.1-0.8c-2.1,1.7-5.9,6.1-3.2,8.2C995.2,919.2,1006.8,909.8,1006.8,909.8z"
			/>
		<path class="st8" d="M1030.7,933.9c-3.5-6.8-6-14.3-17.1-23.1c-7.6-6.1-28.6,3.2-22.9,21.3c5.7,18.1,8.5,19.7,8.5,19.7
			L1030.7,933.9z"/>
		<path class="st10" d="M1033.3,937.8c0,0-1.3-3.3-2.6-3.9c-1.4-0.7-24.7,9.5-32.2,16.8c-0.8,0.8,2,4.4,2,4.4L1033.3,937.8z"/>
		<path class="st20" d="M1028.6,938.6c-16.2,8.3-15.3,7.7-22.1,11.7c-6.8,3.9-10.7,7.7,3.2,1.7
			C1039.9,939.1,1034.8,935.4,1028.6,938.6z"/>
		<path class="st12" d="M995.2,925c-0.4,0-0.8-0.2-1.1-0.5c-0.5-0.6-0.5-1.5,0.1-2l12.9-11.3c0.6-0.5,1.5-0.5,2,0.1
			c0.5,0.6,0.5,1.5-0.1,2l-12.9,11.3C995.9,924.9,995.6,925,995.2,925z"/>
		<path class="st12" d="M993.8,920.8c-0.7,0-1.2-0.5-1.4-1.1c-0.2-0.8,0.3-1.5,1.1-1.7l17-3.6c0.8-0.2,1.5,0.3,1.7,1.1
			c0.2,0.8-0.3,1.5-1.1,1.7l-17,3.6C994,920.8,993.9,920.8,993.8,920.8z"/>
		<path class="st16" d="M882.2,735.7c-4.4,0-8.6-2.6-10.4-6.8c-2.6-6-3.9-9-15.9-10.2c-6.3-0.6-10.8-6.2-10.2-12.4
			c0.6-6.3,6.2-10.8,12.4-10.2c20.9,2,28.9,11,34.5,23.7c2.5,5.8-0.1,12.5-5.9,15C885.2,735.4,883.7,735.7,882.2,735.7z"/>
		<path class="st16" d="M860.4,703.6c-1.7,0-3.1-1.3-3.3-3c-0.2-1.8,1.2-3.4,3-3.6l12.8-1.3c1.8-0.2,3.4,1.2,3.6,3
			c0.2,1.8-1.2,3.4-3,3.6l-12.8,1.3C860.6,703.6,860.5,703.6,860.4,703.6z"/>
	</g>
	<g>
		<path class="st3" d="M898.7,663.2c2.3-5,6.2-9.4,11.6-12.6l228.9-132.2c25.2-14.5,56.2-14.5,81.4,0l135,78
			c5.8,3.3,9.8,8.2,12,13.6h2.2v10.7h0c0.1,9.8-4.6,19.6-14.3,25.1l-228.9,132.2c-25.2,14.5-56.2,14.5-81.4,0l-135-78
			c-9.5-5.5-14.3-15.1-14.3-24.7v-12.2H898.7z"/>
		<path class="st0" d="M1220.7,506.8l135,78c19,11,19,38.5,0,49.5l-228.9,132.2c-25.2,14.5-56.2,14.5-81.4,0l-135-78
			c-19-11-19-38.5,0-49.5l228.9-132.2C1164.4,492.3,1195.5,492.3,1220.7,506.8z"/>
		<polygon class="st8" points="1091.4,561.7 1155.1,598.5 1071.8,646.6 1008.1,609.8 		"/>
	</g>
	<g>
		<path class="st0" d="M1137.1,1000.8c-1.9,9.7-4.6,13.6-11,14.6c-6.3,1.1-28.1-1.8-54.2-25.3c-3.6-3.2-6.8-11.7-0.8-21.3
			c6-9.6,36,29,36,29L1137.1,1000.8z"/>
		<path class="st19" d="M1071.4,968.4c-3.3,5.4-2,14.6,5.3,20.3c35,27.1,56.7,25.4,59.4,16c3.6-12.3,4.8-28.2-4.5-32.5
			c-14.3-6.5-37.1-11.2-53.6-7.5C1076,965.1,1072.4,966.7,1071.4,968.4z"/>
		<path class="st16" d="M1227.5,692.8c-4.5,0-8.5-3-9.7-7.6c-0.1-0.3-6.6-26.6-14.8-51c-1.8-5.2,1-10.9,6.3-12.6
			c5.2-1.8,10.9,1,12.6,6.3c8.5,25.3,15,51.5,15.3,52.6c1.3,5.3-2,10.7-7.3,12C1229,692.7,1228.2,692.8,1227.5,692.8z"/>
		<path class="st7" d="M1134,977.6c2.7,5.1,5.1,15.3-3.5,18.9c-8.6,3.6-22.1,0.2-27.9-8.6c-4.9-7.5-4.3-10.5,0.1-20.1L1134,977.6z"
			/>
		<g>
			<path class="st21" d="M1123.4,844.4l0.2,1.3l36.4-21c14.1-8.1,31.4-8.1,45.4,0l49.7,28.7l-0.5-13.2l21.8-2.9v99.6
				c0,4.4-2.2,8.8-6.5,11.3l-64.4,37.2c-14.1,8.1-31.4,8.1-45.4,0l-64.4-37.2c-4.3-2.5-6.5-6.9-6.5-11.3v-99.6L1123.4,844.4z"/>
			<path class="st0" d="M1095.6,848.6l64.4,37.2c14.1,8.1,31.4,8.1,45.4,0l64.4-37.2c8.7-5,8.7-17.5,0-22.5l-64.4-37.2
				c-14.1-8.1-31.4-8.1-45.4,0l-64.4,37.2C1086.9,831.1,1086.9,843.6,1095.6,848.6z"/>
			<path class="st22" d="M1244.9,862.9l-32.5,18.8c0,0-54.7-34.6-62.4-40.9c-7.8-6.3-9-22.3,2.7-23.8
				C1164.4,815.5,1244.9,862.9,1244.9,862.9z"/>
			<path class="st19" d="M1190,851.4c-3.6,0-7.3-1-10.6-3.1c-0.2-0.1-5.3-3.3-16.1-10.7c-8.6-5.9-18.1-17.8-14.6-41.1
				c1.7-11.3,6-22.8,9.8-32.9c2-5.3,4.6-12.5,4.9-14.9c0.1-1.3,0.3-2.7,0.4-4c1.3-13.1,2.2-21.7-5.9-37.3
				c-5.1-9.7-1.3-21.8,8.5-26.8c9.7-5.1,21.8-1.3,26.8,8.5c13.6,26.1,11.7,44.7,10.2,59.7c-0.1,1.3-0.3,2.5-0.4,3.8
				c-0.7,7.3-3.7,15.5-7.2,24.9c-2.8,7.4-8.3,22.3-8.1,28.6c8.7,6,12.9,8.6,12.9,8.6c9.3,5.9,12.1,18.2,6.2,27.4
				C1203,848.1,1196.6,851.4,1190,851.4z"/>
			<path class="st16" d="M1231.7,868.4c-2.3,0-4.6-0.6-6.7-1.9l-38.5-22.8c-6.3-3.7-8.4-11.9-4.7-18.2c3.7-6.3,11.9-8.4,18.2-4.7
				l38.5,22.8c6.3,3.7,8.4,11.9,4.7,18.2C1240.7,866,1236.2,868.4,1231.7,868.4z"/>
			<path class="st0" d="M1269.3,894.6c-2.8,0-5.7-0.8-8.3-2.3l-34.1-20.6c-7.6-4.6-10-14.5-5.4-22.1c4.6-7.6,14.5-10,22.1-5.4
				l34.1,20.6c7.6,4.6,10,14.5,5.4,22.1C1280.1,891.9,1274.8,894.6,1269.3,894.6z"/>
			<path class="st19" d="M1283.4,857.9c-7.3-2.9-19.7-8.1-27.1-4.3c-7.3,3.8-9.4,14.5-7.7,21.9c1.7,7.4,9.2,44.8,15.6,50.5
				c7.8,7,17.2,6.1,17.2,6.1L1283.4,857.9z"/>
			<path class="st0" d="M1278.7,858.4c-12.3,7.1-13,17-12.3,29.4c0.6,11.1,6.5,43.4,13.5,44.6c1,0.2,4.8,0.9,6.2,0.7
				c6-0.9,6.2-38.9,4.8-50c-1-7.5,2.6-22.1-2.8-24.2C1285.6,857.9,1281.6,856.7,1278.7,858.4z"/>
			<path class="st10" d="M1283.4,859.3c-12.3,7.1-13,17-12.3,29.4c0.7,12.3,6.6,50.7,17,43.5c12.3-8.6,8.9-37.1,7.4-48.2
				C1294,872.8,1292.5,854.1,1283.4,859.3z"/>
		</g>
		<g>
			<path class="st0" d="M1121.8,995.1c8.9-0.2,13.2-2.6,13-11.5l-0.8-28.4c-0.2-8.9-7.6-15.9-16.5-15.7c-8.9,0.2-15.9,7.6-15.7,16.5
				l0.6,21.3C1102.6,986.2,1111,993.7,1121.8,995.1z"/>
		</g>
		<path class="st16" d="M1118,967.4c-7.3,0-13.3-5.9-13.3-13.3l-0.1-72.7c0-7.3,5.9-13.3,13.3-13.3c0,0,0,0,0,0
			c7.3,0,13.3,5.9,13.3,13.3l0.1,72.7C1131.3,961.5,1125.3,967.4,1118,967.4C1118,967.4,1118,967.4,1118,967.4z"/>
		<path class="st19" d="M1118.1,907.1c-10.8,0-19.6-8.6-19.9-19.4c-2.1-90.3,13.8-120.4,25.3-142.4c5.4-10.2,8.1-15.4,7.8-25.4
			c-0.3-11,8.4-20.1,19.4-20.4c0.2,0,0.4,0,0.5,0c10.7,0,19.6,8.6,19.9,19.4c0.6,20.5-6,33-12.4,45.1
			c-9.5,18.1-22.6,42.9-20.8,122.9c0.3,11-8.5,20.1-19.4,20.4C1118.4,907.1,1118.2,907.1,1118.1,907.1z"/>
		<path class="st23" d="M1200.3,704.3c0.3,1.1,2.3,12.8,2.7,15c0.3,2.3-42.4,39.9-62.3,41.4c-18.4,1.4-23.5-3-23.5-3l16.9-34.8
			L1200.3,704.3z"/>
		<path class="st14" d="M1106.5,561c-25.6,30.6,4.2,80.9,5.8,130.3c1.6,49.4,0,54.1,0,54.1s0.6,8.5,24.3,7.2
			c23.8-1.3,74.7-42.4,74.1-56.6s-26.1-158.7-58-158.7C1128,537.3,1106.5,561,1106.5,561z"/>
		<path class="st15" d="M1149.7,532.1c2.1,4.7,4.4,9.6,5.3,18.6s-8.2,14.1-20.2,11.5s-22.9-4.2-31.5,3.2l-3.9-16.6L1149.7,532.1z"/>
		<path class="st14" d="M1136.4,525.4c17.9-1.5,24.2,23-16.6,28.4S1107.4,527.8,1136.4,525.4z"/>
		<path class="st17" d="M997.4,664.1c-3.8-4.3-5.6-9.6-6.3-12.4c0,0,1.9,2.2,13,0.6c12.6-1.8,32.7-11.3,32.7-11.3l38.6,43.8
			l-46.5,15.4L997.4,664.1z"/>
		<path class="st16" d="M1012.6,684.9c-4.3,0-8.3-2.8-9.6-7.2c-1.5-5.3,1.5-10.8,6.8-12.3l52.4-15c5.3-1.5,10.8,1.5,12.3,6.8
			c1.5,5.3-1.5,10.8-6.8,12.3l-52.4,15C1014.4,684.7,1013.5,684.9,1012.6,684.9z"/>
		<path class="st12" d="M1133.4,529.1c13.4-1.1,18,17.1-12.4,21.1C1090.7,554.2,1111.9,530.9,1133.4,529.1z"/>
		<path class="st14" d="M1061.1,675.9c-5.5,0-10.6-3.3-12.8-8.7c-2.8-7.1,0.7-15,7.7-17.8c18.3-7.2,23.2-9.2,39.8-66.6
			c2.1-7.3,9.7-11.5,17-9.4c7.3,2.1,11.5,9.7,9.4,17c-17.3,59.8-25.7,72.5-56.1,84.5C1064.5,675.6,1062.8,675.9,1061.1,675.9z"/>
		<path class="st14" d="M1212.4,644.7c-5.9,0-11.3-3.8-13.1-9.6c-1.7-5.4-8.1-15.5-28.8-32.6c-0.9-0.7-1.5-1.3-2-1.7
			c-7-6-6.3-14-2.8-19c3.6-5,11-7.9,18.4-3.8c0.4,0.2,1.1,0.6,2,1.2c1.7,1,3.1,2.4,4.1,3.9c13.2,11.1,30.1,27.1,35.3,43.8
			c2.3,7.2-1.8,15-9,17.2C1215.2,644.5,1213.8,644.7,1212.4,644.7z"/>
		<path class="st16" d="M1116.7,513.1l17.1,33.3c0.1,0.2,0.2,0.4,0.2,0.6c-3.3,1.4-7.6,2.6-13,3.3c-2.9,0.4-5.3,0.5-7.3,0.4
			l-14.4-27.6C1103,519.2,1109.5,515.2,1116.7,513.1z"/>
		<circle class="st16" cx="1109.1" cy="510" r="34.2"/>
		<path class="st12" d="M1073.8,498.2c-3.7,15.3-0.8,15.7,4,20.3s18,6.1,28.1-1.7c0,0-2.8,18.6,15.9,27.5c18.7,8.8,9.9,18,0.3,28.3
			c-9.5,10.2-10.5,32.2,5.1,37.9c15.7,5.7,26.8,11.1,35.3,26.5c8.5,15.4,49.6-0.1,54.3-28.6c3.5-21.6-9.3-31.1-26.8-36.8
			c-17.5-5.7-4-32.3-14.8-44c-10.8-11.7-19.1-7.3-20.5-22.9c-1.4-15.6-24.7-33.8-45.6-31.7C1088.2,475,1074.9,493.6,1073.8,498.2z"
			/>
		<path class="st16" d="M1097,522.9c0-4,3.2-7.2,7.2-7.2s7.2,3.2,7.2,7.2c0,4-3.2,7.2-7.2,7.2S1097,526.9,1097,522.9z"/>
		<circle class="st18" cx="1104.2" cy="522.9" r="4.5"/>
		<path class="st16" d="M1003.2,687.1c-11.9,0-23.7-5.9-27.9-14.8c-2.7-5.7-0.2-12.5,5.5-15.1c5.5-2.6,12.1-0.4,14.9,5
			c1.3,1.2,6.1,3.1,10.6,1.9c6.1-1.7,12.3,1.8,14,7.9c1.7,6-1.8,12.3-7.9,14C1009.4,686.7,1006.3,687.1,1003.2,687.1z"/>
		<path class="st16" d="M1007,671.9c-0.6,0-1.2-0.2-1.7-0.5c-1.7-1-7.1-4.7-7.3-9.2c-0.1-1.8,1.4-3.4,3.2-3.4
			c1.8-0.1,3.3,1.3,3.4,3.1c0.2,0.8,2.3,2.7,4.1,3.8c1.6,1,2,3,1.1,4.6C1009.2,671.4,1008.1,671.9,1007,671.9z M1004.6,662
			C1004.6,662,1004.6,662,1004.6,662L1004.6,662z"/>
		<path class="st16" d="M1245.5,701.5c-3.7,0-7.3-1.8-9.4-5c-1.7-0.7-5.5-1.5-8.4-1.8c-6.3-0.5-10.9-6-10.5-12.2
			c0.5-6.3,5.9-10.9,12.2-10.5c8.1,0.6,22.4,3.2,26.7,13.8c2.3,5.8-0.5,12.5-6.3,14.8C1248.4,701.3,1246.9,701.5,1245.5,701.5z
			 M1236.7,696.9L1236.7,696.9L1236.7,696.9z"/>
		<path class="st16" d="M1230.5,680.9c-1.3,0-2.5-0.7-3-2c-0.7-1.7,0-3.6,1.7-4.4l11.3-4.9c1.7-0.7,3.6,0,4.4,1.7
			c0.7,1.7,0,3.6-1.7,4.4l-11.3,4.9C1231.4,680.8,1230.9,680.9,1230.5,680.9z"/>
	</g>
	<path class="st12" d="M1184.1,529.6c-0.1,0-0.1,0-0.2,0c-0.8-0.1-1.3-0.8-1.2-1.6l4.6-35.7c0.1-0.8,0.8-1.3,1.6-1.2
		c0.8,0.1,1.3,0.8,1.2,1.6l-4.6,35.7C1185.4,529.1,1184.8,529.6,1184.1,529.6z"/>
	<path class="st16" d="M1236.6,537.9c-14,0-30.1-13.7-50.1-42.2c-3.1-4.5-2.1-10.7,2.5-13.9c4.5-3.2,10.7-2.1,13.9,2.5
		c24.3,34.7,34.2,33.6,34.3,33.6c0.1-0.1,13.6-7.6,3.2-89c-0.7-5.5,3.2-10.4,8.6-11.1c5.4-0.7,10.4,3.2,11.1,8.6
		c11.4,88.8-3.5,105.4-15.7,110.1C1241.8,537.4,1239.3,537.9,1236.6,537.9z"/>
	<path class="st16" d="M1174.5,507.3c-2.8,0-5.6-1-7.7-3.1c-4.6-4.3-4.8-11.5-0.5-16c2.8-3,9.3-6.8,24.5-8.2
		c6.3-0.5,11.7,4.1,12.3,10.3c0.5,6.2-4.1,11.7-10.3,12.3c-7.2,0.6-10.3,1.9-11.1,2.2C1179.4,506.4,1177,507.3,1174.5,507.3z
		 M1182.7,503.7C1182.7,503.7,1182.7,503.7,1182.7,503.7C1182.7,503.7,1182.7,503.7,1182.7,503.7z M1182.7,503.7
		C1182.7,503.7,1182.7,503.7,1182.7,503.7C1182.7,503.7,1182.7,503.7,1182.7,503.7z M1182.8,503.7
		C1182.7,503.7,1182.7,503.7,1182.8,503.7C1182.7,503.7,1182.7,503.7,1182.8,503.7z"/>
	<path class="st17" d="M1259,417.3c1.9,5.8,2.2,16.8,2.2,17.9c0,0-1.1-2-3.9-2.1c-5.7-0.3-15.4,1.9-15.9,8.4c0,0-9.1-23.6-5.1-29.8
		C1248.3,392.8,1257.2,411.7,1259,417.3z"/>
	<path class="st8" d="M937.8,670.8c-2.7,0-5.4-0.8-7.7-2.4c-1.2-0.8-30.9-21.5-109.3-101.8c-5.3-5.4-5.2-14.1,0.2-19.4
		c5.4-5.3,14.1-5.2,19.4,0.2c75.8,77.7,104.9,98.2,105.2,98.4c6.2,4.3,7.8,12.9,3.5,19.1C946.5,668.8,942.2,670.8,937.8,670.8z"/>
	<path class="st16" d="M968.1,690.3c-5.4,0-10.2-3.8-11.2-9.3c-0.4-1.2-4.7-7.2-18.1-10.7c-6.1-1.6-9.7-7.8-8.1-13.9
		c1.6-6.1,7.8-9.7,13.9-8.1c19,5,32.3,16,34.7,28.5c1.1,6.2-2.9,12.1-9.1,13.3C969.5,690.2,968.8,690.3,968.1,690.3z"/>
	<path class="st16" d="M945.5,680.1c-1.1,0-2.3-0.6-2.9-1.7l-7.5-13.1c-0.9-1.6-0.4-3.6,1.2-4.5c1.6-0.9,3.6-0.4,4.5,1.2l7.5,13.1
		c0.9,1.6,0.4,3.6-1.2,4.5C946.6,680,946,680.1,945.5,680.1z"/>
</g>
<path class="st2" d="M737.3,802.3C691.1,850.2,757.8,891,849,882c83.5-8.2,82.8,88.1,153.3,91.1s77-49.6,53.3-58.8
	c-23.7-9.2-100.2-28.4-110.8-49.4c-10.6-21-4.2-53.5-72.2-80.7C835.3,769.3,765.6,772.9,737.3,802.3z"/>
</svg>
