<?xml version="1.0" encoding="utf-8"?>
<!-- Generator: Adobe Illustrator 22.1.0, SVG Export Plug-In . SVG Version: 6.00 Build 0)  -->
<svg version="1.1" id="_x2014_ÎÓÈ_x5F_1" xmlns="http://www.w3.org/2000/svg" xmlns:xlink="http://www.w3.org/1999/xlink"
	 x="0px" y="0px" viewBox="0 0 1600 1200" style="enable-background:new 0 0 1600 1200;" xml:space="preserve">
<style type="text/css">
	.st0{opacity:0.15;fill:#004DBC;}
	.st1{fill:#0074FF;}
	.st2{fill:#004DBC;}
	.st3{fill:#B3F1FF;}
	.st4{fill:#1AD4FF;}
	.st5{fill:#00B1FF;}
	.st6{opacity:0.15;fill:#08217E;}
	.st7{opacity:0.2;fill:#0074FF;}
	.st8{fill:#08217E;}
	.st9{fill:#FF5F2B;}
	.st10{fill:#7A4515;}
	.st11{fill:#FFFFFF;}
	.st12{fill:#FFCBA5;}
	.st13{fill:#2E24EA;}
	.st14{fill:#FFB37C;}
	.st15{fill:#0A1B60;}
	.st16{fill:#75D0FD;}
	.st17{fill:#3F15A6;}
</style>
<g>
	<path class="st0" d="M653.4,1125.9l44.6-26.8l89.7,2.2c0,0-24.7,33.5-36.4,41.7c0,0-43.3-2.4-46.6-3.4
		C688.4,1134.9,653.4,1125.9,653.4,1125.9z"/>
	<g>
		<g>
			<g>
				<ellipse class="st1" cx="1188.3" cy="831.3" rx="28.8" ry="15.1"/>
				<ellipse class="st2" cx="1188.3" cy="837.7" rx="28.8" ry="15.1"/>
				<path class="st3" d="M1188.3,812c-20.3,0-36.7,8.6-36.7,19.2c0,10.6,16.4,19.2,36.7,19.2c20.3,0,36.7-8.6,36.7-19.2
					C1225,820.6,1208.5,812,1188.3,812z M1188.3,846.3c-15.9,0-28.8-6.8-28.8-15.1c0-8.3,12.9-15.1,28.8-15.1s28.8,6.8,28.8,15.1
					C1217,839.6,1204.2,846.3,1188.3,846.3z"/>
				<path class="st4" d="M1188.3,850.5c-20.3,0-36.7-8.6-36.7-19.2v128.6c0,10.6,16.4,19.2,36.7,19.2c20.3,0,36.7-8.6,36.7-19.2
					V831.3C1225,841.9,1208.5,850.5,1188.3,850.5z"/>
			</g>
		</g>
		<path class="st3" d="M1131.1,795.6c-15.1-1.1-2.9-32.7-26.3-33.8c-23.4-1.1-37,20.1-34.9,20.5c2.2,0.4,24.8-6.1,32,4.3
			c7.2,10.4,5,10.4,2.2,10.4s-28.4-17.6-41-11.5c0,0-14.4,13.3-15.1,21.9c0,0,23.4-15.5,35.6-9.4s9.4,12.7,2,12.9
			c-7.3,0.2-27.1-10.2-39.2,2.9c0,0-4.7,10.5-2.8,34.8c0,0,0.5,4.1-0.5,8.4c0,0,5.3-6.5,23.8,0c0,0,6.7,0.9,14.9-9.7
			c8.3-10.6,11.9-25.2,14.9-19.8c3.1,5.4-8.3,25-22.1,30.6h24.5c0,0,17.1-32.4,16.5-37.8c-0.5-5.5,4-4.8,3.6,0
			c-0.4,4.8-4.3,27.8-12,35.5c0,0,20.1-8.6,25-16.5c4.9-7.9,11.5-3.2,13.5-11.7S1146.6,796.7,1131.1,795.6z"/>
		<path class="st3" d="M1155.3,680.3c0,0,30.3,105.4,31.4,149.8c0.1,2.2,2.1,3.8,4.3,3.2l0,0c1.2-0.3,1.9-1.4,1.7-2.6
			c-2.4-14.2-17-97.6-33.2-152.8L1155.3,680.3z"/>
		<path class="st3" d="M1118.3,795.4c6.3-4.1,36.6-7.4,55.9-2.5c12.2,3.1,9.4,8.5,9.4,8.5l2.7,8.6c0,0-3-7-13.7-13.5
			c-9.1-5.6-40.6-3.6-52.1,1.1C1108.9,802.2,1118.3,795.4,1118.3,795.4z"/>
		<path class="st3" d="M1190.7,819c0,0,43-78.6,48.1-79c5-0.4,0-5.4,0-5.4s-50.5,71.7-50.5,79.8S1190.7,819,1190.7,819z"/>
		<path class="st3" d="M1237.8,731.8c-5.4-5.3-10.7-18-21.9-11.5c-11.2,6.6-11.9,30.2-7.8,40c0,0,5.1-9.2,10.1-11.9
			c5.1-2.7,17-7.3,8.9-0.5c-8.1,6.9-17.3,13.4-17.2,17.7c0.1,4.3,15.9,20.5,15.9,20.5s0.6-27.8,10.1-28.6c9.6-0.8-4.2,8.7-5.3,21.5
			c-0.6,7.1,0,10.6,0,10.6s24.6,11.9,22.5,18.1c0,0-0.5,4.2-2.1,6.4c-1.6,2.2,18.9-9.2,20.3-12.3c1.4-3.1-15.8-30.5-11.1-29.3
			c4.7,1.1,10.4,5.4,12.8,12.7c2.4,7.4,2.9,15.1,2.2,17.5s10.2-10.3,8-13.4c-2.3-3-13.4-21.4-24.8-29.5c-6.5-4.6-5.1-8.6-0.7-7.4
			c4.3,1.2,25.4,22.2,27.1,33.4c0,0,8.6-13.1,1.8-21.7c-6.8-8.5-30.2-18.2-29.1-20.9c1.1-2.7,19.5,5.8,28.6,17.8
			c9.1,12-2.9-35.9-28.1-35.6c0,0-7.1,1.2-14.8,6.3C1239.1,734.6,1237.8,731.8,1237.8,731.8z"/>
		<path class="st3" d="M1198.2,823.8c-5-3.6-10.1-15.4-20.1-3.7c-10,11.7-10,37.9-6.2,47c0,0,4.4-12.1,8.9-17.1
			c4.5-5,15.2-14.9,8-4.1c-7.2,10.8-15.3,21.6-15.1,26.3c0.2,4.6,14.8,16.1,14.8,16.1s-0.1-30.7,8.5-35.4c8.6-4.7-3.6,11.2-4.3,25.7
			c-0.4,8,0.2,11.6,0.2,11.6s22.5,3.1,20.8,10.7c0,0-0.3,4.8-1.7,7.8c-1.4,3.1,16.9-17.7,18.1-21.7c1.2-4-15-27-10.7-27.7
			c4.3-0.7,9.6,1.7,11.9,8.8c2.4,7.1,2.9,15.4,2.4,18.3c-0.5,2.9,9-15.5,6.9-17.9c-2.1-2.4-12.6-18.1-23.1-22.3
			c-6-2.4-4.8-7.4-0.8-7.8c4-0.5,23.5,14.1,25.3,25.7c0,0,7.5-17.8,1.1-24.5c-6.3-6.6-27.7-7.8-26.7-11.2c1-3.4,17.7-1.5,26.3,7.9
			c8.5,9.5-3.4-38.2-26.2-27.7c0,0-6.4,4.1-13.2,12.9C1199.4,826.3,1198.2,823.8,1198.2,823.8z"/>
		<path class="st3" d="M1162.7,676.5c-0.4-0.7-38.3-40-46-39.3c-7.7,0.7-10.1,3.1-10.1,3.1s4.3-0.5,7.7,1
			c3.4,1.4,18.7,15.6,18.7,15.6s-21.6-12.7-26.4-13.2c-4.8-0.5-27.1,7.4-30.2,13.2c0,0,13.2,2.2,15.6,3.6c2.4,1.4-19.4,4.6-19.4,4.6
			s-2.4,5-1.7,5c0.7,0,42.4-7,49.6-3.8c7.2,3.1,20.8,10.6,4.1,8.6c-16.8-2.1-53.7-10.5-60.9,5.8c-7.2,16.3-1.2,26.7-1.2,26.7
			s27.1-29.6,60.7-24c0,0,14.9,3.1,3.6,4.3s-38.4,7.2-48.4,17c-10.1,9.8-20.7,13.2-20.4,15.8c0.3,2.7,10.8,19.9,12.3,20.2
			c1.4,0.2,3.4-11,6.2-16.3c2.9-5.3,22-22.3,33.9-23.5c11.9-1.2,14.6,1,10.7,3.8c-3.8,2.9-43.9,18-44.5,36
			c-0.5,17.9-0.5,5.5-0.5,5.5s10.1,9.9,11.7,9.9s-2-19.1,5.4-25.2c7.4-6.1,28.2-22.1,32.7-19.8c4.5,2.3-13.3,8.8-20.5,19.4
			c-7.2,10.6-10.1,18.2-11,23.4c-0.9,5.2,18.9-3.6,26.8,9.2c7.9,12.8,1.3-11.9,6.3-25.2c5-13.3,7.4-16.9,7.7-13.8
			c0.4,3.1,1.6,17.3-1.4,25.5c-3.1,8.3-6.8,11.7-4.9,12.4s14.2-2.8,15.6-5.4c1.4-2.6,0.2-27.3-2.3-33.4c-2.5-6.1-1.1-9,1.3-5.6
			c2.3,3.4,10.8,21.4,6.5,35.2c0,0,4.7-2.5,12.8-4.1c8.1-1.6,5.2-31.6-6.7-41.4c-11.9-9.7,1.6-9.4,4.3-7.4
			c2.7,2,17.8,15.6,16.5,39.9c0,0,4.3-5.6,13.7-7.7c9.4-2.2,2.5-27.7-20.7-38.8c-23.2-11.1,30.7-6.3,33.4,22.7c0,0,8.5-9.1,13.5-14
			s-25.4-15.5-31.3-16.8c-5.9-1.3-3.2-6.1,0.2-6.1s34.7,4.9,35.6,11.3c0.9,6.5,7.3-21.5,0-26.3c-7.3-4.8-37.5-1.4-42.7,5.5
			c-5.3,7-4.8-6.1,0-7.2c4.8-1.1,18.7-1.2,20.1-1.4c1.4-0.2-9.1-12.5-17.3-11.5c-8.2,1-18,15.8-17.5,19.9
			C1164.5,673.3,1162.7,676.5,1162.7,676.5z"/>
	</g>
	<path class="st5" d="M653,1114.5c0,0,11.3,7.6,37.9,19.2c26.6,11.7,54,2.3,54.5,2.5c0.4,0.2,36.6-27.8,39.6-47.4L653,1114.5z"/>
	<path class="st4" d="M653,1114.5c0,0,42.1,21.7,87.6,19c0,0,24.3-11.1,44.3-44.7c0,0-35.9-17.2-75.3-20.1c0,0-25.5,7.3-36.6,17.1
		C661.9,1095.8,653,1114.5,653,1114.5z"/>
	<path class="st0" d="M682.9,899.6c0,10.6,10.4,26.3,37.5,30.6c27,4.3,60,35.1,80.6,29.2c20.7-6,25.3-32.1-18.2-48.1
		c-43.5-16-62.5-33.4-62.5-33.4S682.9,882.9,682.9,899.6z"/>
	<path class="st6" d="M632.5,896.1c0,0,154.1-22.5,186.4-54.1c0,0-6.6-4.8-17.6-20.8c-11-16-302.3-23.1-302.3-23.1l-25.5,21.1
		c0,0,98.6,79.1,124,79.4C622.8,898.9,632.5,896.1,632.5,896.1z"/>
	<path class="st0" d="M283.7,1012.7l63.9-4.3l105,56.8l108,7.8l63.3-32.3l27,6.7c0,0-111.7,79.3-158.3,88.4
		C492.6,1135.8,319.5,1084.8,283.7,1012.7z"/>
	<path class="st0" d="M939.8,1065.7l31.3-16.1l121.2,38.4l150.6-67.8c0,0,29.3,29.7,32.8,24.8c3.5-4.9-10.3,12.5-39.4,27.7
		c-41.8,21.9-96.1,55.7-146.7,55.4C1070.8,1127.9,968.3,1082.2,939.8,1065.7z"/>
	<g>
		<path class="st7" d="M595.6,821.1c36.4,23.5,82.7,34.2,82.7,34.2s-30.5-30.7-25.7-39.3c4.9-8.5,46.5-8.3,55.7,0
			c9.2,8.3,29.7,25.8,29.7,25.8v-39.4c0,0-19.2-15.7-33.7-19c-14.5-3.3-85.2,9.4-85.2,9.4L595.6,821.1z"/>
		<path class="st5" d="M500.4,704.1c0,0-14.6,67.9,0,116.3c14.6,48.3,97.3,81.8,109,80.6c32.1-3.1,185.8-44.2,199.8-61.7
			c14-17.5,18.9-52.5,18.9-52.5L584.3,803L500.4,704.1z"/>
		<path class="st4" d="M615.8,874.4c0,0,48.6-8.5,90.3-21.4c56.6-17.5,100.5-43,121.9-66.3c0,0-62.1-23.3-77.1-42.7
			c-31-39.9-44.7-107.2-44.7-107.2s-62.3,87.5-86.8,89.6c-24.5,2.1-119-22.4-119-22.4C502.8,831.5,569.6,861.8,615.8,874.4z"/>
		<path class="st7" d="M595.6,821.1c36.4,23.5,82.7,34.2,82.7,34.2s-30.5-30.7-25.7-39.3c4.9-8.5,36.2-8.3,55.7,0
			c11.4,4.8,29.7,25.8,29.7,25.8v-39.4c0,0-19.2-15.7-33.7-19c-14.5-3.3-85.2,9.4-85.2,9.4L595.6,821.1z"/>
		<path class="st8" d="M757.9,911.6c0,0,0.2,4.5,0.6,5.9c0.4,1.4,13.7,28.4,33.8,28.3s-1.6-35.7-1.6-35.7L757.9,911.6z"/>
		<path class="st9" d="M759.1,895.4c-3.6,2.6-1.3,14.5-1.1,16.3c0.1,1.2,16.4,33.2,36,30.4c17.8-2.6-7.2-41.2-8.2-43.2
			c-1.1-2-5.6-7.8-10.5-9C770.3,888.7,759.1,895.4,759.1,895.4z"/>
		<path class="st8" d="M759.4,899.3c0,11.6,24.2,13.3,24.2,2.8C783.6,889.6,759.4,889.2,759.4,899.3z"/>
		<path class="st5" d="M706.2,636.8c0,0-106.4,89.8-138.6,82.8l37.8,42.2c0,0,54-24.9,58.9-29.8
			C669.1,727.2,706.2,636.8,706.2,636.8z"/>
		<path class="st10" d="M649.8,674.7c-6.2,1.8-11.6,5.7-15.1,11c-12.8,19.6-21.7,53.1-10.6,79.6c12.9,30.9,54.8,3.7,58.3-25.4
			c3.4-29.1,29.7-66.4,4.3-68.5c-16-1.3-17.7-1.3-28.3,0.9C656.9,672.7,653.3,673.7,649.8,674.7z"/>
		<path class="st11" d="M699.8,884.6c-0.7,0-1.4-0.1-2.1-0.2c-5.5-1.2-9-6.5-7.8-12l1.2-5.8l-10.7-3.8c-5.3-1.9-8-7.7-6.1-13
			c1.9-5.3,7.7-8,13-6.1l19,6.8c4.8,1.7,7.6,6.7,6.5,11.6l-3,14.4C708.7,881.3,704.5,884.6,699.8,884.6z"/>
		
			<ellipse transform="matrix(0.9838 -0.1792 0.1792 0.9838 -104.4447 133.3057)" class="st10" cx="685.7" cy="644.8" rx="25.3" ry="25.3"/>
		<path class="st8" d="M683.8,867.9c-1.9,0-3.9-0.4-5.8-1.2c-0.2-0.1-19.5-8.4-39.9-18c-38.3-18.1-48-25.3-52.2-29.6
			c-3.3-3.4-13.5-13.9-8.9-26.4c4.2-11.2,16.8-13.6,21.6-14.5c6.7-1.3,15.1-2,25.7-2.9c2.6-0.2,5.4-0.5,8.3-0.7
			c8.1-0.7,15.2,5.2,16,13.3c0.7,8.1-5.2,15.2-13.3,16c-2.9,0.3-5.7,0.5-8.4,0.7c-3.1,0.3-6.4,0.6-9.5,0.9
			c15.9,8.9,45.9,23,72.1,34.3c7.5,3.2,10.9,11.9,7.7,19.3C694.9,864.5,689.5,867.9,683.8,867.9z"/>
		<path class="st8" d="M765.1,894.9c-6.5,0-12.5-4.4-14.2-11c-5.4-20.4-20.9-75.1-31.2-94.5c-6.6-0.7-23.1,1.8-37.2,6
			c-0.5,0.1-1,0.3-1.5,0.4l-44.4,7.9c-8,1.4-15.6-3.9-17.1-11.9c-1.4-8,3.9-15.6,11.9-17.1l43.7-7.8c2.9-0.8,13.4-3.6,24.6-5.4
			c15.9-2.5,35.2-3.7,43.5,9.8c14.3,23.1,33.9,96.8,36.1,105.2c2.1,7.9-2.6,15.9-10.5,18C767.6,894.7,766.3,894.9,765.1,894.9z"/>
		<path class="st10" d="M690.2,803.1c-3.5,0-6.9-1.8-8.8-5c-2.8-4.8-1.2-11.1,3.6-13.9c0,0,2.5-1.5,6.1-3.9
			c20.7-13.7,26.1-22.4,26.4-24.5c-0.5-7.6-19.6-40.5-37.1-66.6c-3.1-4.7-1.9-11,2.8-14.1c4.7-3.1,11-1.9,14.1,2.8
			c0.4,0.6,9.9,14.7,19.5,30.9c18.3,30.6,20.9,41,21,46.5c0.1,4.5,0.6,18.1-35.5,42c-4.1,2.7-6.9,4.4-7,4.4
			C693.7,802.7,691.9,803.1,690.2,803.1z M717.6,755.9L717.6,755.9L717.6,755.9z M717.6,755.8L717.6,755.8
			C717.6,755.8,717.6,755.8,717.6,755.8z"/>
		<path class="st10" d="M666.7,690.2c-1.5,0-3-0.3-4.4-1c-4.8-2.4-6.8-8.3-4.4-13.2l12.5-25c2.4-4.8,8.3-6.8,13.2-4.4
			c4.8,2.4,6.8,8.3,4.4,13.2l-12.5,25C673.7,688.2,670.2,690.2,666.7,690.2z"/>
		<path class="st10" d="M616.3,818.5c-2.2,0-4.3-0.7-6.2-2.1c-5-3.8-11.2-16.2-17.7-35.8c-11.2-33.5,14.1-62.3,32.5-83.4
			c4.3-5,8.4-9.6,11.4-13.6c3.3-4.5,9.7-5.5,14.2-2.2c4.5,3.3,5.5,9.7,2.2,14.2c-3.4,4.7-7.8,9.6-12.4,14.9
			c-16.1,18.3-36,41.1-28.5,63.5c4.4,13.2,7.7,20.3,9.7,23.9c1,1.8,1.6,2.6,1.9,2.9c3.7,3.5,4.3,9.4,1.1,13.5
			C622.4,817.1,619.4,818.5,616.3,818.5z"/>
		<path class="st11" d="M657.5,697.8c6.3,9.5,23.9,5.7,27.3-4.2c4.3-12.6,5.9-17,2.8-22.1c0,0,3.1,0.2,4.4,1.2c1.4,1,3,7.8-1.9,24
			c-4.6,15.5-0.8,17.1-0.8,17.1s-13.8,44.2,3,48.5c0,0-8.8,22.6-22.3,31.1c-20.9,13.2-21.3-5.5-54.4-17.8c0,0-10.4-1.1,3.5-38.3
			c0,0,14.2-16.2,19.3-28.3c5.1-12.1,4.4-31.4,4.4-31.4l3.8-2C646.7,675.7,654.1,692.7,657.5,697.8z"/>
		<path class="st11" d="M772.9,915.5c-4.1,0-7.9-2.7-9.1-6.8l-5.9-19.9c-1.5-5,1.4-10.3,6.4-11.8c5-1.5,10.3,1.4,11.8,6.4l5.9,19.9
			c1.5,5-1.4,10.3-6.4,11.8C774.7,915.4,773.8,915.5,772.9,915.5z"/>
		<path class="st8" d="M672.9,646.8c4.7,0,31,18.3,42.7,0c0,0,2.1-24.2-18-30.4c-20-6.3-30.3,1.8-37.2,14.6
			c-7.8,14.5,5.2,29.1,5.2,29.1S663.6,646.8,672.9,646.8z"/>
		<circle class="st10" cx="672.9" cy="647.7" r="4.9"/>
		<path class="st9" d="M762,905.1c4.4,3.7,12.7,5.8,20.5,0.4s-4,13.8-4,13.8l-14.7-4.6L762,905.1z"/>
		<path class="st11" d="M789.9,917.3c-0.1,0-0.1,0-0.2,0l-19.3-2.3c-0.7-0.1-1.2-0.7-1.1-1.5c0.1-0.7,0.7-1.2,1.5-1.1l19.3,2.3
			c0.7,0.1,1.2,0.7,1.1,1.5C791.1,916.8,790.6,917.3,789.9,917.3z"/>
		<path class="st11" d="M776.8,923.4c-0.2,0-0.4-0.1-0.7-0.2c-0.6-0.4-0.8-1.2-0.5-1.8c0.2-0.3,5.5-10,8.3-15.1
			c0.3-0.6,1.1-0.9,1.8-0.5c0.6,0.3,0.9,1.1,0.5,1.8c-0.8,1.5-8.2,14.9-8.4,15.1C777.7,923.2,777.3,923.4,776.8,923.4z"/>
		<path class="st3" d="M646.2,719c-8.2,14.5-9.3,33-9,42.9c0,0,27,3.2,34-5.5c0,0-3.4-13.7,7-35.4c0.7-0.4-7.7,3.9-17.9,2.9
			C650.5,722.9,646.2,719,646.2,719z"/>
		<path class="st8" d="M717.3,855.7c2.6,2.5,3.8,4.4,2.5,10.1c-0.8,3.2-8,37-14.3,41.1c-6.3,4.1-10.4,5.6-16.5-4
			C682.8,893.3,717.3,855.7,717.3,855.7z"/>
		<path class="st9" d="M704.1,849.9c0,0-4.1,23.6-13,16.6c0,0-9,27.9-0.8,38.5c8.2,10.6,15-2.5,16.9-8.5c1.9-6,10.8-38.4,10.2-40.8
			c-0.6-2.4-12.4-12.3-17.1-7.5c-0.1,0.1,0.6,0.4,1.6,0.8C702.5,849.3,703.3,849.6,704.1,849.9z"/>
		<path class="st11" d="M702.1,883c-0.3,0-0.7-0.1-0.9-0.4L691,872.1c-0.5-0.5-0.5-1.3,0-1.8c0.5-0.5,1.3-0.5,1.8,0l10.1,10.4
			c0.5,0.5,0.5,1.3,0,1.8C702.7,882.9,702.4,883,702.1,883z"/>
		<path class="st11" d="M690.2,882.3c-0.4,0-0.8-0.2-1-0.5c-0.4-0.6-0.3-1.4,0.2-1.8l13.9-10.6c0.6-0.4,1.4-0.3,1.8,0.2
			c0.4,0.6,0.3,1.4-0.2,1.8L691,882.1C690.7,882.3,690.5,882.3,690.2,882.3z"/>
		<path class="st8" d="M701.8,849c0.5-0.8,2.3-1,2.3,0s0,1,0,1L701.8,849z"/>
		<path class="st2" d="M679.4,766.6l14.7,1.7c1.3,0.1,2.2,1,2,1.9l-5,21.1l-19.6-2l5.4-21.5C677.2,767,678.3,766.5,679.4,766.6z"/>
		<path class="st10" d="M691.4,804.2c-14.9,0-22.9-4.8-24.4-5.7l12.3-18.8c0,0-0.1-0.1-0.3-0.2c0.2,0.1,4.5,2.5,13.6,2.3
			c6.2-0.2,11.3,4.8,11.5,11c0.1,6.2-4.8,11.3-11,11.5C692.4,804.2,691.9,804.2,691.4,804.2z"/>
		<path class="st11" d="M687.7,772.5c0-0.6-0.8-1.2-1.8-1.2s-1.8,0.5-1.8,1.2c0,0.6,0.8,1.2,1.8,1.2S687.7,773.1,687.7,772.5z"/>
		<path class="st10" d="M632.3,833.7l-20.2-2.1l0,0.2c0-0.1,0.4-6.5-3.6-18.9c-1.7-5.3,1.2-11.1,6.6-12.8c5.3-1.7,11.1,1.2,12.8,6.6
			C633.1,823,632.5,832,632.3,833.7z"/>
		<path class="st10" d="M632.5,818.5c-0.8,0-1.6-0.4-2.1-1.1l-7.2-11.1c-0.7-1.1-0.4-2.7,0.7-3.4c1.1-0.7,2.7-0.4,3.4,0.7l7.2,11.1
			c0.7,1.1,0.4,2.7-0.7,3.4C633.5,818.4,633,818.5,632.5,818.5z"/>
	</g>
	<path class="st5" d="M406.2,962l221.3,3l29.6-8c0,0-3.1,54.3-26.4,87.7c-23.3,33.4-122.4,52.1-122.4,52.1
		c-48.2-19.9-112.1-32.3-153.3-63.4s-66-103.5-66-103.5L406.2,962z"/>
	<path class="st4" d="M289.1,929.8c88.2,117.6,162,111.5,219.2,149.1c0,0,57.1-2.7,97.3-51.6c40.2-48.9,51.5-70.4,51.5-70.4
		s-43.7,9.3-121.3-44.9c-51.9-36.3-81.2-58-81.2-58L289.1,929.8z"/>
	<path class="st7" d="M397.1,973.6c4.7,25,28,28.4,40.4,30.4c12.4,2,30.1,6.7,35.2,22.6c5.1,15.9-6.1,33.3,1.9,38.6
		c7.9,5.3,19.6,8.3,37.1-17.1c17.5-25.4,28.9-59.5,26.1-68.2s-10.7-19.2-29.5-16.6C489.5,966,397.1,973.6,397.1,973.6z"/>
	<g>
		<path class="st12" d="M541.7,897c-2,0-4-0.7-5.6-2.1c-3.5-3.1-3.7-8.4-0.6-11.9c8.3-9.3,20.9-10.6,22.3-10.7
			c4.6-0.4,8.7,3.1,9.1,7.7c0.4,4.6-3,8.7-7.6,9.1c-2,0.2-7.9,1.5-11.2,5.2C546.3,896.1,544,897,541.7,897z"/>
		<path class="st8" d="M491.1,905.1c-10.3,0-17.7-2-23-6.1c-9.1-6.9-9.7-17.3-10.2-25.6c-0.2-3.5-0.4-6.7-1.1-9.6
			c-1.3-5.5,2.1-10.9,7.5-12.2c5.5-1.3,10.9,2.1,12.2,7.5c1.1,4.6,1.4,9.1,1.6,13.1c0.3,4.8,0.6,9.4,2.3,10.7
			c2,1.5,9.9,4.4,39.7-1.9c5.5-1.2,10.9,2.3,12,7.8c1.2,5.5-2.3,10.9-7.8,12C510.7,903.6,499.9,905.1,491.1,905.1z"/>
		<path class="st12" d="M522.2,898.2c-3.5,0-6.7-2.6-7.2-6.2c-0.7-4,2.1-7.8,6.1-8.4l17-2.8c4-0.7,7.8,2.1,8.4,6.1
			c0.7,4-2.1,7.8-6.1,8.4l-17,2.8C523,898.2,522.6,898.2,522.2,898.2z"/>
		<path class="st2" d="M481.1,1015.4c-7.5,0-13.8-5.6-14.6-13.2c-2.1-20.7-5.1-44.1-8-60.8c-4.9,7.9-10.3,17.3-14.9,25.9
			c-3.8,7.2-12.7,9.9-19.9,6c-7.2-3.8-9.9-12.7-6-19.9c0.3-0.5,7-13.1,14.8-25.8c13.9-22.6,22.7-33,34.9-30.9
			c12.2,2.1,15.2,15.8,17.4,25.8c1.7,7.8,3.6,18.6,5.4,31.8c3.2,22.3,5.4,44,5.5,44.9c0.8,8.1-5.1,15.3-13.1,16.1
			C482.1,1015.4,481.6,1015.4,481.1,1015.4z"/>
		<path class="st11" d="M513.6,1022.9h-30.4c-4.8,0-9-3.4-10-8.2l-1.7-8.7c-1.1-5.5,2.5-10.8,8-11.9c5.5-1.1,10.8,2.5,11.9,8
			l0.1,0.5h22.1c5.6,0,10.2,4.5,10.2,10.2S519.2,1022.9,513.6,1022.9z"/>
		<path class="st12" d="M546.4,938.2c-2.6,0-5.1-1.4-6.5-3.8c-2-3.6-0.6-8,2.9-10l24.1-13.2c3.6-2,8-0.6,10,2.9c2,3.6,0.6,8-2.9,10
			l-24.1,13.2C548.8,937.9,547.6,938.2,546.4,938.2z"/>
		<path class="st1" d="M487,1066.2c-2.6,0-5.3-0.7-7.7-2.2c-6.9-4.3-9-13.3-4.7-20.2c13.9-22.4,23.5-40.5,28.7-54.1
			c2.6-6.7,3.6-11.3,4-14.2c-5.5,1.5-13.6,4.7-19.5,7c-24,9.3-51.1,19.9-71.7,8.1c-10.6-6-17.1-16.7-19.6-31.6
			c-1.3-8,4.1-15.6,12.2-16.9c8-1.3,15.6,4.1,16.9,12.2c0.6,4,2,9,5.1,10.8c8.4,4.8,31.3-4.1,46.5-10c9-3.5,17.6-6.9,25.1-8.6
			c13.1-3,22.7-0.7,28.7,7.1c13.5,17.4,4.4,48-31.4,105.8C496.7,1063.7,491.9,1066.2,487,1066.2z"/>
		<path class="st8" d="M440.9,855.4c-49.6,22.1-55.2,102.7-48.7,117.7c5.6,13,40.6,14.7,65.9-1.6c6.4-4.1,9.9-11.5,9.2-19.1
			c-1.4-15.2-1.8-41.4,30-69.3C513.9,868.7,502.3,828.2,440.9,855.4z"/>
		<path class="st11" d="M508.3,1089.1c-1.7,0-3.5-0.4-5.1-1.4l-26.9-15.6c-4.6-2.7-6.3-8.4-4.1-13.1l5.6-11.8
			c2.4-5.1,8.5-7.2,13.5-4.8c5.1,2.4,7.2,8.5,4.8,13.5l-1.6,3.3l18.8,10.9c4.8,2.8,6.5,9,3.7,13.9
			C515.2,1087.2,511.8,1089.1,508.3,1089.1z"/>
		<path class="st8" d="M518.2,951.5c-4.7,0-9-1-12.9-3c-18.2-9.4-18.8-36.3-19.2-55.9c-0.1-6-0.3-12.2-0.9-14.9
			c-1.4-5.4,1.9-11,7.3-12.3c5.4-1.4,11,1.9,12.3,7.3c1.2,4.9,1.4,11.6,1.6,19.4c0.3,12,0.8,34.4,8.3,38.3c1.9,1,9.7,3.1,30.9-11.2
			c4.7-3.1,11-1.9,14.1,2.8c3.1,4.7,1.9,11-2.8,14.1C541.6,946.4,528.8,951.5,518.2,951.5z"/>
		<path class="st13" d="M430.1,862.8c0,15.8,1.9,35.4,16.2,29.7c14.3-5.8,40.9-26,57.8-22.9c0,0,0.4-3.4-0.3-6.9
			c-0.7-3.5-29.3,1.1-29.3,1.1l-42.4-0.2L430.1,862.8z"/>
		<path class="st1" d="M480.2,828.6c-59-3.8-54.9,49.2-42.7,53.9c12.1,4.7,45.1-16.6,66.7-15.3c0,0,3.5-14.4-3.8-20.5
			C492.6,840.1,480.2,828.6,480.2,828.6z"/>
		<path class="st4" d="M478,828.7c-8.8,0.3-18.9,2.2-23,6c-4.1,3.8-7.4,11.2,26.4,17.5c33.7,6.3,16.5-6,16.5-6L478,828.7z"/>
		<path class="st8" d="M480.8,830.6c-10.8-1.2-35.2,6.7-16.1,13.4c19.2,6.6,34.9,8.9,37.3,7.4C504.4,849.8,480.8,830.6,480.8,830.6z
			"/>
		<circle class="st12" cx="494.4" cy="822.3" r="25.3"/>
		<path class="st8" d="M573.6,914.7l-27.5-20.8c-1.3-1-1.6-2.9-0.6-4.2l17.1-22.6c1-1.3,2.9-1.6,4.2-0.6l27.5,20.8
			c1.6,1.2,1.9,3.4,0.7,5L578.6,914C577.4,915.6,575.2,915.9,573.6,914.7z"/>
		<path class="st11" d="M574.5,910.8l-24.8-18.7c-1.1-0.9-1.4-2.5-0.5-3.6l14.5-19.1c0.4-0.6,1.2-0.7,1.8-0.2l26.9,20.4
			c0.8,0.6,0.9,1.7,0.3,2.5l-13.8,18.3C577.8,911.6,575.9,911.9,574.5,910.8z"/>
		<path class="st12" d="M572.5,925.7c-3.6,0-6.9-2.3-8-5.9c-1.4-4.4,1.1-9.1,5.5-10.5c7.1-2.2,8.8-6.5,8.8-6.5
			c1.3-4.5,5.9-7.1,10.4-5.8c4.5,1.3,7.1,5.9,5.8,10.4c-0.4,1.3-4.1,13.1-20,18.1C574.2,925.6,573.3,925.7,572.5,925.7z"/>
		<path class="st9" d="M518.7,808.7c12.1,17.2-24.2,17.5-16.4,39.5c7.8,22,30.6,32.4,7,40.4c-19.7,6.7,8.4-30.3-17.8-35.9
			c-18-3.9-19.3-13.3-19.3-13.3c-4.6,1.1-8.9,2-8-11.7C466.1,799.6,500.6,783.1,518.7,808.7z"/>
		<path class="st12" d="M506.5,827.2c-1.2-2.7-4.4-3.8-7-2.6c-2.7,1.2-3.8,4.4-2.6,7c1.2,2.7,4.4,3.8,7,2.6
			C506.6,833,507.8,829.9,506.5,827.2z"/>
		<path class="st14" d="M504.7,828.1c-0.8-1.7-2.7-2.4-4.4-1.6c-1.7,0.8-2.4,2.7-1.6,4.4c0.8,1.7,2.7,2.4,4.4,1.6
			C504.8,831.7,505.5,829.7,504.7,828.1z"/>
		<path class="st8" d="M505.2,834c-0.4-1-1.6-1.4-2.5-0.9c-1,0.4-1.4,1.6-0.9,2.5c0.4,1,1.6,1.4,2.5,0.9
			C505.2,836,505.6,834.9,505.2,834z"/>
		<path class="st12" d="M541.5,897.2c-1.4,0-2.4-1.1-2.5-2.4c0-1.4,1.1-2.5,2.4-2.5c5.2,0,8-2.2,8.1-2.3c1.1-0.8,2.6-0.7,3.4,0.4
			c0.8,1,0.7,2.6-0.3,3.4C552.6,894,548.6,897.2,541.5,897.2C541.5,897.2,541.5,897.2,541.5,897.2z"/>
		<path class="st12" d="M570.7,913.8c-1.3,0-2.4-1.1-2.4-2.4c0-0.2-0.1-4.1,1-7.7c0.4-1.3,1.7-2,3-1.7c1.3,0.4,2,1.7,1.7,3
			c-0.8,2.8-0.8,6.2-0.8,6.2C573.2,912.7,572.1,913.8,570.7,913.8C570.8,913.8,570.8,913.8,570.7,913.8z"/>
		<path class="st11" d="M561.7,902.6c0,0.6-0.5,1.1-1.1,1.1c-0.6,0-1.1-0.5-1.1-1.1s0.5-1.1,1.1-1.1
			C561.2,901.5,561.7,902,561.7,902.6z"/>
		<path class="st11" d="M593.1,887.9c0,0.3-0.2,0.5-0.5,0.5c-0.3,0-0.5-0.2-0.5-0.5c0-0.3,0.2-0.5,0.5-0.5
			C592.9,887.4,593.1,887.7,593.1,887.9z"/>
		<path class="st11" d="M591.7,886.9c0,0.3-0.2,0.5-0.5,0.5s-0.5-0.2-0.5-0.5s0.2-0.5,0.5-0.5S591.7,886.6,591.7,886.9z"/>
	</g>
	<g>
		<path class="st8" d="M947,971.7c-0.6,1-0.9,2.1-0.8,3.2c0.3,4.9,3.7,15.7,15.4,25.6c13.8,11.7,20.9,9.1,23.7,8
			c2.8-1.1-36.9-38.9-36.9-38.9L947,971.7z"/>
		<path class="st9" d="M947.9,970.1c-2.4,4.1,2.8,17.4,21.4,33.5c18.5,16,27.2-7.6,24.7-10.2c-2.5-2.6-15.3-15.9-28.4-23.3
			c-10.8-6.1-15.8-2.2-17.2-0.6C948,969.9,947.9,970.1,947.9,970.1z"/>
		<path class="st8" d="M994.7,975.4c-0.3,1.1-0.2,2.2,0.2,3.3c1.8,4.5,8.2,13.9,22.3,19.8c16.7,7,22.6,2.4,25,0.6
			c2.4-1.8-46.9-26.1-46.9-26.1L994.7,975.4z"/>
		<path class="st9" d="M995.1,973.7c-1.1,4.7,7.9,15.8,30.4,25.5c22.5,9.8,23.7-15.4,20.5-17.1c-3.2-1.7-19.3-10.6-34.1-13.7
			c-12.1-2.6-15.7,2.7-16.6,4.6C995.1,973.4,995.1,973.7,995.1,973.7z"/>
		<path class="st11" d="M983.5,1001.2c-2.9,0-5.7-1.1-7.9-3.3c-4.4-4.4-4.4-11.5,0-15.8l7.3-7.3c4.4-4.4,11.5-4.4,15.8,0
			c4.4,4.4,4.4,11.5,0,15.8l-7.3,7.3C989.2,1000.1,986.4,1001.2,983.5,1001.2z"/>
		<path class="st11" d="M1036.1,997.6c-1.8,0-3.5-0.4-5.2-1.3c-5.5-2.9-7.6-9.6-4.7-15.1l6.7-12.9c2.9-5.5,9.6-7.6,15.1-4.7
			c5.5,2.9,7.6,9.6,4.7,15.1l-6.7,12.9C1044,995.4,1040.1,997.6,1036.1,997.6z"/>
		<path class="st12" d="M1041.9,985.4c-1.5,0-3-0.3-4.4-1c-5-2.5-7.1-8.5-4.7-13.6c0.2-0.4,5-10.2,11.9-19.9
			c11-15.4,21.5-22.6,32.1-22.3c5.6,0.2,10,4.9,9.8,10.5c-0.2,5.6-4.9,10-10.5,9.8c0,0,0,0,0,0c-1.4,0-6.6,2.4-14.6,13.6
			c-6,8.4-10.3,17.1-10.3,17.2C1049.3,983.3,1045.7,985.4,1041.9,985.4z"/>
		<path class="st12" d="M988.8,995.1c-2.5,0-4.9-0.9-6.9-2.7c-4.1-3.8-4.4-10.2-0.6-14.3c1.6-1.7,3.1-3.4,4.7-5.1
			c19.6-21.5,35-38.4,50.2-38.4c5.6,0,10.1,4.5,10.1,10.1c0,5.6-4.5,10.1-10.1,10.2c-0.1,0-3.4,0.1-12.3,8.2
			c-6.9,6.2-14.6,14.6-22.8,23.6c-1.6,1.7-3.1,3.4-4.7,5.1C994.2,994,991.5,995.1,988.8,995.1z"/>
		<path class="st3" d="M1202.4,950.1c-25.4-6.3-74-56.3-74-56.3s-94.4,87.5-104.5,92.6c-26.2,13.1-113,28.1-113,28.1
			s11.3,10.8,54.9,27.6c43.6,16.8,142.2,0,142.2,0s87.2-25.4,109.3-38.6c22.1-13.2,87.8-109.7,87.8-109.7S1254.5,963.1,1202.4,950.1
			z"/>
		<path class="st7" d="M1007.1,992.8c16.8-0.6,24.8-6.3,48.8,2.6c24,8.9,39.9,18.5,48.2,22.7c8.3,4.2,30.7-13.8,30.7-13.8
			s-83.8-31.6-105.7-21.6L1007.1,992.8z"/>
		<path class="st7" d="M1039.2,974.3l12-10.4c0,0,39.9,1.6,60.5,14.6c20.7,13.1,23,23,23,23H1113
			C1113,1001.4,1056.8,971.1,1039.2,974.3z"/>
		<path class="st13" d="M1131.1,1028.8c-0.2,0-0.3,0-0.5,0c-22-0.7-41.8-22.6-61-43.9c-8.4-9.3-21.1-23.3-26-24.8l-0.5-0.1
			c-0.4-0.1-1.3-0.4-4.5-0.5c-8.1-0.3-14.5-7.1-14.2-15.2c0.3-7.9,6.8-14.2,14.7-14.2c0.2,0,0.3,0,0.5,0c6.3,0.2,9.7,1,12.3,1.9
			l0.2,0.1c12.7,3.9,25,17.5,39.2,33.2c8.1,8.9,16.4,18.1,24.3,24.9c9.6,8.2,14.3,9.2,15.8,9.3c8.1,0.3,14.5,7.1,14.2,15.2
			C1145.6,1022.5,1139,1028.8,1131.1,1028.8z"/>
		<path class="st13" d="M1153.1,1008.8c-0.8,0-1.7-0.1-2.5-0.2c-17.8-3.1-30.8-17.7-42.3-30.6c-9.1-10.2-18.5-20.8-26.2-21
			c-8.1-0.2-14.5-7-14.2-15.2c0.2-8.1,7-14.5,15.2-14.2c20.3,0.6,34.6,16.7,47.2,30.9c8.7,9.8,17.7,19.8,25.3,21.2
			c8,1.4,13.4,9,12,17C1166.4,1003.7,1160.1,1008.8,1153.1,1008.8z"/>
		<path class="st9" d="M1224,981.8c-2.1,0-4.2-0.6-6-2c-4.5-3.3-5.5-9.7-2.2-14.2c4.6-6.3,9.5-13.2,13.9-19.6
			c-1.7,1.2-3.3,2.3-4.8,3.3c-4.8,3-11,1.5-14-3.3c-3-4.8-1.5-11,3.3-14c2.8-1.8,6.4-4.5,10.2-7.4c11.6-8.8,21.6-16.5,31.1-14.2
			c4.1,1,7.4,3.7,9.3,7.7c2.7,5.7-0.1,11.2-4.7,18.8c-2.6,4.4-6.4,10.2-11.3,17.2c-8.1,11.8-16.5,23.3-16.6,23.4
			C1230.2,980.4,1227.2,981.8,1224,981.8z M1245.8,920.9L1245.8,920.9L1245.8,920.9z"/>
		<path class="st9" d="M1158.4,977.3c6.8,0.9,9.4,0.9,13.2-2.3c19.1-16.1,51.9-17.6,55-22.7c0.7-1.2,1.9,9.4,2.5,10.7
			c11,24.1-28.3,35.3-28.3,35.3l-44.4,6.4l-0.4-28.4L1158.4,977.3z"/>
		<path class="st4" d="M1305.1,893.8c0,0-13.8,90.1-67.4,136.5c-106.5,92.2-161.2,69.6-225.2,45.5c-39.7-15-91.3-43.7-101.5-61.3
			l0.5-0.3c120,49.5,192.7-4.9,192.7-4.9l107.1-0.9L1305.1,893.8z"/>
		<circle class="st12" cx="1185" cy="934.4" r="25.3"/>
		<path class="st12" d="M1194.4,973c-3.6,0-6.7-2.6-7.3-6.2l-2.8-17.9c-0.6-4,2.1-7.8,6.1-8.4c4-0.6,7.8,2.1,8.4,6.1l2.8,17.9
			c0.6,4-2.1,7.8-6.1,8.4C1195.1,973,1194.8,973,1194.4,973z"/>
		<path class="st12" d="M1171.5,975c0,0,18,4.1,27.5-0.7c9.5-4.8,7.8-11,7.6-12.4c-0.5-3.4-6.2-3.4-6.2-3.4S1180.9,965.7,1171.5,975
			z"/>
		<path class="st9" d="M1164.7,999c-0.8,0-1.5-0.1-2.3-0.3c-0.5-0.1-11.2-2.6-22.7-6.1c-23.2-7.2-28.8-12.3-31.3-16.8
			c-1.8-3.2-2.2-6.9-1.1-10.3c2.2-6.7,7.7-9.7,35.9-14.7c13.6-2.4,26.7-4.1,27.2-4.2c5.6-0.7,10.7,3.2,11.4,8.7
			c0.7,5.6-3.2,10.7-8.7,11.4c-10.5,1.4-22.2,3.2-31.7,5c7.5,2.5,16.6,5.1,25.6,7.2c5.5,1.3,8.9,6.7,7.6,12.2
			C1173.5,995.9,1169.3,999,1164.7,999z"/>
		<path class="st3" d="M1104.1,1009.2c0,0,57-8.7,98.4-16.6c19.9-3.8,100-97.3,100-97.3s-57.2,110.5-82.2,113.1
			c-25,2.6-25.9,9.2-76.1,6.9C1128.1,1014.6,1104.1,1009.2,1104.1,1009.2z"/>
		<path class="st7" d="M1179.4,996c-5.8,6.5,8.9,12.5,16.8,12c7.9-0.5,21.9-0.8,22.6,0.6c0.7,1.4-3-8.8-3-8.8L1179.4,996z"/>
		<path class="st8" d="M1158.6,922.5c-2.3,4.8-1,10.7,3.3,13.9c6,4.5,14,2.9,17,4.9c4,2.7,8.2,24.3-1.5,34.7
			c-9.7,10.4-0.6,21.1,10.4,24.4c11,3.3,30.3,0.6,32.2,11.2c1.9,10.6-2.3,16.3,1.1,25.2c3.4,8.9,16.7,5.6,24.7-2.1
			c7.9-7.7,6.8-28.6,0.7-37.3c-6.1-8.8-14-3.3-18.9-8.4c-4.9-5.1,11-10.1-3.4-25.2c-13-13.7-12.9-7.7-12.4-29.3
			c0.8-30.8-30-30.5-41.2-24.8C1165.5,912.2,1160.8,917.9,1158.6,922.5z"/>
		<path class="st12" d="M1182.3,965.2c-4.3,0-7.4-0.4-8.2-0.5c-4.6-0.6-7.8-4.8-7.2-9.4c0.6-4.6,4.8-7.8,9.4-7.2
			c3.8,0.5,15.3,0.9,22.2-2.8c4.1-2.2,9.2-0.7,11.4,3.4c2.2,4.1,0.7,9.2-3.4,11.4C1198.6,964.3,1189,965.2,1182.3,965.2z"/>
		<path class="st12" d="M1183.7,940.3c-1.6-2.4-4.8-3.1-7.2-1.5c-2.4,1.6-3.1,4.8-1.5,7.2c1.6,2.4,4.8,3.1,7.2,1.5
			S1185.3,942.7,1183.7,940.3z"/>
		<path class="st12" d="M1210.3,958.1c-2.8,0-5.5-1.4-7.1-3.9c-2.5-3.9-1.3-9.1,2.7-11.6c2.4-1.5,3.3-2.8,3.5-3.1
			c1.5-4.1,5.8-6.5,10.1-5.3c4.5,1.2,7.1,5.8,5.9,10.3c-0.4,1.6-2.5,7.3-10.6,12.4C1213.4,957.7,1211.8,958.1,1210.3,958.1z
			 M1209.1,940.1C1209.1,940.1,1209.1,940.1,1209.1,940.1C1209.1,940.1,1209.1,940.1,1209.1,940.1z M1209.1,940.1
			C1209.1,940.1,1209.1,940.1,1209.1,940.1C1209.1,940.1,1209.1,940.1,1209.1,940.1z M1209.1,940.1
			C1209.1,940.1,1209.1,940.1,1209.1,940.1C1209.1,940.1,1209.1,940.1,1209.1,940.1z M1209.4,939.4"/>
		<path class="st12" d="M1189.2,969.3c-0.2,0-0.4,0-0.6-0.1c-6.8-1.6-11-6.8-11.2-7c-0.8-1.1-0.7-2.6,0.4-3.4
			c1.1-0.8,2.6-0.7,3.4,0.4c0,0.1,3.4,4.1,8.5,5.3c1.3,0.3,2.1,1.6,1.8,2.9C1191.3,968.5,1190.3,969.3,1189.2,969.3z"/>
		<path class="st12" d="M1218.6,959.2c-0.3,0-0.6,0-0.9-0.2c-1.3-0.5-1.9-1.9-1.4-3.1c0,0,1.7-4.5,2.4-8.5c0.2-1.3,1.5-2.2,2.8-2
			c1.3,0.2,2.2,1.5,2,2.8c-0.8,4.4-2.5,9.2-2.6,9.4C1220.5,958.6,1219.6,959.2,1218.6,959.2z"/>
	</g>
	<g>
		<path class="st0" d="M848.9,921.6c-15.4,9.4,12.4,27.1,25.1,34.4c12.7,7.3,10.2,33,38.2,35.6c27.9,2.6,53.8-37.5,49.5-54.7
			C957.5,919.8,921.3,877.5,848.9,921.6z"/>
		<path class="st1" d="M872.6,695.5c-0.3,0-0.7,0-1,0c-3.2-0.2-9.1-1.9-12.3-11c-8.3-24,10.5-56.1,12.7-59.7
			c2.9-4.8,9.2-6.3,13.9-3.4c4.8,2.9,6.3,9.2,3.4,13.9c-1.9,3.2-5.4,9.8-8,17.2c4.6-8.8,9.9-18.8,16.2-28.2
			c3.1-4.7,9.4-5.9,14.1-2.8c4.7,3.1,5.9,9.4,2.8,14.1c-7.1,10.6-13.2,22.6-18.2,32.2C887.3,685.5,882.2,695.5,872.6,695.5z
			 M878.7,678.4L878.7,678.4L878.7,678.4z"/>
		<path class="st8" d="M883.8,631.7c-1,8.4-1.3,36.7,7.3,47.5c8.5,10.8,2.7-13,2.7-13l-2.8-41.6L883.8,631.7z"/>
		<path class="st12" d="M897.8,635.5c-2.2,0-4.4-0.9-6-2.6c-0.7-0.7-1.8-1.5-2.7-2c-2.9,2.7-7.3,3-10.6,0.7c-3.8-2.7-4.7-7.9-2-11.7
			c2.6-3.7,6.4-5.9,10.6-6.2c8.3-0.6,15.4,6.2,16.7,7.6c3.2,3.3,3.2,8.7-0.2,11.9C902,634.7,899.9,635.5,897.8,635.5z"/>
		<path class="st12" d="M969.6,803.7c-1.9,0-3.7-0.6-5.3-1.9c-3.1-2.5-3.9-6.7-2.3-10.1c0.8-2.9,2.1-13.3-0.3-19.8
			c-1.6-4.4,0.7-9.2,5-10.8c4.4-1.6,9.2,0.7,10.8,5c2.5,6.9,2.6,14.7,2.2,20c-0.5,7.3-1.7,12.1-3.6,14.4
			C974.4,802.7,972,803.7,969.6,803.7z M963,790L963,790L963,790z M963,790C963,790,963,790,963,790C963,790,963,790,963,790z"/>
		<path class="st15" d="M949.8,605.1c9.9,5.4,30.4,15.6,33.9,36.3c3.5,20.7-1.8,28.3-1.8,28.3l-33.8-60.2L949.8,605.1z"/>
		<path class="st2" d="M959.2,732.1c17.4-11.2,23-22,23-22s0.4-65.4-2.6-72.6c-6.8-16-22.6-26.3-22.6-26.3L959.2,732.1z"/>
		<path class="st8" d="M948,606.2c9.1,3.3,14.8,9.3,17.2,16.8c2.4,7.5-4.9,97-5.3,106.8c-0.4,9.8-25.9-2.8-25.9-2.8L948,606.2z"/>
		<g>
			<path class="st16" d="M931.6,765.3c-2.4,0-4.9-0.7-7-2l-28.8-18.5c-3.9-2.5-6.1-6.9-5.9-11.5l1-20.1c0.2-3.7,1.9-7.2,4.8-9.5
				c2.9-2.3,6.7-3.3,10.3-2.6l27.8,4.9c6.2,1.1,10.7,6.5,10.7,12.7v33.7c0,4.7-2.6,9.1-6.7,11.3
				C935.9,764.7,933.8,765.3,931.6,765.3z"/>
			<path class="st15" d="M948.4,942.9h-4.5v3.8c-11.5-4.8-17.2-3.8-20.8-0.1c-2.6,2.7-9.9,15.6-11.7,20.7h-1.5l0.1,2.5l0,0
				c-0.1,2,1.3,5,5.1,6h0c4,1,9.4,0,11.9-1.7c5-3.2,17.4-17.8,20.7-24c0.4-0.8,0.6-1.5,0.7-2.2h0L948.4,942.9z"/>
			<path class="st15" d="M912.2,916.6C912.2,916.5,912.2,916.5,912.2,916.6l-0.1-4.6h-6.6v1.5c-2.9-0.9-6.4-1.1-10-0.4l-27.6,9.6
				c-1.4,0.4-2.8,0.9-3.9,1.5h-5.1l0.1,2.3h0c0,0.4,0,0.8,0.1,1.2c1,3.9,6.5,6.1,12.6,5.2l28.4-6.4
				C907,925.2,911.9,920.9,912.2,916.6L912.2,916.6L912.2,916.6z"/>
			<path class="st11" d="M900.1,923.9l-28.4,6.4c-6.1,1-11.7-1.3-12.6-5.2l0,0c-1-3.9,6.2-9.8,8.9-11.6c5-3.5,22.3-13.2,28.2-14.8
				c7.7-2,17-0.6,16.1,13.2C911.9,916.1,907.9,922.3,900.1,923.9z"/>
			<path class="st15" d="M889,910.9c9.5,9,25.2-1.6,19-8.6C899.7,893.1,881.9,904.2,889,910.9z"/>
			<path class="st11" d="M947.7,947.4c-3.1,7.7-15.9,21.4-20.7,24c-2.6,1.5-8,2.7-11.9,1.7v0c-4-1-5.3-4.3-5.1-6.3
				c0.6-5.4,11.8-28.3,15.6-32.3c3.6-3.8,12.8-5.3,17.4-3.1C949.1,934.3,948.9,944.4,947.7,947.4z"/>
			<path class="st15" d="M927.8,944.8c9.3,8.8,23.4-2.3,17.3-9.1C937,926.6,920.8,938.2,927.8,944.8z"/>
			<path class="st11" d="M898.3,912.9c-0.2,0-0.4,0-0.6,0c-4.5-0.3-8-4.3-7.6-8.9l1.1-14.4c0.3-4.5,4.3-8,8.9-7.6
				c4.5,0.3,8,4.3,7.6,8.9l-1.1,14.4C906.2,909.6,902.6,912.9,898.3,912.9z"/>
			<path class="st11" d="M936,945.9c-4.4,0-8.1-3.5-8.3-8l-0.5-14.4c-0.2-4.6,3.4-8.4,8-8.5c4.6-0.2,8.4,3.4,8.5,8l0.5,14.4
				c0.2,4.6-3.4,8.4-8,8.5C936.1,945.9,936.1,945.9,936,945.9z"/>
			<path class="st4" d="M899.2,901.9c-0.1,0-0.2,0-0.3,0c-7.1-0.2-12.8-6.1-12.6-13.2l3.4-158.7c0.2-7.1,6-12.8,13.2-12.6
				c7.1,0.2,12.8,6.1,12.6,13.2l-3.4,158.7C911.9,896.3,906.2,901.9,899.2,901.9z"/>
			<path class="st4" d="M935.5,936.1c-7,0-12.7-5.6-12.9-12.6c-0.5-18.2-1.1-35.6-1.8-52.4c-1.4-36.1-2.8-73.4-2.4-122.5
				c0.1-7.1,5.8-12.8,12.9-12.8c0,0,0.1,0,0.1,0c7.1,0.1,12.9,5.9,12.8,13c-0.4,48.5,1,85.5,2.4,121.2c0.6,16.9,1.3,34.3,1.8,52.7
				c0.2,7.1-5.5,13.1-12.6,13.2C935.7,936.1,935.6,936.1,935.5,936.1z"/>
			<g>
				<path class="st1" d="M894.5,627.9c4.3-25,67.3-25.5,67.3,13.2c0,7-3.3,86-10.9,122.4c-4,19.1-65.9,10.6-73-9.2
					C874.2,744.2,891.8,643.7,894.5,627.9z"/>
				<path class="st4" d="M947,616c-0.6-2.5-1.2-4.9-1.8-7.4c-1.4-5.6-2.7-11.3-4-16.8c-2-3.3-3.9-6.5-5.9-9.8
					c-3.7-8.9-7.3-17.8-11-26.7c-1.9-1.2-11.2-6.6-21.8-3.4c-14.8,4.5-18.2,21.6-18.6,23.8c-1.9,10.4,1.3,19,4,25
					c2.7,6,6,11.3,9.2,15.5c5.3,6.9,9.1,10,12.9,12.1C923.4,635.5,945.2,617.5,947,616z"/>
				<g>
					<g>
						<path class="st8" d="M926,605.6c9.4-15.1,1.3-53.2-18.7-51.5c-11.2,0.9-17.8,11.9-20.3,22.3c0,1.7-2.2,13.6,9.1,28.4
							C907.3,619.3,919.7,615.7,926,605.6z"/>
					</g>
				</g>
			</g>
			<path class="st12" d="M937.7,584.9c1.7-14.2-9.3-26.7-23.7-27c-12.3-0.2-22.9,9.1-24.3,21.3c-1.7,14.2,9.3,26.7,23.7,27
				C925.7,606.4,936.3,597.1,937.7,584.9z"/>
			<path class="st13" d="M922,552.5c19.7,6,32.7,21.2,32.3,35.4C954,602.2,947,616,947,616c-1.2,1.4-2.5,2.6-3.8,3.5
				c-9.8,7.4-21,11.4-25.3,10.5c2-3.8,2.6-13.6,4.6-17.4l9.1-24l-8.5-27.3l-14.8-10.4C908.4,550.9,918.8,551.5,922,552.5z"/>
			<path class="st17" d="M901.3,651.6c-0.3,0-0.7-0.2-0.8-0.5c-0.5-1.1-0.9-2.2-1-3.3c-0.3-2.9,0.8-4.9,1.9-6.6
				c0.8-1.4,1.5-2.5,1.5-4.1c0-2-1.2-3.2-2.4-4.6c-1.3-1.4-2.8-3-2.7-5.4c0.1-2.9,2.4-5.8,6.8-8.5c0.4-0.3,1-0.1,1.3,0.3
				c0.3,0.4,0.1,1-0.3,1.3c-3.8,2.3-5.8,4.7-5.9,6.9c0,1.7,1,2.8,2.2,4.1c1.4,1.5,2.9,3.1,2.9,5.9c0,2.1-0.9,3.6-1.8,5
				c-1,1.6-1.9,3.1-1.6,5.4c0.1,0.9,0.4,1.8,0.8,2.7c0.2,0.5,0.1,1-0.4,1.3C901.6,651.6,901.4,651.6,901.3,651.6z"/>
			<path class="st9" d="M928.9,576.8c0.1-0.3,0.1-0.6,0.1-0.9c0-2.4-1.7-4.3-4-4.7c0.3-0.6,0.5-1.3,0.5-2.1c0-1.7-0.9-3.2-2.3-4.1
				c0-0.2,0.1-0.4,0.1-0.7c0-2.5-1.9-4.5-4.3-4.7c-0.6-1.9-2.4-3.3-4.5-3.3c-0.9,0-1.7,0.2-2.4,0.7c-0.8-0.7-1.9-1.1-3-1.1
				c-1.1,0-2.2,0.4-3,1.1c-0.3-0.1-0.6-0.1-1-0.1c-2.6,0-4.7,2.1-4.7,4.7c0,0,0,0,0,0c-0.1,0-0.1,0-0.2,0c-2.6,0-4.7,2.1-4.7,4.7
				c0,0,0,0,0,0c-0.2,0-0.3,0-0.5,0c-2.6,0-4.7,2.1-4.7,4.7c0,2.6,2.1,4.7,4.7,4.7c1,0,1.9-0.3,2.6-0.8c0.7,1.7,2.4,3,4.4,3
				c1.4,0,2.7-0.6,3.6-1.7c0.7,1.6,2.4,2.8,4.3,2.8c1.3,0,2.5-0.5,3.3-1.4c0.9,1.3,2.3,2.1,3.9,2.1c0.6,0,1.2-0.1,1.7-0.3
				c-0.2,0.5-0.3,1-0.3,1.6c0,2.6,2.1,4.7,4.7,4.7c0.7,0,1.4-0.2,2-0.4c0.6,0.3,1.3,0.4,2,0.4c2.6,0,4.7-2.1,4.7-4.7
				C931.9,579.2,930.7,577.5,928.9,576.8z"/>
			<path class="st4" d="M913.7,614.3c8.8-2.8,18.9-24.5,11.4-42.6S909.5,554,908.4,554c-1.1,0.1-1.2-3.1,0-3.1c1.2,0,9-0.1,14.9,7
				c8.7,10.4,18.1,37.6,1.9,64.3C912,643.9,913.7,614.3,913.7,614.3z"/>
			<path class="st17" d="M915.4,655.7c-0.2,0-0.4-0.1-0.6-0.3c-0.4-0.4-0.3-1,0-1.3c4.2-3.9,6-7.2,5.4-9.9c-0.3-1.4-1.2-2.2-2.4-3.2
				c-0.9-0.7-1.8-1.6-2.7-2.8c-2.9-4.1-2.9-10.2-0.1-18.2c0.2-0.5,0.7-0.7,1.2-0.6c0.5,0.2,0.7,0.7,0.6,1.2
				c-2.6,7.4-2.6,13-0.1,16.5c0.7,1,1.6,1.8,2.4,2.5c1.2,1.1,2.5,2.2,3,4.2c0.8,3.4-1.2,7.3-5.9,11.7
				C915.9,655.6,915.6,655.7,915.4,655.7z"/>
		</g>
		<path class="st8" d="M959.5,616.3c2.5,2.2,3.8,6.2,3.8,6.2s-18.3,3.6-25.4,29.1c-7.1,25.5,9.3,57.5,19.4,63
			c4.7,2.5,3.4,1.8,3.4,1.8l-0.2,6.1c0,0-1,3.1-12-5.1c-10.9-8.2-27.1-50.3-16.5-75.5C942.4,616.7,959.5,616.3,959.5,616.3z"/>
		<path class="st1" d="M969.6,775.9c-5.2,0-9.7-3.8-10.5-9.1c-0.7-4.3-16-106.5-17.2-118.1c-0.6-5.9,3.6-11.1,9.5-11.7
			c5.8-0.6,11.1,3.6,11.7,9.5c0.9,8.9,11.6,80.6,17.1,117.2c0.9,5.8-3.1,11.2-9,12.1C970.6,775.9,970.1,775.9,969.6,775.9z"/>
		<path class="st15" d="M881,922c-0.1,0-0.1,0-0.2,0c-0.7-0.1-1.2-0.8-1.1-1.5c0.8-5.3,2.5-12.7,2.5-12.8c0.2-0.7,0.9-1.1,1.6-1
			c0.7,0.2,1.1,0.9,1,1.6c0,0.1-1.7,7.4-2.4,12.6C882.2,921.5,881.6,922,881,922z"/>
		<path class="st15" d="M890.1,917.3c-0.2,0-0.3,0-0.5-0.1l-12.3-4.9c-0.7-0.3-1-1-0.7-1.7c0.3-0.7,1-1,1.7-0.7l12.3,4.9
			c0.7,0.3,1,1,0.7,1.7C891.1,917,890.6,917.3,890.1,917.3z"/>
		<path class="st15" d="M931.6,961c-0.5,0-0.9-0.2-1.1-0.7l-7.6-13.8c-0.3-0.6-0.1-1.4,0.5-1.8c0.6-0.3,1.4-0.1,1.8,0.5l7.6,13.8
			c0.3,0.6,0.1,1.4-0.5,1.8C932.1,960.9,931.9,961,931.6,961z"/>
		<path class="st15" d="M920,955.3c-0.6,0-1.2-0.5-1.3-1.1c-0.1-0.7,0.4-1.4,1.1-1.5l16.3-2.8c0.7-0.1,1.4,0.4,1.5,1.1
			c0.1,0.7-0.4,1.4-1.1,1.5l-16.3,2.8C920.1,955.3,920.1,955.3,920,955.3z"/>
	</g>
</g>
</svg>
