<?xml version="1.0" encoding="utf-8"?>
<!-- Generator: Adobe Illustrator 22.1.0, SVG Export Plug-In . SVG Version: 6.00 Build 0)  -->
<svg version="1.1" id="Layer_1" xmlns="http://www.w3.org/2000/svg" xmlns:xlink="http://www.w3.org/1999/xlink" x="0px" y="0px"
	 viewBox="0 0 1200 800" style="enable-background:new 0 0 1200 800;" xml:space="preserve">
<style type="text/css">
	.st0{fill:url(#SVGID_2_);}
	.st1{clip-path:url(#SVGID_4_);fill:url(#SVGID_5_);}
	.st2{fill:#FFFFFF;}
	.st3{fill:url(#SVGID_6_);}
	.st4{clip-path:url(#SVGID_8_);fill:url(#SVGID_9_);}
	.st5{fill:#94918D;}
	.st6{fill:#FCFCFC;}
	.st7{fill:#DBDBDB;}
	.st8{fill:#3DA191;}
	.st9{fill:#56E2CC;}
	.st10{fill:#3F3F3F;}
	.st11{fill:#6B6B6B;}
	.st12{enable-background:new    ;}
	.st13{fill:#595959;}
	.st14{fill:#FE6C90;}
	.st15{fill:#308072;}
	.st16{fill:#D4D4D4;}
	.st17{fill:#41AB9A;}
	.st18{fill:#D9D9D9;}
	.st19{fill:#8C8C8C;}
	.st20{fill:#838383;}
	.st21{fill:#BDBDBD;}
	.st22{fill:#9E9E9E;}
	.st23{fill:#808080;}
	.st24{fill:#C5C5C5;}
	.st25{fill:#A7A7A7;}
	.st26{fill:#969696;}
	.st27{fill:#707070;}
	.st28{fill:#2E2E2E;}
	.st29{fill:#1A1A1A;}
	.st30{fill:#242424;}
	.st31{fill:#4F4F4F;}
	.st32{fill:#BFBFBF;}
	.st33{clip-path:url(#SVGID_13_);}
	.st34{fill:#0DBFFF;}
	.st35{fill:#CCCCCC;}
	.st36{clip-path:url(#SVGID_15_);}
	.st37{fill:#4D4D4D;}
	.st38{fill:#5D5D5D;}
	.st39{clip-path:url(#SVGID_17_);fill:#CCCCCC;}
	.st40{fill:#B0B0B0;}
	.st41{fill:#F2F2F2;}
	.st42{fill:#FFEE00;}
	.st43{fill:#FF472E;}
	.st44{fill:#B585FF;}
	.st45{fill:#3D3D3D;}
	.st46{fill:#30CBFF;}
	.st47{fill:#FF8682;}
	.st48{clip-path:url(#SVGID_19_);fill:#CCCCCC;}
	.st49{fill:#B8B8B8;}
	.st50{fill:#616161;}
	.st51{fill:#DEDEDE;}
	.st52{fill:#F7CDB3;}
	.st53{fill:#6E6E6E;}
	.st54{fill:#636363;}
	.st55{fill:#FAC285;}
	.st56{fill:#474747;}
	.st57{fill:#D6C6B1;}
	.st58{fill:#3B877B;}
	.st59{fill:#51BAAA;}
	.st60{fill:#63E2CF;}
	.st61{fill:#999999;}
	.st62{fill:#666666;}
	.st63{fill:#AD3F45;}
	.st64{fill:#C7494F;}
	.st65{fill:#EB575D;}
	.st66{fill:#525252;}
	.st67{fill:#BABABA;}
	.st68{fill:#DBB69D;}
	.st69{fill:#757575;}
	.st70{fill:#594432;}
	.st71{fill:#211913;}
	.st72{fill:#634029;}
	.st73{fill:#5E5E5E;}
	.st74{fill:#4A4A4A;}
	.st75{fill:#696969;}
</style>
<g>
	<g>
		<g>
			
				<linearGradient id="SVGID_2_" gradientUnits="userSpaceOnUse" x1="600" y1="1" x2="600" y2="801" gradientTransform="matrix(1 0 0 -1 0 800)">
				<stop  offset="0" style="stop-color:#FF779B"/>
				<stop  offset="0.2156" style="stop-color:#F38FAD"/>
				<stop  offset="0.6693" style="stop-color:#D6CEDB"/>
				<stop  offset="1" style="stop-color:#BFFFFF"/>
			</linearGradient>
			<rect id="SVGID_1_" y="-1" class="st0" width="1200" height="800"/>
		</g>
		<g>
			<defs>
				<rect id="SVGID_3_" y="-1" width="1200" height="800"/>
			</defs>
			<clipPath id="SVGID_4_">
				<use xlink:href="#SVGID_3_"  style="overflow:visible;"/>
			</clipPath>
			
				<linearGradient id="SVGID_5_" gradientUnits="userSpaceOnUse" x1="963.4448" y1="910.5973" x2="1063.4941" y2="810.548" gradientTransform="matrix(-0.9057 0.4238 -0.4238 -0.9057 2128.6355 334.0432)">
				<stop  offset="0" style="stop-color:#FDB9CA"/>
				<stop  offset="5.967349e-02" style="stop-color:#FDB3C5"/>
				<stop  offset="0.6976" style="stop-color:#FE7496"/>
				<stop  offset="1" style="stop-color:#FE5C83"/>
			</linearGradient>
			<path class="st1" d="M821.2,57.7C849.3,60,879.3,22.3,929.1,25c82.4,4.5,94.2-61.8,94.2-61.8L999-88.7c0,0-95.7,50.4-125.9,49.7
				c-61.8-1.5-177.2-15.2-177.2-15.2C658.9-51.3,748.1,51.8,821.2,57.7z"/>
		</g>
	</g>
	<g>
		<rect y="-2.2" class="st2" width="1200" height="799.2"/>
	</g>
	
		<linearGradient id="SVGID_6_" gradientUnits="userSpaceOnUse" x1="554.7444" y1="282.6812" x2="1278.7881" y2="506.9611" gradientTransform="matrix(1 0 0 -1 0 800)">
		<stop  offset="0" style="stop-color:#FE5C83"/>
		<stop  offset="0.3024" style="stop-color:#FE7496"/>
		<stop  offset="0.9403" style="stop-color:#FDB3C5"/>
		<stop  offset="1" style="stop-color:#FDB9CA"/>
	</linearGradient>
	<path class="st3" d="M1139,87.9c-86.8,119.9-432.7-51.2-487.3,84.6c-55.4,138-118.3,117.5-143.5,235.9
		c-15.6,73.2-0.4,222.1,135.8,192.1c153.3-33.8,213.4,110.5,410.9,95.7c106.4-8,175-52.3,198.1-74.2V-2h-54.3
		C1187.2,22.6,1152.6,69.2,1139,87.9z"/>
	<g>
		<g>
			<defs>
				<rect id="SVGID_7_" width="1119.9" height="799"/>
			</defs>
			<clipPath id="SVGID_8_">
				<use xlink:href="#SVGID_7_"  style="overflow:visible;"/>
			</clipPath>
			
				<linearGradient id="SVGID_9_" gradientUnits="userSpaceOnUse" x1="118.6921" y1="790.7653" x2="246.4715" y2="662.9859" gradientTransform="matrix(1.347 -0.1519 0.1519 -1.0665 -300.7949 931.6794)">
				<stop  offset="0" style="stop-color:#FDB9CA"/>
				<stop  offset="5.967349e-02" style="stop-color:#FDB3C5"/>
				<stop  offset="0.6976" style="stop-color:#FE7496"/>
				<stop  offset="1" style="stop-color:#FE5C83"/>
			</linearGradient>
			<path class="st4" d="M247.2,88.2c18.8,52.6-107.6,51.5-151.5,86.5C9.3,243.5,3.2,337.7-61.6,327.6
				C-120.2,318.5-37-26.2,58.7-77.5c58.6-31.4,165.5,27.9,200.1,83C280.7,40.4,239.9,67.8,247.2,88.2z"/>
		</g>
	</g>
</g>
<g>
	<g>
		<defs>
			<path id="SVGID_10_" d="M0,0v800h1200V0H0z M1120,727H80V73h996c-9.6,23-37.8,63.6-48.9,80.2c-71.5,107.2-356.5-45.6-401.5,75.9
				c-45.7,123.3-97.5,105-118.3,210.9c-12.9,65.5-0.3,198.6,111.9,171.8c126.4-30.2,175.9,98.8,338.6,85.6
				c86-7,142.1-45.3,162.1-65.2L1120,727L1120,727z"/>
		</defs>
		<clipPath id="SVGID_11_">
			<use xlink:href="#SVGID_10_"  style="overflow:visible;"/>
		</clipPath>
	</g>
</g>
<g>
	<path class="st5" d="M697.6,321l5.2-12.4c-0.2,0.5,0.8,1.5,3,2.8c3.7,2.2,9.3,4.3,12.5,4.8c1.3,0.2,2,0.1,2.2-0.2l-5.2,12.4
		c-0.1,0.3-0.8,0.4-2.2,0.2c-3.2-0.5-8.8-2.7-12.5-4.8C698.4,322.5,697.3,321.5,697.6,321z"/>
	<g>
		<g>
			<path class="st6" d="M681.5,263.6c-6.3-3.4-12.1-3.5-18.1,0c-0.4,0.2-0.9,0.5-1.3,0.8v14.4c2.1-2.4,4.5-4.4,7-5.9
				c3.1-1.8,6-2.5,8.5-2.2c3.3,6.6,8.8,8.9,13.3,8.6C691,272.5,688.1,267.2,681.5,263.6z"/>
			<path class="st7" d="M677.7,270.8c1.5,2,2.3,4.8,2.3,8.3c0,10.5-7.4,23.3-16.5,28.6c-0.5,0.3-0.9,0.5-1.4,0.7v10.9
				c2.4-0.2,4.9-1,7.1-2.3c12-6.9,21.8-23.8,21.7-37.6C687.6,274.1,683.1,271.4,677.7,270.8z"/>
			<g>
				<g>
					
						<ellipse transform="matrix(0.5025 -0.8646 0.8646 0.5025 -22.2784 785.9687)" class="st2" cx="671.8" cy="412.3" rx="88.6" ry="51.3"/>
				</g>
			</g>
			<path class="st8" d="M701.3,319.5c-12.3-7.1-29.2-6.1-47.9,4.7c-37.2,21.5-67.3,73.6-67.2,116.3c0.1,21.2,7.6,36.2,19.7,43.2
				l18.2,10.6c-12.1-7-19.6-22-19.7-43.2c-0.1-42.8,30-94.8,67.2-116.3c18.7-10.8,35.7-11.8,47.9-4.7L701.3,319.5z"/>
			<g>
				<g>
					<path class="st9" d="M671.5,334.8c37.2-21.5,67.5-4.2,67.6,38.5c0.1,42.8-29.9,94.9-67.2,116.3c-37.2,21.5-67.5,4.2-67.6-38.5
						S634.3,356.3,671.5,334.8z M672,484.5c34.7-20,62.8-68.6,62.7-108.5s-28.4-56-63.1-35.9c-34.7,20-62.8,68.6-62.7,108.5
						S637.2,504.5,672,484.5L672,484.5z"/>
				</g>
			</g>
			<g>
				<g>
					<path class="st10" d="M614.1,422.8l2.9-0.6l-0.1,0.4l-2.9,0.6C614,423.1,614,422.9,614.1,422.8z"/>
				</g>
				<g>
					<path class="st11" d="M630.1,466.1c0,0,0,0.1,0.1,0.2c0,0.1,0,0.2,0,0.3l-0.1,0.2l-0.7,0.4v1.4v0.1l-0.1,0.1l-0.1,0.1L629,469
						l-0.2,0.1h-0.1h-0.1V469v-1.4l-2.4,1.4h-0.1H626v-0.1v-0.2v-0.2v-0.2v-0.2v-0.2l2.1-5.3l0.1-0.1l0.1-0.1l0.2-0.1
						c0.1,0,0.1-0.1,0.2-0.1c0.1-0.1,0.2-0.1,0.3-0.1l0.2-0.1h0.1v0.1v4.3l0.7-0.4L630.1,466.1z M628.5,466.9v-3.7l-1.9,4.8
						L628.5,466.9L628.5,466.9z"/>
				</g>
				<g class="st12">
					<g>
						<path class="st10" d="M728.2,350.1c0,0.1,0.1,0.2,0.1,0.2l-2.8,3.1l-0.1-0.2L728.2,350.1z"/>
					</g>
					<g>
						<path class="st10" d="M725.2,345.2c0.1,0.1,0.2,0.3,0.3,0.4l-4.3,5.4l-0.1,0.1l-0.3-0.4l0.1-0.1L725.2,345.2z"/>
					</g>
					<g>
						<path class="st13" d="M728.8,378.8l-0.1,0.7c0.1,11.4-2.5,23.9-7.3,36.4l-0.4,0.7c-2.3,6-5.2,12-8.5,17.9
							c-3.4,5.9-7.1,11.4-11.2,16.5l-0.5,0.5c-8.3,10.6-17.9,19.1-27.9,24.9l-0.5,0.2c-10,5.8-19.6,8.4-28,7.6L644,484
							c-4.1-0.3-7.9-1.4-11.3-3.4c-3.4-1.9-6.3-4.6-8.7-7.8l-0.2-0.5c-5-6.7-7.7-16.2-7.8-27.6l0.1-0.7c-0.1-11.4,2.5-23.9,7.3-36.4
							l0.4-0.7c2.3-6,5.2-12,8.5-17.9c3.4-5.9,7.1-11.4,11.2-16.5l0.5-0.5c8.3-10.6,17.9-19.1,27.9-24.9l0.5-0.2
							c10-5.8,19.6-8.4,28-7.6l0.4,0.2c4.1,0.3,7.9,1.4,11.3,3.4c3.4,1.9,6.3,4.6,8.7,7.8l0.2,0.5
							C726.1,357.8,728.7,367.3,728.8,378.8z M672.6,476.2c31-17.9,56.1-61.4,56-97s-25.4-50-56.4-32.1s-56.1,61.4-56,97
							C616.3,479.7,641.6,494.1,672.6,476.2L672.6,476.2z"/>
					</g>
				</g>
				<g>
					<path class="st10" d="M733.8,375.9c0,0.1,0,0.2,0,0.3c0,0.1,0,0.2,0,0.3l-5,2.9l-0.1,0.1v-0.6l0.1-0.1L733.8,375.9z"/>
				</g>
				<g>
					<path class="st10" d="M614.4,452.3v0.3l-3.1,2.2c0-0.1,0-0.2,0-0.3L614.4,452.3z"/>
				</g>
				<g>
					<path class="st10" d="M652.9,355.7l1,2.8l-0.3,0.3l-1-2.8C652.7,355.9,652.8,355.8,652.9,355.7z"/>
				</g>
				<g>
					<path class="st10" d="M641.4,368.3l2.5,3.5l0.1,0.1l-0.5,0.6l-0.1-0.1l-2.5-3.5C641.1,368.7,641.3,368.5,641.4,368.3z"/>
				</g>
				<g>
					<path class="st10" d="M672.2,341c0.1-0.1,0.2-0.1,0.3-0.1v5.8v0.1l-0.5,0.3V347v-5.8C672,341.2,672.1,341.1,672.2,341z"/>
				</g>
				<g>
					<path class="st10" d="M659.1,350.2l0.7,3.1l-0.3,0.3l-0.7-3.1C658.9,350.3,659,350.2,659.1,350.2z"/>
				</g>
				<g>
					<path class="st10" d="M665.6,345.2l0.3,3.3l-0.3,0.2l-0.3-3.3C665.4,345.4,665.5,345.3,665.6,345.2z"/>
				</g>
				<g>
					<path class="st10" d="M678.7,337.7c0.1,0,0.2-0.1,0.3-0.1l-0.3,3.7l-0.3,0.1L678.7,337.7z"/>
				</g>
				<g>
					<path class="st10" d="M612.3,431l3-1l-0.1,0.4l-3,1C612.3,431.2,612.3,431.1,612.3,431z"/>
				</g>
				<g>
					<path class="st10" d="M611.3,439l3.1-1.4v0.4l-3.1,1.4C611.3,439.3,611.3,439.2,611.3,439z"/>
				</g>
				<g>
					<polygon class="st10" points="631.2,382.8 633.2,384.3 633,384.6 630.9,383.2 					"/>
				</g>
				<g>
					<path class="st10" d="M622.8,398.4l2.5,0.7l-0.2,0.4l-2.5-0.7C622.6,398.7,622.7,398.5,622.8,398.4z"/>
				</g>
				<g>
					<path class="st10" d="M616.4,414.6l2.8-0.2l-0.1,0.4l-2.8,0.2C616.3,414.9,616.3,414.7,616.4,414.6z"/>
				</g>
				<g>
					<path class="st10" d="M619.4,406.3l4.3,0.4h0.1l-0.3,0.7h-0.1l-4.3-0.4C619.2,406.8,619.3,406.5,619.4,406.3z"/>
				</g>
				<g>
					<path class="st10" d="M636,375.5l1.8,1.8l-0.3,0.4l-1.8-1.8C635.9,375.7,636,375.6,636,375.5z"/>
				</g>
				<g>
					<path class="st10" d="M733.4,368.5c0,0.1,0,0.2,0,0.3l-3.1,2.2v-0.3L733.4,368.5z"/>
				</g>
				<g>
					<path class="st10" d="M730.6,355.5c0,0.1,0.1,0.2,0.1,0.3l-2.9,2.8l-0.1-0.3L730.6,355.5z"/>
				</g>
				<g>
					<path class="st10" d="M685.2,335.1c0.1,0,0.2-0.1,0.3-0.1l-0.7,3.8l-0.3,0.1L685.2,335.1z"/>
				</g>
				<g>
					<path class="st10" d="M732.3,361.7c0,0.1,0.1,0.2,0.1,0.3l-3,2.5l-0.1-0.3L732.3,361.7z"/>
				</g>
				<g>
					<path class="st10" d="M616.1,443.8v0.6l-0.1,0.1l-5,2.9c0-0.1,0-0.2,0-0.3c0-0.1,0-0.2,0-0.3l5-2.9L616.1,443.8z"/>
				</g>
				<g>
					<path class="st10" d="M697.4,332.7c0.1,0,0.2,0,0.3,0l-1.3,3.9h-0.3L697.4,332.7z"/>
				</g>
				<g>
					<path class="st10" d="M703,332.8c0.2,0,0.3,0,0.5,0l-2.5,6.4l-0.1,0.2h-0.5l0.1-0.2L703,332.8z"/>
				</g>
				<g>
					<path class="st10" d="M691.5,333.5c0.1,0,0.2,0,0.3-0.1l-1,3.9l-0.3,0.1L691.5,333.5z"/>
				</g>
				<g>
					<path class="st10" d="M721.8,341.2c0.1,0.1,0.1,0.1,0.2,0.2l-2.5,3.5l-0.2-0.2L721.8,341.2z"/>
				</g>
				<g>
					<polygon class="st10" points="713.3,335.4 713.5,335.5 711.5,339.3 711.2,339.2 					"/>
				</g>
				<g>
					<path class="st10" d="M708.4,333.7c0.1,0,0.2,0,0.3,0.1l-1.8,3.9l-0.2-0.1L708.4,333.7z"/>
				</g>
				<g>
					<path class="st10" d="M647,361.8l1.3,2.5l-0.3,0.3l-1.3-2.5C646.8,362,646.9,361.9,647,361.8z"/>
				</g>
				<g>
					<path class="st10" d="M701.2,450.8L701.2,450.8l2.6,3.6c-0.2,0.2-0.3,0.4-0.5,0.6l-2.5-3.5l-0.1-0.1L701.2,450.8z"/>
				</g>
				<g>
					<polygon class="st10" points="715.9,431.4 718.2,432.4 718,432.8 715.7,431.8 					"/>
				</g>
				<g>
					<polygon class="st10" points="711.7,438.7 713.8,440.1 713.6,440.5 711.5,439 					"/>
				</g>
				<g>
					<path class="st10" d="M707.1,445.7l1.8,1.8c-0.1,0.1-0.2,0.2-0.3,0.4l-1.8-1.8L707.1,445.7z"/>
				</g>
				<g>
					<path class="st10" d="M685.2,469.8l0.7,3.1c-0.1,0.1-0.2,0.2-0.3,0.2l-0.7-3.1L685.2,469.8z"/>
				</g>
				<g>
					<path class="st10" d="M691.1,464.5l1,2.8c-0.1,0.1-0.2,0.2-0.3,0.3l-1-2.8L691.1,464.5z"/>
				</g>
				<g>
					<path class="st10" d="M696.8,458.7l1.3,2.5c-0.1,0.1-0.2,0.2-0.3,0.3l-1.3-2.5L696.8,458.7z"/>
				</g>
				<g>
					<path class="st10" d="M719.7,423.9l2.5,0.7c-0.1,0.1-0.1,0.3-0.2,0.4l-2.5-0.7L719.7,423.9z"/>
				</g>
				<g>
					<polygon class="st10" points="717.8,337.9 718,338.1 715.7,341.8 715.5,341.6 					"/>
				</g>
				<g>
					<path class="st10" d="M615.4,458.8l0.1,0.3l-3,2.5c0-0.1-0.1-0.2-0.1-0.3L615.4,458.8z"/>
				</g>
				<g>
					<path class="st10" d="M730.4,385.3l3.1-1.4c0,0.1,0,0.2,0,0.4l-3.1,1.4V385.3z"/>
				</g>
				<g>
					<path class="st10" d="M729.5,392.9l3-1c0,0.1,0,0.3-0.1,0.4l-3,1L729.5,392.9z"/>
				</g>
				<g>
					<path class="st10" d="M679.1,474.5l0.3,3.3c-0.1,0.1-0.2,0.2-0.3,0.2l-0.3-3.3L679.1,474.5z"/>
				</g>
				<g>
					<path class="st10" d="M725.7,408.5l2.8-0.2c0,0.1-0.1,0.3-0.1,0.4l-2.8,0.2L725.7,408.5z"/>
				</g>
				<g>
					<path class="st10" d="M721.2,415.9L721.2,415.9l4.4,0.4c-0.1,0.2-0.2,0.5-0.3,0.7l-4.3-0.4h-0.1L721.2,415.9z"/>
				</g>
				<g>
					<path class="st10" d="M727.9,400.7l2.9-0.6c0,0.1-0.1,0.3-0.1,0.4l-2.9,0.6L727.9,400.7z"/>
				</g>
				<g>
					<path class="st10" d="M625.3,478.4l0.2,0.2l-2.5,3.5c-0.1-0.1-0.1-0.1-0.2-0.2L625.3,478.4z"/>
				</g>
				<g>
					<polygon class="st10" points="629.1,481.5 629.3,481.7 627,485.4 626.8,485.2 					"/>
				</g>
				<g>
					<polygon class="st10" points="626.7,390.5 629,391.5 628.8,391.9 626.5,390.9 					"/>
				</g>
				<g>
					<path class="st10" d="M623.7,472.2l0.3,0.4l-0.1,0.1l-4.3,5.4c-0.1-0.1-0.2-0.3-0.3-0.4l4.3-5.4L623.7,472.2z"/>
				</g>
				<g>
					<path class="st10" d="M617,464.7l0.1,0.3l-2.9,2.8c0-0.1-0.1-0.2-0.1-0.3L617,464.7z"/>
				</g>
				<g>
					<path class="st10" d="M619.2,469.9l0.1,0.3l-2.8,3.1c0-0.1-0.1-0.2-0.1-0.3L619.2,469.9z"/>
				</g>
				<g>
					<polygon class="st10" points="633.3,484 633.5,484.1 631.5,487.9 631.2,487.8 					"/>
				</g>
				<g>
					<path class="st10" d="M672.8,476.2v0.1v5.8c-0.1,0.1-0.2,0.1-0.3,0.2s-0.2,0.1-0.3,0.2v-5.8v-0.1L672.8,476.2z"/>
				</g>
				<g>
					<path class="st10" d="M654,486l0.3-0.1l-1,3.9c-0.1,0-0.2,0-0.3,0.1L654,486z"/>
				</g>
				<g>
					<path class="st10" d="M659.9,484.4l0.3-0.1l-0.7,3.8c-0.1,0-0.2,0.1-0.3,0.1L659.9,484.4z"/>
				</g>
				<g>
					<path class="st10" d="M666,482.1l0.3-0.1l-0.3,3.7c-0.1,0.1-0.2,0.1-0.3,0.1L666,482.1z"/>
				</g>
				<g>
					<path class="st10" d="M637.9,485.6l0.2,0.1l-1.8,3.9c-0.1,0-0.2,0-0.3-0.1L637.9,485.6z"/>
				</g>
				<g>
					<path class="st10" d="M648.3,486.7h0.3l-1.3,3.9c-0.1,0-0.2,0-0.3,0L648.3,486.7z"/>
				</g>
				<g>
					<path class="st10" d="M643.9,483.9l0.5,0.1l-0.1,0.2l-2.5,6.4c-0.2,0-0.3,0-0.5,0l2.5-6.4L643.9,483.9z"/>
				</g>
				<g>
					<path class="st11" d="M699.4,342.5L699.4,342.5L699.4,342.5l0.1,0.1v0.2c0,0.1,0,0.2,0,0.3l-0.1,0.2l-2.1,1.2v1.9
						c0.1-0.1,0.2-0.1,0.3-0.2s0.2-0.1,0.4-0.2c0.3-0.2,0.6-0.3,0.8-0.4c0.2,0,0.4,0,0.6,0c0.2,0.1,0.3,0.2,0.4,0.4
						c0.1,0.2,0.1,0.4,0.1,0.7c0,0.4-0.1,0.7-0.2,1c-0.1,0.3-0.3,0.7-0.5,1s-0.4,0.6-0.7,0.8c-0.3,0.3-0.6,0.5-0.9,0.7
						c-0.2,0.1-0.4,0.2-0.5,0.3s-0.3,0.1-0.4,0.1c-0.1,0-0.2,0-0.3,0h-0.2l0,0v-0.1v-0.1v-0.2V350v-0.1v-0.1l0.1-0.1h0.1
						c0.1,0,0.1,0,0.2,0c0.1,0,0.2,0,0.4-0.1c0.2,0,0.3-0.1,0.6-0.3c0.2-0.1,0.4-0.3,0.6-0.4c0.2-0.1,0.3-0.3,0.4-0.5
						c0.1-0.2,0.2-0.4,0.3-0.6s0.1-0.5,0.1-0.7s0-0.4-0.1-0.5s-0.1-0.2-0.3-0.3c-0.1,0-0.3,0-0.5,0c-0.2,0.1-0.4,0.2-0.7,0.3
						c-0.2,0.1-0.3,0.2-0.5,0.3c-0.1,0.1-0.3,0.2-0.4,0.2c-0.1,0-0.1,0.1-0.2,0c0,0-0.1-0.1-0.1-0.2v-2.7c0-0.1,0-0.2,0.1-0.3
						c0-0.1,0.1-0.2,0.2-0.2L699.4,342.5z"/>
				</g>
				<g>
					<polygon class="st11" points="712.5,354.6 712.7,354.5 712.8,354.4 712.8,354.4 712.8,354.5 712.9,360.4 713.9,359.8 
						714,359.8 714,359.8 714.1,359.9 714.1,360.1 714.1,360.2 714,360.4 714,360.5 713.9,360.5 710.9,362.3 710.8,362.3 
						710.8,362.2 710.7,362.2 710.7,362 710.7,361.8 710.8,361.7 710.8,361.6 710.9,361.5 712.1,360.8 712.1,355.7 710.9,357.2 
						710.8,357.3 710.7,357.3 710.7,357.2 710.7,357.1 710.7,356.9 710.7,356.8 710.7,356.7 710.8,356.6 712.1,354.8 712.2,354.8 
						712.3,354.7 712.4,354.6 					"/>
				</g>
				<g>
					<path class="st11" d="M718.8,352.8c0.1,0.4,0.1,0.9,0.1,1.4s0,1-0.1,1.5s-0.2,0.9-0.3,1.3c-0.2,0.4-0.4,0.8-0.6,1.1
						c-0.3,0.3-0.6,0.6-1,0.8c-0.4,0.2-0.7,0.3-0.9,0.3s-0.5-0.1-0.6-0.3c-0.2-0.2-0.3-0.5-0.3-0.9c-0.1-0.4-0.1-0.9-0.1-1.4
						s0-1,0.1-1.5s0.2-0.9,0.3-1.3c0.2-0.4,0.4-0.8,0.6-1.1c0.3-0.3,0.6-0.6,1-0.8c0.4-0.2,0.7-0.3,0.9-0.3s0.5,0.1,0.6,0.3
						C718.7,352.1,718.8,352.4,718.8,352.8z M718.1,355.5c0-0.2,0-0.5,0-0.7c0-0.3,0-0.6,0-0.9s-0.1-0.5-0.1-0.6
						c0-0.2-0.1-0.3-0.2-0.4c-0.1-0.1-0.1-0.2-0.2-0.2c-0.1,0-0.2-0.1-0.3,0c-0.1,0-0.2,0.1-0.4,0.2c-0.3,0.1-0.5,0.3-0.6,0.6
						c-0.2,0.2-0.3,0.5-0.4,0.8c-0.1,0.3-0.1,0.6-0.2,0.9c0,0.4,0,0.7,0,1.1c0,0.5,0,0.9,0.1,1.2c0,0.3,0.1,0.6,0.2,0.7
						c0.1,0.2,0.2,0.3,0.4,0.3s0.3,0,0.6-0.2c0.2-0.1,0.3-0.2,0.4-0.4c0.1-0.1,0.2-0.3,0.3-0.5s0.2-0.4,0.2-0.6
						c0.1-0.2,0.1-0.4,0.1-0.6C718.1,355.9,718.1,355.7,718.1,355.5L718.1,355.5z"/>
				</g>
				<g>
					<polygon class="st11" points="720,380.3 720.2,380.2 720.3,380.2 720.3,380.2 720.4,380.3 720.4,386.1 721.4,385.5 
						721.5,385.5 721.5,385.6 721.6,385.6 721.6,385.8 721.6,386 721.5,386.1 721.5,386.2 721.4,386.2 718.4,388 718.3,388 
						718.3,388 718.2,387.9 718.2,387.8 718.2,387.6 718.3,387.4 718.3,387.4 718.4,387.3 719.6,386.6 719.6,381.5 718.5,382.9 
						718.3,383.1 718.2,383.1 718.2,383 718.2,382.8 718.2,382.7 718.2,382.5 718.2,382.4 718.3,382.3 719.6,380.6 719.7,380.5 
						719.8,380.5 719.9,380.4 					"/>
				</g>
				<g>
					<path class="st11" d="M725.7,377.1L725.7,377.1L725.7,377.1l0.1,0.1v0.2c0,0.1,0,0.2,0,0.3l-0.1,0.2l-2.1,1.2v1.9
						c0.1-0.1,0.2-0.1,0.3-0.2s0.2-0.1,0.4-0.2c0.3-0.2,0.6-0.3,0.9-0.4c0.2,0,0.4,0,0.6,0.1c0.2,0.1,0.3,0.2,0.4,0.4
						c0.1,0.2,0.1,0.4,0.1,0.7c0,0.4,0,0.7-0.2,1.1c-0.1,0.3-0.3,0.7-0.4,1c-0.2,0.3-0.4,0.6-0.7,0.8c-0.3,0.3-0.6,0.5-0.9,0.7
						c-0.2,0.1-0.4,0.2-0.5,0.3c-0.2,0.1-0.3,0.1-0.4,0.1c-0.1,0-0.2,0-0.3,0.1h-0.2l0,0v-0.1v-0.1v-0.2v-0.2v-0.1v-0.1l0.1-0.1h0.1
						c0.1,0,0.1,0,0.3,0c0.1,0,0.2,0,0.4-0.1c0.2,0,0.3-0.1,0.6-0.2c0.2-0.1,0.4-0.3,0.6-0.4c0.2-0.2,0.3-0.3,0.4-0.5
						c0.1-0.2,0.2-0.4,0.3-0.6s0.1-0.5,0.1-0.7s0-0.4-0.1-0.5s-0.1-0.2-0.3-0.3s-0.3,0-0.5,0c-0.2,0.1-0.4,0.2-0.7,0.3
						c-0.2,0.1-0.3,0.2-0.5,0.3c-0.1,0.1-0.3,0.2-0.4,0.2c-0.1,0.1-0.1,0.1-0.2,0c0,0-0.1-0.1-0.1-0.2v-2.7c0-0.1,0-0.2,0.1-0.3
						c0-0.1,0.1-0.1,0.2-0.2L725.7,377.1z"/>
				</g>
				<g>
					<path class="st11" d="M711.9,415.7c0.3-0.2,0.5-0.3,0.7-0.3s0.4,0,0.5,0.1s0.2,0.2,0.3,0.4c0.1,0.2,0.1,0.4,0.1,0.6
						s0,0.4,0,0.7c0,0.2-0.1,0.5-0.2,0.8c-0.1,0.3-0.3,0.7-0.5,1.1s-0.5,0.9-0.8,1.5l-0.9,1.6l2.5-1.5h0.1h0.1v0.1v0.2v0.2v0.1v0.1
						l-0.1,0.1l-3.2,1.9h-0.1h-0.1v-0.1v-0.2v-0.2v-0.2l0.1-0.2l0.1-0.2l1.2-2.1c0.3-0.5,0.5-0.9,0.6-1.2c0.2-0.3,0.3-0.7,0.4-0.9
						c0.1-0.2,0.1-0.5,0.2-0.7c0-0.2,0-0.4,0-0.5s0-0.3-0.1-0.4c0-0.1-0.1-0.2-0.2-0.2c-0.1,0-0.2-0.1-0.3-0.1s-0.3,0.1-0.4,0.2
						c-0.2,0.1-0.4,0.2-0.5,0.4c-0.1,0.1-0.3,0.3-0.4,0.4c-0.1,0.1-0.2,0.3-0.3,0.4l-0.2,0.2h-0.1l0,0v-0.1v-0.2v-0.1v-0.1v-0.1
						l0.1-0.1c0-0.1,0.1-0.1,0.2-0.3c0.1-0.1,0.2-0.2,0.3-0.4c0.1-0.1,0.3-0.3,0.4-0.4C711.5,416,711.7,415.8,711.9,415.7z"/>
				</g>
				<g>
					<path class="st11" d="M718.6,413.8c0.1,0.4,0.1,0.9,0.1,1.4s0,1-0.1,1.5s-0.2,0.9-0.4,1.3s-0.4,0.8-0.6,1.1
						c-0.3,0.3-0.6,0.6-1,0.8c-0.4,0.2-0.7,0.3-0.9,0.3c-0.3,0-0.5-0.1-0.6-0.3c-0.1-0.2-0.3-0.5-0.3-0.9c-0.1-0.4-0.1-0.9-0.1-1.4
						s0-1,0.1-1.5s0.2-0.9,0.4-1.3s0.4-0.8,0.6-1.1c0.3-0.3,0.6-0.6,1-0.8c0.4-0.2,0.7-0.3,0.9-0.3c0.3,0,0.5,0.1,0.6,0.3
						C718.4,413.1,718.5,413.4,718.6,413.8z M717.9,416.5c0-0.2,0-0.5,0-0.7c0-0.3,0-0.6,0-0.9s-0.1-0.5-0.1-0.6
						c0-0.2-0.1-0.3-0.2-0.4c-0.1-0.1-0.1-0.2-0.2-0.2c-0.1,0-0.2,0-0.3,0s-0.2,0.1-0.4,0.2c-0.3,0.1-0.5,0.3-0.6,0.6
						c-0.2,0.2-0.3,0.5-0.4,0.8c-0.1,0.3-0.2,0.6-0.2,1c0,0.3,0,0.7,0,1.1c0,0.5,0,0.9,0.1,1.2c0.1,0.3,0.1,0.6,0.2,0.7
						c0.1,0.2,0.2,0.3,0.4,0.3c0.1,0,0.3,0,0.6-0.2c0.2-0.1,0.3-0.2,0.4-0.4c0.1-0.1,0.2-0.3,0.3-0.5s0.2-0.4,0.2-0.5
						c0.1-0.2,0.1-0.4,0.1-0.6C717.9,416.9,717.9,416.7,717.9,416.5L717.9,416.5z"/>
				</g>
				<g>
					<path class="st11" d="M697.1,443.6c0.3-0.2,0.5-0.3,0.7-0.3s0.4,0,0.5,0.1s0.2,0.2,0.3,0.4c0.1,0.2,0.1,0.4,0.1,0.6
						s0,0.4,0,0.7c0,0.2-0.1,0.5-0.2,0.8c-0.1,0.3-0.3,0.7-0.5,1.1s-0.5,0.9-0.8,1.5l-0.9,1.6l2.5-1.5h0.1h0.1v0.1v0.2v0.2v0.1
						l-0.1,0.1l-0.1,0.1l-3.2,1.9h-0.1h-0.1v-0.1V451v-0.2v-0.2l0.1-0.1l0.1-0.2l1.2-2c0.3-0.5,0.5-0.9,0.6-1.2
						c0.2-0.4,0.3-0.7,0.4-0.9c0.1-0.3,0.1-0.5,0.2-0.7c0-0.2,0-0.3,0-0.5s0-0.3-0.1-0.4c0-0.1-0.1-0.2-0.2-0.2
						c-0.1-0.1-0.2-0.1-0.3-0.1s-0.3,0.1-0.4,0.2c-0.2,0.1-0.4,0.2-0.5,0.4c-0.1,0.2-0.3,0.3-0.4,0.4c-0.1,0.1-0.2,0.3-0.3,0.4
						l-0.2,0.2h-0.1l0,0v-0.1v-0.2v-0.1v-0.1v-0.1l0.1-0.1c0-0.1,0.1-0.1,0.2-0.3c0.1-0.1,0.2-0.2,0.3-0.4c0.1-0.1,0.3-0.3,0.4-0.4
						C696.8,443.9,696.9,443.7,697.1,443.6z"/>
				</g>
				<g>
					<path class="st11" d="M703.2,440.2L703.2,440.2L703.2,440.2l0.1,0.1v0.2c0,0.1,0,0.2,0,0.3l-0.1,0.2l-2.1,1.2v1.9
						c0.1-0.1,0.2-0.1,0.3-0.2s0.2-0.1,0.4-0.2c0.3-0.2,0.6-0.3,0.8-0.3c0.2-0.1,0.4,0,0.6,0c0.2,0.1,0.3,0.2,0.4,0.4
						c0.1,0.2,0.1,0.4,0.1,0.7c0,0.4-0.1,0.7-0.2,1.1c-0.1,0.3-0.2,0.7-0.4,1s-0.4,0.6-0.7,0.8c-0.3,0.3-0.6,0.5-0.9,0.7
						c-0.2,0.1-0.3,0.2-0.5,0.3c-0.2,0.1-0.3,0.1-0.4,0.1c-0.1,0-0.2,0-0.3,0.1h-0.2l0,0v-0.1v-0.1v-0.2V448v-0.1v-0.1l0.1-0.1h0.1
						c0.1,0,0.1,0,0.3,0c0.1,0,0.2,0,0.4-0.1s0.3-0.1,0.6-0.3c0.2-0.1,0.4-0.3,0.6-0.4c0.2-0.2,0.3-0.3,0.4-0.5
						c0.1-0.2,0.2-0.4,0.3-0.6s0.1-0.5,0.1-0.7s0-0.4-0.1-0.5s-0.1-0.2-0.3-0.3c-0.1,0-0.3,0-0.5,0c-0.2,0.1-0.4,0.2-0.7,0.3
						c-0.2,0.1-0.3,0.2-0.5,0.3c-0.1,0.1-0.3,0.2-0.4,0.3c-0.1,0-0.1,0.1-0.2,0c0,0-0.1-0.1-0.1-0.2v-2.7c0-0.1,0-0.2,0.1-0.3
						c0-0.1,0.1-0.1,0.2-0.2L703.2,440.2z"/>
				</g>
				<g>
					<path class="st11" d="M670.5,467c0.3-0.2,0.5-0.3,0.7-0.3s0.4,0,0.5,0c0.1,0.1,0.2,0.2,0.3,0.3c0.1,0.2,0.1,0.4,0.1,0.6
						s0,0.4-0.1,0.6c0,0.2-0.1,0.4-0.2,0.6c-0.1,0.2-0.2,0.4-0.3,0.6s-0.3,0.3-0.5,0.5c0.2-0.1,0.4-0.1,0.6-0.1c0.2,0,0.3,0,0.4,0.1
						c0.1,0.1,0.2,0.2,0.3,0.3c0.1,0.2,0.1,0.3,0.1,0.5c0,0.3,0,0.6-0.1,0.9s-0.2,0.6-0.4,0.9s-0.4,0.5-0.7,0.8
						c-0.3,0.2-0.5,0.5-0.9,0.6c-0.2,0.1-0.4,0.2-0.5,0.3c-0.2,0.1-0.3,0.1-0.5,0.1c-0.1,0-0.2,0-0.3,0s-0.1,0-0.2,0l0,0v-0.1v-0.1
						v-0.2c0-0.1,0-0.2,0-0.3l0.1-0.1h0.2c0.1,0,0.2,0,0.3,0s0.3,0,0.4-0.1c0.2,0,0.4-0.1,0.6-0.2c0.2-0.1,0.4-0.2,0.5-0.4
						c0.1-0.1,0.3-0.3,0.4-0.5c0.1-0.2,0.2-0.3,0.2-0.5c0.1-0.2,0.1-0.4,0.1-0.5c0-0.2,0-0.3-0.1-0.5c-0.1-0.1-0.2-0.2-0.3-0.2
						s-0.3,0-0.5,0c-0.2,0.1-0.4,0.1-0.6,0.3l-0.6,0.3h-0.1h-0.1v-0.1v-0.2v-0.2v-0.1l0.1-0.1l0.1-0.1l0.5-0.3
						c0.2-0.1,0.4-0.2,0.5-0.4c0.2-0.1,0.3-0.3,0.4-0.5c0.1-0.2,0.2-0.4,0.3-0.5c0.1-0.2,0.1-0.4,0.1-0.6c0-0.1,0-0.3-0.1-0.4
						c0-0.1-0.1-0.2-0.2-0.2c-0.1-0.1-0.2-0.1-0.3,0c-0.1,0-0.3,0.1-0.4,0.2c-0.2,0.1-0.3,0.2-0.5,0.4c-0.1,0.1-0.3,0.3-0.4,0.4
						c-0.1,0.1-0.2,0.3-0.3,0.4l-0.2,0.2h-0.1l0,0V469v-0.2v-0.1v-0.1v-0.1l0.1-0.1c0,0,0.1-0.1,0.2-0.2c0.1-0.1,0.2-0.2,0.3-0.4
						c0.1-0.1,0.3-0.3,0.4-0.4C670.1,467.3,670.3,467.1,670.5,467z"/>
				</g>
				<g>
					<path class="st11" d="M677.2,465.1c0.1,0.4,0.1,0.9,0.1,1.4s0,1-0.1,1.5s-0.2,0.9-0.4,1.3s-0.4,0.8-0.6,1.1
						c-0.3,0.3-0.6,0.6-1,0.8c-0.4,0.2-0.7,0.3-0.9,0.3s-0.5-0.1-0.6-0.3c-0.2-0.2-0.3-0.5-0.3-0.9c-0.1-0.4-0.1-0.9-0.1-1.4
						s0-1,0.1-1.5s0.2-0.9,0.3-1.3c0.2-0.4,0.4-0.8,0.6-1.1c0.3-0.3,0.6-0.6,1-0.8c0.4-0.2,0.7-0.3,0.9-0.3s0.5,0.1,0.6,0.3
						C677.1,464.4,677.2,464.7,677.2,465.1z M676.5,467.8c0-0.2,0-0.5,0-0.7c0-0.3,0-0.6,0-0.9s-0.1-0.5-0.1-0.7s-0.1-0.3-0.2-0.4
						c-0.1-0.1-0.1-0.2-0.2-0.2c-0.1,0-0.2-0.1-0.3,0c-0.1,0-0.2,0.1-0.4,0.2c-0.3,0.1-0.5,0.3-0.6,0.6c-0.2,0.2-0.3,0.5-0.4,0.8
						c-0.1,0.3-0.1,0.6-0.2,1c0,0.3,0,0.7,0,1.1c0,0.5,0,0.9,0.1,1.2c0,0.3,0.1,0.6,0.2,0.7c0.1,0.2,0.2,0.3,0.4,0.3s0.3,0,0.6-0.2
						c0.2-0.1,0.3-0.2,0.4-0.4c0.1-0.1,0.2-0.3,0.3-0.5s0.2-0.4,0.2-0.6c0.1-0.2,0.1-0.4,0.1-0.6C676.5,468.2,676.5,468,676.5,467.8
						L676.5,467.8z"/>
				</g>
				<g>
					<path class="st11" d="M645.1,474.2c0.3-0.2,0.5-0.3,0.7-0.3s0.4,0,0.5,0c0.1,0.1,0.2,0.2,0.3,0.3c0.1,0.2,0.1,0.4,0.1,0.6
						s0,0.4-0.1,0.6c0,0.2-0.1,0.4-0.2,0.6c-0.1,0.2-0.2,0.4-0.3,0.5c-0.1,0.2-0.3,0.3-0.5,0.5c0.2-0.1,0.4-0.1,0.6-0.1
						c0.2,0,0.3,0,0.4,0.1c0.1,0.1,0.2,0.2,0.3,0.3c0.1,0.1,0.1,0.3,0.1,0.5c0,0.3,0,0.6-0.1,0.9s-0.2,0.6-0.4,0.9s-0.4,0.5-0.6,0.8
						c-0.3,0.2-0.5,0.5-0.9,0.6c-0.2,0.1-0.4,0.2-0.6,0.3c-0.2,0-0.3,0.1-0.5,0.1c-0.1,0-0.2,0-0.3,0s-0.1,0-0.2,0h-0.1v-0.1v-0.1
						V481c0-0.1,0-0.2,0-0.3l0.1-0.1h0.2c0.1,0,0.2,0,0.3,0s0.3,0,0.5-0.1c0.2,0,0.4-0.1,0.6-0.2c0.2-0.1,0.4-0.2,0.5-0.4
						c0.2-0.1,0.3-0.3,0.4-0.5c0.1-0.2,0.2-0.3,0.2-0.5s0.1-0.3,0.1-0.5s0-0.3-0.1-0.5c-0.1-0.1-0.2-0.2-0.3-0.2s-0.3,0-0.5,0
						c-0.2,0.1-0.4,0.1-0.6,0.3l-0.6,0.3H644h-0.1v-0.1V478v-0.2v-0.1l0.1-0.1l0.1-0.1l0.5-0.3c0.2-0.1,0.4-0.2,0.5-0.4
						c0.2-0.1,0.3-0.3,0.4-0.5c0.1-0.2,0.2-0.4,0.2-0.5c0.1-0.2,0.1-0.4,0.1-0.6c0-0.1,0-0.3-0.1-0.4c0-0.1-0.1-0.2-0.2-0.2
						c-0.1,0-0.2-0.1-0.3,0c-0.1,0-0.3,0.1-0.4,0.2c-0.2,0.1-0.3,0.2-0.5,0.4c-0.1,0.1-0.3,0.3-0.4,0.4c-0.1,0.1-0.2,0.3-0.3,0.4
						l-0.2,0.2h-0.1l0,0v-0.1v-0.2v-0.1v-0.1v-0.1l0.1-0.1c0-0.1,0.1-0.1,0.2-0.2c0.1-0.1,0.2-0.2,0.3-0.4c0.1-0.1,0.3-0.3,0.4-0.4
						C644.7,474.4,644.9,474.3,645.1,474.2z"/>
				</g>
				<g>
					<path class="st11" d="M651.2,470.8L651.2,470.8L651.2,470.8l0.1,0.1v0.2c0,0.1,0,0.2,0,0.3l-0.1,0.2l-2.1,1.2v1.9
						c0.1-0.1,0.2-0.1,0.3-0.2s0.2-0.1,0.4-0.2c0.3-0.2,0.6-0.3,0.8-0.4c0.2,0,0.4,0,0.6,0c0.2,0.1,0.3,0.2,0.4,0.4
						c0.1,0.2,0.1,0.4,0.1,0.7c0,0.4,0,0.7-0.2,1.1c-0.1,0.3-0.3,0.7-0.4,1s-0.4,0.6-0.7,0.8c-0.3,0.3-0.6,0.5-0.9,0.7
						c-0.2,0.1-0.3,0.2-0.5,0.2c-0.2,0.1-0.3,0.1-0.4,0.1c-0.1,0-0.2,0-0.3,0.1h-0.2l0,0v-0.1v-0.1v-0.2v-0.2v-0.1v-0.1l0.1-0.1h0.1
						c0.1,0,0.1,0,0.3,0c0.1,0,0.2,0,0.4-0.1c0.2,0,0.3-0.1,0.6-0.3c0.2-0.1,0.4-0.2,0.6-0.4c0.2-0.2,0.3-0.3,0.4-0.5
						c0.1-0.2,0.2-0.4,0.3-0.6s0.1-0.5,0.1-0.7s0-0.4-0.1-0.5s-0.1-0.2-0.3-0.3c-0.1,0-0.3,0-0.5,0c-0.2,0.1-0.4,0.2-0.7,0.3
						c-0.2,0.1-0.3,0.2-0.5,0.3c-0.1,0.1-0.3,0.2-0.4,0.2c-0.1,0-0.1,0.1-0.2,0c0,0,0-0.1-0.1-0.2v-2.7c0-0.1,0-0.2,0.1-0.3
						c0-0.1,0.1-0.2,0.2-0.2L651.2,470.8z"/>
				</g>
				<g>
					<path class="st11" d="M634.6,460.8c0.1,0.4,0.1,0.9,0.1,1.4s0,1-0.1,1.5s-0.2,0.9-0.4,1.3s-0.4,0.8-0.6,1.1
						c-0.3,0.3-0.6,0.6-1,0.8c-0.4,0.2-0.7,0.3-0.9,0.3s-0.5-0.1-0.6-0.3c-0.2-0.2-0.3-0.5-0.3-0.9c-0.1-0.4-0.1-0.9-0.1-1.4
						s0-1,0.1-1.5s0.2-0.9,0.3-1.3c0.2-0.4,0.4-0.8,0.6-1.1c0.3-0.3,0.6-0.6,1-0.8c0.4-0.2,0.7-0.3,0.9-0.3s0.5,0.1,0.6,0.3
						C634.5,460.1,634.6,460.4,634.6,460.8z M633.9,463.5c0-0.2,0-0.5,0-0.7c0-0.3,0-0.6,0-0.9s-0.1-0.5-0.1-0.6
						c0-0.2-0.1-0.3-0.2-0.4c-0.1-0.1-0.1-0.2-0.2-0.2c-0.1,0-0.2-0.1-0.3,0c-0.1,0-0.2,0.1-0.4,0.2c-0.3,0.1-0.5,0.3-0.6,0.6
						c-0.2,0.2-0.3,0.5-0.4,0.8c-0.1,0.3-0.1,0.6-0.2,1c0,0.3,0,0.7,0,1.1c0,0.5,0,0.9,0.1,1.2c0,0.3,0.1,0.6,0.2,0.7
						c0.1,0.2,0.2,0.3,0.4,0.3s0.3-0.1,0.6-0.2c0.2-0.1,0.3-0.2,0.4-0.3c0.1-0.1,0.2-0.3,0.3-0.5s0.2-0.4,0.2-0.6
						c0.1-0.2,0.1-0.4,0.1-0.6C633.9,463.9,633.9,463.7,633.9,463.5L633.9,463.5z"/>
				</g>
				<g>
					<path class="st11" d="M623,441.2c0,0,0,0.1,0.1,0.2c0,0.1,0,0.2,0,0.3l-0.1,0.2l-0.7,0.4v1.4v0.1l-0.1,0.1L622,444l-0.2,0.1
						l-0.2,0.1h-0.1h-0.1v-0.1v-1.4l-2.4,1.4h-0.1h-0.1V444v-0.2v-0.2v-0.2v-0.1v-0.2l2.1-5.3l0.1-0.1l0.1-0.1l0.2-0.1
						c0.1,0,0.1-0.1,0.2-0.1c0.1-0.1,0.2-0.1,0.3-0.1l0.2-0.1h0.1v0.1v4.3l0.7-0.4L623,441.2z M621.5,442v-3.7l-1.9,4.8L621.5,442
						L621.5,442z"/>
				</g>
				<g>
					<path class="st11" d="M626.9,434.4L626.9,434.4L626.9,434.4l0.1,0.1v0.2c0,0.1,0,0.2,0,0.3l-0.1,0.2l-2.1,1.2v1.9
						c0.1-0.1,0.2-0.1,0.3-0.2s0.2-0.1,0.4-0.2c0.3-0.2,0.6-0.3,0.8-0.4c0.2,0,0.4,0,0.6,0c0.2,0.1,0.3,0.2,0.4,0.4
						c0.1,0.2,0.1,0.4,0.1,0.7c0,0.4,0,0.7-0.2,1c-0.1,0.3-0.3,0.7-0.4,1c-0.2,0.3-0.4,0.6-0.7,0.8c-0.3,0.3-0.6,0.5-0.9,0.7
						c-0.2,0.1-0.4,0.2-0.5,0.2c-0.2,0.1-0.3,0.1-0.4,0.1c-0.1,0-0.2,0-0.3,0.1h-0.2l0,0v-0.1v-0.1v-0.2v-0.2v-0.1v-0.1l0.1-0.1h0.1
						c0.1,0,0.1,0,0.3,0c0.1,0,0.2,0,0.4-0.1c0.2,0,0.3-0.1,0.6-0.3c0.2-0.1,0.4-0.2,0.6-0.4c0.2-0.2,0.3-0.3,0.4-0.5
						c0.1-0.2,0.2-0.4,0.3-0.6s0.1-0.5,0.1-0.7s0-0.4-0.1-0.5s-0.1-0.2-0.3-0.3c-0.1,0-0.3,0-0.5,0s-0.4,0.2-0.7,0.3
						c-0.2,0.1-0.3,0.2-0.5,0.3c-0.1,0.1-0.3,0.2-0.4,0.2c-0.1,0-0.1,0.1-0.2,0c0,0-0.1-0.1-0.1-0.2v-2.7c0-0.1,0-0.2,0.1-0.3
						c0-0.1,0.1-0.2,0.2-0.2L626.9,434.4z"/>
				</g>
				<g>
					<path class="st11" d="M629.7,403L629.7,403L629.7,403l0.1,0.1v0.2c0,0.1,0,0.2,0,0.3l-0.1,0.2l-2.1,1.2v1.9
						c0.1-0.1,0.2-0.1,0.3-0.2s0.2-0.1,0.4-0.2c0.3-0.2,0.6-0.3,0.8-0.3s0.4,0,0.6,0c0.2,0.1,0.3,0.2,0.4,0.4
						c0.1,0.2,0.1,0.4,0.1,0.7c0,0.4-0.1,0.7-0.2,1c-0.1,0.3-0.3,0.7-0.5,1s-0.4,0.6-0.7,0.8c-0.3,0.2-0.6,0.5-0.9,0.7
						c-0.2,0.1-0.4,0.2-0.5,0.3s-0.3,0.1-0.4,0.1c-0.1,0-0.2,0-0.3,0h-0.2l0,0v-0.1V411v-0.2v-0.2v-0.1v-0.1l0.1-0.1h0.1
						c0.1,0,0.1,0,0.3,0c0.1,0,0.2,0,0.4-0.1c0.2,0,0.3-0.1,0.6-0.3c0.2-0.1,0.4-0.3,0.6-0.4c0.2-0.2,0.3-0.3,0.4-0.5
						c0.1-0.2,0.2-0.4,0.3-0.6s0.1-0.5,0.1-0.7s0-0.4-0.1-0.5s-0.1-0.2-0.3-0.3c-0.1,0-0.3,0-0.5,0c-0.2,0.1-0.4,0.2-0.7,0.3
						c-0.2,0.1-0.3,0.2-0.5,0.3c-0.1,0.1-0.3,0.2-0.4,0.3c-0.1,0-0.1,0.1-0.2,0c0,0-0.1-0.1-0.1-0.2v-2.7c0-0.1,0-0.2,0.1-0.3
						c0-0.1,0.1-0.1,0.2-0.2L629.7,403z"/>
				</g>
				<g>
					<path class="st11" d="M635.1,401.8c0.1,0.4,0.1,0.9,0.1,1.4s0,1-0.1,1.5s-0.2,0.9-0.3,1.3c-0.2,0.4-0.4,0.8-0.6,1.1
						c-0.3,0.3-0.6,0.6-1,0.8c-0.4,0.2-0.7,0.3-0.9,0.3c-0.3,0-0.5-0.1-0.6-0.3c-0.2-0.2-0.3-0.5-0.3-0.9c-0.1-0.4-0.1-0.9-0.1-1.4
						s0-1,0.1-1.5s0.2-0.9,0.3-1.3c0.2-0.4,0.4-0.8,0.6-1.1c0.3-0.3,0.6-0.6,1-0.8c0.4-0.2,0.7-0.3,0.9-0.3c0.3,0,0.5,0.1,0.6,0.3
						C634.9,401.1,635,401.4,635.1,401.8z M634.4,404.4c0-0.2,0-0.5,0-0.7c0-0.3,0-0.6,0-0.9s-0.1-0.5-0.1-0.6
						c0-0.2-0.1-0.3-0.2-0.4c-0.1-0.1-0.1-0.2-0.2-0.2c-0.1,0-0.2-0.1-0.3,0c-0.1,0-0.2,0.1-0.4,0.2c-0.3,0.1-0.5,0.3-0.6,0.6
						c-0.2,0.2-0.3,0.5-0.4,0.8c-0.1,0.3-0.2,0.6-0.2,1c0,0.3,0,0.7,0,1.1c0,0.5,0,0.9,0.1,1.2c0.1,0.3,0.1,0.6,0.2,0.7
						c0.1,0.2,0.2,0.3,0.4,0.3s0.3,0,0.6-0.2c0.2-0.1,0.3-0.2,0.4-0.4c0.1-0.1,0.2-0.3,0.3-0.5s0.2-0.3,0.2-0.5
						c0.1-0.2,0.1-0.4,0.1-0.6C634.3,404.9,634.4,404.7,634.4,404.4L634.4,404.4z"/>
				</g>
				<g>
					<path class="st11" d="M645.6,374.4L645.6,374.4L645.6,374.4l0.1,0.1v0.2c0,0.1,0,0.2,0,0.3l-0.1,0.2l-2.1,1.2v1.9
						c0.1-0.1,0.2-0.1,0.3-0.2s0.2-0.1,0.4-0.2c0.3-0.2,0.6-0.3,0.8-0.3c0.2-0.1,0.4,0,0.6,0c0.2,0.1,0.3,0.2,0.4,0.4
						c0.1,0.2,0.1,0.4,0.1,0.7c0,0.4,0,0.7-0.2,1c-0.1,0.3-0.3,0.7-0.4,1c-0.2,0.3-0.4,0.6-0.7,0.8c-0.3,0.2-0.6,0.5-0.9,0.7
						c-0.2,0.1-0.4,0.2-0.5,0.2c-0.2,0.1-0.3,0.1-0.4,0.1c-0.1,0-0.2,0-0.3,0h-0.2l0,0v-0.1v-0.1v-0.2v-0.2v-0.1v-0.1l0.1-0.1h0.1
						c0.1,0,0.1,0,0.3,0c0.1,0,0.2,0,0.4-0.1c0.2,0,0.3-0.1,0.6-0.3c0.2-0.1,0.4-0.3,0.6-0.4c0.2-0.2,0.3-0.3,0.4-0.5
						c0.1-0.2,0.2-0.4,0.3-0.6s0.1-0.5,0.1-0.7s0-0.4-0.1-0.5s-0.1-0.2-0.3-0.3c-0.1,0-0.3,0-0.5,0c-0.2,0.1-0.4,0.2-0.7,0.3
						c-0.2,0.1-0.3,0.2-0.5,0.3c-0.1,0.1-0.3,0.2-0.4,0.2c-0.1,0-0.1,0.1-0.2,0c0,0-0.1-0.1-0.1-0.2v-2.7c0-0.1,0-0.2,0.1-0.3
						c0-0.1,0.1-0.1,0.2-0.2L645.6,374.4z"/>
				</g>
				<g>
					<path class="st11" d="M650.3,371.7L650.3,371.7L650.3,371.7l0.1,0.1v0.2c0,0.1,0,0.2,0,0.3l-0.1,0.2l-2.1,1.2v1.9
						c0.1-0.1,0.2-0.1,0.3-0.2s0.2-0.1,0.4-0.2c0.3-0.2,0.6-0.3,0.9-0.3c0.2-0.1,0.4,0,0.6,0c0.2,0.1,0.3,0.2,0.4,0.4
						c0.1,0.2,0.1,0.4,0.1,0.7c0,0.4-0.1,0.7-0.2,1c-0.1,0.3-0.3,0.7-0.5,1s-0.4,0.6-0.7,0.8c-0.3,0.2-0.6,0.5-0.9,0.7
						c-0.2,0.1-0.4,0.2-0.5,0.3c-0.2,0.1-0.3,0.1-0.4,0.1c-0.1,0-0.2,0-0.3,0h-0.2l0,0v-0.1v-0.1v-0.2v-0.2v-0.1v-0.1l0.1-0.1h0.1
						c0.1,0,0.1,0,0.3,0c0.1,0,0.2,0,0.4-0.1c0.2,0,0.3-0.1,0.6-0.3c0.2-0.1,0.4-0.3,0.6-0.4s0.3-0.3,0.4-0.5
						c0.1-0.2,0.2-0.4,0.3-0.6s0.1-0.5,0.1-0.7s0-0.4-0.1-0.5s-0.2-0.2-0.3-0.3c-0.1,0-0.3,0-0.5,0c-0.2,0.1-0.4,0.2-0.7,0.3
						c-0.2,0.1-0.3,0.2-0.5,0.3c-0.1,0.1-0.3,0.2-0.4,0.2c-0.1,0-0.1,0.1-0.2,0c0,0-0.1-0.1-0.1-0.2v-2.7c0-0.1,0-0.2,0.1-0.3
						c0-0.1,0.1-0.1,0.2-0.2L650.3,371.7z"/>
				</g>
				<g>
					<path class="st11" d="M672.5,353.7c0.1,0.2,0.1,0.4,0.1,0.7c0,0.3,0,0.6-0.1,0.9s-0.2,0.6-0.4,0.9s-0.4,0.6-0.6,0.9
						c-0.2,0.3-0.5,0.5-0.9,0.7c-0.2,0.1-0.5,0.2-0.6,0.3c-0.2,0-0.3,0-0.5,0c-0.1-0.1-0.3-0.1-0.3-0.3c-0.1-0.1-0.2-0.3-0.2-0.5
						c-0.1-0.2-0.1-0.5-0.1-0.7c0-0.3,0-0.6,0-0.9s0-0.6,0-0.9s0.1-0.6,0.1-0.9c0.1-0.3,0.2-0.6,0.3-0.9s0.3-0.6,0.4-0.9
						c0.2-0.3,0.4-0.5,0.6-0.8c0.2-0.2,0.5-0.5,0.9-0.7c0.1-0.1,0.2-0.1,0.3-0.2s0.2-0.1,0.3-0.1s0.2,0,0.2-0.1h0.1l0,0v0.1v0.1v0.1
						v0.2v0.1v0.1L672,351h-0.1h-0.2c-0.1,0-0.2,0-0.3,0.1c-0.1,0-0.3,0.1-0.4,0.2c-0.3,0.2-0.5,0.4-0.7,0.6s-0.4,0.5-0.5,0.8
						s-0.2,0.6-0.3,0.9s-0.1,0.7-0.1,1c0.1-0.1,0.2-0.2,0.3-0.3c0.1-0.1,0.2-0.2,0.3-0.3c0.1-0.1,0.2-0.2,0.4-0.3
						c0.1-0.1,0.3-0.2,0.4-0.3c0.3-0.2,0.6-0.3,0.8-0.3s0.4,0,0.5,0.1C672.3,353.3,672.4,353.5,672.5,353.7z M671.7,355.5
						c0-0.2,0.1-0.4,0.1-0.6s0-0.4-0.1-0.5c0-0.1-0.1-0.2-0.2-0.3c-0.1-0.1-0.2-0.1-0.3-0.1s-0.3,0.1-0.5,0.2
						c-0.1,0.1-0.2,0.1-0.3,0.2s-0.2,0.2-0.3,0.3c-0.1,0.1-0.2,0.2-0.3,0.3c-0.1,0.1-0.2,0.2-0.3,0.3c0,0.4,0,0.8,0.1,1.1
						c0.1,0.3,0.1,0.5,0.2,0.6c0.1,0.1,0.2,0.2,0.4,0.2c0.1,0,0.3-0.1,0.5-0.2s0.4-0.2,0.5-0.4c0.1-0.2,0.3-0.3,0.3-0.5
						C671.6,355.9,671.7,355.7,671.7,355.5L671.7,355.5z"/>
				</g>
				<g>
					<path class="st11" d="M677.2,349.1c0.1,0.4,0.1,0.9,0.1,1.4s0,1-0.1,1.5s-0.2,0.9-0.4,1.3s-0.4,0.8-0.6,1.1
						c-0.3,0.3-0.6,0.6-1,0.8c-0.4,0.2-0.7,0.3-0.9,0.3c-0.3,0-0.5-0.1-0.6-0.3c-0.1-0.2-0.3-0.5-0.3-0.9c-0.1-0.4-0.1-0.9-0.1-1.4
						s0-1,0.1-1.5s0.2-0.9,0.4-1.3s0.4-0.8,0.6-1.1c0.3-0.3,0.6-0.6,1-0.8c0.4-0.2,0.7-0.3,0.9-0.3c0.3,0,0.5,0.1,0.6,0.3
						S677.1,348.7,677.2,349.1z M676.5,351.7c0-0.2,0-0.5,0-0.7c0-0.3,0-0.6,0-0.9c0-0.2-0.1-0.5-0.1-0.6c0-0.2-0.1-0.3-0.2-0.4
						c-0.1-0.1-0.1-0.2-0.2-0.2c-0.1,0-0.2,0-0.3,0s-0.2,0.1-0.4,0.2c-0.3,0.1-0.5,0.3-0.6,0.6c-0.2,0.2-0.3,0.5-0.4,0.8
						c-0.1,0.3-0.2,0.6-0.2,1s0,0.7,0,1.1c0,0.5,0,0.9,0.1,1.2c0.1,0.3,0.1,0.6,0.2,0.7c0.1,0.2,0.2,0.3,0.4,0.3
						c0.1,0,0.3,0,0.6-0.2c0.2-0.1,0.3-0.2,0.4-0.4c0.1-0.1,0.2-0.3,0.3-0.5s0.2-0.4,0.2-0.5c0.1-0.2,0.1-0.4,0.1-0.6
						C676.4,352.2,676.5,352,676.5,351.7L676.5,351.7z"/>
				</g>
			</g>
			<g>
				<g>
					<path class="st14" d="M720.7,364.7c0.1,0.2,0.1,0.4,0.1,0.6c0,0.9-0.5,2-1.2,2.8l-42.2,41.4c-0.4,2.9-2.4,6.1-4.8,7.5
						c-1.2,0.7-2.4,0.8-3.2,0.4l-11.3,11.1l-1.8-5.3l11.7-11c0.7-2.6,2.5-5.3,4.6-6.5c1.1-0.6,2.1-0.8,2.9-0.6l43-40.4
						c0.2-0.2,0.4-0.3,0.6-0.4C719.7,363.8,720.5,364,720.7,364.7z M672.6,415.4c2-1.1,3.6-3.9,3.6-6.2c0-2.3-1.6-3.2-3.6-2.1
						s-3.6,3.9-3.6,6.2C669,415.7,670.6,416.6,672.6,415.4L672.6,415.4z"/>
				</g>
				<g>
					<path class="st2" d="M672.6,407.2c2-1.1,3.6-0.2,3.6,2.1c0,2.3-1.6,5.1-3.6,6.2s-3.6,0.2-3.6-2.1S670.6,408.3,672.6,407.2z"/>
				</g>
			</g>
			<g>
				<g class="st12">
					<path class="st15" d="M631.8,359.8l-4.2-9.2c1.4,3,0.9,6.8-1.6,9.9c-3.7,4.5-10.5,5.8-15.1,2.8c-1.5-0.9-2.5-2.2-3.2-3.7
						l4.2,9.2c0.7,1.4,1.7,2.7,3.2,3.7c4.6,3,11.4,1.7,15.1-2.8C632.7,366.7,633.2,362.9,631.8,359.8z"/>
					<g>
						<path class="st16" d="M624.4,347c4.6,3,5.3,9.1,1.6,13.6s-10.5,5.8-15.1,2.8s-5.3-9.1-1.6-13.6
							C613.1,345.3,619.8,344,624.4,347z"/>
					</g>
				</g>
			</g>
			<g>
				<g class="st12">
					<path class="st9" d="M630.1,351.1l-4.2-9.2c1.7,3.7,1.1,8.3-2,12.1c-4.5,5.5-12.8,7.1-18.3,3.4c-1.8-1.2-3.1-2.7-3.9-4.4
						l4.2,9.2c0.8,1.7,2.1,3.3,3.9,4.4c5.6,3.6,13.8,2.1,18.3-3.4C631.2,359.4,631.8,354.8,630.1,351.1z"/>
					<g>
						<g>
							
								<ellipse transform="matrix(0.9096 -0.4155 0.4155 0.9096 -88.8525 286.4322)" class="st17" cx="613.8" cy="347.4" rx="13.3" ry="11.6"/>
						</g>
					</g>
				</g>
			</g>
			<g>
				<g class="st12">
					<path class="st15" d="M674.8,312.1c-5.1,3-13.5,3-18.6,0c-2.6-1.5-3.9-3.5-3.9-5.4l-0.1,20.1c0,2,1.3,3.9,3.9,5.4
						c5.2,3,13.5,3,18.6,0c2.5-1.5,3.8-3.4,3.8-5.4l0.1-20.1C678.6,308.7,677.4,310.6,674.8,312.1z"/>
					<g>
						
							<ellipse transform="matrix(2.834066e-03 -1 1 2.834066e-03 356.9597 971.255)" class="st18" cx="665.5" cy="306.6" rx="7.6" ry="13.2"/>
					</g>
				</g>
			</g>
			<g>
				<g class="st12">
					<path class="st19" d="M678,300.5c-6.9,4-18,4-24.9,0c-3.5-2-5.2-4.6-5.2-7.3l-0.1,21.1c0,2.6,1.7,5.3,5.2,7.3
						c6.9,4,18.1,4,24.9,0c3.4-2,5.1-4.6,5.1-7.2l0.1-21.1C683.1,295.9,681.4,298.5,678,300.5z"/>
					<g>
						<g>
							<path class="st17" d="M677.9,286.1c6.9,4,6.9,10.5,0.1,14.4c-6.9,4-18,4-24.9,0s-6.9-10.5-0.1-14.4
								C659.8,282.1,671,282.1,677.9,286.1z"/>
						</g>
					</g>
				</g>
			</g>
			<path class="st9" d="M678,300.5c-6.9,4-18,4-24.9,0c-3.5-2-5.2-4.6-5.2-7.3l-0.1,21.1c0,2.6,1.7,5.3,5.2,7.3c6.9,4,18.1,4,24.9,0
				c3.4-2,5.1-4.6,5.1-7.2l0.1-21.1C683.1,295.9,681.4,298.5,678,300.5z"/>
			<path class="st6" d="M656.5,308.9c-2.2-0.8-3.9-3.9-3.9-7.3c0-7.6,3.9-16.4,9.5-22.7v-14.4c-11.4,7.4-20.5,23.5-20.4,36.8
				c0,6.9,3.5,12.4,9.2,15.6c1.2,0.7,2.6,1.2,4,1.7C658,318.6,660.7,311.7,656.5,308.9z"/>
		</g>
	</g>
	<g>
		<path class="st15" d="M698.4,319l5.2-12.4c-0.2,0.5,0.8,1.5,3,2.8c3.7,2.2,9.3,4.3,12.5,4.8c1.3,0.2,2,0.1,2.2-0.2l-5.2,12.4
			c-0.1,0.3-0.8,0.4-2.2,0.2c-3.2-0.5-8.8-2.7-12.5-4.8C699.2,320.5,698.2,319.5,698.4,319z"/>
		<path class="st9" d="M701,305.5l5.8-13.9c-0.3,0.6,1.1,1.9,3.9,3.6c4.8,2.8,12,5.6,16.2,6.2c1.7,0.3,2.6,0.1,2.8-0.3l-5.8,13.9
			c-0.2,0.4-1.1,0.5-2.8,0.3c-4.1-0.7-11.4-3.5-16.2-6.2C702.1,307.4,700.8,306.1,701,305.5z"/>
		<g>
			<g>
				<path class="st17" d="M709.6,291.3c4.1,0.7,11.4,3.5,16.2,6.2c4.8,2.8,5.3,4.5,1.1,3.8c-4.1-0.7-11.4-3.5-16.2-6.2
					C706,292.4,705.5,290.7,709.6,291.3z"/>
			</g>
		</g>
	</g>
</g>
<g>
	<g>
		<g>
			<g>
				<g>
					<g>
						<g>
							<g>
								<g>
									<g>
										<g class="st12">
											<path class="st20" d="M804.9,474.7c-0.1,0-0.1,0.1-0.2,0.1l42.9-24.9c0,0,0,0,0.1,0s0.1,0,0.2-0.1
												c0.2-0.1,0.4-0.2,0.6-0.3c0,0,0,0,0.1,0c0.1-0.1,0.2-0.1,0.4-0.1c0.1-0.1,0.3-0.1,0.4-0.2c0.1-0.1,0.3-0.1,0.4-0.2
												c0.1,0,0.1-0.1,0.2-0.1l0,0l0,0l0,0l-42.9,24.9l0,0c0,0-0.1,0-0.1,0.1c-0.1,0.1-0.3,0.1-0.4,0.2l0,0
												c-0.1,0-0.2,0.1-0.3,0.1c-0.1,0.1-0.3,0.1-0.4,0.2C805.2,474.5,805,474.6,804.9,474.7z"/>
											<g>
												<polygon class="st21" points="829.1,511.9 871.9,487 871.9,484 829.1,508.9 												"/>
											</g>
											<path class="st7" d="M804.3,484.8c0-4.7,1-6.1,2.2-6.8l42.9-24.9c-1.2,0.7-2.2,2.1-2.2,6.8c0,2.4,0,9.8,12.9,17.3
												l11.8,6.8L829,508.9l-11.8-6.8C804.3,494.6,804.3,487.2,804.3,484.8z"/>
											<g>
												<polygon class="st22" points="811.3,460.1 854.2,435.2 851.6,433.8 808.7,458.7 												"/>
											</g>
											<path class="st22" d="M809.5,476.3c0.4-0.4,1.6-1.7,1.8-9.8c0-1.3,0-2.6,0-3.7s0-2.1,0-2.7l42.9-24.9
												c0,1.4,0.1,3.8,0,6.4c-0.2,8.1-1.4,9.4-1.8,9.8c-0.1,0.1-0.3,0.3-0.4,0.4c-0.1,0.1-0.3,0.2-0.4,0.3L808.7,477
												C809,476.8,809.3,476.6,809.5,476.3z"/>
											<g>
												<path class="st23" d="M811.3,460.1l-2.6-1.4c0,1.3,0.1,3.7,0,6.2c-0.2,6.5-1,8.1-1.3,8.5c-0.4,0.4-0.9,0.6-1.5,0.9
													c-1.8,0.7-4.1,1.6-4.1,9.1c0,4.3,1.4,8.5,4.2,12.2c2.6,3.5,6.3,6.7,11.3,9.6l11.8,6.8v-3l-11.8-6.8
													c-12.9-7.5-12.9-14.9-12.9-17.3c0-6,1.6-6.6,3.2-7.3c0.7-0.3,1.4-0.6,2-1.2c0.4-0.4,1.6-1.7,1.8-9.8
													C811.4,463.9,811.4,461.4,811.3,460.1z"/>
											</g>
										</g>
									</g>
									<g>
										<g class="st12">
											<g>
												<polygon class="st24" points="928.4,272.5 922.3,268.9 922.6,383.5 928.8,387.1 												"/>
											</g>
											<g>
												<polygon class="st18" points="928.8,387.1 922.6,383.5 724.9,497.7 731.1,501.2 												"/>
											</g>
											<g>
												<polygon class="st25" points="928.4,272.5 922.3,268.9 724.6,383.1 730.7,386.6 												"/>
											</g>
											<g>
												<polygon class="st26" points="730.7,386.6 724.6,383.1 724.9,497.7 731.1,501.2 												"/>
											</g>
											<g>
												<path class="st2" d="M721.9,516.4c0.6,6.8,5.8,9.4,12.1,5.7l191.9-110.8c6.4-3.7,11.5-12.3,12.1-19.7L721.9,516.4z"/>
												<path class="st27" d="M938,390.3l-0.5-122.1c-1-6-6-8.1-12-4.7L733.6,374.3c-6.7,3.9-12.1,13.3-12.1,21l0.3,119.8
													c0,0.4,0,0.8,0.1,1.2L938,391.6C938,391.2,938,390.8,938,390.3z"/>
											</g>
											<g>
												<g>
													<path class="st28" d="M829.7,320.4c-1.8,1.1-3.3,3.6-3.3,5.7s1.5,2.9,3.3,1.9c1.8-1.1,3.3-3.6,3.3-5.7
														C833.1,320.2,831.6,319.3,829.7,320.4z"/>
												</g>
												<g>
													<path class="st29" d="M829.8,323c-0.6,0.3-1,1.1-1,1.8c0,0.6,0.5,0.9,1,0.6c0.6-0.3,1-1.1,1-1.8
														C830.8,322.9,830.3,322.7,829.8,323z"/>
												</g>
												<path class="st30" d="M831.8,320c0.7,0.3,1.2,1.1,1.2,2.2c0,2.1-1.5,4.7-3.3,5.7c-0.6,0.3-1.1,0.5-1.6,0.4L831.8,320z"
													/>
											</g>
											<g>
												<path class="st18" d="M719.3,519.4l6.1,3.6c-1.9-1.1-3.2-3.4-3.5-6.6l-6.1-3.6C716.1,516,717.3,518.3,719.3,519.4z"/>
												<path class="st31" d="M721.5,395.3c0-7.7,5.4-17.1,12.1-21l191.9-110.8c3.4-2,6.4-2.1,8.7-0.8l-6.1-3.6
													c-2.2-1.3-5.3-1.1-8.7,0.8L727.5,370.8c-6.7,3.9-12.1,13.3-12.1,21l0.3,119.8c0,0.4,0,0.8,0.1,1.2l6.1,3.6
													c0-0.4-0.1-0.8-0.1-1.2L721.5,395.3z"/>
												<polygon class="st32" points="746,367.2 799.1,336.5 793,333 739.9,363.6 												"/>
											</g>
										</g>
									</g>
								</g>
							</g>
						</g>
					</g>
					<g>
						<g>
							<defs>
								<polygon id="SVGID_12_" points="930.2,271.5 930.3,386.6 729.3,502.3 729.2,387.1 								"/>
							</defs>
							<clipPath id="SVGID_13_">
								<use xlink:href="#SVGID_12_"  style="overflow:visible;"/>
							</clipPath>
							<g class="st33">
								<g>
									<g>
										<g class="st12">
											<g>
												<polygon class="st34" points="930.2,271.5 930.3,386.6 729.3,502.3 729.2,387.1 												"/>
											</g>
										</g>
									</g>
								</g>
							</g>
						</g>
					</g>
				</g>
			</g>
			<path class="st35" d="M892.4,320.4c-5.3,3.1-9.7,10.6-9.6,16.7v4.6L883,435c0,0.4,0,0.7,0.1,1.1l42.9-24.8
				c6.4-3.7,11.5-12.3,12.1-19.7c0-0.4,0-0.9,0-1.3l-0.4-96.2L892.4,320.4z"/>
			<g>
				<g>
					<defs>
						<path id="SVGID_14_" d="M733.6,374.3l191.9-110.8c6-3.5,11-1.3,12,4.7l0.5,122.1c0,7.7-5.4,17.1-12.1,21L734.1,522.1
							c-6.7,3.9-12.2,0.8-12.2-7l-0.3-119.8C721.5,387.6,726.9,378.2,733.6,374.3z"/>
					</defs>
					<clipPath id="SVGID_15_">
						<use xlink:href="#SVGID_14_"  style="overflow:visible;"/>
					</clipPath>
					<g class="st36">
						
							<rect x="862.5" y="217" transform="matrix(0.1888 -0.982 0.982 0.1888 449.0677 1120.2341)" class="st37" width="80.1" height="142.6"/>
						<g>
							
								<rect x="805.2" y="323.3" transform="matrix(0.1888 -0.982 0.982 0.1888 230.9803 1158.4641)" class="st38" width="22.9" height="232.2"/>
							
								<rect x="782.1" y="361.6" transform="matrix(0.1888 -0.982 0.982 0.1888 189.1585 1138.5798)" class="st38" width="3.2" height="186.3"/>
						</g>
					</g>
				</g>
			</g>
		</g>
	</g>
</g>
<g>
	<g>
		<defs>
			<path id="SVGID_16_" d="M937.5,268.2c-1-6-6-8.1-12-4.7L733.6,374.3c-6.7,3.9-12.1,13.3-12.1,21l0.3,119.8c0,0.4,0,0.8,0.1,1.2
				L938,391.6c0-0.4,0-0.9,0-1.3L937.5,268.2z"/>
		</defs>
		<clipPath id="SVGID_17_">
			<use xlink:href="#SVGID_16_"  style="overflow:visible;"/>
		</clipPath>
		<path class="st39" d="M905.3,235.9v-4.6c0-6.1-4.4-8.6-9.7-5.5l-140.1,80.9c-5.3,3.1-9.7,10.6-9.6,16.7v4.6l0.4,133.7
			c0,6.1,4.4,8.6,9.7,5.5l140.1-80.9c5.3-3.1,9.7-10.6,9.6-16.7L905.3,235.9z"/>
	</g>
</g>
<path class="st32" d="M721.7,452.1l76.5-44.5V403c0-6.1-4.4-8.6-9.7-5.5l-66.8,38.9V452.1z"/>
<g>
	<g>
		<path class="st40" d="M696.4,549.2l-0.1-72.5l-2.8-1.6l0.1,72.5c0,3,1.1,5.2,2.8,6.2l2.8,1.6C697.5,554.4,696.4,552.3,696.4,549.2
			z"/>
		<g>
			<path class="st41" d="M696.3,476.8l102-59.3l0.1,72.5c0,6.1-4.3,13.6-9.6,16.7l-82.7,48.1c-5.3,3.1-9.7,0.6-9.7-5.5L696.3,476.8
				L696.3,476.8z"/>
		</g>
		<g>
			<path class="st27" d="M788.6,407.3c5.3-3.1,9.7-0.6,9.7,5.5v4.6l-102,59.3v-4.6c0-6.1,4.3-13.6,9.6-16.7L788.6,407.3z"/>
		</g>
		<g>
			<path class="st42" d="M708.6,460.3c0.6-0.3,1-0.1,1.1,0.6v2.7c0,0.7-0.5,1.5-1,1.8l-3.8,2.2c-0.6,0.3-1,0.1-1.1-0.6v-2.7
				c0-0.7,0.5-1.5,1-1.8L708.6,460.3z"/>
			<path class="st43" d="M717.4,455.2c0.6-0.3,1-0.1,1.1,0.6v2.7c0,0.7-0.5,1.5-1,1.8l-3.8,2.2c-0.6,0.3-1,0.1-1.1-0.6v-2.7
				c0-0.7,0.5-1.5,1-1.8L717.4,455.2z"/>
			<path class="st44" d="M726.6,450c0.6-0.3,1-0.1,1.1,0.6v2.7c0,0.7-0.5,1.5-1,1.8l-3.8,2.2c-0.6,0.3-1,0.1-1.1-0.6V454
				c0-0.7,0.5-1.5,1-1.8L726.6,450z"/>
		</g>
		<path class="st45" d="M792.7,405c-1.8-1-4.2-0.9-6.9,0.7l-82.7,48.1c-5.3,3.1-9.7,10.6-9.6,16.7v4.6l2.8,1.6v-4.6
			c0-6.1,4.3-13.6,9.6-16.7l82.7-48.1c2.7-1.6,5.1-1.7,6.9-0.7L792.7,405z"/>
		<path class="st28" d="M792.7,405c-1.8-1-4.2-0.9-6.9,0.7l-39.6,23.1l4.8,0.4l37.6-21.9c2.7-1.6,5.1-1.7,6.9-0.7L792.7,405z"/>
	</g>
</g>
<g>
	<g>
		<g>
			<g>
				<path class="st46" d="M716.8,495.6l2.3,7l-1.8,1l-0.6-1.8l-2.1,1.2l-0.5,2.4l-1.7,1l2.2-9.6L716.8,495.6z M714.9,501.5l1.6-0.9
					l-0.5-1.5c-0.1-0.4-0.3-1-0.4-1.4l0,0c-0.1,0.6-0.2,1.2-0.3,1.8L714.9,501.5L714.9,501.5z"/>
			</g>
			<g>
				<path class="st47" d="M719.1,475c1.4-0.8,2.5-0.2,2.5,1.4v9.4c0,1.6-1.1,3.5-2.5,4.3l-8.2,4.7c-1.4,0.8-2.5,0.2-2.5-1.4V484
					c0-1.6,1.1-3.5,2.5-4.3L719.1,475z M720.6,486.4V477c0-1-0.7-1.4-1.5-0.9l-8.2,4.7c-0.8,0.5-1.5,1.7-1.5,2.7v9.4
					c0,1,0.7,1.4,1.5,0.9l8.2-4.7C720,488.6,720.6,487.4,720.6,486.4L720.6,486.4z"/>
			</g>
		</g>
		<g>
			<g>
				<path class="st46" d="M716.9,534c0.8-0.2,1.4,0.1,1.4,1.2c0,0.8-0.3,1.5-0.7,2.2c-0.5,0.8-1.4,1.6-2.8,2.4
					c-0.8,0.5-1.4,0.7-1.8,0.9v-8.2c0.4-0.3,1.3-0.9,2.1-1.4c1-0.6,1.6-0.8,2.1-0.8s0.9,0.4,0.9,1.1
					C718.1,532.2,717.8,533.1,716.9,534L716.9,534z M715.3,538.1c0.7-0.4,1.4-1.1,1.4-2c0-0.8-0.7-0.8-1.5-0.3l-0.6,0.3v2.3
					C714.8,538.4,715,538.3,715.3,538.1L715.3,538.1z M714.6,532.8v1.9l0.5-0.3c0.9-0.5,1.3-1.2,1.3-1.8s-0.4-0.7-1.2-0.3
					C715,532.6,714.8,532.7,714.6,532.8L714.6,532.8z"/>
			</g>
			<g>
				<path class="st47" d="M719.1,509.6c1.4-0.8,2.5-0.2,2.5,1.4v9.4c0,1.6-1.1,3.5-2.5,4.3l-8.2,4.7c-1.4,0.8-2.5,0.2-2.5-1.4v-9.4
					c0-1.6,1.1-3.5,2.5-4.3L719.1,509.6z M720.6,520.9v-9.4c0-1-0.7-1.4-1.5-0.9l-8.2,4.7c-0.8,0.5-1.5,1.7-1.5,2.7v9.4
					c0,1,0.7,1.4,1.5,0.9l8.2-4.7C720,523.1,720.6,521.9,720.6,520.9L720.6,520.9z"/>
			</g>
		</g>
	</g>
	<g>
		<g>
			<g>
				<path class="st18" d="M774.6,457.6l-39.5,22.9c-0.5,0.3-0.8,0.8-0.8,1.4l0,0c0,1.2,1.3,2,2.4,1.4l39.5-22.9
					c0.5-0.3,0.8-0.8,0.8-1.4l0,0C777,457.8,775.7,457,774.6,457.6z"/>
			</g>
			<g>
				<path class="st18" d="M743.2,469.2l49.9-28.9c0.5-0.3,0.8-0.8,0.8-1.4l0,0c0-1.2-1.3-2-2.4-1.4l-49.9,28.9
					c-0.5,0.3-0.8,0.8-0.8,1.4l0,0C740.9,469.1,742.2,469.8,743.2,469.2z"/>
			</g>
		</g>
		<g>
			<g>
				<path class="st18" d="M772,495.6l-36.9,21.3c-0.5,0.3-0.8,0.8-0.8,1.4l0,0c0,1.2,1.3,2,2.4,1.4l36.9-21.3
					c0.5-0.3,0.8-0.8,0.8-1.4l0,0C774.4,495.7,773.1,495,772,495.6z"/>
			</g>
			<g>
				<path class="st18" d="M786.1,477.2l-50.9,29.4c-0.5,0.3-0.8,0.8-0.8,1.4l0,0c0,1.2,1.3,2,2.4,1.4l50.9-29.4
					c0.5-0.3,0.8-0.8,0.8-1.4l0,0C788.4,477.4,787.1,476.6,786.1,477.2z"/>
			</g>
		</g>
	</g>
</g>
<g>
	<g>
		<defs>
			<path id="SVGID_18_" d="M798.3,417.5v-4.6c0-6.1-4.4-8.6-9.7-5.5l-82.7,48.1c-5.3,3.1-9.7,10.6-9.6,16.7v4.6l0.1,72.5
				c0,6.1,4.4,8.6,9.7,5.5l82.7-48.1c5.3-3.1,9.7-10.6,9.6-16.7L798.3,417.5z"/>
		</defs>
		<clipPath id="SVGID_19_">
			<use xlink:href="#SVGID_18_"  style="overflow:visible;"/>
		</clipPath>
		<path class="st48" d="M910.1,239.7v-4.6c0-6.1-4.4-8.6-9.7-5.5l-140.1,80.9c-5.3,3.1-9.7,10.6-9.6,16.7v4.6l0.4,133.7
			c0,6.1,4.4,8.6,9.7,5.5l140.1-80.9c5.3-3.1,9.7-10.6,9.6-16.7L910.1,239.7z"/>
	</g>
</g>
<g>
	<g>
		<path class="st24" d="M759.6,466.9l-0.4-133.7l-2.8-1.6l0.4,133.7c0,3,1.1,5.2,2.8,6.2l2.8,1.6C760.7,472.1,759.6,470,759.6,466.9
			z"/>
		<g>
			<path class="st2" d="M759.2,333.2l159.4-92l0.4,133.7c0,6.1-4.3,13.6-9.6,16.7l-140.1,80.9c-5.3,3.1-9.7,0.6-9.7-5.5L759.2,333.2
				L759.2,333.2z"/>
		</g>
		<g>
			<g>
				<g>
					<path class="st46" d="M801.7,395.3l3,9.3l-2.3,1.3l-0.7-2.4l-2.7,1.6l-0.7,3.2l-2.3,1.3l2.9-12.7L801.7,395.3z M799.1,403
						l2.1-1.2l-0.6-2c-0.2-0.6-0.3-1.3-0.5-1.8l0,0c-0.1,0.7-0.3,1.7-0.4,2.4L799.1,403L799.1,403z"/>
				</g>
				<g>
					<path class="st47" d="M804.6,367.9c1.8-1.1,3.3-0.2,3.3,1.9v12.5c0,2.1-1.5,4.7-3.3,5.7l-10.9,6.3c-1.8,1.1-3.3,0.2-3.3-1.9
						v-12.5c0-2.1,1.5-4.7,3.3-5.7L804.6,367.9z M806.7,383v-12.5c0-1.3-0.9-1.8-2-1.2l-10.9,6.3c-1.1,0.6-2,2.2-2,3.5v12.5
						c0,1.3,0.9,1.8,2,1.2l10.9-6.3C805.8,385.9,806.7,384.3,806.7,383L806.7,383z"/>
				</g>
			</g>
			<g>
				<g>
					<path class="st46" d="M830.9,383.6c1.1-0.3,1.9,0.2,1.9,1.6c0,1-0.4,2-1,2.9c-0.7,1-1.9,2.1-3.8,3.2c-1.1,0.6-1.9,1-2.3,1.2
						v-10.8c0.6-0.5,1.7-1.2,2.8-1.8c1.3-0.8,2.1-1.1,2.8-1c0.7,0,1.2,0.5,1.2,1.5C832.4,381.3,831.9,382.5,830.9,383.6L830.9,383.6
						z M828.6,389.1c1-0.6,1.8-1.5,1.8-2.7c0-1.1-0.9-1.1-2-0.4l-0.7,0.4v3.1C828,389.5,828.3,389.3,828.6,389.1L828.6,389.1z
						 M827.8,382.1v2.6l0.7-0.4c1.1-0.7,1.7-1.5,1.7-2.4c0-0.8-0.6-1-1.5-0.4C828.2,381.8,828,382,827.8,382.1L827.8,382.1z"/>
				</g>
				<g>
					<path class="st47" d="M833.7,351.3c1.8-1.1,3.3-0.2,3.3,1.9v12.5c0,2.1-1.5,4.7-3.3,5.7l-10.9,6.3c-1.8,1.1-3.3,0.2-3.3-1.9
						v-12.5c0-2.1,1.5-4.7,3.3-5.7L833.7,351.3z M835.8,366.4v-12.5c0-1.3-0.9-1.8-2-1.2l-10.9,6.3c-1.1,0.6-2,2.2-2,3.5V375
						c0,1.3,0.9,1.8,2,1.2l10.9-6.3C834.8,369.2,835.8,367.7,835.8,366.4L835.8,366.4z"/>
				</g>
			</g>
			<g>
				<g>
					<path class="st47" d="M861.9,335.1c1.8-1.1,3.3-0.2,3.3,1.9v12.5c0,2.1-1.5,4.7-3.3,5.7l-10.9,6.3c-1.8,1.1-3.3,0.2-3.3-1.9
						v-12.5c0-2.1,1.5-4.7,3.3-5.7L861.9,335.1z M864,350.3v-12.5c0-1.3-0.9-1.8-2-1.2l-10.9,6.3c-1.1,0.6-2,2.2-2,3.5v12.5
						c0,1.3,0.9,1.8,2,1.2l10.9-6.3C863,353.1,864,351.5,864,350.3L864,350.3z"/>
				</g>
				<g>
					<path class="st46" d="M858.6,362.5c1.1-0.6,2-0.9,2.4-0.9l-0.4,2.2c-0.4,0-1.1,0.2-1.8,0.6c-1.7,1-3.1,3-3.1,5.4
						c0,2.2,1.1,2.9,3.1,1.8c0.7-0.4,1.4-1,1.8-1.4l0.3,1.8c-0.4,0.5-1.3,1.2-2.5,1.9c-3.3,1.9-5,0.5-5-2.6
						C853.4,367.6,855.7,364.1,858.6,362.5z"/>
				</g>
			</g>
			<g>
				<g>
					<path class="st46" d="M888.6,346.5c1,0.3,1.6,1.3,1.6,3.2c0,2.1-0.7,4-1.6,5.4c-1,1.5-2.5,2.9-4.4,4c-1.1,0.6-1.9,1-2.5,1.3
						v-10.8c0.8-0.6,1.8-1.3,2.9-1.9C886.5,346.5,887.7,346.2,888.6,346.5z M884.7,356.8c1.9-1.1,3.2-3.1,3.2-5.7
						c0-2.3-1.2-2.8-3-1.8c-0.5,0.3-0.8,0.5-1,0.7v7.2C884.1,357.2,884.4,357,884.7,356.8L884.7,356.8L884.7,356.8z"/>
				</g>
				<g>
					<path class="st47" d="M889.8,319.1c1.8-1.1,3.3-0.2,3.3,1.9v12.5c0,2.1-1.5,4.7-3.3,5.7l-10.9,6.3c-1.8,1.1-3.3,0.2-3.3-1.9
						v-12.5c0-2.1,1.5-4.7,3.3-5.7L889.8,319.1z M891.9,334.2v-12.5c0-1.3-0.9-1.8-2-1.2l-10.9,6.3c-1.1,0.6-2,2.2-2,3.5v12.5
						c0,1.3,0.9,1.8,2,1.2l10.9-6.3C890.9,337,891.9,335.5,891.9,334.2L891.9,334.2z"/>
				</g>
			</g>
		</g>
		<g>
			<g>
				<g class="st12">
					<g>
						<path class="st18" d="M783.4,453.5l115.9-66.9c0.6-0.4,1-1,1-1.7l0,0c0-1.5-1.6-2.4-2.9-1.7l-115.9,66.9c-0.6,0.3-1,1-1,1.7
							l0,0C780.4,453.3,782.1,454.3,783.4,453.5z"/>
					</g>
					<g>
						<path class="st18" d="M871.7,386.2l-91.2,52.7c-0.6,0.4-1,1-1,1.7l0,0c0,1.5,1.6,2.4,2.9,1.7l91.2-52.7c0.6-0.3,1-1,1-1.7l0,0
							C874.6,386.4,873,385.4,871.7,386.2z"/>
					</g>
					<g>
						<path class="st18" d="M879.2,286.1l-99,57.1c-0.6,0.4-1,1-1,1.7l0,0c0,1.5,1.6,2.4,2.9,1.7l99-57.1c0.6-0.3,1-1,1-1.7l0,0
							C882.2,286.3,880.5,285.3,879.2,286.1z"/>
					</g>
					<g>
						<path class="st18" d="M798.3,325.7l103.8-59.9c0.6-0.4,1-1,1-1.7l0,0c0-1.5-1.6-2.4-2.9-1.7l-103.8,59.9c-0.6,0.3-1,1-1,1.7
							l0,0C795.3,325.5,796.9,326.4,798.3,325.7z"/>
					</g>
					<g>
						<path class="st18" d="M781.4,360.1l120.8-69.7c0.6-0.4,1-1,1-1.7l0,0c0-1.5-1.6-2.4-2.9-1.7l-120.8,69.7c-0.6,0.3-1,1-1,1.7
							l0,0C778.5,360,780.1,360.9,781.4,360.1z"/>
					</g>
				</g>
			</g>
		</g>
		<g>
			<path class="st27" d="M908.9,231.1c5.3-3.1,9.7-0.6,9.7,5.5v4.6l-159.4,92v-4.6c0-6.1,4.3-13.6,9.6-16.7L908.9,231.1z"/>
		</g>
		<g>
			<path class="st42" d="M771.5,316.8c0.6-0.3,1-0.1,1.1,0.6v2.7c0,0.7-0.5,1.5-1,1.8l-3.8,2.2c-0.6,0.3-1,0.1-1.1-0.6v-2.7
				c0-0.7,0.5-1.5,1-1.8L771.5,316.8z"/>
			<path class="st43" d="M780.4,311.7c0.6-0.3,1-0.1,1.1,0.6v2.7c0,0.7-0.5,1.5-1,1.8l-3.8,2.2c-0.6,0.3-1,0.1-1.1-0.6v-2.7
				c0-0.7,0.5-1.5,1-1.8L780.4,311.7z"/>
			<path class="st44" d="M789.5,306.5c0.6-0.3,1-0.1,1.1,0.6v2.7c0,0.7-0.5,1.5-1,1.8l-3.8,2.2c-0.6,0.3-1,0.1-1.1-0.6v-2.7
				c0-0.7,0.5-1.5,1-1.8L789.5,306.5z"/>
		</g>
		<path class="st45" d="M913,228.8c-1.8-1-4.2-0.9-6.9,0.7L766,310.3c-5.3,3.1-9.7,10.6-9.6,16.7v4.6l2.8,1.6v-4.6
			c0-6.1,4.3-13.6,9.6-16.7L908.9,231c2.7-1.6,5.1-1.7,6.9-0.7L913,228.8z"/>
	</g>
</g>
<path class="st35" d="M897.7,323.5c-5.3,3.1-9.7,10.6-9.6,16.7v4.6l0.1,59l21.2-12.3c5.3-3.1,9.7-10.6,9.6-16.7l-0.2-63.7
	L897.7,323.5z"/>
<g>
	<path class="st49" d="M904.8,441.8l-0.1-93.3l-2.8-1.6l0.1,93.3c0,3,1.1,5.2,2.8,6.2l2.8,1.6C905.9,447,904.8,444.9,904.8,441.8z"
		/>
	<g>
		<path class="st2" d="M904.7,348.5l122.7-71.2l0.1,93.3c0,6.1-4.3,13.6-9.6,16.7l-103.3,60c-5.3,3.1-9.7,0.6-9.7-5.5L904.7,348.5
			L904.7,348.5z"/>
	</g>
	<g>
		<path class="st27" d="M1017.7,267.1c5.3-3.1,9.7-0.6,9.7,5.5v4.6l-122.7,71.2v-4.6c0-6.1,4.3-13.6,9.6-16.7L1017.7,267.1z"/>
	</g>
	<g>
		<path class="st42" d="M917,332c0.6-0.3,1-0.1,1.1,0.6v2.7c0,0.7-0.5,1.5-1,1.8l-3.8,2.2c-0.6,0.3-1,0.1-1.1-0.6V336
			c0-0.7,0.5-1.5,1-1.8L917,332z"/>
		<path class="st43" d="M925.9,326.9c0.6-0.3,1-0.1,1.1,0.6v2.7c0,0.7-0.5,1.5-1,1.8l-3.8,2.2c-0.6,0.3-1,0.1-1.1-0.6v-2.7
			c0-0.7,0.5-1.5,1-1.8L925.9,326.9z"/>
		<path class="st44" d="M935,321.7c0.6-0.3,1-0.1,1.1,0.6v2.7c0,0.7-0.5,1.5-1,1.8l-3.8,2.2c-0.6,0.3-1,0.1-1.1-0.6v-2.7
			c0-0.7,0.5-1.5,1-1.8L935,321.7z"/>
	</g>
	<path class="st45" d="M1021.7,264.8c-1.8-1-4.2-0.9-6.9,0.7l-103.3,60c-5.3,3.1-9.7,10.6-9.6,16.7v4.6l2.8,1.6v-4.6
		c0-6.1,4.3-13.6,9.6-16.7l103.3-60c2.7-1.6,5.1-1.7,6.9-0.7L1021.7,264.8z"/>
</g>
<g>
	<g>
		<g>
			<g>
				<path class="st46" d="M926.7,362.5l1.9,6l-1.5,0.9l-0.5-1.6l-1.8,1l-0.4,2.1l-1.5,0.8l1.9-8.2L926.7,362.5z M925,367.6l1.4-0.8
					l-0.4-1.3c-0.1-0.4-0.2-0.8-0.3-1.2l0,0c-0.1,0.5-0.2,1.1-0.3,1.5L925,367.6L925,367.6z"/>
			</g>
			<g>
				<path class="st47" d="M928.6,344.8c1.2-0.7,2.2-0.1,2.2,1.2v8.1c0,1.4-1,3-2.1,3.7l-7,4.1c-1.2,0.7-2.2,0.1-2.2-1.2v-8.1
					c0-1.4,1-3,2.1-3.7L928.6,344.8z M929.9,354.6v-8.1c0-0.8-0.6-1.2-1.3-0.8l-7,4.1c-0.7,0.4-1.3,1.4-1.3,2.3v8.1
					c0,0.8,0.6,1.2,1.3,0.8l7-4.1C929.3,356.4,929.9,355.4,929.9,354.6L929.9,354.6z"/>
			</g>
		</g>
		<g>
			<g>
				<path class="st46" d="M926.7,395.4c0.7-0.2,1.2,0.1,1.2,1c0,0.6-0.3,1.3-0.6,1.9c-0.5,0.7-1.2,1.3-2.4,2.1
					c-0.7,0.4-1.2,0.6-1.5,0.8v-7c0.4-0.3,1.1-0.8,1.8-1.2c0.9-0.5,1.4-0.7,1.8-0.7c0.4,0,0.7,0.3,0.8,1
					C927.8,393.9,927.4,394.7,926.7,395.4L926.7,395.4z M925.3,399c0.6-0.4,1.2-1,1.2-1.7s-0.6-0.7-1.3-0.3l-0.5,0.3v2
					C924.9,399.2,925.1,399.1,925.3,399L925.3,399z M924.8,394.4v1.7l0.5-0.3c0.7-0.4,1.1-1,1.1-1.5s-0.4-0.6-1-0.3
					C925,394.2,924.9,394.3,924.8,394.4L924.8,394.4z"/>
			</g>
			<g>
				<path class="st47" d="M928.6,374.4c1.2-0.7,2.2-0.1,2.2,1.2v8.1c0,1.4-1,3-2.1,3.7l-7,4.1c-1.2,0.7-2.2,0.1-2.2-1.2v-8.1
					c0-1.4,1-3,2.1-3.7L928.6,374.4z M929.9,384.2v-8.1c0-0.8-0.6-1.2-1.3-0.8l-7,4.1c-0.7,0.4-1.3,1.4-1.3,2.3v8.1
					c0,0.8,0.6,1.2,1.3,0.8l7-4.1C929.3,386.1,929.9,385.1,929.9,384.2L929.9,384.2z"/>
			</g>
		</g>
		<g>
			<g>
				<path class="st47" d="M928.6,403.9c1.2-0.7,2.2-0.1,2.2,1.2v8.1c0,1.4-1,3-2.1,3.7l-7,4.1c-1.2,0.7-2.2,0.1-2.2-1.2v-8.1
					c0-1.4,1-3,2.1-3.7L928.6,403.9z M929.9,413.7v-8.1c0-0.8-0.6-1.2-1.3-0.8l-7,4.1c-0.7,0.4-1.3,1.4-1.3,2.3v8.1
					c0,0.8,0.6,1.2,1.3,0.8l7-4.1C929.3,415.5,929.9,414.5,929.9,413.7L929.9,413.7z"/>
			</g>
			<g>
				<path class="st46" d="M926.5,421.6c0.7-0.4,1.3-0.6,1.5-0.6l-0.3,1.4c-0.3,0-0.7,0.1-1.2,0.4c-1.1,0.6-2,1.9-2,3.5
					c0,1.4,0.7,1.9,2,1.2c0.4-0.2,0.9-0.6,1.2-0.9l0.2,1.1c-0.3,0.3-0.8,0.8-1.6,1.2c-2.2,1.2-3.3,0.3-3.3-1.7
					C923.1,424.9,924.6,422.7,926.5,421.6z"/>
			</g>
		</g>
	</g>
	<g>
		<g>
			<g>
				<path class="st18" d="M996.8,316.8l-45.9,26.3c-0.5,0.3-0.7,0.8-0.7,1.3l0,0c0,1.1,1.2,1.9,2.2,1.3l45.9-26.3
					c0.5-0.3,0.7-0.8,0.7-1.3l0,0C999,317,997.8,316.2,996.8,316.8z"/>
			</g>
			<g>
				<path class="st18" d="M958.5,332.5l55.7-32c0.5-0.3,0.7-0.8,0.7-1.3l0,0c0-1.1-1.2-1.8-2.2-1.3L957,330
					c-0.5,0.3-0.7,0.8-0.7,1.3l0,0C956.3,332.4,957.5,333.1,958.5,332.5z"/>
			</g>
		</g>
		<g>
			<g>
				<path class="st18" d="M996.8,378.4l-45.9,26.3c-0.5,0.3-0.7,0.8-0.7,1.3l0,0c0,1.1,1.2,1.9,2.2,1.3l45.9-26.3
					c0.5-0.3,0.7-0.8,0.7-1.3l0,0C999,378.6,997.8,377.9,996.8,378.4z"/>
			</g>
			<g>
				<path class="st18" d="M958.5,394.1l55.7-32c0.5-0.3,0.7-0.8,0.7-1.3l0,0c0-1.1-1.2-1.8-2.2-1.3l-55.7,32
					c-0.5,0.3-0.7,0.8-0.7,1.3l0,0C956.3,394,957.5,394.7,958.5,394.1z"/>
			</g>
		</g>
		<g>
			<g>
				<path class="st18" d="M994.3,348.2l-43.4,24.9c-0.5,0.3-0.7,0.8-0.7,1.3l0,0c0,1.1,1.2,1.9,2.2,1.3l43.4-24.9
					c0.5-0.3,0.7-0.8,0.7-1.3l0,0C996.5,348.4,995.3,347.7,994.3,348.2z"/>
			</g>
			<g>
				<path class="st18" d="M1007.5,330.9l-56.6,32.5c-0.5,0.3-0.7,0.8-0.7,1.3l0,0c0,1.1,1.2,1.9,2.2,1.3l56.6-32.5
					c0.5-0.3,0.7-0.8,0.7-1.3l0,0C1009.7,331.1,1008.5,330.4,1007.5,330.9z"/>
			</g>
		</g>
	</g>
</g>
<g>
	<g>
		<path class="st50" d="M959.6,431.7c1.2,1.7-7,5.9-7.9,3.8c-1.5-3.7-6.7-12.4-6.7-12.4c-0.2-1.8,4.6-7,6.6-4.7
			C951.6,418.4,958.6,430.3,959.6,431.7z"/>
		<path class="st51" d="M955.4,427.6c-0.7,1.7-4.1,4.2-5.4,2.7c-2-2.4-5.5-9.5-5.5-9.5c-0.5-1.3,2.7-5.4,5.5-4
			C950,416.8,956.3,425.3,955.4,427.6z"/>
		<path class="st52" d="M949.5,417.1c1.8,2.2-1.9,5.2-3.9,4.3c-1.6-1.5-0.8-4.3,0.5-4.7C948.8,415.8,949.5,417.1,949.5,417.1z"/>
		<path class="st2" d="M955.4,427.6c-0.7,1.7-4.1,4.2-5.4,2.7c-2-2.4-5.5-9.5-5.5-9.5c2.1,1.7,5.6-1.9,5.5-4
			C950,416.8,956.3,425.3,955.4,427.6z"/>
		<path class="st53" d="M959.6,431.7c1.2,1.7-7,5.9-7.9,3.8c-1.5-3.7-6.7-12.4-6.7-12.4c1.6,1.7,6.6-3,6.6-4.7
			C951.6,418.4,958.6,430.3,959.6,431.7z"/>
	</g>
	<g>
		<g>
			<path class="st54" d="M963,448c1.1,4.2,0.6,15.8,1.8,19.5c0.7,2.1,3.3,2.6,6.3,2.6c4.1,0,6.2-4.8,5.3-7.8c0,0-3.1-16.2-5.2-21.2
				C970.4,439.1,962.2,445.1,963,448z"/>
		</g>
	</g>
	<g>
		<g>
			<g>
				<g>
					<path class="st55" d="M883.3,396.6l8.8-13.9l-17.7-2.8c-0.2,0.1-0.4,0.2-0.4,0.5L883.3,396.6z"/>
					<path class="st56" d="M878,380.4l-3.6-0.6c-0.2,0.1-0.4,0.2-0.4,0.5l1.8,3.1C875.5,382,876.8,380.6,878,380.4z"/>
					<g>
						<path class="st57" d="M883.3,396.6l-9.3-16.3c0-0.1,0-0.2,0.1-0.3l7.8,11.2L883.3,396.6z"/>
					</g>
					<g>
						<g class="st12">
							<g>
								<polygon class="st58" points="1012.5,481.3 881.9,391.2 883.2,396.6 1013.8,486.7 								"/>
							</g>
							<g>
								<g>
									<polygon class="st59" points="1017,474.3 886.4,384.2 881.9,391.2 1012.5,481.3 									"/>
								</g>
							</g>
							<g>
								<polygon class="st60" points="1022.8,472.8 892.2,382.6 886.4,384.2 1017,474.3 								"/>
							</g>
							<g>
								<polygon class="st55" points="1022.8,472.8 1017,474.3 1012.5,481.3 1013.8,486.7 1019.6,485.2 1024.1,478.2 								"/>
							</g>
						</g>
					</g>
				</g>
			</g>
			<path class="st35" d="M1019.8,473.6c-3.4,1.7-6.4,6.1-6.7,9.9c-0.1,1.4,0.2,2.4,0.7,3.2h-0.1l-2.3-1.6c-0.2-0.6-0.3-1.4-0.2-2.3
				c0.1-1,0.3-2,0.6-3c-0.4,1-0.6,2-0.6,3c-0.1,0.9,0,1.6,0.2,2.3l-0.1-0.1c-0.6-0.8-0.7-4.4-0.6-4.9c0.6-2.6,2.4-5.3,4.5-7
				c0.6-0.5,4.5-2.1,5.5-1.7l2,1.4l0.1,0.3C1022,472.9,1020.9,473.1,1019.8,473.6z"/>
			<g>
				<path class="st61" d="M1012.4,485.9c0.6,0.5,0.2,1,0.9,1.5c-1-0.8-1.5-2.2-1.4-4.1c0.3-4.1,3.5-8.9,7.2-10.8
					c1.8-0.9,3.4-0.9,4.5-0.3c-0.7-0.4-1.1,0.1-1.7-0.3c-1-0.6-2.5-0.6-4.2,0.2c-3.4,1.7-6.4,6.1-6.7,9.9
					C1011,483.9,1011.5,485.2,1012.4,485.9z"/>
				<g>
					<path class="st62" d="M1025.1,474.2c-0.1-0.1-0.2-0.2-0.4-0.3c-1-0.7-2.6-0.7-4.3,0.1c-3.4,1.7-6.4,6.1-6.7,9.9
						c-0.1,1.9,0.4,3.2,1.5,3.9c0.1,0.1,0.3,0.2,0.5,0.2c-0.9,0-1.6-0.1-2.2-0.6c-0.1,0-0.1-0.1-0.2-0.1c-1-0.8-1.5-2.2-1.4-4.1
						c0.3-4.1,3.5-8.9,7.2-10.8c1.8-0.9,3.4-0.9,4.5-0.3c0.1,0,0.1,0.1,0.2,0.1C1024.4,472.8,1024.8,473.4,1025.1,474.2z"/>
					<path class="st2" d="M1018.1,487.4c3.7-1.8,7-6.6,7.2-10.8c0.1-0.9,0-1.7-0.3-2.4c0.8,0.8,1.2,2,1.1,3.6
						c-0.2,3.8-3.2,8.2-6.7,9.9c-1.5,0.7-2.9,0.8-3.9,0.4C1016.4,488,1017.2,487.8,1018.1,487.4z"/>
				</g>
				<path class="st61" d="M1015.2,487.8c0.7,0.5,0.3,1.1,0.9,1.5c-1.1-0.8-1.7-2.2-1.6-4.2c0.3-4.1,3.5-8.9,7.2-10.8
					c1.9-0.9,3.6-0.9,4.7-0.1c-0.7-0.5-1.1,0.1-1.8-0.3c-1-0.7-2.6-0.7-4.3,0.1c-3.4,1.7-6.4,6.1-6.7,9.9
					C1013.6,485.8,1014.2,487.1,1015.2,487.8z"/>
				<g>
					<path class="st62" d="M1027.8,476.1c-0.1-0.1-0.2-0.2-0.4-0.3c-1-0.7-2.6-0.7-4.3,0.1c-3.4,1.7-6.4,6.1-6.7,9.9
						c-0.1,1.9,0.4,3.2,1.5,3.9c0.1,0.1,0.3,0.2,0.5,0.2c-0.9,0-1.6-0.1-2.2-0.6c-1.1-0.8-1.7-2.2-1.6-4.2c0.3-4.1,3.5-8.9,7.2-10.8
						c1.9-0.9,3.6-0.9,4.7-0.1C1027.1,474.7,1027.5,475.3,1027.8,476.1z"/>
					<path class="st2" d="M1020.8,489.2c3.7-1.8,7-6.6,7.2-10.8c0.1-0.9,0-1.7-0.3-2.4c0.8,0.8,1.2,2,1.1,3.6
						c-0.2,3.8-3.2,8.2-6.7,9.9c-1.5,0.7-2.9,0.8-3.9,0.4C1019.1,489.9,1019.9,489.7,1020.8,489.2z"/>
				</g>
				<g>
					<path class="st61" d="M1029.2,476.1c0.7,0.4,0.3,1,0.9,1.5c-1-0.7-2.6-0.7-4.3,0.1c-3.4,1.7-6.4,6.1-6.7,9.9
						c-0.1,1.9,0.4,3.2,1.5,3.9c0.1,0,0.1,0.1,0.2,0.1c0.1,0.1,0.2,0.1,0.4,0.2c-0.7,0-1.3-0.1-1.8-0.3c-0.1,0-0.2-0.1-0.3-0.1
						s-0.1-0.1-0.2-0.1c-0.6-0.4-1.1-1-1.3-1.9c-0.8-0.8-1.2-2-1.1-3.6c0.2-3.8,3.2-8.2,6.7-9.9c1.5-0.7,2.9-0.8,3.9-0.4
						C1027.8,475.5,1028.6,475.7,1029.2,476.1z"/>
				</g>
				<path class="st61" d="M1017.9,489.7c0.7,0.5,0.3,1.1,0.9,1.5c-1.1-0.8-1.7-2.2-1.6-4.2c0.3-4.1,3.5-8.9,7.2-10.8
					c1.9-0.9,3.6-0.9,4.7-0.1c-0.7-0.5-1.1,0.1-1.8-0.3c-1-0.7-2.6-0.7-4.3,0.1c-3.4,1.7-6.4,6.1-6.7,9.9
					C1016.3,487.6,1016.9,489,1017.9,489.7z"/>
				<g>
					<path class="st62" d="M1024.9,491.4c3.4-1.7,6.4-6.1,6.7-9.9c0.2-3.8-2.3-5.5-5.8-3.8s-6.4,6.1-6.7,9.9
						C1018.8,491.4,1021.4,493.1,1024.9,491.4z M1024.9,490.9c-3.2,1.6-5.6,0-5.4-3.5c0.2-3.5,3-7.7,6.2-9.3c3.2-1.6,5.6,0,5.4,3.5
						C1030.9,485.2,1028.1,489.4,1024.9,490.9L1024.9,490.9z"/>
				</g>
				<g>
					<g>
						<path class="st63" d="M1033.5,494c1.9-0.9,3.5-3.3,3.6-5.3s-1.3-3-3.1-2c-1.9,0.9-3.5,3.3-3.6,5.3S1031.7,494.9,1033.5,494z"
							/>
					</g>
					<path class="st64" d="M1036.4,482.7c0.1,0.1,0.2,0.2,0.3,0.3c0.1,0.1,0.3,0.3,0.4,0.5c0.3,0.4,0.3,0.5,0.5,0.9
						c0.1,0.2,0.2,0.5,0.3,0.7c0,0.1,0.1,0.3,0.1,0.4c0,0.2,0.1,0.4,0.1,0.6c0,0.3,0.1,0.6,0.1,0.9c0,0.5,0,0.8-0.1,1
						c-0.1,0.4-0.1,0.6-0.2,1c0,0-0.1,0.4-0.3,1c-0.2,0.5-0.4,0.9-0.4,0.9c-0.2,0.4-0.3,0.6-0.5,0.9c-0.1,0.1-0.2,0.3-0.3,0.4
						c-0.1,0.1-0.2,0.3-0.3,0.4c-0.1,0.1-0.2,0.3-0.3,0.4c-0.3,0.4-0.8,1-1.4,1.5c-0.2,0.2-0.5,0.4-0.9,0.6
						c-0.2,0.2-0.6,0.3-0.8,0.5c-0.2,0.1-0.4,0.2-0.6,0.3c-0.2,0.1-0.5,0.2-0.7,0.2c-0.3,0.1-0.6,0.1-0.8,0.2c-0.2,0-0.5,0.1-0.8,0
						c-0.1,0-0.3,0-0.4,0s-0.3,0-0.4-0.1c-0.2,0-0.5-0.1-0.8-0.2c-0.2-0.1-0.4-0.1-0.6-0.2s-0.5-0.3-0.7-0.4
						c-0.9-0.6-1.5-1.9-1.4-3.7c0.2-3.5,3-7.7,6.2-9.3c1.6-0.8,3.1-0.8,4-0.1C1036.1,482.4,1036.3,482.5,1036.4,482.7z M1034,486.7
						c-1.9,0.9-3.5,3.3-3.6,5.3s1.3,3,3.1,2c1.9-0.9,3.5-3.3,3.6-5.3C1037.3,486.7,1035.9,485.7,1034,486.7z"/>
					<path class="st65" d="M1020.9,491.1l6.2,4.3c-0.9-0.6-1.5-1.9-1.4-3.7c0.2-3.5,3-7.7,6.2-9.3c1.6-0.8,3.1-0.8,4-0.1l-6.2-4.3
						c-1-0.7-2.4-0.7-4,0.1c-3.2,1.6-6,5.7-6.2,9.3C1019.4,489.1,1019.9,490.4,1020.9,491.1z"/>
				</g>
			</g>
		</g>
	</g>
	<g>
		<g>
			<g>
				<path class="st66" d="M945.8,467c0.3-1.7,1.4-3,1.6-4.2c-0.3-2.2-7.1-4.2-7.8-2.2c-0.3,1-0.9,3.5-2,6.5L945.8,467z"/>
				<path class="st67" d="M940.7,458.4c-1,2.9-7.5,20.9-6.7,23.9c0.9,3.7,7.2,1.6,8.4-1.8c1.6-4.9,4.4-15.3,5.3-20.1
					C947.4,458.4,941.3,456.6,940.7,458.4z"/>
				<g>
					<path class="st68" d="M949.1,452.4c1.3,0.9,0.7,1.8-0.1,1.9c-1.7,0.4-1.1,3.5-2.2,3.8c-1.1,0.4-1.3,3.2-1.3,3.2
						c-1.7,0.4-3.3-0.2-4.9-1.2c0,0,0.8-2.8,0.4-4.4c-0.4-1.4,1.5-4.3,2.3-4.7C944.6,450.5,948.6,452,949.1,452.4z"/>
					<path class="st68" d="M951.5,455c0.1-0.1,0.2-0.2,0.1-0.4c-0.2-0.4-0.9-0.6-1.5-0.2s-1.6,1.2-2.5,0.9l-0.8,2.8
						c0,0,1.4-0.9,1.8-1C949.3,456.9,951,455.3,951.5,455z"/>
				</g>
				<path class="st2" d="M940.7,458.4c-1,2.9-7.5,20.9-6.7,23.9c0.9,3.7,7.2,1.6,8.4-1.8c1.6-4.9,4.4-15.3,5.3-20.1
					C946.9,462.2,940.8,460.5,940.7,458.4z"/>
				<path class="st69" d="M939.7,460.5c-2.9,6.8-9.2,25-7.6,27.1c2.6,3.5,8.2,1.8,9.5-2.1c1.9-5.5,4.9-17.3,5.9-22.8
					C946.7,464.9,939.8,462.9,939.7,460.5z"/>
			</g>
			<g>
				<g>
					<g>
						<path class="st70" d="M963.7,578c-0.1,0.2-0.2,0.9-0.2,1.3c2.7,2.1,6,3.8,8.6,3.1c2.2-0.6,2.6-2.5,2.2-4.4L963.7,578z"/>
						<path class="st70" d="M972.2,581.9c-3.3,0.9-8.4-3.3-10.9-5.6c-2.4-2.2-4.7-3-6-4.7c-1.1-1.4-1.2-3.1-0.8-4.9
							c1-4.8,5.8-0.7,11.8,3.7c3.8,2.8,6.4,3,7.6,5.3C974.8,577.7,975.1,581.1,972.2,581.9z"/>
						<path class="st71" d="M972.2,580.9c-3.3,0.9-7.9-2.9-10.5-5.1c-2.5-2.1-4.9-3.4-6.2-5.1c-1.1-1.4-1.3-2.7-0.9-4.6
							c1-4.8,6-0.9,12,3.4c3.8,2.8,6.4,3,7.6,5.3C975,576.9,975.1,580,972.2,580.9z"/>
					</g>
					<path class="st66" d="M963.2,572.9c1.2,6.7,10.5,8.3,11.5,3.3c0.1-0.6-1.2-57.1-1.2-57.1l-18.3-2
						C955.2,517,962.8,570.6,963.2,572.9z"/>
					<g>
						<path class="st52" d="M963.2,455c0.7,5.6-8.5,6.6-10.8,3.1l-0.7-10.4l10.8-1.1L963.2,455z"/>
						<path class="st52" d="M964.2,441c0,3.3-1.4,7.4-3.1,9.4c-2.9,3.1-11.5,5.8-13.8,3.5c-2.7-2.6-2.6-9.6-2.5-14.4
							c0.2-7.3,3.9-13.2,12-12.4C962.1,427.7,964.1,433.7,964.2,441z"/>
						<path class="st72" d="M966.8,431.1c0.4,0.5,0.8,1.1,0.8,1.8c0.2-1.2-0.6-2.4-1.5-3.1c-0.3-1.4-1.6-3.4-3.5-3.8
							c1,0.3,1.6,1.3,2,2.1c-0.6-0.5-1.3-1-2.1-1.2c-4.3-1.6-9.3-1-13.1,0.7c-0.4,0-0.8,0.2-1.2,0.3c-0.2,0-0.3,0.1-0.5,0.1
							l-2.4,0.6c0.5,0,0.9,0,1.3,0c-0.2,0.1-0.4,0.2-0.6,0.3l-2.2,1.2c0.6-0.1,1.1-0.3,1.6-0.4c-0.5,0.4-0.9,0.8-1.4,1.1l-1.9,1.6
							c1-0.4,1.8-0.9,2.4-1.3c-0.6,0.6-1.1,1.4-1.6,2.2l-1,1.7c0.7-0.5,1.2-1,1.7-1.5c-0.1,0.4-0.9,2.2,0.1,4.1l1.5,1.4
							c-0.3-0.8-0.3-1.8,0.1-2.4c0.3,1.1,2,1.7,2.2,1.9c0.3,0.6,1.2,4.2,1.7,5.1c0.5,0.2,0.7,0.2,1.2,0.2c0.2,0,0-3.8,0.6-4.6
							c0.5-0.6,1.1-0.9,2-0.4c0.7,0.4,0.7,1.5,0.7,2.8c-0.1,2.4,1.5,5.8,3,6.6c2.7,1.4,5,1.1,5.8,1.9
							C965.4,449.1,968.4,435.3,966.8,431.1z"/>
					</g>
					<path class="st2" d="M963,452.3c-3.1-0.4-9.2,4.4-11.6,6.5c-1.9,1.7-3.2,10.2-3.2,10.2s1.2-2.7,2-3c1.4-0.6,1.7-2.4,2.8-4
						c2.1-3,13.1-5.1,13.1-5.1S964.1,452.4,963,452.3z"/>
					<g>
						<path class="st70" d="M933.4,590.5c0.9,0.8,8.1,3.3,10.2-0.1c0.3-0.5,0.2-2.2,0.2-2.2l-10.6,0.5L933.4,590.5z"/>
						<path class="st70" d="M942.9,589.6c-2,2.5-5.3,0.9-10.3-0.1c-5.7-1.1-8.3-0.7-11.8-3.8c-2.2-2-3.7-6.3-1.6-6.3
							c4.6,0,5.6,1.6,12.7,3.3c4.6,1.1,7.5-0.3,9.8,0.9C943.5,584.6,944.6,587.6,942.9,589.6z"/>
						<path class="st71" d="M942.5,589.8c-3,1.6-5.6,0.2-10.4-1c-5.7-1.4-7-1.1-10.8-3.7c-2.6-1.8-4.7-6.1-1.8-6.2
							c4.6-0.1,5.5,0.4,12.5,2.1c4.6,1.1,8.7,0.7,10.5,2.6C944,585.1,944.6,588.6,942.5,589.8z"/>
					</g>
					<path class="st73" d="M930.9,582.8c-0.1,5.2,9.8,8.1,12.7,3.9c0.4-0.6,7-34.3,7-34.3l15.7-31.2l-18.5-7.3
						c0,0-11.7,28.5-12.8,34C934,552.8,930.9,581.7,930.9,582.8z"/>
					<path class="st74" d="M972,458c12.2,8,3.4,61.6,3.1,64.9c-1,2.2-3.6,3.5-8.4,4.1c-10.7,1.4-20.2-3.4-22.4-6.8
						c-0.1-2.7,5-11.6,5-19.9c-0.1-9-3.4-17-3.4-17c-0.2-5.9-1.7-13.7,3.3-16.9c1.4-0.9,2.4-2.6,4.4-3.9c3.1-1.9,4.2-3.1,6.3-4.4
						C964,455.6,969.2,456.2,972,458z"/>
					<path class="st54" d="M964.5,454c-3.1-0.4-9.6,4.2-12,6.3c-1.9,1.7-6.8,6.9-6.5,9.9c1.6-2.2,10-8.2,12.2-8.8
						c4.3-1.1,6.8-3.3,7.9-4.4c0.3-0.3,0.3-0.6,0-0.8C965.6,456,965.1,454.1,964.5,454z"/>
				</g>
			</g>
			<g>
				<path class="st75" d="M943.7,488c4.9-3.7,8.6-6.3,9.8-8.5c2-3.7-0.2-12.3-5.1-10.7c-4.5,1.5-10.4,8.3-15.1,15.2
					C928.2,491.6,939.6,491,943.7,488z"/>
			</g>
			<path class="st68" d="M948.2,455.7c0.4-0.8,1.2-1.5,1.7-2.4c0.8-1.4,1.3-2.9,1.5-3.3c0.3-0.7-0.7-1.4-1.2-0.7
				c-0.3,0.4-0.8,1.6-1.6,2.8c-0.6,0.9-1.5,1.7-2.1,2.4L948.2,455.7z"/>
		</g>
	</g>
	<path class="st52" d="M942.4,422.7c0.4-0.6,1.4-1.2,1.5-1.5c-0.2-0.3-1-0.1-2.2,0.5c-1.4,0.8-1.5,1.1-2.3,1.2
		c-1.6,0.3-2.1-3.4-2-3.8c0.1-1.6,2-3.2,3.1-3.8c1.2-0.7,3-0.5,3.9-0.3c0.6,0.1,1.7,0,2.1,0.1c1.8,0.6,3.1,2.1,2.5,2.8
		c-0.6,0.6-0.8,1.1-1,1.9c-0.5,1.4-2.2,2.7-2.6,2.8c-0.9,0.2-2.1,1.2-2.5,1.7c-0.1,0.1-0.3,0.1-0.4,0
		C942.1,424,941.9,423.5,942.4,422.7z"/>
</g>
</svg>
