<?xml version="1.0" encoding="utf-8"?>
<!-- Generator: Adobe Illustrator 22.1.0, SVG Export Plug-In . SVG Version: 6.00 Build 0)  -->
<svg version="1.1" id="Layer_1" xmlns="http://www.w3.org/2000/svg" xmlns:xlink="http://www.w3.org/1999/xlink" x="0px" y="0px"
	 viewBox="0 0 1200 840" style="enable-background:new 0 0 1200 840;" xml:space="preserve">
<style type="text/css">
	.st0{fill:#FFFFFF;}
	.st1{fill:#2580EF;}
</style>
<g id="_x2014_ÎÓÈ_x5F_2">
	<rect class="st0" width="1200" height="840"/>
</g>
<g id="_x2014_ÎÓÈ_x5F_4">
	<g id="XMLID_74_">
		<path id="XMLID_75_" class="st1" d="M899.1,394.6c-4.6,0-8.4-3.8-8.4-8.4s3.8-8.4,8.4-8.4c4.6,0,8.4,3.8,8.4,8.4
			C907.5,390.8,903.8,394.6,899.1,394.6z M899.1,380.8c-3,0-5.4,2.4-5.4,5.4s2.4,5.4,5.4,5.4s5.4-2.4,5.4-5.4
			C904.5,383.2,902.1,380.8,899.1,380.8z"/>
	</g>
	<g id="XMLID_773_">
		<g id="XMLID_833_">
			<g id="XMLID_834_">
				<path id="XMLID_835_" class="st1" d="M95.9,797.3c-0.5,0-1-0.2-1.4-0.6l-3.2-3.2c-0.8-0.8-0.8-2,0-2.7c0.8-0.8,2-0.8,2.7,0
					l3.2,3.2c0.8,0.8,0.8,2,0,2.7C96.9,797.1,96.4,797.3,95.9,797.3z"/>
			</g>
		</g>
		<g id="XMLID_830_">
			<g id="XMLID_831_">
				<path id="XMLID_832_" class="st1" d="M99.3,789.1h-4.5c-1.1,0-1.9-0.9-1.9-1.9c0-1.1,0.9-1.9,1.9-1.9h4.5c1.1,0,1.9,0.9,1.9,1.9
					C101.2,788.3,100.3,789.1,99.3,789.1z"/>
			</g>
		</g>
		<g id="XMLID_827_">
			<g id="XMLID_828_">
				<path id="XMLID_829_" class="st1" d="M92.7,784.1c-0.5,0-1-0.2-1.4-0.6c-0.8-0.8-0.8-2,0-2.7l3.2-3.2c0.8-0.8,2-0.8,2.7,0
					c0.8,0.8,0.8,2,0,2.7l-3.2,3.2C93.7,783.9,93.2,784.1,92.7,784.1z"/>
			</g>
		</g>
		<g id="XMLID_824_">
			<g id="XMLID_825_">
				<path id="XMLID_826_" class="st1" d="M87.7,782c-1.1,0-1.9-0.9-1.9-1.9v-4.5c0-1.1,0.9-1.9,1.9-1.9c1.1,0,1.9,0.9,1.9,1.9v4.5
					C89.6,781.2,88.8,782,87.7,782z"/>
			</g>
		</g>
		<g id="XMLID_821_">
			<g id="XMLID_822_">
				<path id="XMLID_823_" class="st1" d="M82.7,784.1c-0.5,0-1-0.2-1.4-0.6l-3.2-3.2c-0.8-0.8-0.8-2,0-2.7c0.8-0.8,2-0.8,2.7,0
					l3.2,3.2c0.8,0.8,0.8,2,0,2.7C83.7,783.9,83.2,784.1,82.7,784.1z"/>
			</g>
		</g>
		<g id="XMLID_818_">
			<g id="XMLID_819_">
				<path id="XMLID_820_" class="st1" d="M80.6,789.1h-4.5c-1.1,0-1.9-0.9-1.9-1.9c0-1.1,0.9-1.9,1.9-1.9h4.5c1.1,0,1.9,0.9,1.9,1.9
					C82.5,788.2,81.7,789.1,80.6,789.1z"/>
			</g>
		</g>
		<g id="XMLID_815_">
			<g id="XMLID_816_">
				<path id="XMLID_817_" class="st1" d="M79.5,797.3c-0.5,0-1-0.2-1.4-0.6c-0.8-0.8-0.8-2,0-2.7l3.2-3.2c0.8-0.8,2-0.8,2.7,0
					c0.8,0.8,0.8,2,0,2.7l-3.2,3.2C80.5,797.1,80,797.3,79.5,797.3z"/>
			</g>
		</g>
		<g id="XMLID_812_">
			<g id="XMLID_813_">
				<path id="XMLID_814_" class="st1" d="M87.7,800.7c-1.1,0-1.9-0.9-1.9-1.9v-4.5c0-1.1,0.9-1.9,1.9-1.9c1.1,0,1.9,0.9,1.9,1.9v4.5
					C89.6,799.8,88.7,800.7,87.7,800.7z"/>
			</g>
		</g>
		<g id="XMLID_809_">
			<g id="XMLID_810_">
				<path id="XMLID_811_" class="st1" d="M95.9,797.3c-0.5,0-1-0.2-1.4-0.6l-3.2-3.2c-0.8-0.8-0.8-2,0-2.7c0.8-0.8,2-0.8,2.7,0
					l3.2,3.2c0.8,0.8,0.8,2,0,2.7C96.9,797.1,96.4,797.3,95.9,797.3z"/>
			</g>
		</g>
		<g id="XMLID_780_">
			<g id="XMLID_781_">
				<path id="XMLID_808_" class="st1" d="M99.3,789.1h-4.5c-1.1,0-1.9-0.9-1.9-1.9c0-1.1,0.9-1.9,1.9-1.9h4.5c1.1,0,1.9,0.9,1.9,1.9
					C101.2,788.3,100.3,789.1,99.3,789.1z"/>
			</g>
		</g>
		<g id="XMLID_777_">
			<g id="XMLID_778_">
				<path id="XMLID_779_" class="st1" d="M92.7,784.1c-0.5,0-1-0.2-1.4-0.6c-0.8-0.8-0.8-2,0-2.7l3.2-3.2c0.8-0.8,2-0.8,2.7,0
					c0.8,0.8,0.8,2,0,2.7l-3.2,3.2C93.7,783.9,93.2,784.1,92.7,784.1z"/>
			</g>
		</g>
		<g id="XMLID_774_">
			<g id="XMLID_775_">
				<path id="XMLID_776_" class="st1" d="M87.7,782c-1.1,0-1.9-0.9-1.9-1.9v-4.5c0-1.1,0.9-1.9,1.9-1.9c1.1,0,1.9,0.9,1.9,1.9v4.5
					C89.6,781.2,88.8,782,87.7,782z"/>
			</g>
		</g>
	</g>
	<g id="XMLID_200_">
		<g id="XMLID_234_">
			<g id="XMLID_235_">
				<path id="XMLID_236_" class="st1" d="M53.1,348c-0.4,0-0.7-0.1-1-0.4l-2.2-2.2c-0.5-0.5-0.5-1.4,0-1.9s1.4-0.5,1.9,0l2.2,2.2
					c0.5,0.5,0.5,1.4,0,1.9C53.8,347.9,53.4,348,53.1,348z"/>
			</g>
		</g>
		<g id="XMLID_231_">
			<g id="XMLID_232_">
				<path id="XMLID_233_" class="st1" d="M55.5,342.2h-3.2c-0.8,0-1.4-0.6-1.4-1.4s0.6-1.4,1.4-1.4h3.2c0.8,0,1.4,0.6,1.4,1.4
					S56.3,342.2,55.5,342.2z"/>
			</g>
		</g>
		<g id="XMLID_228_">
			<g id="XMLID_229_">
				<path id="XMLID_230_" class="st1" d="M50.9,338.7c-0.4,0-0.7-0.1-1-0.4c-0.5-0.5-0.5-1.4,0-1.9l2.2-2.2c0.5-0.5,1.4-0.5,1.9,0
					s0.5,1.4,0,1.9l-2.2,2.2C51.6,338.5,51.2,338.7,50.9,338.7z"/>
			</g>
		</g>
		<g id="XMLID_225_">
			<g id="XMLID_226_">
				<path id="XMLID_227_" class="st1" d="M47.3,337.2c-0.8,0-1.4-0.6-1.4-1.4v-3.2c0-0.8,0.6-1.4,1.4-1.4c0.8,0,1.4,0.6,1.4,1.4v3.2
					C48.7,336.6,48.1,337.2,47.3,337.2z"/>
			</g>
		</g>
		<g id="XMLID_222_">
			<g id="XMLID_223_">
				<path id="XMLID_224_" class="st1" d="M43.7,338.6c-0.4,0-0.7-0.1-1-0.4l-2.2-2.2c-0.5-0.5-0.5-1.4,0-1.9s1.4-0.5,1.9,0l2.2,2.2
					c0.5,0.5,0.5,1.4,0,1.9C44.4,338.5,44.1,338.6,43.7,338.6z"/>
			</g>
		</g>
		<g id="XMLID_219_">
			<g id="XMLID_220_">
				<path id="XMLID_221_" class="st1" d="M42.2,342.2H39c-0.8,0-1.4-0.6-1.4-1.4s0.6-1.4,1.4-1.4h3.2c0.8,0,1.4,0.6,1.4,1.4
					C43.6,341.6,43,342.2,42.2,342.2z"/>
			</g>
		</g>
		<g id="XMLID_216_">
			<g id="XMLID_217_">
				<path id="XMLID_218_" class="st1" d="M41.5,348c-0.4,0-0.7-0.1-1-0.4c-0.5-0.5-0.5-1.4,0-1.9l2.2-2.2c0.5-0.5,1.4-0.5,1.9,0
					s0.5,1.4,0,1.9l-2.2,2.2C42.2,347.9,41.8,348,41.5,348z"/>
			</g>
		</g>
		<g id="XMLID_213_">
			<g id="XMLID_214_">
				<path id="XMLID_215_" class="st1" d="M47.3,350.4c-0.8,0-1.4-0.6-1.4-1.4v-3.2c0-0.8,0.6-1.4,1.4-1.4c0.8,0,1.4,0.6,1.4,1.4v3.2
					C48.6,349.8,48,350.4,47.3,350.4z"/>
			</g>
		</g>
		<g id="XMLID_210_">
			<g id="XMLID_211_">
				<path id="XMLID_212_" class="st1" d="M53.1,348c-0.4,0-0.7-0.1-1-0.4l-2.2-2.2c-0.5-0.5-0.5-1.4,0-1.9s1.4-0.5,1.9,0l2.2,2.2
					c0.5,0.5,0.5,1.4,0,1.9C53.8,347.9,53.4,348,53.1,348z"/>
			</g>
		</g>
		<g id="XMLID_207_">
			<g id="XMLID_208_">
				<path id="XMLID_209_" class="st1" d="M55.5,342.2h-3.2c-0.8,0-1.4-0.6-1.4-1.4s0.6-1.4,1.4-1.4h3.2c0.8,0,1.4,0.6,1.4,1.4
					S56.3,342.2,55.5,342.2z"/>
			</g>
		</g>
		<g id="XMLID_204_">
			<g id="XMLID_205_">
				<path id="XMLID_206_" class="st1" d="M50.9,338.7c-0.4,0-0.7-0.1-1-0.4c-0.5-0.5-0.5-1.4,0-1.9l2.2-2.2c0.5-0.5,1.4-0.5,1.9,0
					s0.5,1.4,0,1.9l-2.2,2.2C51.6,338.5,51.2,338.7,50.9,338.7z"/>
			</g>
		</g>
		<g id="XMLID_201_">
			<g id="XMLID_202_">
				<path id="XMLID_203_" class="st1" d="M47.3,337.2c-0.8,0-1.4-0.6-1.4-1.4v-3.2c0-0.8,0.6-1.4,1.4-1.4c0.8,0,1.4,0.6,1.4,1.4v3.2
					C48.7,336.6,48.1,337.2,47.3,337.2z"/>
			</g>
		</g>
	</g>
	<g id="XMLID_142_">
		<g id="XMLID_176_">
			<g id="XMLID_177_">
				<path id="XMLID_178_" class="st1" d="M1139,596.4c-0.4,0-0.8-0.2-1.2-0.5l-2.7-2.7c-0.6-0.6-0.6-1.7,0-2.3s1.7-0.6,2.3,0
					l2.7,2.7c0.6,0.6,0.6,1.7,0,2.3C1139.8,596.3,1139.4,596.4,1139,596.4z"/>
			</g>
		</g>
		<g id="XMLID_173_">
			<g id="XMLID_174_">
				<path id="XMLID_175_" class="st1" d="M1141.9,589.4h-3.9c-0.9,0-1.7-0.7-1.7-1.7c0-0.9,0.7-1.7,1.7-1.7h3.9
					c0.9,0,1.7,0.7,1.7,1.7C1143.6,588.6,1142.8,589.4,1141.9,589.4z"/>
			</g>
		</g>
		<g id="XMLID_170_">
			<g id="XMLID_171_">
				<path id="XMLID_172_" class="st1" d="M1136.3,585.1c-0.4,0-0.8-0.2-1.2-0.5c-0.6-0.6-0.6-1.7,0-2.3l2.7-2.7
					c0.6-0.6,1.7-0.6,2.3,0c0.6,0.6,0.6,1.7,0,2.3l-2.7,2.7C1137.1,584.9,1136.7,585.1,1136.3,585.1z"/>
			</g>
		</g>
		<g id="XMLID_167_">
			<g id="XMLID_168_">
				<path id="XMLID_169_" class="st1" d="M1131.9,583.2c-0.9,0-1.7-0.7-1.7-1.7v-3.9c0-0.9,0.7-1.7,1.7-1.7c0.9,0,1.7,0.7,1.7,1.7
					v3.9C1133.6,582.5,1132.9,583.2,1131.9,583.2z"/>
			</g>
		</g>
		<g id="XMLID_164_">
			<g id="XMLID_165_">
				<path id="XMLID_166_" class="st1" d="M1127.6,585c-0.4,0-0.8-0.2-1.2-0.5l-2.7-2.7c-0.6-0.6-0.6-1.7,0-2.3s1.7-0.6,2.3,0
					l2.7,2.7c0.6,0.6,0.6,1.7,0,2.3C1128.5,584.9,1128,585,1127.6,585z"/>
			</g>
		</g>
		<g id="XMLID_161_">
			<g id="XMLID_162_">
				<path id="XMLID_163_" class="st1" d="M1125.8,589.4h-3.9c-0.9,0-1.7-0.7-1.7-1.7c0-0.9,0.7-1.7,1.7-1.7h3.9
					c0.9,0,1.7,0.7,1.7,1.7C1127.5,588.6,1126.7,589.4,1125.8,589.4z"/>
			</g>
		</g>
		<g id="XMLID_158_">
			<g id="XMLID_159_">
				<path id="XMLID_160_" class="st1" d="M1124.9,596.4c-0.4,0-0.8-0.2-1.2-0.5c-0.6-0.6-0.6-1.7,0-2.3l2.7-2.7
					c0.6-0.6,1.7-0.6,2.3,0c0.6,0.6,0.6,1.7,0,2.3l-2.7,2.7C1125.7,596.3,1125.3,596.4,1124.9,596.4z"/>
			</g>
		</g>
		<g id="XMLID_155_">
			<g id="XMLID_156_">
				<path id="XMLID_157_" class="st1" d="M1131.9,599.4c-0.9,0-1.7-0.7-1.7-1.7v-3.9c0-0.9,0.7-1.7,1.7-1.7c0.9,0,1.7,0.7,1.7,1.7
					v3.9C1133.6,598.6,1132.8,599.4,1131.9,599.4z"/>
			</g>
		</g>
		<g id="XMLID_152_">
			<g id="XMLID_153_">
				<path id="XMLID_154_" class="st1" d="M1139,596.4c-0.4,0-0.8-0.2-1.2-0.5l-2.7-2.7c-0.6-0.6-0.6-1.7,0-2.3s1.7-0.6,2.3,0
					l2.7,2.7c0.6,0.6,0.6,1.7,0,2.3C1139.8,596.3,1139.4,596.4,1139,596.4z"/>
			</g>
		</g>
		<g id="XMLID_149_">
			<g id="XMLID_150_">
				<path id="XMLID_151_" class="st1" d="M1141.9,589.4h-3.9c-0.9,0-1.7-0.7-1.7-1.7c0-0.9,0.7-1.7,1.7-1.7h3.9
					c0.9,0,1.7,0.7,1.7,1.7C1143.6,588.6,1142.8,589.4,1141.9,589.4z"/>
			</g>
		</g>
		<g id="XMLID_146_">
			<g id="XMLID_147_">
				<path id="XMLID_148_" class="st1" d="M1136.3,585.1c-0.4,0-0.8-0.2-1.2-0.5c-0.6-0.6-0.6-1.7,0-2.3l2.7-2.7
					c0.6-0.6,1.7-0.6,2.3,0c0.6,0.6,0.6,1.7,0,2.3l-2.7,2.7C1137.1,584.9,1136.7,585.1,1136.3,585.1z"/>
			</g>
		</g>
		<g id="XMLID_143_">
			<g id="XMLID_144_">
				<path id="XMLID_145_" class="st1" d="M1131.9,583.2c-0.9,0-1.7-0.7-1.7-1.7v-3.9c0-0.9,0.7-1.7,1.7-1.7c0.9,0,1.7,0.7,1.7,1.7
					v3.9C1133.6,582.5,1132.9,583.2,1131.9,583.2z"/>
			</g>
		</g>
	</g>
	<g id="XMLID_878_">
		<path id="XMLID_879_" class="st1" d="M1168.5,372.4c-4.3,2.5-9.7,1-12.2-3.3s-1-9.7,3.3-12.2c1.4-0.8,3-1.2,4.6-1.2
			c0.9,0,1.6,0.7,1.6,1.6s-0.7,1.6-1.6,1.6c-1,0-2.1,0.2-3,0.8c-2.7,1.6-3.7,5.1-2.1,7.8c1.6,2.7,5.1,3.7,7.8,2.1
			c2.7-1.6,3.7-5.1,2.1-7.8c-0.4-0.8-0.2-1.7,0.6-2.2c0.8-0.4,1.7-0.2,2.2,0.6C1174.2,364.5,1172.8,370,1168.5,372.4z"/>
	</g>
	<g id="XMLID_179_">
		<path id="XMLID_180_" class="st1" d="M1040.8,690.2c1.5,5-1.2,10.2-6.2,11.8c-5,1.5-10.2-1.2-11.8-6.2c-0.5-1.6-0.6-3.4-0.2-5
			c0.2-0.9,1.1-1.5,2-1.2c0.9,0.2,1.5,1.1,1.2,2c-0.3,1.1-0.2,2.2,0.1,3.2c1,3.2,4.4,5,7.6,4s5-4.4,4-7.6c-1-3.2-4.4-5-7.6-4
			c-0.9,0.3-1.8-0.2-2.1-1.1c-0.3-0.9,0.2-1.8,1.1-2.1C1034,682.5,1039.3,685.3,1040.8,690.2z"/>
	</g>
	<g id="XMLID_196_">
		<path id="XMLID_197_" class="st1" d="M274.6,400.3c1.3-4.8,6.2-7.6,10.9-6.3c4.8,1.3,7.6,6.2,6.3,10.9c-0.4,1.6-1.3,3-2.4,4.1
			c-0.6,0.6-1.6,0.6-2.3,0c-0.6-0.6-0.6-1.6,0-2.3c0.7-0.7,1.3-1.6,1.6-2.6c0.8-3.1-1-6.2-4-7c-3.1-0.8-6.2,1-7,4
			c-0.8,3.1,1,6.2,4,7c0.9,0.2,1.4,1.1,1.1,2c-0.2,0.9-1.1,1.4-2,1.1C276.1,410,273.3,405.1,274.6,400.3z"/>
	</g>
	<g id="XMLID_873_">
		<g id="XMLID_876_">
			<path id="XMLID_877_" class="st1" d="M1004.4,490.1c0-1.4,1.1-2.6,2.6-2.6h23.4c1.4,0,2.6,1.1,2.6,2.6s-1.1,2.6-2.6,2.6H1007
				C1005.6,492.7,1004.4,491.5,1004.4,490.1z"/>
		</g>
		<g id="XMLID_874_">
			<path id="XMLID_875_" class="st1" d="M1016.1,501.8v-23.4c0-1.4,1.1-2.6,2.6-2.6c1.4,0,2.6,1.1,2.6,2.6v23.4
				c0,1.4-1.1,2.6-2.6,2.6C1017.3,504.4,1016.1,503.2,1016.1,501.8z"/>
		</g>
	</g>
	<g id="XMLID_137_">
		<g id="XMLID_140_">
			<path id="XMLID_141_" class="st1" d="M179.3,278.7c0.9-0.9,2.4-0.9,3.3,0L198,294c0.9,0.9,0.9,2.4,0,3.3s-2.4,0.9-3.3,0
				L179.3,282C178.4,281.1,178.4,279.6,179.3,278.7z"/>
		</g>
		<g id="XMLID_138_">
			<path id="XMLID_139_" class="st1" d="M179.3,294l15.3-15.3c0.9-0.9,2.4-0.9,3.3,0c0.9,0.9,0.9,2.4,0,3.3l-15.3,15.3
				c-0.9,0.9-2.4,0.9-3.3,0S178.4,294.9,179.3,294z"/>
		</g>
	</g>
	<g id="XMLID_17_">
		<g id="XMLID_20_">
			<path id="XMLID_21_" class="st1" d="M47.8,583.5c0.6-0.6,1.7-0.6,2.3,0l10.6,10.6c0.6,0.6,0.6,1.7,0,2.3s-1.7,0.6-2.3,0
				l-10.6-10.6C47.1,585.2,47.1,584.1,47.8,583.5z"/>
		</g>
		<g id="XMLID_18_">
			<path id="XMLID_19_" class="st1" d="M47.8,594.1l10.6-10.6c0.6-0.6,1.7-0.6,2.3,0s0.6,1.7,0,2.3l-10.6,10.6
				c-0.6,0.6-1.7,0.6-2.3,0C47.1,595.7,47.1,594.7,47.8,594.1z"/>
		</g>
	</g>
	<g id="XMLID_23_">
		<g id="XMLID_31_">
			<g id="XMLID_35_">
				<g id="XMLID_36_">
					<path id="XMLID_37_" class="st1" d="M116,467.5c-0.5-0.5-0.9-1.3-0.9-2.1c0-1.7,1.4-3,3-3h7c1.7,0,3,1.4,3,3c0,1.7-1.4,3-3,3
						h-7C117.3,468.4,116.5,468,116,467.5z"/>
				</g>
			</g>
			<g id="XMLID_32_">
				<g id="XMLID_33_">
					<path id="XMLID_34_" class="st1" d="M136.7,467.5c-0.5-0.5-0.9-1.3-0.9-2.1c0-1.7,1.4-3,3-3h7c1.7,0,3,1.4,3,3c0,1.7-1.4,3-3,3
						h-7C138.1,468.4,137.3,468,136.7,467.5z"/>
				</g>
			</g>
		</g>
		<g id="XMLID_24_">
			<g id="XMLID_28_">
				<g id="XMLID_29_">
					<path id="XMLID_30_" class="st1" d="M129.9,460.6c-0.5-0.5-0.9-1.3-0.9-2.1v-7c0-1.7,1.4-3,3-3c1.7,0,3,1.4,3,3v7
						c0,1.7-1.4,3-3,3C131.2,461.5,130.4,461.2,129.9,460.6z"/>
				</g>
			</g>
			<g id="XMLID_25_">
				<g id="XMLID_26_">
					<path id="XMLID_27_" class="st1" d="M129.9,481.4c-0.5-0.5-0.9-1.3-0.9-2.1v-7c0-1.7,1.4-3,3-3c1.7,0,3,1.4,3,3v7
						c0,1.7-1.4,3-3,3C131.2,482.3,130.4,482,129.9,481.4z"/>
				</g>
			</g>
		</g>
	</g>
	<g id="XMLID_2_">
		<g id="XMLID_10_">
			<g id="XMLID_14_">
				<g id="XMLID_15_">
					<path id="XMLID_16_" class="st1" d="M1023.5,285.3c0-0.6,0.2-1.1,0.7-1.6c0.9-0.9,2.3-0.9,3.2,0l3.7,3.7c0.9,0.9,0.9,2.3,0,3.2
						c-0.9,0.9-2.3,0.9-3.2,0l-3.7-3.7C1023.7,286.4,1023.5,285.8,1023.5,285.3z"/>
				</g>
			</g>
			<g id="XMLID_11_">
				<g id="XMLID_12_">
					<path id="XMLID_13_" class="st1" d="M1034.3,296.1c0-0.6,0.2-1.1,0.7-1.6c0.9-0.9,2.3-0.9,3.2,0l3.7,3.7c0.9,0.9,0.9,2.3,0,3.2
						c-0.9,0.9-2.3,0.9-3.2,0l-3.7-3.7C1034.5,297.2,1034.3,296.6,1034.3,296.1z"/>
				</g>
			</g>
		</g>
		<g id="XMLID_3_">
			<g id="XMLID_7_">
				<g id="XMLID_8_">
					<path id="XMLID_9_" class="st1" d="M1034.3,288.9c0-0.6,0.2-1.1,0.7-1.6l3.7-3.7c0.9-0.9,2.3-0.9,3.2,0c0.9,0.9,0.9,2.3,0,3.2
						l-3.7,3.7c-0.9,0.9-2.3,0.9-3.2,0C1034.5,290.1,1034.3,289.5,1034.3,288.9z"/>
				</g>
			</g>
			<g id="XMLID_4_">
				<g id="XMLID_5_">
					<path id="XMLID_6_" class="st1" d="M1023.5,299.7c0-0.6,0.2-1.1,0.7-1.6l3.7-3.7c0.9-0.9,2.3-0.9,3.2,0c0.9,0.9,0.9,2.3,0,3.2
						l-3.7,3.7c-0.9,0.9-2.3,0.9-3.2,0C1023.7,300.9,1023.5,300.3,1023.5,299.7z"/>
				</g>
			</g>
		</g>
	</g>
	<g id="XMLID_181_">
		<g id="XMLID_189_">
			<g id="XMLID_193_">
				<g id="XMLID_194_">
					<path id="XMLID_195_" class="st1" d="M162,680.1c0.3-0.3,0.7-0.4,1.1-0.5c0.8,0,1.5,0.7,1.5,1.5v3.6c0,0.8-0.7,1.5-1.5,1.5
						s-1.5-0.7-1.5-1.5v-3.6C161.6,680.8,161.7,680.4,162,680.1z"/>
				</g>
			</g>
			<g id="XMLID_190_">
				<g id="XMLID_191_">
					<path id="XMLID_192_" class="st1" d="M162,690.7c0.3-0.3,0.7-0.5,1.1-0.5c0.8,0,1.5,0.7,1.5,1.5v3.6c0,0.8-0.7,1.5-1.5,1.5
						s-1.5-0.7-1.5-1.5v-3.6C161.6,691.4,161.7,691,162,690.7z"/>
				</g>
			</g>
		</g>
		<g id="XMLID_182_">
			<g id="XMLID_186_">
				<g id="XMLID_187_">
					<path id="XMLID_188_" class="st1" d="M165.5,687.2c0.3-0.3,0.7-0.4,1.1-0.5h3.6c0.8,0,1.5,0.7,1.5,1.5s-0.7,1.5-1.5,1.5h-3.6
						c-0.8,0-1.5-0.7-1.5-1.5C165,687.9,165.2,687.5,165.5,687.2z"/>
				</g>
			</g>
			<g id="XMLID_183_">
				<g id="XMLID_184_">
					<path id="XMLID_185_" class="st1" d="M154.9,687.2c0.3-0.3,0.7-0.4,1.1-0.5h3.6c0.8,0,1.5,0.7,1.5,1.5s-0.7,1.5-1.5,1.5H156
						c-0.8,0-1.5-0.7-1.5-1.5C154.5,687.9,154.7,687.5,154.9,687.2z"/>
				</g>
			</g>
		</g>
	</g>
	<circle id="XMLID_83_" class="st1" cx="223.6" cy="525" r="3"/>
	<circle id="XMLID_198_" class="st1" cx="89" cy="157" r="3"/>
	<circle id="XMLID_199_" class="st1" cx="1140.3" cy="161.1" r="3"/>
	<path id="XMLID_1_" class="st1" d="M1116.2,791.1c0,2.3-1.9,4.2-4.2,4.2c-2.3,0-4.2-1.9-4.2-4.2s1.9-4.2,4.2-4.2
		C1114.3,786.9,1116.2,788.8,1116.2,791.1z"/>
</g>
<g id="_x2014_ÎÓÈ_x5F_3">
</g>
</svg>
