<?xml version="1.0" encoding="utf-8"?>
<!-- Generator: Adobe Illustrator 22.1.0, SVG Export Plug-In . SVG Version: 6.00 Build 0)  -->
<svg version="1.1" id="_x2014_ÎÓÈ_x5F_1" xmlns="http://www.w3.org/2000/svg" xmlns:xlink="http://www.w3.org/1999/xlink"
	 x="0px" y="0px" viewBox="0 0 551 500" style="enable-background:new 0 0 551 500;" xml:space="preserve">
<style type="text/css">
	.st0{clip-path:url(#SVGID_2_);fill:#00666A;}
	.st1{fill:#00666A;}
	.st2{clip-path:url(#SVGID_4_);fill:#212B53;}
	.st3{clip-path:url(#SVGID_6_);fill:#FFFFFF;}
	.st4{fill:url(#SVGID_7_);}
	.st5{fill:url(#SVGID_8_);}
	.st6{fill:url(#SVGID_9_);}
	.st7{fill:url(#SVGID_10_);}
	.st8{fill:#B0D9C8;}
	.st9{fill:#63C1C5;}
	.st10{fill:url(#SVGID_11_);}
	.st11{fill:url(#SVGID_12_);}
	.st12{fill:url(#SVGID_13_);}
	.st13{clip-path:url(#SVGID_16_);}
	.st14{fill:#93CFC7;}
	.st15{fill:#FFD247;}
	.st16{fill:#FFFFFF;}
	.st17{fill:#01898C;}
	.st18{fill:#043C5E;}
	.st19{fill:#212B53;}
	.st20{fill:#F8B68F;}
	.st21{fill:url(#SVGID_17_);}
	.st22{fill:url(#SVGID_18_);}
	.st23{fill:#F4A086;}
	.st24{fill:#F7A605;}
	.st25{fill:#F18813;}
	.st26{fill:url(#SVGID_19_);}
	.st27{fill:#E8375E;}
	.st28{fill:#E4CDE5;}
	.st29{fill:url(#SVGID_20_);}
	.st30{fill:#EB5768;}
	.st31{fill:#FFDB71;}
	.st32{fill:url(#SVGID_21_);}
</style>
<g>
	<g>
		<defs>
			<path id="SVGID_1_" d="M141.6,225.9c0,0,3.4-76.5-42.8-104.1C42.6,153.9,69,222,69,222l46.3,48.3L141.6,225.9z"/>
		</defs>
		<use xlink:href="#SVGID_1_"  style="overflow:visible;fill:#212B53;"/>
		<clipPath id="SVGID_2_">
			<use xlink:href="#SVGID_1_"  style="overflow:visible;"/>
		</clipPath>
		<polygon class="st0" points="62.2,192.5 109.4,223.4 102.5,161.5 75.5,142.5 76.4,141.2 102.2,159.3 98,120.9 99.7,121.5 
			107.6,191.8 134.5,169.5 134.5,171.7 107.8,193.8 116.5,271.9 114.8,272.1 109.6,225.6 62.7,194.9 		"/>
	</g>
	<g>
		<path class="st1" d="M106,248.7c0,0-34.6-53.7-76.7-45c-30.2,82.2,72.3,126.4,72.3,126.4L106,248.7z"/>
		<g>
			<defs>
				<path id="SVGID_3_" d="M106,248.7c0,0-34.6-53.7-76.7-45c-30.2,82.2,72.3,126.4,72.3,126.4L106,248.7z"/>
			</defs>
			<use xlink:href="#SVGID_3_"  style="overflow:visible;fill:#00666A;"/>
			<clipPath id="SVGID_4_">
				<use xlink:href="#SVGID_3_"  style="overflow:visible;"/>
			</clipPath>
			<polygon class="st2" points="33.3,272.3 81.4,273.5 28.7,204.2 30,203.2 62,245.2 66.6,209.8 68.2,211.3 63.5,247.1 106.9,304.2 
				105.5,305.2 82.7,275.2 34.8,274.1 			"/>
		</g>
		<g>
			<defs>
				<path id="SVGID_5_" d="M154.4,250.3c0,0,57.6-50.7,39.1-103.7c-96.7-3.1-99.5,92-99.5,92L154.4,250.3z"/>
			</defs>
			<use xlink:href="#SVGID_5_"  style="overflow:visible;fill:#01898C;"/>
			<clipPath id="SVGID_6_">
				<use xlink:href="#SVGID_5_"  style="overflow:visible;"/>
			</clipPath>
			<polygon class="st3" points="128.9,164.7 130.5,163.8 138.4,220.4 198,151.7 199.3,152.8 157,201.6 190.1,205.8 188.5,207.2 
				155.7,203.1 155.7,203.1 121.4,242.7 119.3,242.5 136.9,222.1 			"/>
		</g>
	</g>
</g>
<linearGradient id="SVGID_7_" gradientUnits="userSpaceOnUse" x1="416.4758" y1="57.0994" x2="482.4498" y2="57.0994">
	<stop  offset="0" style="stop-color:#E0F0EB"/>
	<stop  offset="1" style="stop-color:#C0E4EF"/>
</linearGradient>
<path class="st4" d="M416.5,67.5h64.4c0,0,3.5-4.4,0-7.4c-1.9-1.6-4.2-1.5-5.9-1c-1.1,0.3-2.2-0.4-2.4-1.5c-0.4-1.8-1.6-4.2-5.1-5.6
	c-3.4-1.4-5.6,0.7-6.8,2.9c-0.4,0.7-1.5,0.6-1.8-0.2c-1.1-3.4-4.9-8-17.2-8c-15.8,0-14,8.4-12.6,11.9c0.2,0.6-0.3,1.2-0.9,1.1
	c-2.4-0.5-6.9-1.2-9,0.4C416.5,62.3,416.5,67.5,416.5,67.5z"/>
<linearGradient id="SVGID_8_" gradientUnits="userSpaceOnUse" x1="319.1008" y1="85.6516" x2="376.9745" y2="85.6516">
	<stop  offset="0" style="stop-color:#E0F0EB"/>
	<stop  offset="1" style="stop-color:#C0E4EF"/>
</linearGradient>
<path class="st5" d="M319.2,86.9c-2.1,9.2,19.5,10.4,28.4,10.5c2.5,0,4.9-0.2,7.4-0.7c7.5-1.5,24-5.5,21.7-11c-3-7-12-2.1-12-2.1
	s1.1-5.3-14.1-8.8c-15.3-3.5-15.2,8.2-15.2,8.2S321.9,75.3,319.2,86.9z"/>
<linearGradient id="SVGID_9_" gradientUnits="userSpaceOnUse" x1="158.9729" y1="90.2787" x2="248.5247" y2="90.2787" gradientTransform="matrix(1 0 0 1 -85.9738 0)">
	<stop  offset="0" style="stop-color:#E0F0EB"/>
	<stop  offset="1" style="stop-color:#C0E4EF"/>
</linearGradient>
<path class="st6" d="M73,98.3c0,0,63.6,6.3,84.3,0.7c3.9-1.1,6.3-5.4,4.8-9.2c-0.8-2-2.7-3.7-6.9-4.9c-4.9-1.4-9.1,1.1-11.9,3.4
	c-1.1,1-2.8,0.4-3.3-1c-0.6-1.8-2-3.8-5.1-5c-4.7-1.7-11.3,2.2-15.2,5c-1,0.8-2.5-0.1-2.4-1.3c0.2-3.5-1.1-7.9-10-6.5
	C98.5,80.9,95,86,93.6,89.6c-0.6,1.5-2.4,2-3.7,1c-2.2-1.7-5.5-3.1-9.6-0.6C73,94.4,73,98.3,73,98.3z"/>
<g>
	<g>
		
			<linearGradient id="SVGID_10_" gradientUnits="userSpaceOnUse" x1="249.6395" y1="95.8013" x2="291.9529" y2="95.8013" gradientTransform="matrix(-0.9997 2.380000e-02 2.380000e-02 0.9997 529.8244 -46.9601)">
			<stop  offset="0" style="stop-color:#E0F0EB"/>
			<stop  offset="1" style="stop-color:#C0E4EF"/>
		</linearGradient>
		<polygon class="st7" points="282.7,60.2 259.6,51 248.3,50.1 240.2,52.3 		"/>
		<polyline class="st8" points="282.7,60.2 241,54.8 240.2,52.3 		"/>
		<polygon class="st9" points="240.7,61.9 240.7,61.9 243.2,68 282.6,60.2 		"/>
		
			<linearGradient id="SVGID_11_" gradientUnits="userSpaceOnUse" x1="249.9094" y1="98.7619" x2="299.7645" y2="98.7619" gradientTransform="matrix(-0.9997 2.380000e-02 2.380000e-02 0.9997 529.8244 -46.9601)">
			<stop  offset="0.2157" style="stop-color:#E0F0EB"/>
			<stop  offset="0.7647" style="stop-color:#C0E4EF"/>
		</linearGradient>
		<polygon class="st10" points="232.5,59.1 237.7,53.7 282.4,60.2 245,63.6 		"/>
	</g>
	<g>
		<path class="st9" d="M151.4,150.4c1.3-0.6,2.5-1.4,3.7-2.2c0.3-0.2,0.6-0.1,0.8,0.2c0.2,0.3,0.1,0.6-0.2,0.8
			c-1.2,0.8-2.5,1.6-3.8,2.2c-0.5,0.2-1,0.5-1.4,0.7c-0.2,0.1-0.4,0.1-0.5,0c-0.1-0.1-0.2-0.2-0.2-0.3c-0.1-0.3,0-0.6,0.3-0.8
			C150.5,150.8,151,150.6,151.4,150.4z"/>
		<path class="st9" d="M220.2,56.2c1.9,0,3.8,0.1,5.9,0.2c0.3,0,0.6,0.3,0.6,0.6c0,0.3-0.3,0.6-0.6,0.6c-2.1-0.1-4-0.2-5.9-0.2
			c-0.1,0-0.2,0-0.3-0.1c-0.2-0.1-0.3-0.3-0.3-0.5C219.6,56.5,219.8,56.2,220.2,56.2z"/>
		<path class="st9" d="M210.4,57.9c-0.2-0.1-0.3-0.2-0.3-0.4c0-0.3,0.2-0.6,0.5-0.7c1.9-0.2,3.9-0.4,5.9-0.5c0.3,0,0.6,0.2,0.6,0.6
			c0,0.3-0.2,0.6-0.6,0.6c-2,0.1-4,0.2-5.8,0.5C210.7,57.9,210.5,57.9,210.4,57.9z"/>
		<path class="st9" d="M161.9,141.9c0.2-0.3,0.6-0.3,0.8-0.1c0.3,0.2,0.3,0.6,0.1,0.8c-1.3,1.6-2.7,3-4.2,4.3
			c-0.2,0.2-0.5,0.2-0.7,0.1c-0.1,0-0.1-0.1-0.2-0.1c-0.2-0.2-0.2-0.6,0.1-0.8C159.3,144.8,160.7,143.4,161.9,141.9z"/>
		<path class="st9" d="M164.1,139.9c-0.3-0.2-0.4-0.5-0.2-0.8c0.3-0.4,0.6-0.9,0.8-1.4c0.7-1.2,1.3-2.5,1.8-3.8
			c0.1-0.3,0.5-0.5,0.8-0.3c0.3,0.1,0.5,0.5,0.3,0.8c-0.5,1.3-1.2,2.7-1.9,4c-0.3,0.5-0.6,0.9-0.8,1.4
			C164.7,140,164.4,140.1,164.1,139.9C164.1,139.9,164.1,139.9,164.1,139.9z"/>
		<path class="st9" d="M168.1,131.3c0,0-0.1,0-0.1-0.1c-0.2-0.1-0.4-0.4-0.3-0.7c0.5-1.8,0.9-3.6,1.1-5.7c0-0.3,0.3-0.6,0.7-0.5
			c0.3,0,0.6,0.3,0.5,0.7c-0.3,2.1-0.6,4-1.1,5.9C168.7,131.2,168.4,131.4,168.1,131.3z"/>
		<path class="st9" d="M177.5,79.3c-0.4,0.7-0.8,1.3-1.2,2c-0.6,1-1.1,2.1-1.6,3.1c-0.1,0.3-0.5,0.4-0.8,0.3c0,0,0,0,0,0
			c-0.3-0.2-0.4-0.5-0.2-0.8c0.5-1.1,1.1-2.2,1.7-3.2c0.4-0.7,0.8-1.4,1.2-2c0.2-0.3,0.5-0.4,0.8-0.2
			C177.6,78.7,177.7,79,177.5,79.3z"/>
		<path class="st9" d="M173.3,87.7c-0.7,1.8-1.3,3.7-1.7,5.6c-0.1,0.3-0.4,0.5-0.7,0.4c-0.1,0-0.1,0-0.2-0.1
			c-0.2-0.1-0.3-0.4-0.3-0.6c0.4-1.9,1-3.9,1.7-5.7c0.1-0.3,0.5-0.5,0.8-0.3C173.3,87,173.4,87.3,173.3,87.7z"/>
		<path class="st9" d="M183.2,72c-1.3,1.4-2.6,2.9-3.8,4.5c-0.2,0.2-0.5,0.3-0.8,0.2c0,0,0,0-0.1,0c-0.3-0.2-0.3-0.6-0.1-0.8
			c1.2-1.6,2.5-3.1,3.9-4.6c0.2-0.2,0.6-0.2,0.8,0C183.4,71.3,183.5,71.7,183.2,72z"/>
		<path class="st9" d="M193.2,63.9c-0.2,0.1-0.4,0.1-0.6,0c-0.1,0-0.2-0.1-0.2-0.2c-0.2-0.3-0.1-0.6,0.2-0.8c1.7-1,3.5-1.9,5.3-2.7
			c0.3-0.1,0.6,0,0.8,0.3c0.1,0.3,0,0.6-0.3,0.8C196.7,62.1,194.9,62.9,193.2,63.9z"/>
		<path class="st9" d="M169.8,112.5c-0.1,0-0.2,0-0.3-0.1c-0.2-0.1-0.3-0.3-0.3-0.5l0-0.7c0-1.7,0-3.5,0-5.2c0-0.3,0.3-0.6,0.6-0.6
			c0.3,0,0.6,0.3,0.6,0.6c0,1.7,0,3.4,0,5.2l0,0.7C170.4,112.3,170.2,112.5,169.8,112.5z"/>
		<path class="st9" d="M185.7,69.5c-0.2,0.2-0.5,0.2-0.7,0.1c-0.1,0-0.1-0.1-0.1-0.1c-0.2-0.2-0.2-0.6,0-0.8
			c1.5-1.3,3.1-2.6,4.7-3.7c0.3-0.2,0.6-0.1,0.8,0.1c0.2,0.3,0.1,0.6-0.1,0.8C188.7,67,187.2,68.2,185.7,69.5z"/>
		<path class="st9" d="M85.6,174.2c0.3-0.2,0.6-0.2,0.8,0.1c0.2,0.3,0.2,0.6-0.1,0.8l-4.7,3.6c-0.2,0.2-0.5,0.2-0.7,0
			c-0.1,0-0.1-0.1-0.2-0.2c-0.2-0.3-0.2-0.6,0.1-0.8L85.6,174.2z"/>
		<path class="st9" d="M93.1,168.4c0.3-0.2,0.6-0.1,0.8,0.1c0.2,0.3,0.1,0.6-0.1,0.8c-1.6,1.2-3.1,2.4-4.7,3.6
			c-0.2,0.2-0.5,0.2-0.7,0c-0.1,0-0.1-0.1-0.2-0.2c-0.2-0.3-0.2-0.6,0.1-0.8C89.9,170.8,91.5,169.6,93.1,168.4z"/>
		<path class="st9" d="M101,163c0.3-0.2,0.6-0.1,0.8,0.2c0.2,0.3,0.1,0.6-0.2,0.8c-1.6,0.9-3.2,2-4.9,3.2c-0.2,0.1-0.4,0.1-0.6,0
			c-0.1,0-0.1-0.1-0.2-0.2c-0.2-0.3-0.1-0.6,0.1-0.8C97.8,165,99.4,164,101,163z"/>
		<path class="st9" d="M78.1,180c0.3-0.2,0.6-0.2,0.8,0.1c0.2,0.3,0.2,0.6-0.1,0.8l-4.7,3.6c-0.2,0.2-0.5,0.2-0.7,0
			c-0.1,0-0.1-0.1-0.2-0.2c-0.2-0.3-0.2-0.6,0.1-0.8L78.1,180z"/>
		<path class="st9" d="M169.8,114.9c0.3,0,0.6,0.3,0.6,0.6c0,2.3-0.1,4.2-0.2,6c0,0.3-0.3,0.6-0.6,0.6c-0.1,0-0.2,0-0.3-0.1
			c-0.2-0.1-0.3-0.3-0.3-0.6c0.1-1.7,0.2-3.6,0.2-5.9C169.3,115.2,169.5,114.9,169.8,114.9z"/>
		<path class="st9" d="M109.6,158.8c0.3-0.1,0.6,0,0.8,0.4c0.1,0.3,0,0.6-0.4,0.8c-1.8,0.7-3.5,1.4-5.3,2.4c-0.2,0.1-0.4,0.1-0.6,0
			c-0.1-0.1-0.2-0.1-0.2-0.2c-0.2-0.3,0-0.6,0.3-0.8C106,160.3,107.7,159.5,109.6,158.8z"/>
		<path class="st9" d="M66.1,189.5l4.6-3.6c0.3-0.2,0.6-0.2,0.8,0.1c0.2,0.3,0.2,0.6-0.1,0.8l-4.6,3.6c-0.2,0.2-0.5,0.2-0.7,0
			c-0.1,0-0.1-0.1-0.2-0.2C65.8,190,65.8,189.7,66.1,189.5z"/>
		<path class="st9" d="M146.8,152.3c0.3-0.1,0.6,0.1,0.7,0.4c0.1,0.3-0.1,0.6-0.4,0.7c-1.8,0.6-3.7,1.1-5.8,1.5
			c-0.1,0-0.3,0-0.4-0.1c-0.1-0.1-0.3-0.2-0.3-0.4c-0.1-0.3,0.1-0.6,0.5-0.7C143.2,153.3,145,152.8,146.8,152.3z"/>
		<path class="st9" d="M170.5,96c0.3,0,0.5,0.3,0.5,0.7c-0.3,1.8-0.4,3.7-0.5,5.8c0,0.3-0.3,0.6-0.6,0.6c-0.1,0-0.2,0-0.3-0.1
			c-0.2-0.1-0.3-0.3-0.3-0.5c0.1-2.2,0.3-4.1,0.5-5.9C169.9,96.2,170.2,96,170.5,96z"/>
		<path class="st9" d="M118.8,156.5c0.3-0.1,0.6,0.2,0.7,0.5c0.1,0.3-0.2,0.6-0.5,0.7c-2.1,0.3-4,0.8-5.7,1.2c-0.2,0-0.3,0-0.4-0.1
			c-0.1-0.1-0.2-0.2-0.3-0.4c-0.1-0.3,0.1-0.6,0.4-0.7C114.8,157.2,116.7,156.8,118.8,156.5z"/>
		<path class="st9" d="M205.1,57.8c0.7-0.2,1.4-0.3,2-0.5c0.3-0.1,0.6,0.1,0.7,0.5c0.1,0.3-0.1,0.6-0.5,0.7c-0.7,0.1-1.3,0.3-2,0.4
			c-1.2,0.3-2.5,0.7-3.6,1.1c-0.2,0.1-0.3,0-0.5,0c-0.1-0.1-0.2-0.2-0.3-0.3c-0.1-0.3,0.1-0.6,0.4-0.8
			C202.5,58.5,203.8,58.1,205.1,57.8z"/>
		<path class="st9" d="M137.6,154.3c0.3,0,0.6,0.2,0.7,0.5c0,0.3-0.2,0.6-0.5,0.7c-2.1,0.3-4.3,0.5-5.9,0.7c-0.1,0-0.2,0-0.4-0.1
			c-0.2-0.1-0.3-0.3-0.3-0.5c0-0.3,0.2-0.6,0.5-0.6C133.4,154.8,135.5,154.6,137.6,154.3z"/>
		<path class="st9" d="M128.3,155.3c0.3,0,0.6,0.2,0.6,0.5c0,0.3-0.2,0.6-0.5,0.6c-1.8,0.2-3.9,0.4-5.9,0.6c-0.1,0-0.3,0-0.4-0.1
			c-0.2-0.1-0.3-0.2-0.3-0.4c0-0.3,0.2-0.6,0.5-0.7C124.4,155.7,126.5,155.5,128.3,155.3z"/>
	</g>
</g>
<g>
	<g>
		<polygon class="st8" points="485.7,151.7 487.1,159.8 480.1,155.8 456.8,140 		"/>
		<polygon class="st9" points="487.1,159.8 474.6,155.2 478.2,154.5 		"/>
		
			<linearGradient id="SVGID_12_" gradientUnits="userSpaceOnUse" x1="705.0558" y1="75.5756" x2="736.717" y2="75.5756" gradientTransform="matrix(-0.9841 0.1779 0.1779 0.9841 1169.8375 -57.2732)">
			<stop  offset="0" style="stop-color:#E0F0EB"/>
			<stop  offset="1" style="stop-color:#C0E4EF"/>
		</linearGradient>
		<polygon class="st11" points="485.7,151.7 490,145.5 456.8,140 		"/>
		
			<linearGradient id="SVGID_13_" gradientUnits="userSpaceOnUse" x1="716.585" y1="80.8236" x2="736.717" y2="80.8236" gradientTransform="matrix(-0.9841 0.1779 0.1779 0.9841 1169.8375 -57.2732)">
			<stop  offset="0.2353" style="stop-color:#E0F0EB"/>
			<stop  offset="0.4895" style="stop-color:#DAEEEB"/>
			<stop  offset="0.8469" style="stop-color:#CAE7EE"/>
			<stop  offset="1" style="stop-color:#C0E4EF"/>
		</linearGradient>
		<polygon class="st12" points="456.8,140 480.1,155.8 473.3,164.6 		"/>
	</g>
	<g>
		<g>
			<path class="st9" d="M482.2,166c0.1,0,0.2,0,0.2-0.1c0.3-0.2,0.4-0.6,0.2-0.9c-0.6-0.9-1.3-1.8-2-2.6c-0.2-0.3-0.6-0.3-0.9,0
				c-0.3,0.2-0.3,0.6,0,0.9c0.7,0.7,1.3,1.5,1.8,2.4C481.7,166,481.9,166.1,482.2,166z"/>
		</g>
		<g>
			<g>
				<path class="st9" d="M453.1,229c-0.1-0.3,0.1-0.7,0.5-0.8c1.9-0.5,3.8-1.3,5.6-2.5c0.3-0.2,0.7-0.1,0.9,0.2
					c0.2,0.3,0.1,0.7-0.2,0.9c-1.9,1.3-3.9,2.2-6,2.7c0,0,0,0,0,0C453.5,229.5,453.2,229.3,453.1,229z M462,224.3
					c-0.2-0.3-0.2-0.6,0-0.9c1.5-1.4,2.8-3,3.8-4.8c0.2-0.3,0.6-0.4,0.9-0.2c0.3,0.2,0.4,0.6,0.2,0.9c-1.1,1.9-2.5,3.6-4,5.1
					c-0.1,0.1-0.2,0.1-0.3,0.2C462.3,224.5,462.1,224.5,462,224.3z M467.8,216.1c-0.3-0.1-0.5-0.5-0.4-0.8l0.1-0.3
					c0.6-1.8,1.1-3.7,1.4-5.7c0-0.3,0.4-0.6,0.7-0.5c0.3,0,0.6,0.4,0.5,0.7c-0.3,2.1-0.8,4.1-1.5,6l-0.1,0.3
					c-0.1,0.2-0.3,0.4-0.5,0.4C468,216.1,467.9,216.1,467.8,216.1z M469.8,206.2c-0.3,0-0.6-0.3-0.6-0.6c0.1-2,0-4.1-0.3-6.3
					c0-0.3,0.2-0.7,0.6-0.7c0.3,0,0.7,0.2,0.7,0.6c0.2,2.2,0.3,4.4,0.3,6.4c0,0.3-0.2,0.5-0.5,0.6
					C469.9,206.2,469.9,206.2,469.8,206.2z M469.2,196.1c-0.3,0.1-0.7-0.2-0.7-0.5c0-0.2-0.1-0.3-0.1-0.5c-0.7,0.1-1.4,0.1-2.1,0.1
					c-0.3,0-0.6-0.3-0.6-0.6c0-0.3,0.3-0.6,0.6-0.6c0.6,0,1.3,0,1.9-0.1c-0.3-1.4-0.6-2.8-1-4.4c-0.1-0.3,0.1-0.7,0.5-0.8
					c0.3-0.1,0.7,0.1,0.8,0.5c0.4,1.6,0.7,3.1,1,4.6c1-0.1,2-0.4,2.9-0.6c0.3-0.1,0.7,0.1,0.8,0.4c0.1,0.3-0.1,0.7-0.4,0.8
					c-1,0.3-2,0.5-3.1,0.7c0,0.2,0.1,0.3,0.1,0.5C469.8,195.7,469.5,196,469.2,196.1C469.2,196.1,469.2,196.1,469.2,196.1z
					 M475.5,192.4c-0.2-0.3-0.1-0.7,0.2-0.9c1.1-0.6,2.1-1.4,3.1-2.2c0.6-0.5,1.1-1.1,1.6-1.7c0.2-0.3,0.6-0.3,0.9-0.1
					c0.3,0.2,0.3,0.6,0.1,0.9c-0.5,0.7-1.1,1.3-1.7,1.8c-1,0.9-2.1,1.7-3.3,2.4c-0.1,0-0.1,0.1-0.2,0.1
					C475.9,192.8,475.6,192.7,475.5,192.4z M462.3,194.7c-2.2-0.5-4.2-1.3-6.1-2.4c-0.3-0.2-0.4-0.6-0.2-0.9
					c0.2-0.3,0.6-0.4,0.9-0.2c1.7,1,3.6,1.8,5.7,2.2c0.3,0.1,0.6,0.4,0.5,0.7c-0.1,0.3-0.3,0.4-0.5,0.5
					C462.5,194.7,462.4,194.7,462.3,194.7z M482.6,185.4c-0.3-0.2-0.4-0.5-0.3-0.8c0.9-1.8,1.5-3.8,1.8-5.8c0-0.3,0.4-0.6,0.7-0.5
					c0.3,0,0.6,0.4,0.5,0.7c-0.3,2.2-1,4.3-1.9,6.2c-0.1,0.2-0.3,0.3-0.5,0.3C482.9,185.5,482.7,185.5,482.6,185.4z M453.1,189.9
					c-0.4-0.4-0.8-0.8-1.2-1.2c-1.1-1.2-1.9-2.7-2.4-4.3c-0.1-0.3,0.1-0.7,0.4-0.8c0.3-0.1,0.7,0.1,0.8,0.4c0.5,1.4,1.2,2.7,2.2,3.9
					c0.3,0.4,0.7,0.8,1.1,1.1c0.3,0.2,0.3,0.6,0,0.9c-0.1,0.1-0.2,0.2-0.3,0.2C453.5,190.1,453.3,190.1,453.1,189.9z M466.2,185.7
					c-0.7-2.4-1.4-4.2-2.3-5.7c-0.2-0.3-0.1-0.7,0.2-0.9c0.3-0.2,0.7-0.1,0.9,0.2c1,1.6,1.8,3.5,2.5,6c0.1,0.3-0.1,0.7-0.4,0.8
					c0,0,0,0-0.1,0C466.6,186.2,466.3,186,466.2,185.7z M485,175.7c-0.3,0-0.6-0.3-0.7-0.6c0-0.9-0.1-1.9-0.3-2.8
					c-0.2-1.1-0.5-2.2-0.9-3.2c-0.1-0.3,0-0.7,0.4-0.8c0.3-0.1,0.7,0,0.8,0.4c0.4,1.1,0.7,2.3,0.9,3.4c0.2,1,0.3,2,0.3,3
					C485.6,175.3,485.4,175.6,485,175.7C485.1,175.7,485,175.7,485,175.7z M449.5,181.1c-0.3,0-0.6-0.3-0.6-0.7
					c0.1-1.8,0.8-3.4,1.9-4.7c0.4-0.4,0.9-0.8,1.5-1.1c0.3-0.2,0.7-0.1,0.9,0.2c0.2,0.3,0.1,0.7-0.2,0.9c-0.4,0.2-0.8,0.5-1.2,0.9
					c-1,1-1.5,2.3-1.6,3.8c0,0.3-0.2,0.5-0.5,0.6C449.6,181.1,449.6,181.1,449.5,181.1z M461.6,177.2c-1.5-1.3-3.5-2.1-5.4-2.2
					c-0.3,0-0.6-0.3-0.6-0.7c0-0.3,0.3-0.6,0.7-0.6c2.2,0.1,4.5,1,6.2,2.5c0.3,0.2,0.3,0.6,0.1,0.9c-0.1,0.1-0.2,0.2-0.4,0.2
					C462,177.4,461.8,177.4,461.6,177.2z"/>
			</g>
		</g>
		<g>
			<path class="st9" d="M450,229.9c0.3-0.1,0.5-0.3,0.5-0.6c0-0.3-0.3-0.6-0.6-0.6c-1,0-2-0.1-3-0.4c-0.3-0.1-0.7,0.1-0.8,0.5
				c-0.1,0.3,0.1,0.7,0.5,0.8c1.1,0.3,2.2,0.4,3.2,0.4C449.9,229.9,449.9,229.9,450,229.9z"/>
		</g>
	</g>
</g>
<g>
	<g>
		<defs>
			<path id="SVGID_14_" d="M389,93.1c-1.2,2.5-4.7,11.1-3.6,18c0.2,1,0.8,2,1.7,2.5c7.6,4.4,18,5.9,21.6,6.3
				c0.9,0.1,1.7-0.2,2.4-0.8c2.2-2.1,7-8,8.6-20.3c0.1-0.8-0.2-1.6-0.7-2.2c-6.7-6.8-25.6-6.1-28.9-4.6
				C389.6,92.2,389.2,92.6,389,93.1z"/>
		</defs>
		<linearGradient id="SVGID_15_" gradientUnits="userSpaceOnUse" x1="385.18" y1="105.4483" x2="419.7097" y2="105.4483">
			<stop  offset="0.2157" style="stop-color:#E0F0EB"/>
			<stop  offset="0.7647" style="stop-color:#C0E4EF"/>
		</linearGradient>
		<use xlink:href="#SVGID_14_"  style="overflow:visible;fill:url(#SVGID_15_);"/>
		<clipPath id="SVGID_16_">
			<use xlink:href="#SVGID_14_"  style="overflow:visible;"/>
		</clipPath>
		<g class="st13">
			<polygon class="st14" points="401.9,105.5 389,91.7 389.9,90.9 402.2,104.1 420.2,98 420.6,99.1 			"/>
		</g>
		<g class="st13">
			
				<rect x="383.4" y="104.1" transform="matrix(0.9001 -0.4357 0.4357 0.9001 -6.5062 180.9886)" class="st14" width="16.1" height="1.2"/>
		</g>
		<g class="st13">
			
				<rect x="410.7" y="102" transform="matrix(0.8956 -0.4449 0.4449 0.8956 -5.7867 194.4113)" class="st14" width="1.2" height="15"/>
		</g>
	</g>
</g>
<g>
	<path class="st15" d="M323.9,284.5c-1.8-2.3-12.9-4.8-25.5-5c-2.8-10.5-7.1-20.5-12.7-29.5c8.1-7.5,15.9-16.3,15-21.7
		c-1.8-11-25.6-29.7-30.3-30.3c-3-0.4-12.8,6-22.1,15c-9-5.4-18.9-9.6-29.4-12.3c0.4-11.1-0.3-22.9-4.7-26.1c-9-6.5-39.1-2.9-42.8,0
		c-2.3,1.8-4.7,12.8-5,25.4c-10.8,2.5-21,6.5-30.4,11.9c-7.3-7.8-15.7-15-20.9-14.1c-11,1.8-29.7,25.6-30.3,30.3
		c-0.4,2.8,5.1,11.5,13.2,20.1c-6.1,9.5-10.8,20-13.8,31.2c-10-0.2-19.8,0.8-22.7,4.8c-6.5,9-2.9,39.1,0,42.8
		c1.6,2.1,10.7,4.3,21.7,4.8c2.6,11.8,7.1,22.9,13.1,33c-6.7,6.7-12.4,13.8-11.6,18.4c1.8,11,25.6,29.7,30.3,30.3
		c2.6,0.3,10.2-4.3,18.2-11.4c10.1,6.2,21.3,10.9,33.2,13.6c0,9.4,1,18.4,4.8,21.1c9,6.5,39.1,2.9,42.8,0c2.1-1.6,4.3-10.7,4.9-21.7
		c11.5-3,22.3-7.7,32.1-14c6.9,7.1,14.5,13.3,19.3,12.5c11-1.8,29.7-25.6,30.3-30.3c0.4-2.8-5.2-11.6-13.3-20.3
		c5.5-9.6,9.7-20,12.1-31.1c10.6,0.3,21.5-0.5,24.5-4.8C330.4,318.3,326.8,288.2,323.9,284.5z M191.4,357.5
		c-27.3,0-49.5-22.2-49.5-49.5c0-27.3,22.2-49.5,49.5-49.5c27.3,0,49.5,22.2,49.5,49.5C240.9,335.3,218.7,357.5,191.4,357.5z"/>
	<g>
		<path class="st16" d="M191.8,377.3c-38.9,0-70.5-31.6-70.5-70.5c0-38.8,31.6-70.5,70.5-70.5c38.8,0,70.5,31.6,70.5,70.5
			C262.2,345.7,230.6,377.3,191.8,377.3z M191.8,237.4c-38.3,0-69.5,31.2-69.5,69.5c0,38.3,31.2,69.5,69.5,69.5
			c38.3,0,69.5-31.2,69.5-69.5C261.2,268.6,230.1,237.4,191.8,237.4z"/>
	</g>
	<g>
		<path class="st16" d="M291.8,286.5c-0.5-0.1-0.9-0.1-1.4-0.2c1.6,7.1,2.4,14.4,2.4,21.9c0,55.7-45.3,101-101,101
			c-36.5,0-68.5-19.4-86.2-48.5c0,0,0,0,0,0c-0.5,0.1-0.9,0.2-1.4,0.3c17.9,29.7,50.5,49.5,87.6,49.5c56.4,0,102.3-45.9,102.3-102.3
			C294.1,300.7,293.3,293.5,291.8,286.5z"/>
		<path class="st16" d="M130,228.3c17.1-13.2,38.5-21.2,61.8-21.2c0.5,0,0.9,0,1.4,0c-0.2-0.4-0.3-0.9-0.4-1.3c-0.3,0-0.6,0-0.9,0
			c-23.5,0-45.1,8-62.4,21.3C129.6,227.5,129.8,227.9,130,228.3z"/>
	</g>
</g>
<g>
	<g>
		<path class="st17" d="M438.8,191.3c-1-1.2-6.9-2.5-13.6-2.7c-1.5-5.6-3.8-10.9-6.8-15.7c4.3-4,8.5-8.7,8-11.6
			c-1-5.8-13.6-15.8-16.1-16.1c-1.6-0.2-6.8,3.2-11.8,8c-4.8-2.9-10.1-5.1-15.7-6.6c0.2-5.9-0.1-12.2-2.5-13.9
			c-4.8-3.5-20.8-1.5-22.8,0c-1.2,1-2.5,6.8-2.7,13.6c-5.8,1.3-11.2,3.5-16.2,6.4c-3.9-4.2-8.4-8-11.1-7.5
			c-5.8,1-15.8,13.6-16.1,16.1c-0.2,1.5,2.7,6.1,7,10.7c-3.3,5.1-5.8,10.7-7.3,16.6c-5.3-0.1-10.6,0.4-12.1,2.6
			c-3.5,4.8-1.5,20.8,0,22.8c0.9,1.1,5.7,2.3,11.5,2.6c1.4,6.3,3.8,12.2,7,17.6c-3.6,3.6-6.6,7.3-6.2,9.8c1,5.8,13.6,15.8,16.1,16.1
			c1.4,0.2,5.4-2.3,9.7-6.1c5.4,3.3,11.3,5.8,17.7,7.3c0,5,0.5,9.8,2.6,11.3c4.8,3.5,20.8,1.5,22.8,0c1.1-0.9,2.3-5.7,2.6-11.6
			c6.1-1.6,11.9-4.1,17.1-7.5c3.7,3.8,7.7,7.1,10.3,6.7c5.8-1,15.8-13.6,16.1-16.1c0.2-1.5-2.8-6.2-7.1-10.8
			c2.9-5.1,5.1-10.7,6.5-16.6c5.7,0.2,11.4-0.3,13.1-2.5C442.3,209.3,440.4,193.3,438.8,191.3z M368.2,230.2
			c-14.6,0-26.4-11.8-26.4-26.4c0-14.6,11.8-26.4,26.4-26.4c14.6,0,26.4,11.8,26.4,26.4C394.6,218.4,382.7,230.2,368.2,230.2z"/>
	</g>
	<g>
		<path class="st16" d="M368.4,241.1c-20.8,0-37.8-17-37.8-37.8s17-37.8,37.8-37.8c20.8,0,37.8,17,37.8,37.8
			S389.2,241.1,368.4,241.1z M368.4,166.5c-20.3,0-36.8,16.5-36.8,36.8c0,20.3,16.5,36.8,36.8,36.8c20.3,0,36.8-16.5,36.8-36.8
			C405.2,183,388.7,166.5,368.4,166.5z"/>
	</g>
	<g>
		<path class="st16" d="M421.7,192.4c-0.2,0-0.5-0.1-0.7-0.1c0.8,3.8,1.3,7.7,1.3,11.7c0,29.7-24.2,53.8-53.8,53.8
			c-19.4,0-36.5-10.4-46-25.8c0,0,0,0,0,0c-0.2,0.1-0.5,0.1-0.7,0.1c9.6,15.8,26.9,26.4,46.7,26.4c30.1,0,54.5-24.5,54.5-54.5
			C422.9,200,422.5,196.1,421.7,192.4z"/>
		<path class="st16" d="M335.5,161.4c9.1-7.1,20.5-11.3,32.9-11.3c0.2,0,0.5,0,0.7,0c-0.1-0.2-0.2-0.5-0.2-0.7c-0.2,0-0.3,0-0.5,0
			c-12.5,0-24,4.2-33.2,11.3C335.3,161,335.4,161.2,335.5,161.4z"/>
	</g>
</g>
<g>
	<g>
		<path class="st9" d="M312.2,125.9c-0.7-1-5.3-1.9-10.5-2c-1.1-4.3-2.9-8.4-5.2-12.1c3.3-3.1,6.5-6.7,6.2-8.9
			c-0.7-4.5-10.5-12.1-12.4-12.4c-1.2-0.2-5.3,2.4-9,6.2c-3.7-2.2-7.7-3.9-12-5c0.2-4.5-0.1-9.4-1.9-10.7c-3.7-2.7-16-1.2-17.5,0
			c-1,0.7-1.9,5.2-2,10.4c-4.4,1-8.6,2.7-12.4,4.9c-3-3.2-6.4-6.1-8.6-5.8c-4.5,0.7-12.1,10.5-12.4,12.4c-0.1,1.1,2.1,4.7,5.4,8.2
			c-2.5,3.9-4.4,8.2-5.6,12.8c-4.1-0.1-8.1,0.3-9.3,2c-2.7,3.7-1.2,16,0,17.5c0.7,0.9,4.4,1.7,8.9,2c1.1,4.8,2.9,9.4,5.4,13.5
			c-2.8,2.7-5.1,5.6-4.7,7.5c0.7,4.5,10.5,12.1,12.4,12.4c1.1,0.1,4.2-1.8,7.4-4.7c4.1,2.6,8.7,4.4,13.6,5.6c0,3.9,0.4,7.5,2,8.7
			c3.7,2.7,16,1.2,17.5,0c0.9-0.7,1.7-4.4,2-8.9c4.7-1.2,9.1-3.2,13.1-5.7c2.8,2.9,5.9,5.5,7.9,5.1c4.5-0.7,12.1-10.5,12.4-12.4
			c0.1-1.1-2.1-4.7-5.4-8.3c2.3-3.9,4-8.2,5-12.8c4.3,0.1,8.8-0.2,10-2C314.9,139.8,313.4,127.5,312.2,125.9z M258,155.8
			c-11.2,0-20.3-9.1-20.3-20.3c0-11.2,9.1-20.3,20.3-20.3c11.2,0,20.3,9.1,20.3,20.3C278.2,146.7,269.1,155.8,258,155.8z"/>
	</g>
	<g>
		<path class="st16" d="M258.1,164.2c-16.1,0-29.1-13.1-29.1-29.1c0-16.1,13.1-29.1,29.1-29.1c16.1,0,29.1,13.1,29.1,29.1
			C287.3,151.2,274.2,164.2,258.1,164.2z M258.1,106.9c-15.5,0-28.1,12.6-28.1,28.1c0,15.5,12.6,28.1,28.1,28.1
			c15.5,0,28.1-12.6,28.1-28.1C286.3,119.6,273.6,106.9,258.1,106.9z"/>
	</g>
	<g>
		<path class="st16" d="M299.1,126.7c-0.2,0-0.4,0-0.6-0.1c0.6,2.9,1,5.9,1,9c0,22.8-18.6,41.4-41.4,41.4c-14.9,0-28-8-35.3-19.9
			c0,0,0,0,0,0c-0.2,0-0.4,0.1-0.6,0.1c7.3,12.1,20.7,20.3,35.9,20.3c23.1,0,41.9-18.8,41.9-41.9C300,132.6,299.7,129.6,299.1,126.7
			z"/>
		<path class="st16" d="M232.8,102.9c7-5.4,15.8-8.7,25.3-8.7c0.2,0,0.4,0,0.6,0c-0.1-0.2-0.1-0.4-0.2-0.5c-0.1,0-0.2,0-0.4,0
			c-9.6,0-18.5,3.3-25.5,8.7C232.7,102.6,232.7,102.8,232.8,102.9z"/>
	</g>
</g>
<g>
	<g>
		<g>
			<polygon class="st9" points="380.4,448.4 313.3,223.4 317.1,223.4 384.2,448.4 			"/>
		</g>
		<g>
			<polygon class="st9" points="345.7,448.4 278.5,223.4 282.4,223.4 349.5,448.4 			"/>
		</g>
		<g>
			<polygon class="st9" points="334.5,281.8 334.5,285.2 298.5,285.1 297.9,281.8 			"/>
		</g>
		<g>
			<polygon class="st9" points="327,260 327,263.4 291.1,263.3 290.5,260 			"/>
		</g>
		<g>
			<polygon class="st9" points="320.9,238.2 320.9,241.6 284.9,241.6 284.3,238.2 			"/>
		</g>
		<g>
			<polygon class="st9" points="341,303.9 341,307.2 305.1,307.2 304.4,303.9 			"/>
		</g>
		<g>
			<polygon class="st9" points="347.2,326 347.2,329.3 311.2,329.3 310.6,325.9 			"/>
		</g>
		<g>
			<polygon class="st9" points="353.5,348.9 355,352.3 319,352.2 318.4,348.9 			"/>
		</g>
		<g>
			<polygon class="st9" points="360.3,371.8 361.7,375.2 325.8,375.2 325.1,371.8 			"/>
		</g>
		<g>
			<polygon class="st9" points="366.6,394.3 368,397.6 332.1,397.6 331.5,394.2 			"/>
		</g>
		<g>
			<polygon class="st9" points="371.8,417.2 373.3,420.5 337.3,420.5 336.7,417.2 			"/>
		</g>
	</g>
	<g>
		<g>
			<polygon class="st18" points="213.1,448.4 280.2,223.4 276.4,223.4 209.2,448.4 			"/>
		</g>
		<g>
			<polygon class="st18" points="247.8,448.4 314.9,223.4 311.1,223.4 243.9,448.4 			"/>
		</g>
		<g>
			<polygon class="st18" points="259,281.8 259,285.2 294.9,285.1 295.6,281.8 			"/>
		</g>
		<g>
			<polygon class="st18" points="266.4,260 266.4,263.4 302.4,263.3 303,260 			"/>
		</g>
		<g>
			<polygon class="st18" points="272.6,238.2 272.6,241.6 308.5,241.6 309.1,238.2 			"/>
		</g>
		<g>
			<polygon class="st18" points="252.4,303.9 252.4,307.2 288.4,307.2 289,303.9 			"/>
		</g>
		<g>
			<polygon class="st18" points="246.3,326 246.3,329.3 282.2,329.3 282.9,325.9 			"/>
		</g>
		<g>
			<polygon class="st18" points="239.9,348.9 238.5,352.3 274.4,352.2 275,348.9 			"/>
		</g>
		<g>
			<polygon class="st18" points="233.2,371.8 231.7,375.2 267.7,375.2 268.3,371.8 			"/>
		</g>
		<g>
			<polygon class="st18" points="226.9,394.3 225.4,397.6 261.4,397.6 262,394.2 			"/>
		</g>
		<g>
			<polygon class="st18" points="221.6,417.2 220.2,420.5 256.1,420.5 256.8,417.2 			"/>
		</g>
	</g>
</g>
<path class="st19" d="M57.2,261.1"/>
<g>
	<path class="st19" d="M91.3,439.7c0,0,1.7,2.4,9.8,4.4c1.8,0.5,3.7,0.8,3.7,3.7c-3.8,0-8,0-8,0l-8.2-1.4v1.4h-4.4
		c0,0-1.2-7.2,1.3-8.1C88,439.7,91.3,439.7,91.3,439.7z"/>
	<path class="st20" d="M91.8,434.5l-0.4,5.2l0,0c-1.6,1.1-3.7,1.2-5.4,0.2l-0.3-0.2v-5.2H91.8z"/>
</g>
<g>
	<path class="st19" d="M60.6,439.7c0,0,1.7,2.4,9.8,4.4c1.8,0.5,3.7,0.8,3.7,3.7c-3.8,0-8,0-8,0l-8.2-1.4v1.4h-4.4
		c0,0-1.2-7.2,1.3-8.1C57.3,439.7,60.6,439.7,60.6,439.7z"/>
	<path class="st20" d="M61.1,434.5l-0.4,5.2l0,0c-1.6,1.1-3.7,1.2-5.4,0.2l-0.3-0.2v-5.2H61.1z"/>
</g>
<polygon class="st17" points="93.4,345.4 93.4,435.8 84.5,435.8 75.8,345.4 "/>
<path class="st1" d="M85.7,345.4c0,0-2.5,25.6-8.4,42.7c-5.8,17.1-14.9,47.8-14.9,47.8h-9.1c0,0,12.6-64.1,9.7-90.4l0,0H85.7z"/>
<linearGradient id="SVGID_17_" gradientUnits="userSpaceOnUse" x1="88.2185" y1="314.0909" x2="115.2521" y2="314.0909">
	<stop  offset="0" style="stop-color:#E0F0EB"/>
	<stop  offset="1" style="stop-color:#C0E4EF"/>
</linearGradient>
<path class="st21" d="M92.2,294.3c0,0,9,21,11.3,21c1.8,0-0.7-17.2-0.7-17.2h7.5c0,0,9.5,29.4,1.9,34.8
	c-7.5,5.4-24.1-15.2-24.1-15.2L92.2,294.3z"/>
<path class="st20" d="M65.4,348.1l2.7,6.7c1.3,2.7,6.1,2.7,9.4,1.9c0.5-0.1,0.7-0.7,0.3-1.1c-1.8-1.9-6.3-6.9-7.9-8L65.4,348.1z"/>
<linearGradient id="SVGID_18_" gradientUnits="userSpaceOnUse" x1="65.3564" y1="317.6515" x2="92.9237" y2="317.6515">
	<stop  offset="0" style="stop-color:#E0F0EB"/>
	<stop  offset="1" style="stop-color:#C0E4EF"/>
</linearGradient>
<path class="st22" d="M88.2,290c0,0,4.7,3.2,4.7,6.8c0,3.7,0,48.6,0,48.6H65.4V300c0,0,0.6-10.1,10.4-10.1
	C85.7,289.9,88.2,290,88.2,290z"/>
<g>
	<polygon class="st9" points="92.5,345.4 92.5,301.8 93.4,301.8 93.4,345.4 	"/>
</g>
<path class="st23" d="M78.5,277.6v12.7c0,0,2.1,2.9,5.9,2.9c3.8,0,3.8-2.7,3.8-2.7v-8.1l-5.6-1.5L78.5,277.6z"/>
<g>
	<path class="st20" d="M387,287.9c-0.6,1.3-0.7,2.8-0.3,4.2l0.8,5.4l0.9,0.6l3.4,1.4c-0.4-1.1,0-2.2,0-2.2l1.5-5.6c0,0,2.4-9.4-4-9
		c0-7.7-2.1-6.4-2.1-6.4l-0.1,6.6L387,287.9z"/>
	<path class="st15" d="M371.1,306.5c0,0,4.5,17.1,8.3,17.4c3.8,0.3,7.8-27,7.8-27l5.2,0.6c0,0,2,39.3-9.6,40
		c-11.6,0.7-13.2-8-13.2-8L371.1,306.5z"/>
	<path class="st24" d="M370.6,353.2h-30.4c0,0,0-22.2,0-46.2c8.7-13.3,19.5-9.6,19.5-9.6s9.8,0.2,11.4,9.2
		C371.1,313.1,370.6,353.2,370.6,353.2z"/>
	<g>
		<path class="st23" d="M356.2,291.2l-0.5,6.5l0.2,0.2c2.1,2,5.5,2.1,7.7,0.1l0,0l0.1-4.9L356.2,291.2z"/>
	</g>
	<g>
		<path class="st20" d="M353.8,277.6l0.5,10.8c1.1,0,1.7,1.1,1.5,2.1c0.1,0.2,0.2,0.5,0.2,0.8c1.9,1.3,5.3,3.1,9.6,2.2
			c6.8-1.3,2.7-14.5,2.7-14.5L353.8,277.6z"/>
		<path class="st19" d="M350.3,285.7c-0.1-0.8-1.1-2.5-1.7-3c-3.9-3.3-0.4-5.8,0.8-6.6c1.4-0.9,1.1-3.3,2.8-4.7
			c2.7-2.1,5.3,0.1,7-0.2c1.7-0.3,2.8-2.6,5.3-1.4c2.5,1.2,2.2,3.2,3,4c0.8,0.8,2.3-1.5,4.7,1.2c3.7,4-3.6,5.7-3.6,5.7
			s-4,1.6-9.2-0.4c-0.7-0.3-1.6-0.1-2,0.5c-1.3,1.7-1.3,10.7-1.3,10.7l-1.8-1.5C354.4,289.9,350.6,289.3,350.3,285.7z"/>
		<path class="st20" d="M354.4,286.5c0.3,0.8,1.3,1.3,2.2,0.9c0.8-0.3,1.3-1.3,0.9-2.2c-0.3-0.8-1.3-1.3-2.2-0.9
			C354.5,284.7,354.1,285.7,354.4,286.5z"/>
	</g>
	<g>
		<path class="st19" d="M363.7,440.2c0,0,1.7,2.4,9.8,4.4c1.8,0.5,3.7,0.8,3.7,3.7c-3.8,0-8,0-8,0l-8.2-1.4v1.4h-4.4
			c0,0-1.2-7.2,1.3-8.1C360.4,440.2,363.7,440.2,363.7,440.2z"/>
		<path class="st20" d="M364.1,435.1l-0.4,5.2l0,0c-1.6,1.1-3.7,1.2-5.4,0.2l-0.3-0.2v-5.2H364.1z"/>
	</g>
	<g>
		<path class="st19" d="M341.1,440.2c0,0,1.7,2.4,9.8,4.4c1.8,0.5,3.7,0.8,3.7,3.7c-3.8,0-8,0-8,0l-8.2-1.4v1.4H334
			c0,0-1.2-7.2,1.3-8.1C337.7,440.2,341.1,440.2,341.1,440.2z"/>
		<path class="st20" d="M341.5,435.1l-0.4,5.2l0,0c-1.6,1.1-3.7,1.2-5.4,0.2l-0.3-0.2v-5.2H341.5z"/>
	</g>
	<path class="st24" d="M340.2,307c0,0-9.1,21,2.5,31.8c11.6,10.7,27.4,8.9,27.4,8.9v-6.1c0,0-14.3-1.2-18.8-10.7
		c-4.6-9.5,1.8-17.8,1.8-17.8"/>
	<path class="st20" d="M369.2,346.8l7.3,0.2c3-0.2,4.9-4.6,5.4-7.9c0.1-0.5-0.4-0.9-0.9-0.7c-2.5,0.9-8.8,3.1-10.5,4.1L369.2,346.8z
		"/>
	<path class="st19" d="M370.6,353.2c9.1,25.6-5.1,82.3-5.1,82.3h-8.1c0,0,3.8-80.4-6.7-82.3C366.8,353.2,363.7,353.2,370.6,353.2z"
		/>
	<path class="st15" d="M349.7,324.5c0.1,2,0.6,4.1,1.6,6.4c4.6,9.5,19.6,10.8,19.6,10.8v6.1c0,0-16.5,1.7-28.2-9
		c-4.2-3.9-5.7-9.1-5.9-14.3H349.7z"/>
	<g>
		<path class="st25" d="M349.8,325.4c-0.3-0.1-0.6-0.3-1-0.4c-0.5-7,3.6-12.4,3.6-12.4l0.7,0.6C353.1,313.2,349,318.5,349.8,325.4z"
			/>
	</g>
	<path class="st20" d="M388.4,288.7c0,0-1.7-0.5-1.9-3.6c-0.3-3.1-1.7-2.1-1.7-2.1s0.8,12.1,2.7,12.5
		C389.3,296,388.4,288.7,388.4,288.7z"/>
	<path class="st18" d="M361.7,353.2c2.5,31.4-17.6,82.3-17.6,82.3h-9.6c0,0,6.5-32.6,6.7-63.1c0-6.6-0.2-13.1-0.9-19.2
		C346.8,353.2,355.6,353.2,361.7,353.2z"/>
</g>
<path class="st20" d="M88.7,284.7c1.2,0,2.3-0.2,2.8-0.7c3.4-5.4-0.5-19.9-0.5-19.9l-12.3,2.2l-0.4,9.7c-0.1,2.6,1,5.1,3.1,6.7l0,0
	C83.6,284.1,86.2,284.8,88.7,284.7z"/>
<path class="st19" d="M84.6,266.5c0,0,4.1,0.8,8.4,0c4.3-0.8,1.5-5.5,1.5-5.5s-3.2,1.4-8.8,0.6c-3.8-0.6-4.8-1.3-7.3,0
	c-3.3,1.8-2.5,7.8-2.5,7.8l1.8,12.7h0.7c0,0,0.2-7.5,0.2-10.1c0.7-1.2,1.5-1.2,2.1-0.9c0.6,0.3,1,1,1,1.7V286c0,0,8.4,3.6,10.5,3
	c2.1-0.7,0.7-10.4,0.7-10.4s-2.5-1.1-4.4,1.1c-1.9,2.1-4.2-0.1-4.2-0.1L84.6,266.5z"/>
<path class="st20" d="M108.9,298.2l-0.3-1.4c-0.6-3.2-3.7-7.2-6.7-8.2l-3.2,0l1,6.8l4.5,2.9H108.9z"/>
<path class="st20" d="M79.6,270.8c0.9-0.1,1.8,0.8,2,2c0.2,1.2-0.4,2.2-1.4,2.3c-0.9,0.1-1.8-0.8-2-2
	C78,271.9,78.6,270.9,79.6,270.8z"/>
<path class="st20" d="M101,294.6l6.2,3.6c0,0-3.9,0-4,0l-6.6-5.5c0,0,0.5-1,2-0.2C100.2,293.3,101,294.6,101,294.6z"/>
<linearGradient id="SVGID_19_" gradientUnits="userSpaceOnUse" x1="52.7061" y1="321.1244" x2="77.5496" y2="321.1244">
	<stop  offset="0" style="stop-color:#C0E4EF"/>
	<stop  offset="1" style="stop-color:#E0F0EB"/>
</linearGradient>
<path class="st26" d="M68.3,292.9c0,0-15.6,17.3-15.6,27.7c0,10.4,12.7,28.7,12.7,28.7l6.2-1.8c0,0-5.6-22.6-5.6-28.7
	c0-6,11.6-14.8,11.6-14.8"/>
<g>
	<path class="st9" d="M66.4,318.8c0,5.2,4.6,24.1,5.7,28.6c-0.3,0.1-0.4,0.1-0.9,0.2c-1.3-5.5-5.7-23.7-5.7-28.8
		c0-6.2,11.3-14.8,11.8-15.2l0.6,0.7C77.7,304.4,66.4,313.1,66.4,318.8z"/>
</g>
<g>
	<path class="st1" d="M96.9,283.2c0,0-1.3,6.7,2.9,12.1c0.3,0.3,0.7,0.6,1.2,0.6c1,0.1,1.6-0.2,2.2-0.4c0.8-0.2,1.1-0.6,1.3-0.9
		c0.1-0.3,0.1-0.6-0.1-0.9c-0.8-1.3-3.4-5.6-2.3-9.4C99.8,282.6,96.9,283.2,96.9,283.2z"/>
	<path class="st17" d="M103.6,295.4c0.5-0.2,0.6-0.4,0.7-0.7c0.1-0.3,0.1-0.6-0.1-0.9c-0.8-1.3-3.4-5.6-2.3-9.4
		c-0.8-0.6-1.7-1-2.4-1.1C99.4,287.5,100.3,290.3,103.6,295.4z"/>
	<g>
		<g>
			<path class="st24" d="M100.6,288.8c0.2,1,0.7,1.7,1,1.6c0.4-0.1,0.5-0.9,0.3-1.9c-0.2-1-0.7-1.7-1-1.6
				C100.5,287,100.4,287.8,100.6,288.8z"/>
			<polygon class="st27" points="100.8,286.9 101.2,286.8 101.2,287 100.9,287.1 			"/>
			<polygon class="st27" points="101.5,290.4 102,290.3 101.5,290.2 			"/>
		</g>
		<path class="st24" d="M100.9,288.7c0.2,1,0.7,1.7,1,1.6c0.4-0.1,0.5-0.9,0.3-1.9c-0.2-1-0.7-1.7-1-1.6
			C100.8,286.9,100.7,287.7,100.9,288.7z"/>
	</g>
	<path class="st24" d="M95.2,277.6h-0.7c-1.4,0-2.6,1.1-2.6,2.4v1.9c0,1.3,1.2,2.4,2.6,2.4h0.7V277.6z"/>
	<path class="st17" d="M117.8,279.5c0,5.3-1.2,9.6-2.7,9.6s-2.7-4.3-2.7-9.6c0-5.3,1.2-9.6,2.7-9.6S117.8,274.2,117.8,279.5z"/>
	<polygon class="st24" points="112.2,276 114.4,277.4 114.4,280.5 112.1,282.5 111.4,278.5 	"/>
	<path class="st9" d="M112.3,279.5c0-4.5,0.9-8.2,2-9.3c0,0,0,0,0,0c-9,6.5-19.6,7.4-19.6,7.4v6.8c0,0,14.3-0.8,19.6,4.4
		c0,0,0,0,0,0C113.2,287.7,112.3,284,112.3,279.5z"/>
	<path class="st1" d="M114.7,278.9c0,0.9-0.1,1.6-0.3,1.6c-0.2,0-0.3-0.7-0.3-1.6c0-0.9,0.1-1.6,0.3-1.6
		C114.5,277.4,114.7,278.1,114.7,278.9z"/>
</g>
<path class="st20" d="M105.5,293.2c-0.2,0.1-1,0.6-3.5,0.6c-1.8,0-2.6-2.2-2.9-3.4c-0.1-0.4-0.2-1,0.3-1.3l2.9-0.4L105.5,293.2z"/>
<g>
	<g>
		<g>
			<path class="st19" d="M507.1,442.1h1.9c-3.4-22.9-6.8-46-10.1-68.3c-2.2-15-4.5-30.6-6.7-45.9l-1.8,0.3
				c2.3,15.4,4.5,30.9,6.7,45.9C500.4,396.4,503.7,419.3,507.1,442.1z"/>
		</g>
		<g>
			<path class="st19" d="M453.1,442.1h1.9c-3.4-22.9-6.8-46-10.1-68.3c-2.2-15-4.5-30.6-6.7-45.9l-1.8,0.3
				c2.3,15.4,4.5,30.9,6.7,45.9C446.3,396.4,449.7,419.3,453.1,442.1z"/>
		</g>
		<path class="st28" d="M507.3,371.9c-15.7-32.3-15.7-95.4-15.7-95.4l-14.9,95.4H507.3z"/>
		<g>
			<path class="st19" d="M405.8,445.9c5.7-37,10.8-72.8,16.2-110.5l1.8-4.1l-1.8-0.3l-1.8,4.1c-5.4,37.9-10.5,73.7-16.3,110.8H405.8
				z"/>
		</g>
		<g>
			<path class="st19" d="M465.4,445.9c3.5-23.1,6.8-46.2,10.1-68.7c2.2-15,4.5-30.6,6.7-46l-1.8-0.3c-2.3,15.4-4.5,30.9-6.7,46
				c-3.3,22.5-6.7,45.8-10.2,69H465.4z"/>
		</g>
		<polygon class="st19" points="498.7,373.8 487.6,301.2 472.9,368.6 474.8,373.8 		"/>
		<linearGradient id="SVGID_20_" gradientUnits="userSpaceOnUse" x1="404.4876" y1="321.4366" x2="491.6566" y2="321.4366">
			<stop  offset="0" style="stop-color:#E0F0EB"/>
			<stop  offset="1" style="stop-color:#C0E4EF"/>
		</linearGradient>
		<path class="st29" d="M423.9,272.7c14.4-2.4,67.7,1.2,67.7,1.2s1.5,72.7-15.6,97.1c-17.4,0-71.6,0-71.6,0S425.9,324.2,423.9,272.7
			z"/>
		<polygon class="st19" points="406.5,371 409,375.5 475.6,375.5 476.5,371 		"/>
		<polygon class="st19" points="424.1,271.1 424.7,275.5 491.3,275.5 491.6,271.1 		"/>
		<circle class="st19" cx="489.8" cy="273.3" r="3.2"/>
		<path class="st19" d="M420.7,273.3c0,1.7,1.4,3.2,3.2,3.2c1.7,0,3.2-1.4,3.2-3.2c0-1.7-1.4-3.2-3.2-3.2
			C422.1,270.1,420.7,271.6,420.7,273.3z"/>
	</g>
	<g>
		<polygon class="st9" points="435.2,351.4 426.7,351.4 427.1,322.9 436.2,322.9 		"/>
		<polygon class="st17" points="449.3,351.4 440.1,351.4 438.8,308.7 449.3,308.7 		"/>
		<rect x="453" y="316.3" class="st30" width="9.2" height="35.1"/>
		<polygon class="st9" points="462.2,351.4 453,351.4 453,316.3 463.2,316.3 		"/>
		<polygon class="st15" points="475.1,351.4 466,351.4 466,296 477.8,296 		"/>
	</g>
	<g>
		<g>
			<path class="st1" d="M521.4,436.3c0,0,2,1,2,2.8c0,1.8,0.3,5.9,0.3,5.9l-1.8,0.3l-0.6-3.8c0-0.2-3.2,4-5.3,6.1l-7.8,0.2
				c0,0-1.1-2.4,4.3-4.2C517.8,441.7,521.4,436.3,521.4,436.3z"/>
			<path class="st23" d="M515.1,405.1c0-1.3-0.2-3.5-0.5-4.8c-0.9-4.5-2.8-8-3.9-9.8c-1.9-0.7-3.7-1.6-5.7-2.4c-2-0.8-4.3-1.3-6.9-2
				c0.1,0.3,0.2,0.5,0.3,0.8c11.4,30.2,17.8,43.9,18.8,47.1c0.2,0.5,0.3,1,0.2,1.5c-0.2,1.6-0.9,4.9-5.5,8.1
				c4.9,1.2,9.4-7.4,9.4-7.4S515.3,415.5,515.1,405.1z"/>
		</g>
		<polygon class="st23" points="491.5,283.1 492,291.3 500,289.6 499.1,278.5 		"/>
		<path class="st20" d="M489.7,283.2c-1.2,0-2.3-0.2-2.8-0.7c-3.4-5.4,0.5-19.9,0.5-19.9l12.2,2.2l0.4,9.7c0.1,2.6-1,5.1-3.1,6.7
			l0,0C494.7,282.5,492.2,283.3,489.7,283.2z"/>
		<path class="st1" d="M497.5,439.1c0,0,1.7,1.3,1.4,3c-0.3,1.7-0.7,5.6-0.7,5.6h-1.7l0.1-3.7c0-0.2-3.7,3.7-4.3,3.7H483
			c0,0-0.6-2.5,4.8-3.3C493.1,443.7,497.5,439.1,497.5,439.1z"/>
		<g>
			<path class="st20" d="M502.2,408c0.4-1.2,1-3.3,1.2-4.6c0.7-4.6,0.8-11,0.4-13c-1.5-1.3-3.6-0.3-5.1-1.7
				c-1.6-1.5-3.5-2.7-5.8-4.2c0,0.3,0,0.6,0,0.8c0.3,32.3,1.5,47.3,1.3,50.7c0,0.5-1.6,7.2-7,8.6c4.1,2.8,10.4-5.4,10.4-5.4
				S498.8,417.8,502.2,408z"/>
		</g>
		<path class="st17" d="M491.9,289.9l-7.7,12.6c-0.9,2-1.2,4.3-0.7,6.4l4.9,21.4c0.3,1.2,0.4,2.5,0.5,3.8l1.2,56.2h24.6
			c0,0-3.1-11.1-4.7-25.4c-1.6-14.3,3-20.6,1.7-26.8c-0.7-3.7-2.9-8.4-6-12.2c-1.6-2-2.5-4.6-2.5-7.2c-0.3-10.6,10.9-40,0.2-32.8
			C492.7,293,491.9,289.9,491.9,289.9z"/>
		<path class="st20" d="M491.5,321.7l-0.6,2.1c-0.3,1.1-0.7,1.6-1.7,3.1c-2.7,4.5-11.8,15.6-11.8,15.6l-7.4,4.2c0,0,0.2,1.1,1.8,0.8
			c1.7-0.3,2.9-1.2,2.9-1.2s0.3,1.2-1.2,3.6c-1.1,1.8-4.8,4.9-2.3,5.5c2.3-1,5.1-2.8,5.1-2.8c1.3-0.7,2.2-2,2.5-3.5l0.7-3.9
			l15.7-12.8c1.7-1.4,3-3.3,3.7-5.4l0.1-0.2L491.5,321.7z"/>
		<path class="st20" d="M449,308.9c-0.4,0-1.6,0-3.8-1.3c-2-1.2-5.2-4.9-5.9-2.4c1,2.3,1.9,5.2,1.9,5.2c0.7,1.3,3.1,2.3,4.7,2.6
			l5.1,0.3c0,0,1.8-1.8,1.9-1.9l-0.5-0.9C451.1,310.1,450,309.6,449,308.9z"/>
		<g>
			<polygon class="st1" points="499.2,327.3 491.1,321.9 494.2,300.4 494.9,300.5 491.9,321.5 498.7,326.1 503.8,309 504.5,309.2 
							"/>
		</g>
		<path class="st19" d="M495.9,268.4c-2.4,1.3-4.8,1.6-6.6,1.5c-2.4-0.1-5.5-2.1-6.5-4.3c-0.9-1.9-1-3.8,1.8-5.9
			c2-1.5,4.4-0.5,5.4,0.4c0.8,0.7,1.9,0.8,2.7,0.1c1.5-1.3,4.2-2.9,8.3-2.9c4.3,0,4.1,4.1,3.5,7.1c-0.4,1.8,0.4,3.6,1.9,4.6
			c2.5,1.6,5.7,4.1,5.1,6.7c-0.5,2.1-1.7,3.9-2.8,5.3c-1.1,1.3-1.1,3.2,0,4.6c1.6,2.1,3.4,5.1,2.9,7.3c-0.5,2.1-2.1,4.7-3.3,6.6
			c-0.9,1.4-0.9,3.1,0,4.4c0.7,1.1,1.2,2.5,0.9,4.1c-0.3,1.2-0.9,2.4-1.6,3.3c-1.2,1.7-3.7,1.5-4.6-0.4c-2.8-5.6-7.7-17.2-6-25.9
			c0.9-4.4,2-12.2,2-12.2S500.3,266.5,495.9,268.4z"/>
		<path class="st20" d="M489.6,316l-9.4,4.9c-1.2,0.6-2.5,0.7-3.8,0.4l-25.8-8.1v-3.3l25.1,3.1l7.9-4.2L489.6,316z"/>
		<path class="st20" d="M500.7,270.6c-0.7-0.7-1.9-0.5-2.8,0.3c-0.9,0.8-1.1,2-0.4,2.7c0.7,0.7,1.9,0.5,2.8-0.3
			C501.2,272.5,501.4,271.3,500.7,270.6z"/>
		<path class="st17" d="M491.5,315l-2.6-16l-11.1,12.8l3.1,10l10.6-5.5C491.1,315,491.4,316.3,491.5,315z"/>
		<g>
			<path class="st9" d="M486.9,323.6c0.3-0.2,0.3-0.2,0.6-0.4l-3.5-14.4c-0.5-2-0.2-4.2,0.6-6.1l7.6-12.4c-0.2-0.2-0.2-0.2-0.3-0.4
				c0,0-0.3-0.1-0.4-0.1l-7.7,12.4c-1,2.1-1.2,4.5-0.7,6.7"/>
		</g>
		<path class="st20" d="M447.7,309.3c0,0-0.1,0-0.4,0.1c0.2,0.3,0.3,0.6,0.4,0.9c0.9,0.7,1.9,1.5,2.8,2.3c0.4-0.6,0.9-1.5,1-1.6
			l-5.1-6.2c0,0-1,0.3-0.4,1.9C446.6,308.3,447.7,309.3,447.7,309.3z"/>
	</g>
	<g>
		<path class="st19" d="M422.1,418.2c0,0,31.2-10.3,39-25c3.8-7.1-1.6-15.4-9.6-15.2c-23.5,0.5-32.1,37.8-32.1,37.8L422.1,418.2z"/>
		<g>
			<path class="st1" d="M419.8,420.3l-0.8-0.5c0.9-1.5,21-35.7,40.7-38.4l0.7,0.8C441.1,384.8,420,419.9,419.8,420.3z"/>
		</g>
		<path class="st1" d="M398.2,394c-3.7-5-5.9-9.4-7.1-13.3c-3.1-10.5,3.9-21.3,14.6-23.1c6-1,13.5,0,20.5,7.1
			c15.4,15.6-5.3,58.2-5.3,58.2h-7.5C413.4,422.9,413.1,414,398.2,394z"/>
		<path class="st17" d="M405,422.9c0,0-21.8-4.8-25.8-21.5c-1.2-5.2,3-10.1,8.3-9.9c27,1.4,25.8,31.3,25.8,31.3H405z"/>
		<g>
			<path class="st16" d="M416.8,423l-0.9-0.2c0.1-0.4,9.5-43.4-14.4-63.9l1-0.4C426.9,379.3,416.9,422.5,416.8,423z"/>
		</g>
		<g>
			<path class="st1" d="M409.8,423.1c-0.2-0.3-15.3-25.5-29.9-27l0.5-0.9c15.1,1.6,29.6,26.4,30.2,27.5L409.8,423.1z"/>
		</g>
		<rect x="400.1" y="422.9" class="st24" width="27.8" height="26.5"/>
		<path class="st31" d="M430,426.2h-31.8c-1.1,0-1.9-0.9-1.9-1.9l0,0c0-1.1,0.9-1.9,1.9-1.9H430c1.1,0,1.9,0.9,1.9,1.9l0,0
			C431.9,425.3,431,426.2,430,426.2z"/>
	</g>
</g>
<g>
	<g>
		<path class="st17" d="M324.4,273.1l-3.4,9.1c-0.3,1.3-0.3,2.8,1,3.6c0,0,0.9,0.5,1.8,0.8c0.6-0.1,4.6-12.5,4.6-12.5l0-0.1
			C326.8,272,324.4,273.1,324.4,273.1z"/>
		<polygon class="st19" points="323.8,286.6 328.4,274.1 329,274.5 324.4,286.8 		"/>
		<g>
			<polygon class="st16" points="323.1,276.7 322.8,277.5 324.4,277.8 324.7,277 			"/>
		</g>
		<g>
			<polygon class="st16" points="322.4,278.4 322.1,279.3 323.7,279.6 324,278.8 			"/>
		</g>
		<path class="st20" d="M320.6,270.9l3.8,2.2l0,0c0.2,0.9-0.1,1.9-0.8,2.5l-0.1,0.1l-4.2-1.1L320.6,270.9z"/>
	</g>
	<path class="st19" d="M290.1,213.3c0,0,3.8,4.1,4.8,11.3c0.7,4.8-1.1,12.4-1.3,18.3c-0.2,5.4,2.3,9.8,6.6,13.1l20.5,14.9l-1.4,3.7
		c0,0-28.1-4.2-35.5-16.8c-7.4-12.6-9.1-41.1-9.1-41.1L290.1,213.3z"/>
	<path class="st20" d="M305.4,197.8l10.6,23.6c0,0,4.3,0.5,6.2,2.2c1,0.9,0.9,2.6,0.7,4.1c-0.2,1.1-1.5,1.6-2.4,0.8
		c-1.2-1-2.7-2.1-3.6-2.3c-2.6-0.4-3.4-2.3-3.4-2.3l-15.1-23.7L305.4,197.8z"/>
	<path class="st20" d="M253.2,150.4l-5.4-4.6L252,123l6.5-3.3c0,0-0.7-1.3-2.3-0.7c-1.6,0.5-3,0.2-3,0.2s-1.2-1.5,1.1-2.5
		c1.3-0.9,2.2,0,5.9-0.2c0-0.6-5-2-5-2c-1.5-0.5-5.5,2.6-5.5,2.6c-0.3,0.4-0.4,0.8-0.5,1.2l-0.6,4.2c0,0-8.4,23-8.4,25.4
		c0,2.5,4.7,5.8,4.7,5.8L253.2,150.4z"/>
	<path class="st18" d="M282.3,215.7c0,0,3.3,3.9,1.3,13c-1.2,5.8-6.7,13.1-10.4,18.2c-2.6,3.6-2.7,8.2-1.9,12.6
		c3,16.7-1.8,37.1-1.8,37.1h-3.9c0,0-5.9-29.9-7.6-51c-1.6-19,6.6-32.9,6.7-33.2L282.3,215.7z"/>
	<g>
		<g>
			
				<rect x="248.1" y="116.4" transform="matrix(0.9894 -0.1452 0.1452 0.9894 -14.4485 38.1625)" class="st24" width="12.4" height="3.3"/>
			
				<rect x="246.4" y="118.4" transform="matrix(-0.1452 -0.9894 0.9894 -0.1452 166.2514 381.6479)" class="st16" width="3.3" height="1.1"/>
			<path class="st19" d="M247.9,120.7c-0.9,0.1-1.7,0.1-1.9-1.4c-0.2-1.6,0.5-1.7,1.4-1.9L247.9,120.7z"/>
			<polygon class="st16" points="260.6,118.8 263,117.4 262.8,116.2 260.2,115.6 			"/>
			<polygon class="st18" points="263,117.4 264.1,116.6 262.8,116.2 			"/>
		</g>
		
			<rect x="248.6" y="118.4" transform="matrix(0.9894 -0.1452 0.1452 0.9894 -14.5512 38.2198)" class="st25" width="12" height="0.7"/>
		
			<rect x="248.4" y="116.9" transform="matrix(0.9894 -0.1452 0.1452 0.9894 -14.3275 38.1721)" class="st25" width="12" height="0.7"/>
	</g>
	<path class="st24" d="M291.9,169.4c7,5.1,14.2,29.8,14.2,29.8l-6.1,3.4l-8.9-13.7c0,0-1,15.8,1.4,28c-1.1,4.6-6.3,4-14.6,2.5
		s-13.9-5.2-13.9-5.2s-0.4-22-1.4-33.6c-1.1-11.6,1.1-12.9-1.9-12.5c-6.6-3.7-17.3-15.7-17.3-15.7l10-1.9l21.5,12.6
		C274.7,163,285.2,165.8,291.9,169.4z"/>
	<path class="st20" d="M279.7,140.3l-5.2,5.1c-2.2,2.2-3.1,5.3-2.5,8.3l0.6,2.7L279.7,140.3z"/>
	
		<linearGradient id="SVGID_21_" gradientUnits="userSpaceOnUse" x1="226.6542" y1="137.0394" x2="254.5692" y2="196.2736" gradientTransform="matrix(-1 0 0 1 517.1286 0)">
		<stop  offset="0" style="stop-color:#00A7E7"/>
		<stop  offset="0.5235" style="stop-color:#0066AF"/>
		<stop  offset="1" style="stop-color:#123456"/>
	</linearGradient>
	<path class="st32" d="M286,138.4c12.6,0,7.2,24.1,7.2,24.1s-2.2,15.7-7.2,22c-4.3,5.4-12.9,3.8-16.9,1.2c-2-1.3-4.2-2.1-6.5-2.4
		c-3.4-0.4-7.5-1.9-7.5-8.1c0-5.8,6.9-10.3,11.5-13.5c3-2.1,5.1-5.2,5.9-8.8C273.9,146.9,277.5,138.4,286,138.4z"/>
	<g>
		<path class="st17" d="M268.8,300.9l-9.8,0c-1.3,0.2-2.7,0.7-3,2.2c0,0-0.2,1-0.1,2c0.3,0.5,13.3-0.1,13.3-0.1l0.1-0.1
			C270.6,302.7,268.8,300.9,268.8,300.9z"/>
		<polygon class="st18" points="255.9,305.1 269.2,305 269.1,305.7 255.9,305.7 		"/>
		<g>
			<polygon class="st16" points="264.9,300.9 264.1,300.9 264.3,302.5 265.2,302.5 			"/>
		</g>
		<g>
			<polygon class="st16" points="263.1,300.9 262.2,300.9 262.5,302.5 263.3,302.5 			"/>
		</g>
		<path class="st20" d="M269.5,296.6l-0.7,4.3l0,0c-0.8,0.5-1.8,0.6-2.6,0.1l-0.1-0.1l-0.5-4.3H269.5z"/>
	</g>
	<path class="st20" d="M256.2,118.9c1.6-0.5,2.3,0.7,2.3,0.7l-4.3,2.2c-0.1,0-0.1-0.1-0.2-0.1c-0.7-0.3-2.2-0.9-2.9-1
		C251.5,120.3,255.4,119.2,256.2,118.9z"/>
</g>
<g>
	<g>
		<path class="st24" d="M198.5,336.3l-15.9-0.1c0,0,1.2-4.8,0.8-8.5c-0.2-1.4-1-2.6-2.2-3.4c-15.5-9.7-11.7-20.8-11.7-20.8
			s1.7-14.1,21.7-15.3c21.3-1.3,19.9,17.6,19.9,17.6s0.9,10.5-10.2,17.6c-1.6,1-2.6,2.7-2.8,4.6
			C197.4,332.6,198.5,336.3,198.5,336.3z"/>
		<path class="st9" d="M182.7,336.1l0,5.7c0,2.1,1.4,3.9,3.1,3.9l9.7,0.1c1.7,0,3.1-1.7,3.1-3.9l0-5.7L182.7,336.1z"/>
		<polygon class="st14" points="186.7,345.7 187.8,348.3 193.8,348.3 195.1,345.8 		"/>
		<g>
			<path class="st31" d="M188.2,313.7c0.2,0,0.4,0,0.6,0l-0.1,22.5l1.1,0l0.1-22.6c0.8-0.1,1.6-0.2,2.4-0.4c0,0.4,0,0.8,0,1.2
				c0,2.5-0.1,5-0.1,7.4c-0.1,4.8-0.1,9.6-0.2,14.3l1.1,0c0.1-7.8,0.2-15.6,0.3-23.3c1.4-0.4,2.6-1,3.5-1.9c3.7-3.5-2.6-7.3-4.3-2.4
				c-0.4,1.1-0.4,2.4-0.4,3.7c-0.7,0.2-1.6,0.4-2.5,0.6c0,0,0-2.1,0-3.4c0-0.8-0.2-1.5-0.7-2.1c-2.8-3.1-8.7-0.9-6.3,3.6
				C183.7,312.9,186.1,313.6,188.2,313.7z M193.5,310.3c0-0.5,0.8-4.9,3.5-2.5c0.3,0.3,0.4,0.6,0.4,1c-0.2,1.5-2.4,2.5-3.9,3
				C193.4,311.4,193.4,310.8,193.5,310.3z M184.1,307c1.8-0.9,3.3,0,4.1,0.8c0.5,0.5,0.7,1.1,0.7,1.7l0,3.5c-2,0.2-4-0.4-5.2-2.2
				C182.8,309.5,182.9,307.7,184.1,307z"/>
		</g>
	</g>
	<g>
		<path class="st31" d="M211.4,284.4c-0.3-0.3-0.3-0.9,0-1.2l8-8c0.3-0.3,0.9-0.3,1.2,0c0.3,0.3,0.3,0.9,0,1.2l-8,8
			C212.3,284.7,211.8,284.7,211.4,284.4z"/>
	</g>
	<g>
		<path class="st31" d="M176.1,284.2c0.3-0.3,0.3-0.9,0-1.2l-8-8c-0.3-0.3-0.9-0.3-1.2,0c-0.3,0.3-0.3,0.9,0,1.2l8,8
			C175.2,284.5,175.8,284.5,176.1,284.2z"/>
	</g>
	<g>
		<path class="st31" d="M191.2,281.3c-0.5,0-0.8-0.4-0.8-0.8l0.1-11.3c0-0.5,0.4-0.8,0.8-0.8c0.5,0,0.8,0.4,0.8,0.8l-0.1,11.3
			C192.1,280.9,191.7,281.3,191.2,281.3z"/>
	</g>
</g>
</svg>
