<?xml version="1.0" encoding="utf-8"?>
<!-- Generator: Adobe Illustrator 22.1.0, SVG Export Plug-In . SVG Version: 6.00 Build 0)  -->
<svg version="1.1" id="Layer_1" xmlns="http://www.w3.org/2000/svg" xmlns:xlink="http://www.w3.org/1999/xlink" x="0px" y="0px"
	 viewBox="0 0 11.5 13.8" style="enable-background:new 0 0 11.5 13.8;" xml:space="preserve">
<style type="text/css">
	.st0{fill:#FFFFFF;}
	.st1{fill:#EC526D;}
	.st2{fill:#262626;}
</style>
<g>
	<g>
		<g>
			<circle class="st0" cx="5.7" cy="3.3" r="1.3"/>
		</g>
	</g>
	<g>
		<g>
			<path class="st1" d="M4.6,2.6C4.6,2.3,5.1,2,5.7,2c0.6,0,1.1,0.3,1.1,0.6c0,0.3-0.5,0.6-1.1,0.6C5.1,3.2,4.6,3,4.6,2.6z"/>
		</g>
	</g>
	<g>
		<g>
			<path class="st2" d="M5.7,4.8c0.8,0,1.5-0.7,1.5-1.5c0-0.8-0.7-1.5-1.5-1.5c-0.8,0-1.5,0.7-1.5,1.5C4.2,4.1,4.9,4.8,5.7,4.8z
				 M5.7,2.3c0.6,0,1,0.5,1,1c0,0.6-0.5,1-1,1c-0.6,0-1-0.5-1-1C4.7,2.7,5.1,2.3,5.7,2.3z M9.9,7.9L6.9,5.6c0,0-0.1,0-0.1,0H5.7l0,0
				c0,0,0,0,0,0H4.6c0,0-0.1,0-0.1,0L1.6,7.9C1.5,8,1.5,8.1,1.5,8.2c0,0.1,0.1,0.1,0.2,0.1c0,0,0.1,0,0.1,0v0L4.7,6h0.8v3.1
				c0,0.1,0.1,0.2,0.2,0.2c0.1,0,0.2-0.1,0.2-0.2V6h0.8l2.9,2.3c0.1,0.1,0.2,0.1,0.3,0C10,8.1,10,8,9.9,7.9z M9.5,9.2l-3.8,1.2
				L1.9,9.2c-0.1,0-0.2,0-0.3,0.1c0,0.1,0,0.2,0.1,0.3l3.2,1l-1.7,0.5c-0.1,0-0.2,0.2-0.1,0.3c0,0.1,0.1,0.2,0.2,0.2c0,0,0,0,0.1,0
				l2.3-0.7L8,11.6c0,0,0,0,0.1,0c0.1,0,0.2-0.1,0.2-0.2c0-0.1,0-0.2-0.1-0.3l-1.7-0.5l3.2-1c0.1,0,0.2-0.2,0.1-0.3
				C9.8,9.3,9.7,9.2,9.5,9.2z"/>
		</g>
	</g>
</g>
</svg>
