<?xml version="1.0" encoding="utf-8"?>
<!-- Generator: Adobe Illustrator 22.1.0, SVG Export Plug-In . SVG Version: 6.00 Build 0)  -->
<svg version="1.1" id="Layer_1" xmlns="http://www.w3.org/2000/svg" xmlns:xlink="http://www.w3.org/1999/xlink" x="0px" y="0px"
	 viewBox="0 0 18.5 18.7" style="enable-background:new 0 0 18.5 18.7;" xml:space="preserve">
<style type="text/css">
	.st0{fill:#FFFFFF;}
	.st1{fill:#404040;}
	.st2{fill:#EC526D;}
</style>
<g>
	<g>
		<g>
			<path class="st0" d="M6.9,6c0-0.5,0.4-1,1-1s1,0.4,1,1s-0.4,1-1,1S6.9,6.5,6.9,6z"/>
			<path class="st1" d="M7.9,7.2C7.2,7.2,6.6,6.7,6.6,6c0-0.7,0.5-1.2,1.2-1.2c0.7,0,1.2,0.5,1.2,1.2C9.1,6.7,8.5,7.2,7.9,7.2z
				 M7.9,5.3C7.5,5.3,7.1,5.6,7.1,6c0,0.4,0.3,0.7,0.7,0.7c0.4,0,0.7-0.3,0.7-0.7C8.6,5.6,8.3,5.3,7.9,5.3z"/>
		</g>
		<g>
			<path class="st1" d="M7.9,11.6c-0.1,0-0.2-0.1-0.2-0.2V7.9c0-0.1,0.1-0.2,0.2-0.2s0.2,0.1,0.2,0.2v3.5C8.1,11.5,8,11.6,7.9,11.6z
				"/>
		</g>
		<g>
			<path class="st1" d="M4,10.8c-0.1,0-0.1,0-0.2-0.1c-0.1-0.1-0.1-0.2,0-0.3l2.5-2.8c0-0.1,0.1-0.1,0.2-0.1h2.7
				c0.1,0,0.2,0.1,0.2,0.1l0.7,1.5L12.1,9c0.1,0,0.2,0.1,0.3,0.2c0,0.1-0.1,0.2-0.2,0.3l-2.1,0.1c-0.1,0-0.2,0-0.2-0.1L9.1,8H6.6
				l-2.4,2.7C4.2,10.7,4.1,10.8,4,10.8z"/>
		</g>
		<g>
			<path class="st1" d="M4.6,15.4c0,0-0.1,0-0.1,0c-0.1-0.1-0.1-0.2-0.1-0.3L7,11.3c0-0.1,0.1-0.1,0.2-0.1h1.3c0,0,0,0,0.1,0
				l2.5,0.7c0.1,0,0.2,0.1,0.2,0.2l0.1,3c0,0.1-0.1,0.2-0.2,0.3c0,0,0,0,0,0c-0.1,0-0.2-0.1-0.2-0.2l-0.1-2.9l-2.3-0.6H7.4l-2.6,3.6
				C4.7,15.4,4.7,15.4,4.6,15.4z"/>
		</g>
	</g>
	<g>
		<g>
			
				<rect x="10.6" y="7.5" transform="matrix(0.7071 -0.7071 0.7071 0.7071 -1.3305 12.0057)" class="st2" width="6.5" height="0.2"/>
		</g>
		<g>
			<path class="st2" d="M11.7,8.6c0.3-0.3,0.8-0.3,1.1,0c0.3,0.3,0.3,0.8,0,1.1C12.5,10.1,11.4,8.9,11.7,8.6z"/>
		</g>
	</g>
</g>
</svg>
