<?xml version="1.0" encoding="utf-8"?>
<!-- Generator: Adobe Illustrator 22.1.0, SVG Export Plug-In . SVG Version: 6.00 Build 0)  -->
<svg version="1.1" id="Layer_1" xmlns="http://www.w3.org/2000/svg" xmlns:xlink="http://www.w3.org/1999/xlink" x="0px" y="0px"
	 viewBox="0 0 17.1 13.5" style="enable-background:new 0 0 17.1 13.5;" xml:space="preserve">
<style type="text/css">
	.st0{fill:#D83E59;}
	.st1{fill:#EC526D;}
	.st2{fill:#FFFFFF;}
	.st3{fill:#404040;}
</style>
<g>
	<polygon class="st0" points="5.4,4.5 5.7,4.2 6.2,4 7.1,4.4 8.1,5.7 8.2,6.5 11.1,6.4 11.9,5.5 12.7,5.3 15,5.3 15,8.2 8,8.2 	"/>
	<polygon class="st1" points="4.5,3.8 4.7,4 5.1,4.5 4.5,5 4,5 3.7,4.6 4,4.2 	"/>
	<polygon class="st1" points="2.6,6.8 3.2,6.3 3.5,6.3 4.1,6.8 6.2,9.6 2.6,9.6 1.9,9.3 2.2,7.7 	"/>
	<polygon class="st1" points="7.5,7.4 11.6,7.4 12.4,6.5 15,6.5 15,8.2 8.1,8.2 	"/>
	<path class="st1" d="M3.4,6.3c-0.5,0-0.8-0.4-0.8-0.8c0-0.5,0.4-0.8,0.8-0.8c0.5,0,0.8,0.4,0.8,0.8C4.2,5.9,3.8,6.3,3.4,6.3z"/>
	<path class="st1" d="M5.4,4.3C5,4.3,4.6,3.9,4.6,3.4C4.6,3,5,2.6,5.4,2.6S6.2,3,6.2,3.4C6.2,3.9,5.9,4.3,5.4,4.3z"/>
	<polygon class="st2" points="8.1,6.4 11.1,6.4 12.1,5.4 12.1,2.7 10.1,2.7 8.1,4.7 	"/>
	<path class="st3" d="M11.2,6.6H7.9V4.6L10,2.5h2.4v3L11.2,6.6z M8.3,6.2H11l0.9-0.9V2.9h-1.7L8.3,4.8V6.2z"/>
	<rect x="3.4" y="3.9" transform="matrix(0.66 -0.7513 0.7513 0.66 -1.7134 4.5258)" class="st3" width="1.5" height="0.5"/>
	<polygon class="st3" points="15.2,8.5 7.9,8.5 5.2,4.7 4.3,5.4 4,5 5.3,4 8.1,8 14.7,8 14.7,5.6 12.1,5.6 12.1,5.1 15.2,5.1 	"/>
	<rect x="6.9" y="3.3" transform="matrix(0.6689 -0.7433 0.7433 0.6689 -1.0147 6.7993)" class="st3" width="0.5" height="2.6"/>
	<path class="st2" d="M8.5,11.1c-0.6,0-1.1-0.5-1.1-1.1c0-0.6,0.5-1.1,1.1-1.1h5.5c0.6,0,1.1,0.5,1.1,1.1c0,0.6-0.5,1.1-1.1,1.1H8.5
		z"/>
	<path class="st3" d="M7.9,10c0-0.3,0.2-0.5,0.5-0.5C8.8,9.5,9,9.7,9,10c0,0.3-0.2,0.5-0.5,0.5C8.2,10.5,7.9,10.3,7.9,10z"/>
	<path class="st3" d="M9.8,10c0-0.3,0.2-0.5,0.5-0.5c0.3,0,0.5,0.2,0.5,0.5c0,0.3-0.2,0.5-0.5,0.5C10,10.5,9.8,10.3,9.8,10z"/>
	<path class="st3" d="M11.6,10c0-0.3,0.2-0.5,0.5-0.5c0.3,0,0.5,0.2,0.5,0.5c0,0.3-0.2,0.5-0.5,0.5C11.8,10.5,11.6,10.3,11.6,10z"/>
	<path class="st3" d="M13.4,10c0-0.3,0.2-0.5,0.5-0.5c0.3,0,0.5,0.2,0.5,0.5c0,0.3-0.2,0.5-0.5,0.5C13.6,10.5,13.4,10.3,13.4,10z"/>
	<path class="st3" d="M13.9,11.4H8.5c-0.7,0-1.3-0.6-1.3-1.3c0-0.7,0.6-1.3,1.3-1.3h5.5c0.7,0,1.3,0.6,1.3,1.3
		C15.3,10.8,14.7,11.4,13.9,11.4z M8.5,9.2C8,9.2,7.6,9.5,7.6,10c0,0.5,0.4,0.9,0.9,0.9h5.5c0.5,0,0.9-0.4,0.9-0.9
		c0-0.5-0.4-0.9-0.9-0.9H8.5z"/>
	<path class="st2" d="M3.6,7.3c0,0-0.7,2-0.5,2.3c0.2,0.3,3.4,0.1,3.4,0.1L4.6,7.3H3.6z"/>
	<path class="st3" d="M3.2,9.9c-0.4,0-0.9,0-1.1-0.3C1.8,9.3,1.8,9,1.9,8.5c0.3-1.1,0.7-2.3,0.7-2.3l0.5,0.2c0,0-0.4,1.2-0.7,2.3
		c-0.1,0.3-0.1,0.6,0,0.7c0.1,0.2,0.4,0.2,0.8,0.2c0.4,0,1.9,0,2.6-0.1l-2.2-3l0.4-0.3l2.8,3.7l-0.5,0C6.1,9.8,3.8,9.9,3.2,9.9z"/>
	<path class="st3" d="M5.4,2.4c-0.6,0-1.1,0.5-1.1,1.1s0.5,1.1,1.1,1.1C6,4.5,6.5,4,6.5,3.4S6,2.4,5.4,2.4z M5.4,4
		C5.1,4,4.8,3.8,4.8,3.4s0.3-0.6,0.6-0.6C5.7,2.8,6,3.1,6,3.4S5.7,4,5.4,4z"/>
	<path class="st3" d="M3.4,4.4c-0.6,0-1.1,0.5-1.1,1.1c0,0.6,0.5,1.1,1.1,1.1c0.6,0,1.1-0.5,1.1-1.1C4.4,4.9,3.9,4.4,3.4,4.4z
		 M3.4,6.1C3,6.1,2.8,5.8,2.8,5.5c0-0.3,0.3-0.6,0.6-0.6c0.3,0,0.6,0.3,0.6,0.6C3.9,5.8,3.7,6.1,3.4,6.1z"/>
</g>
</svg>
