<?xml version="1.0" encoding="utf-8"?>
<!-- Generator: Adobe Illustrator 22.1.0, SVG Export Plug-In . SVG Version: 6.00 Build 0)  -->
<svg version="1.1" xmlns="http://www.w3.org/2000/svg" xmlns:xlink="http://www.w3.org/1999/xlink" x="0px" y="0px"
	 viewBox="0 0 800 600" style="enable-background:new 0 0 800 600;" xml:space="preserve">
<style type="text/css">
	.st0{clip-path:url(#SVGID_2_);fill:url(#SVGID_3_);}
	.st1{clip-path:url(#SVGID_2_);fill:url(#SVGID_4_);}
	.st2{clip-path:url(#SVGID_2_);fill:url(#SVGID_5_);}
</style>
<g id="Layer_2">
	<g>
		<defs>
			<rect id="SVGID_1_" width="800" height="600"/>
		</defs>
		<clipPath id="SVGID_2_">
			<use xlink:href="#SVGID_1_"  style="overflow:visible;"/>
		</clipPath>
		<linearGradient id="SVGID_3_" gradientUnits="userSpaceOnUse" x1="29.8933" y1="1039.9946" x2="1213.2644" y2="109.9869">
			<stop  offset="0" style="stop-color:#EDEDFF"/>
			<stop  offset="1" style="stop-color:#FFFFFF"/>
		</linearGradient>
		<path class="st0" d="M125,538.5c25.4-39.8,49-69.7,93.2-103.6c90.4-69.4,166.4,24.4,296.9-20.8
			c122.9-42.5,101.8-160.3,237.7-215.8c81.9-33.4,192.7-32.8,279.2,24.4c124.1,82.1,167.6,260.5,109.7,376.7
			C1089.1,705,969.2,726.1,767.5,761.6c-235,41.3-606.8,53-654.6-80.5C94.5,629.9,99.6,578.4,125,538.5z"/>
		<linearGradient id="SVGID_4_" gradientUnits="userSpaceOnUse" x1="354.8933" y1="727.2073" x2="935.9567" y2="396.4718">
			<stop  offset="0" style="stop-color:#EDEDFF"/>
			<stop  offset="1" style="stop-color:#FFF7FC"/>
		</linearGradient>
		<path class="st1" d="M197,559.4c18.2-33.4,38.2-69,74.8-97.1c75-57.6,155.7,31.4,264-6.1c102-35.3,84.4-133,197.2-179
			C801,249.5,893,250,964.7,297.4c103,68.1,139.1,216.2,91,312.5c-43.7,87.6-143.2,105.1-310.5,134.5c-195,34.3-503.5,44-543.2-66.8
			C186.8,635.2,178.8,592.8,197,559.4z"/>
		<linearGradient id="SVGID_5_" gradientUnits="userSpaceOnUse" x1="-267.1496" y1="342.6323" x2="170.8289" y2="-96.8455">
			<stop  offset="0" style="stop-color:#EDEDFF"/>
			<stop  offset="1" style="stop-color:#FFF7FC"/>
		</linearGradient>
		<path class="st2" d="M363.2-53.5c-6.4,27.8-13.6,57.5-34.4,85.2c-42.5,56.7-118.7,8.8-189.3,57.7
			c-66.5,46.1-34.1,113.1-106.2,169.1c-43.4,33.7-109.9,51.9-171.2,32.2c-88.1-28.3-144-127.9-128.9-207.2
			c13.8-72,82.1-104.8,196.9-159.8C64-140.4,284.7-209.8,335.7-137.9C355.3-110.3,369.6-81.3,363.2-53.5z"/>
	</g>
</g>
<g id="Layer_4">
</g>
<g id="Layer_3">
</g>
<g id="Layer_5">
</g>
</svg>
