<?xml version="1.0" encoding="utf-8"?>
<!-- Generator: Adobe Illustrator 22.1.0, SVG Export Plug-In . SVG Version: 6.00 Build 0)  -->
<svg version="1.1" id="Layer_1" xmlns="http://www.w3.org/2000/svg" xmlns:xlink="http://www.w3.org/1999/xlink" x="0px" y="0px"
	 viewBox="0 0 13.4 13.1" style="enable-background:new 0 0 13.4 13.1;" xml:space="preserve">
<style type="text/css">
	.st0{fill:#FFFFFF;}
	.st1{fill:#CE344F;}
	.st2{fill:#EC526D;}
	.st3{fill:#404040;}
</style>
<g>
	<polygon class="st0" points="3.5,3.1 9.8,3.1 11.4,5.6 6.7,11.7 1.9,5.8 	"/>
	<polygon class="st1" points="6.5,2.9 8.2,5.9 9.9,2.9 	"/>
	<polygon class="st1" points="11.3,5.6 9.8,3.1 8.1,5.7 	"/>
	<polygon class="st1" points="11.3,5.8 8.3,5.7 6.6,11.5 	"/>
	<polygon class="st2" points="6.5,3.1 5,5.8 8.2,5.7 6.7,3 	"/>
	<polygon class="st2" points="6.6,11.7 8.1,5.7 5,5.8 	"/>
	<polygon class="st2" points="3.5,3.1 4.9,5.7 6.5,3.1 	"/>
	<g>
		<g>
			<g>
				<path class="st3" d="M6.6,11.8C6.5,11.8,6.5,11.8,6.6,11.8l-4.9-6c0,0,0-0.1,0-0.1c0,0,0.1-0.1,0.1-0.1H5c0.1,0,0.1,0,0.1,0.1
					l1.6,6C6.7,11.7,6.7,11.8,6.6,11.8C6.6,11.8,6.6,11.8,6.6,11.8z M2,5.9l4.3,5.4L4.9,5.9H2z"/>
			</g>
			<g>
				<path class="st3" d="M6.6,11.8C6.6,11.8,6.5,11.8,6.6,11.8c-0.1,0-0.1-0.1-0.1-0.1l1.6-6c0-0.1,0.1-0.1,0.1-0.1h3.2
					c0,0,0.1,0,0.1,0.1c0,0,0,0.1,0,0.1L6.6,11.8C6.6,11.8,6.6,11.8,6.6,11.8z M8.3,5.9l-1.4,5.4l4.3-5.4H8.3z"/>
			</g>
			<g>
				<path class="st3" d="M9.8,3.2H3.4C3.3,3.2,3.2,3.1,3.2,3c0-0.1,0.1-0.2,0.2-0.2h6.4C9.9,2.7,10,2.8,10,3C10,3.1,9.9,3.2,9.8,3.2
					z"/>
			</g>
			<g>
				<path class="st3" d="M6.6,11.8C6.5,11.8,6.5,11.8,6.6,11.8l-4.9-6c0,0,0-0.1,0-0.1c0,0,0.1-0.1,0.1-0.1H5c0.1,0,0.1,0,0.1,0.1
					l1.6,6C6.7,11.7,6.7,11.8,6.6,11.8C6.6,11.8,6.6,11.8,6.6,11.8z M2,5.9l4.3,5.4L4.9,5.9H2z"/>
			</g>
			<g>
				<path class="st3" d="M6.6,11.8c-0.1,0-0.1,0-0.1-0.1l-1.6-6c0,0,0-0.1,0-0.1c0,0,0.1,0,0.1,0h3.2c0,0,0.1,0,0.1,0
					c0,0,0,0.1,0,0.1l-1.6,6C6.7,11.8,6.6,11.8,6.6,11.8z M5.1,5.9l1.4,5.4L8,5.9H5.1z"/>
			</g>
			<g>
				<path class="st3" d="M6.6,11.8C6.6,11.8,6.5,11.8,6.6,11.8c-0.1,0-0.1-0.1-0.1-0.1l1.6-6c0-0.1,0.1-0.1,0.1-0.1h3.2
					c0,0,0.1,0,0.1,0.1c0,0,0,0.1,0,0.1L6.6,11.8C6.6,11.8,6.6,11.8,6.6,11.8z M8.3,5.9l-1.4,5.4l4.3-5.4H8.3z"/>
			</g>
			<g>
				<path class="st3" d="M5,5.9H1.8c0,0-0.1,0-0.1-0.1c0,0,0-0.1,0-0.1l1.6-2.8c0-0.1,0.2-0.1,0.2,0l1.6,2.8c0,0,0,0.1,0,0.1
					C5.1,5.8,5,5.9,5,5.9z M2,5.6h2.8L3.4,3.2L2,5.6z"/>
			</g>
			<g>
				<path class="st3" d="M8.2,5.9H5c0,0-0.1,0-0.1-0.1c0,0,0-0.1,0-0.1l1.6-2.8c0,0,0.1-0.1,0.1-0.1l0,0c0,0,0.1,0,0.1,0.1l1.6,2.8
					c0,0,0,0.1,0,0.1C8.3,5.8,8.2,5.9,8.2,5.9z M5.2,5.6H8L6.6,3.2L5.2,5.6z"/>
			</g>
			<g>
				<path class="st3" d="M11.4,5.9H8.2c0,0-0.1,0-0.1-0.1c0,0,0-0.1,0-0.1l1.6-2.8c0-0.1,0.2-0.1,0.2,0l1.6,2.8c0,0,0,0.1,0,0.1
					C11.5,5.8,11.4,5.9,11.4,5.9z M8.4,5.6h2.8L9.8,3.2L8.4,5.6z"/>
			</g>
		</g>
		<g>
			<path class="st3" d="M6.6,11.9c-0.1,0-0.1,0-0.2-0.1l-4.8-6c-0.1-0.1-0.1-0.2,0-0.3l1.6-2.8c0-0.1,0.1-0.1,0.2-0.1h6.4
				c0.1,0,0.2,0,0.2,0.1l1.6,2.8c0,0.1,0,0.2,0,0.3l-4.8,6C6.7,11.9,6.6,11.9,6.6,11.9z M2.1,5.7l4.5,5.6l4.5-5.6L9.6,3.2H3.5
				L2.1,5.7z"/>
		</g>
	</g>
</g>
</svg>
