<?xml version="1.0" encoding="utf-8"?>
<!-- Generator: Adobe Illustrator 22.1.0, SVG Export Plug-In . SVG Version: 6.00 Build 0)  -->
<svg version="1.1" id="Layer_1" xmlns="http://www.w3.org/2000/svg" xmlns:xlink="http://www.w3.org/1999/xlink" x="0px" y="0px"
	 viewBox="0 0 11.7 11.5" style="enable-background:new 0 0 11.7 11.5;" xml:space="preserve">
<style type="text/css">
	.st0{fill:#FFFFFF;}
	.st1{fill:#EC526D;}
	.st2{fill:#404040;}
</style>
<g>
	<g>
		<polygon class="st0" points="10.4,4.7 5.7,1.3 1,4.7 1,10.5 4.1,10.5 4.1,7.8 7.2,7.8 7.2,10.5 10.4,10.5 		"/>
	</g>
	<g>
		<polygon class="st1" points="7.2,10.5 8.4,10.5 8.4,10.5 10.4,10.5 10.2,6.6 6.2,3.8 2.2,6.6 2.2,10.5 4.1,10.5 4.1,7.8 7.2,7.8 
					"/>
	</g>
	<g>
		<path class="st2" d="M10.6,10.7H7V8H4.3v2.7H0.7V4.6L5.7,1l4.9,3.5V10.7z M7.5,10.2h2.6V4.8L5.7,1.6L1.2,4.8v5.4h2.6V7.6h3.6V10.2
			z"/>
	</g>
</g>
</svg>
