<?xml version="1.0" encoding="utf-8"?>
<!-- Generator: Adobe Illustrator 22.1.0, SVG Export Plug-In . SVG Version: 6.00 Build 0)  -->
<svg version="1.1" id="Layer_1" xmlns="http://www.w3.org/2000/svg" xmlns:xlink="http://www.w3.org/1999/xlink" x="0px" y="0px"
	 viewBox="0 0 16.4 16.2" style="enable-background:new 0 0 16.4 16.2;" xml:space="preserve">
<style type="text/css">
	.st0{fill:#FFFFFF;}
	.st1{fill:#404040;}
	.st2{fill:#E08C35;}
	.st3{fill:#F1C14F;}
</style>
<g>
	<g>
		<g>
			<path class="st0" d="M7,5.8c0-0.5,0.4-0.9,0.9-0.9c0.5,0,0.9,0.4,0.9,0.9S8.4,6.6,7.9,6.6C7.4,6.6,7,6.2,7,5.8z"/>
			<path class="st1" d="M7.9,6.9c-0.6,0-1.1-0.5-1.1-1.1c0-0.6,0.5-1.1,1.1-1.1c0.6,0,1.1,0.5,1.1,1.1C9.1,6.4,8.5,6.9,7.9,6.9z
				 M7.9,5.1c-0.4,0-0.6,0.3-0.6,0.6c0,0.4,0.3,0.6,0.6,0.6c0.4,0,0.6-0.3,0.6-0.6C8.6,5.4,8.3,5.1,7.9,5.1z"/>
		</g>
		<g>
			<path class="st1" d="M7.9,10.9c-0.1,0-0.2-0.1-0.2-0.2V7.4c0-0.1,0.1-0.2,0.2-0.2c0.1,0,0.2,0.1,0.2,0.2v3.2
				C8.2,10.8,8.1,10.9,7.9,10.9z"/>
		</g>
		<g>
			<path class="st1" d="M9.2,7.6H6.7c-0.1,0-0.1,0-0.2-0.1L3.8,4.8c-0.1-0.1-0.1-0.2,0-0.3c0.1-0.1,0.2-0.1,0.3,0l2.6,2.6h2.3
				l2.7-2.7c0.1-0.1,0.2-0.1,0.3,0c0.1,0.1,0.1,0.2,0,0.3L9.3,7.5C9.3,7.5,9.2,7.6,9.2,7.6z"/>
		</g>
		<g>
			<path class="st1" d="M10.9,14.3c-0.1,0-0.2,0-0.2-0.1l-2.3-3.2H7.5l-2.3,3.2c-0.1,0.1-0.2,0.1-0.3,0.1c-0.1-0.1-0.1-0.2-0.1-0.3
				l2.4-3.3c0-0.1,0.1-0.1,0.2-0.1h1.1c0.1,0,0.2,0,0.2,0.1l2.4,3.3c0.1,0.1,0.1,0.3-0.1,0.3C11,14.2,10.9,14.3,10.9,14.3z"/>
		</g>
	</g>
	<g>
		<g>
			<path class="st1" d="M12.6,5.5c-0.1,0-0.1,0-0.2-0.1L10.9,4c-0.1-0.1-0.1-0.2,0-0.3c0.1-0.1,0.2-0.1,0.3,0l1.5,1.5
				c0.1,0.1,0.1,0.2,0,0.3C12.7,5.5,12.6,5.5,12.6,5.5z"/>
		</g>
		<g>
			<rect x="12" y="5.1" transform="matrix(0.7069 -0.7073 0.7073 0.7069 -0.1633 10.7391)" class="st2" width="1.8" height="0.8"/>
			<path class="st1" d="M12.5,6.7c-0.1,0-0.1,0-0.2-0.1l-0.6-0.6c-0.1-0.1-0.1-0.2,0-0.3L13,4.5c0.1-0.1,0.2-0.1,0.3,0L14,5.1
				c0,0,0.1,0.1,0.1,0.2c0,0.1,0,0.1-0.1,0.2l-1.3,1.3C12.7,6.7,12.6,6.7,12.5,6.7z M12.3,5.9l0.3,0.3l0.9-0.9L13.2,5L12.3,5.9z"/>
		</g>
		<g>
			<rect x="9.9" y="3.1" transform="matrix(0.707 -0.7072 0.7072 0.707 0.6745 8.7115)" class="st2" width="1.8" height="0.8"/>
			<path class="st1" d="M10.5,4.7c-0.1,0-0.1,0-0.2-0.1L9.7,4.1C9.6,4,9.6,3.8,9.7,3.7L11,2.4c0.1-0.1,0.2-0.1,0.3,0L12,3
				c0,0,0.1,0.1,0.1,0.2c0,0.1,0,0.1-0.1,0.2l-1.3,1.3C10.6,4.7,10.6,4.7,10.5,4.7z M10.3,3.9l0.3,0.3l0.9-0.9l-0.3-0.3L10.3,3.9z"
				/>
		</g>
	</g>
	<g>
		<g>
			<path class="st1" d="M3.2,5.6c-0.1,0-0.1,0-0.2-0.1C2.9,5.4,2.9,5.2,3,5.1l1.5-1.5c0.1-0.1,0.2-0.1,0.3,0c0.1,0.1,0.1,0.2,0,0.3
				L3.4,5.5C3.3,5.5,3.3,5.6,3.2,5.6z"/>
		</g>
		<g>
			<rect x="4.5" y="2.6" transform="matrix(0.7071 -0.7071 0.7071 0.7071 -1.0511 4.5456)" class="st3" width="0.8" height="1.8"/>
			<path class="st1" d="M5.3,4.7c-0.1,0-0.1,0-0.2-0.1L3.9,3.4c0,0-0.1-0.1-0.1-0.2c0-0.1,0-0.1,0.1-0.2l0.6-0.6
				c0,0,0.1-0.1,0.2-0.1l0,0c0.1,0,0.1,0,0.2,0.1l1.3,1.3c0.1,0.1,0.1,0.2,0,0.3L5.5,4.7C5.4,4.7,5.4,4.7,5.3,4.7z M4.4,3.2l0.9,0.9
				l0.3-0.3L4.6,2.9L4.4,3.2z"/>
		</g>
		<g>
			<rect x="2.5" y="4.7" transform="matrix(0.7072 -0.707 0.707 0.7072 -3.076 3.7063)" class="st3" width="0.8" height="1.8"/>
			<path class="st1" d="M3.3,6.7c-0.1,0-0.1,0-0.2-0.1L1.8,5.4c0,0-0.1-0.1-0.1-0.2c0-0.1,0-0.1,0.1-0.2l0.6-0.6
				c0.1-0.1,0.2-0.1,0.3,0L4,5.7c0,0,0.1,0.1,0.1,0.2C4.1,6,4.1,6,4,6.1L3.4,6.7C3.4,6.7,3.3,6.7,3.3,6.7z M2.3,5.2l0.9,0.9l0.3-0.3
				L2.6,5L2.3,5.2z"/>
		</g>
	</g>
</g>
</svg>
