<?xml version="1.0" encoding="utf-8"?>
<!-- Generator: Adobe Illustrator 22.1.0, SVG Export Plug-In . SVG Version: 6.00 Build 0)  -->
<svg version="1.1" id="Layer_1" xmlns="http://www.w3.org/2000/svg" xmlns:xlink="http://www.w3.org/1999/xlink" x="0px" y="0px"
	 viewBox="0 0 12 14.3" style="enable-background:new 0 0 12 14.3;" xml:space="preserve">
<style type="text/css">
	.st0{fill:#EC526D;}
	.st1{fill:#FFFFFF;}
	.st2{fill:#404040;}
</style>
<g>
	<g>
		<polygon class="st0 lightning" points="9.3,1.6 1.8,6.3 4.3,8 1.8,12.5 9.4,7.6 6.5,5.8 		"/>
	</g>
	<g>
		<polygon class="st1" points="5,9.8 8.8,7.4 6.4,5.9 6.7,5.5 6.3,5.3 7.6,3.4 3.8,5.8 6.3,7.5 		"/>
	</g>
	<g>
		<path class="st2" d="M1.8,12.8c-0.1,0-0.1,0-0.2-0.1s-0.1-0.2,0-0.3L4,8.1L1.7,6.5c-0.1,0-0.1-0.1-0.1-0.2s0-0.2,0.1-0.2l7.5-4.7
			c0.1-0.1,0.2,0,0.3,0c0.1,0.1,0.1,0.2,0,0.3l-2.6,4l2.7,1.7c0.1,0,0.1,0.1,0.1,0.2s0,0.2-0.1,0.2l-7.7,4.9
			C1.8,12.7,1.8,12.8,1.8,12.8z M2.3,6.3l2.2,1.5C4.6,7.9,4.6,8,4.6,8.1l-2.1,3.7L9,7.6L6.4,6c0,0-0.1-0.1-0.1-0.2s0-0.1,0-0.2
			l2.2-3.3L2.3,6.3z"/>
	</g>
</g>
</svg>
