<?xml version="1.0" encoding="utf-8"?>
<!-- Generator: Adobe Illustrator 22.1.0, SVG Export Plug-In . SVG Version: 6.00 Build 0)  -->
<svg version="1.1" id="Layer_1" xmlns="http://www.w3.org/2000/svg" xmlns:xlink="http://www.w3.org/1999/xlink" x="0px" y="0px"
	 viewBox="0 0 10.3 14.2" style="enable-background:new 0 0 10.3 14.2;" xml:space="preserve">
<style type="text/css">
	.st0{fill:#FFFFFF;}
	.st1{fill:#EC526D;}
	.st2{fill:#404040;}
</style>
<g>
	<g>
		<g>
			<g>
				<g>
					<g>
						<path class="st0" d="M5.4,1.9c-1.9,0-3.5,1.5-3.5,3.3c0,1.3,0.7,2.2,1.3,2.8c0.3,0.3,0.5,0.6,0.5,0.8C3.8,9,3.8,9.2,3.8,9.3
							c0,0.3,0,0.3,0.2,0.4c0.4,0.1,2.5,0.1,2.9,0c0.1,0,0.1,0,0.2-0.3c0-0.1,0-0.3,0.1-0.5s0.3-0.5,0.5-0.8C8.2,7.4,9,6.5,9,5.2
							C9,3.4,7.4,1.9,5.4,1.9L5.4,1.9z"/>
					</g>
				</g>
			</g>
		</g>
	</g>
	<g>
		<path class="st1" d="M7.3,2.6c-2,0-3.7,1.6-3.7,3.6s1.7,3.1,1.8,3.7c0,0.1,0,0.1,0,0.2c0.6,0,1.3,0,1.5-0.1
			c0.5-0.1,0.3-0.4,0.5-1.1c0.2-0.6,1.8-1.7,1.8-3.7c0-1-0.5-1.9-1.2-2.5C7.8,2.6,7.6,2.6,7.3,2.6L7.3,2.6z"/>
	</g>
	<g>
		<g>
			<g>
				<g>
					<g>
						<g>
							<path class="st2" d="M5.4,10.4c-0.7,0-1.3,0-1.6-0.1c-0.5-0.1-0.5-0.5-0.5-0.8c0-0.1,0-0.3-0.1-0.5c0-0.1-0.2-0.4-0.5-0.6
								C2.2,7.7,1.4,6.7,1.4,5.2c0-2.1,1.8-3.8,4-3.8h0.1c2.2,0,4,1.7,4,3.8c0,1.4-0.8,2.5-1.4,3.1C7.9,8.6,7.7,8.9,7.6,9
								c0,0.2-0.1,0.3-0.1,0.5c0,0.3-0.1,0.6-0.5,0.8C6.8,10.3,6.1,10.4,5.4,10.4z M5.4,1.9c-1.9,0-3.5,1.5-3.5,3.3
								c0,1.3,0.7,2.2,1.3,2.8c0.3,0.3,0.5,0.6,0.5,0.8C3.8,9,3.8,9.2,3.8,9.3c0,0.3,0,0.3,0.2,0.4c0.4,0.1,2.5,0.1,2.9,0
								c0.1,0,0.1,0,0.2-0.3c0-0.1,0-0.3,0.1-0.5s0.3-0.5,0.5-0.8C8.2,7.4,9,6.5,9,5.2C9,3.4,7.4,1.9,5.4,1.9L5.4,1.9z"/>
						</g>
					</g>
				</g>
			</g>
		</g>
		<g>
			<g>
				<rect x="3.7" y="10.7" class="st1" width="3.4" height="0.5"/>
			</g>
		</g>
		<g>
			<g>
				<rect x="3.7" y="11.6" class="st1" width="3.4" height="0.5"/>
			</g>
		</g>
		<g>
			<g>
				<rect x="3.7" y="12.5" class="st1" width="3.4" height="0.5"/>
			</g>
		</g>
	</g>
</g>
<g>
	<g>
		<g>
			<g>
				<path class="st2" d="M-10.3,6.9h0.5"/>
			</g>
		</g>
	</g>
</g>
</svg>
