<?xml version="1.0" encoding="utf-8"?>
<!-- Generator: Adobe Illustrator 22.1.0, SVG Export Plug-In . SVG Version: 6.00 Build 0)  -->
<svg version="1.1" id="Layer_1" xmlns="http://www.w3.org/2000/svg" xmlns:xlink="http://www.w3.org/1999/xlink" x="0px" y="0px"
	 viewBox="0 0 900 600" style="enable-background:new 0 0 900 600;" xml:space="preserve">
<style type="text/css">
	.st0{fill:url(#SVGID_1_);}
	.st1{fill:#71B9FF;}
	.st2{fill:#3DA0FF;}
	.st3{fill:#188EFF;}
	.st4{opacity:0.5;fill:#188EFF;enable-background:new    ;}
</style>
<g>
	<g>
		
			<linearGradient id="SVGID_1_" gradientUnits="userSpaceOnUse" x1="450" y1="15.7226" x2="450" y2="602.2034" gradientTransform="matrix(1 0 0 -1 0 602)">
			<stop  offset="0" style="stop-color:#C2DFFF"/>
			<stop  offset="0.2893" style="stop-color:#82C1FF"/>
			<stop  offset="0.6294" style="stop-color:#3CA0FF"/>
			<stop  offset="0.8754" style="stop-color:#118BFF"/>
			<stop  offset="1" style="stop-color:#0083FF"/>
		</linearGradient>
		<rect class="st0" width="900" height="600"/>
		<path class="st1" d="M815.4,516.4v-45.1h-15V464h-9.2v7.3h-22.7v-10.2h-41.7v-24.5H724V435c0-0.8-0.7-1.5-1.5-1.5h-13.1V424h-1.3
			v9.5H707v-14.9h-1.3v14.9h-14.9c-0.8,0-1.5,0.7-1.5,1.5v1.6H686v-12h-2.9V418h-2.9v-3.3L670,397.1l-10.2,17.6v3.3h-2.9v6.6H654
			v-55.4h-19.4l-19.6,23v29.2h-6v3h1v3h-32.7v-1.3H576v-1.9h1.3v-1.9H576v-1.9h1.3v-1.9H576v-1.9h1.3v-1.9H576v-1.9h1.3v-1.9H576
			V409h1.3v-1.9h-5.4v-1.9h1.3v-1.9h-14.7v-9.5h-1.3v9.5h-1.1V388h-1.3v14.9h-13.2v1.9h1.3v1.9h-5.4v1.9h1.3v1.9h-1.3v1.9h1.3v1.9
			h-1.3v1.9h1.3v1.9h-1.3v1.9h1.3v1.9h-1.3v1.9h1.3v1.9h-1.3v1.9h1.3v1.9h-1.3v1.9h1.3v1.9h-1.3v1.9h1.3v1.9h-1.3v1.9h1.3v1.9h-1.3
			v1.9H524V312.3h-5v-1.6l-13.3-8.5v-14.7h-1.3v14.7l-13.3,8.5v1.6h-5v38.5h-8.8v-57.5h-2.8v-1.6c0-0.8-0.7-1.5-1.5-1.5h-45.7
			c-0.8,0-1.5,0.7-1.5,1.5v1.6H423v147.5h-9v-58.5h-5v-1.6l-13.3-8.5v-14.7h-1.3v14.7l-13.3,8.5v1.6h-5v61.2h-13.5v-1.9h-1.3v-1.9
			h1.3v-1.9h-1.3v-1.9h1.3V434h-1.3v-1.9h1.3V430h-1.3v-2h1.3v-1.9h-1.3v-1.9h1.3v-1.9h-1.3v-1.9h1.3v-1.9h-1.3v-1.9h1.3v-1.9h-1.3
			v-1.9h1.3v-1.9h-1.3V409h1.3v-1.9h-5.4v-1.9h1.3v-1.9h-13.2V388H344v14.9h-1.1v-9.5h-1.3v9.5h-14.7v1.9h1.3v1.9h-5.4v1.9h1.3v1.9
			h-1.3v1.9h1.3v1.9h-1.3v1.9h1.3v1.9h-1.3v1.9h1.3v1.9h-1.3v1.9h1.3v1.9h-1.3v1.3h-32.7v-3h1v-3h-6v-29.2l-19.4-22.9h-19.4v55.4
			h-2.9v-6.6h-2.9v-3.3l-10.2-17.6l-10.2,17.6v3.3h-2.9v6.6H214v12h-3.1v-1.6c0-0.8-0.7-1.5-1.5-1.5h-14.9v-14.9h-1.3v14.9h-1.1
			v-9.5h-1.3v9.5h-13.1c-0.8,0-1.5,0.7-1.5,1.5v1.6h-2.8v24.5h-41.7V471H109v-7.3h-9.2v7.3h-15v32.3H0V600h900v-83.6H815.4z"/>
		<g>
			<path class="st2" d="M900,546.5c-0.1-0.3-0.2-0.5-0.4-0.8c-0.3-0.5-0.6-1-1-1.5s-0.8-0.9-1.4-1.4c-0.5-0.4-1.1-0.8-1.7-1.1
				c-1.4,0.3-2.6,0.9-3.6,1.6c-0.3,0.2-0.5,0.3-0.7,0.5s-0.4,0.4-0.7,0.6c-0.4,0.4-0.8,0.9-1.1,1.3c-0.3,0.5-0.6,0.9-0.7,1.4
				c-0.2,0.5-0.3,1-0.4,1.6c-0.2,1.1-0.2,2.1,0,3.2l0,0c-0.2-1.1-0.5-2.1-0.9-3.1c-0.2-0.5-0.5-0.9-0.9-1.4
				c-0.2-0.2-0.3-0.4-0.5-0.6c-0.2-0.2-0.4-0.4-0.6-0.6c-0.8-0.7-1.9-1.3-3.1-1.7c-0.6-0.2-1.2-0.3-1.9-0.4c-0.3,0-0.7-0.1-1-0.1
				s-0.7,0-1,0c-0.5,0.5-0.9,1.1-1.3,1.6c-0.4,0.5-0.7,1.1-0.9,1.7c-0.1,0.3-0.3,0.7-0.4,1c-1,0.5-1.9,1.3-2.7,2.2
				c1.5-1.6,2.4-3.6,2.5-5.9c0.1-2.2-0.6-4.6-2.3-6.8c-2.7-0.4-5.2,0.2-7,1.4c-0.9,0.6-1.7,1.3-2.4,2.2c-0.6,0.9-1.1,1.8-1.5,2.9
				c0.3-1.1,0.5-2.1,0.5-3.2c0-1.1-0.2-2.1-0.6-3.2c-0.8-2-2.5-4-4.9-5.3c-2.6,0.8-4.6,2.3-5.8,4.1c-1.2,1.9-1.7,4-1.4,6.2
				c-0.2-2.2-1.1-4.2-2.7-5.8c-1.6-1.6-3.9-2.6-6.6-2.8c-0.5,0.5-1,0.9-1.4,1.4s-0.8,1-1.1,1.5c-0.6,1.1-1,2.1-1.2,3.2
				c-0.4,2.2,0.1,4.3,1.2,6.3c-1.1-1.9-2.7-3.4-4.8-4.2s-4.6-0.8-7.2,0.1c-1.2,2.5-1.4,5-0.8,7.1c0.3,1.1,0.7,2.1,1.4,2.9
				c0.6,0.9,1.4,1.6,2.3,2.3c-0.9-0.7-1.9-1.2-2.9-1.5s-2.1-0.5-3.2-0.4c-2.2,0.1-4.5,1.1-6.5,3c-0.1,2.7,0.7,5.1,2.1,6.9
				c1.4,1.7,3.3,2.8,5.5,3.3c-2.2-0.5-4.3-0.3-6.3,0.8c-1.9,1-3.7,2.9-4.7,5.4c0.5,1.3,1.3,2.4,2.1,3.4c-1.7-0.2-12-0.9-13.6-0.9
				s-4,3.1-4.7,4.4c-0.2,0.3-1.3,3.5-1.5,5.2c-0.3-1.8-1-3.5-2.1-4.9c-0.9-1.1-3.7-4-5.3-3.8c-1.7,0.2-3.7,3.8-4.2,5
				c-0.8,2-1,4.2-0.6,6.3c-0.7-3.3-5.9-10.5-9.8-7.7c-3,2.1-3.9,7.2-2.5,10.5c-0.9-0.9-2.6-1.9-3.3-2.1c-2-0.8-4.2-0.8-6.3-0.3
				c-4.1,1-6,3-4.8,7.5c1.7,6,9.6,4.8,14.4,4.8h23.7c14.6,0,29.2,0.1,43.7,0c0.2,0,0.4,0,0.6,0h8.1l0,0H900V553
				c-0.1,0.2-0.2,0.4-0.3,0.6l0,0c0.1-0.2,0.2-0.5,0.3-0.7V546.5z"/>
			<path class="st3" d="M844.7,568.2c0.8-1.1,1.5-2.5,1.8-4.1c-1.3-1-2.7-1.6-4-1.9c-1.4-0.3-2.7-0.4-4-0.2c-2.6,0.4-4.9,1.8-7,3.6
				l0,0c2.1-1.8,3.9-3.8,4.8-6.3c0.9-2.4,0.8-5.4-0.6-8.3c-3.2,0.2-5.8,1.6-7.5,3.6c-0.9,1-1.5,2.1-2,3.4c-0.5,1.2-0.8,2.5-1.1,3.9
				l0,0c0.2-1.4,0.4-2.7,0.3-4c0-1.3-0.3-2.6-0.7-3.8c-0.2-0.6-0.5-1.2-0.9-1.8c-0.2-0.3-0.4-0.6-0.6-0.8c-0.2-0.3-0.4-0.5-0.7-0.8
				c-0.5-0.5-1-1-1.6-1.4s-1.3-0.8-2-1.1c-2.3,2.2-3.4,4.9-3.5,7.5c0,1.3,0.2,2.6,0.6,3.9c0.4,1.3,1,2.5,1.7,3.7l0,0
				c-0.7-1.2-1.4-2.3-2.3-3.3c-0.9-1-1.9-1.9-3-2.5s-2.4-1.1-3.8-1.2c-0.7-0.1-1.4-0.1-2.2,0c-0.7,0.1-1.5,0.2-2.3,0.4
				c-0.2,1.6-0.1,3.1,0.3,4.4c0.2,0.7,0.4,1.3,0.8,1.9c0.3,0.6,0.7,1.2,1.1,1.7c0.8,1,1.8,1.9,3,2.6c1.1,0.7,2.4,1.2,3.7,1.7l0,0
				c-1.3-0.5-2.6-0.8-3.9-1c-1.3-0.2-2.6-0.2-3.9,0.1c-0.6,0.1-1.3,0.3-1.9,0.6c-0.6,0.3-1.2,0.6-1.8,1c-1.2,0.8-2.2,1.8-3.1,3.2
				c0.9,1.3,1.9,2.4,3.1,3.2c0.6,0.4,1.2,0.7,1.8,1s1.3,0.4,1.9,0.6c1.3,0.2,2.6,0.3,3.9,0.1c1.3-0.2,2.6-0.6,3.9-1l0,0
				c-1.3,0.5-2.5,1-3.7,1.7c-1.1,0.7-2.1,1.5-3,2.6c-0.4,0.5-0.8,1.1-1.1,1.7c-0.3,0.6-0.6,1.2-0.8,1.9c-0.4,1.4-0.5,2.8-0.3,4.4
				c0.8,0.2,1.5,0.4,2.3,0.4c0.7,0.1,1.5,0.1,2.2,0c1.4-0.1,2.7-0.6,3.8-1.2c1.1-0.6,2.2-1.5,3-2.5c0.9-1,1.6-2.1,2.3-3.3l0,0
				c-0.7,1.2-1.3,2.4-1.7,3.7s-0.6,2.5-0.6,3.9c0,2.6,1.1,5.4,3.5,7.5c0.7-0.3,1.4-0.7,2-1.1c0.6-0.4,1.2-0.9,1.6-1.4
				c0.2-0.3,0.5-0.5,0.7-0.8s0.4-0.6,0.6-0.8c0.4-0.6,0.6-1.2,0.9-1.8c0.5-1.2,0.7-2.5,0.7-3.8s-0.1-2.7-0.3-4l0,0
				c0.2,1.4,0.6,2.7,1.1,3.9s1.1,2.4,2,3.4c1.7,2,4.3,3.4,7.5,3.6c1.5-2.8,1.5-5.8,0.6-8.3s-2.6-4.5-4.8-6.3l0,0
				c2.1,1.8,4.4,3.2,7,3.6c1.3,0.2,2.6,0.2,4-0.2c1.3-0.3,2.7-1,4-1.9c-0.3-1.5-1-2.9-1.8-4.1c-0.9-1.1-1.9-2-3-2.7
				c-2.3-1.3-4.9-1.8-7.7-1.7c2.8,0,5.4-0.4,7.7-1.7C842.9,570.3,843.9,569.4,844.7,568.2z M887.1,567.2c-1.3-0.8-2.9-1-4.5-1
				c1.6,0,3.1-0.2,4.5-1c0.7-0.4,1.2-0.9,1.7-1.6c0.5-0.7,0.9-1.5,1.1-2.4c-0.7-0.6-1.6-0.9-2.3-1.1c-0.8-0.2-1.6-0.2-2.3-0.1
				c-1.5,0.3-2.8,1.1-4.1,2.1c1.2-1,2.3-2.2,2.8-3.7c0.5-1.4,0.5-3.2-0.4-4.8c-1.9,0.1-3.4,0.9-4.4,2.1c-0.5,0.6-0.9,1.2-1.2,2
				c-0.3,0.7-0.5,1.5-0.6,2.3c0.1-0.8,0.2-1.6,0.2-2.3c0-0.8-0.2-1.5-0.4-2.2c-0.1-0.4-0.3-0.7-0.5-1c-0.1-0.2-0.2-0.3-0.3-0.5
				s-0.3-0.3-0.4-0.5c-0.3-0.3-0.6-0.6-1-0.8s-0.7-0.5-1.2-0.6c-1.4,1.3-2,2.9-2,4.4c0,0.8,0.1,1.5,0.4,2.2c0.2,0.7,0.6,1.4,1,2.1
				l0,0c-0.4-0.7-0.8-1.3-1.4-1.9c-0.5-0.6-1.1-1.1-1.8-1.4c-0.7-0.4-1.4-0.6-2.2-0.7c-0.4,0-0.8-0.1-1.3,0c-0.4,0-0.9,0.1-1.3,0.3
				c-0.1,0.9,0,1.8,0.2,2.6c0.1,0.4,0.3,0.8,0.4,1.1c0.2,0.3,0.4,0.7,0.6,1c0.5,0.6,1.1,1.1,1.7,1.5c0.7,0.4,1.4,0.7,2.1,1l0,0
				c-0.8-0.3-1.5-0.5-2.3-0.6s-1.5-0.1-2.3,0c-0.4,0.1-0.7,0.2-1.1,0.3c-0.4,0.1-0.7,0.3-1.1,0.6c-0.7,0.5-1.3,1.1-1.8,1.8
				c0.5,0.8,1.1,1.4,1.8,1.8c0.3,0.2,0.7,0.4,1.1,0.6c0.4,0.1,0.7,0.3,1.1,0.3c0.8,0.1,1.5,0.1,2.3,0s1.5-0.3,2.3-0.6l0,0
				c-0.8,0.3-1.5,0.6-2.1,1c-0.7,0.4-1.2,0.9-1.7,1.5c-0.2,0.3-0.5,0.6-0.6,1c-0.2,0.3-0.3,0.7-0.4,1.1c-0.2,0.8-0.3,1.7-0.2,2.6
				c0.4,0.1,0.9,0.2,1.3,0.3c0.4,0,0.9,0,1.3,0c0.8-0.1,1.6-0.3,2.2-0.7c0.7-0.4,1.3-0.9,1.8-1.4c0.5-0.6,1-1.2,1.4-1.9l0,0
				c-0.4,0.7-0.8,1.4-1,2.1c-0.2,0.7-0.4,1.5-0.4,2.2c0,1.5,0.7,3.1,2,4.4c0.4-0.2,0.8-0.4,1.2-0.6c0.4-0.3,0.7-0.5,1-0.8
				c0.1-0.1,0.3-0.3,0.4-0.5c0.1-0.2,0.2-0.3,0.3-0.5c0.2-0.3,0.4-0.7,0.5-1c0.3-0.7,0.4-1.5,0.4-2.2c0-0.8-0.1-1.6-0.2-2.3l0,0
				c0.1,0.8,0.3,1.6,0.6,2.3s0.7,1.4,1.2,2c1,1.2,2.5,2,4.4,2.1c0.8-1.7,0.9-3.4,0.4-4.8c-0.5-1.5-1.5-2.6-2.8-3.7
				c1.2,1,2.6,1.8,4.1,2.1c0.8,0.1,1.5,0.1,2.3-0.1c0.8-0.2,1.6-0.6,2.3-1.1c-0.2-0.9-0.6-1.7-1.1-2.4
				C888.3,568.1,887.8,567.5,887.1,567.2z"/>
		</g>
		<g>
			<path class="st2" d="M0,546.5c0.1-0.3,0.2-0.5,0.4-0.8c0.3-0.5,0.6-1,1-1.5s0.8-0.9,1.4-1.4c0.5-0.4,1.1-0.8,1.7-1.1
				c1.4,0.3,2.6,0.9,3.6,1.6c0.3,0.2,0.5,0.3,0.7,0.5s0.4,0.4,0.7,0.6c0.4,0.4,0.8,0.9,1.1,1.3c0.3,0.5,0.6,0.9,0.7,1.4
				c0.2,0.5,0.3,1,0.4,1.6c0.2,1.1,0.2,2.1,0,3.2l0,0c0.2-1.1,0.5-2.1,0.9-3.1c0.2-0.5,0.5-0.9,0.9-1.4c0.2-0.2,0.3-0.4,0.5-0.6
				c0.2-0.2,0.4-0.4,0.6-0.6c0.8-0.7,1.9-1.3,3.1-1.7c0.6-0.2,1.2-0.3,1.9-0.4c0.3,0,0.7-0.1,1-0.1s0.7,0,1,0
				c0.5,0.5,0.9,1.1,1.3,1.6s0.7,1.1,0.9,1.7c0.1,0.3,0.3,0.7,0.4,1c1,0.5,1.9,1.3,2.7,2.2c-1.5-1.6-2.4-3.6-2.5-5.9
				c-0.1-2.2,0.6-4.6,2.3-6.8c2.7-0.4,5.2,0.2,7,1.4c0.9,0.6,1.7,1.3,2.4,2.2c0.6,0.9,1.1,1.8,1.5,2.9c-0.3-1.1-0.5-2.1-0.5-3.2
				c0-1.1,0.2-2.1,0.6-3.2c0.8-2,2.5-4,4.9-5.3c2.6,0.8,4.6,2.3,5.8,4.1c1.2,1.9,1.7,4,1.4,6.2c0.2-2.2,1.1-4.2,2.7-5.8
				c1.6-1.6,3.9-2.6,6.6-2.8c0.5,0.5,1,0.9,1.4,1.4s0.8,1,1.1,1.5c0.6,1.1,1,2.1,1.2,3.2c0.4,2.2-0.1,4.3-1.2,6.3
				c1.1-1.9,2.7-3.4,4.8-4.2c2.1-0.8,4.6-0.8,7.2,0.1c1.2,2.5,1.4,5,0.8,7.1c-0.3,1.1-0.7,2.1-1.4,2.9c-0.6,0.9-1.4,1.6-2.3,2.3
				c0.9-0.7,1.9-1.2,2.9-1.5s2.1-0.5,3.2-0.4c2.2,0.1,4.5,1.1,6.5,3c0.1,2.7-0.7,5.1-2.1,6.9c-1.4,1.7-3.3,2.8-5.5,3.3
				c2.2-0.5,4.3-0.3,6.3,0.8c1.9,1,3.7,2.9,4.7,5.4c-0.5,1.3-1.3,2.4-2.1,3.4c1.7-0.2,12-0.9,13.6-0.9s4,3.1,4.7,4.4
				c0.2,0.3,1.3,3.5,1.5,5.2c0.3-1.8,1-3.5,2.1-4.9c0.9-1.1,3.7-4,5.3-3.8c1.7,0.2,3.7,3.8,4.2,5c0.8,2,1,4.2,0.6,6.3
				c0.7-3.3,5.9-10.5,9.8-7.7c3,2.1,3.9,7.2,2.5,10.5c0.9-0.9,2.6-1.9,3.3-2.1c2-0.8,4.2-0.8,6.3-0.3c4.1,1,6,3,4.8,7.5
				c-1.7,6-9.6,4.8-14.4,4.8h-23.7c-14.6,0-29.2,0.1-43.7,0c-0.2,0-0.4,0-0.6,0h-8.1l0,0H0V553c0.1,0.2,0.2,0.4,0.3,0.6l0,0
				c-0.1-0.2-0.2-0.5-0.3-0.7V546.5z"/>
			<path class="st3" d="M58.3,570.9c2.3,1.3,4.9,1.8,7.7,1.7c-2.8,0-5.4,0.4-7.7,1.7c-1.1,0.7-2.1,1.6-3,2.7
				c-0.8,1.1-1.5,2.5-1.8,4.1c1.3,1,2.7,1.6,4,1.9c1.4,0.3,2.7,0.4,4,0.2c2.6-0.4,4.9-1.8,7-3.6l0,0c-2.1,1.8-3.9,3.8-4.8,6.3
				c-0.9,2.4-0.8,5.4,0.6,8.3c3.2-0.2,5.8-1.6,7.5-3.6c0.9-1,1.5-2.1,2-3.4c0.5-1.2,0.8-2.5,1.1-3.9l0,0c-0.2,1.4-0.4,2.7-0.3,4
				c0,1.3,0.3,2.6,0.7,3.8c0.2,0.6,0.5,1.2,0.9,1.8c0.2,0.3,0.4,0.6,0.6,0.8c0.2,0.3,0.4,0.5,0.7,0.8c0.5,0.5,1,1,1.6,1.4
				s1.3,0.8,2,1.1c2.3-2.2,3.4-4.9,3.5-7.5c0-1.3-0.2-2.6-0.6-3.9c-0.4-1.3-1-2.5-1.7-3.7l0,0c0.7,1.2,1.4,2.3,2.3,3.3
				s1.9,1.9,3,2.5s2.4,1.1,3.8,1.2c0.7,0.1,1.4,0.1,2.2,0c0.7-0.1,1.5-0.2,2.3-0.4c0.2-1.6,0.1-3.1-0.3-4.4
				c-0.2-0.7-0.4-1.3-0.8-1.9c-0.3-0.6-0.7-1.2-1.1-1.7c-0.8-1-1.8-1.9-3-2.6c-1.1-0.7-2.4-1.2-3.7-1.7l0,0c1.3,0.5,2.6,0.8,3.9,1
				s2.6,0.2,3.9-0.1c0.6-0.1,1.3-0.3,1.9-0.6s1.2-0.6,1.8-1c1.2-0.8,2.2-1.8,3.1-3.2c-0.9-1.3-1.9-2.4-3.1-3.2
				c-0.6-0.4-1.2-0.7-1.8-1c-0.6-0.3-1.3-0.4-1.9-0.6c-1.3-0.2-2.6-0.3-3.9-0.1s-2.6,0.6-3.9,1l0,0c1.3-0.5,2.5-1,3.7-1.7
				c1.1-0.7,2.1-1.5,3-2.6c0.4-0.5,0.8-1.1,1.1-1.7c0.3-0.6,0.6-1.2,0.8-1.9c0.4-1.4,0.5-2.8,0.3-4.4c-0.8-0.2-1.5-0.4-2.3-0.4
				c-0.7-0.1-1.5-0.1-2.2,0c-1.4,0.1-2.7,0.6-3.8,1.2c-1.1,0.6-2.2,1.5-3,2.5c-0.9,1-1.6,2.1-2.3,3.3l0,0c0.7-1.2,1.3-2.4,1.7-3.7
				c0.4-1.3,0.6-2.5,0.6-3.9c0-2.6-1.1-5.4-3.5-7.5c-0.7,0.3-1.4,0.7-2,1.1c-0.6,0.4-1.2,0.9-1.6,1.4c-0.2,0.3-0.5,0.5-0.7,0.8
				s-0.4,0.6-0.6,0.8c-0.4,0.6-0.6,1.2-0.9,1.8c-0.5,1.2-0.7,2.5-0.7,3.8s0.1,2.7,0.3,4l0,0c-0.2-1.4-0.6-2.7-1.1-3.9
				s-1.1-2.4-2-3.4c-1.7-2-4.3-3.4-7.5-3.6c-1.5,2.8-1.5,5.8-0.6,8.3s2.6,4.5,4.8,6.3l0,0c-2.1-1.8-4.4-3.2-7-3.6
				c-1.3-0.2-2.6-0.2-4,0.2c-1.3,0.3-2.7,1-4,1.9c0.3,1.5,1,2.9,1.8,4.1C56.1,569.4,57.1,570.3,58.3,570.9z M11.2,568.7
				c-0.5,0.7-0.9,1.5-1.1,2.4c0.7,0.6,1.6,0.9,2.3,1.1c0.8,0.2,1.6,0.2,2.3,0.1c1.5-0.3,2.8-1.1,4.1-2.1c-1.2,1-2.3,2.2-2.8,3.7
				c-0.5,1.4-0.5,3.2,0.4,4.8c1.9-0.1,3.4-0.9,4.4-2.1c0.5-0.6,0.9-1.2,1.2-2c0.3-0.7,0.5-1.5,0.6-2.3l0,0c-0.1,0.8-0.2,1.6-0.2,2.3
				c0,0.8,0.2,1.5,0.4,2.2c0.1,0.4,0.3,0.7,0.5,1c0.1,0.2,0.2,0.3,0.3,0.5c0.1,0.2,0.3,0.3,0.4,0.5c0.3,0.3,0.6,0.6,1,0.8
				s0.7,0.5,1.2,0.6c1.4-1.3,2-2.9,2-4.4c0-0.8-0.1-1.5-0.4-2.2c-0.2-0.7-0.6-1.4-1-2.1l0,0c0.4,0.7,0.8,1.3,1.4,1.9
				c0.5,0.6,1.1,1.1,1.8,1.4c0.7,0.4,1.4,0.6,2.2,0.7c0.4,0,0.8,0.1,1.3,0c0.4,0,0.9-0.1,1.3-0.3c0.1-0.9,0-1.8-0.2-2.6
				c-0.1-0.4-0.3-0.8-0.4-1.1c-0.2-0.3-0.4-0.7-0.6-1c-0.5-0.6-1.1-1.1-1.7-1.5c-0.7-0.4-1.4-0.7-2.1-1l0,0c0.8,0.3,1.5,0.5,2.3,0.6
				c0.8,0.1,1.5,0.1,2.3,0c0.4-0.1,0.7-0.2,1.1-0.3c0.4-0.1,0.7-0.3,1.1-0.6c0.7-0.5,1.3-1.1,1.8-1.8c-0.5-0.8-1.1-1.4-1.8-1.8
				c-0.3-0.2-0.7-0.4-1.1-0.6c-0.4-0.1-0.7-0.3-1.1-0.3c-0.8-0.1-1.5-0.1-2.3,0s-1.5,0.3-2.3,0.6l0,0c0.8-0.3,1.5-0.6,2.1-1
				c0.7-0.4,1.2-0.9,1.7-1.5c0.2-0.3,0.5-0.6,0.6-1c0.2-0.3,0.3-0.7,0.4-1.1c0.2-0.8,0.3-1.7,0.2-2.6c-0.4-0.1-0.9-0.2-1.3-0.3
				c-0.4,0-0.9,0-1.3,0c-0.8,0.1-1.6,0.3-2.2,0.7c-0.7,0.4-1.3,0.9-1.8,1.4c-0.5,0.6-1,1.2-1.4,1.9l0,0c0.4-0.7,0.8-1.4,1-2.1
				c0.2-0.7,0.4-1.5,0.4-2.2c0-1.5-0.7-3.1-2-4.4c-0.4,0.2-0.8,0.4-1.2,0.6c-0.4,0.3-0.7,0.5-1,0.8c-0.1,0.1-0.3,0.3-0.4,0.5
				s-0.2,0.3-0.3,0.5c-0.2,0.3-0.4,0.7-0.5,1c-0.3,0.7-0.4,1.5-0.4,2.2c0,0.8,0.1,1.6,0.2,2.3c-0.1-0.8-0.3-1.6-0.6-2.3
				c-0.3-0.7-0.7-1.4-1.2-2c-1-1.2-2.5-2-4.4-2.1c-0.8,1.7-0.9,3.4-0.4,4.8c0.5,1.5,1.5,2.6,2.8,3.7c-1.2-1-2.6-1.8-4.1-2.1
				c-0.8-0.1-1.5-0.1-2.3,0.1c-0.8,0.2-1.6,0.6-2.3,1.1c0.2,0.9,0.6,1.7,1.1,2.4s1.1,1.2,1.7,1.6c1.3,0.8,2.9,1,4.5,1
				c-1.6,0-3.1,0.2-4.5,1C12.2,567.5,11.7,568.1,11.2,568.7z"/>
		</g>
	</g>
	<path class="st4" d="M548,83.7L548,83.7c45.6,26.3,119.4,26.3,165,0L858,0H0v304.9L383.1,83.7C428.6,57.4,502.5,57.4,548,83.7z"/>
	<path class="st4" d="M694,102.5L694,102.5c7.9,4.6,20.7,4.6,28.6,0l9.4-5.4c7.9-4.6,7.9-11.9,0-16.5s-20.7-4.6-28.6,0L694,86
		C686.1,90.5,686.1,97.9,694,102.5z M249.5,270.6c7.9,4.6,20.7,4.6,28.6,0l47.3-27.3c7.9-4.6,7.9-11.9,0-16.5l0,0
		c-7.9-4.6-20.7-4.6-28.6,0l-47.3,27.3C241.6,258.7,241.6,266,249.5,270.6z M61.5,309.9c7.9,4.6,20.7,4.6,28.6,0l9.4-5.4
		c7.9-4.6,7.9-11.9,0-16.5l0,0c-7.9-4.6-20.7-4.6-28.6,0l-9.4,5.4C53.6,297.9,53.6,305.3,61.5,309.9z M874.2,64.5
		c-7.9-4.6-20.7-4.6-28.6,0L751.2,119c-7.9,4.6-7.9,11.9,0,16.5s20.7,4.6,28.6,0L874.2,81C882.1,76.4,882.1,69,874.2,64.5z
		 M856.1,141L856.1,141c-7.9-4.6-20.7-4.6-28.6,0l-100.4,58c-7.9,4.6-20.7,4.6-28.6,0l0,0c-7.9-4.6-7.9-11.9,0-16.5l29.7-17.2
		c7.9-4.6,7.9-11.9,0-16.5l0,0c-7.9-4.6-20.7-4.6-28.6,0l-141.2,81.6c-7.9,4.6-20.7,4.6-28.6,0l0,0c-7.9-4.6-7.9-11.9,0-16.5
		L671,132.3c7.9-4.6,7.9-11.9,0-16.5l0,0c-7.9-4.6-20.7-4.6-28.6,0L612.7,133c-7.9,4.6-20.7,4.6-28.6,0l0,0
		c-7.9-4.6-20.7-4.6-28.6,0L212,331.2c-7.9,4.6-7.9,11.9,0,16.5l0,0c7.9,4.6,7.9,11.9,0,16.5L70.8,445.8c-7.9,4.6-7.9,11.9,0,16.5
		l0,0c7.9,4.6,7.9,11.9,0,16.5L44.6,494c-7.9,4.6-7.9,11.9,0,16.5l0,0c7.9,4.6,20.7,4.6,28.6,0l84.5-48.8c7.9-4.6,20.7-4.6,28.6,0
		l0,0c7.9,4.6,7.9,11.9,0,16.5l-29.7,17.2c-7.9,4.6-7.9,11.9,0,16.5c7.9,4.6,20.7,4.6,28.6,0l141.2-81.6c7.9-4.6,20.7-4.6,28.6,0
		l0,0c7.9,4.6,7.9,11.9,0,16.5L304.4,476c-7.9,4.6-7.9,11.9,0,16.5s20.7,4.6,28.6,0l50.6-29.2c7.9-4.6,20.7-4.6,28.6,0l0,0
		c7.9,4.6,20.7,4.6,28.6,0l232-134c7.9-4.6,7.9-11.9,0-16.5s-7.9-11.9,0-16.5L814,214.8c7.9-4.6,7.9-11.9,0-16.5s-7.9-11.9,0-16.5
		l42.1-24.3C864,152.9,864,145.5,856.1,141z"/>
</g>
</svg>
