<?xml version="1.0" encoding="utf-8"?>
<!-- Generator: Adobe Illustrator 22.1.0, SVG Export Plug-In . SVG Version: 6.00 Build 0)  -->
<svg version="1.1" id="Layer_1" xmlns="http://www.w3.org/2000/svg" xmlns:xlink="http://www.w3.org/1999/xlink" x="0px" y="0px"
	 viewBox="0 0 260.7 211.3" style="enable-background:new 0 0 260.7 211.3;" xml:space="preserve">
<style type="text/css">
	.st0{fill:#FFFFFF;}
	.st1{fill:#F80578;}
	.st2{fill:#CF0287;}
	.st3{fill:url(#SVGID_1_);}
	.st4{fill:#FF3B69;}
	.st5{fill:url(#SVGID_2_);}
</style>
<g>
	<path class="st0" d="M176.7,66.5l-26.4-15.2l-20-11.6l-20,11.6L84,66.5v55.7l0,0l0,0.6l26.4,15.2l20,11.6l20-11.6l26.4-15.2l0-0.6
		l0,0V66.5z M130.3,126.5L103.7,111V78.3l26.7-15.4L157,78.3v32.8l0.2,0.1l0,0l-0.2-0.1v0.2v0V111L130.3,126.5z"/>
	<polygon class="st0" points="130.5,149.7 150.5,161.2 170.4,149.7 150.5,138.1 	"/>
</g>
<g>
	<polygon class="st1" points="103.7,110.1 84.1,121.3 103.7,132.6 	"/>
	<polygon class="st1" points="157,110.1 176.5,121.3 157,132.6 	"/>
	<g>
		<polygon class="st2" points="84,121.2 84.1,121.3 103.7,110.1 103.7,77.3 130.3,61.8 110.3,50.3 84,65.5 		"/>

			<linearGradient id="SVGID_1_" gradientUnits="userSpaceOnUse" x1="317.1544" y1="686.1624" x2="317.1544" y2="737.565" gradientTransform="matrix(-1 0 0 -1 470.6548 790.8409)">
			<stop  offset="0" style="stop-color:#FF5F35"/>
			<stop  offset="1" style="stop-color:#FB3159"/>
		</linearGradient>
		<polygon class="st3" points="157,77.3 157,110.1 176.5,121.3 176.7,121.2 176.7,65.5 150.3,50.3 130.3,61.8 		"/>
		<polygon class="st4" points="150.3,50.3 130.3,38.7 110.3,50.3 130.3,61.8 		"/>
		<polygon class="st1" points="150.3,50.3 130.3,38.7 110.3,50.3 130.3,61.8 		"/>
	</g>
</g>
<g>
	<g>
		<polygon class="st2" points="176.5,99 157,110.3 157,110 130.3,125.5 150.3,137 176.7,121.8 		"/>

			<linearGradient id="SVGID_2_" gradientUnits="userSpaceOnUse" x1="31.1542" y1="-420.5681" x2="31.1542" y2="-393.0424" gradientTransform="matrix(1 0 0 1 75.9998 528.4637)">
			<stop  offset="0" style="stop-color:#FF5F35"/>
			<stop  offset="1" style="stop-color:#FB3159"/>
		</linearGradient>
		<polygon class="st5" points="103.7,110 103.7,110.3 84.1,99 84,121.8 110.3,137 130.3,125.5 		"/>
		<polygon class="st4" points="110.3,137 130.3,148.6 150.3,137 130.3,125.5 		"/>
		<polygon class="st1" points="110.3,137 130.3,148.6 150.3,137 130.3,125.5 		"/>
		<polygon class="st2" points="130.5,148.7 150.5,160.2 170.4,148.7 150.5,137.1 		"/>
	</g>
</g>
</svg>
