<?xml version="1.0" encoding="utf-8"?>
<!-- Generator: Adobe Illustrator 22.1.0, SVG Export Plug-In . SVG Version: 6.00 Build 0)  -->
<svg version="1.1" id="Layer_1" xmlns="http://www.w3.org/2000/svg" xmlns:xlink="http://www.w3.org/1999/xlink" x="0px" y="0px"
	 viewBox="0 0 1200 1200" style="enable-background:new 0 0 1200 1200;" xml:space="preserve">
<style type="text/css">
	.st0{fill-rule:evenodd;clip-rule:evenodd;fill:#42228F;}
	.st1{fill-rule:evenodd;clip-rule:evenodd;fill:#F14FA2;}
	.st2{fill-rule:evenodd;clip-rule:evenodd;fill:#39B0B8;}
	.st3{fill-rule:evenodd;clip-rule:evenodd;fill:#FBE38B;}
	.st4{fill-rule:evenodd;clip-rule:evenodd;fill:#FB515A;}
	.st5{fill-rule:evenodd;clip-rule:evenodd;fill:#391B7D;}
</style>
<polygon class="st0" points="1200,0 812,0 0,0 0,1200 1200,1200 "/>
<path class="st1" d="M866.6,932.7c-56.4,0-102.1,45.7-102.1,102.1c0,56.4,45.7,102.1,102.1,102.1c56.4,0,102.1-45.7,102.1-102.1
	C968.7,978.4,923,932.7,866.6,932.7 M866.6,925.2c-60.5,0-109.6,49.1-109.6,109.6c0,60.5,49.1,109.6,109.6,109.6
	c60.5,0,109.6-49.1,109.6-109.6C976.2,974.3,927.1,925.2,866.6,925.2z"/>
<path class="st2" d="M997.7,479h-10.6v10.6h10.6V479z M997.7,500.6h-10.6v10.6h10.6V500.6z M997.7,522.2h-10.6v10.6h10.6V522.2z
	 M975.3,457.4h-10.6v10.6h10.6V457.4z M975.3,479h-10.6v10.6h10.6V479z M975.3,500.6h-10.6v10.6h10.6V500.6z M975.3,522.2h-10.6
	v10.6h10.6V522.2z M952.9,457.4h-10.6v10.6h10.6V457.4z M952.9,479h-10.6v10.6h10.6V479z M952.9,500.6h-10.6v10.6h10.6V500.6z
	 M952.9,522.2h-10.6v10.6h10.6V522.2z M930.4,457.4h-10.6v10.6h10.6V457.4z M930.4,479h-10.6v10.6h10.6V479z M930.4,500.6h-10.6
	v10.6h10.6V500.6z M930.4,522.2h-10.6v10.6h10.6V522.2z M997.7,457.4h-10.6v10.6h10.6V457.4z"/>
<rect x="868.7" y="125.3" class="st1" width="220.1" height="46.9"/>
<path class="st3" d="M1064.1,150.6c0,4.4,3.5,7.9,7.9,7.9c4.4,0,7.9-3.5,7.9-7.9c0-4.4-3.5-7.9-7.9-7.9
	C1067.6,142.7,1064.1,146.2,1064.1,150.6 M1098,150.6c0,4.4,3.5,7.9,7.9,7.9c4.4,0,7.9-3.5,7.9-7.9c0-4.4-3.5-7.9-7.9-7.9
	C1101.6,142.7,1098,146.2,1098,150.6z M1132,150.6c0,4.4,3.5,7.9,7.9,7.9c4.4,0,7.9-3.5,7.9-7.9c0-4.4-3.5-7.9-7.9-7.9
	C1135.6,142.7,1132,146.2,1132,150.6z M1030.1,150.6c0,4.4,3.5,7.9,7.9,7.9c4.4,0,7.9-3.5,7.9-7.9c0-4.4-3.5-7.9-7.9-7.9
	C1033.6,142.7,1030.1,146.2,1030.1,150.6z"/>
<path class="st4" d="M291.9,1086.7h-19v19h19V1086.7z M291.9,1125.5h-19v19h19V1125.5z M291.9,1164.2h-19v19h19V1164.2z
	 M251.6,1047.9h-19v19h19V1047.9z M251.6,1086.7h-19v19h19V1086.7z M251.6,1125.5h-19v19h19V1125.5z M251.6,1164.2h-19v19h19V1164.2
	z M211.3,1047.9h-19v19h19V1047.9z M211.3,1086.7h-19v19h19V1086.7z M211.3,1125.5h-19v19h19V1125.5z M211.3,1164.2h-19v19h19
	V1164.2z M171,1047.9h-19v19h19V1047.9z M171,1086.7h-19v19h19V1086.7z M171,1125.5h-19v19h19V1125.5z M171,1164.2h-19v19h19V1164.2
	z M291.9,1047.9h-19v19h19V1047.9z"/>
<path class="st4" d="M192.4,799c-5.7,0-10.3,4.6-10.3,10.3c0,5.7,4.6,10.3,10.3,10.3c5.7,0,10.3-4.6,10.3-10.3
	C202.7,803.6,198.1,799,192.4,799"/>
<path class="st4" d="M290.4,195c-5.7,0-10.3,4.6-10.3,10.3c0,5.7,4.6,10.3,10.3,10.3c5.7,0,10.3-4.6,10.3-10.3
	C300.7,199.6,296.1,195,290.4,195"/>
<path class="st4" d="M244.4,195c-5.7,0-10.3,4.6-10.3,10.3c0,5.7,4.6,10.3,10.3,10.3c5.7,0,10.3-4.6,10.3-10.3
	C254.7,199.6,250.1,195,244.4,195"/>
<path class="st4" d="M198.4,195c-5.7,0-10.3,4.6-10.3,10.3c0,5.7,4.6,10.3,10.3,10.3c5.7,0,10.3-4.6,10.3-10.3
	C208.7,199.6,204.1,195,198.4,195"/>
<path class="st4" d="M152.4,195c-5.7,0-10.3,4.6-10.3,10.3c0,5.7,4.6,10.3,10.3,10.3c5.7,0,10.3-4.6,10.3-10.3
	C162.7,199.6,158.1,195,152.4,195"/>
<path class="st4" d="M106.4,195c-5.7,0-10.3,4.6-10.3,10.3c0,5.7,4.6,10.3,10.3,10.3c5.7,0,10.3-4.6,10.3-10.3
	C116.7,199.6,112.1,195,106.4,195"/>
<path class="st2" d="M840.2,274.2c-2.2,0-4,1.8-4,4c0,2.2,1.8,4,4,4c2.2,0,4-1.8,4-4C844.2,275.9,842.4,274.2,840.2,274.2"/>
<path class="st2" d="M853.9,290.5c-2.2,0-4,1.8-4,4c0,2.2,1.8,4,4,4c2.2,0,4-1.8,4-4C857.9,292.3,856.1,290.5,853.9,290.5"/>
<path class="st2" d="M867.6,306.9c-2.2,0-4,1.8-4,4c0,2.2,1.8,4,4,4s4-1.8,4-4C871.6,308.7,869.8,306.9,867.6,306.9"/>
<path class="st2" d="M881.3,323.3c-2.2,0-4,1.8-4,4s1.8,4,4,4c2.2,0,4-1.8,4-4S883.5,323.3,881.3,323.3"/>
<path class="st2" d="M894.9,339.6c-2.2,0-4,1.8-4,4c0,2.2,1.8,4,4,4c2.2,0,4-1.8,4-4C898.9,341.4,897.1,339.6,894.9,339.6"/>
<path class="st2" d="M908.6,356c-2.2,0-4,1.8-4,4s1.8,4,4,4c2.2,0,4-1.8,4-4S910.8,356,908.6,356"/>
<path class="st2" d="M922.3,372.4c-2.2,0-4,1.8-4,4c0,2.2,1.8,4,4,4c2.2,0,4-1.8,4-4C926.3,374.1,924.5,372.4,922.3,372.4"/>
<path class="st1" d="M983.1,603.4c-55.6,0-100.7,44.5-101.8,99.8h203.6C1083.8,647.9,1038.7,603.4,983.1,603.4"/>
<path class="st2" d="M28.7,784c-4.1,0-7.5,3.3-7.5,7.5c0,4.1,3.3,7.5,7.5,7.5c4.1,0,7.5-3.3,7.5-7.5C36.1,787.3,32.8,784,28.7,784"
	/>
<path class="st2" d="M54.3,814.6c-4.1,0-7.5,3.3-7.5,7.5c0,4.1,3.3,7.5,7.5,7.5c4.1,0,7.5-3.3,7.5-7.5
	C61.8,818,58.4,814.6,54.3,814.6"/>
<path class="st2" d="M79.9,845.3c-4.1,0-7.5,3.3-7.5,7.5c0,4.1,3.3,7.5,7.5,7.5c4.1,0,7.5-3.3,7.5-7.5
	C87.4,848.6,84.1,845.3,79.9,845.3"/>
<path class="st2" d="M105.6,876c-4.1,0-7.5,3.3-7.5,7.5c0,4.1,3.3,7.5,7.5,7.5c4.1,0,7.5-3.3,7.5-7.5C113,879.3,109.7,876,105.6,876
	"/>
<path class="st2" d="M131.2,906.6c-4.1,0-7.5,3.3-7.5,7.5c0,4.1,3.3,7.5,7.5,7.5c4.1,0,7.5-3.3,7.5-7.5
	C138.7,910,135.3,906.6,131.2,906.6"/>
<path class="st2" d="M156.9,937.3c-4.1,0-7.5,3.3-7.5,7.5c0,4.1,3.3,7.5,7.5,7.5c4.1,0,7.5-3.3,7.5-7.5
	C164.3,940.7,161,937.3,156.9,937.3"/>
<path class="st2" d="M182.5,968c-4.1,0-7.5,3.3-7.5,7.5c0,4.1,3.3,7.5,7.5,7.5c4.1,0,7.5-3.3,7.5-7.5C190,971.3,186.6,968,182.5,968
	"/>
<path class="st2" d="M980.7,886.9c-4.1,0-7.5,3.3-7.5,7.5c0,4.1,3.3,7.5,7.5,7.5c4.1,0,7.5-3.3,7.5-7.5
	C988.1,890.3,984.8,886.9,980.7,886.9"/>
<path class="st2" d="M1006.3,917.6c-4.1,0-7.5,3.3-7.5,7.5c0,4.1,3.3,7.5,7.5,7.5c4.1,0,7.5-3.3,7.5-7.5
	C1013.8,921,1010.4,917.6,1006.3,917.6"/>
<path class="st2" d="M1031.9,948.3c-4.1,0-7.5,3.3-7.5,7.5c0,4.1,3.3,7.5,7.5,7.5c4.1,0,7.5-3.3,7.5-7.5
	C1039.4,951.6,1036.1,948.3,1031.9,948.3"/>
<path class="st2" d="M1057.6,979c-4.1,0-7.5,3.3-7.5,7.5c0,4.1,3.3,7.5,7.5,7.5c4.1,0,7.5-3.3,7.5-7.5
	C1065,982.3,1061.7,979,1057.6,979"/>
<path class="st2" d="M1083.2,1009.6c-4.1,0-7.5,3.3-7.5,7.5c0,4.1,3.3,7.5,7.5,7.5c4.1,0,7.5-3.3,7.5-7.5
	C1090.7,1013,1087.3,1009.6,1083.2,1009.6"/>
<path class="st2" d="M1108.9,1040.3c-4.1,0-7.5,3.3-7.5,7.5c0,4.1,3.3,7.5,7.5,7.5s7.5-3.3,7.5-7.5
	C1116.3,1043.6,1113,1040.3,1108.9,1040.3"/>
<path class="st2" d="M1134.5,1071c-4.1,0-7.5,3.3-7.5,7.5c0,4.1,3.3,7.5,7.5,7.5c4.1,0,7.5-3.3,7.5-7.5
	C1142,1074.3,1138.6,1071,1134.5,1071"/>
<path class="st3" d="M540.3,254.6h-8.1v8.1h8.1V254.6z M540.3,271.1h-8.1v8.1h8.1V271.1z M540.3,287.7h-8.1v8.1h8.1V287.7z
	 M523.1,238H515v8.1h8.1V238z M523.1,254.6H515v8.1h8.1V254.6z M523.1,271.1H515v8.1h8.1V271.1z M523.1,287.7H515v8.1h8.1V287.7z
	 M505.9,238h-8.1v8.1h8.1V238z M505.9,254.6h-8.1v8.1h8.1V254.6z M505.9,271.1h-8.1v8.1h8.1V271.1z M505.9,287.7h-8.1v8.1h8.1V287.7
	z M488.7,238h-8.1v8.1h8.1V238z M488.7,254.6h-8.1v8.1h8.1V254.6z M488.7,271.1h-8.1v8.1h8.1V271.1z M488.7,287.7h-8.1v8.1h8.1
	V287.7z M540.3,238h-8.1v8.1h8.1V238z"/>
<path class="st3" d="M328.6,636.4c-4.4,0-7.9,3.5-7.9,7.9c0,4.4,3.5,7.9,7.9,7.9c4.4,0,7.9-3.5,7.9-7.9
	C336.5,640,333,636.4,328.6,636.4 M328.6,670.4c-4.4,0-7.9,3.5-7.9,7.9c0,4.4,3.5,7.9,7.9,7.9c4.4,0,7.9-3.5,7.9-7.9
	C336.5,673.9,333,670.4,328.6,670.4z M328.6,704.4c-4.4,0-7.9,3.5-7.9,7.9c0,4.4,3.5,7.9,7.9,7.9c4.4,0,7.9-3.5,7.9-7.9
	C336.5,707.9,333,704.4,328.6,704.4z M328.6,602.4c-4.4,0-7.9,3.5-7.9,7.9c0,4.4,3.5,7.9,7.9,7.9c4.4,0,7.9-3.5,7.9-7.9
	C336.5,606,333,602.4,328.6,602.4z"/>
<path class="st1" d="M1076,1143.4c-3.3,0-5.9,2.7-5.9,5.9s2.7,5.9,5.9,5.9c3.3,0,5.9-2.7,5.9-5.9S1079.2,1143.4,1076,1143.4"/>
<path class="st1" d="M987,1176c-3.3,0-5.9,2.7-5.9,5.9c0,3.3,2.7,5.9,5.9,5.9s5.9-2.7,5.9-5.9C992.9,1178.6,990.3,1176,987,1176"/>
<path class="st1" d="M139.4,517.9C139.4,438.4,78,373.3,0,367.3v301.2C78,662.6,139.4,597.4,139.4,517.9"/>
<path class="st2" d="M506.1,42.5c-4.1,0-7.5,3.3-7.5,7.5c0,4.1,3.3,7.5,7.5,7.5c4.1,0,7.5-3.3,7.5-7.5
	C513.6,45.8,510.2,42.5,506.1,42.5"/>
<path class="st2" d="M531.7,73.1c-4.1,0-7.5,3.3-7.5,7.5c0,4.1,3.3,7.5,7.5,7.5c4.1,0,7.5-3.3,7.5-7.5
	C539.2,76.5,535.9,73.1,531.7,73.1"/>
<path class="st2" d="M557.4,103.8c-4.1,0-7.5,3.3-7.5,7.5c0,4.1,3.3,7.5,7.5,7.5c4.1,0,7.5-3.3,7.5-7.5
	C564.8,107.1,561.5,103.8,557.4,103.8"/>
<path class="st2" d="M583,134.4c-4.1,0-7.5,3.3-7.5,7.5c0,4.1,3.3,7.5,7.5,7.5c4.1,0,7.5-3.3,7.5-7.5
	C590.5,137.8,587.2,134.4,583,134.4"/>
<path class="st2" d="M608.7,165.1c-4.1,0-7.5,3.3-7.5,7.5c0,4.1,3.3,7.5,7.5,7.5c4.1,0,7.5-3.3,7.5-7.5
	C616.1,168.5,612.8,165.1,608.7,165.1"/>
<path class="st2" d="M634.3,195.8c-4.1,0-7.5,3.3-7.5,7.5c0,4.1,3.3,7.5,7.5,7.5c4.1,0,7.5-3.3,7.5-7.5
	C641.8,199.1,638.4,195.8,634.3,195.8"/>
<path class="st2" d="M660,226.4c-4.1,0-7.5,3.3-7.5,7.5c0,4.1,3.3,7.5,7.5,7.5c4.1,0,7.5-3.3,7.5-7.5
	C667.4,229.8,664.1,226.4,660,226.4"/>
<path class="st2" d="M192.9,348.5c-1.9,0-3.4,1.5-3.4,3.4c0,1.9,1.5,3.4,3.4,3.4c1.9,0,3.4-1.5,3.4-3.4
	C196.2,350,194.7,348.5,192.9,348.5"/>
<path class="st2" d="M204.5,362.3c-1.9,0-3.4,1.5-3.4,3.4c0,1.9,1.5,3.4,3.4,3.4c1.9,0,3.4-1.5,3.4-3.4
	C207.8,363.8,206.3,362.3,204.5,362.3"/>
<path class="st2" d="M216.1,376.2c-1.9,0-3.4,1.5-3.4,3.4c0,1.9,1.5,3.4,3.4,3.4c1.9,0,3.4-1.5,3.4-3.4
	C219.4,377.7,217.9,376.2,216.1,376.2"/>
<path class="st2" d="M227.6,390c-1.9,0-3.4,1.5-3.4,3.4c0,1.9,1.5,3.4,3.4,3.4c1.9,0,3.4-1.5,3.4-3.4C231,391.5,229.5,390,227.6,390
	"/>
<path class="st2" d="M239.2,403.9c-1.9,0-3.4,1.5-3.4,3.4c0,1.9,1.5,3.4,3.4,3.4c1.9,0,3.4-1.5,3.4-3.4
	C242.6,405.4,241.1,403.9,239.2,403.9"/>
<path class="st2" d="M250.8,417.7c-1.9,0-3.4,1.5-3.4,3.4c0,1.9,1.5,3.4,3.4,3.4c1.9,0,3.4-1.5,3.4-3.4
	C254.2,419.3,252.7,417.7,250.8,417.7"/>
<path class="st2" d="M262.4,431.6c-1.9,0-3.4,1.5-3.4,3.4c0,1.9,1.5,3.4,3.4,3.4c1.9,0,3.4-1.5,3.4-3.4
	C265.8,433.1,264.3,431.6,262.4,431.6"/>
<path class="st5" d="M694.2,964.2H658v36.2h36.2V964.2z M694.2,1038.2H658v36.2h36.2V1038.2z M694.2,1112.2H658v36.2h36.2V1112.2z
	 M617.3,890.2h-36.2v36.2h36.2V890.2z M617.3,964.2h-36.2v36.2h36.2V964.2z M617.3,1038.2h-36.2v36.2h36.2V1038.2z M617.3,1112.2
	h-36.2v36.2h36.2V1112.2z M540.4,890.2h-36.2v36.2h36.2V890.2z M540.4,964.2h-36.2v36.2h36.2V964.2z M540.4,1038.2h-36.2v36.2h36.2
	V1038.2z M540.4,1112.2h-36.2v36.2h36.2V1112.2z M463.5,890.2h-36.2v36.2h36.2V890.2z M463.5,964.2h-36.2v36.2h36.2V964.2z
	 M463.5,1038.2h-36.2v36.2h36.2V1038.2z M463.5,1112.2h-36.2v36.2h36.2V1112.2z M694.2,890.2H658v36.2h36.2V890.2z"/>
</svg>
