<?xml version="1.0" encoding="utf-8"?>
<!-- Generator: Adobe Illustrator 22.1.0, SVG Export Plug-In . SVG Version: 6.00 Build 0)  -->
<svg version="1.1" id="Layer_1" xmlns="http://www.w3.org/2000/svg" xmlns:xlink="http://www.w3.org/1999/xlink" x="0px" y="0px"
	 viewBox="0 0 17.2 12.9" style="enable-background:new 0 0 17.2 12.9;" xml:space="preserve">
<style type="text/css">
	.st0{fill:#404040;}
	.st1{fill:#FFFFFF;}
	.st2{fill:#EC526D;}
</style>
<g>
	<g>
		<g>
			<path class="st0" d="M3.5,11.2L3,10.6C1.8,9.5,2.2,8.8,2.6,8.5C3,8,3.5,8,4.3,8.5L4.1,8.7C3.5,8.3,3.1,8.3,2.7,8.6
				C2.1,9.2,2.6,10,3.1,10.5L3.7,11L3.5,11.2z"/>
		</g>
	</g>
	<g>
		<g>
			<path class="st0" d="M4,11.6c0.2-0.2,0.2-0.6,0-0.9c-0.2-0.2-0.6-0.2-0.9,0c-0.2,0.2-0.2,0.6,0,0.9C3.4,11.8,3.8,11.8,4,11.6z"/>
		</g>
	</g>
	<g>
		<g>
			<path class="st1" d="M7,10.5c0.8-0.8,0.8-2,0-2.8C6.3,7,5,7,4.2,7.7C3.5,8.5,6.3,11.3,7,10.5z"/>
		</g>
	</g>
	<g>
		<g>
			<path class="st1" d="M11,10.5c-0.8-0.8-0.8-2,0-2.8c0.8-0.8,2-0.8,2.8,0C14.6,8.5,11.8,11.3,11,10.5z"/>
		</g>
	</g>
	<g>
		<g>
			<rect x="5.7" y="4.4" transform="matrix(0.7068 -0.7074 0.7074 0.7068 -0.2313 8.5448)" class="st2" width="9" height="0.4"/>
		</g>
	</g>
	<g>
		<g>
			<rect x="3.5" y="10.1" transform="matrix(0.7071 -0.7071 0.7071 0.7071 -6.0033 6.1505)" class="st0" width="1.8" height="0.5"/>
		</g>
	</g>
	<g>
		<g>
			<rect x="7.7" y="0.1" transform="matrix(0.7071 -0.7071 0.7071 0.7071 -0.9108 6.9043)" class="st2" width="0.4" height="9"/>
		</g>
	</g>
	<g>
		<g>
			
				<rect x="13.4" y="9.4" transform="matrix(0.7072 -0.7071 0.7071 0.7072 -3.3012 12.6729)" class="st0" width="0.5" height="1.8"/>
		</g>
	</g>
	<g>
		<g>
			<path class="st0" d="M14.6,11.2L14.4,11l0.5-0.5c0.4-0.4,0.6-0.7,0.7-1c0.1-0.3,0-0.6-0.2-0.8c-0.3-0.3-0.8-0.3-1.4,0.1l-0.1-0.2
				c0.7-0.4,1.3-0.5,1.7,0c0.3,0.3,0.4,0.6,0.3,1c-0.1,0.4-0.3,0.7-0.7,1.2L14.6,11.2z"/>
		</g>
	</g>
	<g>
		<g>
			<path class="st0" d="M14,11.6c-0.2-0.2-0.2-0.6,0-0.9c0.2-0.2,0.6-0.2,0.9,0c0.2,0.2,0.2,0.6,0,0.9C14.6,11.8,14.3,11.8,14,11.6z
				"/>
		</g>
	</g>
	<g>
		<g>
			<path class="st2" d="M6.6,7.4c-0.5,0-1,0.2-1.3,0.6c-0.5,0.5,0.6,2,1.6,2.6c0.1,0,0.1-0.1,0.1-0.1c0.8-0.8,0.8-2,0-2.8
				C6.9,7.6,6.8,7.5,6.6,7.4z"/>
		</g>
	</g>
	<g>
		<g>
			<path class="st2" d="M13.4,7.4c-0.5,0-1,0.2-1.3,0.6c-0.7,0.7-0.8,1.8-0.2,2.5c1.1-0.5,2.5-2.2,2-2.8C13.7,7.6,13.6,7.5,13.4,7.4
				z"/>
		</g>
	</g>
	<g>
		<g>
			<path class="st0" d="M6.7,10.9c-0.1,0-0.2,0-0.3,0c-0.9-0.2-2.2-1.5-2.5-2.5c-0.1-0.4,0-0.7,0.2-0.8c0.4-0.4,1-0.6,1.6-0.6
				c0.6,0,1.1,0.2,1.6,0.6c0.4,0.4,0.6,1,0.6,1.6c0,0.6-0.2,1.1-0.6,1.6h0C7.1,10.8,6.9,10.9,6.7,10.9z M5.6,7.4
				c-0.5,0-0.9,0.2-1.2,0.5C4.3,8,4.3,8.1,4.4,8.3c0.2,0.7,1.4,1.9,2.1,2.1c0.2,0,0.3,0,0.4,0h0C7.2,10,7.4,9.6,7.4,9.1
				c0-0.5-0.2-0.9-0.5-1.2C6.5,7.6,6.1,7.4,5.6,7.4z"/>
		</g>
	</g>
	<g>
		<g>
			<path class="st0" d="M11.4,10.9c-0.3,0-0.4-0.1-0.5-0.2l0,0c-0.4-0.4-0.6-1-0.6-1.6c0-0.6,0.2-1.1,0.6-1.6c0.9-0.9,2.3-0.9,3.1,0
				c0.1,0.1,0.3,0.4,0.2,0.8c-0.2,0.9-1.5,2.2-2.5,2.5C11.6,10.9,11.5,10.9,11.4,10.9z M12.4,7.4c-0.4,0-0.9,0.2-1.2,0.5
				c-0.3,0.3-0.5,0.8-0.5,1.2c0,0.5,0.2,0.9,0.5,1.2l0,0c0.1,0.1,0.2,0.1,0.4,0c0.7-0.2,1.9-1.4,2.1-2.1c0-0.2,0-0.3,0-0.4
				C13.3,7.6,12.9,7.4,12.4,7.4z"/>
		</g>
	</g>
</g>
</svg>
