<?xml version="1.0" encoding="utf-8"?>
<!-- Generator: Adobe Illustrator 22.1.0, SVG Export Plug-In . SVG Version: 6.00 Build 0)  -->
<svg version="1.1" id="Layer_1" xmlns="http://www.w3.org/2000/svg" xmlns:xlink="http://www.w3.org/1999/xlink" x="0px" y="0px"
	 viewBox="0 0 18.3 13.1" style="enable-background:new 0 0 18.3 13.1;" xml:space="preserve">
<style type="text/css">
	.st0{fill:#FFFFFF;}
	.st1{fill:#946290;}
	.st2{fill:#4B89C6;}
	.st3{fill:#404040;}
</style>
<g>
	<g>
		<path class="st0" d="M8.8,10.6c0,0,0.8-1.2,3.2-1.2c2.4,0,3.3,1.2,3.3,1.2V4.2c0,0-0.9-1.2-3.3-1.2c-2.4,0-3.2,1.2-3.2,1.2H8.7
			c0,0-0.8-1.2-3.2-1.2c-2.4,0-3.3,1.2-3.3,1.2v6.3c0,0,0.9-1.2,3.3-1.2C7.9,9.4,8.7,10.6,8.8,10.6L8.8,10.6z"/>
	</g>
	<g>
		<path class="st1" d="M5.8,4.7c-1.6,0-2.1,0.5-2.1,0.5v4.5l0.8-0.3l1.7-0.1l1.4,0.3l1.1,0.7l0.2,0.3V5.7C8.8,5.7,7.7,4.7,5.8,4.7z"
			/>
	</g>
	<g>
		<path class="st2" d="M12.1,4.7c-2.4,0-3.3,1.2-3.3,1.2v4.7C9,10.3,9.9,9.4,12,9.4c2.4,0,3.3,1.2,3.3,1.2V5.9
			C15.1,5.6,14.1,4.7,12.1,4.7z"/>
	</g>
	<g>
		<g>
			<path class="st3" d="M8.8,10.9L8.8,10.9c-0.2,0-0.2,0-0.3-0.1c0,0-0.8-1.1-3-1.1c-2.2,0-3.1,1.1-3.1,1.1
				c-0.1,0.1-0.2,0.1-0.3,0.1c-0.1,0-0.2-0.1-0.2-0.2V4.2c0-0.1,0-0.1,0.1-0.1c0-0.1,1-1.2,3.4-1.2c1.9,0,2.9,0.8,3.2,1.1
				c0.4-0.4,1.3-1.1,3.2-1.1c2.4,0,3.4,1.2,3.4,1.3c0,0,0.1,0.1,0.1,0.1v6.3c0,0.1-0.1,0.2-0.2,0.2c-0.1,0-0.2,0-0.3-0.1
				c0,0-0.9-1.1-3.1-1.1c-2.2,0-3,1.1-3,1.1C9,10.8,8.9,10.9,8.8,10.9z M5.5,9.1c1.9,0,2.9,0.8,3.2,1.1c0.3-0.4,1.3-1.1,3.2-1.1
				c1.6,0,2.5,0.5,3,0.9V4.3c-0.2-0.2-1.1-1-3-1c-2.2,0-3,1.1-3,1.1c0,0.1-0.1,0.1-0.2,0.1H8.7c-0.1,0-0.2,0-0.2-0.1
				c0,0-0.8-1.1-3-1.1c-1.9,0-2.8,0.8-3,1V10C3,9.6,4,9.1,5.5,9.1z"/>
		</g>
	</g>
	<g>
		<g>
			<rect x="8.5" y="4.3" class="st3" width="0.5" height="6.3"/>
		</g>
	</g>
	<g>
		<g>
			<path class="st0" d="M9.3,6.9C9.3,6.9,9.3,6.9,9.3,6.9C9.2,6.8,9.2,6.7,9.3,6.7c0.5-0.3,1.4-0.8,2.7-0.8c1.2,0,2.1,0.3,2.6,0.6
				c0.1,0,0.1,0.1,0,0.2c0,0.1-0.1,0.1-0.2,0C14,6.5,13.2,6.2,12,6.2C10.7,6.2,9.9,6.5,9.3,6.9C9.4,6.9,9.4,6.9,9.3,6.9z"/>
		</g>
	</g>
	<g>
		<g>
			<path class="st0" d="M9.2,8C9.2,8,9.1,8,9.2,8C9.1,7.9,9.1,7.8,9.1,7.8C9.7,7.4,10.6,7,12,7c1.3,0,2.2,0.3,2.7,0.6
				c0.1,0,0.1,0.1,0,0.2c0,0.1-0.1,0.1-0.2,0c-0.5-0.3-1.3-0.6-2.6-0.6C10.6,7.3,9.8,7.7,9.2,8C9.3,8,9.2,8,9.2,8z"/>
		</g>
	</g>
	<g>
		<g>
			<path class="st0" d="M9.3,9.1C9.3,9.1,9.3,9.1,9.3,9.1C9.2,9,9.2,9,9.3,8.9c0.5-0.3,1.4-0.8,2.7-0.8c1.2,0,2.1,0.3,2.6,0.6
				c0.1,0,0.1,0.1,0,0.2c0,0.1-0.1,0.1-0.2,0C14,8.7,13.2,8.4,12,8.4C10.7,8.4,9.9,8.8,9.3,9.1C9.4,9.1,9.4,9.1,9.3,9.1z"/>
		</g>
	</g>
	<g>
		<g>
			<path class="st0" d="M2.9,6.9C2.8,6.9,2.8,6.9,2.9,6.9C2.7,6.8,2.7,6.7,2.8,6.7c0.5-0.3,1.4-0.8,2.7-0.8c1.2,0,2.1,0.3,2.6,0.6
				c0.1,0,0.1,0.1,0,0.2c0,0.1-0.1,0.1-0.2,0C7.5,6.5,6.7,6.2,5.5,6.2C4.2,6.2,3.4,6.5,2.9,6.9C2.9,6.9,2.9,6.9,2.9,6.9z"/>
		</g>
	</g>
	<g>
		<g>
			<path class="st0" d="M2.9,8C2.8,8,2.8,8,2.9,8C2.7,7.9,2.7,7.8,2.8,7.8C3.3,7.4,4.2,7,5.5,7c1.2,0,2.1,0.3,2.6,0.6
				c0.1,0,0.1,0.1,0,0.2c0,0.1-0.1,0.1-0.2,0C7.5,7.6,6.7,7.3,5.5,7.3C4.2,7.3,3.4,7.7,2.9,8C2.9,8,2.9,8,2.9,8z"/>
		</g>
	</g>
	<g>
		<g>
			<path class="st0" d="M2.9,9.1C2.8,9.1,2.8,9.1,2.9,9.1C2.7,9,2.7,9,2.8,8.9c0.5-0.3,1.4-0.8,2.7-0.8c1.2,0,2.1,0.3,2.6,0.6
				c0.1,0,0.1,0.1,0,0.2C8.1,9,8.1,9,8,9C7.5,8.7,6.7,8.4,5.5,8.4C4.2,8.4,3.4,8.8,2.9,9.1C2.9,9.1,2.9,9.1,2.9,9.1z"/>
		</g>
	</g>
</g>
</svg>
