<?xml version="1.0" encoding="utf-8"?>
<!-- Generator: Adobe Illustrator 22.1.0, SVG Export Plug-In . SVG Version: 6.00 Build 0)  -->
<svg version="1.1" id="Layer_1" xmlns="http://www.w3.org/2000/svg" xmlns:xlink="http://www.w3.org/1999/xlink" x="0px" y="0px"
	 viewBox="0 0 12.2 18.9" style="enable-background:new 0 0 12.2 18.9;" xml:space="preserve">
<style type="text/css">
	.st0{fill:#FFFFFF;}
	.st1{fill:#EC526D;}
	.st2{fill:#FFE8F1;}
	.st3{fill:#404040;}
</style>
<g>
	<rect x="2.6" y="9.1" class="st0" width="7.5" height="1.7"/>
	<path class="st0" d="M5.3,3.6c0-0.5,0.4-1,1-1c0.5,0,1,0.4,1,1c0,0.5-0.4,1-1,1C5.8,4.6,5.3,4.2,5.3,3.6z"/>
	<path class="st1" d="M5.4,13.7c0-0.5,0.4-1,1-1c0.5,0,1,0.4,1,1c0,0.5-0.4,1-1,1C5.8,14.7,5.4,14.2,5.4,13.7z"/>
	<polygon class="st1" points="6.4,5 9.7,9.3 3.1,9.3 	"/>
	<polygon class="st0" points="3,13.8 5.2,13.9 5.6,14.4 6.3,14.9 6.9,14.7 7.4,14.4 7.6,13.9 9.7,13.9 8.7,15.9 7,17.2 5.6,17.2 
		4.1,16.1 	"/>
	<polygon class="st2" points="3.4,10.9 3.5,13.7 5.2,13.7 5.4,13.1 6.2,12.7 7,12.8 7.6,13.7 9.2,13.7 9.3,12.9 9.3,10.8 	"/>
	<g>
		<path class="st3" d="M10.1,8.9H9.7L6.7,4.8c0.5-0.1,0.9-0.6,0.9-1.2C7.6,3,7,2.4,6.4,2.4S5.2,3,5.2,3.6c0,0.6,0.4,1,0.9,1.2L3,8.9
			H2.7c-0.1,0-0.2,0.1-0.2,0.2v1.7c0,0.1,0.1,0.2,0.2,0.2h0.5v1.7c0,0.2,0,0.5,0.1,0.7H3.1c-0.1,0-0.2,0.1-0.2,0.2
			c0,0.9,1.6,3.7,3.6,3.7c2,0,3.6-2.8,3.6-3.7c0-0.1-0.1-0.2-0.2-0.2H9.5c0-0.2,0.1-0.5,0.1-0.7v-1.7h0.5c0.1,0,0.2-0.1,0.2-0.2V9.2
			C10.3,9.1,10.2,8.9,10.1,8.9z M5.5,3.6c0-0.5,0.4-0.9,0.9-0.9c0.5,0,0.9,0.4,0.9,0.9c0,0.5-0.4,0.9-0.9,0.9
			C5.9,4.5,5.5,4.1,5.5,3.6z M6.4,5.2l2.8,3.8H3.6L6.4,5.2z M6.4,17c-1.5,0-2.8-2.1-3-3h1.8C5.2,14.6,5.7,15,6.4,15
			C7,15,7.5,14.6,7.6,14h1.8C9.2,14.9,7.9,17,6.4,17z M5.6,13.8c0-0.4,0.4-0.8,0.8-0.8c0.4,0,0.8,0.4,0.8,0.8s-0.4,0.8-0.8,0.8
			C5.9,14.6,5.6,14.2,5.6,13.8z M9.1,12.8c0,0.2,0,0.5-0.1,0.7H7.6c-0.1-0.6-0.6-1-1.2-1c-0.6,0-1.1,0.4-1.2,1H3.7
			c0-0.2-0.1-0.5-0.1-0.7v-1.7h5.5V12.8z M9.9,10.6h-7V9.4h7V10.6z"/>
		<path class="st3" d="M5.1,12.4c0.3,0,0.5-0.2,0.5-0.5c0-0.3-0.2-0.5-0.5-0.5c-0.3,0-0.5,0.2-0.5,0.5C4.5,12.2,4.8,12.4,5.1,12.4z"
			/>
		<path class="st3" d="M7.7,12.4c0.3,0,0.5-0.2,0.5-0.5c0-0.3-0.2-0.5-0.5-0.5c-0.3,0-0.5,0.2-0.5,0.5C7.1,12.2,7.4,12.4,7.7,12.4z"
			/>
	</g>
</g>
</svg>
