<?xml version="1.0" encoding="utf-8"?>
<!-- Generator: Adobe Illustrator 22.1.0, SVG Export Plug-In . SVG Version: 6.00 Build 0)  -->
<svg version="1.1" id="Layer_1" xmlns="http://www.w3.org/2000/svg" xmlns:xlink="http://www.w3.org/1999/xlink" x="0px" y="0px"
	 viewBox="0 0 80.2 68" style="enable-background:new 0 0 80.2 68;" xml:space="preserve">
<style type="text/css">
	.st0{fill:#FFFFFF;}
	.st1{fill:#404040;}
	.st2{fill:#FFD0CC;}
	.st3{fill:#F1C14F;}
</style>
<g>
	<g>
		<g>
			<path class="st0" d="M74.5,37.2c0,0-3.8-7.3-10.5-12.5c-6.7-5.2-12.2-4.9-12.2-4.9s-3.5,6.7-10.2,6.7c-8.2,0-10.9-7.2-10.9-7.2
				s-2.8-0.5-6.5,0.6C23.3,17,22,14,20.8,14.2c-1.3,0.3-1.8,4.6-2,8.1c-0.7,0.5-1.4,1-2.1,1.5C9.7,29.6,8.8,36,8.8,36H3.9v11.6h7
				l3.9,5l4.2,5.4v8.4h9.6v-5.2h25.5v5.2h10.8l0.3-8.9c0,0,4.1-3.1,6.9-8.4c1.2-2.3,1.7-6.4,2.6-8.4c1.3-2.7,3-3.1,3-3.1L74.5,37.2z
				"/>
		</g>
	</g>
	<g>
		<path class="st1" d="M17.4,34c-1.4,0-2.5-1.1-2.5-2.5c0-1.4,1.1-2.5,2.5-2.5c1.4,0,2.5,1.1,2.5,2.5C19.9,32.9,18.8,34,17.4,34z"/>
	</g>
	<g>
		<path class="st2" d="M77.2,37.5l-2.7-0.3c0,0-3.8-7.3-10.5-12.5c-6.7-5.2-12.2-4.9-12.2-4.9s-3.5,6.7-10.2,6.7
			c-3.5,0-6-1.3-7.7-2.9C27.7,28,23.7,34.8,23.7,42.4c0,7.7,4,14.5,10.3,18.9h20.2v5c4-0.4,7.6,0.5,10.9-1.3l0.2-7.5
			c0,0,4.1-3.1,6.9-8.4c1.2-2.3,1.7-6.4,2.6-8.4c0.9-1.8,1.9-2.6,2.5-2.9C77.2,37.7,77.2,37.6,77.2,37.5z"/>
	</g>
	<g>
		<g>
			<path class="st1" d="M64.9,68H54.2c-0.9,0-1.6-0.7-1.6-1.6v-3.6H30.2v3.6c0,0.9-0.7,1.6-1.6,1.6H19c-0.9,0-1.6-0.7-1.6-1.6v-7.8
				l-7.3-9.4H3.9c-0.9,0-1.6-0.7-1.6-1.6V36c0-0.9,0.7-1.6,1.6-1.6h3.7c0.6-2.3,2.6-7.3,8.1-11.8c0.5-0.4,1-0.8,1.6-1.2
				c0.4-6.8,1.5-8.4,3.2-8.7c2.2-0.4,3.7,2.2,4.8,5.2c3.3-0.7,5.7-0.3,5.8-0.3c0.5,0.1,1,0.5,1.2,1c0.1,0.3,2.5,6.2,9.5,6.2
				c5.6,0,8.8-5.8,8.8-5.9c0.3-0.5,0.7-0.8,1.3-0.8c0.2,0,6.2-0.3,13.2,5.3c5.7,4.5,9.3,10.2,10.5,12.3l2.4,0.3
				c0.7,0.1,1.3,0.7,1.4,1.4c0,0.7-0.4,1.4-1.2,1.6l0,0c0,0-1,0.4-1.9,2.3c-0.4,0.8-0.7,2.2-1,3.5c-0.4,1.8-0.9,3.6-1.6,5
				c-2.3,4.4-5.5,7.3-6.7,8.4l-0.3,8.2C66.5,67.4,65.8,68,64.9,68z M55.7,64.9h7.7l0.2-7.4c0-0.5,0.2-0.9,0.6-1.2c0,0,3.9-3,6.5-7.9
				c0.6-1.1,1-2.7,1.4-4.3c0.4-1.5,0.7-3,1.3-4.1c0.2-0.5,0.5-1,0.8-1.3c-0.4-0.1-0.8-0.4-1-0.8c0-0.1-3.7-7-10-12
				c-4.7-3.7-8.7-4.4-10.4-4.6c-1.3,2-5,6.7-11,6.7c-7.4,0-10.8-5.2-11.9-7.3c-1,0-2.8,0-5.1,0.6c-0.8,0.2-1.6-0.2-1.9-1
				c-0.7-2.2-1.3-3.3-1.7-3.9c-0.3,0.9-0.6,2.6-0.7,6c0,0.5-0.3,1-0.7,1.2c-0.7,0.5-1.4,0.9-2,1.4c-6.4,5.4-7.3,11.2-7.3,11.2
				c-0.1,0.8-0.8,1.3-1.5,1.3H5.5v8.5h5.4c0.5,0,0.9,0.2,1.2,0.6l8.1,10.5c0.2,0.3,0.3,0.6,0.3,1v6.8h6.5v-3.6
				c0-0.9,0.7-1.6,1.6-1.6h25.6c0.9,0,1.6,0.7,1.6,1.6V64.9z"/>
		</g>
	</g>
	<g>
		<path class="st0" d="M41.4,20.2c4.7,0,8.4-3.8,8.4-8.4c0-4.7-3.8-8.4-8.4-8.4c-4.7,0-8.4,3.8-8.4,8.4C33,16.4,36.7,20.2,41.4,20.2
			z"/>
	</g>
	<g>
		<path class="st3" d="M36.8,15.6c0,1.5,0.4,3,1.1,4.2c1.2,0.7,2.7,1.1,4.2,1.1c4.7,0,8.4-3.8,8.4-8.4c0-1.5-0.4-3-1.1-4.2
			c-1.2-0.7-2.7-1.1-4.2-1.1C40.6,7.2,36.8,11,36.8,15.6z"/>
	</g>
	<g>
		<path class="st1" d="M41.4,21.8c-5.5,0-10-4.5-10-10c0-5.5,4.5-10,10-10c5.5,0,10,4.5,10,10C51.4,17.3,46.9,21.8,41.4,21.8z
			 M41.4,4.9c-3.8,0-6.9,3.1-6.9,6.9c0,3.8,3.1,6.9,6.9,6.9c3.8,0,6.9-3.1,6.9-6.9C48.3,8,45.2,4.9,41.4,4.9z"/>
	</g>
</g>
</svg>
