<?xml version="1.0" encoding="utf-8"?>
<!-- Generator: Adobe Illustrator 22.1.0, SVG Export Plug-In . SVG Version: 6.00 Build 0)  -->
<svg version="1.1" id="Layer_1" xmlns="http://www.w3.org/2000/svg" xmlns:xlink="http://www.w3.org/1999/xlink" x="0px" y="0px"
	 viewBox="0 0 13.1 16.5" style="enable-background:new 0 0 13.1 16.5;" xml:space="preserve">
<style type="text/css">
	.st0{fill:#FFFFFF;}
	.st1{fill:#EC526D;}
	.st2{fill:#404040;}
</style>
<g>
	<g>
		<g>
			<polygon class="st0" points="2.7,13.7 10.4,13.7 10.4,9.7 9.9,8.6 9.1,7.8 7,7.4 5.1,7.4 3.9,7.9 3,9 2.7,10.3 			"/>
		</g>
	</g>
	<g>
		<g>
			<path class="st0" d="M6.6,6.1c1,0,1.8-0.8,1.8-1.8c0-1-0.8-1.8-1.8-1.8c-1,0-1.8,0.8-1.8,1.8C4.8,5.3,5.6,6.1,6.6,6.1z"/>
		</g>
	</g>
	<g>
		<g>
			<path class="st1" d="M5.6,5.1c0,0.3,0.1,0.6,0.2,0.8C6,6,6.3,6.1,6.6,6.1c1,0,1.8-0.8,1.8-1.8c0-0.3-0.1-0.6-0.2-0.8
				C7.9,3.4,7.6,3.3,7.3,3.3C6.3,3.3,5.6,4.1,5.6,5.1z"/>
		</g>
	</g>
	<g>
		<g>
			
				<rect x="5.9" y="10.6" transform="matrix(1.217533e-03 -1 1 1.217533e-03 -4.0864 19.3654)" class="st1" width="3.6" height="2.2"/>
		</g>
	</g>
	<g>
		<path class="st2" d="M6.6,6.6c1.2,0,2.3-1,2.3-2.3c0-1.2-1-2.3-2.3-2.3c-1.2,0-2.3,1-2.3,2.3C4.3,5.6,5.3,6.6,6.6,6.6z M6.6,2.5
			c1,0,1.8,0.8,1.8,1.8c0,1-0.8,1.8-1.8,1.8c-1,0-1.8-0.8-1.8-1.8C4.8,3.3,5.6,2.5,6.6,2.5z"/>
	</g>
	<g>
		<path class="st2" d="M7.7,7.2H5.4c-1.6,0-2.9,1.3-2.9,2.9v3.8h1.9h0.2h4h0.4h1.7v-3.8C10.6,8.5,9.3,7.2,7.7,7.2z M10.1,13.4H9V10
			H8.5v3.5h-4V10H4.1v3.5H3v-3.3c0-1.3,1.1-2.4,2.4-2.4h2.3c1.3,0,2.4,1.1,2.4,2.4V13.4z"/>
	</g>
</g>
</svg>
