<?xml version="1.0" encoding="utf-8"?>
<!-- Generator: Adobe Illustrator 22.1.0, SVG Export Plug-In . SVG Version: 6.00 Build 0)  -->
<svg version="1.1" id="Layer_1" xmlns="http://www.w3.org/2000/svg" xmlns:xlink="http://www.w3.org/1999/xlink" x="0px" y="0px"
	 viewBox="0 0 89.3 86.3" style="enable-background:new 0 0 89.3 86.3;" xml:space="preserve">
<style type="text/css">
	.st0{fill:#D9D9D9;}
	.st1{fill:#F18C8C;}
	.st2{fill:#F1C14F;}
	.st3{fill:#E08C35;}
	.st4{fill:#E03535;}
	.st5{fill:#FFFFFF;}
	.st6{fill:#404040;}
</style>
<g>
	<path class="st0" d="M29.2,71.5c-1.4,1.4-2.5,1.3-4.4,1.2c-0.9-0.1-1.9-0.2-3,0c-1.2,0.1-2.3,0.6-3.2,1.2c0.5-2.9,1.5-6.2,3.3-8
		c1.6-1.6,3.6-2,5.3-2c1,0,1.9,0.2,2.6,0.3C30.3,66.2,30.7,70,29.2,71.5z"/>
	<path class="st1" d="M75.1,29.8L63.2,18c6.4-2.3,12-2.8,14.7-2.9C77.9,17.8,77.4,23.5,75.1,29.8z"/>
	<path class="st2" d="M20.2,38.9l16.3-2.6c-2.9,4.1-5.3,8.2-6.9,12L20.2,38.9z"/>
	<path class="st2" d="M54.2,72.9l-9.4-9.4c3.8-1.6,7.9-3.9,12-6.9L54.2,72.9z"/>
	<path class="st2" d="M57.9,51.4c-0.7,0.5-1.4,1.1-2.1,1.6c0,0,0,0,0,0c-5.2,3.8-10.3,6.7-14.7,8.2l-0.4,0.1
		c-0.7,0.2-1.4,0.4-2.1,0.6l-7.5-7.5c0.1-0.6,0.3-1.3,0.6-2l0.2-0.5c1.7-5,5.2-11,9.8-16.8c2.1-2.7,4.5-5.4,7-7.9
		c4-4,8.5-6.7,12.8-8.5l12.9,12.9c-1.8,4.3-4.5,8.8-8.5,12.8C63.3,46.9,60.7,49.3,57.9,51.4z"/>
	<path class="st3" d="M48.1,65.1c2.5-1.1,5.2-2.5,8-4.2l0.7-4.3c-4.1,2.9-8.2,5.3-12,6.9l9.4,9.4l0.2-1.4L48.1,65.1z"/>
	<path class="st4" d="M75.5,28.6l-8.9-8.9c4.3-1.6,8.3-2.3,11.3-2.7c0.1-0.7,0.1-1.4,0.1-1.9c-2.7,0.1-8.4,0.6-14.7,2.9l11.8,11.8
		C75.2,29.4,75.4,29,75.5,28.6z"/>
	<path class="st3" d="M30.1,47.1l-6.6-6.6l11.3-1.8c0.5-0.8,1.1-1.6,1.7-2.5l-16.3,2.6l9.4,9.4C29.7,47.9,29.9,47.5,30.1,47.1z"/>
	<path class="st5" d="M25.3,67.6c1.4-1.4,3.2-1.9,4.8-2c-0.1-0.5-0.2-1-0.2-1.4c-0.6-0.1-1.5-0.3-2.6-0.3c-1.7,0-3.7,0.4-5.3,2
		c-1.8,1.8-2.8,5.1-3.3,8c1-0.6,2.1-1.1,3.2-1.2c0.3,0,0.5,0,0.8,0C23.3,70.6,24.1,68.8,25.3,67.6z"/>
	<path class="st3" d="M34.5,56.1c0.1-0.6,0.3-1.3,0.6-2l0.2-0.5c1.7-5,5.2-11,9.8-16.8c2.1-2.7,4.5-5.4,7-7.9
		c3.7-3.7,7.7-6.2,11.7-8l-2.2-2.2c-4.3,1.8-8.8,4.5-12.8,8.5c-2.5,2.5-4.9,5.2-7,7.9c-0.8,1-1.5,2-2.2,2.9l0.3-0.1
		c-2.9,4.1-5.3,8.2-6.9,12l-0.2-0.2c-0.3,0.7-0.6,1.5-0.8,2.2l-0.2,0.5c-0.2,0.7-0.4,1.3-0.6,2l7.5,7.5c0.4-0.1,0.9-0.2,1.3-0.4
		L34.5,56.1z"/>
	<g>
		<path class="st6" d="M81.4,13.3l-0.1-1.5l-1.5-0.1c-0.8,0-19.6-0.8-33.5,13.1c-2.4,2.4-4.7,5-6.8,7.6L13,36.5l15.3,15.3
			c-0.3,1-0.5,1.9-0.7,2.9l-0.2,0.9l4.4,4.4l-0.9,0.9c-2.2-0.5-7.5-1.3-11.3,2.6C15,68,14.7,77.9,14.7,78.3c0,0.8,0.5,1.4,1.2,1.7
			c0.2,0.1,0.4,0.1,0.5,0.1c0.5,0,1.1-0.3,1.4-0.7c0.6-0.8,2.6-3.1,4.4-3.3c0.8-0.1,1.5,0,2.3,0c2,0.2,4.5,0.4,7.1-2.2
			c2.8-2.8,2.1-8.1,1.6-10.5l1-1l3.2,3.2l0.9-0.2c0.9-0.2,1.9-0.4,2.9-0.7l15.3,15.3l4.2-26.4c2.6-2.1,5.2-4.4,7.6-6.8
			C82.2,32.9,81.4,14.1,81.4,13.3z M29.2,71.5c-1.4,1.4-2.5,1.3-4.4,1.2c-0.9-0.1-1.9-0.2-3,0c-1.2,0.1-2.3,0.6-3.2,1.2
			c0.5-2.9,1.5-6.2,3.3-8c1.6-1.6,3.6-2,5.3-2c1,0,1.9,0.2,2.6,0.3C30.3,66.2,30.7,70,29.2,71.5z M75.1,29.8L63.2,18
			c6.4-2.3,12-2.8,14.7-2.9C77.9,17.8,77.4,23.5,75.1,29.8z M20.2,38.9l16.3-2.6c-2.9,4.1-5.3,8.2-6.9,12L20.2,38.9z M54.2,72.9
			l-9.4-9.4c3.8-1.6,7.9-3.9,12-6.9L54.2,72.9z M57.9,51.4c-0.7,0.5-1.4,1.1-2.1,1.6c0,0,0,0,0,0c-5.2,3.8-10.3,6.7-14.7,8.2
			l-0.4,0.1c-0.7,0.2-1.4,0.4-2.1,0.6l-7.5-7.5c0.1-0.6,0.3-1.3,0.6-2l0.2-0.5c1.7-5,5.2-11,9.8-16.8c2.1-2.7,4.5-5.4,7-7.9
			c4-4,8.5-6.7,12.8-8.5l12.9,12.9c-1.8,4.3-4.5,8.8-8.5,12.8C63.3,46.9,60.7,49.3,57.9,51.4z"/>
		<path class="st6" d="M54.7,29.1c-2.5,0-4.8,1-6.5,2.7c-1.7,1.7-2.7,4.1-2.7,6.5c0,2.5,1,4.8,2.7,6.5c1.7,1.7,4.1,2.7,6.5,2.7
			c2.5,0,4.8-1,6.5-2.7c1.7-1.7,2.7-4.1,2.7-6.5c0-2.5-1-4.8-2.7-6.5C59.5,30,57.2,29.1,54.7,29.1z M59.5,43c-2.5,2.5-6.9,2.5-9.4,0
			c-1.3-1.3-2-2.9-2-4.7c0-1.8,0.7-3.5,2-4.7c1.3-1.3,2.9-2,4.7-2c1.8,0,3.5,0.7,4.7,2c1.3,1.3,2,2.9,2,4.7
			C61.4,40.1,60.7,41.8,59.5,43z"/>
	</g>
	<path class="st5" d="M59.5,43c-2.5,2.5-6.9,2.5-9.4,0c-1.3-1.3-2-2.9-2-4.7c0-1.8,0.7-3.5,2-4.7c1.3-1.3,2.9-2,4.7-2
		c1.8,0,3.5,0.7,4.7,2c1.3,1.3,2,2.9,2,4.7C61.4,40.1,60.7,41.8,59.5,43z"/>
</g>
</svg>
