<?xml version="1.0" encoding="utf-8"?>
<!-- Generator: Adobe Illustrator 22.1.0, SVG Export Plug-In . SVG Version: 6.00 Build 0)  -->
<svg version="1.1" id="Layer_1" xmlns="http://www.w3.org/2000/svg" xmlns:xlink="http://www.w3.org/1999/xlink" x="0px" y="0px"
	 viewBox="0 0 14.7 12.8" style="enable-background:new 0 0 14.7 12.8;" xml:space="preserve">
<style type="text/css">
	.st0{fill:#FFFFFF;}
	.st1{fill:#EC526D;}
	.st2{fill:#404040;}
</style>
<g>
	<g>
		<path class="st0" d="M2.7,5.4C2.7,3.5,4.2,2,6.1,2s3.4,1.5,3.4,3.4S8,8.8,6.1,8.8C4.2,8.7,2.7,7.2,2.7,5.4z"/>
	</g>
	<g>
		<path class="st1" d="M9.2,5.4c0-0.6-0.2-1.2-0.5-1.7c-0.5-0.3-1-0.5-1.6-0.5C5.4,3.2,4,4.6,4,6.3C3.9,7,4.1,7.5,4.4,8
			c0.5,0.3,1.1,0.5,1.7,0.5C7.8,8.5,9.2,7.1,9.2,5.4z"/>
	</g>
	<g>
		<g>
			<g>
				<rect x="9.8" y="7" transform="matrix(0.7071 -0.7071 0.7071 0.7071 -3.75 10.0592)" class="st1" width="1" height="5.1"/>
			</g>
		</g>
		<g>
			<g>
				<path class="st2" d="M6.1,9c-2,0-3.6-1.6-3.6-3.6s1.6-3.6,3.6-3.6s3.6,1.6,3.6,3.6S8.1,9,6.1,9z M6.1,2.3C4.4,2.3,3,3.7,3,5.4
					s1.4,3.1,3.1,3.1s3.1-1.4,3.1-3.1S7.8,2.3,6.1,2.3z"/>
			</g>
		</g>
	</g>
	<g>
		<path class="st0" d="M4.4,3.9c0-0.6,0.5-1.1,1.1-1.1s1.1,0.5,1.1,1.1S6.1,5,5.5,5S4.4,4.5,4.4,3.9z"/>
	</g>
	<g>
		<path class="st0" d="M6.6,5c0-0.3,0.2-0.5,0.5-0.5S7.6,4.7,7.6,5S7.4,5.5,7.1,5.5C6.9,5.5,6.6,5.3,6.6,5z"/>
	</g>
</g>
</svg>
