<?xml version="1.0" encoding="UTF-8" standalone="no"?>
<svg
   xmlns:dc="http://purl.org/dc/elements/1.1/"
   xmlns:cc="http://creativecommons.org/ns#"
   xmlns:rdf="http://www.w3.org/1999/02/22-rdf-syntax-ns#"
   xmlns:svg="http://www.w3.org/2000/svg"
   xmlns="http://www.w3.org/2000/svg"
   viewBox="0 0 1133.8533 1133.8533"
   height="1133.8533"
   width="1133.8533"
   xml:space="preserve"
   id="svg2"
   version="1.1"><metadata
     id="metadata8"><rdf:RDF><cc:Work
         rdf:about=""><dc:format>image/svg+xml</dc:format><dc:type
           rdf:resource="http://purl.org/dc/dcmitype/StillImage" /></cc:Work></rdf:RDF></metadata><defs
     id="defs6"><clipPath
       id="clipPath22"
       clipPathUnits="userSpaceOnUse"><path
         id="path20"
         d="m 2990.83,4500.92 c 0,582.36 473.81,1056.03 1056.16,1056.03 582.21,0 1056.03,-473.67 1056.03,-1056.03 0,-582.35 -473.82,-1056.02 -1056.03,-1056.02 -582.35,0 -1056.16,473.67 -1056.16,1056.02 z m 2732.65,-1564.7 -712.06,678.9 c 214.53,233.31 345.65,544.52 345.65,885.8 0,722.37 -587.71,1310.09 -1310.08,1310.09 -722.5,0 -1310.22,-587.72 -1310.22,-1310.09 0,-722.36 587.72,-1310.08 1310.22,-1310.08 279.32,0 538.46,87.94 751.3,237.55 l 730.41,-696.54 c 27.24,-26.11 62.24,-38.96 97.25,-38.96 37.26,0 74.52,14.68 102.18,43.76 53.78,56.45 51.66,145.8 -4.65,199.57 z" /></clipPath><linearGradient
       id="linearGradient28"
       spreadMethod="pad"
       gradientTransform="matrix(3030.36,0,0,-3030.36,2736.77,4251.95)"
       gradientUnits="userSpaceOnUse"
       y2="0"
       x2="1"
       y1="0"
       x1="0"><stop
         id="stop24"
         offset="0"
         style="stop-opacity:1;stop-color:#29235c" /><stop
         id="stop26"
         offset="1"
         style="stop-opacity:1;stop-color:#1d1d1b" /></linearGradient></defs><g
     transform="matrix(1.3333333,0,0,-1.3333333,0,1133.8533)"
     id="g10"><g
       transform="scale(0.1)"
       id="g12"><path
         id="path14"
         style="fill:#ffffff;fill-opacity:1;fill-rule:nonzero;stroke:none"
         d="M 0,0 H 8503.9 V 8503.9 H 0 Z" /><g
         id="g16"><g
           clip-path="url(#clipPath22)"
           id="g18"><path
             id="path30"
             style="fill:url(#linearGradient28);fill-opacity:1;fill-rule:nonzero;stroke:none"
             d="m 2990.83,4500.92 c 0,582.36 473.81,1056.03 1056.16,1056.03 582.21,0 1056.03,-473.67 1056.03,-1056.03 0,-582.35 -473.82,-1056.02 -1056.03,-1056.02 -582.35,0 -1056.16,473.67 -1056.16,1056.02 z m 2732.65,-1564.7 -712.06,678.9 c 214.53,233.31 345.65,544.52 345.65,885.8 0,722.37 -587.71,1310.09 -1310.08,1310.09 -722.5,0 -1310.22,-587.72 -1310.22,-1310.09 0,-722.36 587.72,-1310.08 1310.22,-1310.08 279.32,0 538.46,87.94 751.3,237.55 l 730.41,-696.54 c 27.24,-26.11 62.24,-38.96 97.25,-38.96 37.26,0 74.52,14.68 102.18,43.76 53.78,56.45 51.66,145.8 -4.65,199.57" /></g></g></g></g></svg>