<?xml version="1.0" encoding="utf-8"?>
<!-- Generator: Adobe Illustrator 22.1.0, SVG Export Plug-In . SVG Version: 6.00 Build 0)  -->
<svg version="1.1" id="marker_elements" xmlns="http://www.w3.org/2000/svg" xmlns:xlink="http://www.w3.org/1999/xlink" x="0px"
	 y="0px" viewBox="0 0 386.4 43.6" style="enable-background:new 0 0 386.4 43.6;" xml:space="preserve">
<style type="text/css">
	.st0{fill:#C8C8C8;}
</style>
<g>
	<g>
		<path class="st0" d="M23.5,24.6h-0.1c-0.1,0-0.3-0.1-0.4-0.2l-0.1-0.1c-0.1,0-0.3-0.1-0.4-0.1s-0.1,0-0.2,0s-0.1,0-0.2,0.1
			c-0.5,0.2-0.9,0.3-1.4,0.5h-0.2c-1,0.2-2,0.1-2.9,1.2c1,0.5,2,0.9,2.9,1.2l0.2,0.1c0.5,0.2,0.9,0.4,1.4,0.6l0.1,0.1
			c0.1,0,0.2,0.1,0.3,0.1h0.1c0.1-0.1,0.3-0.2,0.4-0.3l0.2-0.1l0.1-0.1l0.1-0.1c0.6-0.5,1.2-0.5,1.7-1.2
			C24.8,24.2,24.1,24.9,23.5,24.6z"/>
		<path class="st0" d="M51.1,24.6h-0.3c-0.3,0-0.5-0.1-0.7-0.2l-0.3-0.1L49,24.2c-0.1,0-0.2,0-0.3,0s-0.2,0-0.3,0.1
			c-0.9,0.2-1.8,0.3-2.7,0.5h-0.3c-1.9,0.2-3.8,0.1-5.7,1.2c1.9,0.5,3.8,0.9,5.7,1.2l0.3,0.1l2.7,0.6l0.2,0.1c0.2,0,0.3,0.1,0.5,0.1
			h0.2c0.3-0.1,0.5-0.2,0.8-0.3l0.3-0.1l0.3-0.1l0.3-0.1c1.1-0.5,2.2-0.5,3.3-1.2C53.5,24.2,52.1,24.9,51.1,24.6z"/>
		<path class="st0" d="M80.1,24.6h-0.3c-0.3,0-0.5-0.1-0.7-0.2l-0.3-0.1L78,24.2c-0.1,0-0.2,0-0.3,0c-0.1,0-0.2,0-0.3,0.1
			c-0.9,0.2-1.8,0.3-2.7,0.5h-0.3c-1.9,0.2-3.8,0.1-5.7,1.2c1.9,0.5,3.8,0.9,5.7,1.2l0.3,0.1l2.7,0.6l0.2,0.1c0.2,0,0.3,0.1,0.5,0.1
			h0.2c0.3-0.1,0.5-0.2,0.8-0.3l0.3-0.1l0.3-0.1l0.3-0.1c1.1-0.5,2.2-0.5,3.3-1.2C82.6,24.2,81.2,24.9,80.1,24.6z"/>
		<path class="st0" d="M109.2,24.6h-0.3c-0.3,0-0.5-0.1-0.7-0.2l-0.3-0.1l-0.8-0.1c-0.1,0-0.2,0-0.3,0c-0.1,0-0.2,0-0.3,0.1
			c-0.9,0.2-1.8,0.3-2.7,0.5h-0.3c-1.9,0.2-3.8,0.1-5.7,1.2c1.9,0.5,3.8,0.9,5.7,1.2l0.3,0.1l2.7,0.6l0.2,0.1c0.2,0,0.3,0.1,0.5,0.1
			h0.2c0.3-0.1,0.5-0.2,0.8-0.3l0.3-0.1l0.3-0.1l0.3-0.1c1.1-0.5,2.2-0.5,3.3-1.2C111.6,24.2,110.2,24.9,109.2,24.6z"/>
		<path class="st0" d="M138.2,24.6h-0.3c-0.3,0-0.5-0.1-0.7-0.2l-0.3-0.1l-0.8-0.1c-0.1,0-0.2,0-0.3,0s-0.2,0-0.3,0.1
			c-0.9,0.2-1.8,0.3-2.7,0.5h-0.3c-1.9,0.2-3.8,0.1-5.7,1.2c1.9,0.5,3.8,0.9,5.7,1.2l0.3,0.1l2.7,0.6l0.2,0.1c0.2,0,0.3,0.1,0.5,0.1
			h0.2c0.3-0.1,0.5-0.2,0.8-0.3l0.3-0.1l0.3-0.1l0.3-0.1c1.1-0.5,2.2-0.5,3.3-1.2C140.7,24.2,139.3,24.9,138.2,24.6z"/>
		<path class="st0" d="M167.3,24.6H167c-0.3,0-0.5-0.1-0.7-0.2l-0.3-0.1l-0.8-0.1c-0.1,0-0.2,0-0.3,0s-0.2,0-0.3,0.1
			c-0.9,0.2-1.8,0.3-2.7,0.5h-0.3c-1.9,0.2-3.8,0.1-5.7,1.2c1.9,0.5,3.8,0.9,5.7,1.2l0.3,0.1l2.7,0.6l0.2,0.1c0.2,0,0.3,0.1,0.5,0.1
			h0.2c0.3-0.1,0.5-0.2,0.8-0.3l0.3-0.1l0.3-0.1l0.3-0.1c1.1-0.5,2.2-0.5,3.3-1.2C169.8,24.2,168.3,24.9,167.3,24.6z"/>
		<path class="st0" d="M196.4,24.6h-0.3c-0.3,0-0.5-0.1-0.7-0.2l-0.3-0.1l-0.8-0.1c-0.1,0-0.2,0-0.3,0s-0.2,0-0.3,0.1
			c-0.9,0.2-1.8,0.3-2.7,0.5h-0.3c-1.9,0.2-3.8,0.1-5.7,1.2c1.9,0.5,3.8,0.9,5.7,1.2l0.3,0.1l2.7,0.6l0.2,0.1c0.2,0,0.3,0.1,0.5,0.1
			h0.2c0.3-0.1,0.5-0.2,0.8-0.3l0.3-0.1l0.3-0.1l0.3-0.1c1.1-0.5,2.2-0.5,3.3-1.2C198.8,24.2,197.4,24.9,196.4,24.6z"/>
		<path class="st0" d="M225.4,24.6h-0.3c-0.3,0-0.5-0.1-0.7-0.2l-0.3-0.1l-0.8-0.1c-0.1,0-0.2,0-0.3,0s-0.2,0-0.3,0.1
			c-0.9,0.2-1.8,0.3-2.7,0.5h-0.3c-1.9,0.2-3.8,0.1-5.7,1.2c1.9,0.5,3.8,0.9,5.7,1.2l0.3,0.1l2.7,0.6l0.2,0.1c0.2,0,0.3,0.1,0.5,0.1
			h0.2c0.3-0.1,0.5-0.2,0.8-0.3l0.3-0.1l0.3-0.1l0.3-0.1c1.1-0.5,2.2-0.5,3.3-1.2C227.9,24.2,226.5,24.9,225.4,24.6z"/>
		<path class="st0" d="M254.5,24.6h-0.3c-0.3,0-0.5-0.1-0.7-0.2l-0.3-0.1l-0.8-0.1c-0.1,0-0.2,0-0.3,0s-0.2,0-0.3,0.1
			c-0.9,0.2-1.8,0.3-2.7,0.5h-0.3c-1.9,0.2-3.8,0.1-5.7,1.2c1.9,0.5,3.8,0.9,5.7,1.2l0.3,0.1l2.7,0.6L252,28c0.2,0,0.3,0.1,0.5,0.1
			h0.2c0.3-0.1,0.5-0.2,0.8-0.3l0.3-0.1l0.3-0.1l0.3-0.1c1.1-0.5,2.2-0.5,3.3-1.2C256.9,24.2,255.5,24.9,254.5,24.6z"/>
		<path class="st0" d="M283.5,24.6h-0.3c-0.3,0-0.5-0.1-0.7-0.2l-0.3-0.1l-0.8-0.1c-0.1,0-0.2,0-0.3,0c-0.1,0-0.2,0-0.3,0.1
			c-0.9,0.2-1.8,0.3-2.7,0.5h-0.3c-1.9,0.2-3.8,0.1-5.7,1.2c1.9,0.5,3.8,0.9,5.7,1.2l0.3,0.1l2.7,0.6L281,28c0.2,0,0.3,0.1,0.5,0.1
			h0.2c0.3-0.1,0.5-0.2,0.8-0.3l0.3-0.1l0.3-0.1l0.3-0.1c1.1-0.5,2.2-0.5,3.3-1.2C286,24.2,284.6,24.9,283.5,24.6z"/>
		<path class="st0" d="M312.6,24.6h-0.3c-0.3,0-0.5-0.1-0.7-0.2l-0.3-0.1l-0.8-0.1c-0.1,0-0.2,0-0.3,0c-0.1,0-0.2,0-0.3,0.1
			c-0.9,0.2-1.8,0.3-2.7,0.5h-0.3c-1.9,0.2-3.8,0.1-5.7,1.2c1.9,0.5,3.8,0.9,5.7,1.2l0.3,0.1l2.7,0.6l0.2,0.1c0.2,0,0.3,0.1,0.5,0.1
			h0.2c0.3-0.1,0.5-0.2,0.8-0.3l0.3-0.1l0.3-0.1l0.3-0.1c1.1-0.5,2.2-0.5,3.3-1.2C315.1,24.2,313.7,24.9,312.6,24.6z"/>
		<path class="st0" d="M341.7,24.6h-0.3c-0.3,0-0.5-0.1-0.7-0.2l-0.3-0.1l-0.8-0.1c-0.1,0-0.2,0-0.3,0c-0.1,0-0.2,0-0.3,0.1
			c-0.9,0.2-1.8,0.3-2.7,0.5H336c-1.9,0.2-3.8,0.1-5.7,1.2c1.9,0.5,3.8,0.9,5.7,1.2l0.3,0.1l2.7,0.6l0.2,0.1c0.2,0,0.3,0.1,0.5,0.1
			h0.2c0.3-0.1,0.5-0.2,0.8-0.3l0.3-0.1l0.3-0.1l0.3-0.1c1.1-0.5,2.2-0.5,3.3-1.2C344.1,24.2,342.7,24.9,341.7,24.6z"/>
		<path class="st0" d="M365.2,24.6h-0.1c-0.1,0-0.3-0.1-0.4-0.2l-0.1-0.1c-0.1,0-0.3-0.1-0.4-0.1s-0.1,0-0.2,0s-0.1,0-0.2,0.1
			c-0.5,0.2-0.9,0.3-1.4,0.5h-0.2c-1,0.2-2,0.1-2.9,1.2c1,0.5,2,0.9,2.9,1.2l0.2,0.1c0.5,0.2,0.9,0.4,1.4,0.6l0.1,0.1
			c0.1,0,0.2,0.1,0.3,0.1h0.1c0.1-0.1,0.3-0.2,0.4-0.3l0.2-0.1l0.1-0.1l0.1-0.1c0.6-0.5,1.2-0.5,1.7-1.2
			C366.5,24.2,365.8,24.9,365.2,24.6z"/>
	</g>
</g>
</svg>
