<?xml version="1.0" encoding="utf-8"?>
<!-- Generator: Adobe Illustrator 22.1.0, SVG Export Plug-In . SVG Version: 6.00 Build 0)  -->
<svg version="1.1" id="Layer_1" xmlns="http://www.w3.org/2000/svg" xmlns:xlink="http://www.w3.org/1999/xlink" x="0px" y="0px"
	 viewBox="0 0 12 12.5" style="enable-background:new 0 0 12 12.5;" xml:space="preserve">
<style type="text/css">
	.st0{fill:#4B89C6;}
	.st1{fill:#FFFFFF;}
	.st2{fill:#EC526D;}
	.st3{fill:#404040;}
</style>
<g>
	<path class="st0" d="M10.7,6.7c0-0.9-0.3-1.8-0.7-2.6C9.2,3.7,8.3,3.4,7.4,3.4c-2.6,0-4.8,2.1-4.8,4.8c0,0.9,0.3,1.8,0.8,2.6
		c0.7,0.5,1.6,0.7,2.6,0.7C8.5,11.5,10.7,9.4,10.7,6.7z"/>
	<g>
		<path class="st1" d="M5.9,11.3c-2.7,0-4.8-2.2-4.8-4.8s2.2-4.8,4.8-4.8c2.7,0,4.8,2.2,4.8,4.8S8.6,11.3,5.9,11.3z"/>
	</g>
	<g>
		<path class="st2" d="M8.7,2.5c0.5,0.8,0.9,1.7,0.9,2.8c0,2.7-2.2,4.8-4.8,4.8c-1,0-2-0.3-2.8-0.9c0.9,1.3,2.3,2.1,4,2.1
			c2.7,0,4.8-2.2,4.8-4.8C10.7,4.8,9.9,3.3,8.7,2.5z"/>
	</g>
	<polygon class="st2" points="6.4,4.2 7.1,5.2 9.3,5.5 7.3,7.3 7.9,9.1 6.1,8.4 3.9,9.1 4.3,7 3.4,6.2 5.6,5.8 	"/>
	<g>
		<g>
			<g>
				<path class="st3" d="M5.9,11.5c-2.8,0-5.1-2.3-5.1-5.1c0-2.8,2.3-5.1,5.1-5.1c2.8,0,5.1,2.3,5.1,5.1C11,9.2,8.7,11.5,5.9,11.5z
					 M5.9,1.8c-2.5,0-4.6,2.1-4.6,4.6S3.4,11,5.9,11c2.5,0,4.6-2.1,4.6-4.6S8.4,1.8,5.9,1.8z"/>
			</g>
		</g>
		<g>
			<path class="st3" d="M8.2,9.7L5.9,8.5L3.6,9.7L4,7.1L2.1,5.3l2.6-0.4l1.2-2.4l1.2,2.4l2.6,0.4L7.8,7.1L8.2,9.7z M3.1,5.6l1.4,1.3
				L4.2,8.8l1.7-0.9l1.7,0.9L7.3,6.9l1.4-1.3L6.7,5.3L5.9,3.6L5,5.3L3.1,5.6z"/>
		</g>
	</g>
</g>
</svg>
