<?xml version="1.0" encoding="utf-8"?>
<!-- Generator: Adobe Illustrator 22.1.0, SVG Export Plug-In . SVG Version: 6.00 Build 0)  -->
<svg version="1.1" id="Layer_1" xmlns="http://www.w3.org/2000/svg" xmlns:xlink="http://www.w3.org/1999/xlink" x="0px" y="0px"
	 viewBox="0 0 15.1 15.3" style="enable-background:new 0 0 15.1 15.3;" xml:space="preserve">
<style type="text/css">
	.st0{fill:#FFFFFF;}
	.st1{fill:#EC526D;}
	.st2{fill:#5A5A5A;}
</style>
<g>
	<g>
		<g>
			<g>
				<g>
					<g>
						<path class="st0" d="M2.8,7.6c0,2.6,2.1,4.7,4.7,4.7s4.7-2.1,4.7-4.7s-2.1-4.7-4.7-4.7C5,2.9,2.8,5,2.8,7.6z"/>
					</g>
				</g>
			</g>
		</g>
	</g>
	<g>
		<g>
			<g>
				<g>
					<g>
						<path class="st0" d="M4.6,7.6c0,1.6,1.3,2.9,2.9,2.9s2.9-1.3,2.9-2.9S9.1,4.7,7.5,4.7S4.6,6,4.6,7.6z"/>
					</g>
				</g>
			</g>
		</g>
	</g>
	<g>
		<g>
			<g>
				<g>
					<polygon class="st1" points="6.9,3.8 6.5,3.6 7.6,1.7 8.7,3.6 8.2,3.8 7.6,2.6 					"/>
				</g>
			</g>
		</g>
	</g>
	<g>
		<g>
			<g>
				<g>
					<polygon class="st1" points="3.8,5.8 3.1,3.2 5.7,3.9 5.6,4.4 3.8,3.9 4.3,5.6 					"/>
				</g>
			</g>
		</g>
	</g>
	<g>
		<g>
			<g>
				<g>
					<polygon class="st1" points="3.5,8.7 1.6,7.6 3.5,6.5 3.7,6.9 2.6,7.6 3.7,8.3 					"/>
				</g>
			</g>
		</g>
	</g>
	<g>
		<g>
			<g>
				<g>
					<polygon class="st1" points="3.1,12.1 3.8,9.5 4.3,9.6 3.8,11.4 5.5,10.9 5.7,11.4 					"/>
				</g>
			</g>
		</g>
	</g>
	<g>
		<g>
			<g>
				<g>
					<polygon class="st1" points="7.5,13.6 6.4,11.7 6.9,11.5 7.5,12.6 8.2,11.5 8.6,11.7 					"/>
				</g>
			</g>
		</g>
	</g>
	<g>
		<g>
			<g>
				<g>
					<polygon class="st1" points="12,12.1 9.4,11.4 9.6,10.9 11.3,11.4 10.8,9.7 11.3,9.5 					"/>
				</g>
			</g>
		</g>
	</g>
	<g>
		<g>
			<g>
				<g>
					<polygon class="st1" points="11.6,8.8 11.4,8.3 12.6,7.7 11.4,7 11.6,6.6 13.5,7.7 					"/>
				</g>
			</g>
		</g>
	</g>
	<g>
		<g>
			<g>
				<g>
					<polygon class="st1" points="11.3,5.8 10.8,5.6 11.3,3.9 9.6,4.4 9.4,3.9 12,3.2 					"/>
				</g>
			</g>
		</g>
	</g>
	<g>
		<g>
			<g>
				<g>
					<path class="st1" d="M8.4,5.6c-1.6,0-2.9,1.3-2.9,2.9c0,0.6,0.2,1.2,0.5,1.7c0.5,0.3,1.1,0.5,1.7,0.5c1.6,0,2.9-1.3,2.9-2.9
						c0-0.6-0.2-1.2-0.5-1.7C9.6,5.8,9,5.6,8.4,5.6z"/>
				</g>
			</g>
		</g>
	</g>
	<g>
		<g>
			<g>
				<g>
					<g>
						<path class="st2" d="M7.6,10.8c-1.8,0-3.2-1.4-3.2-3.2s1.4-3.2,3.2-3.2s3.2,1.4,3.2,3.2C10.7,9.4,9.3,10.8,7.6,10.8z M7.6,4.9
							c-1.5,0-2.7,1.2-2.7,2.7s1.2,2.7,2.7,2.7s2.7-1.2,2.7-2.7C10.3,6.2,9,4.9,7.6,4.9z"/>
					</g>
				</g>
			</g>
		</g>
	</g>
</g>
</svg>
