<?xml version="1.0" encoding="utf-8"?>
<!-- Generator: Adobe Illustrator 22.1.0, SVG Export Plug-In . SVG Version: 6.00 Build 0)  -->
<svg version="1.1" id="Layer_1" xmlns="http://www.w3.org/2000/svg" xmlns:xlink="http://www.w3.org/1999/xlink" x="0px" y="0px"
	 viewBox="0 0 10.7 14.2" style="enable-background:new 0 0 10.7 14.2;" xml:space="preserve">
<style type="text/css">
	.st0{fill:#FFFFFF;}
	.st1{fill:#CE344F;}
	.st2{fill:#EC526D;}
	.st3{fill:#404040;}
</style>
<g>
	<g>
		<g>
			<path class="st0" d="M5.1,8.5h0.5c1.1,0,2-0.8,2-1.8V4.9c0,0,0-0.1,0-0.2V3.1c0-1-0.9-1.8-2-1.8H5.1c-1.1,0-2,0.8-2,1.8v1.5
				c0,0.2,0,0.2,0,0.2v1.9C3.1,7.7,4,8.5,5.1,8.5z"/>
		</g>
		<g>
			<path class="st1" d="M6,2.3c-1.1,0-2,0.8-2,1.8v1.5c0,0.2,0,0.2,0,0.2v1.9c0,0.2,0,0.4,0.1,0.6c0.3,0.1,0.5,0.2,0.9,0.2h0.5
				c1.1,0,2-0.8,2-1.8V4.9c0,0,0-0.1,0-0.2V3.1c0-0.2,0-0.4-0.1-0.6C7.1,2.3,6.9,2.3,6.5,2.3H6z"/>
		</g>
		<g>
			<path class="st2" d="M4.1,5.6c0,0.2,0,0.2,0,0.2v1.9c0,0.2,0,0.4,0.1,0.6c0,0,0.1,0,0.1,0.1h1.9C7,8.2,7.5,7.5,7.5,6.8V4.9H4.1
				V5.6z"/>
		</g>
		<g>
			<g>
				<g>
					<path class="st3" d="M5.6,8.8H5.1c-1.2,0-2.2-0.9-2.2-2V3.1c0-1.1,1-2,2.2-2h0.5c1.2,0,2.2,0.9,2.2,2v3.7
						C7.8,7.9,6.8,8.8,5.6,8.8z M5.1,1.5c-0.9,0-1.7,0.7-1.7,1.5v3.7c0,0.8,0.8,1.5,1.7,1.5h0.5c0.9,0,1.7-0.7,1.7-1.5V3.1
						c0-0.8-0.8-1.5-1.7-1.5H5.1z"/>
				</g>
				<g>
					<rect x="3" y="12.3" class="st3" width="4.6" height="0.5"/>
				</g>
			</g>
			<g>
				<path class="st3" d="M5.3,10.8C3,10.8,1.2,9,1.2,6.7h0.5c0,2,1.6,3.7,3.7,3.7c2,0,3.7-1.6,3.7-3.7h0.5C9.5,9,7.6,10.8,5.3,10.8z
					"/>
			</g>
			<g>
				<rect x="5.1" y="10.8" class="st3" width="0.5" height="1.9"/>
			</g>
			<g>
				<rect x="3.2" y="4.6" class="st3" width="4.3" height="0.5"/>
			</g>
		</g>
	</g>
	<g>
		<path class="st0" d="M4.2,3.1c0-0.4,0.4-0.8,0.8-0.8c0.4,0,0.8,0.4,0.8,0.8c0,0.4-0.4,0.8-0.8,0.8C4.6,3.9,4.2,3.5,4.2,3.1z"/>
	</g>
</g>
</svg>
