<?xml version="1.0" encoding="utf-8"?>
<!-- Generator: Adobe Illustrator 22.1.0, SVG Export Plug-In . SVG Version: 6.00 Build 0)  -->
<svg version="1.1" id="Layer_1" xmlns="http://www.w3.org/2000/svg" xmlns:xlink="http://www.w3.org/1999/xlink" x="0px" y="0px"
	 viewBox="0 0 13.4 12.4" style="enable-background:new 0 0 13.4 12.4;" xml:space="preserve">
<style type="text/css">
	.st0{fill:#FFFFFF;}
	.st1{fill:#EC526D;}
	.st2{fill:#404040;}
</style>
<g>
	<g>
		<g>
			<path class="st0" d="M1.5,6.6l0.7,4c1.2-0.2,8.5-1.5,9-1.5c0,0,0.3-0.1,0.3-0.5S11.1,8.1,11,8.1c0,0,0-0.1,0-0.2s0-0.1,0.1-0.1
				c0,0,0.4-0.1,0.4-0.5s-0.4-0.5-0.4-0.5C11,6.8,11,6.7,11,6.7c0-0.1,0-0.1,0.1-0.1c0,0,0.4-0.1,0.4-0.5s-0.4-0.5-0.4-0.5
				C11,5.5,11,5.5,11,5.4s0-0.1,0.1-0.1c0,0,0.4-0.1,0.4-0.5s-0.3-0.5-0.4-0.5c0,0,0,0-0.1,0L8.9,4.6l0,0c0,0-0.1,0-0.1-0.1
				s0-0.1,0-0.1s0.5-0.3,0.5-1.5c0-0.9-0.4-1.3-0.8-1.3c-0.1,0-0.2,0-0.3,0.1C8.1,1.7,8.1,1.8,8.1,2c0,0.5,0.1,1.5-1.3,2.8
				C5.7,6,2.4,6.5,1.5,6.6L1.5,6.6z"/>
		</g>
	</g>
	<g>
		<g>
			<path class="st1" d="M11.1,8.1C11,8.1,11,8,11,7.9s0-0.1,0.1-0.1c0,0,0.4-0.1,0.4-0.5s-0.4-0.5-0.4-0.5C11,6.8,11,6.7,11,6.7
				c0-0.1,0-0.1,0.1-0.1c0,0,0.4-0.1,0.4-0.5s-0.4-0.5-0.4-0.5C11,5.5,11,5.5,11,5.4s0-0.1,0.1-0.1c0,0,0.4-0.1,0.4-0.5
				s-0.3-0.5-0.4-0.5c0,0,0,0-0.1,0L9.7,4.5c0.1,0.1,0.1,0.2,0.1,0.3c0,0.4-0.4,0.5-0.4,0.5c-0.1,0-0.1,0.1-0.1,0.1
				c0,0.1,0,0.1,0.1,0.1c0,0,0.4,0.1,0.4,0.5S9.4,6.5,9.4,6.5c-0.1,0-0.1,0.1-0.1,0.1c0,0.1,0,0.1,0.1,0.1c0,0,0.5,0.1,0.5,0.5
				S9.6,7.7,9.6,7.7C9.1,7.9,4.5,8.7,2,9.1l0.3,1.5c1.2-0.2,8.5-1.5,9-1.5c0,0,0.3-0.1,0.3-0.5C11.5,8.1,11.1,8.1,11.1,8.1z"/>
		</g>
	</g>
	<path class="st2" d="M12,7.3c0-0.3-0.1-0.5-0.2-0.6C11.9,6.5,12,6.3,12,6.1c0-0.3-0.1-0.5-0.2-0.6C11.9,5.3,12,5.1,12,4.8
		c0-0.7-0.4-1-0.9-1H11l0,0l0,0L9.6,4c0.1-0.3,0.2-0.6,0.2-1.1c0-1.3-0.7-1.8-1.3-1.8c-0.2,0-0.3,0-0.5,0.1C7.6,1.4,7.6,1.8,7.6,2.1
		c0,0.5,0.1,1.2-1.1,2.4C6,5,4.8,5.7,1.5,6.1l0,0L1,6.2l0.1,0.5l0.7,4l0.1,0.5l0.5-0.1c1.7-0.3,8.5-1.5,9-1.5l0,0l0,0
		c0.3-0.1,0.7-0.4,0.7-1c0-0.3-0.1-0.5-0.2-0.7C11.9,7.8,12,7.6,12,7.3z M11.2,9.1c-0.5,0-7.8,1.3-9,1.5l-0.7-4
		C2.4,6.5,5.7,6,6.8,4.9C8.2,3.5,8.2,2.6,8.1,2c0-0.3,0-0.4,0.1-0.4s0.2-0.1,0.3-0.1c0.4,0,0.8,0.4,0.8,1.3c0,1.2-0.5,1.5-0.5,1.5
		s-0.1,0.1,0,0.1l0.1,0.1l0,0L11,4.2c0,0,0,0,0.1,0s0.4,0,0.4,0.5c0,0.4-0.4,0.5-0.4,0.5C11,5.3,11,5.4,11,5.4c0,0.1,0,0.1,0.1,0.1
		c0,0,0.4,0.1,0.4,0.5s-0.4,0.5-0.4,0.5C11,6.6,11,6.6,11,6.7s0,0.1,0.1,0.1c0,0,0.4,0.1,0.4,0.5s-0.4,0.5-0.4,0.5
		C11,7.8,11,7.9,11,7.9C11,8,11,8,11.1,8c0,0,0.5,0.1,0.5,0.5C11.5,9,11.3,9.1,11.2,9.1z"/>
</g>
</svg>
