<?xml version="1.0" encoding="utf-8"?>
<!-- Generator: Adobe Illustrator 22.1.0, SVG Export Plug-In . SVG Version: 6.00 Build 0)  -->
<svg version="1.1" id="Layer_1" xmlns="http://www.w3.org/2000/svg" xmlns:xlink="http://www.w3.org/1999/xlink" x="0px" y="0px"
	 viewBox="0 0 268.4 52.3" style="enable-background:new 0 0 268.4 52.3;" xml:space="preserve">
<g>
	<path d="M175.1,20.7c0.7,0.1,1.4,0.1,2.1,0.2c0.1,0,0.2,0.1,0.3,0.1c1.2-0.3,2.5-0.2,3.8-0.1c1.5,0.1,3,0,4.5,0
		c0.6,0,0.4,0.6,0.7,0.9c0.6-0.9,1.3-0.8,2.2-0.6c0.8,0.1,1.6-0.1,2.4-0.1c3.1,0.1,6.3,0.1,9.4,0.2c1.5,0,3,0.1,4.5,0.2
		c1.4,0.1,2.7,0.5,4.1,0.3c0.9-0.1,1.6,0.2,2.2,0.6c0.5,0.3,0.9,0.2,1.1,0c0.7-0.7,1.5-0.6,2.2-0.4c1.1,0.2,2.2,0,3.3,0.1
		c0.4,0.1,1-0.3,1.3,0.4c0.7-0.6,0.8,0.4,1.4,0.5c0-0.2,0-0.4,0-0.6c0.9-0.1,1.9-0.2,2.9,0.1c-0.2,0.3-0.3,0.4-0.4,0.6
		c0,0.1,0.1,0.1,0.1,0.2c0.3-0.2,0.6-0.3,1-0.5c0.1,0.1,0.3,0.3,0.7,0.6c0-0.4,0-0.6,0-0.9c0.2,0,0.4,0,0.5,0
		c0.6-0.1,1.2,0.3,1.9,0.1c0.6-0.2,1.3,0.1,1.9,0.2c0.7,0,1.4,0,2.1,0c2.2,0.1,4.4,0.1,6.6,0.3c0.9,0.1,1.8,0.3,2.6,0.6
		c0.4,0.1,0.7,0.1,1-0.1c0.7-0.6,1.4-0.4,2.2,0c0.5,0.3,0.9,0.6,1.3-0.1c0.1-0.2,0.7-0.1,1.2-0.2c0.1,0.2,0.1,0.4,0.2,0.6
		c0.9,0,1.8,0.5,2.6-0.5c0.3-0.3,1,0.1,1.1,0.5c1.6-0.1,3.3-0.2,4.9-0.3c0.5,0,0.9,0,1,0.6c0.2,0.7,0,1.6-0.5,1.8
		c-0.6,0.2-1.2,0.4-1.8,0.5c-4.1,0.2-8.2,0.4-12.3,0.5c-3.8,0.1-7.6,0.1-11.4,0.3c-3.2,0.1-6.4,0.3-9.5,0.5c-3,0.2-6.1,0.3-9.1,0.5
		c-2.9,0.2-5.9,0.3-8.8,0.4c-2,0.1-4,0.2-6,0.3c-4.1,0.2-8.1,0.4-12.2,0.6c-0.9,0-1.9,0.2-2.9,0.3c0,0.4,0.1,0.8,0.5,0.7
		c0.5-0.1,1.1,0.7,1.6-0.1h0.1c0.8,0.7,1.6,0.3,2.4,0c0.1,0,0.4-0.1,0.5,0c1.3,0.9,2.7,0.2,4,0.3c1.2,0.1,2.3,0,3.5-0.1h0.1
		c0.5,0.2,0.9,0.6,1.4,0.7c0.4,0,0.9-0.3,1.4-0.5c0.1,0.2,0.1,0.4,0.1,0.5c1,0,2.1-0.1,3.1,0s2-0.2,3-0.5c0,0.1,0,0.2,0,0.3
		c-0.1,0.1-0.2,0.1-0.3,0.2l0.1,0.1c0.6,0,1.2,0.1,1.8,0.1c0.1,0,0.3,0,0.3,0c0.8-0.8,1.6-0.4,2.4-0.2c0.9,0.3,1.7,0.7,2.7,0.7
		c1.1,0,2.1,0.5,3.1,0.8c0.1,1-0.3,1.5-1.3,1.8c-0.9,0.2-1.8,0.5-2.7,0.5c-3.6,0.3-7.2,0.6-10.9,0.8c-0.1,0-0.2,0-0.4-0.1
		c0.8-0.3,1.4-0.6,2.1-0.8c0.4-0.1,0.9-0.1,1.3-0.1c1.1-0.1,2.1-0.2,3.1-0.3c0.9-0.1,1.8-0.2,2.7-0.3c1-0.1,2-0.2,3-0.4
		c0.3,0,0.6-0.1,1-0.2c-0.5-0.5-1-0.6-1.5-0.6c-2.6-0.1-5.1-0.2-7.7-0.3c-2.2-0.1-4.3-0.3-6.5-0.4c-2.5-0.1-5-0.1-7.5-0.4
		c-3.3-0.3-6.6-0.3-9.8-1.2c-0.5-0.1-1-0.1-1.4-0.3c-0.5-0.2-1-0.5-1.3-0.8c-0.4-0.4-0.3-0.8,0.1-1c1.9-1.2,3.9-1.8,6.1-1.6
		c0.5,0.1,1.2-0.3,1.6,0.3c0,0,0.2,0.1,0.2,0c0.6-0.8,1.5-0.3,2.2-0.5c0.8-0.2,1.6-0.1,2.4-0.1c1.2,0.1,2.4,0.2,3.6-0.2
		c0.3-0.1,0.7,0.2,1.2,0.3c0.1,0,0.3-0.3,0.5-0.3c0.8,0.2,1.6-0.2,2.3-0.2c1.5,0.2,3-0.3,4.4-0.3c0.4,0,0.9,0.2,1.5,0.4
		c0.2-0.3,0.5-0.6,1.3-0.3c0.5,0.2,1.3-0.1,2-0.3c0.5-0.1,1-0.1,1.1,0.5c0.6,0.1,1-0.7,1.5-0.1c0.2-0.1,0.3-0.4,0.5-0.4
		c0.5-0.2,2,0,2.9,0.2c0.5,0.1,1.2,0.3,1.4-0.9c0.2,0.4,0.3,0.5,0.5,0.8c0.5-0.4,0.9-0.7,1.6-0.1c0.7,0.6,1.3,0.3,1.7-0.6
		c0.3,0,0.6,0,1,0.1c0,0.2,0,0.4-0.1,0.8c0.4-0.2,0.8-0.4,1.1-0.6c0.5,0.9,1.2,0.4,1.8,0.3c-0.6-0.4-1.2-0.4-1.9-0.3
		c0.1-0.1,0.1-0.3,0.2-0.5c-1.8-0.1-3.4-0.2-5.1-0.3c-0.7,0-1.4-0.1-2.1-0.1c-2.7-0.1-5.4-0.1-8.2-0.2c-2.6-0.1-5.1-0.3-7.7-0.4
		c-3-0.1-6-0.1-9.1-0.2c-3.4-0.1-6.7-0.2-10.1-0.2c-4.5-0.1-9-0.1-13.5-0.2c-3.1,0-6.1-0.1-9.2-0.2c-3.4,0-6.8,0-10.2-0.1
		c-4.5,0-9-0.1-13.5-0.1c-3,0-6,0-9.1,0c-5.1,0-10.2,0-15.3,0c-3,0-6,0.1-9.1,0.2c-3.1,0-6.3,0-9.4,0c-1.9,0-3.8,0.1-5.6,0.1
		c-2.3,0-4.7,0-7,0.1c-2.6,0-5.3,0.1-7.9,0.1c-3.3,0.1-6.7,0.1-10,0.2c-3.7,0.1-7.3,0.4-11,0.4c-4.2,0.1-8.4,0.5-12.6,0.7
		c-2.5,0.1-5,0.4-7.6,0.6c-3.1,0.3-6.2,0.5-9.3,0.8c-1.4,0.1-2.8,0.2-4.1,1c0.2-0.6,0.5-0.9,1.1-1.2c1.9-1.1,4-1.2,6.1-1.4
		c0.6,0,1.3,0,1.7-0.5c0.4,0.1,0.7,0.3,1,0.3c0.8-0.1,1.6-0.4,2.4-0.6c0.1,0,0.3-0.1,0.4,0c0.7,0.6,1.5,0.4,2.3,0.1
		c0.3-0.1,0.5-0.2,0.8-0.3c0.5-0.1,0.8-0.3,1.4-0.1c0.6,0.3,1.4,0,2.1-0.1c1-0.2,1.9-0.6,3-0.3c0.3,0.1,0.6-0.2,0.9-0.3
		c0.8-0.3,0.8-0.3,2.2,0c0.1,0,0.3-0.1,0.4-0.1c0.1,0,0.2-0.2,0.3-0.2c1.1,0.6,2.2-0.1,3.4,0.1c0.4,0.1,1-0.3,1.6-0.6
		c0.3,0.6,0.8,0.5,1.3,0.1c0.7-0.6,1.5-0.5,2.4-0.2c0.1,0,0.4,0.1,0.4,0.1c0.5-0.6,1.2-0.3,1.8-0.4c0.1,0.1,0.1,0.3,0.2,0.4
		c0.1-0.1,0.2-0.1,0.3-0.2c-0.2-0.1-0.3-0.1-0.5-0.2c2.7-0.3,5.4-0.7,8.2-0.5c0.4,0,0.9,0,1.3-0.1c0.6-0.1,1.2-0.1,1.7,0.3
		c0.2,0.1,0.7,0.2,0.8,0.1c0.8-1,2-0.5,2.9-0.7c1.1-0.2,2.3-0.1,3.4-0.1c0.6,0,0.8,0,2,0.7c0.2,0.1,0.5,0.2,0.9,0.1
		c-0.1-0.2-0.2-0.5-0.4-0.7c0.7-0.1,1.2-0.1,1.8-0.2c0.6-0.1,1.2-0.1,1.6,0.5c0.4,0.5,0.6,0.4,0.9-0.5c0.3,0,0.7,0,1.2,0.1
		c-0.2,0.2-0.4,0.4-0.5,0.6c0.1,0,0.2,0.1,0.2,0.1c2.5-1.4,5.2-0.7,7.8-0.9c0.2,0,0.4,0.1,0.6,0c0.5-0.2,1-0.6,1.1,0.4
		c0,0.1,0.5,0.2,0.7,0.1s0.2-0.4,0.4-0.7c0.2,0.2,0.3,0.3,0.4,0.4s0.4,0.2,0.4,0.2c0.8-1.1,1.9-0.5,2.9-0.6c0.9-0.1,1.7,0.2,2.6,0.1
		s1.9,0.1,2.8,0.1c0.2,0,0.3,0,0.5,0c1.1-0.3,2.2-0.3,3.1,0.5c0.7-0.9,1.6-0.9,2.6-0.7c0.5,0.1,1,0.2,1.5-0.1
		c0.1-0.1,0.3-0.1,0.5-0.1c1.4,0,2.8,0,4.3,0c1.3,0,2.6,0.2,3.9,0c1.4-0.2,2.8,0,4.1-0.1c1.2,0,2.4,0,3.6,0c2.1,0,4.2,0,6.3,0
		c2.8,0,5.5-0.1,8.3-0.2c1.7,0,3.4,0.1,5.1,0.1c2.3,0,4.6,0,7,0.1c3.6,0,7.2,0.1,10.7,0.1c2,0,4,0,6,0c2.6,0,5.3,0,7.9,0.1
		c1.5,0,3.1,0.1,4.6,0.2C174.9,20.8,175,20.7,175.1,20.7c0.2,0.7,0.2,0.7,1.1,0.9C175.6,21.2,175.4,21,175.1,20.7z M65.7,22.1
		c0-0.1,0.1-0.2,0.1-0.3c-0.2-0.3-0.5-0.3-1.1,0.1C65.2,21.9,65.4,22,65.7,22.1z M188.7,21.8c0-0.1,0-0.2,0-0.3
		c-0.3,0-0.5,0-0.8,0.1c0,0.1,0,0.1,0,0.2C188.1,21.8,188.4,21.8,188.7,21.8z M233.8,23.2c0-0.1,0-0.1-0.1-0.2
		c-0.3,0.1-0.6,0.1-0.9,0.2c0,0.1,0,0.1,0,0.2C233.2,23.3,233.5,23.3,233.8,23.2z M68,21.7c0-0.1,0-0.1,0-0.2
		c-0.3,0-0.6,0.1-0.9,0.1c0,0.1,0,0.1,0,0.2C67.4,21.8,67.7,21.7,68,21.7z"/>
	<path d="M96.1,196.9c-0.2-0.2-0.5-0.5-0.5-0.7s0.4-0.4,0.8-0.7c0,0.6,0,0.9,0,1.3C96.3,196.7,96.2,196.8,96.1,196.9z"/>
	<path d="M98.4,197.6c-0.5-0.1-1.2,0.3-1.4-0.6C97.5,197.1,98.1,197,98.4,197.6z"/>
	<path d="M100.7,198.4c-0.6,0.4-1.1,0-1.7-0.4C99.9,197.4,100.1,198.4,100.7,198.4L100.7,198.4z"/>
	<path d="M12.3,155.7c-0.4-0.1-0.7-0.3-1.3-0.4C11.8,155,11.8,155,12.3,155.7z"/>
	<path d="M101.8,199.1c0.3,0.2,0.4,0.2,0.5,0.3c-0.1,0-0.2,0.1-0.3,0.1C101.9,199.5,101.9,199.4,101.8,199.1z"/>
	<path d="M100.7,198.4c0.2,0.1,0.4,0.2,0.6,0.3c0,0.1,0,0.1,0,0.2c-0.2,0-0.4,0-0.5-0.1C100.7,198.7,100.7,198.5,100.7,198.4
		L100.7,198.4z"/>
	<path d="M145.8,183c0.1,0,0.3-0.1,0.5-0.1c0,0,0,0.1,0.1,0.2c-0.2,0-0.3,0.1-0.5,0.1C145.8,183.2,145.8,183.1,145.8,183z"/>
</g>
</svg>
