<?xml version="1.0" encoding="utf-8"?>
<!-- Generator: Adobe Illustrator 22.1.0, SVG Export Plug-In . SVG Version: 6.00 Build 0)  -->
<svg version="1.1" id="Layer_1" xmlns="http://www.w3.org/2000/svg" xmlns:xlink="http://www.w3.org/1999/xlink" x="0px" y="0px"
	 viewBox="0 0 12.1 14" style="enable-background:new 0 0 12.1 14;" xml:space="preserve">
<style type="text/css">
	.st0{fill:#FFFFFF;}
	.st1{fill:#EC526D;}
	.st2{fill:#404040;}
</style>
<g>
	<g>
		<g>
			<polygon class="st0" points="2,13 9.6,13 9.6,9 9.2,8 8.4,7.2 6.3,6.8 4.4,6.8 3.1,7.2 2.2,8.3 2,9.6 			"/>
		</g>
	</g>
	<g>
		<g>
			<path class="st0" d="M5.8,5.4c1,0,1.8-0.8,1.8-1.8c0-1-0.8-1.8-1.8-1.8C4.8,1.9,4,2.7,4,3.7C4,4.7,4.8,5.4,5.8,5.4z"/>
		</g>
	</g>
	<g>
		<g>
			<path class="st1" d="M4.8,4.4C4.8,4.7,4.9,5,5,5.2c0.2,0.1,0.5,0.2,0.8,0.2c1,0,1.8-0.8,1.8-1.8c0-0.3-0.1-0.6-0.2-0.8
				C7.1,2.7,6.9,2.7,6.6,2.7C5.6,2.7,4.8,3.5,4.8,4.4z"/>
		</g>
	</g>
	<g>
		<g>
			<rect x="5.1" y="10" transform="matrix(1.217533e-03 -1 1 1.217533e-03 -4.181 17.9745)" class="st1" width="3.6" height="2.2"/>
		</g>
	</g>
	<g>
		<path class="st2" d="M5.8,5.9c1.2,0,2.3-1,2.3-2.3c0-1.2-1-2.3-2.3-2.3c-1.2,0-2.3,1-2.3,2.3C3.6,4.9,4.6,5.9,5.8,5.9z M5.8,1.9
			c1,0,1.8,0.8,1.8,1.8c0,1-0.8,1.8-1.8,1.8C4.8,5.4,4,4.7,4,3.7C4,2.7,4.8,1.9,5.8,1.9z"/>
	</g>
	<g>
		<path class="st2" d="M7,6.5H4.7c-1.6,0-2.9,1.3-2.9,2.9v3.8h1.9h0.2h4h0.4h1.7V9.4C9.9,7.8,8.6,6.5,7,6.5z M9.4,12.8H8.3V9.3H7.8
			v3.5h-4V9.3H3.3v3.5H2.2V9.4C2.2,8.1,3.3,7,4.7,7H7c1.3,0,2.4,1.1,2.4,2.4V12.8z"/>
	</g>
</g>
</svg>
