<?xml version="1.0" encoding="utf-8"?>
<!-- Generator: Adobe Illustrator 22.1.0, SVG Export Plug-In . SVG Version: 6.00 Build 0)  -->
<svg version="1.1" xmlns="http://www.w3.org/2000/svg" xmlns:xlink="http://www.w3.org/1999/xlink" x="0px" y="0px"
	 viewBox="0 0 215.3 121.1" style="enable-background:new 0 0 215.3 121.1;" xml:space="preserve">
<style type="text/css">
	.st0{opacity:0.2;}
	.st1{fill:#FFBEBE;}
	.st2{fill:#EC526D;}
	.st3{fill:#CE344F;}
	.st4{opacity:0.3;}
	.st5{fill:#FFFFFF;}
	.st6{fill:#FFC8C8;}
	.st7{fill:#DDE7FF;}
</style>
<g id="bg">
</g>
<g id="Bg_2">
</g>
<g id="BG_3">
</g>
<g id="BG_4">
</g>
<g id="Mission">
	<g id="XMLID_4_">
		<g id="XMLID_721_">
			<g id="XMLID_737_" class="st0">
				<path id="XMLID_1396_" class="st1" d="M198.5,112.4c0-12.4-2.6-24.1-7.4-34.7c1.7-3.5,2.7-7.5,2.7-11.7
					c0-14.9-12.1-26.9-26.9-26.9c-2.8,0-5.5,0.4-8,1.2C145.7,31.9,130,27,113.1,27c-2.1,0-4.2,0.1-6.2,0.2
					c-3.7-2.8-8.3-4.4-13.2-4.4c-9.4,0-17.4,5.9-20.6,14.1c-6.5,3.4-12.5,7.7-17.8,12.6c-1.7-0.4-3.5-0.6-5.4-0.6
					c-13.5,0-24.4,10.9-24.4,24.4c0,5.9,2.1,11.3,5.5,15.5c-2.2,7.5-3.3,15.4-3.3,23.6H198.5z"/>
			</g>
			<g id="XMLID_736_" class="st0">
				<path id="XMLID_1395_" class="st1" d="M175.2,112.4c0-34.3-27.8-62.1-62.1-62.1s-62.1,27.8-62.1,62.1H175.2z"/>
			</g>
			<g id="XMLID_735_" class="st0">
				<path id="XMLID_1394_" class="st1" d="M207.2,79.8c0,2.7-2.2,4.9-4.9,4.9s-4.9-2.2-4.9-4.9c0-2.7,2.2-4.9,4.9-4.9
					S207.2,77.1,207.2,79.8z"/>
			</g>
			<g id="XMLID_734_" class="st0">
				<circle id="XMLID_1393_" class="st1" cx="131.8" cy="19.1" r="7.5"/>
			</g>
			<g id="XMLID_733_" class="st0">
				<path id="XMLID_1392_" class="st1" d="M63.3,37.5c0,1.8-1.4,3.2-3.2,3.2c-1.8,0-3.2-1.4-3.2-3.2c0-1.8,1.4-3.2,3.2-3.2
					C61.9,34.2,63.3,35.7,63.3,37.5z"/>
			</g>
			<g id="XMLID_732_" class="st0">
				<circle id="XMLID_1391_" class="st1" cx="161.2" cy="31.6" r="3.2"/>
			</g>
			<g id="XMLID_731_" class="st0">
				<path id="XMLID_1390_" class="st1" d="M93.7,9.9c0,1.8-1.4,3.2-3.2,3.2c-1.8,0-3.2-1.4-3.2-3.2s1.4-3.2,3.2-3.2
					C92.2,6.6,93.7,8.1,93.7,9.9z"/>
			</g>
			<g id="XMLID_730_" class="st0">
				<circle id="XMLID_1389_" class="st1" cx="200.6" cy="91.6" r="1.3"/>
			</g>
			<g id="XMLID_729_" class="st0">
				<path id="XMLID_1388_" class="st1" d="M160.7,8.9c0,0.5-0.4,1-1,1c-0.5,0-1-0.4-1-1s0.4-1,1-1C160.3,7.9,160.7,8.3,160.7,8.9z"
					/>
			</g>
			<g id="XMLID_728_" class="st0">
				<circle id="XMLID_1387_" class="st1" cx="61.4" cy="13.8" r="1.3"/>
			</g>
			<g id="XMLID_727_" class="st0">
				<path id="XMLID_1386_" class="st1" d="M9.2,42.6c0,0.9-0.8,1.7-1.7,1.7s-1.7-0.8-1.7-1.7c0-0.9,0.8-1.7,1.7-1.7
					S9.2,41.6,9.2,42.6z"/>
			</g>
			<g id="XMLID_726_" class="st0">
				<path id="XMLID_1385_" class="st1" d="M215.3,55.1c0,0.9-0.8,1.7-1.7,1.7c-0.9,0-1.7-0.8-1.7-1.7c0-0.9,0.8-1.7,1.7-1.7
					C214.6,53.4,215.3,54.2,215.3,55.1z"/>
			</g>
			<g id="XMLID_725_" class="st0">
				<circle id="XMLID_1384_" class="st1" cx="35" cy="35.6" r="7.3"/>
			</g>
			<g id="XMLID_724_" class="st0">
				<path id="XMLID_1381_" class="st1" d="M15.3,88.6c0,0.9-0.8,1.7-1.7,1.7c-0.9,0-1.7-0.8-1.7-1.7c0-0.9,0.8-1.7,1.7-1.7
					C14.5,86.9,15.3,87.6,15.3,88.6z"/>
			</g>
			<g id="XMLID_723_" class="st0">
				<path id="XMLID_1379_" class="st1" d="M204.5,37.5c0,3.9-3.2,7-7,7c-3.9,0-7-3.2-7-7c0-3.9,3.2-7,7-7
					C201.3,30.4,204.5,33.6,204.5,37.5z"/>
			</g>
			<g id="XMLID_722_" class="st0">
				<circle id="XMLID_357_" class="st1" cx="13.6" cy="69.3" r="6.9"/>
			</g>
		</g>
		<g id="XMLID_88_">
			<g id="XMLID_362_">
				<path class="st2" d="M73.9,64.3l34.6,48.2H37.8l35.6-48.2C73.5,64.1,73.7,64.1,73.9,64.3z"/>
			</g>
			<g id="XMLID_356_">
				<path id="XMLID_1383_" class="st3" d="M38.4,112.9l-1.2-0.9l35.6-48.2c0.2-0.3,0.5-0.4,0.8-0.4c0,0,0,0,0,0
					c0.3,0,0.6,0.2,0.8,0.4l9.7,13.7l-1.2,0.9l-9.3-13.2L38.4,112.9z"/>
			</g>
			<g id="XMLID_354_" class="st4">
				<polygon id="XMLID_401_" class="st3" points="58.6,111.9 108,111.9 83.3,77.5 				"/>
			</g>
			<g id="XMLID_508_">
				<path class="st2" d="M147.7,64.2l35.6,48.2h-70.7l34.6-48.2C147.3,64.1,147.6,64.1,147.7,64.2z"/>
			</g>
			<g id="XMLID_366_">
				<path id="XMLID_1382_" class="st3" d="M182.7,112.9l-35.2-47.7l-9.3,13.2l-1.2-0.9l9.7-13.7c0.2-0.3,0.5-0.4,0.8-0.4
					c0.3,0,0.6,0.2,0.8,0.4l35.6,48.2L182.7,112.9z"/>
			</g>
			<g id="XMLID_365_" class="st4">
				<polygon id="XMLID_348_" class="st3" points="162.5,111.9 113,111.9 137.8,77.5 				"/>
			</g>
			<g id="XMLID_352_">
				<path class="st2" d="M159.6,111.9H62.5l47.8-66.6L159.6,111.9z"/>
			</g>
			<g id="XMLID_351_">
				<polygon class="st5" points="122,61 119.9,58.3 120,58.2 110.3,45.3 101.4,58.2 101.1,58.2 98.8,61 102.4,66 104.8,62.8 
					110.6,70.9 116.3,63.1 118.4,66 				"/>
			</g>
			<g id="XMLID_522_">
				<polygon id="XMLID_1328_" class="st3" points="110.6,72.2 104.7,64.1 102.4,67.2 98.2,61.4 99.4,60.5 102.4,64.7 104.8,61.5 
					110.6,69.6 116.3,61.9 118.4,64.7 121.4,60.5 122.6,61.4 118.4,67.2 116.3,64.4 				"/>
			</g>
			<g id="XMLID_347_">
				<polygon id="XMLID_1380_" class="st3" points="159,112.3 110.3,46.5 63.1,112.3 61.9,111.4 110.3,44 110.9,44.8 160.2,111.4 
									"/>
			</g>
			<g id="XMLID_807_">
				<rect id="XMLID_1378_" x="109.6" y="30.2" class="st3" width="1.5" height="16.8"/>
			</g>
			<g id="XMLID_285_">
				<polygon class="st5" points="128.6,44.7 117,44.7 117,35.7 128.6,35.7 126.8,40.2 				"/>
			</g>
			<g id="XMLID_278_">
				<path id="XMLID_1375_" class="st3" d="M129.7,45.4h-13.4V34.9h13.4l-2.1,5.2L129.7,45.4z M117.8,43.9h9.7l-1.5-3.8l1.5-3.8h-9.7
					V43.9z"/>
			</g>
			<g id="XMLID_270_">
				<rect x="110.4" y="32.6" class="st5" width="11.6" height="9"/>
			</g>
			<g id="XMLID_264_">
				<path id="XMLID_1372_" class="st3" d="M122.7,42.4h-13.1V31.9h13.1V42.4z M111.2,40.9h10.1v-7.5h-10.1V40.9z"/>
			</g>
		</g>
		<g id="XMLID_519_">
			<path id="XMLID_1371_" class="st2" d="M174.3,51.1h-19.2c-0.4,0-0.8-0.3-0.8-0.8c0-0.4,0.3-0.8,0.8-0.8h19.2
				c0.4,0,0.8,0.3,0.8,0.8C175,50.8,174.7,51.1,174.3,51.1z"/>
		</g>
		<g id="XMLID_518_">
			<path id="XMLID_1370_" class="st2" d="M152.5,51.1H150c-0.4,0-0.8-0.3-0.8-0.8c0-0.4,0.3-0.8,0.8-0.8h2.4c0.4,0,0.8,0.3,0.8,0.8
				C153.2,50.8,152.9,51.1,152.5,51.1z"/>
		</g>
		<g id="XMLID_517_">
			<path id="XMLID_1369_" class="st2" d="M70.3,46H38.7c-0.4,0-0.8-0.3-0.8-0.8c0-0.4,0.3-0.8,0.8-0.8h31.6c0.4,0,0.8,0.3,0.8,0.8
				C71.1,45.7,70.8,46,70.3,46z"/>
		</g>
		<g id="XMLID_516_">
			<path id="XMLID_1368_" class="st2" d="M36.1,46h-2.4c-0.4,0-0.8-0.3-0.8-0.8c0-0.4,0.3-0.8,0.8-0.8h2.4c0.4,0,0.8,0.3,0.8,0.8
				C36.8,45.7,36.5,46,36.1,46z"/>
		</g>
		<g id="XMLID_510_">
			<g id="XMLID_513_">
				<path id="XMLID_1367_" class="st2" d="M146,51.1h-4.3c-0.4,0-0.8-0.3-0.8-0.8c0-0.4,0.3-0.8,0.8-0.8h4.3c0.4,0,0.8,0.3,0.8,0.8
					C146.8,50.8,146.5,51.1,146,51.1z"/>
			</g>
			<g id="XMLID_511_">
				<path id="XMLID_1366_" class="st2" d="M143.9,53.3c-0.4,0-0.8-0.3-0.8-0.8v-4.3c0-0.4,0.3-0.8,0.8-0.8c0.4,0,0.8,0.3,0.8,0.8
					v4.3C144.7,52.9,144.3,53.3,143.9,53.3z"/>
			</g>
		</g>
		<g id="XMLID_506_">
			<g id="XMLID_509_">
				<path id="XMLID_1365_" class="st2" d="M103.4,29.7h-4.3c-0.4,0-0.8-0.3-0.8-0.8c0-0.4,0.3-0.8,0.8-0.8h4.3
					c0.4,0,0.8,0.3,0.8,0.8C104.2,29.3,103.8,29.7,103.4,29.7z"/>
			</g>
			<g id="XMLID_507_">
				<path id="XMLID_1364_" class="st2" d="M101.3,31.8c-0.4,0-0.8-0.3-0.8-0.8v-4.3c0-0.4,0.3-0.8,0.8-0.8c0.4,0,0.8,0.3,0.8,0.8V31
					C102,31.5,101.7,31.8,101.3,31.8z"/>
			</g>
		</g>
		<g id="XMLID_500_">
			<g id="XMLID_505_">
				<path id="XMLID_1363_" class="st2" d="M29.8,60.8h-4.3c-0.4,0-0.8-0.3-0.8-0.8c0-0.4,0.3-0.8,0.8-0.8h4.3c0.4,0,0.8,0.3,0.8,0.8
					C30.6,60.5,30.2,60.8,29.8,60.8z"/>
			</g>
			<g id="XMLID_501_">
				<path id="XMLID_1362_" class="st2" d="M27.7,63c-0.4,0-0.8-0.3-0.8-0.8v-4.3c0-0.4,0.3-0.8,0.8-0.8c0.4,0,0.8,0.3,0.8,0.8v4.3
					C28.4,62.6,28.1,63,27.7,63z"/>
			</g>
		</g>
		<g id="XMLID_20_">
			<g id="XMLID_25_">
				<path id="XMLID_1361_" class="st2" d="M171.2,62.4h-4.3c-0.4,0-0.8-0.3-0.8-0.8c0-0.4,0.3-0.8,0.8-0.8h4.3
					c0.4,0,0.8,0.3,0.8,0.8C171.9,62.1,171.6,62.4,171.2,62.4z"/>
			</g>
			<g id="XMLID_24_">
				<path id="XMLID_1360_" class="st2" d="M169.1,64.6c-0.4,0-0.8-0.3-0.8-0.8v-4.3c0-0.4,0.3-0.8,0.8-0.8c0.4,0,0.8,0.3,0.8,0.8
					v4.3C169.8,64.2,169.5,64.6,169.1,64.6z"/>
			</g>
		</g>
		<g id="XMLID_494_">
			<g id="XMLID_496_">
				<path id="XMLID_1359_" class="st2" d="M87.3,51.5c-0.2,0-0.4-0.1-0.5-0.2c-0.3-0.3-0.3-0.8,0-1.1l3-3c0.3-0.3,0.8-0.3,1.1,0
					c0.3,0.3,0.3,0.8,0,1.1l-3,3C87.6,51.4,87.4,51.5,87.3,51.5z"/>
			</g>
			<g id="XMLID_495_">
				<path id="XMLID_1358_" class="st2" d="M90.3,51.5c-0.2,0-0.4-0.1-0.5-0.2l-3-3c-0.3-0.3-0.3-0.8,0-1.1c0.3-0.3,0.8-0.3,1.1,0
					l3,3c0.3,0.3,0.3,0.8,0,1.1C90.7,51.4,90.5,51.5,90.3,51.5z"/>
			</g>
		</g>
		<g id="XMLID_486_">
			<g id="XMLID_492_">
				<path id="XMLID_1357_" class="st2" d="M176.9,23.5c-0.2,0-0.4-0.1-0.5-0.2c-0.3-0.3-0.3-0.8,0-1.1l3-3c0.3-0.3,0.8-0.3,1.1,0
					c0.3,0.3,0.3,0.8,0,1.1l-3,3C177.3,23.4,177.1,23.5,176.9,23.5z"/>
			</g>
			<g id="XMLID_491_">
				<path id="XMLID_1356_" class="st2" d="M180,23.5c-0.2,0-0.4-0.1-0.5-0.2l-3-3c-0.3-0.3-0.3-0.8,0-1.1c0.3-0.3,0.8-0.3,1.1,0l3,3
					c0.3,0.3,0.3,0.8,0,1.1C180.3,23.4,180.2,23.5,180,23.5z"/>
			</g>
		</g>
		<g id="XMLID_484_">
			<path id="XMLID_1355_" class="st2" d="M173.4,21.9h-59c-0.4,0-0.8-0.3-0.8-0.8c0-0.4,0.3-0.8,0.8-0.8h59c0.4,0,0.8,0.3,0.8,0.8
				C174.2,21.6,173.8,21.9,173.4,21.9z"/>
		</g>
		<g id="XMLID_482_">
			<path id="XMLID_1354_" class="st2" d="M85.3,29.7h-30c-0.4,0-0.8-0.3-0.8-0.8c0-0.4,0.3-0.8,0.8-0.8h30c0.4,0,0.8,0.3,0.8,0.8
				C86.1,29.3,85.8,29.7,85.3,29.7z"/>
		</g>
		<g id="XMLID_480_">
			<path id="XMLID_1353_" class="st2" d="M95.5,29.7h-4.8c-0.4,0-0.8-0.3-0.8-0.8c0-0.4,0.3-0.8,0.8-0.8h4.8c0.4,0,0.8,0.3,0.8,0.8
				C96.2,29.3,95.9,29.7,95.5,29.7z"/>
		</g>
		<g id="XMLID_468_">
			<polygon class="st2" points="57.1,58.4 59,57.3 60.9,58.4 60.9,60.6 59,61.7 57.1,60.6 			"/>
		</g>
		<g id="XMLID_467_">
			<polygon class="st2" points="167,33 168.9,31.9 170.8,33 170.8,35.2 168.9,36.3 167,35.2 			"/>
		</g>
		<g id="XMLID_466_">
			<polygon class="st2" points="200.7,67 202.6,65.9 204.5,67 204.5,69.2 202.6,70.3 200.7,69.2 			"/>
		</g>
		<g id="XMLID_27_">
			<polygon class="st2" points="29.9,86.7 31.8,85.6 33.7,86.7 33.7,88.9 31.8,90 29.9,88.9 			"/>
		</g>
		<g id="XMLID_465_">
			<polygon class="st2" points="80.8,17 83.3,15.5 85.9,17 85.9,20 83.3,21.4 80.8,20 			"/>
		</g>
		<g id="XMLID_528_">
			<g id="XMLID_642_">
				<path class="st2" d="M53.9,112.2h-22c-1.1,0-2-0.9-2-2v-9.7c0-1.1,0.9-2,2-2h22c1.1,0,2,0.9,2,2v9.7
					C55.8,111.4,54.9,112.2,53.9,112.2z"/>
			</g>
			<g id="XMLID_641_">
				<path class="st5" d="M47.6,105.4c0,2.6-2.1,4.7-4.7,4.7c-2.6,0-4.7-2.1-4.7-4.7s2.1-4.7,4.7-4.7
					C45.5,100.7,47.6,102.8,47.6,105.4z"/>
			</g>
			<g id="XMLID_637_">
				<g id="XMLID_640_">
					<path id="XMLID_1352_" class="st3" d="M43.3,108.6H41v-1.5h2.4c0.2,0,0.4-0.2,0.4-0.4c0-0.2-0.2-0.4-0.4-0.4h-1.1
						c-1,0-1.9-0.8-1.9-1.9c0-1,0.8-1.9,1.9-1.9h2.3v1.5h-2.3c-0.2,0-0.4,0.2-0.4,0.4c0,0.2,0.2,0.4,0.4,0.4h1.1
						c1,0,1.9,0.8,1.9,1.9S44.4,108.6,43.3,108.6z"/>
				</g>
				<g id="XMLID_639_">
					<rect id="XMLID_1351_" x="42.1" y="102.1" class="st3" width="1.5" height="1.2"/>
				</g>
				<g id="XMLID_638_">
					<rect id="XMLID_1350_" x="42.1" y="107.8" class="st3" width="1.5" height="1.1"/>
				</g>
			</g>
			<g id="XMLID_636_">
				<path id="XMLID_1347_" class="st3" d="M53.8,113.1h-22c-1.5,0-2.7-1.2-2.7-2.7v-9.7c0-1.5,1.2-2.7,2.7-2.7h22
					c1.5,0,2.7,1.2,2.7,2.7v9.7C56.5,111.8,55.3,113.1,53.8,113.1z M31.8,99.4c-0.7,0-1.2,0.5-1.2,1.2v9.7c0,0.7,0.5,1.2,1.2,1.2h22
					c0.7,0,1.2-0.5,1.2-1.2v-9.7c0-0.7-0.5-1.2-1.2-1.2H31.8z"/>
			</g>
			<g id="XMLID_634_">
				<path id="XMLID_1346_" class="st3" d="M29.8,103.4v-1.5c1.8,0,3.3-1.5,3.3-3.3h1.5C34.6,101.3,32.4,103.4,29.8,103.4z"/>
			</g>
			<g id="XMLID_628_">
				<path id="XMLID_1345_" class="st3" d="M55.7,103.4c-2.6,0-4.8-2.1-4.8-4.8h1.5c0,1.8,1.5,3.3,3.3,3.3V103.4z"/>
			</g>
			<g id="XMLID_623_">
				<path id="XMLID_1344_" class="st3" d="M34.6,112.3h-1.5c0-1.8-1.5-3.3-3.3-3.3v-1.5C32.4,107.5,34.6,109.7,34.6,112.3z"/>
			</g>
			<g id="XMLID_621_">
				<path id="XMLID_1343_" class="st3" d="M52.4,112.3h-1.5c0-2.6,2.1-4.8,4.8-4.8v1.5C53.9,109,52.4,110.5,52.4,112.3z"/>
			</g>
			<g id="XMLID_620_">
				<path id="XMLID_1340_" class="st3" d="M42.8,111c-3,0-5.5-2.5-5.5-5.5s2.5-5.5,5.5-5.5s5.5,2.5,5.5,5.5S45.8,111,42.8,111z
					 M42.8,101.5c-2.2,0-4,1.8-4,4s1.8,4,4,4s4-1.8,4-4S45,101.5,42.8,101.5z"/>
			</g>
			<g id="XMLID_614_">
				<rect id="XMLID_1339_" x="35.1" y="104.7" class="st3" width="1.5" height="1.5"/>
			</g>
			<g id="XMLID_575_">
				<rect id="XMLID_1338_" x="48.8" y="104.7" class="st3" width="1.5" height="1.5"/>
			</g>
		</g>
		<g id="XMLID_571_">
			<g id="XMLID_668_">
				
					<ellipse transform="matrix(0.9231 -0.3846 0.3846 0.9231 -21.9104 48.5253)" class="st5" cx="110.4" cy="79" rx="8.1" ry="8.1"/>
			</g>
			<g id="XMLID_667_">
				<path class="st6" d="M110.4,71c-2.8,0-5.2,1.4-6.7,3.5c1.3-0.9,2.8-1.4,4.5-1.4c4.5,0,8.1,3.6,8.1,8.1c0,1.7-0.5,3.2-1.4,4.5
					c2.1-1.5,3.5-3.9,3.5-6.7C118.4,74.6,114.8,71,110.4,71z"/>
			</g>
			<g id="XMLID_664_">
				<path class="st7" d="M116.9,92.1c0,0-1,2.8-2.3,3.4c-1.3,0.5-4-0.8-4-0.8s1-2.8,2.3-3.4C114.2,90.8,116.9,92.1,116.9,92.1z"/>
			</g>
			<g id="XMLID_652_">
				<g id="XMLID_656_">
					<g id="XMLID_659_">
						<path id="XMLID_1337_" class="st3" d="M111.3,83.2h-3.5v-1.5h3.5c0.5,0,0.9-0.4,0.9-0.9c0-0.5-0.4-0.9-0.9-0.9h-1.6
							c-1.3,0-2.4-1.1-2.4-2.4c0-1.3,1.1-2.4,2.4-2.4h3.4v1.5h-3.4c-0.5,0-0.9,0.4-0.9,0.9c0,0.5,0.4,0.9,0.9,0.9h1.6
							c1.3,0,2.4,1.1,2.4,2.4C113.7,82.1,112.6,83.2,111.3,83.2z"/>
					</g>
					<g id="XMLID_658_">
						<rect id="XMLID_1336_" x="109.8" y="73.9" class="st3" width="1.5" height="1.8"/>
					</g>
					<g id="XMLID_657_">
						<rect id="XMLID_1335_" x="109.8" y="82.4" class="st3" width="1.5" height="1.6"/>
					</g>
				</g>
				<g id="XMLID_655_">
					<path id="XMLID_1332_" class="st3" d="M110.4,87.8c-4.9,0-8.8-4-8.8-8.8s4-8.8,8.8-8.8c4.9,0,8.8,4,8.8,8.8
						S115.2,87.8,110.4,87.8z M110.4,71.7c-4,0-7.3,3.3-7.3,7.3c0,4,3.3,7.3,7.3,7.3c4,0,7.3-3.3,7.3-7.3
						C117.7,74.9,114.4,71.7,110.4,71.7z"/>
				</g>
				<g id="XMLID_654_">
					<rect id="XMLID_1331_" x="104.2" y="78.2" class="st3" width="1.9" height="1.5"/>
				</g>
				<g id="XMLID_653_">
					<rect id="XMLID_1330_" x="114.7" y="78.2" class="st3" width="1.9" height="1.5"/>
				</g>
			</g>
			<g id="XMLID_648_">
				<rect id="XMLID_1329_" x="109.6" y="87" class="st3" width="1.5" height="25.4"/>
			</g>
			<g id="XMLID_647_">
				<path id="XMLID_1324_" class="st5" d="M113,91.3c-1.3,0.5-2.3,3.4-2.3,3.4s2.7,1.3,4,0.8c1.3-0.5,2.3-3.4,2.3-3.4
					S114.2,90.8,113,91.3z"/>
				<path id="XMLID_1325_" class="st3" d="M113.9,96.4c-1.5,0-3.2-0.8-3.6-1l-0.6-0.3l0.2-0.6c0.2-0.5,1.2-3.2,2.7-3.8
					c1.5-0.6,4.1,0.6,4.6,0.8l0.6,0.3l-0.2,0.6c-0.2,0.5-1.2,3.2-2.7,3.8C114.6,96.3,114.3,96.4,113.9,96.4z M111.6,94.3
					c1,0.4,2.2,0.7,2.7,0.5c0.5-0.2,1.2-1.3,1.6-2.3c-1-0.4-2.2-0.7-2.7-0.5l0,0C112.7,92.2,112,93.3,111.6,94.3z"/>
			</g>
			<g id="XMLID_666_">
				<path class="st7" d="M103.6,92.1c0,0,1,2.8,2.3,3.4c1.3,0.5,4-0.8,4-0.8s-1-2.8-2.3-3.4C106.3,90.8,103.6,92.1,103.6,92.1z"/>
			</g>
			<g id="XMLID_665_">
				<path id="XMLID_1305_" class="st5" d="M103.6,92.1c0,0,1,2.8,2.3,3.4c1.3,0.5,4-0.8,4-0.8s-1-2.8-2.3-3.4
					C106.3,90.8,103.6,92.1,103.6,92.1z"/>
				<path id="XMLID_1321_" class="st3" d="M106.6,96.4c-0.4,0-0.7-0.1-1-0.2c-1.5-0.6-2.5-3.3-2.7-3.8l-0.2-0.6l0.6-0.3
					c0.5-0.2,3.1-1.4,4.6-0.8c1.5,0.6,2.5,3.3,2.7,3.8l0.2,0.6l-0.6,0.3C109.8,95.5,108.1,96.4,106.6,96.4z M104.5,92.5
					c0.4,1,1.1,2,1.6,2.3c0.5,0.2,1.8-0.1,2.7-0.5c-0.4-1-1.1-2-1.6-2.3C106.7,91.8,105.5,92.1,104.5,92.5z"/>
			</g>
			<g id="XMLID_646_">
				<rect id="XMLID_1320_" x="98.2" y="78.3" class="st3" width="2.9" height="1.5"/>
			</g>
			<g id="XMLID_645_">
				
					<rect id="XMLID_1319_" x="99.5" y="73.9" transform="matrix(0.3421 -0.9397 0.9397 0.3421 -4.8662 143.74)" class="st3" width="1.5" height="2.9"/>
			</g>
			<g id="XMLID_644_">
				
					<rect id="XMLID_1318_" x="119.1" y="74.5" transform="matrix(0.94 -0.3411 0.3411 0.94 -18.4298 45.625)" class="st3" width="2.9" height="1.5"/>
			</g>
			<g id="XMLID_643_">
				
					<rect id="XMLID_1317_" x="120.4" y="77.5" transform="matrix(1.011792e-03 -1 1 1.011792e-03 42.1618 200.0284)" class="st3" width="1.5" height="2.9"/>
			</g>
			<g id="XMLID_574_">
				
					<rect id="XMLID_1316_" x="119.8" y="81.2" transform="matrix(0.3431 -0.9393 0.9393 0.3431 1.6036 167.5173)" class="st3" width="1.5" height="2.9"/>
			</g>
			<g id="XMLID_573_">
				
					<rect id="XMLID_1315_" x="98.8" y="82" transform="matrix(0.9404 -0.34 0.34 0.9404 -22.1518 39.0148)" class="st3" width="2.9" height="1.5"/>
			</g>
		</g>
		<g id="XMLID_572_">
			<g id="XMLID_701_">
				<path class="st5" d="M99.8,91.6c0,3.2-2.6,5.8-5.8,5.8c-3.2,0-5.8-2.6-5.8-5.8c0-3.2,2.6-5.8,5.8-5.8
					C97.2,85.8,99.8,88.4,99.8,91.6z"/>
			</g>
			<g id="XMLID_700_">
				<path class="st6" d="M94,85.8c-2,0-3.7,1-4.8,2.5c0.9-0.6,2-1,3.2-1c3.2,0,5.8,2.6,5.8,5.8c0,1.2-0.4,2.3-1,3.2
					c1.5-1,2.5-2.8,2.5-4.8C99.8,88.4,97.2,85.8,94,85.8z"/>
			</g>
			<g id="XMLID_699_">
				<path class="st7" d="M98.7,100.2c0,0-0.7,2-1.6,2.4c-0.9,0.4-2.9-0.6-2.9-0.6s0.7-2,1.6-2.4C96.8,99.2,98.7,100.2,98.7,100.2z"
					/>
			</g>
			<g id="XMLID_680_">
				<g id="XMLID_685_">
					<g id="XMLID_698_">
						<path id="XMLID_1314_" class="st3" d="M94.7,94.7h-2.5v-1.5h2.5c0.3,0,0.5-0.2,0.5-0.5c0-0.3-0.2-0.5-0.5-0.5h-1.2
							c-1.1,0-2-0.9-2-2c0-1.1,0.9-2,2-2h2.4v1.5h-2.4c-0.3,0-0.5,0.2-0.5,0.5c0,0.3,0.2,0.5,0.5,0.5h1.2c1.1,0,2,0.9,2,2
							C96.6,93.9,95.7,94.7,94.7,94.7z"/>
					</g>
					<g id="XMLID_697_">
						<rect id="XMLID_1313_" x="93.4" y="87.9" class="st3" width="1.5" height="1.3"/>
					</g>
					<g id="XMLID_686_">
						<rect id="XMLID_1312_" x="93.4" y="94" class="st3" width="1.5" height="1.2"/>
					</g>
				</g>
				<g id="XMLID_684_">
					<path id="XMLID_1309_" class="st3" d="M94,98.1c-3.6,0-6.5-2.9-6.5-6.5c0-3.6,2.9-6.5,6.5-6.5c3.6,0,6.5,2.9,6.5,6.5
						C100.6,95.1,97.6,98.1,94,98.1z M94,86.5c-2.8,0-5,2.3-5,5s2.3,5,5,5c2.8,0,5-2.3,5-5S96.8,86.5,94,86.5z"/>
				</g>
				<g id="XMLID_683_">
					<rect id="XMLID_1308_" x="89.6" y="90.8" class="st3" width="1.4" height="1.5"/>
				</g>
				<g id="XMLID_682_">
					<rect id="XMLID_1307_" x="97.1" y="90.8" class="st3" width="1.4" height="1.5"/>
				</g>
			</g>
			<g id="XMLID_671_">
				<rect id="XMLID_1306_" x="93.3" y="97.3" class="st3" width="1.5" height="15.1"/>
			</g>
			<g id="XMLID_670_">
				<path id="XMLID_1301_" class="st5" d="M95.9,99.6c-0.9,0.4-1.6,2.4-1.6,2.4s1.9,0.9,2.9,0.6c0.9-0.4,1.6-2.4,1.6-2.4
					S96.8,99.2,95.9,99.6z"/>
				<path id="XMLID_1302_" class="st3" d="M96.6,103.4c-1.1,0-2.4-0.6-2.7-0.7l-0.6-0.3l0.2-0.6c0.1-0.4,0.9-2.4,2.1-2.8v0
					c1.2-0.5,3.1,0.4,3.5,0.6l0.6,0.3l-0.2,0.6c-0.1,0.4-0.9,2.4-2.1,2.8C97.1,103.4,96.8,103.4,96.6,103.4z M95.2,101.6
					c0.6,0.2,1.3,0.4,1.6,0.3c0.3-0.1,0.6-0.7,0.9-1.3c-0.6-0.2-1.3-0.4-1.6-0.3l0,0C95.9,100.4,95.5,101,95.2,101.6z"/>
			</g>
			<g id="XMLID_651_">
				<path class="st7" d="M88.8,100.2c0,0,0.7,2,1.6,2.4c0.9,0.4,2.9-0.6,2.9-0.6s-0.7-2-1.6-2.4C90.7,99.2,88.8,100.2,88.8,100.2z"
					/>
			</g>
			<g id="XMLID_650_">
				<path id="XMLID_1288_" class="st5" d="M88.7,100.2c0,0,0.7,2,1.6,2.4s2.8-0.6,2.8-0.6s-0.7-2-1.6-2.4
					C90.6,99.2,88.7,100.2,88.7,100.2z"/>
				<path id="XMLID_1298_" class="st3" d="M90.8,103.4c-0.3,0-0.5,0-0.8-0.1c-1.1-0.5-1.9-2.5-2-2.8l-0.2-0.6l0.6-0.3
					c0.4-0.2,2.2-1.1,3.3-0.6c1.1,0.5,1.9,2.5,2,2.8l0.2,0.6l-0.6,0.3C93.1,102.8,91.9,103.4,90.8,103.4z M89.7,100.6
					c0.3,0.6,0.7,1.2,0.9,1.3c0.3,0.1,0.9,0,1.5-0.3c-0.3-0.6-0.7-1.2-0.9-1.3C91,100.2,90.3,100.3,89.7,100.6z"/>
			</g>
		</g>
		<g id="XMLID_649_">
			<g id="XMLID_715_">
				<path class="st5" d="M132.5,91.6c0,3.2-2.6,5.8-5.8,5.8s-5.8-2.6-5.8-5.8c0-3.2,2.6-5.8,5.8-5.8S132.5,88.4,132.5,91.6z"/>
			</g>
			<g id="XMLID_714_">
				<path class="st6" d="M126.7,85.8c-2,0-3.7,1-4.8,2.5c0.9-0.6,2-1,3.2-1c3.2,0,5.8,2.6,5.8,5.8c0,1.2-0.4,2.3-1,3.2
					c1.5-1,2.5-2.8,2.5-4.8C132.5,88.4,129.9,85.8,126.7,85.8z"/>
			</g>
			<g id="XMLID_713_">
				<path class="st7" d="M131.5,100.2c0,0-0.7,2-1.6,2.4c-0.9,0.4-2.9-0.6-2.9-0.6s0.7-2,1.6-2.4
					C129.5,99.2,131.5,100.2,131.5,100.2z"/>
			</g>
			<g id="XMLID_705_">
				<g id="XMLID_709_">
					<g id="XMLID_712_">
						<path id="XMLID_1297_" class="st3" d="M127.4,94.7h-2.5v-1.5h2.5c0.3,0,0.5-0.2,0.5-0.5c0-0.3-0.2-0.5-0.5-0.5h-1.2
							c-1.1,0-2-0.9-2-2c0-1.1,0.9-2,2-2h2.4v1.5h-2.4c-0.3,0-0.5,0.2-0.5,0.5c0,0.3,0.2,0.5,0.5,0.5h1.2c1.1,0,2,0.9,2,2
							C129.3,93.9,128.5,94.7,127.4,94.7z"/>
					</g>
					<g id="XMLID_711_">
						<rect id="XMLID_1296_" x="126.1" y="87.9" class="st3" width="1.5" height="1.3"/>
					</g>
					<g id="XMLID_710_">
						<rect id="XMLID_1295_" x="126.1" y="94" class="st3" width="1.5" height="1.2"/>
					</g>
				</g>
				<g id="XMLID_708_">
					<path id="XMLID_1292_" class="st3" d="M126.8,98.1c-3.6,0-6.5-2.9-6.5-6.5c0-3.6,2.9-6.5,6.5-6.5c3.6,0,6.5,2.9,6.5,6.5
						C133.3,95.1,130.4,98.1,126.8,98.1z M126.8,86.5c-2.8,0-5,2.3-5,5s2.3,5,5,5s5-2.3,5-5S129.5,86.5,126.8,86.5z"/>
				</g>
				<g id="XMLID_707_">
					<rect id="XMLID_1291_" x="122.4" y="90.8" class="st3" width="1.4" height="1.5"/>
				</g>
				<g id="XMLID_706_">
					<rect id="XMLID_1290_" x="129.8" y="90.8" class="st3" width="1.4" height="1.5"/>
				</g>
			</g>
			<g id="XMLID_704_">
				<rect id="XMLID_1289_" x="126" y="97.3" class="st3" width="1.5" height="15.1"/>
			</g>
			<g id="XMLID_703_">
				<path id="XMLID_1284_" class="st5" d="M128.6,99.6c-0.9,0.4-1.6,2.4-1.6,2.4s1.9,0.9,2.9,0.6c0.9-0.4,1.6-2.4,1.6-2.4
					S129.5,99.2,128.6,99.6z"/>
				<path id="XMLID_1285_" class="st3" d="M129.3,103.4c-1.1,0-2.4-0.6-2.7-0.7l-0.6-0.3l0.2-0.6c0.1-0.4,0.9-2.4,2.1-2.8
					c1.2-0.5,3.1,0.4,3.5,0.6l0.6,0.3l-0.2,0.6c-0.1,0.4-0.9,2.4-2.1,2.8C129.8,103.4,129.6,103.4,129.3,103.4z M127.9,101.6
					c0.6,0.2,1.3,0.4,1.6,0.3c0.3-0.1,0.7-0.7,1-1.3c-0.6-0.2-1.3-0.4-1.6-0.3C128.6,100.4,128.2,101,127.9,101.6z"/>
			</g>
			<g id="XMLID_702_">
				<path class="st7" d="M121.5,100.2c0,0,0.7,2,1.6,2.4c0.9,0.4,2.9-0.6,2.9-0.6s-0.7-2-1.6-2.4
					C123.4,99.2,121.5,100.2,121.5,100.2z"/>
			</g>
			<g id="XMLID_669_">
				<path id="XMLID_1231_" class="st5" d="M121.5,100.2c0,0,0.7,2,1.6,2.4c0.9,0.4,2.9-0.6,2.9-0.6s-0.7-2-1.6-2.4
					C123.4,99.2,121.5,100.2,121.5,100.2z"/>
				<path id="XMLID_1281_" class="st3" d="M123.7,103.4c-0.3,0-0.6,0-0.8-0.1c-1.2-0.5-1.9-2.5-2.1-2.8l-0.2-0.6l0.6-0.3
					c0.4-0.2,2.3-1.1,3.5-0.6c1.2,0.5,1.9,2.5,2.1,2.8l0.2,0.6l-0.6,0.3C126,102.8,124.8,103.4,123.7,103.4z M122.5,100.6
					c0.3,0.6,0.7,1.2,0.9,1.3c0.3,0.1,0.9,0,1.6-0.3c-0.3-0.6-0.7-1.2-0.9-1.3C123.8,100.2,123.1,100.3,122.5,100.6z"/>
			</g>
		</g>
		<g id="XMLID_364_">
			<g id="XMLID_570_">
				<circle class="st5" cx="63.4" cy="96.2" r="16"/>
			</g>
			<g id="XMLID_569_">
				<circle class="st6" cx="63.4" cy="96.2" r="3.5"/>
			</g>
			<g id="XMLID_568_">
				
					<rect id="XMLID_1280_" x="56.1" y="80.4" transform="matrix(0.7106 -0.7036 0.7036 0.7106 -46.5718 65.9665)" class="st3" width="1.5" height="18.5"/>
			</g>
			<g id="XMLID_567_">
				<polygon id="XMLID_1279_" class="st3" points="48.8,81.4 45.1,81.4 45.1,79.9 47.3,79.9 47.3,77.7 48.8,77.7 				"/>
			</g>
			<g id="XMLID_566_">
				<polygon id="XMLID_1278_" class="st3" points="51.1,83.8 47.5,83.8 47.5,82.3 49.6,82.3 49.6,80.1 51.1,80.1 				"/>
			</g>
			<g id="XMLID_611_">
				<path id="XMLID_1277_" class="st3" d="M66.3,90.6c-0.4-0.2-0.8-0.4-1.2-0.5l0.4-1.4c0.5,0.1,1,0.3,1.5,0.6L66.3,90.6z"/>
			</g>
			<g id="XMLID_610_">
				<path id="XMLID_1276_" class="st3" d="M68.9,93.2c-0.2-0.3-0.4-0.7-0.7-1l1.2-1c0.3,0.4,0.6,0.8,0.8,1.2L68.9,93.2z"/>
			</g>
			<g id="XMLID_609_">
				<path id="XMLID_1275_" class="st3" d="M71.1,96.8l-1.5-0.1c0-0.4,0-0.8,0-1.2l1.5-0.2C71.2,95.8,71.2,96.3,71.1,96.8z"/>
			</g>
			<g id="XMLID_608_">
				<path id="XMLID_1274_" class="st3" d="M69.4,101l-1.2-0.9c0.3-0.3,0.5-0.7,0.7-1l1.3,0.7C70,100.2,69.7,100.7,69.4,101z"/>
			</g>
			<g id="XMLID_558_">
				<path id="XMLID_1273_" class="st3" d="M65.8,103.5l-0.5-1.4c0.4-0.1,0.8-0.3,1.1-0.5l0.7,1.3C66.7,103.2,66.2,103.4,65.8,103.5z
					"/>
			</g>
			<g id="XMLID_556_">
				<path id="XMLID_1272_" class="st3" d="M62.8,103.9c-0.5,0-1-0.1-1.5-0.3l0.4-1.4c0.4,0.1,0.8,0.2,1.2,0.2L62.8,103.9z"/>
			</g>
			<g id="XMLID_555_">
				<path id="XMLID_1271_" class="st3" d="M58.5,102.2c-0.4-0.3-0.7-0.7-1.1-1.1l1.2-1c0.3,0.3,0.5,0.6,0.9,0.8L58.5,102.2z"/>
			</g>
			<g id="XMLID_553_">
				<path id="XMLID_1270_" class="st3" d="M56,98.5c-0.2-0.5-0.3-1-0.3-1.5l1.5-0.2c0,0.4,0.1,0.8,0.3,1.2L56,98.5z"/>
			</g>
			<g id="XMLID_550_">
				<path id="XMLID_1269_" class="st3" d="M63.4,100c-1,0-2-0.4-2.7-1.1c-0.7-0.7-1.1-1.7-1.1-2.7h1.5c0,0.6,0.2,1.2,0.7,1.7
					c0.9,0.9,2.4,0.9,3.3,0c0.4-0.4,0.7-1,0.7-1.7c0-0.6-0.2-1.2-0.7-1.7c-0.9-0.9-2.4-0.9-3.3,0l-1.1-1.1c1.5-1.4,4-1.4,5.4,0
					c0.7,0.7,1.1,1.7,1.1,2.7c0,1-0.4,2-1.1,2.7C65.4,99.6,64.4,100,63.4,100z"/>
			</g>
			<g id="XMLID_548_">
				<path id="XMLID_1268_" class="st3" d="M63.4,108.5c-3.3,0-6.4-1.3-8.7-3.6c-2.3-2.3-3.6-5.4-3.6-8.7c0-2.7,0.9-5.3,2.5-7.5
					l1.2,0.9c-1.4,1.9-2.2,4.2-2.2,6.6c0,2.9,1.1,5.6,3.2,7.7c2,2,4.8,3.2,7.7,3.2s5.6-1.1,7.7-3.2c2-2,3.2-4.8,3.2-7.7
					c0-2.9-1.1-5.6-3.2-7.7c-2-2-4.8-3.2-7.7-3.2s-5.6,1.1-7.7,3.2l-1.1-1.1c2.3-2.3,5.4-3.6,8.7-3.6c3.3,0,6.4,1.3,8.7,3.6
					c2.3,2.3,3.6,5.4,3.6,8.7s-1.3,6.4-3.6,8.7C69.8,107.2,66.7,108.5,63.4,108.5z"/>
			</g>
			<g id="XMLID_531_">
				<path id="XMLID_1267_" class="st3" d="M63.4,112.9c-4.5,0-8.7-1.7-11.8-4.9c-3.2-3.2-4.9-7.4-4.9-11.8c0-3.8,1.3-7.6,3.8-10.6
					l1.2,0.9c-2.2,2.7-3.4,6.1-3.4,9.6c0,4.1,1.6,7.9,4.5,10.8c2.9,2.9,6.7,4.5,10.8,4.5c4.1,0,7.9-1.6,10.8-4.5
					c2.9-2.9,4.5-6.7,4.5-10.8c0-4.1-1.6-7.9-4.5-10.8c-2.9-2.9-6.7-4.5-10.8-4.5c-4.1,0-7.9,1.6-10.8,4.5l-1.1-1.1
					c3.2-3.2,7.4-4.9,11.8-4.9c4.5,0,8.7,1.7,11.8,4.9c3.2,3.2,4.9,7.4,4.9,11.8c0,4.5-1.7,8.7-4.9,11.8
					C72.1,111.1,67.9,112.9,63.4,112.9z"/>
			</g>
		</g>
		<g id="XMLID_716_">
			<g id="XMLID_755_">
				<path class="st2" d="M179.2,99.8l-8.3-8.3c0,0-0.1,0-0.1,0c0,0-0.1,0-0.1,0l-8.3,8.3c-0.1,0.1,0,0.2,0.1,0.2h3.7v12.4h9.3V100
					h3.7C179.2,100,179.3,99.9,179.2,99.8z"/>
			</g>
			<g id="XMLID_753_">
				<path class="st3" d="M162.3,99.8c-0.1,0.1,0,0.2,0.1,0.2h3.7v12.4h2.9V93.1L162.3,99.8z"/>
			</g>
			<g id="XMLID_752_">
				<path class="st5" d="M170.4,82.9l-11.5-11.5c0,0-0.1-0.1-0.2,0c-0.1,0-0.1,0-0.2,0L147,82.9c-0.1,0.1,0,0.3,0.1,0.3h5.1v29.2
					h12.9V83.2h5.1C170.4,83.2,170.5,83,170.4,82.9z"/>
			</g>
			<g id="XMLID_720_">
				<path id="XMLID_1266_" class="st3" d="M166.1,112.4h-1.5v-30h4.7l-10.5-10.5l-10.5,10.5h4.7v30h-1.5V84h-4.5
					c-0.4,0-0.7-0.2-0.9-0.6c-0.1-0.4-0.1-0.8,0.2-1L158,70.5c0.4-0.4,1-0.4,1.3,0l11.9,11.9c0.3,0.3,0.4,0.7,0.2,1
					c-0.1,0.4-0.5,0.6-0.9,0.6h-4.5V112.4z"/>
			</g>
			<g id="XMLID_719_">
				<path id="XMLID_1265_" class="st3" d="M176.3,112.4h-1.5v-12.2h3.4l-7.8-7.8l-1.9,1.9l-1.1-1.1l2.3-2.3c0.4-0.4,0.9-0.4,1.3,0
					l9.2,9.2c0.3,0.3,0.3,0.6,0.2,1c-0.1,0.3-0.5,0.6-0.8,0.6h-3.3V112.4z"/>
			</g>
		</g>
		<g id="XMLID_2_">
			<g id="XMLID_184_">
				<path class="st5" d="M194.6,90.8c0,4.4-3.6,8.1-8.1,8.1l0,0c-4.4,0-8.1-3.6-8.1-8.1v-9.9l-1.9-0.7c0,0-0.1,0-0.1-0.1v-3.3
					c0-0.1,0.1-0.1,0.1-0.1h19.8c0.1,0,0.1,0.1,0.1,0.1v3.3c0,0,0,0.1-0.1,0.1l-1.9,0.7V90.8z"/>
			</g>
			<g id="XMLID_180_">
				<path class="st6" d="M196.4,76.7h-4.3c0.1,0,0,0.1,0,0.1v3.3c0,0,0,0.1,0,0.1v0.7v9.9c0,4-2.9,7.3-6.8,7.9
					c0.4,0.1,0.8,0.1,1.3,0.1l0,0c4.4,0,8.1-3.6,8.1-8.1v-9.9l1.9-0.7c0,0,0.1,0,0.1-0.1v-3.3C196.5,76.7,196.5,76.7,196.4,76.7z"/>
			</g>
			<g id="XMLID_179_">
				<path class="st5" d="M194.5,112.4h-15.9c-0.1,0-0.2-0.1-0.2-0.2v-5.6c0-0.1,0.1-0.2,0.2-0.2h15.9c0.1,0,0.2,0.1,0.2,0.2v5.6
					C194.7,112.3,194.6,112.4,194.5,112.4z"/>
			</g>
			<g id="XMLID_177_">
				<path class="st6" d="M194.5,106.5h-3.2v3.3c0,0.1-0.1,0.2-0.2,0.2h-12.8v2.4c0,0.1,0.1,0.2,0.2,0.2h16c0.1,0,0.2-0.1,0.2-0.2
					v-5.7C194.7,106.5,194.6,106.5,194.5,106.5z"/>
			</g>
			<g id="XMLID_173_">
				<path class="st5" d="M183.6,106.1v-0.3c0-1.2,0.7-2.2,1.7-2.8l0,0v-4.7h2.5v4.7l0,0c1,0.5,1.7,1.6,1.7,2.8v0.3H183.6z"/>
			</g>
			<g id="XMLID_171_">
				<path class="st2" d="M189,92.2l-2.5-1.3l-2.5,1.3c-0.3,0.2-0.7-0.1-0.6-0.4L184,89l-2-2c-0.2-0.2-0.1-0.7,0.2-0.7l2.8-0.4
					l1.3-2.5c0.2-0.3,0.6-0.3,0.7,0l1.2,2.5l2.8,0.4c0.3,0.1,0.5,0.5,0.2,0.7l-2,1.9l0.4,2.8C189.6,92.1,189.3,92.4,189,92.2z"/>
			</g>
			<g id="XMLID_167_">
				<path id="XMLID_1262_" class="st3" d="M186.5,99.6c-4.9,0-8.8-3.9-8.8-8.8v-9.4l-1.9-0.7l-0.1-0.6v-3.3c0-0.5,0.4-0.9,0.9-0.9
					h19.8c0.5,0,0.9,0.4,0.9,0.9v3.8l-0.6,0.3l-1.4,0.5v9.4C195.3,95.6,191.4,99.6,186.5,99.6z M177.3,79.6l2,0.7v10.5
					c0,4,3.3,7.3,7.3,7.3c4,0,7.3-3.3,7.3-7.3V80.3l2-0.7v-2.2h-18.5V79.6z"/>
			</g>
			<g id="XMLID_147_">
				<path id="XMLID_1261_" class="st3" d="M175.8,93.6c-0.4,0-0.7-0.1-1-0.2c-0.3-0.1-0.6-0.3-0.8-0.6c-0.2-0.2-0.4-0.5-0.6-0.8
					c-0.1-0.3-0.2-0.7-0.2-1h1.5c0,0.2,0,0.3,0.1,0.5c0.1,0.1,0.1,0.3,0.2,0.4c0.1,0.1,0.2,0.2,0.4,0.2c0.3,0.1,0.6,0.1,0.9,0
					c0.1-0.1,0.3-0.1,0.4-0.2c0.1-0.1,0.2-0.2,0.2-0.4c0.1-0.1,0.1-0.3,0.1-0.5c0-0.2,0-0.3-0.1-0.4c-0.1-0.1-0.1-0.3-0.2-0.4
					c-0.1-0.1-0.2-0.2-0.4-0.2l-2.3-1.1c-0.4-0.2-0.9-0.5-1.2-0.8c-0.4-0.4-0.6-0.8-0.8-1.2c-0.2-0.5-0.3-1-0.3-1.5
					c0-0.5,0.1-1,0.3-1.5c0.2-0.5,0.5-0.9,0.8-1.2c0.4-0.4,0.8-0.6,1.2-0.8c1-0.4,2.1-0.4,3,0c0.5,0.2,0.9,0.5,1.2,0.8
					c0.4,0.4,0.6,0.8,0.8,1.2l-1.4,0.6c-0.1-0.3-0.3-0.5-0.5-0.8c-0.2-0.2-0.5-0.4-0.8-0.5c-0.6-0.3-1.3-0.3-1.9,0
					c-0.3,0.1-0.5,0.3-0.8,0.5c-0.2,0.2-0.4,0.5-0.5,0.8c-0.1,0.3-0.2,0.6-0.2,0.9c0,0.3,0.1,0.6,0.2,0.9c0.1,0.3,0.3,0.5,0.5,0.8
					c0.2,0.2,0.5,0.4,0.8,0.5l2.3,1.1c0.3,0.1,0.6,0.3,0.8,0.6c0.2,0.2,0.4,0.5,0.6,0.8c0.1,0.3,0.2,0.7,0.2,1c0,0.4-0.1,0.7-0.2,1
					c-0.1,0.3-0.3,0.6-0.6,0.8c-0.2,0.2-0.5,0.4-0.8,0.6C176.5,93.6,176.2,93.6,175.8,93.6z"/>
			</g>
			<g id="XMLID_146_">
				<path id="XMLID_1260_" class="st3" d="M197.2,93.6c-0.4,0-0.7-0.1-1-0.2c-0.3-0.1-0.6-0.3-0.8-0.6c-0.2-0.2-0.4-0.5-0.6-0.8
					c-0.1-0.3-0.2-0.7-0.2-1c0-0.4,0.1-0.7,0.2-1c0.1-0.3,0.3-0.6,0.6-0.8c0.2-0.2,0.5-0.4,0.8-0.6l2.2-1c0.3-0.1,0.6-0.3,0.8-0.5
					c0.2-0.2,0.4-0.5,0.5-0.8c0.1-0.3,0.2-0.6,0.2-0.9c0-0.3-0.1-0.6-0.2-0.9c-0.1-0.3-0.3-0.5-0.5-0.8c-0.2-0.2-0.5-0.4-0.8-0.5
					c-0.6-0.3-1.3-0.3-1.9,0c-0.3,0.1-0.5,0.3-0.8,0.5c-0.2,0.2-0.4,0.5-0.5,0.8l-1.4-0.6c0.2-0.5,0.5-0.9,0.8-1.2
					c0.4-0.4,0.8-0.6,1.2-0.8c1-0.4,2.1-0.4,3,0c0.5,0.2,0.9,0.5,1.2,0.8c0.4,0.4,0.6,0.8,0.8,1.2c0.2,0.5,0.3,1,0.3,1.5
					c0,0.5-0.1,1-0.3,1.5c-0.2,0.5-0.5,0.9-0.8,1.2c-0.4,0.4-0.8,0.6-1.2,0.8l-2.2,1c-0.2,0.1-0.3,0.2-0.4,0.3
					c-0.1,0.1-0.2,0.2-0.2,0.4c-0.1,0.1-0.1,0.3-0.1,0.5c0,0.2,0,0.3,0.1,0.5c0.1,0.1,0.1,0.3,0.2,0.4c0.1,0.1,0.2,0.2,0.4,0.2
					c0.3,0.1,0.6,0.1,0.9,0c0.1-0.1,0.3-0.1,0.4-0.2c0.1-0.1,0.2-0.2,0.2-0.4c0.1-0.1,0.1-0.3,0.1-0.5h1.5c0,0.4-0.1,0.7-0.2,1
					c-0.1,0.3-0.3,0.6-0.6,0.8c-0.2,0.2-0.5,0.4-0.8,0.6C197.9,93.6,197.6,93.6,197.2,93.6z"/>
			</g>
			<g id="XMLID_140_">
				<path id="XMLID_1257_" class="st3" d="M194.5,113.2h-15.9c-0.5,0-0.9-0.4-0.9-0.9v-5.6c0-0.5,0.4-0.9,0.9-0.9h15.9
					c0.5,0,0.9,0.4,0.9,0.9v5.6C195.4,112.8,195,113.2,194.5,113.2z M179.1,111.7h14.8v-4.5h-14.8V111.7z"/>
			</g>
			<g id="XMLID_116_">
				<path id="XMLID_1256_" class="st3" d="M184.3,106.5h-1.5v-0.3c0-1.3,0.6-2.5,1.7-3.2v-4.3h1.5v5.2l-0.4,0.2
					c-0.8,0.4-1.3,1.2-1.3,2.1V106.5z"/>
			</g>
			<g id="XMLID_91_">
				<path id="XMLID_1255_" class="st3" d="M190.2,106.5h-1.5v-0.3c0-0.9-0.5-1.7-1.3-2.1l-0.4-0.2v-5.2h1.5v4.3
					c1.1,0.7,1.7,1.9,1.7,3.2V106.5z"/>
			</g>
			<g id="XMLID_83_">
				<path id="XMLID_1252_" class="st3" d="M189.1,93c-0.2,0-0.4,0-0.6-0.1l-2.1-1.1l-2.1,1.1c-0.4,0.2-0.9,0.2-1.2-0.1
					c-0.4-0.3-0.5-0.7-0.5-1.1l0.4-2.4l-1.7-1.7c-0.3-0.3-0.4-0.8-0.3-1.2c0.1-0.4,0.5-0.7,0.9-0.8l2.4-0.3l1.1-2.1
					c0.2-0.4,0.6-0.6,1-0.6c0,0,0,0,0,0c0.4,0,0.8,0.3,1,0.7l1,2.2l2.4,0.4c0.4,0.1,0.8,0.4,0.9,0.8c0.1,0.4,0,0.9-0.3,1.2l-1.7,1.7
					l0.4,2.4c0.1,0.4-0.1,0.9-0.5,1.1C189.6,92.9,189.4,93,189.1,93z M186.5,90l2.2,1.2l-0.4-2.5l1.8-1.7l-2.5-0.4l-1.1-2.2
					l-1.1,2.2l-2.5,0.3l1.8,1.8l-0.4,2.5L186.5,90z"/>
			</g>
		</g>
		<g id="XMLID_122_">
			<g id="XMLID_125_">
				<path id="XMLID_1251_" class="st3" d="M205.6,113.2H21.4c-0.4,0-0.8-0.3-0.8-0.8c0-0.4,0.3-0.8,0.8-0.8h184.2
					c0.4,0,0.8,0.3,0.8,0.8C206.3,112.8,206,113.2,205.6,113.2z"/>
			</g>
			<g id="XMLID_124_">
				<path id="XMLID_1250_" class="st3" d="M211,113.2h-2.7c-0.4,0-0.8-0.3-0.8-0.8c0-0.4,0.3-0.8,0.8-0.8h2.7c0.4,0,0.8,0.3,0.8,0.8
					C211.8,112.8,211.4,113.2,211,113.2z"/>
			</g>
			<g id="XMLID_123_">
				<path id="XMLID_1249_" class="st3" d="M18.7,113.2h-4.6c-0.4,0-0.8-0.3-0.8-0.8c0-0.4,0.3-0.8,0.8-0.8h4.6
					c0.4,0,0.8,0.3,0.8,0.8C19.4,112.8,19.1,113.2,18.7,113.2z"/>
			</g>
		</g>
	</g>
</g>
<g id="Explore">
</g>
<g id="Innovation">
</g>
<g id="Technical_Support">
</g>
</svg>
