<?xml version="1.0" encoding="utf-8"?>
<!-- Generator: Adobe Illustrator 22.1.0, SVG Export Plug-In . SVG Version: 6.00 Build 0)  -->
<svg version="1.1" xmlns="http://www.w3.org/2000/svg" xmlns:xlink="http://www.w3.org/1999/xlink" x="0px" y="0px"
	 viewBox="0 0 1534.3 637.2" style="enable-background:new 0 0 1534.3 637.2;" xml:space="preserve">
<style type="text/css">
	.st0{fill:#FFFFFF;}
	.st1{fill:#25CE9E;}
	.st2{fill:#1C3E58;}
	.st3{fill:#2B71B5;}
	.st4{fill:#FABF62;}
	.st5{fill:#4088DA;}
	.st6{fill:#EBF0F6;}
</style>
<g id="Back">
</g>
<g id="Text">
	<g>
		<g>
			<g>
				<g>
					<path class="st0" d="M855.2-59.9h-7.4l-1.7,4.6h-2.4l6.7-17.6h2l6.7,17.6h-2.4L855.2-59.9z M848.5-61.8h6l-3-8.2L848.5-61.8z"
						/>
				</g>
			</g>
		</g>
		<g>
			<g>
				<g>
					<path class="st0" d="M861.6-55.2v-17.6h5.8c0.9,0,1.7,0.1,2.4,0.3c0.7,0.2,1.3,0.5,1.8,0.8c0.5,0.4,0.9,0.9,1.1,1.5
						c0.3,0.6,0.4,1.3,0.4,2.1c0,0.8-0.2,1.6-0.7,2.2c-0.5,0.6-1.1,1.1-1.9,1.5c0.5,0.1,0.9,0.3,1.3,0.6c0.4,0.3,0.7,0.6,1,0.9
						c0.3,0.4,0.5,0.8,0.6,1.2c0.1,0.5,0.2,0.9,0.2,1.4c0,0.8-0.1,1.6-0.4,2.2c-0.3,0.6-0.7,1.2-1.2,1.6c-0.5,0.4-1.1,0.8-1.8,1
						c-0.7,0.2-1.5,0.3-2.4,0.3H861.6z M864-65.4h3.5c0.5,0,1-0.1,1.4-0.2c0.4-0.1,0.8-0.3,1.1-0.6c0.3-0.2,0.5-0.5,0.7-0.9
						c0.2-0.4,0.2-0.7,0.2-1.2c0-1-0.3-1.7-0.8-2.1c-0.6-0.4-1.4-0.7-2.6-0.7H864V-65.4z M864-63.5v6.3h3.8c0.6,0,1.1-0.1,1.5-0.2
						c0.4-0.1,0.8-0.4,1.1-0.6c0.3-0.3,0.5-0.6,0.7-1c0.2-0.4,0.2-0.8,0.2-1.3c0-0.5-0.1-0.9-0.2-1.3c-0.1-0.4-0.3-0.7-0.6-1
						c-0.3-0.3-0.6-0.5-1.1-0.6c-0.4-0.1-0.9-0.2-1.5-0.2H864z"/>
				</g>
			</g>
		</g>
		<g>
			<g>
				<g>
					<path class="st0" d="M890.6-63.5c0,1.3-0.2,2.5-0.5,3.6c-0.3,1-0.8,1.9-1.4,2.7c-0.6,0.7-1.4,1.3-2.2,1.7
						c-0.9,0.4-1.8,0.6-2.9,0.6c-1,0-2-0.2-2.9-0.6c-0.9-0.4-1.6-0.9-2.3-1.7c-0.6-0.7-1.1-1.6-1.5-2.7c-0.3-1-0.5-2.2-0.5-3.6v-1.1
						c0-1.3,0.2-2.5,0.5-3.6c0.3-1.1,0.8-1.9,1.5-2.7c0.6-0.7,1.4-1.3,2.2-1.7c0.9-0.4,1.8-0.6,2.9-0.6c1.1,0,2,0.2,2.9,0.6
						c0.9,0.4,1.6,1,2.2,1.7c0.6,0.7,1.1,1.6,1.4,2.7c0.3,1.1,0.5,2.2,0.5,3.6V-63.5z M888.3-64.6c0-1-0.1-2-0.3-2.8
						c-0.2-0.8-0.5-1.5-0.9-2c-0.4-0.5-0.9-1-1.5-1.2c-0.6-0.3-1.3-0.4-2-0.4c-0.7,0-1.4,0.1-2,0.4c-0.6,0.3-1.1,0.7-1.5,1.2
						c-0.4,0.5-0.7,1.2-1,2c-0.2,0.8-0.3,1.7-0.3,2.8v1.1c0,1.1,0.1,2,0.3,2.8c0.2,0.8,0.6,1.5,1,2c0.4,0.6,0.9,1,1.5,1.3
						c0.6,0.3,1.2,0.4,2,0.4c0.8,0,1.4-0.1,2-0.4c0.6-0.3,1.1-0.7,1.5-1.3c0.4-0.6,0.7-1.2,0.9-2c0.2-0.8,0.3-1.7,0.3-2.8V-64.6z"/>
				</g>
			</g>
		</g>
		<g>
			<g>
				<g>
					<path class="st0" d="M906.5-72.9v11.9c0,1-0.2,1.9-0.5,2.6c-0.3,0.7-0.8,1.4-1.4,1.9c-0.6,0.5-1.3,0.9-2,1.1
						c-0.8,0.2-1.6,0.4-2.4,0.4c-0.9,0-1.7-0.1-2.5-0.4c-0.8-0.2-1.4-0.6-2-1.1c-0.6-0.5-1-1.1-1.3-1.9c-0.3-0.7-0.5-1.6-0.5-2.6
						v-11.9h2.3v11.9c0,0.7,0.1,1.3,0.3,1.8c0.2,0.5,0.5,0.9,0.8,1.3c0.4,0.3,0.8,0.6,1.3,0.7c0.5,0.2,1,0.2,1.7,0.2
						c0.6,0,1.2-0.1,1.7-0.2c0.5-0.2,0.9-0.4,1.3-0.7c0.4-0.3,0.6-0.8,0.8-1.3c0.2-0.5,0.3-1.1,0.3-1.8v-11.9H906.5z"/>
				</g>
			</g>
		</g>
		<g>
			<g>
				<g>
					<path class="st0" d="M922.4-71h-5.7v15.7h-2.3V-71h-5.7v-1.9h13.6V-71z"/>
				</g>
			</g>
		</g>
	</g>
</g>
<g id="Illustration">
	<g>
		<g>
			<path class="st1" d="M1472.4,249.3c-21.7,0-42.2,4.7-60.4,13.1l16.3,20.9l-4.4,31.9l-0.2-0.2l-32-3.6l-17.8-22.9
				c-23.4,22.8-37.8,53.6-37.8,87.6c0,70,61,126.8,136.3,126.8c22.3,0,43.3-5,61.9-13.8v-226
				C1515.7,254.3,1494.7,249.3,1472.4,249.3z"/>
		</g>
		<g>
			<path class="st0" d="M1472.4,285.5c-16.6,0-32.2,3.9-45.9,10.7l-2.6,19.1l-0.2-0.2l-20.8-2.3c-17.2,16.3-27.9,38.7-27.9,63.4
				c0,50.1,43.6,90.6,97.4,90.6c23.5,0,45-7.7,61.9-20.6v-140C1517.4,293.3,1495.9,285.5,1472.4,285.5z"/>
			<path class="st2" d="M1472.4,463.4c-51.9,0-94.1-39.2-94.1-87.3c0-22.4,9.1-43.7,25.7-60l18.3,2.1c0.7,0.4,1.6,0.5,2.4,0.3
				c1.3-0.3,2.3-1.4,2.4-2.8l2.4-17.3c13.2-6.3,28-9.6,42.8-9.6c22.9,0,44.7,7.6,61.9,21.6V302c-17.6-12.8-39.2-19.8-61.9-19.8
				c-16.5,0-32.9,3.8-47.4,11c-1,0.5-1.7,1.4-1.8,2.5l-2.2,15.6l-17.8-2c-1-0.1-2,0.2-2.7,0.9c-18.6,17.7-28.9,41.1-28.9,65.9
				c0,51.8,45.2,94,100.7,94c22.6,0,44.2-7,61.9-19.8v-8.4C1517.1,455.8,1495.3,463.4,1472.4,463.4z"/>
		</g>
		<g>
			<rect x="1356.2" y="532.1" class="st3" width="23.1" height="48.4"/>
			<path class="st2" d="M1379.3,528.7h-23.1c-1.8,0-3.3,1.5-3.3,3.3v48.4c0,1.8,1.5,3.3,3.3,3.3h23.1c1.8,0,3.3-1.5,3.3-3.3v-48.4
				C1382.7,530.2,1381.2,528.7,1379.3,528.7z M1376,577.1h-16.5v-41.7h16.5V577.1z"/>
		</g>
		<g>
			<path class="st1" d="M1472.4,313.4c-37.3,0-67.5,28.1-67.5,62.8c0,34.7,30.2,62.8,67.5,62.8c27.7,0,51.5-15.5,61.9-37.8v-50
				C1523.9,328.9,1500.1,313.4,1472.4,313.4z"/>
		</g>
		<g>
			<path class="st0" d="M1472.4,345.1c-18.4,0-33.4,13.9-33.4,31.1c0,17.2,14.9,31.1,33.4,31.1c18.4,0,33.4-13.9,33.4-31.1
				C1505.8,359,1490.8,345.1,1472.4,345.1z"/>
			<path class="st2" d="M1472.4,341.7c-20.2,0-36.7,15.4-36.7,34.4c0,19,16.5,34.4,36.7,34.4c20.2,0,36.7-15.4,36.7-34.4
				C1509.1,357.2,1492.6,341.7,1472.4,341.7z M1472.4,403.9c-16.6,0-30-12.4-30-27.7c0-15.3,13.5-27.7,30-27.7
				c16.6,0,30,12.4,30,27.7C1502.4,391.4,1489,403.9,1472.4,403.9z"/>
		</g>
		<g>
			<path class="st1" d="M1472.4,363.1c-7.7,0-14,5.8-14,13c0,7.2,6.3,13,14,13s14-5.8,14-13C1486.4,368.9,1480.1,363.1,1472.4,363.1
				z"/>
		</g>
		<g>
			<path class="st4" d="M1279,333.6l-25.6,0.6l-25.6-0.6c0,0-17.2-5.9-20.8,3.5c-6.7,17,8.5,24,8.5,24l4.4-10.9
				c0.7-1.7,2.4-2.9,4.2-2.9h29.4h29.4c1.9,0,3.5,1.1,4.2,2.9l4.4,10.9c0,0,15.2-7,8.5-24C1296.1,327.8,1279,333.6,1279,333.6z"/>
			<path class="st2" d="M1278.4,330.3l-25,0.6l-25-0.6c-7.6-2.5-20.8-3.9-24.5,5.6c-6.2,15.8,3.9,25.4,10.2,28.3
				c0.8,0.4,1.8,0.4,2.6,0.1c0.8-0.3,1.5-1,1.9-1.9l4.4-10.9c0.2-0.5,0.6-0.8,1.1-0.8h58.8c0.5,0,0.9,0.3,1.1,0.8l4.4,10.9
				c0.3,0.8,1,1.5,1.9,1.9c0.4,0.2,0.8,0.2,1.2,0.2c0.5,0,1-0.1,1.4-0.3c6.2-2.9,16.4-12.5,10.2-28.3
				C1299.2,326.4,1286,327.8,1278.4,330.3z M1292.9,356.2l-2.9-7.1c-1.2-3-4.1-4.9-7.3-4.9h-58.8c-3.2,0-6.1,1.9-7.3,4.9l-2.9,7.1
				c-3.3-2.7-7.5-8.3-3.8-17.8c2-5.2,13-2.8,16.7-1.6c0.3,0.1,0.7,0.2,1,0.2l25.6,0.6c0.1,0,0.1,0,0.2,0l25.6-0.6
				c0.3,0,0.7-0.1,1-0.2c3.7-1.2,14.6-3.6,16.7,1.6C1300.5,347.9,1296.2,353.5,1292.9,356.2z"/>
		</g>
		<g>
			<path class="st2" d="M1506.4,46.5h-19.7c-11.2,0-20.4,9.1-20.4,20.4v10.6c0,1.8,1.5,3.3,3.3,3.3c1.8,0,3.3-1.5,3.3-3.3V66.9
				c0-7.6,6.1-13.7,13.7-13.7h19.7c1.8,0,3.3-1.5,3.3-3.3C1509.8,48,1508.3,46.5,1506.4,46.5z"/>
		</g>
		<g>
			<rect x="1497.8" y="42" class="st5" width="36.4" height="15.8"/>
			<path class="st2" d="M1501.2,54.4v-9.1h33.1v-6.7h-36.4c-1.8,0-3.3,1.5-3.3,3.3v15.8c0,1.8,1.5,3.3,3.3,3.3h36.4v-6.7H1501.2z"/>
		</g>
		<g>
			<path class="st2" d="M1157.4,182.9c-1.8,0-3.3,1.5-3.3,3.3v47c0,1.8,1.5,3.3,3.3,3.3c1.8,0,3.3-1.5,3.3-3.3v-47
				C1160.8,184.4,1159.3,182.9,1157.4,182.9z"/>
		</g>
		<g>
			<path class="st2" d="M1219.3,255.7h-50.8c-6.4,0-11.7,5.2-11.7,11.7v8.9c0,1.8,1.5,3.3,3.3,3.3h59.2c1.8,0,3.3-1.5,3.3-3.3v-17.2
				C1222.6,257.2,1221.1,255.7,1219.3,255.7z M1215.9,272.9h-52.5v-5.5c0-2.8,2.2-5,5-5h47.5V272.9z"/>
		</g>
		<g>
			<path class="st2" d="M1225.4,272.9h-80.3c-1.8,0-3.3,1.5-3.3,3.3V297c0,1.8,1.5,3.3,3.3,3.3h80.3c1.8,0,3.3-1.5,3.3-3.3v-20.7
				C1228.8,274.4,1227.3,272.9,1225.4,272.9z M1222.1,293.6h-73.7v-14h73.7V293.6z"/>
		</g>
		<g>
			<polygon class="st6" points="1225.4,297 1145.1,297 1145.1,283.4 1091.8,283.4 1091.8,482 1201.3,482 1205.3,455 1116.2,455 
				1116.2,310.4 1244.8,310.4 1244.8,283.4 1225.4,283.4 			"/>
			<path class="st2" d="M1244.8,280h-19.4c-1.8,0-3.3,1.5-3.3,3.3v10.3h-73.7v-10.3c0-1.8-1.5-3.3-3.3-3.3h-53.3
				c-1.8,0-3.3,1.5-3.3,3.3V482c0,1.8,1.5,3.3,3.3,3.3h109.4c1.7,0,3.1-1.2,3.3-2.9l4-27.1c0.1-1-0.1-1.9-0.8-2.7
				c-0.6-0.7-1.6-1.2-2.5-1.2h-85.7V313.8h125.2c1.8,0,3.3-1.5,3.3-3.3v-27.1C1248.1,281.5,1246.6,280,1244.8,280z M1241.5,307.1
				h-125.2c-1.8,0-3.3,1.5-3.3,3.3V455c0,1.8,1.5,3.3,3.3,3.3h85.1l-3,20.4h-103.2v-192h46.6V297c0,1.8,1.5,3.3,3.3,3.3h80.3
				c1.8,0,3.3-1.5,3.3-3.3v-10.3h12.7V307.1z"/>
		</g>
		<g>
			<path class="st2" d="M1053.6,590.1h-16.8c-1.6,0-2.9,1.3-2.9,2.9c0,1.6,1.3,2.9,2.9,2.9h16.8c1.6,0,2.9-1.3,2.9-2.9
				C1056.4,591.4,1055.2,590.1,1053.6,590.1z"/>
		</g>
		<g>
			<path class="st2" d="M674.6,315c-9.8,0-17.7,7.9-17.7,17.5c0,9.7,7.9,17.5,17.7,17.5c9.8,0,17.7-7.9,17.7-17.5
				C692.3,322.8,684.3,315,674.6,315z M674.6,343.3c-6.1,0-11-4.9-11-10.8c0-6,4.9-10.8,11-10.8c6.1,0,11,4.9,11,10.8
				C685.6,338.4,680.6,343.3,674.6,343.3z"/>
		</g>
		<g>
			<path class="st4" d="M603.6,322.4l57.9,15.9c2-8.7,7.3-18.8,7.3-18.8L615,291.1L603.6,322.4z"/>
			<path class="st2" d="M670.4,316.5l-53.8-28.4c-0.9-0.5-1.9-0.5-2.8-0.2c-0.9,0.3-1.6,1.1-1.9,2l-11.5,31.4
				c-0.3,0.9-0.3,1.8,0.2,2.7c0.4,0.8,1.2,1.4,2.1,1.7l57.9,15.9c0.3,0.1,0.6,0.1,0.9,0.1c0.6,0,1.2-0.2,1.7-0.5
				c0.8-0.5,1.3-1.2,1.5-2.1c1.9-8.2,7-17.9,7-18C672.6,319.4,672,317.4,670.4,316.5z M659.1,334.2l-51.2-14l8.9-24.4l47.5,25.1
				C662.9,324,660.7,329.1,659.1,334.2z"/>
		</g>
		<g>
			<path class="st3" d="M546.4,402.7c0.3,1.5,0.6,3,0.9,4.8c1.2,7.9-4.4,13.1-12.3,14.5c-10.1,26.8-14.5,69.5-14.7,82.9
				c-0.4,17.2-21.5,73.2-30.8,98.6c-9.3,25.5,21.5,19.7,21.5,19.7s25.1-61.3,43.8-110.1c18.6-48.8,23.3-92.2,23.3-92.2
				S563.5,387.5,546.4,402.7z"/>
			<path class="st2" d="M558.7,395.7c-5.1-1.1-10,0.4-14.6,4.4c-0.9,0.8-1.3,2-1,3.2c0.3,1.5,0.6,3,0.9,4.5c1.2,8.2-7,10.3-9.6,10.7
				c-1.2,0.2-2.1,1-2.6,2.1c-10.5,27.9-14.7,72-15,84c-0.3,15.2-18.3,64.1-28,90.4c-0.9,2.6-1.8,5-2.6,7.2c-3,8.1-2.6,14.4,1.2,18.8
				c4.1,4.9,11.2,5.9,16.7,5.9c3.8,0,6.7-0.5,7.4-0.6c1.1-0.2,2.1-1,2.5-2c0.3-0.6,25.3-61.9,43.8-110.2
				c18.6-48.6,23.5-92.6,23.5-93c0.1-0.6,0-1.2-0.3-1.7C580.1,417.4,571.6,398.6,558.7,395.7z M551.5,511.9
				c-16.7,43.6-38.8,97.9-43,108.3c-4.5,0.5-12.7,0.6-16-3.3c-2.1-2.5-2.1-6.6,0-12.2c0.8-2.2,1.7-4.6,2.6-7.1
				c10.5-28.5,28.1-76.3,28.4-92.6c0.2-11.5,4.1-52.9,13.9-80.1c9.2-2.3,14.4-9.3,13.1-17.9c-0.2-1-0.3-2-0.5-2.9
				c2.4-1.7,4.8-2.3,7.2-1.7c7.7,1.7,14.7,13.7,17.2,19.2C573.7,427.8,568.3,467.9,551.5,511.9z"/>
		</g>
		<g>
			<path class="st4" d="M541.7,306.7l0.8,65.7C543.3,350,544.3,313.7,541.7,306.7z"/>
			<path class="st4" d="M589,206.1c0,0-18.8,5.4-26.4,15.6c-6.5,8.8-43.1,70-53.3,87.1c-1.7,2.8-2.4,6.2-2,9.5l9.6,75.6l24.7-3.8
				c0,0,0.4-7.3,0.8-17.7l-0.8-65.7c2.6,7,1.6,43.4,0.8,65.7v0c0,0,26.7,17.7,60,0.5c0,0,14.2-88.6,31.7-117.8l-16.1-37.7
				C618.1,217.4,598.2,212.5,589,206.1z"/>
			<path class="st2" d="M621.2,216.1c-0.4-1-1.3-1.7-2.3-1.9c-0.2,0-19.4-4.8-27.9-10.8c-0.8-0.6-1.9-0.8-2.8-0.5
				c-0.8,0.2-20,5.8-28.1,16.8c-6.5,8.8-42.6,69.1-53.5,87.3c-2.1,3.5-2.9,7.6-2.4,11.6l9.6,75.6c0.1,0.9,0.6,1.7,1.3,2.2
				c0.6,0.4,1.3,0.7,2,0.7c0.2,0,0.3,0,0.5,0l24.7-3.8c1.6-0.2,2.8-1.5,2.8-3.1c0.1-1.7,0.3-6.2,0.6-12.4
				c9.6,4.5,31.9,11.6,58.4-2.1c0.9-0.5,1.6-1.4,1.8-2.4c0.1-0.9,14.3-88.3,31.3-116.6c0.6-0.9,0.6-2.1,0.2-3L621.2,216.1z
				 M599.5,370.6c-26.3,12.8-47.7,3.2-53.6-0.1c0.9-22.8,1.7-57.6-1.1-65c-0.6-1.7-2.6-2.6-4.3-2c-1.7,0.6-2.6,2.6-2,4.3
				c2.1,5.6,1.6,37.4,0.6,64.1c0,0.2,0,0.4,0,0.6c-0.2,5.1-0.4,10.1-0.6,14.6l-18.7,2.8l-9.1-72.2c-0.3-2.5,0.2-5.1,1.5-7.3
				c22.4-37.5,48.1-80,53.1-86.8c5.6-7.6,18.8-12.5,23.2-13.9c8.3,5.2,22.4,9.2,27.1,10.5l14.8,34.6
				C614.3,283.5,601.5,358,599.5,370.6z"/>
		</g>
		<g>
			<path class="st2" d="M544.5,388.2c-0.7-1.1-2-1.6-3.3-1.4l-24.7,3.8c-1.2,0.2-2.2,1-2.6,2.1c-0.6,1.6-5.7,15.7-1.1,24.9
				c1.7,3.4,4.6,5.7,8.3,6.8c3.2,0.9,6.5,1.4,9.5,1.4c6,0,11.4-1.7,15.2-5c3.9-3.4,5.6-8.3,4.8-13.7
				C548.7,394.5,544.6,388.4,544.5,388.2z M541.3,415.6c-3.9,3.4-11.2,4.3-18.5,2.2c-2-0.6-3.3-1.6-4.2-3.4
				c-2.4-4.8-0.7-13.2,0.7-17.7l20.4-3.1c1.1,2.4,3,7.1,4.1,14.2C544.4,411.1,543.6,413.7,541.3,415.6z"/>
		</g>
		<g>
			<g>
				<polygon class="st4" points="531.6,391.6 541.7,390 531.6,391.6 				"/>
				<path class="st2" d="M541.2,386.7l-10.1,1.5c-1.7,0.3-2.8,1.7-2.8,3.3c0,0.2,0,0.3,0,0.5c0.3,1.7,1.7,2.8,3.3,2.8
					c0.2,0,0.3,0,0.5,0l10.1-1.5c1.7-0.3,2.8-1.7,2.8-3.3c0-0.2,0-0.3,0-0.5C544.7,387.7,543,386.5,541.2,386.7z"/>
			</g>
			<g>
				<path class="st5" d="M542.5,372.4l-0.8,17.7c0,0,3.8,5.6,5.6,17.4c0.5,3-0.1,5.6-1.3,7.8c20.2,21.8,52.4,34.4,52.4,34.4
					s-15.4,25.1-17.6,40.2c-2.2,15.1-31.2,72.8-31.2,72.8l19.4,9.7c0,0,74.2-120.9,73.9-130.9c-0.4-10-40.3-68.5-40.3-68.5
					C569.1,390,542.5,372.4,542.5,372.4z"/>
				<path class="st2" d="M605.2,370.9c-1-1.4-2.8-1.9-4.3-1.1c-31.1,16.1-55.6,0.4-56.6-0.3c-1-0.7-2.3-0.7-3.4-0.2
					c-1.1,0.5-1.8,1.6-1.8,2.8l-0.8,17.7c0,0.7,0.2,1.4,0.6,2c0,0.1,3.4,5.3,5,16c0.3,2.1,0,4-0.9,5.6c-0.7,1.3-0.6,2.9,0.4,3.9
					c16.7,18,40.9,29.7,50,33.7c-4.3,7.5-14.3,25.7-16.1,38.1c-1.6,11.5-20.9,52-30.9,71.8c-0.4,0.8-0.5,1.7-0.2,2.6
					c0.3,0.8,0.9,1.5,1.7,1.9l19.4,9.7c0.5,0.2,1,0.4,1.5,0.4c1.1,0,2.2-0.6,2.8-1.6c0.2-0.3,18.8-30.6,37.1-61.7
					c37.5-63.8,37.3-68.9,37.3-71C645.8,430.7,612,380.8,605.2,370.9z M567.7,567.9l-13.6-6.8c6.1-12.2,28.1-57.3,30-70.8
					c2-14.2,17-38.6,17.1-38.9c0.5-0.8,0.6-1.9,0.3-2.8c-0.3-0.9-1-1.7-2-2c-0.3-0.1-30.1-11.9-49.7-31.9c0.8-2.3,1.1-4.9,0.7-7.6
					c-1.5-9.7-4.2-15.5-5.5-17.7l0.5-11.4c9.2,4.3,30.4,11.2,55.8-0.7c16.2,23.8,37.8,58.1,38.1,64.3
					C638.8,449.5,595.8,522.1,567.7,567.9z"/>
			</g>
		</g>
		<g>
			<path class="st2" d="M587.6,239.6c-1.7-0.7-3.7,0.1-4.4,1.8c-0.2,0.5-19.5,47.4-43.3,62c-1.6,1-2.1,3-1.1,4.6
				c0.6,1,1.7,1.6,2.9,1.6c0.6,0,1.2-0.2,1.7-0.5c25.7-15.7,45.2-63.2,46-65.2C590.1,242.2,589.3,240.3,587.6,239.6z"/>
		</g>
		<g>
			<path class="st2" d="M556.4,252.1c-1.6-0.9-3.6-0.3-4.5,1.3l-28.5,51.9c-1.9,3.5-2.9,7.4-2.8,11.4l0.6,28.5
				c0,1.8,1.5,3.3,3.3,3.3c0,0,0,0,0.1,0c1.8,0,3.3-1.6,3.3-3.4l-0.6-28.5c-0.1-2.8,0.6-5.6,2-8l28.5-51.9
				C558.6,255,558,253,556.4,252.1z"/>
		</g>
		<g>
			<path class="st2" d="M615,244c-0.5-1.8-2.3-2.9-4.1-2.4c-1.8,0.5-2.9,2.3-2.4,4.1l3.5,13.5c0.2,0.9,0.2,1.9-0.1,2.7
				c-3.3,8.8-11.2,29.9-12.4,36.6c-0.3,1.8,0.9,3.6,2.7,3.9c0.2,0,0.4,0.1,0.6,0.1c1.6,0,3-1.1,3.3-2.7c0.9-5,6.8-21.6,12-35.5
				c0.8-2.2,0.9-4.5,0.4-6.8L615,244z"/>
		</g>
		<g>
			<path class="st2" d="M590.2,426.4c-25.9-9.3-31.9-30.5-32.2-31.4c-0.5-1.8-2.3-2.8-4.1-2.4c-1.8,0.5-2.8,2.3-2.4,4.1
				c0.3,1,7.1,25.5,36.3,36c0.4,0.1,0.8,0.2,1.1,0.2c1.4,0,2.7-0.8,3.1-2.2C592.8,428.9,591.9,427,590.2,426.4z"/>
		</g>
		<g>
			<path class="st2" d="M439,462H322.8c-1.2,0-2.3,0.7-2.9,1.7c-0.6,1.1-0.5,2.4,0.1,3.4l27.9,43.2L197.6,621
				c-1.5,1.1-1.8,3.2-0.7,4.7c0.7,0.9,1.7,1.4,2.7,1.4c0.7,0,1.4-0.2,2-0.7l152.8-112.5c1.4-1,1.8-3,0.8-4.5l-26.3-40.7h106.6
				l-3.6,75.7c-0.1,1.8,1.3,3.4,3.2,3.5c1.9,0.1,3.4-1.3,3.5-3.2l3.8-79.2c0-0.9-0.3-1.8-0.9-2.5C440.7,462.4,439.9,462,439,462z"/>
		</g>
		<g>
			<path class="st2" d="M495.1,511c-1.2-0.8-2.8-0.7-3.9,0.2L343.8,630.1c-1.4,1.2-1.7,3.3-0.5,4.7c0.7,0.8,1.6,1.2,2.6,1.2
				c0.7,0,1.5-0.2,2.1-0.7l139.4-112.4l-3,11c-0.5,1.8,0.6,3.6,2.3,4.1c1.8,0.5,3.6-0.6,4.1-2.3l5.7-21
				C496.9,513.3,496.3,511.8,495.1,511z"/>
		</g>
		<g>
			<path class="st2" d="M320.3,562.7l-69.9,50c-1.5,1.1-1.8,3.2-0.8,4.7c0.7,0.9,1.7,1.4,2.7,1.4c0.7,0,1.4-0.2,1.9-0.6l69.9-50
				c1.5-1.1,1.8-3.2,0.8-4.7C323.9,562,321.8,561.6,320.3,562.7z"/>
		</g>
		<g>
			<path class="st2" d="M493.3,510.4h-21c-1.8,0-3.3,1.5-3.3,3.3c0,1.8,1.5,3.3,3.3,3.3h21c1.8,0,3.3-1.5,3.3-3.3
				C496.6,511.9,495.1,510.4,493.3,510.4z"/>
		</g>
		<g>
			<path class="st2" d="M960.4,140.3l-125.8,5.9c-1.3,0.1-2.4,0.8-2.9,2c-0.5,1.2-0.3,2.5,0.5,3.5l19.1,22.6
				c1.2,1.4,3.3,1.6,4.7,0.4c1.4-1.2,1.6-3.3,0.4-4.7l-14.7-17.4l114.9-5.4l-18.4,111.9l-24.8-24.2c-1.2-1.1-3-1.3-4.3-0.3
				L650.6,423.2c-1.5,1.1-1.8,3.2-0.7,4.7c0.7,0.9,1.7,1.4,2.7,1.4c0.7,0,1.4-0.2,2-0.6l256.3-187l27.4,26.7
				c0.9,0.9,2.2,1.2,3.4,0.8c1.2-0.4,2.1-1.4,2.3-2.6l20.1-122.3c0.2-1-0.1-2-0.8-2.8C962.4,140.7,961.5,140.3,960.4,140.3z"/>
		</g>
		<g>
			<path class="st2" d="M636.2,602.7c1.8,0,3.3-1.5,3.3-3.3v-53.7h86.7c1.8,0,3.3-1.5,3.3-3.3v-79h97.3c1.8,0,3.3-1.5,3.3-3.3v-65.1
				h86c1.8,0,3.3-1.5,3.3-3.3v-82h89.7c1.8,0,3.3-1.5,3.3-3.3v-77.5h99.9c1.8,0,3.3-1.5,3.3-3.3v-90.3H1219c1.8,0,3.3-1.5,3.3-3.3
				v-58h76.8c1.8,0,3.3-1.5,3.3-3.3V32.8c0-1.8-1.5-3.3-3.3-3.3c-1.8,0-3.3,1.5-3.3,3.3v34.3H1219c-1.8,0-3.3,1.5-3.3,3.3v58h-103.2
				c-1.8,0-3.3,1.5-3.3,3.3v90.3h-99.9c-1.8,0-3.3,1.5-3.3,3.3v77.5h-89.7c-1.8,0-3.3,1.5-3.3,3.3v82h-86c-1.8,0-3.3,1.5-3.3,3.3
				v65.1h-97.3c-1.8,0-3.3,1.5-3.3,3.3v79h-86.7c-1.8,0-3.3,1.5-3.3,3.3V596h-85.4c-1.8,0-3.3,1.5-3.3,3.3v37.9h6.7v-34.6H636.2z"/>
		</g>
		<g>
			<path class="st2" d="M1431.5,46.7h-104.9c-1.8,0-3.3,1.5-3.3,3.3c0,1.8,1.5,3.3,3.3,3.3h104.9c1.8,0,3.3-1.5,3.3-3.3
				C1434.8,48.2,1433.3,46.7,1431.5,46.7z"/>
		</g>
		<g>
			<path class="st2" d="M536.6,630.1c-4.1-3.5-21.3-9.1-24.7-10.2c-1.8-0.6-3.6,0.4-4.2,2.2s0.4,3.6,2.2,4.2
				c8,2.5,20.2,6.9,22.4,8.9c0.7,0.6,1.3,1.3,1.8,2h7.6C540.7,635,539.1,632.3,536.6,630.1z"/>
		</g>
		<g>
			<path class="st2" d="M490.2,618c1.4-1.2,1.6-3.3,0.3-4.7c-1.2-1.4-3.3-1.5-4.7-0.3c-0.6,0.5-13.8,12.1-14.9,24.2h6.7
				C478.7,629.6,486.7,621,490.2,618z"/>
		</g>
		<g>
			<path class="st2" d="M598,585.2c-2.7-0.7-4.4-1.2-5.3-2.7c-3.9-6.6-19.6-12.4-22.7-13.5c-1.7-0.6-3.6,0.3-4.3,2
				c-0.6,1.7,0.3,3.6,2,4.3c6.7,2.4,17.1,7.2,19.1,10.6c2.4,4,6.4,5,9.4,5.8c3.3,0.8,3.3,1.1,3.4,1.7l0.2,2.2
				c-23.7-2.3-48.7-5.6-52.6-7.5c-1.7-2.3-3.6-5.9,5.3-24c0.8-1.7,0.1-3.7-1.5-4.5c-1.7-0.8-3.7-0.1-4.5,1.5
				c-9.4,19.2-8.8,25.7-4.3,31.4c1.1,1.5,2.7,3.4,32.6,7.1c14.2,1.7,28.2,3,28.3,3c0.1,0,0.2,0,0.3,0c0.9,0,1.7-0.3,2.4-1
				c0.7-0.7,1.1-1.7,1-2.7l-0.5-6.2C605.9,587.2,601.1,586,598,585.2z"/>
		</g>
		<g>
			<path class="st2" d="M670.1,553.5h-22.6c-1.8,0-3.3,1.5-3.3,3.3c0,1.8,1.5,3.3,3.3,3.3h22.6c1.8,0,3.3-1.5,3.3-3.3
				C673.4,555,671.9,553.5,670.1,553.5z"/>
		</g>
		<g>
			<path class="st2" d="M670.1,599.7H654c-1.8,0-3.3,1.5-3.3,3.3v16.1c0,1.8,1.5,3.3,3.3,3.3h16.1c1.8,0,3.3-1.5,3.3-3.3v-16.1
				C673.4,601.2,671.9,599.7,670.1,599.7z M666.8,615.9h-9.5v-9.5h9.5V615.9z"/>
		</g>
		<g>
			<path class="st2" d="M451.2,597.3h-16.1c-1.8,0-3.3,1.5-3.3,3.3v16.1c0,1.8,1.5,3.3,3.3,3.3h16.1c1.8,0,3.3-1.5,3.3-3.3v-16.1
				C454.5,598.8,453,597.3,451.2,597.3z M447.9,613.5h-9.5V604h9.5V613.5z"/>
		</g>
		<g>
			<path class="st2" d="M976.9,90.9h-16.1c-1.8,0-3.3,1.5-3.3,3.3v16.1c0,1.8,1.5,3.3,3.3,3.3h16.1c1.8,0,3.3-1.5,3.3-3.3V94.3
				C980.2,92.4,978.7,90.9,976.9,90.9z M973.6,107.1h-9.5v-9.5h9.5V107.1z"/>
		</g>
		<g>
			<path class="st2" d="M968.8,343.9h-16.1c-1.8,0-3.3,1.5-3.3,3.3v16.1c0,1.8,1.5,3.3,3.3,3.3h16.1c1.8,0,3.3-1.5,3.3-3.3v-16.1
				C972.2,345.4,970.7,343.9,968.8,343.9z M965.5,360.1H956v-9.5h9.5V360.1z"/>
		</g>
		<g>
			<path class="st2" d="M1085.4,239.6h-16.1c-1.8,0-3.3,1.5-3.3,3.3v16.1c0,1.8,1.5,3.3,3.3,3.3h16.1c1.8,0,3.3-1.5,3.3-3.3v-16.1
				C1088.7,241.1,1087.2,239.6,1085.4,239.6z M1082.1,255.7h-9.5v-9.5h9.5V255.7z"/>
		</g>
		<g>
			<path class="st2" d="M759,517.3c-5.6,0-10.2,4.6-10.2,10.2c0,5.6,4.6,10.2,10.2,10.2c5.6,0,10.2-4.6,10.2-10.2
				C769.2,521.8,764.6,517.3,759,517.3z M759,530.9c-1.9,0-3.5-1.6-3.5-3.5s1.6-3.5,3.5-3.5c1.9,0,3.5,1.6,3.5,3.5
				S760.9,530.9,759,530.9z"/>
		</g>
		<g>
			<path class="st2" d="M472.3,321.6c-5.6,0-10.2,4.6-10.2,10.2c0,5.6,4.6,10.2,10.2,10.2c5.6,0,10.2-4.6,10.2-10.2
				C482.5,326.2,477.9,321.6,472.3,321.6z M472.3,335.3c-1.9,0-3.5-1.6-3.5-3.5s1.6-3.5,3.5-3.5c1.9,0,3.5,1.6,3.5,3.5
				S474.2,335.3,472.3,335.3z"/>
		</g>
		<g>
			<rect x="794.9" y="491.2" class="st6" width="107.6" height="146"/>
			<path class="st2" d="M902.5,487.8H794.9c-1.8,0-3.3,1.5-3.3,3.3v146h6.7V494.5h100.9v142.7h6.7v-146
				C905.8,489.3,904.3,487.8,902.5,487.8z"/>
		</g>
		<g>
			<rect x="811.6" y="511.2" class="st4" width="74.2" height="19.8"/>
			<path class="st2" d="M885.8,507.9h-74.2c-1.8,0-3.3,1.5-3.3,3.3V531c0,1.8,1.5,3.3,3.3,3.3h74.2c1.8,0,3.3-1.5,3.3-3.3v-19.8
				C889.2,509.4,887.7,507.9,885.8,507.9z M882.5,527.7h-67.6v-13.1h67.6V527.7z"/>
		</g>
		<g>
			<g>
				<path class="st2" d="M813,550.4c-2.4,0-4.4,2-4.4,4.4s2,4.4,4.4,4.4c2.4,0,4.4-2,4.4-4.4S815.4,550.4,813,550.4z"/>
			</g>
			<g>
				<path class="st2" d="M836.8,550.4c-2.4,0-4.4,2-4.4,4.4s2,4.4,4.4,4.4c2.4,0,4.4-2,4.4-4.4S839.2,550.4,836.8,550.4z"/>
			</g>
			<g>
				<path class="st2" d="M860.6,550.4c-2.4,0-4.4,2-4.4,4.4s2,4.4,4.4,4.4c2.4,0,4.4-2,4.4-4.4S863,550.4,860.6,550.4z"/>
			</g>
			<g>
				<path class="st2" d="M884.4,550.4c-2.4,0-4.4,2-4.4,4.4s2,4.4,4.4,4.4c2.4,0,4.4-2,4.4-4.4S886.8,550.4,884.4,550.4z"/>
			</g>
		</g>
		<g>
			<g>
				<circle class="st2" cx="813" cy="579.5" r="4.4"/>
			</g>
			<g>
				<circle class="st2" cx="836.8" cy="579.5" r="4.4"/>
			</g>
			<g>
				<circle class="st2" cx="860.6" cy="579.5" r="4.4"/>
			</g>
			<g>
				<circle class="st2" cx="884.4" cy="579.5" r="4.4"/>
			</g>
		</g>
		<g>
			<g>
				<path class="st2" d="M813,600c-2.4,0-4.4,2-4.4,4.4c0,2.4,2,4.4,4.4,4.4c2.4,0,4.4-2,4.4-4.4C817.4,602,815.4,600,813,600z"/>
			</g>
			<g>
				<path class="st2" d="M836.8,600c-2.4,0-4.4,2-4.4,4.4c0,2.4,2,4.4,4.4,4.4c2.4,0,4.4-2,4.4-4.4C841.2,602,839.2,600,836.8,600z"
					/>
			</g>
			<g>
				<path class="st2" d="M860.6,600c-2.4,0-4.4,2-4.4,4.4c0,2.4,2,4.4,4.4,4.4c2.4,0,4.4-2,4.4-4.4C864.9,602,863,600,860.6,600z"/>
			</g>
			<g>
				<path class="st2" d="M884.4,600c-2.4,0-4.4,2-4.4,4.4c0,2.4,2,4.4,4.4,4.4c2.4,0,4.4-2,4.4-4.4C888.7,602,886.8,600,884.4,600z"
					/>
			</g>
		</g>
		<g>
			<g>
				<circle class="st2" cx="813" cy="629.2" r="4.4"/>
			</g>
			<g>
				<circle class="st2" cx="836.8" cy="629.2" r="4.4"/>
			</g>
			<g>
				<circle class="st2" cx="860.6" cy="629.2" r="4.4"/>
			</g>
			<g>
				<circle class="st2" cx="884.4" cy="629.2" r="4.4"/>
			</g>
		</g>
		<g>
			<polygon class="st1" points="995,444.2 957.7,444.2 942.8,459.1 884.4,459.1 884.4,491.2 902.5,491.2 902.5,547.1 1023.7,547.1 
				1023.7,460 1000.8,460 			"/>
			<path class="st2" d="M1023.7,456.6h-20.6l-4.9-13.6c-0.5-1.3-1.7-2.2-3.1-2.2h-37.3c-0.9,0-1.7,0.4-2.4,1l-13.9,13.9h-57.1
				c-1.8,0-3.3,1.5-3.3,3.3v32.1c0,1.8,1.5,3.3,3.3,3.3h14.8v52.6c0,1.8,1.5,3.3,3.3,3.3h121.2c1.8,0,3.3-1.5,3.3-3.3V460
				C1027,458.1,1025.6,456.6,1023.7,456.6z M1020.4,543.8H905.8v-52.6c0-1.8-1.5-3.3-3.3-3.3h-14.8v-25.4h55.1c0.9,0,1.7-0.4,2.4-1
				l13.9-13.9h33.6l4.9,13.6c0.5,1.3,1.7,2.2,3.1,2.2h19.6V543.8z"/>
		</g>
		<g>
			<path class="st2" d="M998.2,524.1h-75c-1.8,0-3.3,1.5-3.3,3.3s1.5,3.3,3.3,3.3h75c1.8,0,3.3-1.5,3.3-3.3
				S1000.1,524.1,998.2,524.1z"/>
		</g>
		<g>
			<path class="st2" d="M995,398.7h-23.3c-0.9,0-1.7,0.4-2.4,1l-4.6,4.6h-53.8c-1.8,0-3.3,1.5-3.3,3.3v51.5c0,1.8,1.5,3.3,3.3,3.3
				s3.3-1.5,3.3-3.3V411h51.9c0.9,0,1.7-0.4,2.4-1l4.6-4.6h18.6v38.8c0,1.8,1.5,3.3,3.3,3.3c1.8,0,3.3-1.5,3.3-3.3v-42.1
				C998.4,400.2,996.9,398.7,995,398.7z"/>
		</g>
		<g>
			<path class="st2" d="M978.9,416.5h-55.6c-1.8,0-3.3,1.5-3.3,3.3s1.5,3.3,3.3,3.3h55.6c1.8,0,3.3-1.5,3.3-3.3
				S980.7,416.5,978.9,416.5z"/>
		</g>
		<g>
			<path class="st2" d="M945.5,432.3h-22.2c-1.8,0-3.3,1.5-3.3,3.3c0,1.8,1.5,3.3,3.3,3.3h22.2c1.8,0,3.3-1.5,3.3-3.3
				C948.9,433.7,947.4,432.3,945.5,432.3z"/>
		</g>
		<g>
			<path class="st2" d="M863,404.3h-75.7c-1.8,0-3.3,1.5-3.3,3.3c0,1.8,1.5,3.3,3.3,3.3H863c1.8,0,3.3-1.5,3.3-3.3
				C866.4,405.8,864.9,404.3,863,404.3z"/>
		</g>
		<g>
			<path class="st5" d="M1043.6,586.4c-39.8-6.9-75.6-3.6-98.8,0.4c-2.3,0.4-4,2.4-4,4.8v3.1c0,2.3,1.7,4.4,4,4.8
				c39.5,7.1,75.2,4.1,98.8,0.1c2.3-0.4,4-2.4,4-4.8v-3.7C1047.6,588.8,1046,586.8,1043.6,586.4z"/>
		</g>
		<g>
			<path class="st2" d="M979,559.8c-4.2,0.8-5.6,3.8-5.5,6.4c0.1,2.8,2.1,5.9,4.8,6.2c1.8,0.2,3.5-1.1,3.7-3
				c0.1-1.3-0.5-2.5-1.4-3.1c1.6-0.1,2.5,1.9,2.7,2.5c1,2.6,0.6,6.1-1.9,7.6c-4.6,2.7-6.8,1.3-10.8-1.3c-3.5-2.3-7.9-5.1-14.5-4.6
				c-5.5,0.4-8.5,3-10.1,5c-4.1,5.4-2.8,12.7-2.6,13.5c0.3,1.6,1.7,2.7,3.3,2.7c0.2,0,0.4,0,0.6-0.1c1.8-0.4,3-2.1,2.6-3.9
				c-0.3-1.3-0.6-5.6,1.4-8.2c1.1-1.4,2.8-2.2,5.3-2.4c4.3-0.3,7.3,1.6,10.4,3.6c4.3,2.8,9.7,6.3,17.9,1.4
				c5.8-3.4,6.7-10.5,4.7-15.7C987.6,561.5,983.5,558.9,979,559.8z"/>
		</g>
		<g>
			<path class="st2" d="M992.5,579.8c-1.8,0-3.3,1.5-3.3,3.3v20.1c0,1.8,1.5,3.3,3.3,3.3s3.3-1.5,3.3-3.3v-20.1
				C995.8,581.3,994.3,579.8,992.5,579.8z"/>
		</g>
		<g>
			<path class="st2" d="M1000.9,579.7c-1.8,0-3.3,1.5-3.3,3.3v20.1c0,1.8,1.5,3.3,3.3,3.3s3.3-1.5,3.3-3.3V583
				C1004.3,581.2,1002.8,579.7,1000.9,579.7z"/>
		</g>
		<g>
			<path class="st2" d="M1052.6,303.2c-1.2-0.5-2.7-0.2-3.6,0.7l-13.4,13.4c-1.3,1.3-1.3,3.4,0,4.7c1.3,1.3,3.4,1.3,4.7,0l7.7-7.7
				v223.1c0,1.8,1.5,3.3,3.3,3.3c1.8,0,3.3-1.5,3.3-3.3V306.3C1054.7,304.9,1053.9,303.7,1052.6,303.2z"/>
		</g>
		<g>
			<path class="st2" d="M1053.7,303.9c-1-1-2.4-1.2-3.6-0.7c-1.2,0.5-2.1,1.7-2.1,3.1v231.2c0,1.8,1.5,3.3,3.3,3.3
				c1.8,0,3.3-1.5,3.3-3.3V314.3l7.7,7.7c1.3,1.3,3.4,1.3,4.7,0c1.3-1.3,1.3-3.4,0-4.7L1053.7,303.9z"/>
		</g>
		<g>
			<path class="st2" d="M1163.4,509.4l-19.9,3.5c-1.8,0.3-3,2.1-2.7,3.9c0.3,1.8,2,3,3.9,2.7l9-1.6l-38.2,36.3l-13.1-15.4
				c-1.2-1.4-3.3-1.6-4.7-0.4l-35,29.6c-1.4,1.2-1.6,3.3-0.4,4.7c0.7,0.8,1.6,1.2,2.6,1.2c0.8,0,1.5-0.3,2.2-0.8l32.5-27.5
				l13.3,15.5c0.6,0.7,1.5,1.1,2.4,1.2c0.9,0,1.8-0.3,2.5-0.9l48.8-46.4c1.1-1,1.3-2.6,0.7-3.9
				C1166.2,509.9,1164.8,509.2,1163.4,509.4z"/>
		</g>
		<g>
			<path class="st2" d="M1164.5,509.4c-1.8-0.3-3.6,0.9-3.9,2.7l-3.5,19.4c-0.3,1.8,0.9,3.6,2.7,3.9c0.2,0,0.4,0.1,0.6,0.1
				c1.6,0,3-1.1,3.3-2.7l3.5-19.4C1167.5,511.5,1166.3,509.7,1164.5,509.4z"/>
		</g>
		<g>
			<path class="st2" d="M1084,496.5c-6.2,0-11.2,5-11.2,11.2c0,6.2,5,11.2,11.2,11.2c6.2,0,11.2-5,11.2-11.2
				C1095.2,501.5,1090.1,496.5,1084,496.5z M1084,512.2c-2.5,0-4.5-2-4.5-4.6c0-2.5,2-4.5,4.5-4.5c2.5,0,4.6,2,4.6,4.5
				C1088.5,510.2,1086.5,512.2,1084,512.2z"/>
		</g>
		<g>
			<path class="st2" d="M685.5,475.4c-10.6,0-19.3,8.6-19.3,19.3c0,10.6,8.6,19.3,19.3,19.3c10.6,0,19.3-8.6,19.3-19.3
				C704.7,484,696.1,475.4,685.5,475.4z M685.5,507.2c-6.9,0-12.6-5.6-12.6-12.6c0-6.9,5.6-12.6,12.6-12.6c6.9,0,12.6,5.6,12.6,12.6
				C698,501.6,692.4,507.2,685.5,507.2z"/>
		</g>
		<g>
			<path class="st2" d="M393.2,501.3c-10.6,0-19.3,8.6-19.3,19.3c0,10.6,8.6,19.3,19.3,19.3c10.6,0,19.3-8.6,19.3-19.3
				C412.5,510,403.8,501.3,393.2,501.3z M393.2,533.2c-6.9,0-12.6-5.6-12.6-12.6c0-6.9,5.6-12.6,12.6-12.6c6.9,0,12.6,5.6,12.6,12.6
				C405.8,527.5,400.2,533.2,393.2,533.2z"/>
		</g>
		<g>
			<path class="st2" d="M1157.5,572.3h-28.7c-1.8,0-3.3,1.5-3.3,3.3v28.7c0,1.8,1.5,3.3,3.3,3.3h28.7c1.8,0,3.3-1.5,3.3-3.3v-28.7
				C1160.8,573.8,1159.3,572.3,1157.5,572.3z M1154.2,601h-22v-22h22V601z"/>
		</g>
		<g>
			<path class="st2" d="M1486.4,575.1h-20.5c-1.8,0-3.3,1.5-3.3,3.3v20.5c0,1.8,1.5,3.3,3.3,3.3h20.5c1.8,0,3.3-1.5,3.3-3.3v-20.5
				C1489.7,576.6,1488.2,575.1,1486.4,575.1z M1483.1,595.5h-13.8v-13.8h13.8V595.5z"/>
		</g>
		<g>
			<path class="st2" d="M1218.4,366c-1.8-0.3-3.5,1-3.8,2.8l-33.9,229.3c-0.3,1.8,1,3.5,2.8,3.8c0.2,0,0.3,0,0.5,0
				c1.6,0,3.1-1.2,3.3-2.9l33.9-229.3C1221.5,368,1220.2,366.3,1218.4,366z"/>
		</g>
		<g>
			<path class="st4" d="M1253.3,201.4c0,0-39.3,30.8-43.8,67.4c-4.5,36.6,21.9,62.1,21.9,62.1h21.9h21.9c0,0,26.5-25.5,21.9-62.1
				C1292.6,232.2,1253.3,201.4,1253.3,201.4z"/>
			<path class="st2" d="M1300.5,268.4c-4.7-37.5-43.4-68.3-45.1-69.6c-1.2-0.9-2.9-0.9-4.1,0c-1.6,1.3-40.4,32.1-45.1,69.6
				c-4.7,37.8,21.8,63.8,22.9,64.9c0.6,0.6,1.5,0.9,2.3,0.9h43.8c0.9,0,1.7-0.3,2.3-0.9C1278.7,332.2,1305.2,306.2,1300.5,268.4
				L1300.5,268.4z M1273.8,327.6h-41c-4.5-4.8-23.8-27.6-20-58.3c3.7-30,32.5-56.6,40.5-63.5c8,6.9,36.8,33.5,40.5,63.5v0
				C1297.7,299.9,1278.3,322.8,1273.8,327.6z"/>
		</g>
		<g>
			<path class="st2" d="M1348.1,180c-1.3-1.3-3.4-1.3-4.7,0l-46.6,46.6c-1,1-1.2,2.4-0.7,3.6c0.5,1.2,1.7,2.1,3.1,2.1h21.4v85.2
				c0,1.8,1.5,3.3,3.3,3.3c1.8,0,3.3-1.5,3.3-3.3V229c0-1.8-1.5-3.3-3.3-3.3h-16.7l38.6-38.6l38.4,38.4h-19.7
				c-1.8,0-3.3,1.5-3.3,3.3s1.5,3.3,3.3,3.3h27.8c1.4,0,2.6-0.8,3.1-2.1c0.5-1.2,0.2-2.7-0.7-3.6L1348.1,180z"/>
		</g>
		<g>
			<path class="st2" d="M1304.5,172.2c-5.6,0-10.2,4.6-10.2,10.2c0,5.6,4.6,10.2,10.2,10.2c5.6,0,10.2-4.6,10.2-10.2
				C1314.7,176.8,1310.1,172.2,1304.5,172.2z M1304.5,185.9c-1.9,0-3.5-1.6-3.5-3.5c0-1.9,1.6-3.5,3.5-3.5s3.5,1.6,3.5,3.5
				C1308,184.3,1306.4,185.9,1304.5,185.9z"/>
		</g>
		<g>
			<path class="st2" d="M1282.5,107.3c-14,0-25.4,11.4-25.4,25.4c0,14,11.4,25.4,25.4,25.4c14,0,25.4-11.4,25.4-25.4
				C1307.9,118.7,1296.5,107.3,1282.5,107.3z M1282.5,151.4c-10.3,0-18.7-8.4-18.7-18.7s8.4-18.7,18.7-18.7
				c10.3,0,18.7,8.4,18.7,18.7S1292.8,151.4,1282.5,151.4z"/>
		</g>
		<g>
			<path class="st2" d="M865.2,178.1L704.9,294.3c-1.5,1.1-1.8,3.2-0.7,4.7c0.7,0.9,1.7,1.4,2.7,1.4c0.7,0,1.4-0.2,2-0.6
				l160.3-116.2c1.5-1.1,1.8-3.2,0.7-4.7C868.8,177.3,866.7,177,865.2,178.1z"/>
		</g>
		<g>
			<path class="st2" d="M788.3,259.8L734,298.9c-1.5,1.1-1.8,3.2-0.8,4.7c0.7,0.9,1.7,1.4,2.7,1.4c0.7,0,1.4-0.2,1.9-0.6l54.3-39.1
				c1.5-1.1,1.8-3.2,0.8-4.7C791.9,259.1,789.8,258.8,788.3,259.8z"/>
		</g>
		<g>
			<path class="st2" d="M781.3,360.7l-121.2,85.8c-1.5,1.1-1.9,3.1-0.8,4.7c0.7,0.9,1.7,1.4,2.7,1.4c0.7,0,1.3-0.2,1.9-0.6
				l121.2-85.8c1.5-1.1,1.9-3.1,0.8-4.7C784.9,360,782.8,359.6,781.3,360.7z"/>
		</g>
		<g>
			<path class="st2" d="M483.2,366.7c-1.1-0.9-2.8-1-4-0.1l-87.9,60.2c-1.5,1-1.9,3.1-0.9,4.6c0.6,0.9,1.7,1.5,2.8,1.5
				c0.6,0,1.3-0.2,1.9-0.6l78.9-54l-4.8,12.1c-0.7,1.7,0.2,3.7,1.9,4.3c1.7,0.7,3.7-0.2,4.3-1.9l8.8-22.2
				C484.8,369.2,484.4,367.7,483.2,366.7z"/>
		</g>
		<g>
			<path class="st2" d="M481.1,366C481.1,366,481.1,366,481.1,366l-24.8,0.6c-1.8,0-3.3,1.6-3.3,3.4c0,1.8,1.5,3.3,3.3,3.3
				c0,0,0.1,0,0.1,0l24.7-0.6c1.8,0,3.3-1.6,3.3-3.4C484.4,367.4,482.9,366,481.1,366z"/>
		</g>
		<g>
			<path class="st2" d="M926.8,78c-1.2-0.9-2.8-1-4-0.1L666.9,256.3c-1.5,1.1-1.9,3.1-0.8,4.7c0.6,0.9,1.7,1.4,2.7,1.4
				c0.7,0,1.3-0.2,1.9-0.6L917.5,89.7l-4.7,11.9c-0.7,1.7,0.2,3.7,1.9,4.3c1.7,0.7,3.7-0.2,4.3-1.9l8.8-22.2
				C928.4,80.5,927.9,78.9,926.8,78z"/>
		</g>
		<g>
			<path class="st2" d="M924.6,77.3l-24.7,0.6c-1.8,0-3.3,1.6-3.3,3.4c0,1.8,1.5,3.3,3.3,3.3c0,0,0.1,0,0.1,0l24.7-0.6
				c1.8,0,3.3-1.6,3.3-3.4C928,78.7,926.4,77.2,924.6,77.3z"/>
		</g>
		<g>
			<path class="st2" d="M1075.1,89.4l-61.8,8.8c-1.2,0.2-2.2,1-2.6,2.1c-0.4,1.1-0.2,2.4,0.5,3.3l12,14.8l-60.5,49.4
				c-1.4,1.2-1.6,3.3-0.5,4.7c1.2,1.4,3.3,1.6,4.7,0.5l63.1-51.6c1.4-1.2,1.6-3.3,0.5-4.7l-10.4-12.8l51-7.3l-12.1,48.4l-12.1-12.1
				c-1.2-1.2-3.2-1.3-4.5-0.2l-95.7,78.9c-1.4,1.2-1.6,3.3-0.5,4.7c0.7,0.8,1.6,1.2,2.6,1.2c0.7,0,1.5-0.2,2.1-0.8l93.4-77
				l14.1,14.1c0.9,0.9,2.1,1.2,3.3,0.9c1.2-0.3,2.1-1.2,2.3-2.4l14.7-59c0.3-1.1,0-2.2-0.8-3C1077.4,89.6,1076.2,89.2,1075.1,89.4z"
				/>
		</g>
		<g>
			<path class="st2" d="M637.3,134.5c-0.7-1.7-2.6-2.6-4.3-1.9c-1.7,0.7-2.6,2.6-1.9,4.3c4.6,11.7,5.1,44.5,2.4,49.1
				c-2.6,2.1-7.6,2.3-9.3,2.2c-0.9-0.1-1.8,0.3-2.5,0.9c-0.7,0.6-1.1,1.5-1.1,2.4c0,0,0,2.8-0.3,5.8c-0.2,2-3.3,12.3-5.4,19
				c-0.6,1.8,0.4,3.6,2.2,4.2c0.3,0.1,0.7,0.2,1,0.2c1.4,0,2.7-0.9,3.2-2.3c0.9-2.8,5.3-16.9,5.7-20.3c0.1-1.2,0.2-2.3,0.3-3.2
				c3.1-0.2,7.6-1.1,10.8-3.9c2.9-2.5,4.1-11.2,3.7-25.7C641.5,155.1,640.1,141.6,637.3,134.5z"/>
		</g>
		<g>
			<path class="st1" d="M619.2,92.6c0,0-0.2,11.9-4.8,15c-4.7,3-13.8-7.8-13.8-7.8s1.1,7.4-3,15.2c-2.3,4.6-18.9,24.1-22,28.6
				c-5.2,7.4,4.7,37,7.7,43.4c2.9,6.3,3.6,8.7,3.2,12.4c0,0,4.8-3.4,3.5-8.8c0,0,9.9-6.7,11.3-13.2c0,0-9.7-14.4-1.1-17.5
				c8.6-3,9,0,9,0l-1.3-10.9c0,0,19.4,0.3,26.4-13.3c0,0,2.3-8.3,0-20.7C631.7,101.2,619.2,92.6,619.2,92.6z"/>
			<path class="st2" d="M621.1,89.9c-1-0.7-2.3-0.8-3.4-0.2c-1.1,0.6-1.8,1.7-1.8,2.9c-0.1,4.3-1.3,10.9-3.3,12.2
				c-1.2,0.3-5.9-2.9-9.5-7.1c-1-1.1-2.6-1.5-3.9-0.9c-1.4,0.6-2.2,2.1-1.9,3.5c0,0.1,0.8,6.5-2.6,13.2c-1.3,2.5-8.5,11.5-13.8,18.1
				c-3.6,4.5-6.7,8.4-8,10.2c-7.3,10.6,7.2,46.3,7.4,46.7c2.9,6.2,3.2,7.9,2.9,10.6c-0.2,1.3,0.5,2.6,1.6,3.3
				c0.5,0.3,1.1,0.5,1.7,0.5c0.7,0,1.4-0.2,1.9-0.6c2.1-1.5,5.2-5.1,5.1-9.9c3.2-2.4,9.7-8,11-14c0.2-0.9,0-1.8-0.5-2.6
				c-2.1-3.1-4.8-8.9-3.9-11.4c0.1-0.3,0.3-0.7,1.2-1c3.1-1.1,4.6-1.2,5.3-1.2c0.7,0.9,1.9,1.5,3.1,1.3c1.8-0.2,3.1-1.9,2.9-3.7
				l-0.9-7.4c6.5-0.7,19.7-3.4,25.6-14.9c0.1-0.2,0.2-0.4,0.3-0.7c0.1-0.4,2.4-9.2,0.1-22.2C634.8,99.4,621.7,90.3,621.1,89.9z
				 M605.9,160.5C605.9,160.5,605.9,160.5,605.9,160.5C605.9,160.5,605.9,160.5,605.9,160.5z M631.1,134.6
				c-6.1,11.2-23,11.1-23.2,11.1c-1,0-1.9,0.4-2.5,1.1c-0.6,0.7-0.9,1.7-0.8,2.6l0.7,5.9c-1.8,0.1-3.8,0.6-6.2,1.5
				c-2.6,0.9-4.5,2.8-5.3,5.2c-1.8,5.4,1.9,12.6,3.8,15.8c-1.6,3.6-6.5,7.9-9.5,10c-0.2,0.1-0.4,0.3-0.5,0.4
				c-0.4-0.8-0.8-1.7-1.2-2.7c-4.1-9-11.5-34.9-8-40.1c1.1-1.6,4.3-5.6,7.7-9.8c7.6-9.4,13-16.3,14.5-19.2c1.7-3.2,2.5-6.4,3-9.1
				c3.8,3.1,8.6,5.5,12.6,2.9c3.4-2.2,4.9-6.9,5.7-11c3.4,3.5,7.8,9.1,9,16.3C632.8,125.7,631.4,133,631.1,134.6z"/>
		</g>
		<g>
			<path class="st2" d="M589.7,187.9c-1.8,0.2-3.2,1.8-3,3.7c0.9,8.7-0.7,13.1-0.8,13.3c-0.7,1.7,0.1,3.6,1.8,4.3
				c0.4,0.2,0.8,0.3,1.3,0.3c1.3,0,2.6-0.8,3.1-2.1c0.2-0.6,2.3-6,1.2-16.5C593.2,189,591.6,187.7,589.7,187.9z"/>
		</g>
		<g>
			<path class="st2" d="M578.3,112.4c-36.7,28-23.2,51.4-22.6,52.4c0.6,1,1.7,1.6,2.9,1.6c0.6,0,1.2-0.2,1.7-0.5
				c1.6-0.9,2.1-3,1.1-4.6c-0.1-0.2-11-19.3,20.9-43.6c1.5-1.1,1.7-3.2,0.6-4.7C581.8,111.6,579.8,111.3,578.3,112.4z"/>
		</g>
		<g>
			<polygon class="st5" points="1157.4,159.9 1157.4,190.5 1202.4,190.5 1185.1,175.2 1202.4,159.9 			"/>
			<path class="st2" d="M1205.6,158.7c-0.5-1.3-1.7-2.2-3.1-2.2h-45c-1.8,0-3.3,1.5-3.3,3.3v30.7c0,1.8,1.5,3.3,3.3,3.3h45
				c1.4,0,2.6-0.9,3.1-2.2c0.5-1.3,0.1-2.8-0.9-3.7l-14.6-12.8l14.6-12.8C1205.7,161.5,1206.1,160,1205.6,158.7z M1182.8,172.7
				c-0.7,0.6-1.1,1.5-1.1,2.5c0,1,0.4,1.9,1.1,2.5l10.8,9.5h-32.8v-24h32.8L1182.8,172.7z"/>
		</g>
		<g>
			<path class="st0" d="M1253.3,253.6c-9.7,0-17.5,7.8-17.5,17.5c0,9.7,7.8,17.5,17.5,17.5c9.7,0,17.5-7.8,17.5-17.5
				C1270.8,261.4,1263,253.6,1253.3,253.6z"/>
			<path class="st2" d="M1253.3,250.2c-11.5,0-20.8,9.3-20.8,20.8c0,11.5,9.3,20.8,20.8,20.8s20.8-9.3,20.8-20.8
				C1274.2,259.6,1264.8,250.2,1253.3,250.2z M1253.3,285.2c-7.8,0-14.1-6.3-14.1-14.1c0-7.8,6.3-14.1,14.1-14.1s14.1,6.3,14.1,14.1
				C1267.5,278.9,1261.1,285.2,1253.3,285.2z"/>
		</g>
		<g>
			<path class="st2" d="M1237.7,259.3h-27.1c-1.8,0-3.3,1.5-3.3,3.3c0,1.8,1.5,3.3,3.3,3.3h27.1c1.8,0,3.3-1.5,3.3-3.3
				C1241,260.8,1239.5,259.3,1237.7,259.3z"/>
		</g>
		<g>
			<path class="st2" d="M1296.1,259.3h-27.4c-1.8,0-3.3,1.5-3.3,3.3c0,1.8,1.5,3.3,3.3,3.3h27.4c1.8,0,3.3-1.5,3.3-3.3
				C1299.4,260.8,1297.9,259.3,1296.1,259.3z"/>
		</g>
		<g>
			<path class="st2" d="M1238.8,278H1209c-1.8,0-3.3,1.5-3.3,3.3c0,1.8,1.5,3.3,3.3,3.3h29.8c1.8,0,3.3-1.5,3.3-3.3
				C1242.1,279.5,1240.6,278,1238.8,278z"/>
		</g>
		<g>
			<path class="st2" d="M1297.7,278h-30.2c-1.8,0-3.3,1.5-3.3,3.3c0,1.8,1.5,3.3,3.3,3.3h30.2c1.8,0,3.3-1.5,3.3-3.3
				C1301,279.5,1299.5,278,1297.7,278z"/>
		</g>
		<g>
			<path class="st2" d="M1150.7,329.6c-4.9,3.4-9,8.2-11.3,11.3l-9-8.1c-1.4-1.2-3.5-1.1-4.7,0.3c-1.2,1.4-1.1,3.5,0.3,4.7
				l11.8,10.6c0.6,0.6,1.4,0.9,2.2,0.9c0.2,0,0.3,0,0.5,0c1-0.1,1.8-0.7,2.4-1.5c0-0.1,5.1-8.1,11.7-12.6c1.5-1,1.9-3.1,0.9-4.6
				C1154.3,328.9,1152.2,328.6,1150.7,329.6z"/>
		</g>
		<g>
			<path class="st2" d="M1188.9,329h-20.5c-1.8,0-3.3,1.5-3.3,3.3c0,1.8,1.5,3.3,3.3,3.3h20.5c1.8,0,3.3-1.5,3.3-3.3
				C1192.2,330.5,1190.7,329,1188.9,329z"/>
		</g>
		<g>
			<path class="st2" d="M1188.9,340h-20.5c-1.8,0-3.3,1.5-3.3,3.3c0,1.8,1.5,3.3,3.3,3.3h20.5c1.8,0,3.3-1.5,3.3-3.3
				C1192.2,341.5,1190.7,340,1188.9,340z"/>
		</g>
		<g>
			<path class="st2" d="M1150.7,366.6c-4.9,3.4-9,8.2-11.3,11.3l-9-8.1c-1.4-1.2-3.5-1.1-4.7,0.3c-1.2,1.4-1.1,3.5,0.3,4.7
				l11.8,10.6c0.6,0.6,1.4,0.9,2.2,0.9c0.2,0,0.3,0,0.5,0c1-0.1,1.8-0.7,2.4-1.5c0.1-0.1,5.1-8.1,11.7-12.6c1.5-1,1.9-3.1,0.9-4.6
				C1154.3,365.9,1152.2,365.5,1150.7,366.6z"/>
		</g>
		<g>
			<path class="st2" d="M1188.9,366h-20.5c-1.8,0-3.3,1.5-3.3,3.3s1.5,3.3,3.3,3.3h20.5c1.8,0,3.3-1.5,3.3-3.3
				S1190.7,366,1188.9,366z"/>
		</g>
		<g>
			<path class="st2" d="M1188.9,377h-20.5c-1.8,0-3.3,1.5-3.3,3.3c0,1.8,1.5,3.3,3.3,3.3h20.5c1.8,0,3.3-1.5,3.3-3.3
				C1192.2,378.5,1190.7,377,1188.9,377z"/>
		</g>
		<g>
			<path class="st2" d="M1150.7,403.6c-4.9,3.4-9,8.2-11.3,11.3l-9-8.1c-1.4-1.2-3.5-1.1-4.7,0.3c-1.2,1.4-1.1,3.5,0.3,4.7
				l11.8,10.6c0.6,0.6,1.4,0.9,2.2,0.9c0.2,0,0.3,0,0.5,0c1-0.1,1.8-0.7,2.4-1.5c0.1-0.1,5.1-8.1,11.7-12.6c1.5-1,1.9-3.1,0.9-4.6
				C1154.3,402.9,1152.2,402.5,1150.7,403.6z"/>
		</g>
		<g>
			<path class="st2" d="M1188.9,403h-20.5c-1.8,0-3.3,1.5-3.3,3.3c0,1.8,1.5,3.3,3.3,3.3h20.5c1.8,0,3.3-1.5,3.3-3.3
				C1192.2,404.5,1190.7,403,1188.9,403z"/>
		</g>
		<g>
			<path class="st2" d="M1188.9,414h-20.5c-1.8,0-3.3,1.5-3.3,3.3c0,1.8,1.5,3.3,3.3,3.3h20.5c1.8,0,3.3-1.5,3.3-3.3
				C1192.2,415.5,1190.7,414,1188.9,414z"/>
		</g>
		<g>
			<path class="st5" d="M1412.6,104.9v89.1c0,11.2,9.1,20.3,20.3,20.3h101.4V104.9H1412.6z"/>
			<path class="st2" d="M1432.9,211c-9.3,0-16.9-7.6-16.9-16.9v-85.8h118.3v-6.7h-121.6c-1.8,0-3.3,1.5-3.3,3.3v89.1
				c0,13,10.6,23.6,23.6,23.6h101.4V211H1432.9z"/>
		</g>
		<g>
			<path class="st4" d="M1402.4,77.5v21.8c0,5.5,3.3,10.4,8.4,12.4l34.5,13.8c2.8,1.1,5.8,1.7,8.8,1.7h80.1V77.5H1402.4z"/>
			<path class="st2" d="M1454.1,123.8c-2.6,0-5.1-0.5-7.6-1.5l-34.5-13.8c-3.8-1.5-6.3-5.2-6.3-9.3V80.8h128.5v-6.7h-131.8
				c-1.8,0-3.3,1.5-3.3,3.3v21.8c0,6.9,4.1,13,10.5,15.5l34.5,13.8c3.2,1.3,6.6,1.9,10,1.9h80.1v-6.7H1454.1z"/>
		</g>
		<g>
			<path class="st2" d="M1469,123.8c-1.8,0-3.3,1.5-3.3,3.3v18.9c0,0.7-0.6,1.2-1.2,1.2h-15.7c-0.7,0-1.2-0.6-1.2-1.2V125
				c0-1.8-1.5-3.3-3.3-3.3c-1.8,0-3.3,1.5-3.3,3.3v21.1c0,4.4,3.6,7.9,7.9,7.9h15.7c4.4,0,7.9-3.5,7.9-7.9v-18.9
				C1472.3,125.3,1470.8,123.8,1469,123.8z"/>
		</g>
		<g>
			<path class="st2" d="M1469,161.6h-24.9c-1.8,0-3.3,1.5-3.3,3.3s1.5,3.3,3.3,3.3h24.9c1.8,0,3.3-1.5,3.3-3.3
				S1470.8,161.6,1469,161.6z"/>
		</g>
		<g>
			<path class="st2" d="M1412.6,184.4c-1.8,0-3.3,1.5-3.3,3.3s1.5,3.3,3.3,3.3h121.6v-6.7H1412.6z"/>
		</g>
		<g>
			<path class="st2" d="M1367.6,81.2h-20.4c-1.8,0-3.3,1.5-3.3,3.3v20.4c0,1.8,1.5,3.3,3.3,3.3h20.4c1.8,0,3.3-1.5,3.3-3.3V84.5
				C1371,82.6,1369.5,81.2,1367.6,81.2z M1364.3,101.6h-13.8V87.8h13.8V101.6z"/>
		</g>
		<g>
			<path class="st2" d="M1239.2,355.5c-1.8-0.2-3.5,1-3.8,2.9l-33.6,252.8c-0.2,1.8,1,3.5,2.9,3.8c0.1,0,0.3,0,0.4,0
				c1.6,0,3.1-1.2,3.3-2.9l33.6-252.8C1242.3,357.5,1241,355.8,1239.2,355.5z"/>
		</g>
		<g>
			<path class="st2" d="M1244.9,478.7c-1.8-0.1-3.4,1.4-3.5,3.2l-6.1,141.5c-0.1,1.8,1.4,3.4,3.2,3.5c0,0,0.1,0,0.1,0
				c1.8,0,3.3-1.4,3.3-3.2l6.1-141.5C1248.2,480.3,1246.8,478.8,1244.9,478.7z"/>
		</g>
		<g>
			<path class="st4" d="M1301.5,480.2c0,36.6,29.7,66.2,66.2,66.2c36.6,0,66.2-29.7,66.2-66.2v-54.3h-132.5V480.2z"/>
			<path class="st2" d="M1434,422.6h-132.5c-1.8,0-3.3,1.5-3.3,3.3v54.3c0,38.4,31.2,69.6,69.6,69.6c38.4,0,69.6-31.2,69.6-69.6
				v-54.3C1437.3,424.1,1435.8,422.6,1434,422.6z M1430.6,480.2c0,34.7-28.2,62.9-62.9,62.9c-34.7,0-62.9-28.2-62.9-62.9v-50.9
				h125.8V480.2z"/>
		</g>
		<g>
			<path class="st5" d="M1436,407.2h-136.6c-5.2,0-9.4,4.2-9.4,9.4s4.2,9.4,9.4,9.4H1436c5.2,0,9.4-4.2,9.4-9.4
				S1441.2,407.2,1436,407.2z"/>
			<path class="st2" d="M1436,403.9h-136.6c-7,0-12.7,5.7-12.7,12.7c0,7,5.7,12.7,12.7,12.7H1436c7,0,12.7-5.7,12.7-12.7
				C1448.7,409.6,1443,403.9,1436,403.9z M1436,422.6h-136.6c-3.3,0-6-2.7-6-6c0-3.3,2.7-6,6-6H1436c3.3,0,6,2.7,6,6
				C1442.1,419.9,1439.4,422.6,1436,422.6z"/>
		</g>
		<g>
			<g>
				<path class="st2" d="M1284.6,475.7c-11.5-3.4-22.9-7.9-27.8-17.2c-3.5-6.6-3.5-15.2-0.1-26.3c2.8-8.9,7.3-14.8,13.4-17.5
					c9.2-4.1,19.4,0.4,19.7,0.6c1.7,0.8,3.7,0.1,4.4-1.6c0.8-1.7,0.1-3.7-1.6-4.4c-0.5-0.2-13-6-25.1-0.6
					c-7.9,3.5-13.7,10.8-17.1,21.7c-4.1,12.9-3.9,23.2,0.5,31.5c6.1,11.5,19.5,16.8,31.8,20.4c11.6,3.4,17.7,9.9,17.1,18.1
					c-0.6,8.3-7.8,16.6-15.6,17.7c-7.8,1.2-12.8-2.1-13.7-5.9c-0.8-3.5,1.9-6.7,7-8.4c1.8-0.6,2.7-2.5,2.1-4.2
					c-0.6-1.8-2.5-2.7-4.2-2.1c-9.8,3.2-12.8,10.5-11.5,16.3c1.4,6,7.6,11.3,17.1,11.3c1.3,0,2.7-0.1,4.2-0.3
					c10.7-1.7,20.5-12.6,21.2-23.9C1306.8,495.2,1305.4,481.9,1284.6,475.7z"/>
			</g>
			<g>
				<path class="st2" d="M1468.1,408.5c-12.1-5.3-24.6,0.4-25.1,0.6c-1.7,0.8-2.4,2.8-1.6,4.4c0.8,1.7,2.8,2.4,4.4,1.6
					c0.1,0,10.4-4.7,19.7-0.6c6.1,2.7,10.6,8.6,13.4,17.5c3.5,11.2,3.5,20-0.2,26.7c-5.1,9.4-16.9,13.8-27.7,16.8
					c-15.3,4.3-23.5,14.4-21.8,27c1.6,11.8,11.5,21.8,21.6,21.8c13,0,20-6.7,21-12.9c0.8-4.9-1.9-11.2-11.7-14.4
					c-1.8-0.6-3.6,0.4-4.2,2.1c-0.6,1.8,0.4,3.6,2.1,4.2c4.9,1.6,7.6,4.3,7.2,7c-0.6,3.5-5.8,7.2-14.4,7.2c-6.7,0-13.8-7.7-15-16.1
					c-0.7-5.4,0.5-15.1,16.9-19.7c11.4-3.2,25.4-8.3,31.8-20c4.6-8.4,4.8-18.8,0.7-31.9C1481.8,419.3,1476,412,1468.1,408.5z"/>
			</g>
		</g>
		<g>
			<path class="st0" d="M1334.7,456.4c-9.7,0-17.6,7.9-17.6,17.6c0,9.7,7.9,17.6,17.6,17.6c9.7,0,17.6-7.9,17.6-17.6
				C1352.4,464.3,1344.5,456.4,1334.7,456.4z"/>
		</g>
		<g>
			
				<ellipse transform="matrix(9.853696e-02 -0.9951 0.9951 9.853696e-02 716.9013 1797.3009)" class="st0" cx="1350.5" cy="503" rx="8.1" ry="8.1"/>
		</g>
		<g>
			<path class="st2" d="M1396.2,433.8h-78.5c-1.8,0-3.3,1.5-3.3,3.3c0,1.8,1.5,3.3,3.3,3.3h78.5c1.8,0,3.3-1.5,3.3-3.3
				C1399.6,435.3,1398.1,433.8,1396.2,433.8z"/>
		</g>
		<g>
			<path class="st5" d="M1386.2,579.3h-36.8c-2.2,0-4,1.8-4,4v8h44.9v-8C1390.2,581.1,1388.4,579.3,1386.2,579.3z"/>
			<path class="st2" d="M1386.2,575.9h-36.8c-4.1,0-7.4,3.3-7.4,7.4v8c0,1.8,1.5,3.3,3.3,3.3h44.9c1.8,0,3.3-1.5,3.3-3.3v-8
				C1393.6,579.2,1390.2,575.9,1386.2,575.9z M1386.9,588h-38.2v-4.7c0-0.4,0.3-0.7,0.7-0.7h36.8c0.4,0,0.7,0.3,0.7,0.7V588z"/>
		</g>
		<g>
			<rect x="1317.1" y="591.3" class="st4" width="101.3" height="45.9"/>
			<path class="st2" d="M1418.4,588h-101.3c-1.8,0-3.3,1.5-3.3,3.3v45.9h6.7v-42.5h94.6v42.5h6.7v-45.9
				C1421.8,589.5,1420.3,588,1418.4,588z"/>
		</g>
		<g>
			<path class="st2" d="M1306.5,541c-0.2-1.8-1.9-3.1-3.7-2.9c-1.8,0.2-3.1,1.9-2.9,3.7l7.1,55.6c0.2,1.7,1.7,2.9,3.3,2.9
				c0.1,0,0.3,0,0.4,0c1.8-0.2,3.1-1.9,2.9-3.7L1306.5,541z"/>
		</g>
		<g>
			<path class="st2" d="M1289.9,543.8c-1.8,0.1-3.3,1.7-3.2,3.5l2.6,47c0.1,1.8,1.6,3.2,3.3,3.2c0.1,0,0.1,0,0.2,0
				c1.8-0.1,3.3-1.7,3.2-3.5l-2.6-47C1293.3,545.1,1291.8,543.7,1289.9,543.8z"/>
		</g>
		<g>
			<path class="st2" d="M1396.2,236.7c-0.8-1.1-2.3-1.5-3.6-1.2c-1.3,0.4-2.3,1.5-2.4,2.9l-2.7,29.9l-30-4.8
				c-1.4-0.2-2.7,0.4-3.4,1.6c-0.7,1.2-0.6,2.7,0.2,3.7l34.7,44.6c0.6,0.7,1.4,1.2,2.3,1.3l31,3.5c0.5,0.2,1,0.4,1.5,0.4
				c0.3,0,0.6,0,0.9-0.1c1.3-0.3,2.3-1.4,2.4-2.8l4.4-31.9c0.1-0.9-0.1-1.8-0.7-2.5L1396.2,236.7z M1421,311.4l-27.6-3.1l-28.6-36.8
				l24.1,3.8c0.8,0.4,1.7,0.6,2.6,0.3c1.3-0.4,2.3-1.5,2.4-2.9l2.3-25.2l28.6,36.8L1421,311.4z"/>
		</g>
		<g>
			<path class="st2" d="M1403.9,284.2c-1.1-1.5-3.2-1.7-4.7-0.6c-1.5,1.1-1.7,3.2-0.6,4.7l69.9,89.9c0.7,0.8,1.6,1.3,2.6,1.3
				c0.7,0,1.4-0.2,2-0.7c1.5-1.1,1.7-3.2,0.6-4.7L1403.9,284.2z"/>
		</g>
		<g>
			<path class="st5" d="M1276.4,328.8c-0.6,0-1,0-1.3,0.1h-43.6c-0.2,0-0.7-0.1-1.3-0.1c-4.9,0-8.1,2.8-8.3,7.4l-0.1,2.1h63
				l-0.1-2.1C1284.4,331.7,1281.2,328.8,1276.4,328.8z"/>
			<path class="st2" d="M1276.4,325.5c-0.6,0-1.1,0-1.4,0.1h-43.2c-0.4,0-0.8-0.1-1.4-0.1c-6.6,0-11.3,4.2-11.7,10.6l-0.1,2.1
				c-0.1,0.9,0.3,1.8,0.9,2.5c0.6,0.7,1.5,1.1,2.4,1.1h63c0.9,0,1.8-0.4,2.4-1.1c0.6-0.7,1-1.6,0.9-2.5l-0.1-2.1
				C1287.7,329.7,1283,325.5,1276.4,325.5z M1225.6,335c0.7-2.3,2.9-2.9,4.7-2.9c0.4,0,0.7,0,0.9,0c0.1,0,0.3,0,0.4,0h43.6
				c0.1,0,0.3,0,0.4,0c0.1,0,0.4,0,0.9,0c1.8,0,4,0.5,4.7,2.9H1225.6z"/>
		</g>
		<g>
			<path class="st2" d="M340.4,549.9c-0.2,0-0.4,0-0.7,0.1c-1.8,0.4-2.9,2.1-2.5,3.9c0.3,1.5,1.7,2.6,3.2,2.6h0c0.2,0,0.4,0,0.7-0.1
				c0.9-0.2,1.6-0.7,2.1-1.4c0.5-0.7,0.7-1.6,0.5-2.5C343.3,551,341.9,549.9,340.4,549.9z"/>
		</g>
		<g>
			<path class="st2" d="M683.6,553.5c-0.2,0-0.4,0-0.7,0.1c-0.9,0.2-1.6,0.7-2.1,1.4c-0.5,0.7-0.7,1.6-0.5,2.5
				c0.3,1.5,1.7,2.6,3.2,2.6h0c0.2,0,0.4,0,0.7-0.1c1.8-0.4,2.9-2.1,2.6-3.9C686.5,554.6,685.2,553.5,683.6,553.5z"/>
		</g>
		<g>
			<path class="st2" d="M778.2,404.4c-0.2,0-0.4,0-0.7,0.1c-0.9,0.2-1.6,0.7-2.1,1.4c-0.5,0.7-0.7,1.6-0.5,2.5
				c0.3,1.5,1.7,2.6,3.2,2.6h0c0.2,0,0.4,0,0.7-0.1c1.8-0.4,2.9-2.1,2.5-3.9C781.1,405.5,779.8,404.4,778.2,404.4z"/>
		</g>
		<g>
			<path class="st2" d="M796.4,351.7c-0.2,0-0.4,0-0.7,0.1c-1.8,0.4-2.9,2.1-2.6,3.9c0.3,1.5,1.7,2.6,3.2,2.6c0.2,0,0.4,0,0.7-0.1
				c1.8-0.4,2.9-2.1,2.6-3.9C799.3,352.8,798,351.7,796.4,351.7z"/>
		</g>
		<g>
			<path class="st2" d="M562.5,172.1c-0.2,0-0.4,0-0.7,0.1c-0.9,0.2-1.6,0.7-2.1,1.4c-0.5,0.7-0.7,1.6-0.5,2.5
				c0.3,1.5,1.7,2.6,3.2,2.6c0.2,0,0.4,0,0.7-0.1c0.9-0.2,1.6-0.7,2.1-1.4c0.5-0.7,0.7-1.6,0.5-2.5
				C565.4,173.2,564,172.1,562.5,172.1z"/>
		</g>
		<g>
			<path class="st2" d="M800.5,252.4c-0.2,0-0.4,0-0.7,0.1c-1.8,0.4-2.9,2.1-2.5,3.9c0.3,1.5,1.7,2.6,3.2,2.6c0.2,0,0.4,0,0.7-0.1
				c0.9-0.2,1.6-0.7,2.1-1.4c0.5-0.7,0.7-1.6,0.5-2.5C803.4,253.5,802.1,252.4,800.5,252.4z"/>
		</g>
		<g>
			<path class="st2" d="M1012.5,524.1c-0.2,0-0.4,0-0.7,0.1c-1.8,0.4-2.9,2.1-2.6,3.9c0.3,1.5,1.7,2.6,3.2,2.6c0.2,0,0.4,0,0.7-0.1
				c0.9-0.2,1.6-0.7,2.1-1.4c0.5-0.7,0.7-1.6,0.5-2.5C1015.4,525.2,1014.1,524.1,1012.5,524.1z"/>
		</g>
		<g>
			<path class="st2" d="M1181.9,610.6c-0.2,0-0.4,0-0.7,0.1c-0.9,0.2-1.6,0.7-2.1,1.4c-0.5,0.7-0.7,1.6-0.5,2.5
				c0.3,1.5,1.7,2.6,3.2,2.6c0.2,0,0.4,0,0.7-0.1c1.8-0.4,2.9-2.1,2.6-3.9C1184.8,611.7,1183.4,610.6,1181.9,610.6z"/>
		</g>
		<g>
			<path class="st2" d="M1244.8,466.5c-0.2,0-0.4,0-0.7,0.1c-1.8,0.4-2.9,2.1-2.6,3.9c0.3,1.5,1.7,2.6,3.2,2.6c0.2,0,0.4,0,0.7-0.1
				c1.8-0.4,2.9-2.1,2.6-3.9C1247.7,467.6,1246.4,466.5,1244.8,466.5z"/>
		</g>
		<g>
			<path class="st2" d="M1411.3,433.9c-0.2,0-0.4,0-0.7,0.1c-1.8,0.4-2.9,2.1-2.6,3.9c0.3,1.5,1.7,2.6,3.2,2.6c0.2,0,0.4,0,0.7-0.1
				c1.8-0.4,2.9-2.1,2.6-3.9C1414.2,435,1412.9,433.9,1411.3,433.9z"/>
		</g>
		<g>
			<path class="st2" d="M1447.2,46.8c-0.2,0-0.4,0-0.7,0.1c-1.8,0.4-2.9,2.1-2.5,3.9c0.3,1.5,1.7,2.6,3.2,2.6c0.2,0,0.4,0,0.7-0.1
				c0.9-0.2,1.6-0.7,2.1-1.4c0.5-0.7,0.7-1.6,0.5-2.5C1450.1,47.9,1448.8,46.8,1447.2,46.8z"/>
		</g>
		<g>
			<g>
				<path class="st2" d="M519.6,187.9c-1.8,0-3.3,1.5-3.3,3.3v5.9c0,1.8,1.5,3.3,3.3,3.3c1.8,0,3.3-1.5,3.3-3.3v-5.9
					C523,189.4,521.5,187.9,519.6,187.9z"/>
			</g>
			<g>
				<path class="st2" d="M519.6,221.4c-1.8,0-3.3,1.5-3.3,3.3v5.9c0,1.8,1.5,3.3,3.3,3.3c1.8,0,3.3-1.5,3.3-3.3v-5.9
					C523,222.9,521.5,221.4,519.6,221.4z"/>
			</g>
			<g>
				<path class="st2" d="M539.3,207.6h-5.9c-1.8,0-3.3,1.5-3.3,3.3s1.5,3.3,3.3,3.3h5.9c1.8,0,3.3-1.5,3.3-3.3
					S541.2,207.6,539.3,207.6z"/>
			</g>
			<g>
				<path class="st2" d="M505.8,207.6h-5.9c-1.8,0-3.3,1.5-3.3,3.3s1.5,3.3,3.3,3.3h5.9c1.8,0,3.3-1.5,3.3-3.3
					S507.7,207.6,505.8,207.6z"/>
			</g>
		</g>
		<g>
			<g>
				<path class="st2" d="M870.4,322.9c-1.8,0-3.3,1.5-3.3,3.3v5.9c0,1.8,1.5,3.3,3.3,3.3c1.8,0,3.3-1.5,3.3-3.3v-5.9
					C873.8,324.4,872.3,322.9,870.4,322.9z"/>
			</g>
			<g>
				<path class="st2" d="M870.4,356.4c-1.8,0-3.3,1.5-3.3,3.3v5.9c0,1.8,1.5,3.3,3.3,3.3c1.8,0,3.3-1.5,3.3-3.3v-5.9
					C873.8,357.9,872.3,356.4,870.4,356.4z"/>
			</g>
			<g>
				<path class="st2" d="M890.1,342.6h-5.9c-1.8,0-3.3,1.5-3.3,3.3c0,1.8,1.5,3.3,3.3,3.3h5.9c1.8,0,3.3-1.5,3.3-3.3
					C893.5,344.1,892,342.6,890.1,342.6z"/>
			</g>
			<g>
				<path class="st2" d="M856.6,342.6h-5.9c-1.8,0-3.3,1.5-3.3,3.3c0,1.8,1.5,3.3,3.3,3.3h5.9c1.8,0,3.3-1.5,3.3-3.3
					C860,344.1,858.5,342.6,856.6,342.6z"/>
			</g>
		</g>
		<g>
			<g>
				<path class="st2" d="M870.4,324.6c-1.8,0-3.3,1.5-3.3,3.3v5.9c0,1.8,1.5,3.3,3.3,3.3c1.8,0,3.3-1.5,3.3-3.3v-5.9
					C873.8,326.1,872.3,324.6,870.4,324.6z"/>
			</g>
			<g>
				<path class="st2" d="M870.4,358.1c-1.8,0-3.3,1.5-3.3,3.3v5.9c0,1.8,1.5,3.3,3.3,3.3c1.8,0,3.3-1.5,3.3-3.3v-5.9
					C873.8,359.6,872.3,358.1,870.4,358.1z"/>
			</g>
			<g>
				<path class="st2" d="M890.1,344.3h-5.9c-1.8,0-3.3,1.5-3.3,3.3c0,1.8,1.5,3.3,3.3,3.3h5.9c1.8,0,3.3-1.5,3.3-3.3
					C893.5,345.8,892,344.3,890.1,344.3z"/>
			</g>
			<g>
				<path class="st2" d="M856.6,344.3h-5.9c-1.8,0-3.3,1.5-3.3,3.3c0,1.8,1.5,3.3,3.3,3.3h5.9c1.8,0,3.3-1.5,3.3-3.3
					C860,345.8,858.5,344.3,856.6,344.3z"/>
			</g>
		</g>
		<g>
			<g>
				<path class="st2" d="M1501.6,518.6c-1.8,0-3.3,1.5-3.3,3.3v5.9c0,1.8,1.5,3.3,3.3,3.3s3.3-1.5,3.3-3.3V522
					C1504.9,520.1,1503.4,518.6,1501.6,518.6z"/>
			</g>
			<g>
				<path class="st2" d="M1501.6,552.1c-1.8,0-3.3,1.5-3.3,3.3v5.9c0,1.8,1.5,3.3,3.3,3.3s3.3-1.5,3.3-3.3v-5.9
					C1504.9,553.6,1503.4,552.1,1501.6,552.1z"/>
			</g>
			<g>
				<path class="st2" d="M1521.2,538.3h-5.9c-1.8,0-3.3,1.5-3.3,3.3c0,1.8,1.5,3.3,3.3,3.3h5.9c1.8,0,3.3-1.5,3.3-3.3
					C1524.6,539.8,1523.1,538.3,1521.2,538.3z"/>
			</g>
			<g>
				<path class="st2" d="M1487.8,538.3h-5.9c-1.8,0-3.3,1.5-3.3,3.3c0,1.8,1.5,3.3,3.3,3.3h5.9c1.8,0,3.3-1.5,3.3-3.3
					C1491.1,539.8,1489.6,538.3,1487.8,538.3z"/>
			</g>
		</g>
		<g>
			<g>
				<path class="st2" d="M717.3,568.3c-1.8,0-3.3,1.5-3.3,3.3v6.7c0,1.8,1.5,3.3,3.3,3.3c1.8,0,3.3-1.5,3.3-3.3v-6.7
					C720.6,569.8,719.1,568.3,717.3,568.3z"/>
			</g>
			<g>
				<path class="st2" d="M717.3,606.4c-1.8,0-3.3,1.5-3.3,3.3v6.7c0,1.8,1.5,3.3,3.3,3.3c1.8,0,3.3-1.5,3.3-3.3v-6.7
					C720.6,607.9,719.1,606.4,717.3,606.4z"/>
			</g>
			<g>
				<path class="st2" d="M739.7,590.7H733c-1.8,0-3.3,1.5-3.3,3.3s1.5,3.3,3.3,3.3h6.7c1.8,0,3.3-1.5,3.3-3.3
					S741.5,590.7,739.7,590.7z"/>
			</g>
			<g>
				<path class="st2" d="M701.6,590.7h-6.7c-1.8,0-3.3,1.5-3.3,3.3s1.5,3.3,3.3,3.3h6.7c1.8,0,3.3-1.5,3.3-3.3
					S703.4,590.7,701.6,590.7z"/>
			</g>
		</g>
		<g>
			<g>
				<path class="st2" d="M1010.1,339.1c-1.8,0-3.3,1.5-3.3,3.3v5.2c0,1.8,1.5,3.3,3.3,3.3c1.8,0,3.3-1.5,3.3-3.3v-5.2
					C1013.4,340.6,1011.9,339.1,1010.1,339.1z"/>
			</g>
			<g>
				<path class="st2" d="M1010.1,368.5c-1.8,0-3.3,1.5-3.3,3.3v5.2c0,1.8,1.5,3.3,3.3,3.3c1.8,0,3.3-1.5,3.3-3.3v-5.2
					C1013.4,370,1011.9,368.5,1010.1,368.5z"/>
			</g>
			<g>
				<path class="st2" d="M1027.4,356.4h-5.2c-1.8,0-3.3,1.5-3.3,3.3c0,1.8,1.5,3.3,3.3,3.3h5.2c1.8,0,3.3-1.5,3.3-3.3
					C1030.7,357.9,1029.2,356.4,1027.4,356.4z"/>
			</g>
			<g>
				<path class="st2" d="M998,356.4h-5.2c-1.8,0-3.3,1.5-3.3,3.3c0,1.8,1.5,3.3,3.3,3.3h5.2c1.8,0,3.3-1.5,3.3-3.3
					C1001.3,357.9,999.8,356.4,998,356.4z"/>
			</g>
		</g>
		<g>
			<g>
				<path class="st2" d="M667.7,193c-1.8,0-3.3,1.5-3.3,3.3v4.4c0,1.8,1.5,3.3,3.3,3.3c1.8,0,3.3-1.5,3.3-3.3v-4.4
					C671,194.5,669.5,193,667.7,193z"/>
			</g>
			<g>
				<path class="st2" d="M667.7,218c-1.8,0-3.3,1.5-3.3,3.3v4.4c0,1.8,1.5,3.3,3.3,3.3c1.8,0,3.3-1.5,3.3-3.3v-4.4
					C671,219.5,669.5,218,667.7,218z"/>
			</g>
			<g>
				<path class="st2" d="M682.4,207.7H678c-1.8,0-3.3,1.5-3.3,3.3s1.5,3.3,3.3,3.3h4.4c1.8,0,3.3-1.5,3.3-3.3
					S684.2,207.7,682.4,207.7z"/>
			</g>
			<g>
				<path class="st2" d="M657.4,207.7H653c-1.8,0-3.3,1.5-3.3,3.3s1.5,3.3,3.3,3.3h4.4c1.8,0,3.3-1.5,3.3-3.3
					S659.2,207.7,657.4,207.7z"/>
			</g>
		</g>
		<g>
			<path class="st2" d="M747,162.7l-2.2,1.5c-1.5,1-1.9,3.1-0.9,4.6c0.6,0.9,1.7,1.5,2.8,1.5c0.6,0,1.3-0.2,1.9-0.6l2.2-1.5
				c1.5-1,1.9-3.1,0.9-4.6C750.6,162,748.6,161.6,747,162.7z"/>
			<path class="st2" d="M760.3,153.6l-2.2,1.5c-1.5,1-1.9,3.1-0.9,4.6c0.6,0.9,1.7,1.5,2.8,1.5c0.6,0,1.3-0.2,1.9-0.6l2.2-1.5
				c1.5-1,1.9-3.1,0.9-4.6C763.9,152.9,761.9,152.5,760.3,153.6z"/>
			<path class="st2" d="M733.8,171.7l-2.2,1.5c-1.5,1-1.9,3.1-0.9,4.6c0.6,0.9,1.7,1.5,2.8,1.5c0.6,0,1.3-0.2,1.9-0.6l2.2-1.5
				c1.5-1,1.9-3.1,0.9-4.6C737.4,171.1,735.3,170.7,733.8,171.7z"/>
			<path class="st2" d="M773.6,144.5l-2.2,1.5c-1.5,1-1.9,3.1-0.9,4.6c0.6,0.9,1.7,1.5,2.8,1.5c0.6,0,1.3-0.2,1.9-0.6l2.2-1.5
				c1.5-1,1.9-3.1,0.9-4.6C777.2,143.9,775.1,143.5,773.6,144.5z"/>
			<path class="st2" d="M707.2,189.9l-2.2,1.5c-1.5,1-1.9,3.1-0.9,4.6c0.6,0.9,1.7,1.5,2.8,1.5c0.6,0,1.3-0.2,1.9-0.6l2.2-1.5
				c1.5-1,1.9-3.1,0.9-4.6C710.8,189.2,708.7,188.8,707.2,189.9z"/>
			<path class="st2" d="M720.5,180.8l-2.2,1.5c-1.5,1-1.9,3.1-0.9,4.6c0.6,0.9,1.7,1.5,2.8,1.5c0.6,0,1.3-0.2,1.9-0.6l2.2-1.5
				c1.5-1,1.9-3.1,0.9-4.6C724.1,180.2,722,179.8,720.5,180.8z"/>
			<path class="st2" d="M826.8,108.2l-2.2,1.5c-1.5,1-1.9,3.1-0.9,4.6c0.6,0.9,1.7,1.5,2.8,1.5c0.6,0,1.3-0.2,1.9-0.6l2.2-1.5
				c1.5-1,1.9-3.1,0.9-4.6C830.4,107.6,828.3,107.2,826.8,108.2z"/>
			<path class="st2" d="M840.1,99.1l-2.2,1.5c-1.5,1-1.9,3.1-0.9,4.6c0.6,0.9,1.7,1.5,2.8,1.5c0.6,0,1.3-0.2,1.9-0.6l2.2-1.5
				c1.5-1,1.9-3.1,0.9-4.6C843.7,98.5,841.6,98.1,840.1,99.1z"/>
			<path class="st2" d="M786.9,135.4l-2.2,1.5c-1.5,1-1.9,3.1-0.9,4.6c0.6,0.9,1.7,1.5,2.8,1.5c0.6,0,1.3-0.2,1.9-0.6l2.2-1.5
				c1.5-1,1.9-3.1,0.9-4.6C790.5,134.8,788.4,134.4,786.9,135.4z"/>
			<path class="st2" d="M853.4,90.1l-2.2,1.5c-1.5,1-1.9,3.1-0.9,4.6c0.6,0.9,1.7,1.5,2.8,1.5c0.6,0,1.3-0.2,1.9-0.6l2.2-1.5
				c1.5-1,1.9-3.1,0.9-4.6C857,89.4,854.9,89,853.4,90.1z"/>
			<path class="st2" d="M800.2,126.4l-2.2,1.5c-1.5,1-1.9,3.1-0.9,4.6c0.6,0.9,1.7,1.5,2.8,1.5c0.6,0,1.3-0.2,1.9-0.6l2.2-1.5
				c1.5-1,1.9-3.1,0.9-4.6C803.8,125.7,801.7,125.3,800.2,126.4z"/>
			<path class="st2" d="M813.5,117.3l-2.2,1.5c-1.5,1-1.9,3.1-0.9,4.6c0.6,0.9,1.7,1.5,2.8,1.5c0.6,0,1.3-0.2,1.9-0.6l2.2-1.5
				c1.5-1,1.9-3.1,0.9-4.6C817.1,116.6,815,116.3,813.5,117.3z"/>
		</g>
		<g>
			<path class="st2" d="M158.7,605.4l-2.2,1.6c-1.5,1.1-1.9,3.2-0.8,4.7c0.7,0.9,1.7,1.4,2.7,1.4c0.7,0,1.3-0.2,1.9-0.6l2.2-1.6
				c1.5-1.1,1.9-3.2,0.8-4.7C162.3,604.7,160.2,604.4,158.7,605.4z"/>
			<path class="st2" d="M145.6,614.8l-2.2,1.6c-1.5,1.1-1.9,3.2-0.8,4.7c0.7,0.9,1.7,1.4,2.7,1.4c0.7,0,1.3-0.2,1.9-0.6l2.2-1.6
				c1.5-1.1,1.9-3.2,0.8-4.7C149.2,614.1,147.1,613.7,145.6,614.8z"/>
			<path class="st2" d="M124,634.2c-1.1-1.5-3.2-1.9-4.7-0.8l-2.2,1.6c-0.8,0.5-1.2,1.4-1.4,2.2h8.6
				C124.8,636.2,124.7,635.1,124,634.2z"/>
			<path class="st2" d="M132.5,624.1l-2.2,1.6c-1.5,1.1-1.9,3.2-0.8,4.7c0.7,0.9,1.7,1.4,2.7,1.4c0.7,0,1.3-0.2,1.9-0.6l2.2-1.6
				c1.5-1.1,1.9-3.2,0.8-4.7C136.1,623.4,134,623,132.5,624.1z"/>
			<path class="st2" d="M289.8,512.2l-2.2,1.6c-1.5,1.1-1.9,3.2-0.8,4.7c0.7,0.9,1.7,1.4,2.7,1.4c0.7,0,1.3-0.2,1.9-0.6l2.2-1.6
				c1.5-1.1,1.9-3.2,0.8-4.7C293.4,511.5,291.3,511.1,289.8,512.2z"/>
			<path class="st2" d="M316,493.5l-2.2,1.6c-1.5,1.1-1.9,3.2-0.8,4.7c0.7,0.9,1.7,1.4,2.7,1.4c0.7,0,1.3-0.2,1.9-0.6l2.2-1.6
				c1.5-1.1,1.9-3.2,0.8-4.7C319.6,492.8,317.5,492.5,316,493.5z"/>
			<path class="st2" d="M302.9,502.9l-2.2,1.6c-1.5,1.1-1.9,3.2-0.8,4.7c0.7,0.9,1.7,1.4,2.7,1.4c0.7,0,1.3-0.2,1.9-0.6l2.2-1.6
				c1.5-1.1,1.9-3.2,0.8-4.7C306.5,502.1,304.4,501.8,302.9,502.9z"/>
			<path class="st2" d="M263.6,530.8l-2.2,1.6c-1.5,1.1-1.9,3.2-0.8,4.7c0.7,0.9,1.7,1.4,2.7,1.4c0.7,0,1.3-0.2,1.9-0.6l2.2-1.6
				c1.5-1.1,1.9-3.2,0.8-4.7C267.2,530.1,265.1,529.8,263.6,530.8z"/>
			<path class="st2" d="M250.5,540.2l-2.2,1.6c-1.5,1.1-1.9,3.2-0.8,4.7c0.7,0.9,1.7,1.4,2.7,1.4c0.7,0,1.3-0.2,1.9-0.6l2.2-1.6
				c1.5-1.1,1.9-3.2,0.8-4.7C254.1,539.4,252,539.1,250.5,540.2z"/>
			<path class="st2" d="M171.8,596.1l-2.2,1.6c-1.5,1.1-1.9,3.2-0.8,4.7c0.7,0.9,1.7,1.4,2.7,1.4c0.7,0,1.3-0.2,1.9-0.6l2.2-1.6
				c1.5-1.1,1.9-3.2,0.8-4.7C175.4,595.4,173.3,595.1,171.8,596.1z"/>
			<path class="st2" d="M224.3,558.8l-2.2,1.6c-1.5,1.1-1.9,3.2-0.8,4.7c0.7,0.9,1.7,1.4,2.7,1.4c0.7,0,1.3-0.2,1.9-0.6l2.2-1.6
				c1.5-1.1,1.9-3.2,0.8-4.7C227.9,558.1,225.8,557.7,224.3,558.8z"/>
			<path class="st2" d="M276.7,521.5l-2.2,1.6c-1.5,1.1-1.9,3.2-0.8,4.7c0.7,0.9,1.7,1.4,2.7,1.4c0.7,0,1.3-0.2,1.9-0.6l2.2-1.6
				c1.5-1.1,1.9-3.2,0.8-4.7C280.3,520.8,278.2,520.4,276.7,521.5z"/>
			<path class="st2" d="M237.4,549.5l-2.2,1.6c-1.5,1.1-1.9,3.2-0.8,4.7c0.7,0.9,1.7,1.4,2.7,1.4c0.7,0,1.3-0.2,1.9-0.6l2.2-1.6
				c1.5-1.1,1.9-3.2,0.8-4.7C241,548.8,238.9,548.4,237.4,549.5z"/>
			<path class="st2" d="M211.2,568.1l-2.2,1.6c-1.5,1.1-1.9,3.2-0.8,4.7c0.7,0.9,1.7,1.4,2.7,1.4c0.7,0,1.3-0.2,1.9-0.6l2.2-1.6
				c1.5-1.1,1.9-3.2,0.8-4.7C214.7,567.4,212.7,567.1,211.2,568.1z"/>
			<path class="st2" d="M184.9,586.8l-2.2,1.6c-1.5,1.1-1.9,3.2-0.8,4.7c0.7,0.9,1.7,1.4,2.7,1.4c0.7,0,1.3-0.2,1.9-0.6l2.2-1.6
				c1.5-1.1,1.9-3.2,0.8-4.7C188.5,586.1,186.4,585.7,184.9,586.8z"/>
			<path class="st2" d="M198,577.5l-2.2,1.6c-1.5,1.1-1.9,3.2-0.8,4.7c0.7,0.9,1.7,1.4,2.7,1.4c0.7,0,1.3-0.2,1.9-0.6l2.2-1.6
				c1.5-1.1,1.9-3.2,0.8-4.7C201.6,576.7,199.5,576.4,198,577.5z"/>
		</g>
		<g>
			<path class="st2" d="M422.3,430.5C422.3,430.5,422.3,430.5,422.3,430.5c-1.2,0-2.2,0-2.7,0c-1.8,0-3.3,1.5-3.3,3.4
				c0,1.8,1.5,3.3,3.3,3.3c0,0,0,0,0,0c0.5,0,1.5,0,2.7,0c1.8,0,3.3-1.5,3.3-3.4C425.6,432,424.1,430.5,422.3,430.5z"/>
			<path class="st2" d="M438.4,430.5h-2.7c-1.8,0-3.3,1.5-3.3,3.3c0,1.8,1.5,3.3,3.3,3.3h2.7c1.8,0,3.3-1.5,3.3-3.3
				C441.7,432,440.2,430.5,438.4,430.5z"/>
			<path class="st2" d="M454.5,430.5l-2.7,0c0,0,0,0,0,0c-1.8,0-3.3,1.5-3.3,3.3c0,1.8,1.5,3.3,3.3,3.3l2.7,0c0,0,0,0,0,0
				c1.8,0,3.3-1.5,3.3-3.3C457.8,432,456.3,430.5,454.5,430.5z"/>
			<path class="st2" d="M468.8,445.7c-1.8,0-3.3,1.5-3.3,3.3v2.7c0,1.8,1.5,3.3,3.3,3.3c1.8,0,3.3-1.5,3.3-3.3v-2.7
				C472.1,447.2,470.6,445.7,468.8,445.7z"/>
			<path class="st2" d="M469.6,430.6c-0.3-0.1-0.6-0.1-0.8-0.1l-0.8,0c0,0,0,0,0,0c-1.8,0-3.3,1.5-3.3,3.3c0,0.9,0.3,1.7,0.9,2.3
				c0.2,1.6,1.6,2.8,3.3,2.8c1.8,0,3.3-1.5,3.3-3.3v-1.8C472.1,432.3,471.1,431,469.6,430.6z"/>
			<path class="st2" d="M468.8,477.9c-1.8,0-3.3,1.5-3.3,3.3v2.7c0,1.8,1.5,3.3,3.3,3.3c1.8,0,3.3-1.5,3.3-3.3v-2.7
				C472.1,479.4,470.6,477.9,468.8,477.9z"/>
			<path class="st2" d="M468.8,461.8c-1.8,0-3.3,1.5-3.3,3.3v2.7c0,1.8,1.5,3.3,3.3,3.3c1.8,0,3.3-1.5,3.3-3.3v-2.7
				C472.1,463.3,470.6,461.8,468.8,461.8z"/>
		</g>
		<g>
			<path class="st2" d="M746.3,319.8l-2.2,1.6c-1.5,1.1-1.8,3.2-0.7,4.7c0.7,0.9,1.7,1.4,2.7,1.4c0.7,0,1.4-0.2,2-0.6l2.2-1.6
				c1.5-1.1,1.8-3.2,0.7-4.7C749.8,319,747.7,318.7,746.3,319.8z"/>
			<path class="st2" d="M720.2,338.6l-2.2,1.6c-1.5,1.1-1.8,3.2-0.7,4.7c0.7,0.9,1.7,1.4,2.7,1.4c0.7,0,1.4-0.2,2-0.6l2.2-1.6
				c1.5-1.1,1.8-3.2,0.7-4.7C723.8,337.9,721.7,337.5,720.2,338.6z"/>
			<path class="st2" d="M785.4,291.5l-2.2,1.6c-1.5,1.1-1.8,3.2-0.7,4.7c0.7,0.9,1.7,1.4,2.7,1.4c0.7,0,1.4-0.2,2-0.6l2.2-1.6
				c1.5-1.1,1.8-3.2,0.7-4.7C788.9,290.7,786.9,290.4,785.4,291.5z"/>
			<path class="st2" d="M759.3,310.3l-2.2,1.6c-1.5,1.1-1.8,3.2-0.7,4.7c0.7,0.9,1.7,1.4,2.7,1.4c0.7,0,1.4-0.2,2-0.6l2.2-1.6
				c1.5-1.1,1.8-3.2,0.7-4.7C762.9,309.6,760.8,309.3,759.3,310.3z"/>
			<path class="st2" d="M772.3,300.9l-2.2,1.6c-1.5,1.1-1.8,3.2-0.7,4.7c0.7,0.9,1.7,1.4,2.7,1.4c0.7,0,1.4-0.2,2-0.6l2.2-1.6
				c1.5-1.1,1.8-3.2,0.7-4.7C775.9,300.2,773.8,299.8,772.3,300.9z"/>
			<path class="st2" d="M707.1,348.1l-2.2,1.6c-1.5,1.1-1.8,3.2-0.7,4.7c0.7,0.9,1.7,1.4,2.7,1.4c0.7,0,1.4-0.2,2-0.6l2.2-1.6
				c1.5-1.1,1.8-3.2,0.7-4.7C710.7,347.3,708.6,347,707.1,348.1z"/>
			<path class="st2" d="M655,385.8l-2.2,1.6c-1.5,1.1-1.8,3.2-0.7,4.7c0.7,0.9,1.7,1.4,2.7,1.4c0.7,0,1.4-0.2,2-0.6l2.2-1.6
				c1.5-1.1,1.8-3.2,0.7-4.7C658.6,385,656.5,384.7,655,385.8z"/>
			<path class="st2" d="M668,376.3l-2.2,1.6c-1.5,1.1-1.8,3.2-0.7,4.7c0.7,0.9,1.7,1.4,2.7,1.4c0.7,0,1.4-0.2,2-0.6l2.2-1.6
				c1.5-1.1,1.8-3.2,0.7-4.7C671.6,375.6,669.5,375.3,668,376.3z"/>
			<path class="st2" d="M681.1,366.9l-2.2,1.6c-1.5,1.1-1.8,3.2-0.7,4.7c0.7,0.9,1.7,1.4,2.7,1.4c0.7,0,1.4-0.2,2-0.6l2.2-1.6
				c1.5-1.1,1.8-3.2,0.7-4.7C684.6,366.2,682.6,365.8,681.1,366.9z"/>
			<path class="st2" d="M694.1,357.5l-2.2,1.6c-1.5,1.1-1.8,3.2-0.7,4.7c0.7,0.9,1.7,1.4,2.7,1.4c0.7,0,1.4-0.2,2-0.6l2.2-1.6
				c1.5-1.1,1.8-3.2,0.7-4.7C697.7,356.7,695.6,356.4,694.1,357.5z"/>
			<path class="st2" d="M733.2,329.2l-2.2,1.6c-1.5,1.1-1.8,3.2-0.7,4.7c0.7,0.9,1.7,1.4,2.7,1.4c0.7,0,1.4-0.2,2-0.6l2.2-1.6
				c1.5-1.1,1.8-3.2,0.7-4.7C736.8,328.4,734.7,328.1,733.2,329.2z"/>
			<path class="st2" d="M889.7,216l-2.2,1.6c-1.5,1.1-1.8,3.2-0.7,4.7c0.7,0.9,1.7,1.4,2.7,1.4c0.7,0,1.4-0.2,2-0.6l2.2-1.6
				c1.5-1.1,1.8-3.2,0.7-4.7C893.2,215.3,891.2,215,889.7,216z"/>
			<path class="st2" d="M876.6,225.5l-2.2,1.6c-1.5,1.1-1.8,3.2-0.7,4.7c0.7,0.9,1.7,1.4,2.7,1.4c0.7,0,1.4-0.2,2-0.6l2.2-1.6
				c1.5-1.1,1.8-3.2,0.7-4.7C880.2,224.7,878.1,224.4,876.6,225.5z"/>
			<path class="st2" d="M915.7,197.2l-2.2,1.6c-1.5,1.1-1.8,3.2-0.7,4.7c0.7,0.9,1.7,1.4,2.7,1.4c0.7,0,1.4-0.2,2-0.6l2.2-1.6
				c1.5-1.1,1.8-3.2,0.7-4.7C919.3,196.4,917.2,196.1,915.7,197.2z"/>
			<path class="st2" d="M798.4,282l-2.2,1.6c-1.5,1.1-1.8,3.2-0.7,4.7c0.7,0.9,1.7,1.4,2.7,1.4c0.7,0,1.4-0.2,2-0.6l2.2-1.6
				c1.5-1.1,1.8-3.2,0.7-4.7C802,281.3,799.9,281,798.4,282z"/>
			<path class="st2" d="M902.7,206.6l-2.2,1.6c-1.5,1.1-1.8,3.2-0.7,4.7c0.7,0.9,1.7,1.4,2.7,1.4c0.7,0,1.4-0.2,2-0.6l2.2-1.6
				c1.5-1.1,1.8-3.2,0.7-4.7C906.3,205.9,904.2,205.5,902.7,206.6z"/>
			<path class="st2" d="M863.6,234.9l-2.2,1.6c-1.5,1.1-1.8,3.2-0.7,4.7c0.7,0.9,1.7,1.4,2.7,1.4c0.7,0,1.4-0.2,2-0.6l2.2-1.6
				c1.5-1.1,1.8-3.2,0.7-4.7C867.2,234.2,865.1,233.8,863.6,234.9z"/>
			<path class="st2" d="M824.5,263.2l-2.2,1.6c-1.5,1.1-1.8,3.2-0.7,4.7c0.7,0.9,1.7,1.4,2.7,1.4c0.7,0,1.4-0.2,2-0.6l2.2-1.6
				c1.5-1.1,1.8-3.2,0.7-4.7C828.1,262.4,826,262.1,824.5,263.2z"/>
			<path class="st2" d="M811.4,272.6l-2.2,1.6c-1.5,1.1-1.8,3.2-0.7,4.7c0.7,0.9,1.7,1.4,2.7,1.4c0.7,0,1.4-0.2,2-0.6l2.2-1.6
				c1.5-1.1,1.8-3.2,0.7-4.7C815,271.9,812.9,271.5,811.4,272.6z"/>
			<path class="st2" d="M837.5,253.8l-2.2,1.6c-1.5,1.1-1.8,3.2-0.7,4.7c0.7,0.9,1.7,1.4,2.7,1.4c0.7,0,1.4-0.2,2-0.6l2.2-1.6
				c1.5-1.1,1.8-3.2,0.7-4.7C841.1,253,839,252.7,837.5,253.8z"/>
			<path class="st2" d="M850.5,244.3l-2.2,1.6c-1.5,1.1-1.8,3.2-0.7,4.7c0.7,0.9,1.7,1.4,2.7,1.4c0.7,0,1.4-0.2,2-0.6l2.2-1.6
				c1.5-1.1,1.8-3.2,0.7-4.7C854.1,243.6,852,243.2,850.5,244.3z"/>
		</g>
		<g>
			<path class="st2" d="M1034.5,198.1h-2.7c-1.8,0-3.3,1.5-3.3,3.3c0,1.8,1.5,3.3,3.3,3.3h2.7c1.8,0,3.3-1.5,3.3-3.3
				C1037.8,199.6,1036.3,198.1,1034.5,198.1z"/>
			<path class="st2" d="M1050.6,198.1h-2.7c-1.8,0-3.3,1.5-3.3,3.3c0,1.8,1.5,3.3,3.3,3.3h2.7c1.8,0,3.3-1.5,3.3-3.3
				C1053.9,199.6,1052.4,198.1,1050.6,198.1z"/>
			<path class="st2" d="M1018.4,198.1h-2.7c-1.8,0-3.3,1.5-3.3,3.3c0,1.8,1.5,3.3,3.3,3.3h2.7c1.8,0,3.3-1.5,3.3-3.3
				C1021.8,199.6,1020.3,198.1,1018.4,198.1z"/>
			<path class="st2" d="M1002.3,198.1h-2.7c-1.8,0-3.3,1.5-3.3,3.3c0,1.8,1.5,3.3,3.3,3.3h2.7c1.8,0,3.3-1.5,3.3-3.3
				C1005.7,199.6,1004.2,198.1,1002.3,198.1z"/>
			<path class="st2" d="M992.5,204.3c-1.8,0-3.3,1.5-3.3,3.3v2.7c0,1.8,1.5,3.3,3.3,3.3s3.3-1.5,3.3-3.3v-2.7
				C995.8,205.8,994.3,204.3,992.5,204.3z"/>
			<path class="st2" d="M1090.5,173.7c-1.8,0-3.3,1.5-3.3,3.3v2.7c0,1.8,1.5,3.3,3.3,3.3c1.8,0,3.3-1.5,3.3-3.3V177
				C1093.9,175.2,1092.4,173.7,1090.5,173.7z"/>
			<path class="st2" d="M1066.7,198.1h-2.7c-1.8,0-3.3,1.5-3.3,3.3c0,1.8,1.5,3.3,3.3,3.3h2.7c1.8,0,3.3-1.5,3.3-3.3
				C1070,199.6,1068.5,198.1,1066.7,198.1z"/>
			<path class="st2" d="M1090.5,189.7c-1.8,0-3.3,1.5-3.3,3.3v2.7c0,1.8,1.5,3.3,3.3,3.3c1.8,0,3.3-1.5,3.3-3.3v-2.7
				C1093.9,191.2,1092.4,189.7,1090.5,189.7z"/>
			<path class="st2" d="M1082.8,198.1h-2.7c-1.8,0-3.3,1.5-3.3,3.3c0,1.8,1.5,3.3,3.3,3.3h2.7c1.8,0,3.3-1.5,3.3-3.3
				C1086.1,199.6,1084.6,198.1,1082.8,198.1z"/>
			<path class="st2" d="M948.2,288.8h-2.7c-1.8,0-3.3,1.5-3.3,3.3c0,1.8,1.5,3.3,3.3,3.3h2.7c1.8,0,3.3-1.5,3.3-3.3
				C951.5,290.3,950.1,288.8,948.2,288.8z"/>
			<path class="st2" d="M980.4,288.8h-2.7c-1.8,0-3.3,1.5-3.3,3.3c0,1.8,1.5,3.3,3.3,3.3h2.7c1.8,0,3.3-1.5,3.3-3.3
				C983.7,290.3,982.2,288.8,980.4,288.8z"/>
			<path class="st2" d="M964.3,288.8h-2.7c-1.8,0-3.3,1.5-3.3,3.3c0,1.8,1.5,3.3,3.3,3.3h2.7c1.8,0,3.3-1.5,3.3-3.3
				C967.6,290.3,966.1,288.8,964.3,288.8z"/>
			<path class="st2" d="M1090.5,157.6c-1.8,0-3.3,1.5-3.3,3.3v2.7c0,1.8,1.5,3.3,3.3,3.3c1.8,0,3.3-1.5,3.3-3.3v-2.7
				C1093.9,159.1,1092.4,157.6,1090.5,157.6z"/>
			<path class="st2" d="M992.5,284.8c-1.8,0-3.3,1.5-3.3,3.3v2.7c0,1.8,1.5,3.3,3.3,3.3s3.3-1.5,3.3-3.3v-2.7
				C995.8,286.3,994.3,284.8,992.5,284.8z"/>
			<path class="st2" d="M992.5,236.5c-1.8,0-3.3,1.5-3.3,3.3v2.7c0,1.8,1.5,3.3,3.3,3.3s3.3-1.5,3.3-3.3v-2.7
				C995.8,238,994.3,236.5,992.5,236.5z"/>
			<path class="st2" d="M992.5,268.7c-1.8,0-3.3,1.5-3.3,3.3v2.7c0,1.8,1.5,3.3,3.3,3.3s3.3-1.5,3.3-3.3V272
				C995.8,270.2,994.3,268.7,992.5,268.7z"/>
			<path class="st2" d="M992.5,220.4c-1.8,0-3.3,1.5-3.3,3.3v2.7c0,1.8,1.5,3.3,3.3,3.3s3.3-1.5,3.3-3.3v-2.7
				C995.8,221.9,994.3,220.4,992.5,220.4z"/>
			<path class="st2" d="M992.5,252.6c-1.8,0-3.3,1.5-3.3,3.3v2.7c0,1.8,1.5,3.3,3.3,3.3s3.3-1.5,3.3-3.3v-2.7
				C995.8,254.1,994.3,252.6,992.5,252.6z"/>
			<path class="st2" d="M1220.9,46.5h-2.7c-1.8,0-3.3,1.5-3.3,3.3c0,1.8,1.5,3.3,3.3,3.3h2.7c1.8,0,3.3-1.5,3.3-3.3
				C1224.2,48,1222.7,46.5,1220.9,46.5z"/>
			<path class="st2" d="M1196.7,70.7c-1.8,0-3.3,1.5-3.3,3.3v2.7c0,1.8,1.5,3.3,3.3,3.3s3.3-1.5,3.3-3.3V74
				C1200.1,72.2,1198.6,70.7,1196.7,70.7z"/>
			<path class="st2" d="M1090.5,141.5c-1.8,0-3.3,1.5-3.3,3.3v2.7c0,1.8,1.5,3.3,3.3,3.3c1.8,0,3.3-1.5,3.3-3.3v-2.7
				C1093.9,143,1092.4,141.5,1090.5,141.5z"/>
			<path class="st2" d="M1196.7,86.8c-1.8,0-3.3,1.5-3.3,3.3v2.7c0,1.8,1.5,3.3,3.3,3.3s3.3-1.5,3.3-3.3v-2.7
				C1200.1,88.3,1198.6,86.8,1196.7,86.8z"/>
			<path class="st2" d="M1204.8,46.5h-2.7c-1.8,0-3.3,1.5-3.3,3.3c0,1.8,1.5,3.3,3.3,3.3h2.7c1.8,0,3.3-1.5,3.3-3.3
				C1208.1,48,1206.6,46.5,1204.8,46.5z"/>
			<path class="st2" d="M1253,46.5h-2.7c-1.8,0-3.3,1.5-3.3,3.3c0,1.8,1.5,3.3,3.3,3.3h2.7c1.8,0,3.3-1.5,3.3-3.3
				C1256.4,48,1254.9,46.5,1253,46.5z"/>
			<path class="st2" d="M1269.1,46.5h-2.7c-1.8,0-3.3,1.5-3.3,3.3c0,1.8,1.5,3.3,3.3,3.3h2.7c1.8,0,3.3-1.5,3.3-3.3
				C1272.5,48,1271,46.5,1269.1,46.5z"/>
			<path class="st2" d="M1195.5,101.6h-2.7c-1.8,0-3.3,1.5-3.3,3.3c0,1.8,1.5,3.3,3.3,3.3h2.7c1.8,0,3.3-1.5,3.3-3.3
				C1198.8,103.1,1197.3,101.6,1195.5,101.6z"/>
			<path class="st2" d="M1237,46.5h-2.7c-1.8,0-3.3,1.5-3.3,3.3c0,1.8,1.5,3.3,3.3,3.3h2.7c1.8,0,3.3-1.5,3.3-3.3
				C1240.3,48,1238.8,46.5,1237,46.5z"/>
			<path class="st2" d="M1196.7,54.6c-1.8,0-3.3,1.5-3.3,3.3v2.7c0,1.8,1.5,3.3,3.3,3.3s3.3-1.5,3.3-3.3v-2.7
				C1200.1,56.1,1198.6,54.6,1196.7,54.6z"/>
			<path class="st2" d="M1098.9,101.6h-2.7c-1.8,0-3.3,1.5-3.3,3.3c0,1.8,1.5,3.3,3.3,3.3h2.7c1.8,0,3.3-1.5,3.3-3.3
				C1102.3,103.1,1100.8,101.6,1098.9,101.6z"/>
			<path class="st2" d="M1090.5,109.3c-1.8,0-3.3,1.5-3.3,3.3v2.7c0,1.8,1.5,3.3,3.3,3.3c1.8,0,3.3-1.5,3.3-3.3v-2.7
				C1093.9,110.8,1092.4,109.3,1090.5,109.3z"/>
			<path class="st2" d="M1115,101.6h-2.7c-1.8,0-3.3,1.5-3.3,3.3c0,1.8,1.5,3.3,3.3,3.3h2.7c1.8,0,3.3-1.5,3.3-3.3
				C1118.4,103.1,1116.9,101.6,1115,101.6z"/>
			<path class="st2" d="M1090.5,125.4c-1.8,0-3.3,1.5-3.3,3.3v2.7c0,1.8,1.5,3.3,3.3,3.3c1.8,0,3.3-1.5,3.3-3.3v-2.7
				C1093.9,126.9,1092.4,125.4,1090.5,125.4z"/>
			<path class="st2" d="M1163.3,101.6h-2.7c-1.8,0-3.3,1.5-3.3,3.3c0,1.8,1.5,3.3,3.3,3.3h2.7c1.8,0,3.3-1.5,3.3-3.3
				C1166.6,103.1,1165.1,101.6,1163.3,101.6z"/>
			<path class="st2" d="M1179.4,101.6h-2.7c-1.8,0-3.3,1.5-3.3,3.3c0,1.8,1.5,3.3,3.3,3.3h2.7c1.8,0,3.3-1.5,3.3-3.3
				C1182.7,103.1,1181.2,101.6,1179.4,101.6z"/>
			<path class="st2" d="M1147.2,101.6h-2.7c-1.8,0-3.3,1.5-3.3,3.3c0,1.8,1.5,3.3,3.3,3.3h2.7c1.8,0,3.3-1.5,3.3-3.3
				C1150.5,103.1,1149,101.6,1147.2,101.6z"/>
			<path class="st2" d="M1131.1,101.6h-2.7c-1.8,0-3.3,1.5-3.3,3.3c0,1.8,1.5,3.3,3.3,3.3h2.7c1.8,0,3.3-1.5,3.3-3.3
				C1134.4,103.1,1133,101.6,1131.1,101.6z"/>
		</g>
		<g>
			<path class="st2" d="M991.7,619.8h-2.7c-1.8,0-3.3,1.5-3.3,3.3s1.5,3.3,3.3,3.3h2.7c1.8,0,3.3-1.5,3.3-3.3
				S993.6,619.8,991.7,619.8z"/>
			<path class="st2" d="M1023.9,619.8h-2.7c-1.8,0-3.3,1.5-3.3,3.3s1.5,3.3,3.3,3.3h2.7c1.8,0,3.3-1.5,3.3-3.3
				S1025.8,619.8,1023.9,619.8z"/>
			<path class="st2" d="M1007.8,619.8h-2.7c-1.8,0-3.3,1.5-3.3,3.3s1.5,3.3,3.3,3.3h2.7c1.8,0,3.3-1.5,3.3-3.3
				S1009.7,619.8,1007.8,619.8z"/>
			<path class="st2" d="M975.7,619.8H973c-1.8,0-3.3,1.5-3.3,3.3s1.5,3.3,3.3,3.3h2.7c1.8,0,3.3-1.5,3.3-3.3
				S977.5,619.8,975.7,619.8z"/>
			<path class="st2" d="M927.4,619.8h-2.7c-1.8,0-3.3,1.5-3.3,3.3s1.5,3.3,3.3,3.3h2.7c1.8,0,3.3-1.5,3.3-3.3
				S929.2,619.8,927.4,619.8z"/>
			<path class="st2" d="M943.5,619.8h-2.7c-1.8,0-3.3,1.5-3.3,3.3s1.5,3.3,3.3,3.3h2.7c1.8,0,3.3-1.5,3.3-3.3
				S945.3,619.8,943.5,619.8z"/>
			<path class="st2" d="M959.6,619.8h-2.7c-1.8,0-3.3,1.5-3.3,3.3s1.5,3.3,3.3,3.3h2.7c1.8,0,3.3-1.5,3.3-3.3
				S961.4,619.8,959.6,619.8z"/>
			<path class="st2" d="M1136.6,619.8h-2.7c-1.8,0-3.3,1.5-3.3,3.3s1.5,3.3,3.3,3.3h2.7c1.8,0,3.3-1.5,3.3-3.3
				S1138.4,619.8,1136.6,619.8z"/>
			<path class="st2" d="M1120.5,619.8h-2.7c-1.8,0-3.3,1.5-3.3,3.3s1.5,3.3,3.3,3.3h2.7c1.8,0,3.3-1.5,3.3-3.3
				S1122.3,619.8,1120.5,619.8z"/>
			<path class="st2" d="M1152.6,619.8h-2.7c-1.8,0-3.3,1.5-3.3,3.3s1.5,3.3,3.3,3.3h2.7c1.8,0,3.3-1.5,3.3-3.3
				S1154.5,619.8,1152.6,619.8z"/>
			<path class="st2" d="M1104.4,619.8h-2.7c-1.8,0-3.3,1.5-3.3,3.3s1.5,3.3,3.3,3.3h2.7c1.8,0,3.3-1.5,3.3-3.3
				S1106.2,619.8,1104.4,619.8z"/>
			<path class="st2" d="M1072.2,619.8h-2.7c-1.8,0-3.3,1.5-3.3,3.3s1.5,3.3,3.3,3.3h2.7c1.8,0,3.3-1.5,3.3-3.3
				S1074,619.8,1072.2,619.8z"/>
			<path class="st2" d="M1056.1,619.8h-2.7c-1.8,0-3.3,1.5-3.3,3.3s1.5,3.3,3.3,3.3h2.7c1.8,0,3.3-1.5,3.3-3.3
				S1057.9,619.8,1056.1,619.8z"/>
			<path class="st2" d="M1040,619.8h-2.7c-1.8,0-3.3,1.5-3.3,3.3s1.5,3.3,3.3,3.3h2.7c1.8,0,3.3-1.5,3.3-3.3
				S1041.9,619.8,1040,619.8z"/>
			<path class="st2" d="M1088.3,619.8h-2.7c-1.8,0-3.3,1.5-3.3,3.3s1.5,3.3,3.3,3.3h2.7c1.8,0,3.3-1.5,3.3-3.3
				S1090.1,619.8,1088.3,619.8z"/>
		</g>
		<g>
			<path class="st2" d="M747,432.4l-2.7,0c-1.8,0-3.3,1.5-3.3,3.3c0,1.8,1.5,3.3,3.3,3.3c0,0,0,0,0,0l2.7,0c1.8,0,3.3-1.5,3.3-3.3
				C750.4,433.9,748.9,432.4,747,432.4z"/>
			<path class="st2" d="M730.9,432.4l-2.7,0c0,0,0,0,0,0c-1.8,0-3.3,1.5-3.3,3.3c0,1.8,1.5,3.3,3.3,3.3l2.7,0c0,0,0,0,0,0
				c1.8,0,3.3-1.5,3.3-3.3C734.3,433.9,732.8,432.4,730.9,432.4z"/>
			<path class="st2" d="M714.9,432.3c-1.6,0-2.1,0-2.3-0.1c-1.6-0.2-3.2,0.8-3.7,2.4c-0.5,1.8,0.5,3.6,2.3,4.1
				c0.5,0.1,0.7,0.2,3.6,0.2c0,0,0,0,0,0c1.8,0,3.3-1.5,3.3-3.3C718.2,433.9,716.7,432.4,714.9,432.3z M713.1,432.4
				C713.1,432.4,713.1,432.4,713.1,432.4C713.1,432.4,713.1,432.4,713.1,432.4z M713.1,432.4C713.1,432.4,713.1,432.4,713.1,432.4
				C713.1,432.4,713.1,432.4,713.1,432.4z"/>
			<path class="st2" d="M795.4,432.3C795.4,432.3,795.4,432.3,795.4,432.3l-2.7,0c-1.8,0-3.3,1.5-3.3,3.3c0,1.8,1.5,3.3,3.3,3.3
				c0,0,0,0,0,0l2.7,0c1.8,0,3.3-1.5,3.3-3.4C798.7,433.8,797.2,432.3,795.4,432.3z"/>
			<path class="st2" d="M779.2,432.4C779.2,432.4,779.2,432.4,779.2,432.4l-2.6,0l-0.1,3.3l0.1,3.3l2.6,0c1.8,0,3.3-1.5,3.3-3.3
				C782.6,433.8,781.1,432.4,779.2,432.4z"/>
			<path class="st2" d="M763.1,432.4C763.1,432.4,763.1,432.4,763.1,432.4l-2.7,0c-1.8,0-3.3,1.5-3.3,3.3c0,1.8,1.5,3.3,3.3,3.3
				c0,0,0,0,0,0l2.7,0c1.8,0,3.3-1.5,3.3-3.3C766.5,433.9,765,432.4,763.1,432.4z"/>
		</g>
		<g>
			<path class="st2" d="M1377.8,15.7h-2.7c-1.8,0-3.3,1.5-3.3,3.3c0,1.8,1.5,3.3,3.3,3.3h2.7c1.8,0,3.3-1.5,3.3-3.3
				C1381.1,17.2,1379.6,15.7,1377.8,15.7z"/>
			<path class="st2" d="M1393.9,15.7h-2.7c-1.8,0-3.3,1.5-3.3,3.3c0,1.8,1.5,3.3,3.3,3.3h2.7c1.8,0,3.3-1.5,3.3-3.3
				C1397.2,17.2,1395.8,15.7,1393.9,15.7z"/>
			<path class="st2" d="M1426.2,15.7h-2.7c-1.8,0-3.3,1.5-3.3,3.3c0,1.8,1.5,3.3,3.3,3.3h2.7c1.8,0,3.3-1.5,3.3-3.3
				C1429.5,17.2,1428,15.7,1426.2,15.7z"/>
			<path class="st2" d="M1410,15.7h-2.7c-1.8,0-3.3,1.5-3.3,3.3c0,1.8,1.5,3.3,3.3,3.3h2.7c1.8,0,3.3-1.5,3.3-3.3
				C1413.4,17.2,1411.9,15.7,1410,15.7z"/>
			<path class="st2" d="M1329.3,15.7h-2.7c-1.8,0-3.3,1.5-3.3,3.3c0,1.8,1.5,3.3,3.3,3.3h2.7c1.8,0,3.3-1.5,3.3-3.3
				C1332.6,17.2,1331.1,15.7,1329.3,15.7z"/>
			<path class="st2" d="M1361.6,15.7h-2.7c-1.8,0-3.3,1.5-3.3,3.3c0,1.8,1.5,3.3,3.3,3.3h2.7c1.8,0,3.3-1.5,3.3-3.3
				C1365,17.2,1363.5,15.7,1361.6,15.7z"/>
			<path class="st2" d="M1345.5,15.7h-2.7c-1.8,0-3.3,1.5-3.3,3.3c0,1.8,1.5,3.3,3.3,3.3h2.7c1.8,0,3.3-1.5,3.3-3.3
				C1348.8,17.2,1347.3,15.7,1345.5,15.7z"/>
			<path class="st2" d="M1474.6,15.7h-2.7c-1.8,0-3.3,1.5-3.3,3.3c0,1.8,1.5,3.3,3.3,3.3h2.7c1.8,0,3.3-1.5,3.3-3.3
				C1477.9,17.2,1476.4,15.7,1474.6,15.7z"/>
			<path class="st2" d="M1523,15.7h-2.7c-1.8,0-3.3,1.5-3.3,3.3c0,1.8,1.5,3.3,3.3,3.3h2.7c1.8,0,3.3-1.5,3.3-3.3
				C1526.3,17.2,1524.8,15.7,1523,15.7z"/>
			<path class="st2" d="M1533.1,19.1c0,1,0.4,1.9,1.1,2.5v-4.9C1533.6,17.2,1533.1,18.1,1533.1,19.1z"/>
			<path class="st2" d="M1442.3,15.7h-2.7c-1.8,0-3.3,1.5-3.3,3.3c0,1.8,1.5,3.3,3.3,3.3h2.7c1.8,0,3.3-1.5,3.3-3.3
				C1445.7,17.2,1444.2,15.7,1442.3,15.7z"/>
			<path class="st2" d="M1506.9,15.7h-2.7c-1.8,0-3.3,1.5-3.3,3.3c0,1.8,1.5,3.3,3.3,3.3h2.7c1.8,0,3.3-1.5,3.3-3.3
				C1510.2,17.2,1508.7,15.7,1506.9,15.7z"/>
			<path class="st2" d="M1458.4,15.7h-2.7c-1.8,0-3.3,1.5-3.3,3.3c0,1.8,1.5,3.3,3.3,3.3h2.7c1.8,0,3.3-1.5,3.3-3.3
				C1461.8,17.2,1460.3,15.7,1458.4,15.7z"/>
			<path class="st2" d="M1490.7,15.7h-2.7c-1.8,0-3.3,1.5-3.3,3.3c0,1.8,1.5,3.3,3.3,3.3h2.7c1.8,0,3.3-1.5,3.3-3.3
				C1494.1,17.2,1492.6,15.7,1490.7,15.7z"/>
		</g>
		<g>
			<path class="st2" d="M1337.9,613.8h-2.7c-1.8,0-3.3,1.5-3.3,3.3c0,1.8,1.5,3.3,3.3,3.3h2.7c1.8,0,3.3-1.5,3.3-3.3
				C1341.2,615.3,1339.7,613.8,1337.9,613.8z"/>
			<path class="st2" d="M1354,613.8h-2.7c-1.8,0-3.3,1.5-3.3,3.3c0,1.8,1.5,3.3,3.3,3.3h2.7c1.8,0,3.3-1.5,3.3-3.3
				C1357.3,615.3,1355.8,613.8,1354,613.8z"/>
			<path class="st2" d="M1370,613.8h-2.7c-1.8,0-3.3,1.5-3.3,3.3c0,1.8,1.5,3.3,3.3,3.3h2.7c1.8,0,3.3-1.5,3.3-3.3
				C1373.4,615.3,1371.9,613.8,1370,613.8z"/>
			<path class="st2" d="M1289.6,613.8h-2.7c-1.8,0-3.3,1.5-3.3,3.3c0,1.8,1.5,3.3,3.3,3.3h2.7c1.8,0,3.3-1.5,3.3-3.3
				C1292.9,615.3,1291.4,613.8,1289.6,613.8z"/>
			<path class="st2" d="M1321.8,613.8h-2.7c-1.8,0-3.3,1.5-3.3,3.3c0,1.8,1.5,3.3,3.3,3.3h2.7c1.8,0,3.3-1.5,3.3-3.3
				C1325.1,615.3,1323.6,613.8,1321.8,613.8z"/>
			<path class="st2" d="M1273.5,613.8h-2.7c-1.8,0-3.3,1.5-3.3,3.3c0,1.8,1.5,3.3,3.3,3.3h2.7c1.8,0,3.3-1.5,3.3-3.3
				C1276.8,615.3,1275.4,613.8,1273.5,613.8z"/>
			<path class="st2" d="M1386.1,613.8h-2.7c-1.8,0-3.3,1.5-3.3,3.3c0,1.8,1.5,3.3,3.3,3.3h2.7c1.8,0,3.3-1.5,3.3-3.3
				C1389.5,615.3,1388,613.8,1386.1,613.8z"/>
			<path class="st2" d="M1305.7,613.8h-2.7c-1.8,0-3.3,1.5-3.3,3.3c0,1.8,1.5,3.3,3.3,3.3h2.7c1.8,0,3.3-1.5,3.3-3.3
				C1309,615.3,1307.5,613.8,1305.7,613.8z"/>
			<path class="st2" d="M1434.4,613.8h-2.7c-1.8,0-3.3,1.5-3.3,3.3c0,1.8,1.5,3.3,3.3,3.3h2.7c1.8,0,3.3-1.5,3.3-3.3
				C1437.7,615.3,1436.2,613.8,1434.4,613.8z"/>
			<path class="st2" d="M1498.8,613.8h-2.7c-1.8,0-3.3,1.5-3.3,3.3c0,1.8,1.5,3.3,3.3,3.3h2.7c1.8,0,3.3-1.5,3.3-3.3
				C1502.1,615.3,1500.6,613.8,1498.8,613.8z"/>
			<path class="st2" d="M1482.7,613.8h-2.7c-1.8,0-3.3,1.5-3.3,3.3c0,1.8,1.5,3.3,3.3,3.3h2.7c1.8,0,3.3-1.5,3.3-3.3
				C1486,615.3,1484.5,613.8,1482.7,613.8z"/>
			<path class="st2" d="M1514.9,613.8h-2.7c-1.8,0-3.3,1.5-3.3,3.3c0,1.8,1.5,3.3,3.3,3.3h2.7c1.8,0,3.3-1.5,3.3-3.3
				C1518.2,615.3,1516.7,613.8,1514.9,613.8z"/>
			<path class="st2" d="M1530.9,613.8h-2.7c-1.8,0-3.3,1.5-3.3,3.3c0,1.8,1.5,3.3,3.3,3.3h2.7c1.8,0,3.2-1.4,3.3-3.1v-0.5
				C1534.1,615.1,1532.7,613.8,1530.9,613.8z"/>
			<path class="st2" d="M1402.2,613.8h-2.7c-1.8,0-3.3,1.5-3.3,3.3c0,1.8,1.5,3.3,3.3,3.3h2.7c1.8,0,3.3-1.5,3.3-3.3
				C1405.6,615.3,1404.1,613.8,1402.2,613.8z"/>
			<path class="st2" d="M1418.3,613.8h-2.7c-1.8,0-3.3,1.5-3.3,3.3c0,1.8,1.5,3.3,3.3,3.3h2.7c1.8,0,3.3-1.5,3.3-3.3
				C1421.7,615.3,1420.2,613.8,1418.3,613.8z"/>
			<path class="st2" d="M1466.6,613.8h-2.7c-1.8,0-3.3,1.5-3.3,3.3c0,1.8,1.5,3.3,3.3,3.3h2.7c1.8,0,3.3-1.5,3.3-3.3
				C1469.9,615.3,1468.4,613.8,1466.6,613.8z"/>
			<path class="st2" d="M1450.5,613.8h-2.7c-1.8,0-3.3,1.5-3.3,3.3c0,1.8,1.5,3.3,3.3,3.3h2.7c1.8,0,3.3-1.5,3.3-3.3
				C1453.8,615.3,1452.3,613.8,1450.5,613.8z"/>
		</g>
		<g>
			<path class="st2" d="M1444.2,529c-1.7-0.7-3.7,0.2-4.3,1.9c-6.9,17.6-22.8,29.6-41.5,31.5c-1.8,0.2-3.2,1.8-3,3.7
				c0.2,1.7,1.6,3,3.3,3c0.1,0,0.2,0,0.3,0c21.3-2.2,39.3-15.9,47.1-35.8C1446.8,531.6,1445.9,529.6,1444.2,529z"/>
		</g>
		<g>
			<path class="st2" d="M1288.2,379.6h-2.7c-1.8,0-3.3,1.5-3.3,3.3c0,1.8,1.5,3.3,3.3,3.3h2.7c1.8,0,3.3-1.5,3.3-3.3
				C1291.5,381.1,1290,379.6,1288.2,379.6z"/>
			<path class="st2" d="M1256,379.6h-2.7c-1.8,0-3.3,1.5-3.3,3.3c0,1.8,1.5,3.3,3.3,3.3h2.7c1.8,0,3.3-1.5,3.3-3.3
				C1259.4,381.1,1257.9,379.6,1256,379.6z"/>
			<path class="st2" d="M1304.3,379.6h-2.7c-1.8,0-3.3,1.5-3.3,3.3c0,1.8,1.5,3.3,3.3,3.3h2.7c1.8,0,3.3-1.5,3.3-3.3
				C1307.6,381.1,1306.1,379.6,1304.3,379.6z"/>
			<path class="st2" d="M1272.1,379.6h-2.7c-1.8,0-3.3,1.5-3.3,3.3c0,1.8,1.5,3.3,3.3,3.3h2.7c1.8,0,3.3-1.5,3.3-3.3
				C1275.5,381.1,1274,379.6,1272.1,379.6z"/>
			<path class="st2" d="M1352.6,379.6h-2.7c-1.8,0-3.3,1.5-3.3,3.3c0,1.8,1.5,3.3,3.3,3.3h2.7c1.8,0,3.3-1.5,3.3-3.3
				C1355.9,381.1,1354.4,379.6,1352.6,379.6z"/>
			<path class="st2" d="M1336.5,379.6h-2.7c-1.8,0-3.3,1.5-3.3,3.3c0,1.8,1.5,3.3,3.3,3.3h2.7c1.8,0,3.3-1.5,3.3-3.3
				C1339.8,381.1,1338.3,379.6,1336.5,379.6z"/>
			<path class="st2" d="M1320.4,379.6h-2.7c-1.8,0-3.3,1.5-3.3,3.3c0,1.8,1.5,3.3,3.3,3.3h2.7c1.8,0,3.3-1.5,3.3-3.3
				C1323.7,381.1,1322.2,379.6,1320.4,379.6z"/>
		</g>
		<g>
			<path class="st2" d="M1379.3,172.1c-1.8,0-3.3,1.5-3.3,3.3v2.5c0,1.8,1.5,3.3,3.3,3.3c1.8,0,3.3-1.5,3.3-3.3v-2.5
				C1382.7,173.6,1381.2,172.1,1379.3,172.1z"/>
			<path class="st2" d="M1379.3,156c-1.8,0-3.3,1.5-3.3,3.3v2.7c0,1.8,1.5,3.3,3.3,3.3c1.8,0,3.3-1.5,3.3-3.3v-2.7
				C1382.7,157.5,1381.2,156,1379.3,156z"/>
			<path class="st2" d="M1379.3,139.9c-1.8,0-3.3,1.5-3.3,3.3v2.7c0,1.8,1.5,3.3,3.3,3.3c1.8,0,3.3-1.5,3.3-3.3v-2.7
				C1382.7,141.4,1381.2,139.9,1379.3,139.9z"/>
			<path class="st2" d="M1379.3,123.8c-1.8,0-3.3,1.5-3.3,3.3v2.7c0,1.8,1.5,3.3,3.3,3.3c1.8,0,3.3-1.5,3.3-3.3v-2.7
				C1382.7,125.3,1381.2,123.8,1379.3,123.8z"/>
		</g>
	</g>
</g>
</svg>
