<?xml version="1.0" encoding="utf-8"?>
<!-- Generator: Adobe Illustrator 22.1.0, SVG Export Plug-In . SVG Version: 6.00 Build 0)  -->
<svg version="1.1" id="SEO" xmlns="http://www.w3.org/2000/svg" xmlns:xlink="http://www.w3.org/1999/xlink" x="0px" y="0px"
	 viewBox="0 0 1748.9 1000" style="enable-background:new 0 0 1748.9 1000;" xml:space="preserve">
<style type="text/css">
	.st0{fill:#1E1E1E;}
	.st1{fill:#1C3E58;}
	.st2{fill:#FFFFFF;}
	.st3{fill:#4088DA;}
	.st4{fill:#25CE9E;}
	.st5{fill:#FABF62;}
	.st6{fill:#EBF0F6;}
	.st7{fill:#2B71B5;}
</style>
<g>
	<g>
		<g>
			<rect x="2.1" class="st0" width="1746.8" height="1000"/>
		</g>
	</g>
	<g>
		<g>
			<g>
				<path class="st1" d="M1378,682.3h-6c-1.3,0-2.4-1.1-2.4-2.4c0-1.3,1.1-2.4,2.4-2.4h6c1.3,0,2.4,1.1,2.4,2.4
					S1379.3,682.3,1378,682.3z M1357,682.3h-6c-1.3,0-2.4-1.1-2.4-2.4c0-1.3,1.1-2.4,2.4-2.4h6c1.3,0,2.4,1.1,2.4,2.4
					S1358.3,682.3,1357,682.3z M1336,682.3h-3c-1.3,0-2.4-1.1-2.4-2.4c0-1.3,1.1-2.4,2.4-2.4h3c1.3,0,2.4,1.1,2.4,2.4
					S1337.3,682.3,1336,682.3z"/>
			</g>
		</g>
		<path class="st2" d="M1687.9,701.6h-6c-1.3,0-2.4,1.1-2.4,2.4s1.1,2.4,2.4,2.4h6c1.3,0,2.4-1.1,2.4-2.4S1689.2,701.6,1687.9,701.6
			z"/>
		<path class="st2" d="M1666.9,701.6h-6c-1.3,0-2.4,1.1-2.4,2.4s1.1,2.4,2.4,2.4h6c1.3,0,2.4-1.1,2.4-2.4S1668.2,701.6,1666.9,701.6
			z"/>
		<path class="st2" d="M1729.9,701.6h-6c-1.3,0-2.4,1.1-2.4,2.4s1.1,2.4,2.4,2.4h6c1.3,0,2.4-1.1,2.4-2.4S1731.2,701.6,1729.9,701.6
			z"/>
		<path class="st2" d="M1744.9,701.6c-1.3,0-2.4,1.1-2.4,2.4s1.1,2.4,2.4,2.4h4l0,0v-4.7l0,0h-4V701.6z"/>
		<path class="st2" d="M1708.9,701.6h-6c-1.3,0-2.4,1.1-2.4,2.4s1.1,2.4,2.4,2.4h6c1.3,0,2.4-1.1,2.4-2.4S1710.2,701.6,1708.9,701.6
			z"/>
		<g id="XMLID_421_">
			<g>
				<path class="st3" d="M1401.5,798h68.8c13,0,23.5-10.5,23.5-23.5v-167c0-13-10.5-23.5-23.5-23.5h-68.8c-13,0-23.5,10.5-23.5,23.5
					v167C1378,787.4,1388.5,798,1401.5,798z"/>
			</g>
			<g>
				<path class="st1" d="M1470.3,800.3h-68.8c-14.3,0-25.9-11.6-25.9-25.9v-167c0-14.3,11.6-25.9,25.9-25.9h68.8
					c14.3,0,25.9,11.6,25.9,25.9v167C1496.2,788.7,1484.6,800.3,1470.3,800.3z M1401.5,586.3c-11.7,0-21.2,9.5-21.2,21.2v167
					c0,11.7,9.5,21.2,21.2,21.2h68.8c11.7,0,21.2-9.5,21.2-21.2v-167c0-11.7-9.5-21.2-21.2-21.2H1401.5z"/>
			</g>
		</g>
		<g>
			<g>
				<rect x="1378" y="607.4" class="st2" width="115.9" height="72.5"/>
			</g>
			<g>
				<path class="st1" d="M1493.9,682.3H1378c-1.3,0-2.4-1.1-2.4-2.4v-72.5c0-1.3,1.1-2.4,2.4-2.4h115.9c1.3,0,2.4,1.1,2.4,2.4v72.5
					C1496.2,681.2,1495.2,682.3,1493.9,682.3z M1380.4,677.6h111.1v-67.8h-111.1V677.6z"/>
			</g>
		</g>
		<g>
			<g>
				<rect x="1378" y="679.9" class="st4" width="115.9" height="73.6"/>
			</g>
			<g>
				<path class="st1" d="M1493.9,755.9H1378c-1.3,0-2.4-1.1-2.4-2.4v-73.6c0-1.3,1.1-2.4,2.4-2.4h115.9c1.3,0,2.4,1.1,2.4,2.4v73.6
					C1496.2,754.8,1495.2,755.9,1493.9,755.9z M1380.4,751.1h111.1v-68.9h-111.1V751.1z"/>
			</g>
		</g>
		<g>
			<g>
				<rect x="1378" y="753.5" class="st2" width="115.9" height="14.2"/>
			</g>
			<g>
				<path class="st1" d="M1493.9,770.1H1378c-1.3,0-2.4-1.1-2.4-2.4v-14.2c0-1.3,1.1-2.4,2.4-2.4h115.9c1.3,0,2.4,1.1,2.4,2.4v14.2
					C1496.2,769,1495.2,770.1,1493.9,770.1z M1380.4,765.3h111.1v-9.5h-111.1V765.3z"/>
			</g>
		</g>
		<g>
			<polygon class="st5" points="1137.4,1000 1155.3,880.8 1176.1,880.8 1197.1,1000 			"/>
		</g>
		<path class="st1" d="M1178.5,880.4c-0.2-1.1-1.2-1.9-2.3-1.9h-20.9c-1.2,0-2.2,0.9-2.3,2l-18,119.2c0,0.1,0,0.2,0,0.3h4.7
			l17.6-116.9h16.9l20.5,116.9h4.7c0-0.1,0-0.3,0-0.4L1178.5,880.4z"/>
		<g>
			<polygon class="st6" points="1197.1,1000 1238.3,770.5 1306.3,770.5 1342.9,1000 			"/>
		</g>
		<path class="st1" d="M1308.6,770.2c-0.2-1.1-1.2-2-2.3-2h-68c-1.1,0-2.1,0.8-2.3,1.9l-41.2,229.5c0,0.1,0,0.3,0,0.4h4.7
			l40.8-227.1h64l36.3,227.1h4.7c0-0.1,0-0.2,0-0.4L1308.6,770.2z"/>
		<g>
			<g>
				<path class="st2" d="M281.7,825c-1.3,0-2.4-1.1-2.4-2.4v-6c0-1.3,1.1-2.4,2.4-2.4s2.4,1.1,2.4,2.4v6
					C284.1,823.9,283,825,281.7,825z M281.7,804c-1.3,0-2.4-1.1-2.4-2.4v-6c0-1.3,1.1-2.4,2.4-2.4s2.4,1.1,2.4,2.4v6
					C284.1,802.9,283,804,281.7,804z M281.7,783c-1.3,0-2.4-1.1-2.4-2.4v-5.7c0-1.3,1.1-2.4,2.4-2.4s2.4,1.1,2.4,2.4v5.7
					C284.1,781.9,283,783,281.7,783z"/>
			</g>
		</g>
		<g id="XMLID_506_">
			<path class="st2" d="M3,890.7c1.3,0,2.4-1.1,2.4-2.4S4.3,886,3,886H0l0,0v4.7l0,0H3z"/>
			<g>
				<g>
					<path class="st2" d="M21.3,890.7h-5.2c-1.3,0-2.4-1.1-2.4-2.4s1.1-2.4,2.4-2.4h5.2c1.3,0,2.4,1.1,2.4,2.4
						S22.6,890.7,21.3,890.7z"/>
				</g>
			</g>
			<g>
				<g>
					<path class="st2" d="M37.4,890.7h-3c-1.3,0-2.4-1.1-2.4-2.4s1.1-2.4,2.4-2.4h3c1.3,0,2.4,1.1,2.4,2.4S38.7,890.7,37.4,890.7z"
						/>
				</g>
			</g>
		</g>
		<g id="XMLID_486_">
			<g>
				<path class="st2" d="M123.2,931c-1,0-1.9-0.6-2.2-1.6l-11.1-30.7c-0.4-1.2,0.2-2.6,1.4-3c1.2-0.4,2.6,0.2,3,1.4l11.1,30.7
					c0.4,1.2-0.2,2.6-1.4,3C123.7,931,123.5,931,123.2,931z"/>
			</g>
		</g>
		<g id="XMLID_478_">
			<g>
				<path class="st2" d="M318.7,672.1c-0.6,0-1.2-0.2-1.7-0.7l-7.6-7.6c-0.9-0.9-0.9-2.4,0-3.3l14.3-14.3c0.9-0.9,2.4-0.9,3.3,0
					l7.6,7.6c0.9,0.9,0.9,2.4,0,3.3l-14.3,14.3C320,671.8,319.4,672.1,318.7,672.1z M314.5,662.1l4.2,4.2l11-11l-4.2-4.2
					L314.5,662.1z"/>
			</g>
		</g>
		<g id="XMLID_477_">
			<g>
				<path class="st3" d="M333.9,664.6L316.2,647l13.4-13.4c2.2-2.2,5.8-2.2,8,0l9.7,9.7c2.2,2.2,2.2,5.8,0,8L333.9,664.6z"/>
			</g>
			<g>
				<path class="st2" d="M333.9,667c-0.6,0-1.2-0.2-1.7-0.7l-17.7-17.7c-0.9-0.9-0.9-2.4,0-3.3l13.4-13.4c3.1-3.1,8.2-3.1,11.3,0
					l9.7,9.7c3.1,3.1,3.1,8.2,0,11.3l-13.4,13.4C335.1,666.8,334.5,667,333.9,667z M319.6,647l14.3,14.3l11.7-11.7
					c1.3-1.3,1.3-3.4,0-4.6l-9.7-9.7c-1.3-1.3-3.4-1.3-4.6,0L319.6,647z"/>
			</g>
		</g>
		<g id="XMLID_480_">
			<g>
				<path class="st2" d="M192.7,672.1c-0.6,0-1.2-0.2-1.7-0.7L176.7,657c-0.4-0.4-0.7-1-0.7-1.7s0.2-1.2,0.7-1.7l7.6-7.6
					c0.9-0.9,2.4-0.9,3.3,0l14.3,14.3c0.9,0.9,0.9,2.4,0,3.3l-7.6,7.6C193.9,671.8,193.3,672.1,192.7,672.1z M181.7,655.4l11,11
					l4.2-4.2l-11-11L181.7,655.4z"/>
			</g>
		</g>
		<g id="XMLID_479_">
			<g>
				<path class="st3" d="M195.2,647l-17.7,17.7l-13.4-13.4c-2.2-2.2-2.2-5.8,0-8l9.7-9.7c2.2-2.2,5.8-2.2,8,0L195.2,647z"/>
			</g>
			<g>
				<path class="st2" d="M177.5,667c-0.6,0-1.2-0.2-1.7-0.7l-13.4-13.4c-3.1-3.1-3.1-8.2,0-11.3l9.7-9.7c3.1-3.1,8.2-3.1,11.3,0
					l13.4,13.4c0.9,0.9,0.9,2.4,0,3.3l-17.7,17.7C178.7,666.8,178.1,667,177.5,667z M177.8,634.3c-0.8,0-1.7,0.3-2.3,1l-9.7,9.7
					c-1.3,1.3-1.3,3.4,0,4.6l11.7,11.7l14.3-14.3l-11.7-11.7C179.5,634.6,178.6,634.3,177.8,634.3z"/>
			</g>
		</g>
		<g id="XMLID_472_">
			<g>
				<path class="st2" d="M272.3,643.5h-33.1c-1.3,0-2.4-1.1-2.4-2.4V618c0-1.3,1.1-2.4,2.4-2.4h33.1c1.3,0,2.4,1.1,2.4,2.4v23.1
					C274.6,642.4,273.6,643.5,272.3,643.5z M241.5,638.8h28.4v-18.4h-28.4V638.8z"/>
			</g>
		</g>
		<g id="XMLID_441_">
			<g id="XMLID_443_">
				<g>
					<path class="st2" d="M1608.8,677c-1.3,0-2.4-1.1-2.4-2.4V571.1l-12.5,18.6c-0.7,1.1-2.2,1.4-3.3,0.6c-1.1-0.7-1.4-2.2-0.6-3.3
						l16.8-25c0.6-0.9,1.7-1.2,2.6-0.9c1,0.3,1.7,1.2,1.7,2.3v111.3C1611.1,676,1610.1,677,1608.8,677z"/>
				</g>
			</g>
			<g id="XMLID_442_">
				<g>
					<path class="st2" d="M1608.8,677c-1.3,0-2.4-1.1-2.4-2.4V563.3c0-1,0.7-2,1.7-2.3s2.1,0.1,2.6,0.9l16.8,25
						c0.7,1.1,0.4,2.5-0.6,3.3c-1.1,0.7-2.5,0.4-3.3-0.6l-12.5-18.6v103.6C1611.1,676,1610.1,677,1608.8,677z"/>
				</g>
			</g>
		</g>
		<g id="XMLID_415_">
			<g>
				<rect x="1354.1" y="846" class="st6" width="167.9" height="92.3"/>
			</g>
			<g>
				<path class="st1" d="M1522,940.6h-167.9c-1.3,0-2.4-1.1-2.4-2.4V846c0-1.3,1.1-2.4,2.4-2.4H1522c1.3,0,2.4,1.1,2.4,2.4v92.3
					C1524.4,939.6,1523.3,940.6,1522,940.6z M1356.5,935.9h163.2v-87.6h-163.2V935.9z"/>
			</g>
		</g>
		<g id="XMLID_420_">
			<g>
				<path class="st1" d="M1438.1,911.1c-0.5,0-1-0.2-1.4-0.5l-83.9-62.8c-1-0.8-1.3-2.3-0.5-3.3s2.3-1.3,3.3-0.5l82.5,61.7
					l82.5-61.2c1-0.8,2.5-0.6,3.3,0.5c0.8,1,0.6,2.5-0.5,3.3l-83.9,62.3C1439.1,910.9,1438.6,911.1,1438.1,911.1z"/>
			</g>
		</g>
		<g id="XMLID_423_">
			<g>
				<path class="st1" d="M1522,940.6c-0.5,0-1.1-0.2-1.5-0.5l-58.9-48.1c-1-0.8-1.2-2.3-0.3-3.3c0.8-1,2.3-1.2,3.3-0.3l58.9,48.1
					c1,0.8,1.2,2.3,0.3,3.3C1523.4,940.3,1522.7,940.6,1522,940.6z"/>
			</g>
		</g>
		<g id="XMLID_366_">
			<g>
				<rect x="880.6" y="892" class="st3" width="62" height="40.5"/>
			</g>
		</g>
		<g id="XMLID_365_">
			<g>
				<rect x="870.6" y="955.6" class="st6" width="226.7" height="42.7"/>
			</g>
		</g>
		<g id="XMLID_364_">
			<g>
				<path class="st2" d="M1074.4,894.4h-109c-1.3,0-2.4-1.1-2.4-2.4s1.1-2.4,2.4-2.4h109c1.3,0,2.4,1.1,2.4,2.4
					S1075.7,894.4,1074.4,894.4z"/>
			</g>
		</g>
		<g id="XMLID_363_">
			<g>
				<path class="st2" d="M1074.4,914.6h-109c-1.3,0-2.4-1.1-2.4-2.4s1.1-2.4,2.4-2.4h109c1.3,0,2.4,1.1,2.4,2.4
					S1075.7,914.6,1074.4,914.6z"/>
			</g>
		</g>
		<g id="XMLID_362_">
			<g>
				<path class="st2" d="M1029.6,934.8h-64.2c-1.3,0-2.4-1.1-2.4-2.4s1.1-2.4,2.4-2.4h64.2c1.3,0,2.4,1.1,2.4,2.4
					S1030.9,934.8,1029.6,934.8z"/>
			</g>
		</g>
		<g id="XMLID_170_">
			<g>
				<circle class="st3" cx="255.7" cy="710.3" r="78.1"/>
			</g>
		</g>
		<g id="XMLID_171_">
			<g>
				
					<ellipse transform="matrix(0.7071 -0.7071 0.7071 0.7071 -427.3653 388.8537)" class="st6" cx="255.7" cy="710.3" rx="62.8" ry="62.8"/>
			</g>
			<g>
				<path class="st2" d="M255.7,775.4c-35.9,0-65.1-29.2-65.1-65.1c0-35.9,29.2-65.1,65.1-65.1s65.1,29.2,65.1,65.1
					C320.8,746.2,291.6,775.4,255.7,775.4z M255.7,649.9c-33.3,0-60.4,27.1-60.4,60.4c0,33.3,27.1,60.4,60.4,60.4
					s60.4-27.1,60.4-60.4C316.1,677,289,649.9,255.7,649.9z"/>
			</g>
		</g>
		<g id="XMLID_175_">
			<g>
				<path class="st5" d="M85.3,845.5c-34.3,17.1-53.2,33.8-48.5,47c0.6,1.6,1.1,3,1.5,4.2s0.9,2.6,1.5,4.2c4.8,13.2,30,14,67.3,5.3
					s69.3,5.3,69.3,5.3L156,854.3l-20.6-57.2C135.3,797.1,119.6,828.4,85.3,845.5z"/>
			</g>
		</g>
		<g id="XMLID_173_">
			<g>
				<circle class="st2" cx="281.7" cy="868.1" r="45.4"/>
			</g>
			<g>
				<path class="st2" d="M281.7,915.9c-26.3,0-47.8-21.4-47.8-47.8s21.4-47.8,47.8-47.8s47.8,21.4,47.8,47.8
					S308.1,915.9,281.7,915.9z M281.7,825c-23.8,0-43.1,19.3-43.1,43.1s19.3,43.1,43.1,43.1c23.8,0,43.1-19.3,43.1-43.1
					S305.5,825,281.7,825z"/>
			</g>
		</g>
		<g id="XMLID_174_">
			<g>
				<circle class="st4" cx="669.1" cy="591.8" r="35.5"/>
			</g>
		</g>
		<g id="XMLID_178_">
			<g>
				<ellipse class="st5" cx="1113.5" cy="593.4" rx="49.9" ry="49.9"/>
			</g>
			<g>
				<path class="st2" d="M1113.5,645.7c-28.8,0-52.2-23.4-52.2-52.2s23.4-52.2,52.2-52.2s52.2,23.4,52.2,52.2
					S1142.3,645.7,1113.5,645.7z M1113.5,546c-26.2,0-47.5,21.3-47.5,47.5s21.3,47.5,47.5,47.5s47.5-21.3,47.5-47.5
					S1139.7,546,1113.5,546z"/>
			</g>
		</g>
		<g id="XMLID_179_">
			<g>
				<rect x="653.9" y="893.7" class="st5" width="62" height="40.5"/>
			</g>
		</g>
		<g id="XMLID_182_">
			<g>
				<rect x="643.9" y="957.3" class="st4" width="226.7" height="42.7"/>
			</g>
		</g>
		<g>
			<g id="XMLID_183_">
				<g>
					<rect x="930" y="809" class="st5" width="54.5" height="17.3"/>
				</g>
			</g>
			<g id="XMLID_193_">
				<g>
					<rect x="1004.7" y="809" class="st3" width="54.5" height="17.3"/>
				</g>
			</g>
		</g>
		<g id="XMLID_192_">
			<g>
				<rect x="1395.7" y="627.7" class="st3" width="79.7" height="23.1"/>
			</g>
		</g>
		<g id="XMLID_197_">
			<g>
				<path class="st5" d="M1668.7,674.4c0-33.8-28.1-61.1-62.2-59.8c-30.8,1.2-56,26.1-57.5,56.8c-0.8,16.3,4.9,31.2,14.7,42.4
					c10.9,12.5,16.6,28.8,16.6,45.4v0.7h57v-0.5c0-17.1,6.4-33.5,17.4-46.6C1663.4,702.4,1668.7,689,1668.7,674.4z"/>
			</g>
		</g>
		<g id="XMLID_194_">
			<g>
				<circle class="st5" cx="1535.3" cy="933.7" r="34.3"/>
			</g>
			<g>
				<path class="st1" d="M1535.3,970.4c-20.2,0-36.6-16.4-36.6-36.6c0-20.2,16.4-36.6,36.6-36.6s36.6,16.4,36.6,36.6
					C1571.9,953.9,1555.5,970.4,1535.3,970.4z M1535.3,901.8c-17.6,0-31.9,14.3-31.9,31.9s14.3,31.9,31.9,31.9s31.9-14.3,31.9-31.9
					S1552.9,901.8,1535.3,901.8z"/>
			</g>
		</g>
		<g id="XMLID_198_">
			<g>
				<path class="st2" d="M135.1,763.4H38.5c-1.2,0-2.2-0.9-2.3-2.1c-0.2-1.9-0.3-3.8-0.3-5.6c0-23.9,15.5-43.4,34.6-43.4
					c10.7,0,20.8,6.2,27.3,16.8c4-2.7,8.6-4.1,13.3-4.1c14.8,0,26.8,13.8,26.8,30.7c0,1.9-0.2,3.9-0.5,5.8
					C137.2,762.6,136.3,763.4,135.1,763.4z M40.7,758.7H133c0.1-1,0.2-2,0.2-3c0-14.3-9.9-26-22.1-26c-4.5,0-8.9,1.6-12.6,4.6
					c-0.5,0.4-1.3,0.6-1.9,0.5c-0.7-0.1-1.3-0.6-1.6-1.2C89.4,723.2,80.2,717,70.5,717c-16.5,0-29.9,17.4-29.9,38.7
					C40.6,756.7,40.6,757.7,40.7,758.7z"/>
			</g>
		</g>
		<g id="XMLID_195_">
			<g>
				<path class="st2" d="M148.2,740.2c-1,0-1.9-0.7-2.3-1.7c-3.6-11.8-9.7-20-18.3-24.3c-13.5-6.8-28.4-1.8-28.6-1.7
					c-1,0.3-2,0-2.6-0.8c-14.8-19.4-40.7-5.3-41-5.2c-1.1,0.6-2.6,0.2-3.2-0.9c-0.6-1.1-0.2-2.6,0.9-3.2c0.3-0.2,28.6-15.6,46,5.2
					c4.6-1.2,18-4,30.7,2.5c9.7,4.9,16.6,14.1,20.6,27.1c0.4,1.2-0.3,2.6-1.6,2.9C148.7,740.2,148.5,740.2,148.2,740.2z"/>
			</g>
		</g>
		<g id="XMLID_199_">
			<g>
				<path class="st2" d="M266.9,611h-22.3c-19.5,0-35.3-15.9-35.3-35.3c0-19.5,15.9-35.3,35.3-35.3c1.3,0,2.4,1.1,2.4,2.4
					s-1.1,2.4-2.4,2.4c-16.9,0-30.6,13.7-30.6,30.6c0,16.9,13.7,30.6,30.6,30.6h22.3c16.9,0,30.6-13.7,30.6-30.6
					c0-16.9-13.7-30.6-30.6-30.6c-1.3,0-2.4-1.1-2.4-2.4s1.1-2.4,2.4-2.4c19.5,0,35.3,15.9,35.3,35.3
					C302.2,595.2,286.4,611,266.9,611z"/>
			</g>
		</g>
		<g id="XMLID_200_">
			<g>
				<path class="st2" d="M199.6,596.5c-0.8,0-1.6-0.4-2.1-1.2c-0.1-0.3-14.5-26.6,5.7-47.4c0.9-0.9,2.4-1,3.3-0.1
					c0.9,0.9,1,2.4,0.1,3.3c-17.7,18.3-5.5,40.9-4.9,41.8c0.6,1.1,0.2,2.6-0.9,3.2C200.4,596.4,200,596.5,199.6,596.5z"/>
			</g>
		</g>
		<g id="XMLID_196_">
			<g>
				<path class="st2" d="M611.3,967.9H203.7c-1.3,0-2.4-1.1-2.4-2.4s1.1-2.4,2.4-2.4h400.9l-7.3-5.7c-1-0.8-1.2-2.3-0.4-3.3
					s2.3-1.2,3.3-0.4l12.6,9.9c0.8,0.6,1.1,1.7,0.8,2.6C613.2,967.3,612.3,967.9,611.3,967.9z"/>
			</g>
		</g>
		<g id="XMLID_203_">
			<g>
				<path class="st2" d="M598.7,977.8c-0.7,0-1.4-0.3-1.9-0.9c-0.8-1-0.6-2.5,0.4-3.3l7.3-5.7H203.7c-1.3,0-2.4-1.1-2.4-2.4
					s1.1-2.4,2.4-2.4h407.7c1,0,1.9,0.6,2.2,1.6c0.3,0.9,0,2-0.8,2.6l-12.6,9.9C599.8,977.6,599.2,977.8,598.7,977.8z"/>
			</g>
		</g>
		<g id="XMLID_201_">
			<g>
				<rect x="575.2" y="746.6" class="st4" width="16.7" height="218.9"/>
			</g>
			<g>
				<path class="st2" d="M591.9,967.9h-16.7c-1.2,0-2.1-1.1-2.1-2.4V746.6c0-1.3,0.9-2.4,2.1-2.4h16.7c1.2,0,2.1,1.1,2.1,2.4v218.9
					C594,966.8,593,967.9,591.9,967.9z M577.3,963.2h12.5V749h-12.5V963.2z"/>
			</g>
		</g>
		<g id="XMLID_218_">
			<g>
				<rect x="556.8" y="759.5" class="st4" width="18.6" height="206"/>
			</g>
			<g>
				<path class="st2" d="M575.4,967.9h-18.6c-1.3,0-2.4-1.1-2.4-2.4v-206c0-1.3,1.1-2.4,2.4-2.4h18.6c1.3,0,2.4,1.1,2.4,2.4v206
					C577.7,966.8,576.7,967.9,575.4,967.9z M559.2,963.2H573V761.9h-13.9v201.3H559.2z"/>
			</g>
		</g>
		<g id="XMLID_219_">
			<g>
				<rect x="538.2" y="778.1" class="st4" width="18.6" height="187.4"/>
			</g>
			<g>
				<path class="st2" d="M556.8,967.9h-18.6c-1.3,0-2.4-1.1-2.4-2.4V778.1c0-1.3,1.1-2.4,2.4-2.4h18.6c1.3,0,2.4,1.1,2.4,2.4v187.4
					C559.2,966.8,558.1,967.9,556.8,967.9z M540.6,963.2h13.9V780.5h-13.9V963.2z"/>
			</g>
		</g>
		<g id="XMLID_220_">
			<g>
				<rect x="519.6" y="788.3" class="st4" width="18.6" height="177.2"/>
			</g>
			<g>
				<path class="st2" d="M538.2,967.9h-18.6c-1.3,0-2.4-1.1-2.4-2.4V788.3c0-1.3,1.1-2.4,2.4-2.4h18.6c1.3,0,2.4,1.1,2.4,2.4v177.2
					C540.6,966.8,539.5,967.9,538.2,967.9z M522,963.2h13.9V790.7H522V963.2z"/>
			</g>
		</g>
		<g id="XMLID_221_">
			<g>
				<rect x="501" y="850.9" class="st3" width="18.6" height="114.6"/>
			</g>
			<g>
				<path class="st2" d="M519.6,967.9H501c-1.3,0-2.4-1.1-2.4-2.4V850.9c0-1.3,1.1-2.4,2.4-2.4h18.6c1.3,0,2.4,1.1,2.4,2.4v114.6
					C522,966.8,520.9,967.9,519.6,967.9z M503.4,963.2h13.9V853.3h-13.9V963.2z"/>
			</g>
		</g>
		<g id="XMLID_222_">
			<g>
				<path class="st2" d="M501,967.9h-18.6c-1.3,0-2.4-1.1-2.4-2.4V802c0-1.3,1.1-2.4,2.4-2.4H501c1.3,0,2.4,1.1,2.4,2.4v163.6
					C503.4,966.8,502.3,967.9,501,967.9z M484.8,963.2h13.9V804.3h-13.9V963.2z"/>
			</g>
		</g>
		<g id="XMLID_223_">
			<g>
				<rect x="463.9" y="856.1" class="st3" width="18.6" height="109.5"/>
			</g>
			<g>
				<path class="st2" d="M482.5,967.9h-18.6c-1.3,0-2.4-1.1-2.4-2.4V856.1c0-1.3,1.1-2.4,2.4-2.4h18.6c1.3,0,2.4,1.1,2.4,2.4v109.5
					C484.8,966.8,483.8,967.9,482.5,967.9z M466.2,963.2h13.9V858.4h-13.9V963.2z"/>
			</g>
		</g>
		<g id="XMLID_224_">
			<g>
				<path class="st2" d="M463.9,967.9h-18.6c-1.3,0-2.4-1.1-2.4-2.4V832c0-1.3,1.1-2.4,2.4-2.4h18.6c1.3,0,2.4,1.1,2.4,2.4v133.5
					C466.2,966.8,465.2,967.9,463.9,967.9z M447.6,963.2h13.9V834.4h-13.9V963.2z"/>
			</g>
		</g>
		<g id="XMLID_226_">
			<g>
				<path class="st2" d="M445.3,967.9h-18.6c-1.3,0-2.4-1.1-2.4-2.4V848.4c0-1.3,1.1-2.4,2.4-2.4h18.6c1.3,0,2.4,1.1,2.4,2.4v117.1
					C447.6,966.8,446.6,967.9,445.3,967.9z M429.1,963.2H443V850.8h-13.9V963.2z"/>
			</g>
		</g>
		<g id="XMLID_227_">
			<g>
				<rect x="408.1" y="878.8" class="st3" width="18.6" height="86.7"/>
			</g>
			<g>
				<path class="st2" d="M426.7,967.9h-18.6c-1.3,0-2.4-1.1-2.4-2.4v-86.7c0-1.3,1.1-2.4,2.4-2.4h18.6c1.3,0,2.4,1.1,2.4,2.4v86.7
					C429.1,966.8,428,967.9,426.7,967.9z M410.5,963.2h13.9v-82h-13.9V963.2z"/>
			</g>
		</g>
		<g id="XMLID_228_">
			<g>
				<rect x="389.5" y="913.5" class="st5" width="18.6" height="52"/>
			</g>
			<g>
				<path class="st2" d="M408.1,967.9h-18.6c-1.3,0-2.4-1.1-2.4-2.4v-52c0-1.3,1.1-2.4,2.4-2.4h18.6c1.3,0,2.4,1.1,2.4,2.4v52
					C410.5,966.8,409.4,967.9,408.1,967.9z M391.9,963.2h13.9v-47.3h-13.9V963.2z"/>
			</g>
		</g>
		<g id="XMLID_229_">
			<g>
				<path class="st2" d="M389.5,967.9h-18.6c-1.3,0-2.4-1.1-2.4-2.4V884c0-1.3,1.1-2.4,2.4-2.4h18.6c1.3,0,2.4,1.1,2.4,2.4v81.5
					C391.9,966.8,390.8,967.9,389.5,967.9z M373.3,963.2h13.9v-76.8h-13.9V963.2z"/>
			</g>
		</g>
		<g id="XMLID_230_">
			<g>
				<rect x="352.4" y="933" class="st5" width="18.6" height="32.5"/>
			</g>
			<g>
				<path class="st2" d="M370.9,967.9h-18.6c-1.3,0-2.4-1.1-2.4-2.4V933c0-1.3,1.1-2.4,2.4-2.4h18.6c1.3,0,2.4,1.1,2.4,2.4v32.5
					C373.3,966.8,372.2,967.9,370.9,967.9z M354.7,963.2h13.9v-27.8h-13.9V963.2z"/>
			</g>
		</g>
		<g id="XMLID_232_">
			<g>
				<rect x="333.8" y="950" class="st5" width="18.6" height="15.5"/>
			</g>
			<g>
				<path class="st2" d="M352.4,967.9h-18.6c-1.3,0-2.4-1.1-2.4-2.4V950c0-1.3,1.1-2.4,2.4-2.4h18.6c1.3,0,2.4,1.1,2.4,2.4v15.5
					C354.7,966.8,353.7,967.9,352.4,967.9z M336.1,963.2H350v-10.8h-13.9V963.2z"/>
			</g>
		</g>
		<g id="XMLID_234_">
			<g>
				<rect x="296.6" y="941.1" class="st5" width="18.6" height="24.5"/>
			</g>
			<g>
				<path class="st2" d="M315.2,967.9h-18.6c-1.3,0-2.4-1.1-2.4-2.4V941c0-1.3,1.1-2.4,2.4-2.4h18.6c1.3,0,2.4,1.1,2.4,2.4v24.5
					C317.5,966.8,316.5,967.9,315.2,967.9z M299,963.2h13.9v-19.8H299V963.2z"/>
			</g>
		</g>
		<g id="XMLID_236_">
			<g>
				<rect x="259.4" y="946.6" class="st5" width="18.6" height="18.9"/>
			</g>
			<g>
				<path class="st2" d="M278,967.9h-18.6c-1.3,0-2.4-1.1-2.4-2.4v-18.9c0-1.3,1.1-2.4,2.4-2.4H278c1.3,0,2.4,1.1,2.4,2.4v18.9
					C280.4,966.8,279.3,967.9,278,967.9z M261.8,963.2h13.9V949h-13.9V963.2z"/>
			</g>
		</g>
		<g id="XMLID_238_">
			<g>
				<rect x="240.8" y="927.7" class="st5" width="18.6" height="37.8"/>
			</g>
			<g>
				<path class="st2" d="M259.4,967.9h-18.6c-1.3,0-2.4-1.1-2.4-2.4v-37.8c0-1.3,1.1-2.4,2.4-2.4h18.6c1.3,0,2.4,1.1,2.4,2.4v37.8
					C261.8,966.8,260.7,967.9,259.4,967.9z M243.2,963.2h13.9v-33.1h-13.9L243.2,963.2L243.2,963.2z"/>
			</g>
		</g>
		<g id="XMLID_241_">
			<g>
				<path class="st2" d="M240.8,967.9h-18.6c-1.3,0-2.4-1.1-2.4-2.4v-53.9c0-1.3,1.1-2.4,2.4-2.4h18.6c1.3,0,2.4,1.1,2.4,2.4v53.9
					C243.2,966.8,242.1,967.9,240.8,967.9z M224.6,963.2h13.9V914h-13.9V963.2z"/>
			</g>
		</g>
		<g id="XMLID_242_">
			<g>
				<rect x="203.7" y="941.1" class="st5" width="18.6" height="24.5"/>
			</g>
			<g>
				<path class="st2" d="M222.3,967.9h-18.6c-1.3,0-2.4-1.1-2.4-2.4V941c0-1.3,1.1-2.4,2.4-2.4h18.6c1.3,0,2.4,1.1,2.4,2.4v24.5
					C224.6,966.8,223.6,967.9,222.3,967.9z M206,963.2h13.9v-19.8H206V963.2z"/>
			</g>
		</g>
		<g id="XMLID_216_">
			<g>
				<path class="st1" d="M282.5,901.6c-1.3,0-2.3-1-2.4-2.3l-0.2-7.4h-2.8c-3.5,0-6.7-1.4-9.2-3.8c-0.9-0.9-0.9-2.4,0-3.3
					c0.9-0.9,2.4-0.9,3.3,0c1.6,1.6,3.7,2.4,5.9,2.4h2.7l-0.5-16.6h-2.2c-7.2,0-13-5.8-13-13s5.8-13,13-13h1.5l-0.2-7.7
					c0-1.3,1-2.4,2.3-2.4c1.3-0.1,2.4,1,2.4,2.3l0.2,7.8h3c2.6,0,5.1,0.8,7.3,2.2c1.1,0.7,1.4,2.2,0.6,3.3c-0.7,1.1-2.2,1.4-3.3,0.6
					c-1.4-0.9-3-1.4-4.7-1.4h-2.9l0.5,16.6h2.4c7.2,0,13,5.8,13,13s-5.8,13-13,13h-1.7l0.2,7.2C284.9,900.5,283.9,901.6,282.5,901.6
					L282.5,901.6z M284.5,887.2h1.8c4.6,0,8.3-3.7,8.3-8.3s-3.7-8.3-8.3-8.3H284L284.5,887.2z M277.1,865.9h2.1l-0.5-16.6H277
					c-4.6,0-8.3,3.7-8.3,8.3C268.8,862.2,272.5,865.9,277.1,865.9z"/>
			</g>
		</g>
		<g id="XMLID_244_">
			<g>
				<path class="st2" d="M420.5,766.2c-4.7,0-8.6-3.9-8.6-8.6c0-4.7,3.9-8.6,8.6-8.6s8.6,3.9,8.6,8.6S425.2,766.2,420.5,766.2z
					 M420.5,753.7c-2.1,0-3.9,1.7-3.9,3.9c0,2.1,1.7,3.9,3.9,3.9c2.1,0,3.9-1.7,3.9-3.9C424.3,755.4,422.6,753.7,420.5,753.7z"/>
			</g>
		</g>
		<g id="XMLID_277_">
			<g>
				<path class="st2" d="M367.9,849.4c-4.7,0-8.6-3.9-8.6-8.6c0-4.7,3.9-8.6,8.6-8.6s8.6,3.9,8.6,8.6
					C376.5,845.6,372.6,849.4,367.9,849.4z M367.9,836.9c-2.1,0-3.9,1.7-3.9,3.9c0,2.1,1.7,3.9,3.9,3.9c2.1,0,3.9-1.7,3.9-3.9
					C371.8,838.7,370,836.9,367.9,836.9z"/>
			</g>
		</g>
		<g id="XMLID_248_">
			<g>
				<path class="st2" d="M442.2,794.4c-4.7,0-8.6-3.9-8.6-8.6c0-4.7,3.9-8.6,8.6-8.6s8.6,3.9,8.6,8.6
					C450.8,790.5,447,794.4,442.2,794.4z M442.2,781.9c-2.1,0-3.9,1.7-3.9,3.9c0,2.1,1.7,3.9,3.9,3.9c2.1,0,3.9-1.7,3.9-3.9
					C446.1,783.6,444.4,781.9,442.2,781.9z"/>
			</g>
		</g>
		<g id="XMLID_250_">
			<g>
				<path class="st2" d="M488.7,777.3c-4.7,0-8.6-3.9-8.6-8.6c0-4.7,3.9-8.6,8.6-8.6s8.6,3.9,8.6,8.6
					C497.3,773.4,493.5,777.3,488.7,777.3z M488.7,764.8c-2.1,0-3.9,1.7-3.9,3.9c0,2.1,1.7,3.9,3.9,3.9c2.1,0,3.9-1.7,3.9-3.9
					S490.9,764.8,488.7,764.8z"/>
			</g>
		</g>
		<g id="XMLID_251_">
			<g>
				<path class="st2" d="M512.3,726.8c-4.7,0-8.6-3.9-8.6-8.6c0-4.7,3.9-8.6,8.6-8.6s8.6,3.9,8.6,8.6
					C520.9,723,517,726.8,512.3,726.8z M512.3,714.4c-2.1,0-3.9,1.7-3.9,3.9s1.7,3.9,3.9,3.9c2.1,0,3.9-1.7,3.9-3.9
					S514.4,714.4,512.3,714.4z"/>
			</g>
		</g>
		<g id="XMLID_252_">
			<g>
				<path class="st2" d="M544.5,735.3c-4.7,0-8.6-3.9-8.6-8.6c0-4.7,3.9-8.6,8.6-8.6c4.7,0,8.6,3.9,8.6,8.6
					C553.1,731.5,549.2,735.3,544.5,735.3z M544.5,722.8c-2.1,0-3.9,1.7-3.9,3.9c0,2.1,1.7,3.9,3.9,3.9s3.9-1.7,3.9-3.9
					C548.4,724.6,546.6,722.8,544.5,722.8z"/>
			</g>
		</g>
		<g id="XMLID_259_">
			<g>
				<path class="st2" d="M575.4,714.4c-4.7,0-8.6-3.9-8.6-8.6c0-4.7,3.9-8.6,8.6-8.6s8.6,3.9,8.6,8.6S580.1,714.4,575.4,714.4z
					 M575.4,701.9c-2.1,0-3.9,1.7-3.9,3.9c0,2.1,1.7,3.9,3.9,3.9c2.1,0,3.9-1.7,3.9-3.9C579.3,703.6,577.5,701.9,575.4,701.9z"/>
			</g>
		</g>
		<g id="XMLID_260_">
			<g>
				<path class="st2" d="M437.2,784.5c-0.8,0-1.5-0.4-2-1.1l-12.8-19.7c-0.7-1.1-0.4-2.5,0.7-3.3c1.1-0.7,2.5-0.4,3.3,0.7l12.8,19.7
					c0.7,1.1,0.4,2.5-0.7,3.3C438.1,784.3,437.6,784.5,437.2,784.5z"/>
			</g>
		</g>
		<g id="XMLID_267_">
			<g>
				<path class="st2" d="M448.5,788.1c-0.9,0-1.8-0.5-2.2-1.4c-0.5-1.2,0-2.6,1.2-3.1L482,769c1.2-0.5,2.6,0,3.1,1.2s0,2.6-1.2,3.1
					l-34.5,14.6C449.1,788.1,448.8,788.1,448.5,788.1z"/>
			</g>
		</g>
		<g id="XMLID_270_">
			<g>
				<path class="st2" d="M492.6,766.2c-0.3,0-0.6-0.1-0.9-0.2c-1.2-0.5-1.8-1.9-1.3-3.1l16.3-39.3c0.5-1.2,1.9-1.8,3.1-1.3
					s1.8,1.9,1.3,3.1l-16.3,39.3C494.4,765.6,493.5,766.2,492.6,766.2z"/>
			</g>
		</g>
		<g id="XMLID_275_">
			<g>
				<path class="st2" d="M539.1,725.8c-0.2,0-0.3,0-0.5-0.1l-20.6-4.6c-1.3-0.3-2.1-1.5-1.8-2.8s1.5-2.1,2.8-1.8l20.6,4.6
					c1.3,0.3,2.1,1.5,1.8,2.8C541.2,725.1,540.2,725.8,539.1,725.8z"/>
			</g>
		</g>
		<g id="XMLID_276_">
			<g>
				<path class="st2" d="M546.8,723.3c-0.8,0-1.6-0.4-2-1.2c-0.7-1.1-0.3-2.6,0.9-3.2l22.4-12.9c1.1-0.7,2.6-0.3,3.2,0.9
					c0.7,1.1,0.3,2.6-0.9,3.2L548,723C547.6,723.2,547.2,723.3,546.8,723.3z"/>
			</g>
		</g>
		<g id="XMLID_279_">
			<g>
				<path class="st2" d="M370.9,837.7c-0.4,0-0.9-0.1-1.2-0.4c-1.1-0.7-1.4-2.1-0.7-3.2l45.6-73c0.7-1.1,2.1-1.4,3.2-0.7
					s1.4,2.1,0.7,3.2l-45.6,73C372.5,837.3,371.7,837.7,370.9,837.7z"/>
			</g>
		</g>
		<g id="XMLID_280_">
			<g>
				<path class="st2" d="M385.4,839.9c-0.4,0-0.9-0.1-1.3-0.4c-1.1-0.7-1.4-2.2-0.7-3.2l31.2-49.2c0.7-1.1,2.1-1.4,3.2-0.7
					s1.4,2.2,0.7,3.2l-31.2,49.2C386.9,839.5,386.2,839.9,385.4,839.9z"/>
			</g>
		</g>
		<g id="XMLID_246_">
			<g>
				<path class="st2" d="M390.4,761.9c-1.3,0-2.4-1.1-2.4-2.4V621.1c0-15.2,12.4-27.5,27.5-27.5h116.1c15.2,0,27.5,12.4,27.5,27.5
					v78.4c0,1.3-1.1,2.4-2.4,2.4c-1.3,0-2.4-1.1-2.4-2.4v-78.4c0-12.6-10.2-22.8-22.8-22.8H415.6c-12.6,0-22.8,10.2-22.8,22.8v138.5
					C392.7,760.8,391.7,761.9,390.4,761.9z"/>
			</g>
		</g>
		<g id="XMLID_283_">
			<g>
				<path class="st2" d="M405.3,733.1c-1.3,0-2.4-1.1-2.4-2.4V628.1c0-10.6,8.6-19.2,19.2-19.2H525c10.6,0,19.2,8.6,19.2,19.2v64.3
					c0,1.3-1.1,2.4-2.4,2.4c-1.3,0-2.4-1.1-2.4-2.4v-64.3c0-8-6.5-14.5-14.5-14.5H422.2c-8,0-14.5,6.5-14.5,14.5v102.7
					C407.6,732,406.6,733.1,405.3,733.1z"/>
			</g>
		</g>
		<g id="XMLID_281_">
			<g>
				<rect x="517.5" y="629.3" class="st3" width="12.1" height="12.1"/>
			</g>
			<g>
				<path class="st2" d="M529.5,643.7h-12.1c-1.3,0-2.4-1.1-2.4-2.4v-12.1c0-1.3,1.1-2.4,2.4-2.4h12.1c1.3,0,2.4,1.1,2.4,2.4v12.1
					C531.9,642.7,530.8,643.7,529.5,643.7z M519.8,639h7.4v-7.4h-7.4V639z"/>
			</g>
		</g>
		<g id="XMLID_285_">
			<g>
				<rect x="470.5" y="629.3" class="st3" width="12.1" height="12.1"/>
			</g>
			<g>
				<path class="st2" d="M482.6,643.7h-12.1c-1.3,0-2.4-1.1-2.4-2.4v-12.1c0-1.3,1.1-2.4,2.4-2.4h12.1c1.3,0,2.4,1.1,2.4,2.4v12.1
					C485,642.7,483.9,643.7,482.6,643.7z M472.9,639h7.4v-7.4h-7.4V639z"/>
			</g>
		</g>
		<g id="XMLID_286_">
			<g>
				<rect x="494.7" y="645.7" class="st3" width="12.1" height="12.1"/>
			</g>
			<g>
				<path class="st2" d="M506.8,660.1h-12.1c-1.3,0-2.4-1.1-2.4-2.4v-12.1c0-1.3,1.1-2.4,2.4-2.4h12.1c1.3,0,2.4,1.1,2.4,2.4v12.1
					C509.2,659.1,508.1,660.1,506.8,660.1z M497.1,655.4h7.4V648h-7.4V655.4z"/>
			</g>
		</g>
		<g id="XMLID_287_">
			<g>
				<rect x="418.8" y="645.7" class="st3" width="12.1" height="12.1"/>
			</g>
			<g>
				<path class="st2" d="M430.9,660.1h-12.1c-1.3,0-2.4-1.1-2.4-2.4v-12.1c0-1.3,1.1-2.4,2.4-2.4h12.1c1.3,0,2.4,1.1,2.4,2.4v12.1
					C433.2,659.1,432.2,660.1,430.9,660.1z M421.2,655.4h7.4V648h-7.4V655.4z"/>
			</g>
		</g>
		<g id="XMLID_288_">
			<g>
				<rect x="454.3" y="657.8" class="st3" width="12.1" height="12.1"/>
			</g>
			<g>
				<path class="st2" d="M466.4,672.2h-12.1c-1.3,0-2.4-1.1-2.4-2.4v-12.1c0-1.3,1.1-2.4,2.4-2.4h12.1c1.3,0,2.4,1.1,2.4,2.4v12.1
					C468.7,671.2,467.7,672.2,466.4,672.2z M456.6,667.5h7.4v-7.4h-7.4V667.5z"/>
			</g>
		</g>
		<g id="XMLID_289_">
			<g>
				<rect x="482.6" y="672.8" class="st3" width="12.1" height="12.1"/>
			</g>
			<g>
				<path class="st2" d="M494.7,687.2h-12.1c-1.3,0-2.4-1.1-2.4-2.4v-12.1c0-1.3,1.1-2.4,2.4-2.4h12.1c1.3,0,2.4,1.1,2.4,2.4v12.1
					C497.1,686.2,496,687.2,494.7,687.2z M485,682.5h7.4v-7.4H485V682.5z"/>
			</g>
		</g>
		<g id="XMLID_290_">
			<g>
				<rect x="442.2" y="681" class="st3" width="12.1" height="12.1"/>
			</g>
			<g>
				<path class="st2" d="M454.3,695.5h-12.1c-1.3,0-2.4-1.1-2.4-2.4V681c0-1.3,1.1-2.4,2.4-2.4h12.1c1.3,0,2.4,1.1,2.4,2.4v12.1
					C456.6,694.4,455.6,695.5,454.3,695.5z M444.5,690.7h7.4v-7.4h-7.4V690.7z"/>
			</g>
		</g>
		<g id="XMLID_291_">
			<g>
				<rect x="421.7" y="709.1" class="st3" width="12.1" height="12.1"/>
			</g>
			<g>
				<path class="st2" d="M433.8,723.5h-12.1c-1.3,0-2.4-1.1-2.4-2.4V709c0-1.3,1.1-2.4,2.4-2.4h12.1c1.3,0,2.4,1.1,2.4,2.4v12.1
					C436.2,722.5,435.1,723.5,433.8,723.5z M424.1,718.8h7.4v-7.4h-7.4V718.8z"/>
			</g>
		</g>
		<g id="XMLID_284_">
			<g>
				<path class="st2" d="M620.5,691c-12.1,0-22-9.9-22-22s9.9-22,22-22s22,9.9,22,22S632.6,691,620.5,691z M620.5,651.6
					c-9.5,0-17.3,7.8-17.3,17.3s7.8,17.3,17.3,17.3s17.3-7.8,17.3-17.3C637.8,659.4,630,651.6,620.5,651.6z"/>
			</g>
		</g>
		<g id="XMLID_8_">
			<g>
				<path class="st2" d="M119.5,639.4c-8.2,0-14.9-6.7-14.9-14.9s6.7-14.9,14.9-14.9s14.9,6.7,14.9,14.9S127.7,639.4,119.5,639.4z
					 M119.5,614.3c-5.6,0-10.2,4.6-10.2,10.2c0,5.6,4.6,10.2,10.2,10.2s10.2-4.6,10.2-10.2C129.7,618.9,125.1,614.3,119.5,614.3z"/>
			</g>
		</g>
		<g id="XMLID_7_">
			<g>
				<path class="st2" d="M59.9,650.1c-13.1,0-23.7-10.6-23.7-23.7c0-13.1,10.6-23.7,23.7-23.7s23.7,10.6,23.7,23.7
					C83.6,639.5,72.9,650.1,59.9,650.1z M59.9,607.4c-10.5,0-19,8.5-19,19s8.5,19,19,19s19-8.5,19-19S70.4,607.4,59.9,607.4z"/>
			</g>
		</g>
		<g id="XMLID_4_">
			<g>
				<path class="st2" d="M45.7,981C32.6,981,22,970.3,22,957.3c0-13.1,10.6-23.7,23.7-23.7s23.7,10.6,23.7,23.7
					C69.3,970.3,58.7,981,45.7,981z M45.7,938.3c-10.5,0-19,8.5-19,19s8.5,19,19,19s19-8.5,19-19C64.6,946.8,56.1,938.3,45.7,938.3z
					"/>
			</g>
		</g>
		<g id="XMLID_292_">
			<g>
				<path class="st2" d="M780.3,657c-1.3,0-2.4-1.1-2.4-2.4v-74.5l-11.5,18.2c-0.7,1.1-2.1,1.4-3.2,0.7c-1.1-0.7-1.4-2.1-0.7-3.2
					l15.9-25c0.6-0.9,1.6-1.3,2.6-1s1.7,1.2,1.7,2.3v82.7C782.7,656,781.6,657,780.3,657z"/>
			</g>
		</g>
		<g id="XMLID_294_">
			<g>
				<path class="st2" d="M780.3,657c-1.3,0-2.4-1.1-2.4-2.4V572c0-1,0.7-2,1.7-2.3s2.1,0.1,2.6,1l15.8,25c0.7,1.1,0.4,2.6-0.7,3.2
					c-1.1,0.7-2.6,0.4-3.2-0.7L782.6,580v74.5C782.7,656,781.6,657,780.3,657z"/>
			</g>
		</g>
		<g id="XMLID_497_">
			<g>
				<path class="st2" d="M470.5,598.2c-1.3,0-2.4-1.1-2.4-2.4v-44.4l-11.5,18.2c-0.7,1.1-2.1,1.4-3.2,0.7s-1.4-2.1-0.7-3.2l15.8-25
					c0.6-0.9,1.6-1.3,2.6-1s1.7,1.2,1.7,2.3V596C472.9,597.2,471.8,598.2,470.5,598.2z"/>
			</g>
		</g>
		<g id="XMLID_496_">
			<g>
				<path class="st2" d="M470.5,598.2c-1.3,0-2.4-1.1-2.4-2.4v-52.6c0-1,0.7-2,1.7-2.3s2.1,0.1,2.6,1l15.8,25
					c0.7,1.1,0.4,2.6-0.7,3.2c-1.1,0.7-2.6,0.4-3.2-0.7l-11.5-18.2v44.4C472.9,597.2,471.8,598.2,470.5,598.2z"/>
			</g>
		</g>
		<g id="XMLID_335_">
			<g>
				<path class="st2" d="M972.9,663.1c-1.3,0-2.4-1.1-2.4-2.4V555.9l-16.5,20c-0.8,1-2.3,1.1-3.3,0.3s-1.1-2.3-0.3-3.3l20.7-25
					c0.6-0.8,1.7-1.1,2.6-0.7c0.9,0.3,1.6,1.2,1.6,2.2v111.3C975.2,662,974.2,663.1,972.9,663.1z"/>
			</g>
		</g>
		<g id="XMLID_334_">
			<g>
				<path class="st2" d="M972.9,663.1c-1.3,0-2.4-1.1-2.4-2.4V549.4c0-1,0.6-1.9,1.6-2.2c0.9-0.3,2-0.1,2.6,0.7l20.7,25
					c0.8,1,0.7,2.5-0.3,3.3s-2.5,0.7-3.3-0.3l-16.5-20v104.8C975.2,662,974.2,663.1,972.9,663.1z"/>
			</g>
		</g>
		<g id="XMLID_337_">
			<g>
				<path class="st2" d="M1026.1,689.5c-1.3,0-2.4-1.1-2.4-2.4v-61.6l-8.5,10.3c-0.8,1-2.3,1.1-3.3,0.3s-1.1-2.3-0.3-3.3l12.7-15.3
					c0.6-0.8,1.7-1.1,2.6-0.7c0.9,0.3,1.6,1.2,1.6,2.2v68.2C1028.5,688.5,1027.4,689.5,1026.1,689.5z"/>
			</g>
		</g>
		<g id="XMLID_336_">
			<g>
				<path class="st2" d="M1026.1,689.5c-1.3,0-2.4-1.1-2.4-2.4V619c0-1,0.6-1.9,1.6-2.2c0.9-0.3,2,0,2.6,0.7l12.7,15.3
					c0.8,1,0.7,2.5-0.3,3.3s-2.5,0.7-3.3-0.3l-8.5-10.3v61.6C1028.5,688.5,1027.4,689.5,1026.1,689.5z"/>
			</g>
		</g>
		<g id="XMLID_172_">
			<g>
				<rect x="227.8" y="590.7" class="st7" width="55.8" height="35.9"/>
			</g>
		</g>
		<g id="XMLID_293_">
			<g>
				<path class="st2" d="M273.3,620.3c-1.3,0-2.4-1.1-2.4-2.4v-20.3c0-1.3,1.1-2.4,2.4-2.4s2.4,1.1,2.4,2.4V618
					C275.7,619.3,274.6,620.3,273.3,620.3z M261.6,620.3c-1.3,0-2.4-1.1-2.4-2.4v-20.3c0-1.3,1.1-2.4,2.4-2.4s2.4,1.1,2.4,2.4V618
					C263.9,619.3,262.9,620.3,261.6,620.3z M249.8,620.3c-1.3,0-2.4-1.1-2.4-2.4v-20.3c0-1.3,1.1-2.4,2.4-2.4c1.3,0,2.4,1.1,2.4,2.4
					V618C252.2,619.3,251.1,620.3,249.8,620.3z M238.1,620.3c-1.3,0-2.4-1.1-2.4-2.4v-20.3c0-1.3,1.1-2.4,2.4-2.4
					c1.3,0,2.4,1.1,2.4,2.4V618C240.4,619.3,239.4,620.3,238.1,620.3z"/>
			</g>
		</g>
		<g id="XMLID_315_">
			<g>
				<path class="st2" d="M861.2,604.8h-12.3c-16.6,0-30-13.5-30-30v-18.5h-0.8c-6,0-10.9-4.9-10.9-10.9v-21.3
					c0-6,4.9-10.9,10.9-10.9h3.2c1.3,0,2.4,1.1,2.4,2.4s-1.1,2.4-2.4,2.4h-3.2c-3.4,0-6.2,2.8-6.2,6.2v21.3c0,3.4,2.8,6.2,6.2,6.2
					h3.2c1.3,0,2.4,1.1,2.4,2.4V575c0,14,11.4,25.3,25.3,25.3h12.3c1.3,0,2.4,1.1,2.4,2.4S862.5,604.8,861.2,604.8z"/>
			</g>
		</g>
		<g id="XMLID_310_">
			<g>
				<path class="st2" d="M890.5,604.8c-1.3,0-2.4-1.1-2.4-2.4s1.1-2.4,2.4-2.4c14,0,25.3-11.4,25.3-25.3V554c0-1.3,1.1-2.4,2.4-2.4
					h3.4c3.4,0,6.2-2.8,6.2-6.2v-16.9c0-1.3,1.1-2.4,2.4-2.4s2.4,1.1,2.4,2.4v16.9c0,6-4.9,10.9-10.9,10.9h-1.1v18.5
					C920.6,591.4,907.1,604.8,890.5,604.8z"/>
			</g>
		</g>
		<g id="XMLID_304_">
			<g id="XMLID_311_">
				<g>
					<path class="st2" d="M860.9,536.7h-30c-1.3,0-2.4-1.1-2.4-2.4c0-9.6,7.8-17.4,17.4-17.4c9.6,0,17.4,7.8,17.4,17.4
						C863.3,535.6,862.2,536.7,860.9,536.7z M833.5,532h24.9c-1.1-5.9-6.3-10.3-12.5-10.3S834.6,526.1,833.5,532z"/>
				</g>
			</g>
			<g id="XMLID_306_">
				<g>
					<path class="st2" d="M908.7,536.7h-30c-1.3,0-2.4-1.1-2.4-2.4c0-9.6,7.8-17.4,17.4-17.4c9.6,0,17.4,7.8,17.4,17.4
						C911,535.6,910,536.7,908.7,536.7z M881.2,532h24.9c-1.1-5.9-6.3-10.3-12.5-10.3S882.3,526.1,881.2,532z"/>
				</g>
			</g>
		</g>
		<g id="XMLID_312_">
			<g>
				<path class="st2" d="M870.6,564.9c-0.4,0-0.8-0.1-1.2-0.3l-9.7-5.9c-0.5-0.3-0.9-0.9-1.1-1.5c-0.1-0.6,0-1.3,0.3-1.8
					c0-0.1,4-6.2,6.6-13.5c2.6-7,1.8-15.5,1.8-15.5c-0.1-1.3,0.8-2.4,2.1-2.6c1.3-0.1,2.4,0.8,2.6,2.1c0,0.4,0.8,9.6-2.1,17.6
					c-1.9,5.2-4.4,9.8-5.9,12.3l7.7,4.7c1.1,0.7,1.5,2.1,0.8,3.2C872.2,564.5,871.4,564.9,870.6,564.9z"/>
			</g>
		</g>
		<g id="XMLID_313_">
			<g>
				<path class="st2" d="M826.9,512.4c-1,0-2-0.7-2.3-1.7c-0.4-1.2,0.3-2.6,1.6-2.9l19.8-5.9c1.2-0.4,2.6,0.3,2.9,1.6
					c0.4,1.2-0.3,2.6-1.6,2.9l-19.8,5.9C827.4,512.3,827.1,512.4,826.9,512.4z"/>
			</g>
		</g>
		<g id="XMLID_316_">
			<g>
				<path class="st2" d="M870.6,592.1c-12.3,0-22.3-7.3-22.3-16.2c0-1.3,1.1-2.4,2.4-2.4h39.9c1.3,0,2.4,1.1,2.4,2.4
					C892.9,584.9,882.9,592.1,870.6,592.1z M853.4,578.3c1.7,5.1,8.9,9.1,17.2,9.1s15.5-4,17.2-9.1H853.4z"/>
			</g>
		</g>
		<g id="XMLID_314_">
			<g>
				<path class="st2" d="M941.8,532.7c-0.1,0-0.2,0-0.2,0c-41.5-4.4-120.9-77.3-124.2-80.4c-0.5-0.4-0.7-1-0.8-1.7
					c0-0.6,0.2-1.3,0.7-1.7c27.2-27.9,69.8-28.7,108.6-2c17.1,11.8,25.7,30.1,24.8,53.1c-0.7,17.1-6.3,30.6-6.6,31.2
					C943.6,532.1,942.8,532.7,941.8,532.7z M822.4,450.5c12.1,10.9,80.9,71.6,117.9,77.3c1.5-4,5.1-15.1,5.6-28
					c0.8-21.5-6.8-38-22.7-48.9C887.2,426.1,848,426.1,822.4,450.5z"/>
			</g>
		</g>
		<g id="XMLID_318_">
			<g>
				<path class="st2" d="M821.1,517.9L821.1,517.9c-1.3,0-2.4-1.1-2.4-2.4c0.4-32.6,19.5-47.8,20.3-48.4c1-0.8,2.5-0.6,3.3,0.4
					s0.6,2.5-0.4,3.3c-0.2,0.2-18.1,14.6-18.5,44.8C823.5,516.9,822.4,517.9,821.1,517.9z"/>
			</g>
		</g>
		<g id="XMLID_319_">
			<g>
				<path class="st2" d="M809.4,536.7c-0.5,0-1.1-0.2-1.5-0.5c-11.3-9.3-17.2-20.5-17.6-33.1c-0.8-28,25.9-53.2,27.1-54.2
					c1-0.9,2.4-0.8,3.3,0.1c0.9,1,0.8,2.4-0.1,3.3c-0.3,0.2-26.3,24.8-25.6,50.7c0.3,11.2,5.7,21.1,15.9,29.6c1,0.8,1.1,2.3,0.3,3.3
					C810.7,536.4,810,536.7,809.4,536.7z"/>
			</g>
		</g>
		<g id="XMLID_320_">
			<g>
				<path class="st2" d="M803.8,510.9c-1.2,0-2.3-1-2.3-2.2c-1.5-25.5,16.7-36.7,17.5-37.2c1.1-0.7,2.6-0.3,3.2,0.8
					c0.7,1.1,0.3,2.6-0.8,3.2l0,0c-0.7,0.4-16.5,10.3-15.2,32.9c0.1,1.3-0.9,2.4-2.2,2.5C803.9,510.9,803.8,510.9,803.8,510.9z"/>
			</g>
		</g>
		<g id="XMLID_323_">
			<g>
				<path class="st7" d="M669.1,591.8c0,0,0.5-8.5,0.8-15.8c-0.3,0-0.5,0-0.8,0c-8.7,0-15.8,7.1-15.8,15.8s7.1,15.8,15.8,15.8
					c8.4,0,15.3-6.6,15.8-14.9L669.1,591.8z"/>
			</g>
			<g>
				<path class="st2" d="M669.1,610c-10,0-18.2-8.1-18.2-18.2c0-10,8.1-18.2,18.2-18.2c0.2,0,0.5,0,0.7,0h0.2
					c1.3,0.1,2.3,1.2,2.2,2.5c-0.2,4.9-0.5,10.4-0.7,13.4l13.4,0.7c1.3,0.1,2.3,1.2,2.2,2.5C686.7,602.4,678.7,610,669.1,610z
					 M667.4,578.5c-6.6,0.8-11.8,6.5-11.8,13.3c0,7.4,6,13.4,13.4,13.4c6.3,0,11.7-4.4,13.1-10.4l-13.2-0.7c-0.6,0-1.2-0.3-1.6-0.8
					c-0.4-0.5-0.6-1.1-0.6-1.7C666.7,591.6,667.1,584.9,667.4,578.5z"/>
			</g>
		</g>
		<g id="XMLID_322_">
			<g>
				<path class="st2" d="M667.9,628.5c-39.3,0-67.7-34.2-68.9-35.7c-0.7-0.9-0.7-2.1,0-3c1.3-1.6,31.6-38.1,73-35.6
					c41.2,2.5,68.1,34.2,69.2,35.5c0.7,0.9,0.7,2.1,0,3c-1.1,1.3-28,33-69.2,35.5C670.6,628.5,669.2,628.5,667.9,628.5z
					 M603.9,591.3c6.2,6.8,33.4,34.4,67.8,32.3c34.1-2.1,58.6-26,64.5-32.3c-5.9-6.3-30.4-30.3-64.5-32.3
					C637.3,556.9,610.1,584.5,603.9,591.3z"/>
			</g>
		</g>
		<g id="XMLID_321_">
			<g>
				<path class="st2" d="M587.4,581.3c-0.4,0-0.9-0.1-1.3-0.4c-1.1-0.7-1.4-2.2-0.7-3.3c0.3-0.5,8.2-12.3,24.3-23
					c14.8-9.9,39.7-20.5,73.8-15.2c1.3,0.2,2.2,1.4,2,2.7s-1.4,2.2-2.7,2c-62.4-9.8-93.2,35.7-93.5,36.1
					C588.9,580.9,588.1,581.3,587.4,581.3z"/>
			</g>
		</g>
		<g id="XMLID_324_">
			<g>
				<path class="st2" d="M670.9,648.2c-2.6,0-4.3-0.1-4.6-0.1c-1.3-0.1-2.3-1.2-2.2-2.5s1.2-2.3,2.5-2.2c0.4,0,40.6,2.6,64.6-22.3
					c0.9-0.9,2.4-1,3.3-0.1c0.9,0.9,1,2.4,0.1,3.3C713.8,646,682.6,648.2,670.9,648.2z"/>
			</g>
		</g>
		<g id="XMLID_317_">
			<g>
				<path class="st2" d="M1117.6,594.3c-9.4,0-17.1-7.7-17.1-17.1c0-9.4,7.7-17.1,17.1-17.1s17.1,7.7,17.1,17.1
					C1134.7,586.7,1127.1,594.3,1117.6,594.3z M1117.6,564.9c-6.8,0-12.4,5.5-12.4,12.4c0,6.8,5.5,12.4,12.4,12.4
					s12.4-5.5,12.4-12.4S1124.5,564.9,1117.6,564.9z"/>
			</g>
		</g>
		<g id="XMLID_325_">
			<g>
				<path class="st2" d="M1087.1,618.5c-5.1,0-9.2-4.1-9.2-9.2c0-5.1,4.1-9.2,9.2-9.2s9.2,4.1,9.2,9.2
					C1096.3,614.4,1092.2,618.5,1087.1,618.5z M1087.1,604.8c-2.5,0-4.5,2-4.5,4.5s2,4.5,4.5,4.5s4.5-2,4.5-4.5
					S1089.6,604.8,1087.1,604.8z"/>
			</g>
		</g>
		<g id="XMLID_326_">
			<g>
				<path class="st2" d="M1130.5,625.9c-6.4,0-11.6-5.2-11.6-11.6c0-6.4,5.2-11.6,11.6-11.6s11.6,5.2,11.6,11.6
					S1136.9,625.9,1130.5,625.9z M1130.5,607.3c-3.8,0-6.9,3.1-6.9,6.9c0,3.8,3.1,6.9,6.9,6.9s6.9-3.1,6.9-6.9
					C1137.4,610.4,1134.3,607.3,1130.5,607.3z"/>
			</g>
		</g>
		<g id="XMLID_327_">
			<g>
				<path class="st2" d="M1123.8,666.4c-1.2,0-2.2-0.8-2.3-2c-0.2-1.3,0.7-2.5,2-2.7c25.5-3.7,47.2-21.9,55.4-46.3
					c0.4-1.2,1.7-1.9,3-1.5c1.2,0.4,1.9,1.7,1.5,3c-8.7,26.1-31.9,45.5-59.1,49.5C1124,666.4,1123.9,666.4,1123.8,666.4z"/>
			</g>
		</g>
		<g id="XMLID_328_">
			<g>
				<path class="st2" d="M1044.1,579.6c-0.2,0-0.4,0-0.5-0.1c-1.3-0.3-2.1-1.6-1.8-2.8c4.7-19.9,17.6-37.1,35.4-47.3
					c1.1-0.6,2.6-0.2,3.2,0.9c0.6,1.1,0.2,2.6-0.9,3.2c-16.7,9.5-28.8,25.6-33.2,44.2C1046.1,578.9,1045.1,579.6,1044.1,579.6z"/>
			</g>
		</g>
		<g id="XMLID_330_">
			<g>
				<path class="st2" d="M849.7,673.3c-0.5,0-1-0.2-1.4-0.5c-1.1-0.8-26.6-20-26.6-34.5c0-7.7,3.6-17.2,20.6-18.5h0.4
					c1.4-0.1,2.7,0.1,3.8,0.5v-17.8c0-1.3,1.1-2.4,2.4-2.4s2.4,1.1,2.4,2.4v21.7c4.6,8.3,13.6,20.9,19.4,20.9c0.9,0,1.8,0.5,2.1,1.4
					c0.4,0.8,0.2,1.8-0.4,2.5l-20.9,23.5C851,673,850.3,673.3,849.7,673.3z M843.4,624.5c-0.1,0-0.2,0-0.4,0h-0.4
					c-7,0.5-16.3,2.6-16.3,13.8c0,9.3,15.3,23.3,23,29.4l16.9-19c-9.1-4.2-17.9-19.8-19.4-22.6C846.5,625.7,845.3,624.5,843.4,624.5
					z"/>
			</g>
		</g>
		<g id="XMLID_329_">
			<g>
				<path class="st2" d="M712.6,701.9c-1.3,0-2.4-1.1-2.4-2.4v-1c0-10.1,6.1-19.2,15.5-23l97.4-39.3c1.2-0.5,2.6,0.1,3.1,1.3
					s-0.1,2.6-1.3,3.1l-97.4,39.3c-7.6,3.1-12.5,10.4-12.5,18.6v1C715,700.8,713.9,701.9,712.6,701.9z"/>
			</g>
		</g>
		<g id="XMLID_333_">
			<g>
				<path class="st2" d="M891.5,673.3c-0.7,0-1.3-0.3-1.8-0.8L868.8,649c-0.6-0.7-0.8-1.7-0.4-2.5s1.2-1.4,2.1-1.4
					c5.8,0,14.9-12.6,19.4-20.9v-21.7c0-1.3,1.1-2.4,2.4-2.4s2.4,1.1,2.4,2.4v17.8c1.1-0.4,2.4-0.6,3.8-0.5h0.4
					c17,1.3,20.6,10.8,20.6,18.5c0,14.5-25.5,33.7-26.6,34.5C892.5,673.2,892,673.3,891.5,673.3z M874.9,648.7l16.9,19
					c7.7-6.1,23-20.1,23-29.4c0-11.2-9.3-13.3-16.3-13.8h-0.4c-2.1-0.2-3.5,1.2-3.8,1.6C892.8,628.9,884,644.5,874.9,648.7z"/>
			</g>
		</g>
		<g id="XMLID_332_">
			<g>
				<path class="st2" d="M1028.6,701.9c-1.3,0-2.4-1.1-2.4-2.4v-1c0-8.2-4.9-15.5-12.5-18.6l-97.4-39.3c-1.2-0.5-1.8-1.9-1.3-3.1
					c0.5-1.2,1.9-1.8,3.1-1.3l97.4,39.3c9.4,3.8,15.5,12.8,15.5,23v1C1030.9,700.8,1029.9,701.9,1028.6,701.9z"/>
			</g>
		</g>
		<g id="XMLID_389_">
			<g>
				<path class="st2" d="M1097.4,833.7c-1.3,0-2.4-1.1-2.4-2.4V727.6c0-14.2-11.5-25.7-25.7-25.7H671.9c-14.2,0-25.7,11.5-25.7,25.7
					v103.1c0,1.3-1.1,2.4-2.4,2.4s-2.4-1.1-2.4-2.4V727.6c0-16.8,13.6-30.4,30.4-30.4h397.4c16.8,0,30.4,13.6,30.4,30.4v103.8
					C1099.7,832.7,1098.7,833.7,1097.4,833.7z"/>
			</g>
		</g>
		<path class="st2" d="M643.9,884.3c-1.3,0-2.4,1.1-2.4,2.4V1000h4.7V886.7C646.2,885.4,645.2,884.3,643.9,884.3z"/>
		<path class="st2" d="M1097.4,884.7c-1.3,0-2.4,1.1-2.4,2.4V1000h4.7V887.1C1099.7,885.8,1098.7,884.7,1097.4,884.7z"/>
		<g id="XMLID_339_">
			<g>
				<path class="st2" d="M1097.4,735.3H643.9c-1.3,0-2.4-1.1-2.4-2.4s1.1-2.4,2.4-2.4h453.5c1.3,0,2.4,1.1,2.4,2.4
					S1098.7,735.3,1097.4,735.3z"/>
			</g>
		</g>
		<g id="XMLID_338_">
			<g>
				<circle class="st5" cx="666.7" cy="717.1" r="6.8"/>
			</g>
			<g>
				<path class="st2" d="M666.7,726.3c-5.1,0-9.2-4.1-9.2-9.2c0-5.1,4.1-9.2,9.2-9.2c5.1,0,9.2,4.1,9.2,9.2
					C675.8,722.2,671.7,726.3,666.7,726.3z M666.7,712.6c-2.5,0-4.5,2-4.5,4.5s2,4.5,4.5,4.5s4.5-2,4.5-4.5
					C671.1,714.6,669.1,712.6,666.7,712.6z"/>
			</g>
		</g>
		<g id="XMLID_343_">
			<g>
				<path class="st2" d="M691.4,726.3c-5.1,0-9.2-4.1-9.2-9.2c0-5.1,4.1-9.2,9.2-9.2c5.1,0,9.2,4.1,9.2,9.2
					C700.5,722.2,696.4,726.3,691.4,726.3z M691.4,712.6c-2.5,0-4.5,2-4.5,4.5s2,4.5,4.5,4.5s4.5-2,4.5-4.5
					C695.8,714.6,693.8,712.6,691.4,712.6z"/>
			</g>
		</g>
		<g id="XMLID_344_">
			<g>
				<path class="st2" d="M716.1,726.3c-5.1,0-9.2-4.1-9.2-9.2c0-5.1,4.1-9.2,9.2-9.2c5.1,0,9.2,4.1,9.2,9.2
					C725.2,722.2,721.1,726.3,716.1,726.3z M716.1,712.6c-2.5,0-4.5,2-4.5,4.5s2,4.5,4.5,4.5s4.5-2,4.5-4.5
					C720.5,714.6,718.5,712.6,716.1,712.6z"/>
			</g>
		</g>
		<g id="XMLID_346_">
			<g>
				<path class="st2" d="M870.6,700.6c-1.3,0-2.4-1.1-2.4-2.4v-50.8c0-1.3,1.1-2.4,2.4-2.4c1.3,0,2.4,1.1,2.4,2.4v50.8
					C873,699.5,871.9,700.6,870.6,700.6z"/>
			</g>
		</g>
		<g id="XMLID_349_">
			<g>
				<path class="st2" d="M741.9,689.6c-0.9,0-1.8-0.6-2.2-1.5c-0.5-1.2,0.1-2.6,1.3-3.1l49.7-19.7c1.2-0.5,2.6,0.1,3.1,1.3
					s-0.1,2.6-1.3,3.1l-49.7,19.7C742.5,689.5,742.2,689.6,741.9,689.6z"/>
			</g>
		</g>
		<g id="XMLID_352_">
			<g>
				<path class="st2" d="M663.6,787.2h-19.7c-1.3,0-2.4-1.1-2.4-2.4v-22.1c0-0.7,0.3-1.3,0.8-1.8c0.5-0.4,1.2-0.7,1.8-0.6
					c12.4,1.4,21.8,11.9,21.8,24.4C665.9,786.1,664.9,787.2,663.6,787.2z M646.2,782.5h14.9c-1-8.2-6.9-14.9-14.9-16.9V782.5z"/>
			</g>
		</g>
		<g id="XMLID_353_">
			<g>
				<path class="st2" d="M826.2,782.7H762c-1.2,0-2.2-0.9-2.3-2.2c-0.1-1-0.1-1.9-0.1-2.8c0-14.2,8.7-25.7,19.5-25.7
					c6.7,0,12.9,4.6,16.5,12c3.5-2.3,7.5-3.5,11.7-3.5c11.1,0,20.5,8.6,21.4,19.7c0.1,0.7-0.2,1.3-0.6,1.8
					C827.5,782.4,826.9,782.7,826.2,782.7z M764.2,777.9h59.2c-1.8-7.4-8.5-12.8-16.3-12.8c-4.1,0-8,1.5-11.1,4.2
					c-0.6,0.5-1.4,0.7-2.2,0.5s-1.4-0.8-1.6-1.5c-2.5-7.2-7.7-11.8-13.2-11.8c-8.2,0-14.8,9.4-14.8,21
					C764.2,777.8,764.2,777.8,764.2,777.9z"/>
			</g>
		</g>
		<g id="XMLID_350_">
			<g>
				<path class="st2" d="M1067.7,763.4H921.5c-1.3,0-2.4-1.1-2.4-2.4s1.1-2.4,2.4-2.4h146.2c1.3,0,2.4,1.1,2.4,2.4
					S1069,763.4,1067.7,763.4z"/>
			</g>
		</g>
		<g id="XMLID_11_">
			<g>
				<path class="st2" d="M1038.8,789.1h-88.3c-1.3,0-2.4-1.1-2.4-2.4s1.1-2.4,2.4-2.4h88.3c1.3,0,2.4,1.1,2.4,2.4
					S1040.1,789.1,1038.8,789.1z"/>
			</g>
		</g>
		<g id="XMLID_354_">
			<g>
				<path class="st2" d="M1052.6,776.2h-116c-1.3,0-2.4-1.1-2.4-2.4s1.1-2.4,2.4-2.4h116.1c1.3,0,2.4,1.1,2.4,2.4
					S1053.9,776.2,1052.6,776.2z"/>
			</g>
		</g>
		<path class="st2" d="M870.6,872.7c-1.3,0-2.4,1.1-2.4,2.4V1000h4.7V875.1C873,873.8,871.9,872.7,870.6,872.7z"/>
		<g id="XMLID_359_">
			<g>
				<path class="st2" d="M847.7,896h-109c-1.3,0-2.4-1.1-2.4-2.4s1.1-2.4,2.4-2.4h109c1.3,0,2.4,1.1,2.4,2.4S849,896,847.7,896z"/>
			</g>
		</g>
		<g id="XMLID_360_">
			<g>
				<path class="st2" d="M847.7,916.3h-109c-1.3,0-2.4-1.1-2.4-2.4s1.1-2.4,2.4-2.4h109c1.3,0,2.4,1.1,2.4,2.4
					S849,916.3,847.7,916.3z"/>
			</g>
		</g>
		<g id="XMLID_361_">
			<g>
				<path class="st2" d="M802.9,936.5h-64.2c-1.3,0-2.4-1.1-2.4-2.4s1.1-2.4,2.4-2.4h64.2c1.3,0,2.4,1.1,2.4,2.4
					S804.2,936.5,802.9,936.5z"/>
			</g>
		</g>
		<g id="XMLID_374_">
			<g>
				<path class="st2" d="M646.8,887.7c-1.9,0-3.3-0.1-3.9-0.2c-8-0.1-14.5-6.6-14.5-14.6v-62.1c0-8.1,6.6-14.6,14.6-14.6
					c1.3,0,2.4,1.1,2.4,2.4s-1.1,2.4-2.4,2.4c-5.5,0-9.9,4.5-9.9,9.9V827c0.3,0,0.5,0,0.8,0c0.1,0,8.4,1.8,18.3,3.2
					c5.9,0.9,10.4,3.9,11.8,8.3c0.6,1.7,0.6,3.4,0.2,4.9c2.9,1,5.2,3.1,5.4,7.4c0.1,2.3-0.6,4.4-2,5.9c-0.3,0.3-0.6,0.6-1,0.9
					c1,1.4,2.2,3.6,2,6.2c-0.2,2.7-1.8,5-4.6,6.9c-1.2,0.8-2.8,1.4-4.5,1.9c1.2,1.5,2.1,3.4,2.1,6.1c0,2.3-0.9,4.3-2.6,5.8
					C655.8,887.2,650.5,887.7,646.8,887.7z M633.1,831.7v41.2c0,5.5,4.5,9.9,9.9,9.9c0.1,0,0.2,0,0.3,0c3.5,0.4,10.1,0.2,12.5-2
					c0.7-0.6,1-1.3,1-2.3c0-4.8-5.1-5.1-5.7-5.1c-0.1,0-0.2,0-0.3,0c-3.6,0.1-7.6-0.1-11.5-0.3c-0.7,0-1.4-0.1-2-0.1
					c-1.3-0.1-2.3-1.2-2.2-2.5s1.2-2.3,2.5-2.2c0.6,0,1.3,0.1,2.1,0.1c5.7,0.3,17.6,1,21.7-1.7c1.6-1.1,2.4-2.2,2.5-3.3
					c0.1-1.7-1.2-3.4-1.8-3.9c-0.1-0.1-0.1-0.1-0.2-0.2c-0.5,0.1-0.9,0.1-1,0.1h-25.4c-1.3,0-2.4-1.1-2.4-2.4s1.1-2.4,2.4-2.4h25.4
					c0.6,0,2.4-0.2,3.3-1.3c0.5-0.6,0.8-1.3,0.7-2.4c-0.1-3.5-3-3.9-9.9-3.8c-0.8,0-1.6,0-2.3,0c-5.7,0-17.1,0.2-17.2,0.2l0,0
					c-1.3,0-2.3-1-2.4-2.3c0-1.3,1-2.4,2.3-2.4c0.1,0,11.5-0.2,17.3-0.2c0.7,0,1.4,0,2.2,0c1.4,0,3-0.1,4.6,0c0.3-0.7,0.3-1.6,0-2.6
					c-0.9-2.6-3.9-4.5-8-5.1C642.2,833.5,634.3,831.9,633.1,831.7z"/>
			</g>
		</g>
		<g id="XMLID_380_">
			<g>
				<path class="st2" d="M1095,887.7c-3.7,0-9.1-0.5-12.2-3.3c-1.7-1.5-2.6-3.5-2.6-5.8c0-2.6,0.8-4.6,2.1-6.1
					c-1.7-0.4-3.3-1-4.5-1.9c-2.8-1.9-4.4-4.2-4.6-6.9c-0.2-2.6,1-4.8,2-6.2c-0.3-0.3-0.7-0.5-1-0.9c-1.4-1.5-2.1-3.5-2-5.9
					c0.2-4.3,2.5-6.4,5.4-7.4c-0.4-1.5-0.4-3.3,0.2-4.9c1.5-4.3,5.9-7.4,11.8-8.3c9.9-1.4,18.2-3.2,18.3-3.2c0.3-0.1,0.6-0.1,0.8,0
					v-16.3c0-5.5-4.5-9.9-9.9-9.9c-1.3,0-2.4-1.1-2.4-2.4s1.1-2.4,2.4-2.4c8.1,0,14.6,6.6,14.6,14.6v62.1c0,8-6.5,14.6-14.5,14.6
					C1098.3,887.6,1096.8,887.7,1095,887.7z M1090.9,873.5c-0.1,0-0.2,0-0.3,0c-0.9,0-5.7,0.5-5.7,5.1c0,1,0.3,1.7,1,2.3
					c2.5,2.2,9,2.4,12.5,2c0.1,0,0.2,0,0.3,0c5.5,0,9.9-4.5,9.9-9.9v-41.2c-1.2,0.2-9.1,1.9-18.4,3.2c-4.1,0.6-7.2,2.5-8,5.1
					c-0.3,0.9-0.3,1.9,0,2.6c1.6-0.1,3.2-0.1,4.6,0c0.8,0,1.5,0,2.2,0c5.7,0,17.2,0.2,17.3,0.2c1.3,0,2.3,1.1,2.3,2.4
					c0,1.3-1.1,2.3-2.4,2.3l0,0c-0.1,0-11.5-0.2-17.2-0.2c-0.7,0-1.5,0-2.3,0c-6.9-0.2-9.8,0.3-9.9,3.8c0,1.1,0.2,1.8,0.7,2.4
					c1,1,2.9,1.2,3.3,1.2h25.4c1.3,0,2.4,1.1,2.4,2.4s-1.1,2.4-2.4,2.4h-25.4c-0.1,0-0.5,0-1-0.1c-0.1,0.1-0.1,0.1-0.2,0.2
					c-0.6,0.5-1.9,2.3-1.8,3.9c0.1,1.1,1,2.3,2.5,3.3c4.2,2.8,16,2.1,21.7,1.7c0.8,0,1.5-0.1,2.1-0.1c1.3,0,2.4,0.9,2.5,2.2
					s-0.9,2.4-2.2,2.5c-0.6,0-1.3,0.1-2,0.1C1098.5,873.4,1094.5,873.5,1090.9,873.5z"/>
			</g>
		</g>
		<g id="XMLID_390_">
			<g>
				<path class="st2" d="M1086.4,874.2H655.1c-1.3,0-2.4-1.1-2.4-2.4c0-1.3,1.1-2.4,2.4-2.4h431.3c1.3,0,2.4,1.1,2.4,2.4
					C1088.7,873.1,1087.7,874.2,1086.4,874.2z"/>
			</g>
		</g>
		<g id="XMLID_399_">
			<g>
				<path class="st2" d="M339.9,784.5c-0.5,0-1.1-0.2-1.5-0.6c-1-0.8-1.1-2.3-0.3-3.3c16.7-19.6,25.9-44.5,25.9-70.3
					c0-13.3-2.4-26.2-7-38.5c-0.5-1.2,0.1-2.6,1.4-3c1.2-0.5,2.6,0.1,3,1.4c4.9,12.8,7.3,26.3,7.3,40.2c0,26.9-9.6,52.9-27,73.4
					C341.3,784.2,340.6,784.5,339.9,784.5z"/>
			</g>
		</g>
		<g id="XMLID_398_">
			<g>
				<path class="st2" d="M310.2,928.7c-0.9,0-1.7-0.5-2.1-1.3c-0.6-1.2-0.1-2.6,1.1-3.1c15.7-7.7,27.5-21.6,32.5-38.3
					c0.4-1.2,1.7-2,2.9-1.6c1.2,0.4,2,1.7,1.6,2.9c-5.3,17.9-18.1,33-35,41.2C310.9,928.6,310.5,928.7,310.2,928.7z"/>
			</g>
		</g>
		<g id="XMLID_400_">
			<g>
				<path class="st2" d="M218.5,856.1c-0.2,0-0.3,0-0.5-0.1c-1.3-0.3-2.1-1.5-1.8-2.8c3.9-17.4,14.9-32.8,30.1-42.2
					c1.1-0.7,2.6-0.3,3.2,0.8c0.7,1.1,0.4,2.6-0.8,3.2c-14.1,8.8-24.3,23.1-28,39.3C220.5,855.4,219.6,856.1,218.5,856.1z"/>
			</g>
		</g>
		<g id="XMLID_403_">
			<g>
				<path class="st2" d="M1306.9,751.6L1306.9,751.6l-68.6-0.2c-0.5,0-1.1-0.2-1.5-0.5c-1.1-0.9-27-22.6-26.9-63.7
					c-1.9-36.5,14.8-66.4,29.2-85.1c15.6-20.2,31.4-31.5,32-32c0.7-0.5,1.7-0.6,2.4-0.2c0.3,0.2,0.6,0.4,0.8,0.7
					c3,2.2,17.3,13.3,31.5,31.6c14.4,18.7,31.2,48.5,29.2,85.1c0.1,41.1-25.8,62.8-26.9,63.7
					C1307.9,751.4,1307.4,751.6,1306.9,751.6z M1239.2,746.8l66.8,0.2c3.9-3.5,24.7-24.2,24.6-59.6v-0.1
					c3.3-61.9-49.2-105.3-58.1-112.1c-4.3,3.3-17.2,13.9-29.7,30.1c-13.9,18-30.1,46.8-28.2,81.9v0.1
					C1214.5,722.7,1235.3,743.3,1239.2,746.8z"/>
			</g>
		</g>
		<g id="XMLID_401_">
			<g>
				<path class="st2" d="M1354.2,582.3c-0.4,0-0.8-0.1-1.1-0.3l-10.2-5.4l-10.2,5.4c-0.8,0.4-1.8,0.3-2.5-0.2s-1.1-1.4-0.9-2.3
					l1.9-11.4l-8.3-8.1c-0.6-0.6-0.9-1.6-0.6-2.4c0.3-0.9,1-1.5,1.9-1.6l11.4-1.7l5.1-10.3c0.4-0.8,1.2-1.3,2.1-1.3l0,0
					c0.9,0,1.7,0.5,2.1,1.3l5.1,10.3l11.4,1.7c0.9,0.1,1.6,0.8,1.9,1.6c0.3,0.9,0,1.8-0.6,2.4l-8.3,8.1l2,11.4
					c0.2,0.9-0.2,1.8-0.9,2.3C1355.2,582.1,1354.7,582.3,1354.2,582.3z M1329.7,560.1l5.7,5.6c0.6,0.5,0.8,1.3,0.7,2.1l-1.4,7.9
					l7.1-3.7c0.7-0.4,1.5-0.4,2.2,0l7.1,3.7l-1.4-7.9c-0.1-0.8,0.1-1.5,0.7-2.1l5.7-5.6l-7.9-1.1c-0.8-0.1-1.4-0.6-1.8-1.3l-3.5-7.2
					l-3.5,7.2c-0.3,0.7-1,1.2-1.8,1.3L1329.7,560.1z"/>
			</g>
		</g>
		<g id="XMLID_404_">
			<g>
				<path class="st2" d="M1297.8,599.1h-51.2c-1.3,0-2.4-1.1-2.4-2.4s1.1-2.4,2.4-2.4h51.2c1.3,0,2.4,1.1,2.4,2.4
					S1299.1,599.1,1297.8,599.1z"/>
			</g>
		</g>
		<g id="XMLID_402_">
			<g>
				<circle class="st7" cx="1272.2" cy="631.5" r="12.5"/>
			</g>
			<g>
				<path class="st2" d="M1272.2,646.4c-8.2,0-14.9-6.7-14.9-14.9s6.7-14.9,14.9-14.9s14.9,6.7,14.9,14.9S1280.4,646.4,1272.2,646.4
					z M1272.2,621.3c-5.6,0-10.2,4.6-10.2,10.2c0,5.6,4.6,10.2,10.2,10.2s10.2-4.6,10.2-10.2
					C1282.4,625.9,1277.8,621.3,1272.2,621.3z"/>
			</g>
		</g>
		<g id="XMLID_405_">
			<g>
				<circle class="st7" cx="1272.2" cy="685.6" r="24.8"/>
			</g>
			<g>
				<path class="st2" d="M1272.2,712.8c-15,0-27.2-12.2-27.2-27.2s12.2-27.2,27.2-27.2s27.2,12.2,27.2,27.2
					C1299.4,700.6,1287.2,712.8,1272.2,712.8z M1272.2,663.1c-12.4,0-22.5,10.1-22.5,22.5s10.1,22.5,22.5,22.5s22.5-10.1,22.5-22.5
					C1294.6,673.2,1284.6,663.1,1272.2,663.1z"/>
			</g>
		</g>
		<g id="XMLID_406_">
			<g>
				<path class="st2" d="M1272.2,701.5c-4.9,0-10-2.7-12.3-6.5c-0.7-1.1-0.3-2.6,0.8-3.2c1.1-0.7,2.6-0.3,3.2,0.8
					c1.4,2.4,5,4.2,8.2,4.2c4.6,0,8.4-3.8,8.4-8.4c0-1.3,1.1-2.4,2.4-2.4s2.4,1.1,2.4,2.4C1285.3,695.7,1279.4,701.5,1272.2,701.5z"
					/>
			</g>
		</g>
		<g id="XMLID_408_">
			<g>
				<path class="st2" d="M1319,736.7h-93.1c-1.3,0-2.4-1.1-2.4-2.4c0-1.3,1.1-2.4,2.4-2.4h93.1c1.3,0,2.4,1.1,2.4,2.4
					C1321.3,735.6,1320.3,736.7,1319,736.7z"/>
			</g>
		</g>
		<g id="XMLID_407_">
			<g>
				<rect x="1238.3" y="749.1" class="st5" width="68" height="21.4"/>
			</g>
			<g>
				<path class="st1" d="M1306.3,772.9h-68c-1.3,0-2.4-1.1-2.4-2.4v-21.4c0-1.3,1.1-2.4,2.4-2.4h68c1.3,0,2.4,1.1,2.4,2.4v21.4
					C1308.6,771.8,1307.6,772.9,1306.3,772.9z M1240.6,768.2h63.3v-16.7h-63.3V768.2z"/>
			</g>
		</g>
		<g id="XMLID_409_">
			<g>
				<path class="st2" d="M1215.1,788.5c-3.7,0-7.5-1.9-11-5.5c-7.1-7.3-11.5-19.9-11.3-32.2c0.4-20.2,19.3-25.5,29.3-25.5
					c1.3,0,2.4,1.1,2.4,2.4c0,1.3-1.1,2.4-2.4,2.4l0,0c-1,0-24.1,0.3-24.5,20.9c-0.2,11.1,3.7,22.5,10,28.9c2.6,2.6,5.3,4.1,7.7,4.1
					c1.1,0,1.5-0.3,1.7-0.6c1.5-1.6,1.2-6.8,1-11.4c-0.3-4.9-0.6-9.9,0.8-13.6c3.2-8.4,8.2-11.3,19.7-11.5c1.3,0,2.4,1,2.4,2.3
					s-1,2.4-2.3,2.4c-10.5,0.2-13.1,2.6-15.3,8.5c-1.1,2.8-0.8,7.3-0.5,11.7c0.4,6.1,0.7,11.8-2.2,14.9
					C1218.9,787.8,1217.2,788.5,1215.1,788.5z"/>
			</g>
		</g>
		<g id="XMLID_411_">
			<g>
				<path class="st2" d="M1330.8,788.5c-2.1,0-3.9-0.7-5.2-2.1c-2.9-3.1-2.6-8.8-2.2-14.9c0.3-4.4,0.5-8.9-0.5-11.7
					c-2.2-5.8-4.9-8.3-15.3-8.5c-1.3,0-2.3-1.1-2.3-2.4c0-1.3,1-2.3,2.4-2.3c11.5,0.2,16.4,3.1,19.7,11.5c1.4,3.7,1.1,8.8,0.8,13.6
					c-0.3,4.6-0.6,9.7,1,11.4c0.2,0.2,0.7,0.6,1.7,0.6c2.4,0,5.1-1.4,7.7-4.1c6.3-6.4,10.2-17.7,10-28.9
					c-0.4-20.6-23.6-20.9-24.5-20.9c-1.3,0-2.4-1.1-2.3-2.4c0-1.3,1.1-2.4,2.4-2.4c9.9,0,28.8,5.3,29.3,25.5
					c0.2,12.3-4.2,25-11.3,32.2C1338.3,786.6,1334.5,788.5,1330.8,788.5z"/>
			</g>
		</g>
		<g id="XMLID_412_">
			<g>
				<path class="st2" d="M1200.1,715.1c-1,0-1.9-0.6-2.2-1.6c-0.2-0.7-5.7-18.1-4-42.7c1.6-22.7,10-55.8,41-85
					c0.9-0.9,2.4-0.9,3.3,0.1c0.9,0.9,0.9,2.4-0.1,3.3c-29.8,28.2-37.9,60.1-39.5,81.9c-1.7,23.6,3.7,40.7,3.8,40.9
					c0.4,1.2-0.3,2.6-1.5,3C1200.6,715.1,1200.4,715.1,1200.1,715.1z"/>
			</g>
		</g>
		<g id="XMLID_410_">
			<g>
				<path class="st2" d="M1162.4,731.3c-10.4,0-18.8-8.4-18.8-18.8c0-10.4,8.4-18.8,18.8-18.8s18.8,8.4,18.8,18.8
					C1181.2,722.9,1172.8,731.3,1162.4,731.3z M1162.4,698.4c-7.8,0-14.1,6.3-14.1,14.1s6.3,14.1,14.1,14.1s14.1-6.3,14.1-14.1
					C1176.5,704.8,1170.2,698.4,1162.4,698.4z"/>
			</g>
		</g>
		<g id="XMLID_414_">
			<g>
				<path class="st2" d="M1162.4,745.7c-10.7,0-20.8-5.2-27-13.8c-0.8-1.1-0.5-2.5,0.5-3.3c1.1-0.8,2.5-0.5,3.3,0.5
					c5.4,7.4,14,11.9,23.2,11.9c3.8,0,7.6-0.8,11.1-2.2c1.2-0.5,2.6,0.1,3.1,1.3s-0.1,2.6-1.3,3.1
					C1171.3,744.9,1166.9,745.7,1162.4,745.7z"/>
			</g>
		</g>
		<g id="XMLID_413_">
			<g>
				<path class="st2" d="M1114.4,758.8c-1.3,0-2.4-1.1-2.4-2.4v-38.7c0-17.8-14.5-32.3-32.3-32.3h-5c-1.3,0-2.4-1.1-2.4-2.4
					s1.1-2.4,2.4-2.4h5c20.4,0,37,16.6,37,37v38.7C1116.7,757.7,1115.7,758.8,1114.4,758.8z"/>
			</g>
		</g>
		<g id="XMLID_418_">
			<g>
				<path class="st1" d="M1317.8,963.9c-1.2,0-2.2-0.9-2.3-2l-20.8-158.5c-0.2-1.3,0.7-2.5,2-2.6c1.3-0.2,2.5,0.7,2.6,2l20.8,158.5
					c0.2,1.3-0.7,2.5-2,2.6C1318,963.9,1317.9,963.9,1317.8,963.9z"/>
			</g>
		</g>
		<g id="XMLID_419_">
			<g>
				<path class="st1" d="M1231,931.1c-0.1,0-0.2,0-0.3,0c-1.3-0.2-2.2-1.4-2-2.6L1248,786c0.2-1.3,1.4-2.2,2.6-2
					c1.3,0.2,2.2,1.4,2,2.6L1233.3,929C1233.2,930.2,1232.2,931.1,1231,931.1z"/>
			</g>
		</g>
		<g id="XMLID_422_">
			<g>
				<path class="st1" d="M1354.1,940.6c-0.7,0-1.4-0.3-1.8-0.9c-0.8-1-0.7-2.5,0.3-3.3l59.1-48.1c1-0.8,2.5-0.7,3.3,0.3
					s0.7,2.5-0.3,3.3l-59.1,48.1C1355.2,940.5,1354.7,940.6,1354.1,940.6z"/>
			</g>
		</g>
		<g id="XMLID_424_">
			<g>
				<path class="st2" d="M1468.6,832.5H1373c-1.3,0-2.4-1.1-2.4-2.4s1.1-2.4,2.4-2.4h95.6c1.3,0,2.4,1.1,2.4,2.4
					S1469.9,832.5,1468.6,832.5z"/>
			</g>
		</g>
		<g id="XMLID_427_">
			<g>
				<path class="st1" d="M1458.2,598.2h-34.7c-1.3,0-2.4-1.1-2.4-2.4s1.1-2.4,2.4-2.4h34.7c1.3,0,2.4,1.1,2.4,2.4
					S1459.5,598.2,1458.2,598.2z"/>
			</g>
		</g>
		<g id="XMLID_429_">
			<g>
				<path class="st1" d="M1455.1,694.5h-57.5c-1.3,0-2.4-1.1-2.4-2.4s1.1-2.4,2.4-2.4h57.5c1.3,0,2.4,1.1,2.4,2.4
					S1456.4,694.5,1455.1,694.5z"/>
			</g>
		</g>
		<g id="XMLID_430_">
			<g>
				<path class="st1" d="M1455.1,708.5h-57.5c-1.3,0-2.4-1.1-2.4-2.4s1.1-2.4,2.4-2.4h57.5c1.3,0,2.4,1.1,2.4,2.4
					S1456.4,708.5,1455.1,708.5z"/>
			</g>
		</g>
		<g id="XMLID_431_">
			<g>
				<path class="st1" d="M1438.9,722.4h-41.2c-1.3,0-2.4-1.1-2.4-2.4s1.1-2.4,2.4-2.4h41.2c1.3,0,2.4,1.1,2.4,2.4
					S1440.2,722.4,1438.9,722.4z"/>
			</g>
		</g>
		<g id="XMLID_432_">
			<g>
				<path class="st1" d="M1471.5,736.3h-73.9c-1.3,0-2.4-1.1-2.4-2.4s1.1-2.4,2.4-2.4h73.9c1.3,0,2.4,1.1,2.4,2.4
					S1472.8,736.3,1471.5,736.3z"/>
			</g>
		</g>
		<g>
			<g id="XMLID_425_">
				<g>
					<path class="st1" d="M1409.9,791.1c-4.3,0-7.8-3.5-7.8-7.8s3.5-7.8,7.8-7.8s7.8,3.5,7.8,7.8
						C1417.7,787.6,1414.2,791.1,1409.9,791.1z M1409.9,780.2c-1.7,0-3.1,1.4-3.1,3.1s1.4,3.1,3.1,3.1s3.1-1.4,3.1-3.1
						S1411.6,780.2,1409.9,780.2z"/>
				</g>
			</g>
			<g id="XMLID_436_">
				<g>
					<path class="st1" d="M1435.9,791.1c-4.3,0-7.8-3.5-7.8-7.8s3.5-7.8,7.8-7.8s7.8,3.5,7.8,7.8
						C1443.7,787.6,1440.2,791.1,1435.9,791.1z M1435.9,780.2c-1.7,0-3.1,1.4-3.1,3.1s1.4,3.1,3.1,3.1s3.1-1.4,3.1-3.1
						S1437.6,780.2,1435.9,780.2z"/>
				</g>
			</g>
			<g id="XMLID_437_">
				<g>
					<path class="st1" d="M1461.9,791.1c-4.3,0-7.8-3.5-7.8-7.8s3.5-7.8,7.8-7.8s7.8,3.5,7.8,7.8
						C1469.7,787.6,1466.2,791.1,1461.9,791.1z M1461.9,780.2c-1.7,0-3.1,1.4-3.1,3.1s1.4,3.1,3.1,3.1s3.1-1.4,3.1-3.1
						S1463.6,780.2,1461.9,780.2z"/>
				</g>
			</g>
		</g>
		<g id="XMLID_435_">
			<g>
				<path class="st2" d="M1638.6,775.5h-59.7c-4.3,0-7.8-3.5-7.8-7.8l0,0c0-4.3,3.5-7.8,7.8-7.8h59.7c4.3,0,7.8,3.5,7.8,7.8l0,0
					C1646.5,772,1643,775.5,1638.6,775.5z"/>
			</g>
			<g>
				<path class="st2" d="M1638.6,777.9h-59.7c-5.6,0-10.2-4.6-10.2-10.2s4.6-10.2,10.2-10.2h59.7c5.6,0,10.2,4.6,10.2,10.2
					S1644.2,777.9,1638.6,777.9z M1578.9,762.2c-3,0-5.5,2.5-5.5,5.5s2.5,5.5,5.5,5.5h59.7c3,0,5.5-2.5,5.5-5.5s-2.5-5.5-5.5-5.5
					H1578.9z"/>
			</g>
		</g>
		<g id="XMLID_439_">
			<g>
				<path class="st6" d="M1633.3,791.1h-49c-4.3,0-7.8-3.5-7.8-7.8l0,0c0-4.3,3.5-7.8,7.8-7.8h49c4.3,0,7.8,3.5,7.8,7.8l0,0
					C1641.1,787.6,1637.6,791.1,1633.3,791.1z"/>
			</g>
			<g>
				<path class="st2" d="M1633.3,793.5h-49c-5.6,0-10.2-4.6-10.2-10.2s4.6-10.2,10.2-10.2h49c5.6,0,10.2,4.6,10.2,10.2
					S1638.9,793.5,1633.3,793.5z M1584.3,777.8c-3,0-5.5,2.5-5.5,5.5s2.5,5.5,5.5,5.5h49c3,0,5.5-2.5,5.5-5.5s-2.5-5.5-5.5-5.5
					H1584.3z"/>
			</g>
		</g>
		<g id="XMLID_440_">
			<g>
				<path class="st2" d="M1627.6,806.8H1590c-4.3,0-7.8-3.5-7.8-7.8l0,0c0-4.3,3.5-7.8,7.8-7.8h37.6c4.3,0,7.8,3.5,7.8,7.8l0,0
					C1635.4,803.3,1631.9,806.8,1627.6,806.8z"/>
			</g>
			<g>
				<path class="st2" d="M1627.6,809.2H1590c-5.6,0-10.2-4.6-10.2-10.2s4.6-10.2,10.2-10.2h37.6c5.6,0,10.2,4.6,10.2,10.2
					S1633.2,809.2,1627.6,809.2z M1590,793.5c-3,0-5.5,2.5-5.5,5.5s2.5,5.5,5.5,5.5h37.6c3,0,5.5-2.5,5.5-5.5s-2.5-5.5-5.5-5.5H1590
					z"/>
			</g>
		</g>
		<g id="XMLID_438_">
			<g>
				<path class="st1" d="M1617.3,818.9h-15.6c-6.7,0-12.1-5.4-12.1-12.1c0-1.3,1.1-2.4,2.4-2.4s2.4,1.1,2.4,2.4
					c0,4.1,3.3,7.4,7.4,7.4h15.6c4.1,0,7.4-3.3,7.4-7.4c0-1.3,1.1-2.4,2.4-2.4s2.4,1.1,2.4,2.4
					C1629.4,813.5,1624,818.9,1617.3,818.9z"/>
			</g>
		</g>
		<g id="XMLID_445_">
			<g id="XMLID_444_">
				<g>
					<path class="st2" d="M1600.9,762.2c-1.3,0-2.4-1.1-2.4-2.4v-59.6h-1.6c-8.7,0-12.3-4.1-13.6-6.6c-2.1-3.9-1.9-9,0.7-13
						c2.1-3.3,5.5-5.2,9-5c2.4,0.2,4.5,1.2,6.2,3.1c3.8,4.4,4.3,12.3,4.2,16.7h5.4c1.3,0,2.4,1.1,2.4,2.4s-1.1,2.4-2.4,2.4h-5.5
						v59.6C1603.3,761.2,1602.2,762.2,1600.9,762.2z M1592.4,680.4c-2.4,0-3.9,2-4.4,2.8c-1.6,2.5-1.8,5.8-0.5,8.2
						c1.5,2.7,4.8,4.1,9.5,4.1h1.7c0-4.1-0.5-10.6-3.1-13.6c-0.8-0.9-1.7-1.4-2.9-1.5C1592.6,680.4,1592.5,680.4,1592.4,680.4z"/>
				</g>
			</g>
			<g id="XMLID_446_">
				<g>
					<path class="st2" d="M1616.6,762.2c-1.3,0-2.4-1.1-2.4-2.4v-59.6h-5.5c-1.3,0-2.4-1.1-2.4-2.4s1.1-2.4,2.4-2.4h5.4
						c0-4.4,0.4-12.3,4.2-16.7c1.6-1.9,3.7-3,6.2-3.1c3.5-0.2,6.9,1.6,9,5c2.5,4,2.8,9.1,0.7,13c-1.3,2.5-4.9,6.6-13.6,6.6h-1.6
						v59.6C1619,761.2,1617.9,762.2,1616.6,762.2z M1618.9,695.5h1.7c4.7,0,8-1.4,9.5-4.1c1.3-2.4,1.1-5.7-0.5-8.2
						c-0.6-0.9-2.2-3-4.7-2.8c-1.2,0.1-2.1,0.5-2.9,1.5C1619.4,684.9,1618.8,691.4,1618.9,695.5z"/>
				</g>
			</g>
		</g>
		<g id="XMLID_448_">
			<g>
				<path class="st2" d="M1559.7,693.3c-1.1,0-2.1-0.8-2.3-1.9c-0.1-0.5-9.4-45.4,24.3-62.2c1.2-0.6,2.6-0.1,3.2,1.1
					c0.6,1.2,0.1,2.6-1.1,3.2c-30.5,15.2-21.9,56.6-21.8,57c0.3,1.3-0.5,2.5-1.8,2.8C1560,693.3,1559.8,693.3,1559.7,693.3z"/>
			</g>
		</g>
		<g id="XMLID_449_">
			<g>
				<path class="st2" d="M1733.1,675.5h-31.2c-1.3,0-2.4-1.1-2.4-2.4s1.1-2.4,2.4-2.4h31.2c1.3,0,2.4,1.1,2.4,2.4
					S1734.4,675.5,1733.1,675.5z"/>
			</g>
		</g>
		<g id="XMLID_447_">
			<g>
				<path class="st2" d="M1557.8,827.3c-0.4,0-0.8-0.1-1.1-0.3l-8.9-4.7l-8.9,4.7c-0.8,0.4-1.8,0.3-2.5-0.2s-1.1-1.4-0.9-2.3
					l1.7-9.9l-7.2-7c-0.6-0.6-0.9-1.6-0.6-2.4c0.3-0.9,1-1.5,1.9-1.6l9.9-1.4l4.4-9c0.4-0.8,1.2-1.3,2.1-1.3l0,0
					c0.9,0,1.7,0.5,2.1,1.3l4.4,9l9.9,1.4c0.9,0.1,1.6,0.8,1.9,1.6c0.3,0.9,0,1.8-0.6,2.4l-7.2,7l1.7,9.9c0.2,0.9-0.2,1.8-0.9,2.3
					C1558.8,827.2,1558.3,827.3,1557.8,827.3z M1547.8,817.4c0.4,0,0.8,0.1,1.1,0.3l5.8,3l-1.1-6.4c-0.1-0.8,0.1-1.5,0.7-2.1
					l4.7-4.5l-6.4-0.9c-0.8-0.1-1.4-0.6-1.8-1.3l-2.9-5.8l-2.9,5.8c-0.3,0.7-1,1.2-1.8,1.3l-6.4,0.9l4.7,4.5
					c0.6,0.5,0.8,1.3,0.7,2.1l-1.1,6.4l5.8-3C1547.1,817.5,1547.5,817.4,1547.8,817.4z"/>
			</g>
		</g>
		<g id="XMLID_451_">
			<g>
				<rect x="1613.3" y="908.7" class="st2" width="86.3" height="47.3"/>
			</g>
			<g>
				<path class="st2" d="M1699.6,958.4h-86.3c-1.3,0-2.4-1.1-2.4-2.4v-47.3c0-1.3,1.1-2.4,2.4-2.4h86.3c1.3,0,2.4,1.1,2.4,2.4V956
					C1702,957.3,1700.9,958.4,1699.6,958.4z M1615.7,953.7h81.6v-42.6h-81.6V953.7z"/>
			</g>
		</g>
		<g id="XMLID_453_">
			<g>
				<path class="st1" d="M1656.5,976.7c-11.4,0-20.6-9.3-20.6-20.6c0-1.3,1.1-2.4,2.4-2.4s2.4,1.1,2.4,2.4c0,8.8,7.1,15.9,15.9,15.9
					s15.9-7.1,15.9-15.9c0-1.3,1.1-2.4,2.4-2.4s2.4,1.1,2.4,2.4C1677.1,967.4,1667.9,976.7,1656.5,976.7z"/>
			</g>
		</g>
		<g id="XMLID_452_">
			<path class="st2" d="M1643.9,966.9c-1.3-0.4-2.6,0.4-2.9,1.6l-8.8,30.8c-0.1,0.2-0.1,0.4-0.1,0.6h4.8l8.6-30.1
				C1645.8,968.6,1645.1,967.3,1643.9,966.9z"/>
			<path class="st2" d="M1680.8,999.4l-8.8-30.8c-0.4-1.3-1.7-2-2.9-1.6c-1.2,0.4-2,1.7-1.6,2.9l8.6,30.1h4.8
				C1680.9,999.8,1680.9,999.6,1680.8,999.4z"/>
		</g>
		<g id="XMLID_457_">
			<g>
				<path class="st1" d="M1670.3,923.2h-36.7c-1.3,0-2.4-1.1-2.4-2.4s1.1-2.4,2.4-2.4h36.7c1.3,0,2.4,1.1,2.4,2.4
					S1671.6,923.2,1670.3,923.2z"/>
			</g>
		</g>
		<g id="XMLID_458_">
			<g>
				<path class="st1" d="M1654.1,935.6h-20.4c-1.3,0-2.4-1.1-2.4-2.4s1.1-2.4,2.4-2.4h20.4c1.3,0,2.4,1.1,2.4,2.4
					S1655.4,935.6,1654.1,935.6z"/>
			</g>
		</g>
		<g id="XMLID_456_">
			<g>
				<path class="st2" d="M1632,911.1c-6.5,0-11.8-5.3-11.8-11.8s5.3-11.8,11.8-11.8s11.8,5.3,11.8,11.8S1638.5,911.1,1632,911.1z
					 M1632,892.2c-3.9,0-7.1,3.2-7.1,7.1c0,3.9,3.2,7.1,7.1,7.1s7.1-3.2,7.1-7.1S1635.9,892.2,1632,892.2z"/>
			</g>
		</g>
		<g id="XMLID_460_">
			<g>
				<path class="st2" d="M1670.3,911.1c-6.5,0-11.8-5.3-11.8-11.8s5.3-11.8,11.8-11.8s11.8,5.3,11.8,11.8S1676.8,911.1,1670.3,911.1
					z M1670.3,892.2c-3.9,0-7.1,3.2-7.1,7.1c0,3.9,3.2,7.1,7.1,7.1s7.1-3.2,7.1-7.1S1674.2,892.2,1670.3,892.2z"/>
			</g>
		</g>
		<g id="XMLID_463_">
			<g>
				<path class="st2" d="M1720,954.3c-0.4,0-0.8-0.1-1.1-0.3l-20.3-11.1c-0.8-0.4-1.2-1.2-1.2-2.1v-19.3c0-0.9,0.5-1.7,1.2-2.1
					l20.3-11.1c0.7-0.4,1.6-0.4,2.3,0c0.7,0.4,1.2,1.2,1.2,2v41.5c0,0.8-0.4,1.6-1.2,2C1720.8,954.2,1720.4,954.3,1720,954.3z
					 M1702,939.4l15.6,8.6v-33.6l-15.6,8.5V939.4z"/>
			</g>
		</g>
		<g id="XMLID_464_">
			<g>
				<path class="st2" d="M1713.4,872.9H1687c-1.3,0-2.4-1.1-2.4-2.4V770.1h-10.8c-0.9,0-1.7-0.5-2.1-1.2c-0.4-0.8-0.4-1.7,0.1-2.4
					l26.3-39.2c0.4-0.7,1.2-1,2-1s1.5,0.4,2,1l26.3,39.2c0.5,0.7,0.5,1.7,0.1,2.4c-0.4,0.8-1.2,1.2-2.1,1.2h-10.8v100.5
					C1715.7,871.8,1714.7,872.9,1713.4,872.9z M1689.3,868.2h21.7V767.7c0-1.3,1.1-2.4,2.4-2.4h8.7l-21.9-32.7l-21.9,32.7h8.7
					c1.3,0,2.4,1.1,2.4,2.4L1689.3,868.2L1689.3,868.2z"/>
			</g>
		</g>
		<g id="XMLID_459_">
			<g>
				<path class="st2" d="M1725.8,885.7h-12.1c-1.3,0-2.4-1.1-2.4-2.4c0-1.3,1.1-2.4,2.4-2.4h12.1c1.8,0,3.3-1.5,3.3-3.3v-85
					c0-1.3,1.1-2.4,2.4-2.4s2.4,1.1,2.4,2.4v85C1733.8,882.1,1730.2,885.7,1725.8,885.7z"/>
			</g>
		</g>
		<g id="XMLID_461_">
			<g>
				<path class="st1" d="M1535.8,960c-1.3,0-2.3-1-2.4-2.3l-0.1-5.1h-1.6c-2.8,0-5.5-1.1-7.5-3.1c-0.9-0.9-0.9-2.4,0-3.3
					c0.9-0.9,2.4-0.9,3.3,0c1.1,1.1,2.6,1.7,4.1,1.7h1.5l-0.3-11.7h-1.2c-5.8,0-10.5-4.7-10.5-10.5s4.7-10.5,10.5-10.5h0.6l-0.1-5.3
					c0-1.3,1-2.4,2.3-2.4s2.4,1,2.4,2.3l0.2,5.4h1.8c2.1,0,4.2,0.6,5.9,1.8c1.1,0.7,1.4,2.2,0.6,3.3c-0.7,1.1-2.2,1.4-3.3,0.6
					c-1-0.7-2.1-1-3.3-1h-1.6l0.3,11.7h1.3c5.8,0,10.5,4.7,10.5,10.5s-4.7,10.5-10.5,10.5h-0.7l0.1,5
					C1538.2,958.9,1537.2,960,1535.8,960C1535.9,960,1535.9,960,1535.8,960z M1537.9,947.9h0.9c3.2,0,5.8-2.6,5.8-5.8
					s-2.6-5.8-5.8-5.8h-1.2L1537.9,947.9z M1531.7,931.5h1.1l-0.3-11.7h-0.7c-3.2,0-5.8,2.6-5.8,5.8
					C1525.9,928.9,1528.5,931.5,1531.7,931.5z"/>
			</g>
		</g>
		<g id="XMLID_469_">
			<g>
				<path class="st2" d="M1175.9,871.7h-20.7c-0.7,0-1.3-0.3-1.8-0.8c-0.6-0.7-15.2-17.8-7.3-40.3c6-17,17.5-25.2,18-25.6
					c0.8-0.6,1.9-0.6,2.7,0c0.5,0.3,12,8.6,18,25.6c8,22.4-6.6,39.5-7.3,40.3C1177.3,871.4,1176.6,871.7,1175.9,871.7z
					 M1156.4,866.9h18.4c2.6-3.4,11.9-17.3,5.7-34.8c-4.3-12.2-11.9-19.6-14.9-22.2c-3.1,2.6-10.6,10-14.9,22.2
					C1144.5,849.6,1153.8,863.5,1156.4,866.9z"/>
			</g>
		</g>
		<g id="XMLID_468_">
			<g>
				<path class="st2" d="M1175.4,820.1h-19.9c-1.3,0-2.4-1.1-2.4-2.4s1.1-2.4,2.4-2.4h19.9c1.3,0,2.4,1.1,2.4,2.4
					S1176.7,820.1,1175.4,820.1z"/>
			</g>
		</g>
		<g id="XMLID_467_">
			<g>
				<ellipse class="st4" cx="1165.6" cy="838.8" rx="7.4" ry="7.4"/>
			</g>
			<g>
				<path class="st1" d="M1165.6,848.6c-5.4,0-9.8-4.4-9.8-9.8c0-5.4,4.4-9.8,9.8-9.8s9.8,4.4,9.8,9.8
					C1175.4,844.2,1171,848.6,1165.6,848.6z M1165.6,833.7c-2.8,0-5.1,2.3-5.1,5.1s2.3,5.1,5.1,5.1s5.1-2.3,5.1-5.1
					S1168.4,833.7,1165.6,833.7z"/>
			</g>
		</g>
		<g id="XMLID_470_">
			<g>
				<rect x="1155.3" y="869.3" class="st3" width="20.9" height="11.5"/>
			</g>
			<g>
				<path class="st1" d="M1176.1,883.1h-20.9c-1.3,0-2.4-1.1-2.4-2.4v-11.5c0-1.3,1.1-2.4,2.4-2.4h20.9c1.3,0,2.4,1.1,2.4,2.4v11.5
					C1178.5,882.1,1177.4,883.1,1176.1,883.1z M1157.6,878.4h16.1v-6.8h-16.1V878.4z"/>
			</g>
		</g>
		<g id="XMLID_471_">
			<g>
				<path class="st2" d="M1145.7,888.3c-1.2,0-2.3-0.7-2.7-0.9c-2.8-1.8-4.9-5.4-5.4-9.5c-0.6-4.4,0.5-8.5,3.1-11.3
					c4.7-5.1,12.3-1.8,16,0.9c0.7,0.5,1.1,1.3,1,2.2c-0.1,0.8-0.7,1.6-1.4,1.9c-1,0.4-3.8,1.8-5.2,3.6c-1.8,2.3-1.9,5.3-2,7.7
					c-0.1,2.2-0.1,4.2-1.9,5.2C1146.6,888.2,1146.1,888.3,1145.7,888.3z M1146.9,868.6c-1.1,0-2.1,0.3-2.9,1.1
					c-1.6,1.7-2.3,4.5-1.9,7.4c0.3,2.1,1.1,4,2.2,5.2c0.1-2.8,0.3-6.8,3-10.2c0.9-1.1,2-2.1,3.1-2.8
					C1149.3,868.9,1148.1,868.6,1146.9,868.6z"/>
			</g>
		</g>
		<g id="XMLID_473_">
			<g>
				<path class="st2" d="M1185.7,888.3c-0.5,0-1-0.1-1.4-0.4c-1.8-1-1.9-3-1.9-5.2c-0.1-2.4-0.2-5.4-2-7.7c-1.4-1.8-4.2-3.2-5.2-3.6
					c-0.8-0.3-1.3-1.1-1.4-1.9s0.3-1.7,1-2.2c3.8-2.7,11.4-5.9,16-0.9c2.6,2.8,3.7,6.9,3.1,11.3c-0.6,4.2-2.6,7.8-5.4,9.5
					C1188,887.6,1187,888.3,1185.7,888.3z M1181,869.3c1.1,0.8,2.2,1.7,3.1,2.8c2.7,3.4,2.9,7.5,3,10.2c1.1-1.2,1.9-3.1,2.2-5.2
					c0.4-2.9-0.3-5.7-1.9-7.4C1185.8,868,1183.2,868.5,1181,869.3z"/>
			</g>
		</g>
		<g id="XMLID_476_">
			<g>
				<path class="st1" d="M1154.3,966.1c-0.1,0-0.2,0-0.3,0c-1.3-0.1-2.2-1.3-2.1-2.6l7.8-70.1c0.1-1.3,1.3-2.2,2.6-2.1
					c1.3,0.1,2.2,1.3,2.1,2.6l-7.8,70.1C1156.5,965.2,1155.5,966.1,1154.3,966.1z"/>
			</g>
		</g>
		<g id="XMLID_484_">
			<g>
				<path class="st2" d="M176.6,913.8c-0.3,0-0.7-0.1-1-0.2c-0.6-0.3-1-0.7-1.2-1.3L133.2,798c-0.2-0.6-0.2-1.2,0.1-1.8
					s0.7-1,1.3-1.2l10.1-3.6c3.8-1.4,7.9-1.2,11.5,0.5s6.4,4.7,7.8,8.5l32.6,90.4c2.8,7.8-1.2,16.5-9.1,19.3l-10.1,3.6
					C177.1,913.8,176.9,913.8,176.6,913.8z M138.4,798.6L178,908.5l7.9-2.8l0,0c5.4-1.9,8.2-7.9,6.2-13.2l-32.6-90.4
					c-0.9-2.6-2.8-4.7-5.3-5.9s-5.3-1.3-7.9-0.4L138.4,798.6z"/>
			</g>
		</g>
		<g id="XMLID_485_">
			<g>
				<path class="st2" d="M109.5,944c-1.4,0-2.8-0.3-4.1-0.9c-2.3-1.1-4.1-3-5-5.5L70,853.2c-0.4-1.2,0.2-2.6,1.4-3
					c1.2-0.4,2.6,0.2,3,1.4l30.4,84.3c0.4,1.2,1.4,2.2,2.5,2.8c1.2,0.6,2.5,0.6,3.8,0.2l6.5-2.3c2.9-1,4.4-4.3,3.4-7.2
					c-0.4-1.2,0.2-2.6,1.4-3c1.2-0.4,2.6,0.2,3,1.4c1.9,5.3-0.9,11.3-6.2,13.2l-6.5,2.3C111.7,943.8,110.6,944,109.5,944z"/>
			</g>
		</g>
		<g id="XMLID_488_">
			<g>
				<path class="st2" d="M118.9,982.8c-1.1,0-2.2-0.2-3.3-0.7c-1.9-0.9-3.3-2.4-4-4.4l-9.8-27.2c-0.7-1.9-0.6-4,0.3-5.9
					s2.4-3.3,4.4-4l16.4-5.9c1.9-0.7,4-0.6,5.9,0.3c1.9,0.9,3.3,2.4,4,4.4l9.8,27.2c0.7,1.9,0.6,4-0.3,5.9c-0.9,1.9-2.4,3.3-4.4,4
					l-16.4,5.9C120.6,982.6,119.8,982.8,118.9,982.8z M125.5,939c-0.3,0-0.7,0.1-1,0.2l-16.4,5.9c-0.8,0.3-1.4,0.8-1.7,1.6
					c-0.3,0.7-0.4,1.5-0.1,2.3l9.8,27.2c0.3,0.8,0.8,1.4,1.6,1.7c0.7,0.3,1.5,0.4,2.3,0.1l16.4-5.9l0,0c0.8-0.3,1.4-0.8,1.7-1.6
					s0.4-1.5,0.1-2.3l-9.8-27.2c-0.3-0.8-0.8-1.4-1.6-1.7C126.4,939.1,126,939,125.5,939z"/>
			</g>
		</g>
		<g id="XMLID_489_">
			<g>
				<path class="st2" d="M37.4,867.3c-0.3,0-0.6-0.1-0.9-0.2c-1.2-0.5-1.7-1.9-1.2-3.1c0.2-0.5,5.1-11.5,27.9-22.2
					c15.3-7.2,38.7-22.3,43-32c0.5-1.2,1.9-1.7,3.1-1.2s1.7,1.9,1.2,3.1c-5.5,12.4-32.9,28.5-45.3,34.3
					c-21.1,9.9-25.5,19.7-25.5,19.8C39.2,866.8,38.3,867.3,37.4,867.3z"/>
			</g>
		</g>
		<g id="XMLID_490_">
			<g>
				<path class="st2" d="M184,863.1c-0.9,0-1.8-0.5-2.2-1.5c-0.5-1.2,0.1-2.6,1.3-3.1c5.3-2.2,8.8-7.3,8.8-13.1
					c0-7.8-6.4-14.2-14.2-14.2c-1.5,0-3,0.2-4.4,0.7c-1.2,0.4-2.6-0.3-3-1.5s0.3-2.6,1.5-3c1.9-0.6,3.9-0.9,5.9-0.9
					c10.4,0,18.9,8.5,18.9,18.9c0,7.7-4.6,14.5-11.7,17.4C184.6,863.1,184.3,863.1,184,863.1z"/>
			</g>
		</g>
		<g id="XMLID_492_">
			<g>
				<path class="st2" d="M206.4,835.7c-0.9,0-1.7-0.5-2.1-1.3c-0.6-1.2-0.1-2.6,1.1-3.1l9.3-4.4c1.2-0.6,2.6-0.1,3.1,1.1
					c0.6,1.2,0.1,2.6-1.1,3.1l-9.3,4.4C207,835.7,206.7,835.7,206.4,835.7z"/>
			</g>
		</g>
		<g id="XMLID_494_">
			<g>
				<path class="st2" d="M223.6,878.3c-0.1,0-0.2,0-0.3,0l-10.2-1.2c-1.3-0.2-2.2-1.3-2.1-2.6c0.2-1.3,1.3-2.2,2.6-2.1l10.2,1.2
					c1.3,0.2,2.2,1.3,2.1,2.6C225.8,877.4,224.8,878.3,223.6,878.3z"/>
			</g>
		</g>
		<g id="XMLID_493_">
			<g>
				<path class="st2" d="M181.4,801c-0.6,0-1.2-0.2-1.6-0.6c-0.9-0.9-1-2.4-0.1-3.3l7.1-7.5c0.9-0.9,2.4-1,3.3-0.1
					c0.9,0.9,1,2.4,0.1,3.3l-7.1,7.5C182.7,800.8,182,801,181.4,801z"/>
			</g>
		</g>
		<g id="XMLID_495_">
			<g>
				<path class="st2" d="M138.6,891.9c-0.3,0-0.6-0.1-0.9-0.2c-13.2-5.3-35.7,0-36,0.1c-1.3,0.3-2.5-0.5-2.8-1.7
					c-0.3-1.3,0.5-2.5,1.7-2.8c1-0.2,24.2-5.7,38.8,0.1c1.2,0.5,1.8,1.9,1.3,3.1C140.4,891.4,139.6,891.9,138.6,891.9z"/>
			</g>
		</g>
		<g id="XMLID_503_">
			<g>
				<path class="st1" d="M207.9,701c-0.1,0-0.2,0-0.3,0c-1.3-0.2-2.2-1.4-2-2.7c1.9-13,9.3-24.7,20.2-32.1c1.1-0.7,2.5-0.4,3.3,0.6
					c0.7,1.1,0.4,2.5-0.6,3.3c-9.9,6.7-16.5,17.2-18.2,28.9C210,700.1,209,701,207.9,701z"/>
			</g>
		</g>
		<g id="XMLID_498_">
			<g>
				<path class="st1" d="M308.8,712.6h-15.9c-1.3,0-2.4-1.1-2.4-2.4c0-1.3,1.1-2.4,2.4-2.4h15.9c1.3,0,2.4,1.1,2.4,2.4
					C311.1,711.6,310.1,712.6,308.8,712.6z M218.5,712.6h-15.9c-1.3,0-2.4-1.1-2.4-2.4c0-1.3,1.1-2.4,2.4-2.4h15.9
					c1.3,0,2.4,1.1,2.4,2.4C220.9,711.6,219.8,712.6,218.5,712.6z"/>
			</g>
		</g>
		<g>
			<g id="XMLID_501_">
				<g>
					<path class="st1" d="M255.7,766.5c-1.3,0-2.4-1.1-2.4-2.4v-15.9c0-1.3,1.1-2.4,2.4-2.4c1.3,0,2.4,1.1,2.4,2.4v15.9
						C258.1,765.4,257,766.5,255.7,766.5z"/>
				</g>
			</g>
			<g id="XMLID_1_">
				<g>
					<path class="st1" d="M255.7,674.7c-1.3,0-2.4-1.1-2.4-2.4v-15.9c0-1.3,1.1-2.4,2.4-2.4c1.3,0,2.4,1.1,2.4,2.4v15.9
						C258.1,673.6,257,674.7,255.7,674.7z"/>
				</g>
			</g>
		</g>
		<g id="XMLID_491_">
			<g>
				
					<ellipse transform="matrix(0.7071 -0.7071 0.7071 0.7071 -427.3653 388.8537)" class="st7" cx="255.7" cy="710.3" rx="7.7" ry="7.7"/>
			</g>
		</g>
		<g id="XMLID_505_">
			<g>
				<g>
					<path class="st2" d="M14.3,677.9h-3c-1.3,0-2.4-1.1-2.4-2.4c0-1.3,1.1-2.4,2.4-2.4h3c1.3,0,2.4,1.1,2.4,2.4
						C16.7,676.9,15.6,677.9,14.3,677.9z"/>
				</g>
			</g>
			<g>
				<g>
					<path class="st2" d="M146.5,677.9h-6.3c-1.3,0-2.4-1.1-2.4-2.4c0-1.3,1.1-2.4,2.4-2.4h6.3c1.3,0,2.4,1.1,2.4,2.4
						C148.8,676.9,147.8,677.9,146.5,677.9z M124.4,677.9h-6.3c-1.3,0-2.4-1.1-2.4-2.4c0-1.3,1.1-2.4,2.4-2.4h6.3
						c1.3,0,2.4,1.1,2.4,2.4C126.8,676.9,125.7,677.9,124.4,677.9z M102.4,677.9h-6.3c-1.3,0-2.4-1.1-2.4-2.4c0-1.3,1.1-2.4,2.4-2.4
						h6.3c1.3,0,2.4,1.1,2.4,2.4C104.8,676.9,103.7,677.9,102.4,677.9z M80.4,677.9h-6.3c-1.3,0-2.4-1.1-2.4-2.4
						c0-1.3,1.1-2.4,2.4-2.4h6.3c1.3,0,2.4,1.1,2.4,2.4C82.7,676.9,81.7,677.9,80.4,677.9z M58.4,677.9h-6.3c-1.3,0-2.4-1.1-2.4-2.4
						c0-1.3,1.1-2.4,2.4-2.4h6.3c1.3,0,2.4,1.1,2.4,2.4C60.7,676.9,59.7,677.9,58.4,677.9z M36.3,677.9H30c-1.3,0-2.4-1.1-2.4-2.4
						c0-1.3,1.1-2.4,2.4-2.4h6.3c1.3,0,2.4,1.1,2.4,2.4C38.7,676.9,37.6,677.9,36.3,677.9z"/>
				</g>
			</g>
			<g>
				<g>
					<path class="st2" d="M165.2,677.9h-3c-1.3,0-2.4-1.1-2.4-2.4c0-1.3,1.1-2.4,2.4-2.4h3c1.3,0,2.4,1.1,2.4,2.4
						C167.6,676.9,166.5,677.9,165.2,677.9z"/>
				</g>
			</g>
		</g>
		<g id="XMLID_507_">
			<g>
				<g>
					<path class="st2" d="M1500.3,739.5h-3c-1.3,0-2.4-1.1-2.4-2.4s1.1-2.4,2.4-2.4h3c1.3,0,2.4,1.1,2.4,2.4
						S1501.6,739.5,1500.3,739.5z"/>
				</g>
			</g>
			<g>
				<g>
					<path class="st2" d="M1556.8,739.5h-5.4c-1.3,0-2.4-1.1-2.4-2.4s1.1-2.4,2.4-2.4h5.4c1.3,0,2.4,1.1,2.4,2.4
						S1558.1,739.5,1556.8,739.5z M1538,739.5h-5.4c-1.3,0-2.4-1.1-2.4-2.4s1.1-2.4,2.4-2.4h5.4c1.3,0,2.4,1.1,2.4,2.4
						S1539.3,739.5,1538,739.5z M1519.1,739.5h-5.4c-1.3,0-2.4-1.1-2.4-2.4s1.1-2.4,2.4-2.4h5.4c1.3,0,2.4,1.1,2.4,2.4
						S1520.4,739.5,1519.1,739.5z"/>
				</g>
			</g>
			<g>
				<g>
					<path class="st2" d="M1573.3,739.5h-3c-1.3,0-2.4-1.1-2.4-2.4s1.1-2.4,2.4-2.4h3c1.3,0,2.4,1.1,2.4,2.4
						S1574.6,739.5,1573.3,739.5z"/>
				</g>
			</g>
		</g>
		<g id="XMLID_504_">
			<g>
				<g>
					<path class="st2" d="M1609.6,830.3c-1.3,0-2.4-1.1-2.4-2.4v-3c0-1.3,1.1-2.4,2.4-2.4s2.4,1.1,2.4,2.4v3
						C1611.9,829.3,1610.9,830.3,1609.6,830.3z"/>
				</g>
			</g>
			<g>
				<g>
					<path class="st2" d="M1609.6,870.8c-1.3,0-2.4-1.1-2.4-2.4v-5.8c0-1.3,1.1-2.4,2.4-2.4s2.4,1.1,2.4,2.4v5.8
						C1611.9,869.8,1610.9,870.8,1609.6,870.8z M1609.6,850.6c-1.3,0-2.4-1.1-2.4-2.4v-5.8c0-1.3,1.1-2.4,2.4-2.4s2.4,1.1,2.4,2.4
						v5.8C1611.9,849.5,1610.9,850.6,1609.6,850.6z"/>
				</g>
			</g>
			<g>
				<g>
					<path class="st2" d="M1609.6,888.3h-3c-1.3,0-2.4-1.1-2.4-2.4s1.1-2.4,2.4-2.4h0.6v-0.6c0-1.3,1.1-2.4,2.4-2.4s2.4,1.1,2.4,2.4
						v3C1611.9,887.2,1610.9,888.3,1609.6,888.3z"/>
				</g>
			</g>
			<g>
				<g>
					<path class="st2" d="M1591.5,888.3h-6c-1.3,0-2.4-1.1-2.4-2.4s1.1-2.4,2.4-2.4h6c1.3,0,2.4,1.1,2.4,2.4
						S1592.8,888.3,1591.5,888.3z M1570.5,888.3h-6c-1.3,0-2.4-1.1-2.4-2.4s1.1-2.4,2.4-2.4h6c1.3,0,2.4,1.1,2.4,2.4
						S1571.8,888.3,1570.5,888.3z M1549.4,888.3h-6c-1.3,0-2.4-1.1-2.4-2.4s1.1-2.4,2.4-2.4h6c1.3,0,2.4,1.1,2.4,2.4
						S1550.7,888.3,1549.4,888.3z"/>
				</g>
			</g>
			<g>
				<g>
					<path class="st2" d="M1528.3,888.3h-3c-1.3,0-2.4-1.1-2.4-2.4s1.1-2.4,2.4-2.4h3c1.3,0,2.4,1.1,2.4,2.4
						S1529.6,888.3,1528.3,888.3z"/>
				</g>
			</g>
		</g>
		<g>
			<g>
				<path class="st2" d="M213.5,545.4c-1.3,0-2.4-0.9-2.6-2.1c-0.3-1.4,0.6-2.8,2.1-3.1c0.2,0,0.4-0.1,0.5-0.1
					c1.3,0,2.4,0.9,2.6,2.1c0.1,0.7,0,1.4-0.4,2s-1,1-1.7,1.1C213.9,545.4,213.7,545.4,213.5,545.4L213.5,545.4z"/>
			</g>
		</g>
		<g>
			<g>
				<path class="st2" d="M255.7,545.4c-1.3,0-2.4-0.9-2.6-2.1c-0.3-1.4,0.6-2.8,2.1-3.1c0.2,0,0.4-0.1,0.5-0.1
					c1.3,0,2.4,0.9,2.6,2.1c0.1,0.7,0,1.4-0.4,2s-1,1-1.7,1.1C256.1,545.4,255.9,545.4,255.7,545.4L255.7,545.4z"/>
			</g>
		</g>
		<g>
			<g>
				<path class="st1" d="M235.4,666.3c-1.3,0-2.4-0.9-2.6-2.1c-0.1-0.7,0-1.4,0.4-2s1-1,1.7-1.1c0.2,0,0.4-0.1,0.5-0.1
					c1.3,0,2.4,0.9,2.6,2.1c0.3,1.4-0.6,2.8-2.1,3.1C235.8,666.3,235.6,666.3,235.4,666.3L235.4,666.3z"/>
			</g>
		</g>
		<g>
			<g>
				<path class="st2" d="M45.7,712.3c-1.3,0-2.4-0.9-2.6-2.1c-0.1-0.7,0-1.4,0.4-2s1-1,1.7-1.1c0.2,0,0.4-0.1,0.5-0.1
					c1.3,0,2.4,0.9,2.6,2.1c0.3,1.4-0.6,2.8-2.1,3.1C46,712.2,45.8,712.3,45.7,712.3L45.7,712.3z"/>
			</g>
		</g>
		<g>
			<g>
				<path class="st2" d="M114.6,803.6c-1.3,0-2.4-0.9-2.6-2.1c-0.1-0.7,0-1.4,0.4-2s1-1,1.7-1.1c0.2,0,0.4-0.1,0.5-0.1
					c1.3,0,2.4,0.9,2.6,2.1c0.1,0.7,0,1.4-0.4,2s-1,1-1.7,1.1C115,803.6,114.8,803.6,114.6,803.6L114.6,803.6z"/>
			</g>
		</g>
		<g>
			<g>
				<path class="st2" d="M345.4,875.7c-1.3,0-2.4-0.9-2.6-2.1c-0.3-1.4,0.6-2.8,2.1-3.1c0.2,0,0.4-0.1,0.5-0.1
					c1.3,0,2.4,0.9,2.6,2.1c0.1,0.7,0,1.4-0.4,2s-1,1-1.7,1.1C345.7,875.7,345.5,875.7,345.4,875.7L345.4,875.7z"/>
			</g>
		</g>
		<g>
			<g>
				<path class="st2" d="M327.5,793.6c-1.3,0-2.4-0.9-2.6-2.1c-0.1-0.7,0-1.4,0.4-2s1-1,1.7-1.1c0.2,0,0.4-0.1,0.5-0.1
					c1.3,0,2.4,0.9,2.6,2.1c0.3,1.4-0.6,2.8-2.1,3.1C327.9,793.6,327.7,793.6,327.5,793.6L327.5,793.6z"/>
			</g>
		</g>
		<g>
			<g>
				<path class="st2" d="M694.4,547c-1.3,0-2.4-0.9-2.6-2.1c-0.1-0.7,0-1.4,0.4-2s1-1,1.7-1.1c0.2,0,0.4-0.1,0.5-0.1
					c1.3,0,2.4,0.9,2.6,2.1c0.3,1.4-0.6,2.8-2.1,3.1C694.7,546.9,694.6,547,694.4,547L694.4,547z"/>
			</g>
		</g>
		<g>
			<g>
				<path class="st2" d="M744.7,613.8c-1.3,0-2.4-0.9-2.6-2.1c-0.1-0.7,0-1.4,0.4-2s1-1,1.7-1.1c0.2,0,0.4-0.1,0.5-0.1
					c1.3,0,2.4,0.9,2.6,2.1c0.1,0.7,0,1.4-0.4,2s-1,1-1.7,1.1C745,613.8,744.9,613.8,744.7,613.8L744.7,613.8z"/>
			</g>
		</g>
		<g>
			<g>
				<path class="st2" d="M804.8,663.4c-1.3,0-2.4-0.9-2.6-2.1c-0.3-1.4,0.6-2.8,2.1-3.1c0.2,0,0.4-0.1,0.5-0.1
					c1.3,0,2.4,0.9,2.6,2.1c0.3,1.4-0.6,2.8-2.1,3.1C805.1,663.4,804.9,663.4,804.8,663.4L804.8,663.4z"/>
			</g>
		</g>
		<g>
			<g>
				<path class="st2" d="M933.5,486.7c-1.3,0-2.4-0.9-2.6-2.1c-0.3-1.4,0.6-2.8,2.1-3.1c0.2,0,0.4-0.1,0.5-0.1
					c1.3,0,2.4,0.9,2.6,2.1c0.3,1.4-0.6,2.8-2.1,3.1C933.9,486.7,933.7,486.7,933.5,486.7z"/>
			</g>
		</g>
		<g>
			<g>
				<path class="st1" d="M1095.8,529.5c-1.3,0-2.4-0.9-2.6-2.1c-0.1-0.7,0-1.4,0.4-2s1-1,1.7-1.1c0.2,0,0.4-0.1,0.5-0.1
					c1.3,0,2.4,0.9,2.6,2.1c0.3,1.4-0.6,2.9-2.1,3.1C1096.2,529.5,1096,529.5,1095.8,529.5z"/>
			</g>
		</g>
		<g>
			<g>
				<path class="st1" d="M1183.7,605.2c-1.3,0-2.4-0.9-2.6-2.1c-0.1-0.7,0-1.4,0.4-2s1-1,1.7-1.1c0.2,0,0.4-0.1,0.5-0.1
					c1.3,0,2.4,0.9,2.6,2.1c0.3,1.4-0.6,2.8-2.1,3.1C1184.1,605.1,1183.9,605.2,1183.7,605.2L1183.7,605.2z"/>
			</g>
		</g>
		<g>
			<g>
				<path class="st2" d="M1059.2,685.7c-1.3,0-2.4-0.9-2.6-2.1c-0.1-0.7,0-1.4,0.4-2s1-1,1.7-1.1c0.2,0,0.4-0.1,0.5-0.1
					c1.3,0,2.4,0.9,2.6,2.1c0.3,1.4-0.6,2.8-2.1,3.1C1059.6,685.7,1059.4,685.7,1059.2,685.7L1059.2,685.7z"/>
			</g>
		</g>
		<g>
			<g>
				<path class="st2" d="M1283.2,679.9c-1.3,0-2.4-0.9-2.6-2.1c-0.3-1.4,0.6-2.8,2.1-3.1c0.2,0,0.4-0.1,0.5-0.1
					c1.3,0,2.4,0.9,2.6,2.1c0.3,1.4-0.6,2.8-2.1,3.1C1283.6,679.9,1283.4,679.9,1283.2,679.9L1283.2,679.9z"/>
			</g>
		</g>
		<g>
			<g>
				<path class="st1" d="M1410.6,598.5c-1.3,0-2.4-0.9-2.6-2.1c-0.3-1.4,0.6-2.8,2.1-3.1c0.2,0,0.4-0.1,0.5-0.1
					c1.3,0,2.4,0.9,2.6,2.1c0.3,1.4-0.6,2.8-2.1,3.1C1410.9,598.5,1410.7,598.5,1410.6,598.5L1410.6,598.5z"/>
			</g>
		</g>
		<g>
			<g>
				<path class="st1" d="M1229.6,942.1c-1.3,0-2.4-0.9-2.6-2.1c-0.1-0.7,0-1.4,0.4-2s1-1,1.7-1.1c0.2,0,0.4-0.1,0.5-0.1
					c1.3,0,2.4,0.9,2.6,2.1c0.1,0.7,0,1.4-0.4,2s-1,1-1.7,1.1C1229.9,942.1,1229.7,942.1,1229.6,942.1L1229.6,942.1z"/>
			</g>
		</g>
		<g>
			<g>
				<path class="st1" d="M1318.9,973c-1.3,0-2.4-0.9-2.6-2.1c-0.1-0.7,0-1.4,0.4-2s1-1,1.7-1.1c0.2,0,0.4-0.1,0.5-0.1
					c1.3,0,2.4,0.9,2.6,2.1c0.3,1.4-0.6,2.8-2.1,3.1C1319.2,973,1319.1,973,1318.9,973L1318.9,973z"/>
			</g>
		</g>
		<g>
			<g>
				<path class="st1" d="M1152.8,977c-1.3,0-2.4-0.9-2.6-2.1c-0.3-1.4,0.6-2.8,2.1-3.1c0.2,0,0.4-0.1,0.5-0.1c1.3,0,2.4,0.9,2.6,2.1
					c0.3,1.4-0.6,2.8-2.1,3.1C1153.2,976.9,1153,977,1152.8,977L1152.8,977z"/>
			</g>
		</g>
		<g>
			<g>
				<path class="st1" d="M1485.4,832.8c-1.3,0-2.4-0.9-2.6-2.1c-0.3-1.4,0.6-2.8,2.1-3.1c0.2,0,0.4-0.1,0.5-0.1
					c1.3,0,2.4,0.9,2.6,2.1c0.1,0.7,0,1.4-0.4,2s-1,1-1.7,1.1C1485.8,832.8,1485.6,832.8,1485.4,832.8L1485.4,832.8z"/>
			</g>
		</g>
		<g>
			<g>
				<path class="st1" d="M1702.7,886c-1.3,0-2.4-0.9-2.6-2.1c-0.1-0.7,0-1.4,0.4-2s1-1,1.7-1.1c0.2,0,0.4-0.1,0.5-0.1
					c1.3,0,2.4,0.9,2.6,2.1c0.1,0.7,0,1.4-0.4,2s-1,1-1.7,1.1C1703.1,886,1702.9,886,1702.7,886L1702.7,886z"/>
			</g>
		</g>
		<g>
			<g>
				<path class="st2" d="M1599.5,631c-1.3,0-2.4-0.9-2.6-2.1c-0.3-1.4,0.6-2.8,2.1-3.1c0.2,0,0.4-0.1,0.5-0.1c1.3,0,2.4,0.9,2.6,2.1
					c0.1,0.7,0,1.4-0.4,2s-1,1-1.7,1.1C1599.9,631,1599.7,631,1599.5,631L1599.5,631z"/>
			</g>
		</g>
		<g id="XMLID_307_">
			<g>
				<polygon class="st1" points="285.9,663.9 235.6,733.5 243.9,728.7 242.9,738.3 				"/>
			</g>
		</g>
		<g>
			<g>
				<path class="st2" d="M332.6,634.4c-1.3,0-2.4-1.1-2.4-2.4v-6c0-1.3,1.1-2.4,2.4-2.4s2.4,1.1,2.4,2.4v6
					C335,633.3,333.9,634.4,332.6,634.4z M332.6,613.4c-1.3,0-2.4-1.1-2.4-2.4v-6c0-1.3,1.1-2.4,2.4-2.4s2.4,1.1,2.4,2.4v6
					C335,612.3,333.9,613.4,332.6,613.4z M427.1,597.8c-1.3,0-2.4-1.1-2.4-2.4v-6c0-1.3,1.1-2.4,2.4-2.4s2.4,1.1,2.4,2.4v6
					C429.4,596.7,428.4,597.8,427.1,597.8z M332.6,592.4c-1.3,0-2.4-1.1-2.4-2.4v-6c0-1.3,1.1-2.4,2.4-2.4s2.4,1.1,2.4,2.4v6
					C335,591.3,333.9,592.4,332.6,592.4z M427.1,576.8c-1.3,0-2.4-1.1-2.4-2.4v-6c0-1.3,1.1-2.4,2.4-2.4s2.4,1.1,2.4,2.4v6
					C429.4,575.7,428.4,576.8,427.1,576.8z M332.6,571.4c-1.3,0-2.4-1.1-2.4-2.4v-6c0-1.3,1.1-2.4,2.4-2.4s2.4,1.1,2.4,2.4v6
					C335,570.3,333.9,571.4,332.6,571.4z M427.1,555.8c-0.5,0-1-0.2-1.4-0.5h-4.2c-1.3,0-2.4-1.1-2.4-2.4c0-1.3,1.1-2.4,2.4-2.4h5.5
					c1.3,0,2.4,1.1,2.4,2.4v0.5C429.4,554.7,428.4,555.8,427.1,555.8z M406.5,555.3h-6c-1.3,0-2.4-1.1-2.4-2.4
					c0-1.3,1.1-2.4,2.4-2.4h6c1.3,0,2.4,1.1,2.4,2.4C408.9,554.3,407.8,555.3,406.5,555.3z M385.5,555.3h-6c-1.3,0-2.4-1.1-2.4-2.4
					c0-1.3,1.1-2.4,2.4-2.4h6c1.3,0,2.4,1.1,2.4,2.4C387.9,554.3,386.8,555.3,385.5,555.3z M364.5,555.3h-6c-1.3,0-2.4-1.1-2.4-2.4
					c0-1.3,1.1-2.4,2.4-2.4h6c1.3,0,2.4,1.1,2.4,2.4C366.9,554.3,365.8,555.3,364.5,555.3z M343.5,555.3h-6c-1.3,0-2.4-1.1-2.4-2.4
					c0-1.3,1.1-2.4,2.4-2.4h6c1.3,0,2.4,1.1,2.4,2.4C345.9,554.3,344.8,555.3,343.5,555.3z"/>
			</g>
		</g>
		<g>
			<g>
				<path class="st2" d="M821.1,577.2c-5.3,0-9.9-2-13.6-6c-13.3-14-11.7-48.1-11.6-49.6c0.1-1.3,1.2-2.3,2.5-2.2s2.3,1.2,2.2,2.5
					c0,0.3-1.5,33.6,10.4,46.1c2.9,3,6.2,4.5,10.2,4.5c1.3,0,2.4,1.1,2.4,2.4S822.4,577.2,821.1,577.2z"/>
			</g>
		</g>
		<g>
			<g>
				<path class="st2" d="M918.2,577.2c-1.3,0-2.4-1.1-2.4-2.4s1.1-2.4,2.4-2.4c12.2,0,21.3-22.3,21.3-42.1c0-1.3,1.1-2.4,2.4-2.4
					s2.4,1.1,2.4,2.4C944.2,552.9,933.8,577.2,918.2,577.2z"/>
			</g>
		</g>
		<g>
			<g>
				<path class="st2" d="M930,475.8c-0.9,0-1.8-0.6-2.2-1.5c-0.1-0.3-10.5-24.6-60.4-31.3c-1.3-0.2-2.2-1.4-2-2.6
					c0.2-1.3,1.4-2.2,2.6-2c53,7.2,63.7,33.2,64.2,34.3c0.5,1.2-0.1,2.6-1.3,3C930.6,475.8,930.3,475.8,930,475.8z"/>
			</g>
		</g>
		<g>
			<g>
				<path class="st2" d="M76.6,796h-6c-1.3,0-2.4-1.1-2.4-2.4c0-1.3,1.1-2.4,2.4-2.4h6c1.3,0,2.4,1.1,2.4,2.4
					C78.9,794.9,77.9,796,76.6,796z M55.6,796h-6c-1.3,0-2.4-1.1-2.4-2.4c0-1.3,1.1-2.4,2.4-2.4h6c1.3,0,2.4,1.1,2.4,2.4
					C57.9,794.9,56.9,796,55.6,796z M34.6,796h-6c-1.3,0-2.4-1.1-2.4-2.4c0-1.3,1.1-2.4,2.4-2.4h6c1.3,0,2.4,1.1,2.4,2.4
					C36.9,794.9,35.9,796,34.6,796z M13.6,796h-6c-1.3,0-2.4-1.1-2.4-2.4c0-1.3,1.1-2.4,2.4-2.4h6c1.3,0,2.4,1.1,2.4,2.4
					C15.9,794.9,14.9,796,13.6,796z M86.9,791.3c-1.3,0-2.4-1.1-2.4-2.4v-6c0-1.3,1.1-2.4,2.4-2.4s2.4,1.1,2.4,2.4v6
					C89.3,790.2,88.2,791.3,86.9,791.3z M86.9,770.3c-1.3,0-2.4-1.1-2.4-2.4v-6c0-1.3,1.1-2.4,2.4-2.4s2.4,1.1,2.4,2.4v6
					C89.3,769.2,88.2,770.3,86.9,770.3z"/>
			</g>
		</g>
		<g>
			<g>
				<path class="st2" d="M811.7,873.5c-0.6,0-1.2-0.2-1.7-0.7l-97.4-100.7l-59.1,62.1c-0.9,0.9-2.4,1-3.3,0.1
					c-0.9-0.9-1-2.4-0.1-3.3l60.8-63.9c0.4-0.5,1.1-0.7,1.7-0.7l0,0c0.6,0,1.2,0.3,1.7,0.7l99.1,102.5c0.9,0.9,0.9,2.4-0.1,3.3
					C812.9,873.3,812.3,873.5,811.7,873.5z"/>
			</g>
		</g>
		<g>
			<g>
				<path class="st2" d="M921.5,874.2c-0.5,0-1-0.2-1.5-0.5l-89-72.2l-48.8,39.4c-1,0.8-2.5,0.7-3.3-0.4c-0.8-1-0.7-2.5,0.4-3.3
					l50.3-40.6c0.9-0.7,2.1-0.7,3,0L923,870c1,0.8,1.2,2.3,0.3,3.3C922.9,873.9,922.2,874.2,921.5,874.2z"/>
			</g>
		</g>
		<g>
			<g>
				<path class="st2" d="M698.5,800.8c-0.2,0-0.3,0-0.5-0.1c-0.6-0.1-1.2-0.5-1.5-1.1l-5.4-9.3c-0.7-1.1-0.3-2.6,0.8-3.2
					c1.1-0.7,2.6-0.3,3.2,0.8l4.1,7.1l7.9-5.4c0.7-0.5,1.6-0.5,2.4-0.2l13.1,6.4l13.6-4.3c1.2-0.4,2.6,0.3,3,1.5s-0.3,2.6-1.5,3
					l-14.5,4.6c-0.6,0.2-1.2,0.1-1.8-0.1l-12.8-6.2l-8.9,6.1C699.4,800.7,699,800.8,698.5,800.8z"/>
			</g>
		</g>
		<g>
			<g>
				<path class="st2" d="M817.8,824.7c-0.3,0-0.6-0.1-0.9-0.2l-10.6-4.6c-1.2-0.5-1.7-1.9-1.2-3.1c0.5-1.2,1.9-1.7,3.1-1.2l9.9,4.3
					l20.3-4.5c0.3-0.1,0.5-0.1,0.8,0l18.7,2.3c1.3,0.2,2.2,1.3,2,2.6s-1.3,2.2-2.6,2L839,820l-20.6,4.5
					C818.2,824.6,818,824.7,817.8,824.7z"/>
			</g>
		</g>
		<g>
			<g>
				<path class="st2" d="M684.8,874.2c-0.6,0-1.3-0.3-1.8-0.8c-0.9-1-0.8-2.5,0.2-3.3c28-24.9,70.6-25.2,99-0.7
					c1,0.8,1.1,2.3,0.2,3.3c-0.9,1-2.3,1.1-3.3,0.2c-26.6-23-66.5-22.7-92.8,0.7C686,874,685.4,874.2,684.8,874.2z"/>
			</g>
		</g>
		<g>
			<g>
				<ellipse class="st2" cx="1411.9" cy="864.4" rx="8.9" ry="8.9"/>
			</g>
		</g>
		<g>
			<g>
				<circle class="st2" cx="1438.9" cy="879.3" r="12.8"/>
			</g>
		</g>
		<g>
			<g>
				<path class="st2" d="M1630.1,636.2c0,2.9-2.3,5.2-5.2,5.2c-2.9,0-5.2-2.3-5.2-5.2s2.3-5.2,5.2-5.2
					C1627.7,631,1630.1,633.3,1630.1,636.2z"/>
			</g>
		</g>
		<g>
			<g>
				<circle class="st2" cx="1642.2" cy="656.1" r="14.7"/>
			</g>
		</g>
		<g>
			<g>
				<path class="st2" d="M1434.6,580.4c-1.3,0-2.4-1.1-2.4-2.4v-6c0-1.3,1.1-2.4,2.4-2.4s2.4,1.1,2.4,2.4v6
					C1437,579.3,1435.9,580.4,1434.6,580.4z M1272.6,574.5c-1.3,0-2.3-1-2.4-2.3c0,0-0.1-2.4-0.2-6c0-1.3,1-2.4,2.3-2.4
					s2.4,1,2.4,2.3c0.1,3.6,0.2,6,0.2,6C1275,573.4,1274,574.5,1272.6,574.5L1272.6,574.5z M1434.6,559.4c-1.3,0-2.4-1.1-2.4-2.4v-6
					c0-1.3,1.1-2.4,2.4-2.4s2.4,1.1,2.4,2.4v6C1437,558.3,1435.9,559.4,1434.6,559.4z M1272,553.5c-1.3,0-2.3-1-2.4-2.3
					c0-2-0.1-4-0.1-6c0-1.3,1-2.4,2.3-2.4s2.4,1,2.4,2.3c0,2,0.1,4,0.1,6C1274.4,552.4,1273.3,553.5,1272,553.5L1272,553.5z
					 M1434.6,538.4c-1.3,0-2.4-1.1-2.4-2.4v-6c0-1.3,1.1-2.4,2.4-2.4s2.4,1.1,2.4,2.4v6C1437,537.3,1435.9,538.4,1434.6,538.4z
					 M1272,532.5L1272,532.5c-1.4-0.1-2.4-1.2-2.3-2.5c0.1-2.6,0.3-5.5,2.9-5.5h2.6c1.3,0,2.4,1.1,2.4,2.4s-1.1,2.4-2.4,2.4h-0.8
					c0,0.3,0,0.6-0.1,1C1274.3,531.5,1273.2,532.5,1272,532.5z M1422.7,529.2h-6c-1.3,0-2.4-1.1-2.4-2.4s1.1-2.4,2.4-2.4h6
					c1.3,0,2.4,1.1,2.4,2.4S1424,529.2,1422.7,529.2z M1401.6,529.2h-6c-1.3,0-2.4-1.1-2.4-2.4s1.1-2.4,2.4-2.4h6
					c1.3,0,2.4,1.1,2.4,2.4S1402.9,529.2,1401.6,529.2z M1380.5,529.2h-6c-1.3,0-2.4-1.1-2.4-2.4s1.1-2.4,2.4-2.4h6
					c1.3,0,2.4,1.1,2.4,2.4S1381.8,529.2,1380.5,529.2z M1359.5,529.2h-6c-1.3,0-2.4-1.1-2.4-2.4s1.1-2.4,2.4-2.4h6
					c1.3,0,2.4,1.1,2.4,2.4S1360.8,529.2,1359.5,529.2z M1338.4,529.2h-6c-1.3,0-2.4-1.1-2.4-2.4s1.1-2.4,2.4-2.4h6
					c1.3,0,2.4,1.1,2.4,2.4S1339.7,529.2,1338.4,529.2z M1317.4,529.2h-6c-1.3,0-2.4-1.1-2.4-2.4s1.1-2.4,2.4-2.4h6
					c1.3,0,2.4,1.1,2.4,2.4S1318.7,529.2,1317.4,529.2z M1296.3,529.2h-6c-1.3,0-2.4-1.1-2.4-2.4s1.1-2.4,2.4-2.4h6
					c1.3,0,2.4,1.1,2.4,2.4S1297.6,529.2,1296.3,529.2z"/>
			</g>
		</g>
		<path class="st2" d="M1719.7,619.1c-2.3-0.5-4.7-0.8-7.2-0.8c-16.9,0-30.7,12.3-30.7,27.4c0,4.5,1.2,8.9,3.6,12.9
			c0.4,0.7,1.2,1.2,2,1.2h61.5l0,0v-4.7l0,0h-60.1c-1.5-2.9-2.3-6.1-2.3-9.3c0-12.5,11.7-22.7,26-22.7c2.7,0,5.4,0.4,7.9,1.1
			c1.2,0.3,2.4-0.3,2.8-1.4c2.7-7.3,9.8-12.2,17.6-12.2c2.4,0,4.8,0.5,7.1,1.4c0.3,0.1,0.6,0.2,0.9,0.2v-4.8c-2.6-0.9-5.3-1.5-8-1.5
			C1731.8,605.7,1723.5,611,1719.7,619.1z"/>
	</g>
</g>
</svg>
