<?xml version="1.0" encoding="utf-8"?>
<!-- Generator: Adobe Illustrator 22.1.0, SVG Export Plug-In . SVG Version: 6.00 Build 0)  -->
<svg version="1.1" id="Layer_1" xmlns="http://www.w3.org/2000/svg" xmlns:xlink="http://www.w3.org/1999/xlink" x="0px" y="0px"
	 viewBox="0 0 1584 466" style="enable-background:new 0 0 1584 466;" xml:space="preserve">
<style type="text/css">
	.st0{clip-path:url(#SVGID_2_);fill:#262626;}
	.st1{clip-path:url(#SVGID_4_);fill:#EAE9EF;}
	.st2{clip-path:url(#SVGID_6_);fill:none;}
	.st3{clip-path:url(#SVGID_8_);}
	.st4{clip-path:url(#SVGID_10_);fill:#AFABBC;}
	.st5{clip-path:url(#SVGID_12_);fill:#E9D7DF;}
	.st6{clip-path:url(#SVGID_14_);}
	.st7{clip-path:url(#SVGID_16_);fill:#AFABBC;}
	.st8{clip-path:url(#SVGID_18_);fill:#262626;}
	.st9{clip-path:url(#SVGID_20_);fill:#AFABBC;}
	.st10{clip-path:url(#SVGID_22_);fill:#F3F1F7;}
	.st11{clip-path:url(#SVGID_24_);fill:#AFABBC;}
	.st12{clip-path:url(#SVGID_26_);}
	.st13{fill:#AEACBD;}
	.st14{clip-path:url(#SVGID_28_);fill:#ECE9F3;}
	.st15{clip-path:url(#SVGID_30_);fill:#AFABBC;}
	.st16{clip-path:url(#SVGID_32_);fill:#F3F1F7;}
	.st17{clip-path:url(#SVGID_34_);fill:#AFABBC;}
	.st18{clip-path:url(#SVGID_36_);}
	.st19{clip-path:url(#SVGID_38_);fill:#F3F1F7;}
	.st20{clip-path:url(#SVGID_40_);}
	.st21{clip-path:url(#SVGID_42_);}
	.st22{clip-path:url(#SVGID_44_);fill:#AFABBC;}
	.st23{clip-path:url(#SVGID_46_);fill:#F3F1F7;}
	.st24{clip-path:url(#SVGID_48_);fill:#AFABBC;}
	.st25{clip-path:url(#SVGID_50_);fill:#EBE8F2;}
	.st26{clip-path:url(#SVGID_52_);}
	.st27{clip-path:url(#SVGID_54_);}
	.st28{clip-path:url(#SVGID_56_);}
	.st29{clip-path:url(#SVGID_58_);fill:#F3F1F7;}
	.st30{clip-path:url(#SVGID_60_);}
	.st31{clip-path:url(#SVGID_62_);}
	.st32{fill:#FFFFFF;}
	.st33{clip-path:url(#SVGID_64_);}
	.st34{clip-path:url(#SVGID_66_);fill:#AFABBC;}
	.st35{clip-path:url(#SVGID_68_);fill:#F3F1F7;}
	.st36{clip-path:url(#SVGID_70_);}
	.st37{clip-path:url(#SVGID_72_);}
	.st38{clip-path:url(#SVGID_74_);}
	.st39{clip-path:url(#SVGID_76_);}
	.st40{clip-path:url(#SVGID_78_);}
	.st41{font-family:'HelveticaNeue';}
	.st42{font-size:28.0005px;}
	.st43{fill:none;}
	.st44{fill:#D9E8EF;}
	.st45{fill:#FFC700;}
	.st46{fill:#DF3C73;}
	.st47{fill:#4E429A;}
</style>
<g id="Layer_1_1_">
	<g id="New_Symbol_7">
	</g>
</g>
<g id="Layer_3">
	<g id="Most_important_2_15_">
	</g>
	<g id="New_Symbol_3_14_">
	</g>
	<g id="New_Symbol_6_12_">
	</g>
	<g id="New_Symbol_7_8_">
	</g>
	<g id="New_Symbol_8_7_">
	</g>
	<g id="New_Symbol_5_15_">
	</g>
	<g id="New_Symbol_2_11_">
	</g>
	<g id="New_Symbol_6">
	</g>
	<g id="Dark_2">
	</g>
	<g id="New_Symbol_3_1_">
	</g>
	<g id="Most_important_2">
	</g>
	<g id="New_Symbol_1">
	</g>
	<g id="Most_important_1">
	</g>
	<g id="Most_important_1_2_">
	</g>
	<g id="New_Symbol_8">
	</g>
	<g id="New_Symbol_1_1_">
	</g>
	<g id="New_Symbol_7_1_">
	</g>
	<g id="Most_important_2_1_">
	</g>
	<g id="New_Symbol_2">
	</g>
	<g id="New_Symbol_3">
	</g>
	<g id="New_Symbol_6_1_">
	</g>
	<g id="New_Symbol_5_1_">
	</g>
	<g id="Most_important_1_1_">
	</g>
	<g>
		<g>
			<defs>
				<rect id="SVGID_1_" width="1584" height="466"/>
			</defs>
			<clipPath id="SVGID_2_">
				<use xlink:href="#SVGID_1_"  style="overflow:visible;"/>
			</clipPath>
			<rect x="-17" y="-9.9" class="st0" width="1616" height="488"/>
		</g>
		<g>
			<defs>
				<rect id="SVGID_3_" width="1584" height="466"/>
			</defs>
			<clipPath id="SVGID_4_">
				<use xlink:href="#SVGID_3_"  style="overflow:visible;"/>
			</clipPath>
			<path class="st1" d="M1267.3,510.6l483.7,6.3V-78c4.8-25.8-11.1-41.6-30.6-41.6H1146c-23.2,0-40.1,22-34.2,44.4L1267.3,510.6z"/>
		</g>
		<g>
			<defs>
				<rect id="SVGID_5_" width="1584" height="466"/>
			</defs>
			<clipPath id="SVGID_6_">
				<use xlink:href="#SVGID_5_"  style="overflow:visible;"/>
			</clipPath>
			<line class="st2" x1="1111.8" y1="-75.2" x2="1267.3" y2="510.6"/>
		</g>
		<g>
			<defs>
				<rect id="SVGID_7_" width="1584" height="466"/>
			</defs>
			<clipPath id="SVGID_8_">
				<use xlink:href="#SVGID_7_"  style="overflow:visible;"/>
			</clipPath>
			<g class="st3">
				<g>
				</g>
			</g>
		</g>
		<g>
			<defs>
				<rect id="SVGID_9_" width="1584" height="466"/>
			</defs>
			<clipPath id="SVGID_10_">
				<use xlink:href="#SVGID_9_"  style="overflow:visible;"/>
			</clipPath>
			<path class="st4" d="M1601.2,332.7c0,0-0.7,3.4-4.1,4.3l-295.3,89.5c-5.8,1.6-9.8-1.4-11.3-6.7l-27.1-108.2l-5.8,7.9
				c0,0-1.1,2,0.4,8.2c1.4,6.1,28.6,95.5,28.6,95.5s1.6,7.5,5.8,11.3c6.2,5.5,21.5-0.4,21.5-0.4l39.9-12.6c0.3-0.1,0.6-0.2,0.8-0.3
				c0.8-0.3,1.6-0.5,2.5-0.8c1.3-0.4,2.6-0.8,3.9-1.2c1.8-0.6,3.5-1.1,5.3-1.7c2.2-0.7,4.4-1.4,6.6-2.1c2.6-0.8,5.1-1.6,7.7-2.4
				c2.9-0.9,5.8-1.8,8.7-2.7c3.2-1,6.4-2,9.6-3c3.5-1.1,6.9-2.2,10.4-3.3c3.7-1.2,7.3-2.3,11-3.5c3.8-1.2,7.7-2.4,11.5-3.6
				c4-1.3,8-2.5,11.9-3.8c4.1-1.3,8.1-2.6,12.2-3.8c4.1-1.3,8.3-2.6,12.4-3.9s8.3-2.6,12.4-3.9s8.2-2.6,12.4-3.9
				c4.1-1.3,8.1-2.6,12.2-3.8c4-1.2,7.9-2.5,11.9-3.7c3.8-1.2,7.6-2.4,11.4-3.6c3.6-1.1,7.2-2.3,10.9-3.4c3.4-1.1,6.8-2.1,10.2-3.2
				c3.1-1,6.3-2,9.4-3c2.8-0.9,5.7-1.8,8.5-2.7c2.5-0.8,5-1.6,7.4-2.3c3.3-1.1,6.6-2.1,10-3.1c5.7-1.7,13.1-4.7,16-9.5
				C1601.9,337.7,1601.5,335.8,1601.2,332.7z"/>
		</g>
		<g>
			<defs>
				<rect id="SVGID_11_" width="1584" height="466"/>
			</defs>
			<clipPath id="SVGID_12_">
				<use xlink:href="#SVGID_11_"  style="overflow:visible;"/>
			</clipPath>
			<path class="st5" d="M1469,211.4c0,0,1.9,4.2-2.2,5.2L1259.7,274c-5.4,1.5-11-1.5-12.5-6.8l-18.8-93.1l-2,2
				c-2.8,2.7-2.8,4.5-3.5,7.4c-0.3,1.1-0.3,3.3,0.6,7.4c1.4,6.1,21.2,79.8,21.2,79.8s1.9,7.2,5.8,11.3c4.5,4.6,21.2-1.4,21.2-1.4
				l39.9-11.1l148.5-41.3c0,0,7.1-2.2,8.8-8.5C1469.4,218.8,1470.8,215,1469,211.4z"/>
		</g>
		<g>
			<defs>
				<rect id="SVGID_13_" width="1584" height="466"/>
			</defs>
			<clipPath id="SVGID_14_">
				<use xlink:href="#SVGID_13_"  style="overflow:visible;"/>
			</clipPath>
			<g class="st6">
			</g>
		</g>
		<g>
			<defs>
				<rect id="SVGID_15_" width="1584" height="466"/>
			</defs>
			<clipPath id="SVGID_16_">
				<use xlink:href="#SVGID_15_"  style="overflow:visible;"/>
			</clipPath>
			<path class="st7" d="M1387,101.8c0,0-0.3,4.3-3.6,5l-163.5,40.6c-4.3,1.1-8.7-1.5-9.9-5.8l-20.6-74.8c0,0-0.4,2.6,0.3,7.7
				c0.7,5.1,18.4,69.8,18.4,69.8s2,6.8,5.9,9.2c4.8,2.9,15.6-0.5,15.6-0.5l149.7-36.8c0,0,5.7-1.6,7-6.6
				C1386.6,108.9,1388,105.3,1387,101.8z"/>
		</g>
		<g>
			<defs>
				<rect id="SVGID_17_" width="1584" height="466"/>
			</defs>
			<clipPath id="SVGID_18_">
				<use xlink:href="#SVGID_17_"  style="overflow:visible;"/>
			</clipPath>
			<path class="st8" d="M1259.7,282.4l207-58.1c2.6-0.7,4.5-4.4,3.5-6.8l-33.7-81.7c-2.1-5.3-7.9-8.2-13.6-6.8l-190.2,47.7
				c-6.7,1.6-10.8,7.7-9,14.2l23.5,84.8C1248.8,280.9,1254.3,283.9,1259.7,282.4z"/>
		</g>
		<g>
			<defs>
				<rect id="SVGID_19_" width="1584" height="466"/>
			</defs>
			<clipPath id="SVGID_20_">
				<use xlink:href="#SVGID_19_"  style="overflow:visible;"/>
			</clipPath>
			<path class="st9" d="M1505.5,215.4l88.5-25.1c5.1-1.9,9.2-11.1,7.7-13.9l-40.1-77.1c-2.9-4.9-6.1-8.4-14.5-6.3l-83.5,20.3
				c-6.4,4.1-10,10-7.3,16l35.3,79.8C1493.8,214,1500,216.8,1505.5,215.4z"/>
		</g>
		<g>
			<defs>
				<rect id="SVGID_21_" width="1584" height="466"/>
			</defs>
			<clipPath id="SVGID_22_">
				<use xlink:href="#SVGID_21_"  style="overflow:visible;"/>
			</clipPath>
			<path class="st10" d="M1508.4,208.7l90-25.5c2.5-0.7,4.7-4.7,3.3-7.5l-39.6-78.2c-2.7-4.7-5.9-8-13.9-6l-80.7,20.3
				c-6.5,1.5-9.9,6.9-7.3,12.6l34.9,78.2C1497.2,207.3,1503.1,210,1508.4,208.7z"/>
		</g>
		<g>
			<defs>
				<rect id="SVGID_23_" width="1584" height="466"/>
			</defs>
			<clipPath id="SVGID_24_">
				<use xlink:href="#SVGID_23_"  style="overflow:visible;"/>
			</clipPath>
			<path class="st11" d="M1636.8,331l96.8-31.1c5.5-2.3,10.1-12.5,8.5-15.6l-48.1-86.5c-3.1-5.3-6.7-8.9-15.9-6.3l-91.3,25.7
				c-9.3,3.6-11.3,9.4-8,17.8l42.8,89.6C1624.1,329.9,1630.8,332.7,1636.8,331z"/>
		</g>
		<g>
			<defs>
				<rect id="SVGID_25_" width="1584" height="466"/>
			</defs>
			<clipPath id="SVGID_26_">
				<use xlink:href="#SVGID_25_"  style="overflow:visible;"/>
			</clipPath>
			<g class="st12">
				<path class="st13" d="M1218.6,114.2c-0.2-0.7,0.1-1.2,0.7-1.4c0.6-0.2,1.1,0.1,1.3,0.8l0.8,2.6l0.8-0.2c0.7-0.2,1.1,0,1.2,0.6
					s-0.1,1-0.7,1.1l-0.8,0.2l2.8,9.3c0.2,0.7-0.1,1.2-0.7,1.3c-0.6,0.2-1.1-0.1-1.3-0.8l-2.8-9.3l-0.8,0.2c-0.7,0.2-1.1,0-1.2-0.6
					c-0.2-0.5,0.1-1,0.7-1.1l0.8-0.2L1218.6,114.2z"/>
				<path class="st13" d="M1239.1,123.1c0.2,0.7-0.3,1.1-0.6,1.2c-0.4,0.1-1,0-1.2-0.7l-0.2-0.8l0,0c-0.5,1.5-1.5,2.4-2.7,2.8
					c-3.4,1-6.1-1.4-7.1-4.6c-0.9-3.2,0.1-6.7,3.5-7.7c1.4-0.4,2.5-0.1,3.7,0.6l0,0l-0.2-0.6c-0.2-0.7,0.2-1.1,0.6-1.2s1,0,1.2,0.7
					L1239.1,123.1z M1233.7,123.9c2.4-0.7,2.6-3.4,2-5.4s-2.2-4.2-4.6-3.4c-2.4,0.7-2.6,3.4-2,5.4S1231.3,124.6,1233.7,123.9z"/>
				<path class="st13" d="M1238.6,106.4c-0.2-0.7,0.1-1.2,0.7-1.4c0.6-0.2,1.1,0.1,1.3,0.8l1.7,5.8l0,0c0.3-0.9,1.1-2.1,2.7-2.6
					c3.2-1,6,1.4,6.9,4.6s-0.1,6.7-3.3,7.6c-1.6,0.5-2.8,0.2-3.7-0.7l0,0l0.2,0.6c0.2,0.7-0.1,1.2-0.7,1.4c-0.6,0.2-1.1-0.1-1.3-0.8
					L1238.6,106.4z M1248,119.7c2.4-0.7,2.6-3.4,2-5.4s-2.2-4.2-4.6-3.4c-2.4,0.7-2.6,3.4-2,5.4C1244,118.3,1245.6,120.4,1248,119.7
					z"/>
			</g>
		</g>
		<g>
			<defs>
				<rect id="SVGID_27_" width="1584" height="466"/>
			</defs>
			<clipPath id="SVGID_28_">
				<use xlink:href="#SVGID_27_"  style="overflow:visible;"/>
			</clipPath>
			<path class="st14" d="M1187.4,32.8l90.7-19.4c2.1-0.5,4.1-3.6,3.3-5.6L1259-54.8c-1.7-4.3-6.3-6.8-10.8-5.8l-81.3,15.2
				c-5.3,1.1-8.6,5.9-7.2,11.2l17.8,61.3C1178.7,31.3,1183.1,33.8,1187.4,32.8z"/>
		</g>
		<g>
			<defs>
				<rect id="SVGID_29_" width="1584" height="466"/>
			</defs>
			<clipPath id="SVGID_30_">
				<use xlink:href="#SVGID_29_"  style="overflow:visible;"/>
			</clipPath>
			<path class="st15" d="M1281.7,8.4c0,0-0.6,3.6-3.9,4.3l-89.8,19c-4.3,1.1-8.3-0.5-9.4-4.8l-19.2-65c0,0-0.4,5.9,0.3,11
				c0.7,5.1,17.2,60.1,17.2,60.1s1.4,5.7,5.3,8c5.7,3.3,25-2.2,25-2.2l67.5-14.5c0,0,4.8-1.1,7.3-5.7
				C1282.8,17.1,1282.7,11.9,1281.7,8.4z"/>
		</g>
		<g>
			<defs>
				<rect id="SVGID_31_" width="1584" height="466"/>
			</defs>
			<clipPath id="SVGID_32_">
				<use xlink:href="#SVGID_31_"  style="overflow:visible;"/>
			</clipPath>
			<path class="st16" d="M1316.3,6l84-18.5c2.1-0.5,4.1-3.6,3.3-5.6l-25.3-61.1c-1.7-4.3-6.3-6.8-10.8-5.8l-75.2,13.9
				c-5.3,1.1-8.6,5.9-7.2,11.2l21.2,60.1C1307.6,4.5,1312,7,1316.3,6z"/>
		</g>
		<g>
			<defs>
				<rect id="SVGID_33_" width="1584" height="466"/>
			</defs>
			<clipPath id="SVGID_34_">
				<use xlink:href="#SVGID_33_"  style="overflow:visible;"/>
			</clipPath>
			<path class="st17" d="M1403.4-17.5c0,0-0.6,3.6-3.9,4.3l-82.9,18.1c-4.3,1.1-8.3-0.5-9.4-4.8l-22.6-63.8c0,0-3.5,4.9-2.8,10
				S1303,5.1,1303,5.1c0.8,2.2,1.9,4.3,3.3,6c4.3,5.3,12.2,3.7,17.9,2.6c2.7-0.5,5.5-1.1,8.2-1.9c0,0,64-14.8,64.1-14.8
				c2.5-0.6,4.9-1.9,6.4-4c1.6-2.3,1.5-5.4,1.1-8C1403.9-15.8,1403.7-16.6,1403.4-17.5z"/>
		</g>
		<g>
			<defs>
				<rect id="SVGID_35_" width="1584" height="466"/>
			</defs>
			<clipPath id="SVGID_36_">
				<use xlink:href="#SVGID_35_"  style="overflow:visible;"/>
			</clipPath>
			<g class="st18">
				<g>
					<path class="st13" d="M1526.4,161c0,0.8-0.2,1.4-1.1,1.7c-0.9,0.2-1.8-0.1-2.2-0.9c-0.2-0.4-0.2-1.4-0.2-1.7l-1-23.7
						c-0.1-1.2,0.2-2.3,1.5-2.6c1.3-0.4,2.3,0.3,3.2,1.3l17.6,19.1c0.3,0.3,1,1,1.1,1.5c0.4,0.8-0.1,1.5-1,1.8s-1.6-0.1-2.1-0.7
						l-3.7-4.2l-12.4,3.5L1526.4,161z M1525,137.3L1525,137.3l0.9,15.5l10.3-2.9L1525,137.3z"/>
				</g>
			</g>
		</g>
		<g>
			<defs>
				<rect id="SVGID_37_" width="1584" height="466"/>
			</defs>
			<clipPath id="SVGID_38_">
				<use xlink:href="#SVGID_37_"  style="overflow:visible;"/>
			</clipPath>
			<path class="st19" d="M1306.1,433c0,0,131.4-41.3,217.5-68.4c41.4-13,71-23.1,71.7-23.3c11.3-4.1,7.7-11.1,6.9-12.8l-41.4-91.5
				c-2.1-5.3-7.9-8.2-13.6-6.8l-277.8,78.4c-6.7,1.6-10.8,7.7-9,14.2c0,0,31.3,104.8,32.6,106.5
				C1295.7,433.1,1300.5,434.9,1306.1,433z"/>
		</g>
		<g>
			<defs>
				<rect id="SVGID_39_" width="1584" height="466"/>
			</defs>
			<clipPath id="SVGID_40_">
				<use xlink:href="#SVGID_39_"  style="overflow:visible;"/>
			</clipPath>
			<g class="st20">
			</g>
		</g>
		<g>
			<defs>
				<rect id="SVGID_41_" width="1584" height="466"/>
			</defs>
			<clipPath id="SVGID_42_">
				<use xlink:href="#SVGID_41_"  style="overflow:visible;"/>
			</clipPath>
			<g class="st21">
				<path class="st13" d="M1304.4,389c2.2-0.6,5.7-0.3,6.2,1.4c0.2,0.6-0.1,1.2-0.9,1.5c-1.1,0.3-2.1-1.2-4.6-0.5
					c-1.5,0.4-2.6,1.5-2.2,2.9c0.9,2.9,9.3,0.1,10.7,4.9c1,3.5-1.3,6-4.3,6.9c-3.4,1-6.5,0-6.9-1.4c-0.2-0.8,0.1-1.4,0.7-1.6
					c1.2-0.3,2.7,1.4,5.6,0.6c1.9-0.6,2.8-2,2.4-3.2c-1-3.3-9.4-0.6-10.8-5.2C1299.5,392.2,1301.8,389.8,1304.4,389z"/>
				<path class="st13" d="M1324.7,390.1c-0.9-2.9-3.2-3.5-4.9-3c-1.7,0.5-3.3,2.3-2.5,5.2l2.7,9.1c0.3,0.9-0.1,1.6-0.9,1.9
					c-0.8,0.2-1.5-0.2-1.8-1.1l-6.3-21.4c-0.3-0.9,0.1-1.6,0.9-1.9c0.8-0.2,1.5,0.2,1.8,1.1l2.3,8h0.1c0.7-1.9,2.2-3,3.8-3.5
					c2.5-0.7,6,0,7.4,4.7l2.7,9.2c0.3,0.9-0.1,1.6-0.9,1.9c-0.8,0.2-1.5-0.2-1.8-1.1L1324.7,390.1z"/>
				<path class="st13" d="M1328,375.9c0.9-0.3,1.8,0.3,2.1,1.2c0.3,0.9-0.2,1.9-1.1,2.2c-0.9,0.3-1.8-0.3-2.1-1.2
					C1326.5,377.2,1327,376.2,1328,375.9z M1335.5,396.8c0.3,0.9-0.1,1.6-0.9,1.9c-0.8,0.2-1.5-0.2-1.8-1.1l-4.1-14.1
					c-0.3-0.9,0.1-1.6,0.9-1.9c0.8-0.2,1.5,0.2,1.8,1.1L1335.5,396.8z"/>
				<path class="st13" d="M1342.5,394.7c0.3,0.9-0.1,1.6-0.9,1.9c-0.8,0.2-1.5-0.2-1.8-1.1l-3.8-13l-1.1,0.3c-0.9,0.3-1.5,0-1.7-0.8
					s0.1-1.3,1-1.6l1.1-0.3l-1.2-3.9c-0.7-2.4,0.5-4.1,2.5-4.6l0.8-0.2c0.7-0.2,1.6,0,1.9,0.7c0.2,0.8-0.1,1.3-1.1,1.6l-0.7,0.2
					c-0.8,0.2-1,0.7-0.8,1.4l1.2,4l1.7-0.5c0.9-0.3,1.5,0,1.7,0.8s-0.1,1.3-1,1.6l-1.7,0.5L1342.5,394.7z"/>
				<path class="st13" d="M1343.9,373.7c-0.3-0.9,0.1-1.6,0.9-1.9c0.8-0.2,1.5,0.2,1.8,1.1l1.1,3.6l1.1-0.3c0.9-0.3,1.5,0,1.7,0.8
					s-0.1,1.3-1,1.6l-1.1,0.3l3.8,13c0.3,0.9-0.1,1.6-0.9,1.9c-0.8,0.2-1.5-0.2-1.8-1.1l-3.8-13l-1.1,0.3c-0.9,0.3-1.5,0-1.7-0.8
					s0.1-1.3,1-1.6l1.1-0.3L1343.9,373.7z"/>
			</g>
		</g>
		<g>
			<defs>
				<rect id="SVGID_43_" width="1584" height="466"/>
			</defs>
			<clipPath id="SVGID_44_">
				<use xlink:href="#SVGID_43_"  style="overflow:visible;"/>
			</clipPath>
			<path class="st22" d="M1422.5,104.9l82.4-21.4c5.1-1.9,8.9-11.1,7.4-13.9L1475.9-1c-2.9-4.9-4.1-5-12.5-2.8L1388.3,13
				c-9.3,5.6-10.1,13.3-7.4,19.3l26.8,66.8C1409.8,104,1417,106.3,1422.5,104.9z"/>
		</g>
		<g>
			<defs>
				<rect id="SVGID_45_" width="1584" height="466"/>
			</defs>
			<clipPath id="SVGID_46_">
				<use xlink:href="#SVGID_45_"  style="overflow:visible;"/>
			</clipPath>
			<path class="st23" d="M1423.5,96.3l84.4-20.8c2.5-0.7,5.7-3.9,4.3-6.6l-33.8-68.1c-2.7-4.7-5.9-8-13.9-6L1391,12.1
				c-6.5,1.5-8.7,6.3-6.1,12.1l25.4,66.1C1412.4,95,1418.3,97.7,1423.5,96.3z"/>
		</g>
		<g>
			<defs>
				<rect id="SVGID_47_" width="1584" height="466"/>
			</defs>
			<clipPath id="SVGID_48_">
				<use xlink:href="#SVGID_47_"  style="overflow:visible;"/>
			</clipPath>
			<path class="st24" d="M1545.9,73.6l77.6-19.5c4.9-1.8,8.1-10.5,6.4-13.3L1585.7-24c-3.2-4.7,1-7.9-7.2-5.9L1504-12.3
				c-7.8,4.9-9.1,11.4-6,17.2l32.5,63.2C1533.2,72.7,1540.5,75,1545.9,73.6z"/>
		</g>
		<g>
			<defs>
				<rect id="SVGID_49_" width="1584" height="466"/>
			</defs>
			<clipPath id="SVGID_50_">
				<use xlink:href="#SVGID_49_"  style="overflow:visible;"/>
			</clipPath>
			<path class="st25" d="M1547.3,65.4l79-19.7c2.5-0.6,5.4-3.7,3.8-6.3l-37.6-65c-3.1-4.5-5.6-6.7-13.4-4.8l-70.7,15.6
				c-6.4,1.4-8.1,6.2-5.1,11.7l32.1,62.3C1537.8,63.7,1542.1,66.7,1547.3,65.4z"/>
		</g>
		<g>
			<defs>
				<rect id="SVGID_51_" width="1584" height="466"/>
			</defs>
			<clipPath id="SVGID_52_">
				<use xlink:href="#SVGID_51_"  style="overflow:visible;"/>
			</clipPath>
			<g class="st26">
				<g>
					<path class="st13" d="M1456.5,50.9c-1,2.1-2.9,3.7-5.8,4.5c-7.1,2-13.7-2.8-16.6-8.9s-1.8-13,5.3-15.1c7.1-2,13.7,2.8,16.6,8.9
						c1.3,2.7,1.8,5.5,1.3,8.1l3.7,1.7c0.6,0.3,0.9,0.5,1.1,1c0.3,0.6,0.1,1.4-0.8,1.6c-0.6,0.2-1.1,0-1.4-0.2L1456.5,50.9z
						 M1450.7,48.3c-0.6-0.3-0.9-0.5-1.1-0.9c-0.3-0.7-0.1-1.5,0.7-1.7c0.4-0.1,0.8-0.1,1.4,0.2l2.5,1.1c0-1.8-0.5-3.8-1.4-5.7
						c-2.1-4.5-6.5-8.9-12.1-7.3c-5.6,1.6-5.3,7.1-3.2,11.6c2.1,4.5,6.5,8.9,12.1,7.3c2.1-0.6,3.4-1.8,4.1-3.3L1450.7,48.3z"/>
				</g>
			</g>
		</g>
		<g>
			<defs>
				<rect id="SVGID_53_" width="1584" height="466"/>
			</defs>
			<clipPath id="SVGID_54_">
				<use xlink:href="#SVGID_53_"  style="overflow:visible;"/>
			</clipPath>
			<g class="st27">
				<g>
					<path class="st13" d="M1558.4,5.2c-0.2-0.9,0.2-1.3,1-1.5s1.4-0.1,2.1,0.7l14.9,16.5h0.1l-6-18.8c-0.3-1,0.1-1.5,1-1.8
						c0.9-0.2,1.7,0.2,2,0.9c0.2,0.3,0.4,0.8,0.6,1.5l5.7,19.3c0.3,1,0.3,2-1.2,2.4c-1.2,0.3-2,0.3-3.3-1.2l-13.5-15h-0.1l3.5,17.8
						c0.3,1.7-0.3,2.2-1.4,2.5c-1.5,0.4-2.4-0.3-3.1-1.2l-13.1-17.2c-0.5-0.6-0.7-1-0.9-1.4c-0.4-0.7-0.1-1.4,0.7-1.6
						c0.9-0.3,1.7,0,2.3,0.8l12.4,17h0.1L1558.4,5.2z"/>
				</g>
			</g>
		</g>
		<g>
			<defs>
				<rect id="SVGID_55_" width="1584" height="466"/>
			</defs>
			<clipPath id="SVGID_56_">
				<use xlink:href="#SVGID_55_"  style="overflow:visible;"/>
			</clipPath>
			<g class="st28">
			</g>
		</g>
		<g>
			<defs>
				<rect id="SVGID_57_" width="1584" height="466"/>
			</defs>
			<clipPath id="SVGID_58_">
				<use xlink:href="#SVGID_57_"  style="overflow:visible;"/>
			</clipPath>
			<path class="st29" d="M1259.9,610.8c0,0,131.4-41.3,217.5-68.4c41.4-13,71-23.1,71.7-23.3c11.3-4.1,7.7-11.1,6.9-12.8l-41.4-91.5
				c-2.1-5.3-7.9-8.2-13.6-6.8l-277.8,78.4c-6.7,1.6-10.8,7.7-9,14.2c0,0,31.3,104.8,32.6,106.5
				C1249.5,610.9,1254.2,612.7,1259.9,610.8z"/>
		</g>
		<g>
			<defs>
				<rect id="SVGID_59_" width="1584" height="466"/>
			</defs>
			<clipPath id="SVGID_60_">
				<use xlink:href="#SVGID_59_"  style="overflow:visible;"/>
			</clipPath>
			<g class="st30">
			</g>
		</g>
		<g>
			<defs>
				<rect id="SVGID_61_" width="1584" height="466"/>
			</defs>
			<clipPath id="SVGID_62_">
				<use xlink:href="#SVGID_61_"  style="overflow:visible;"/>
			</clipPath>
			<g class="st31">
				<path class="st32" d="M1337.9,455.3c-9.9,3-19.8,5.9-29.7,8.9l-29.8,8.7c-9.9,2.9-19.9,5.7-29.8,8.6l-14.9,4.3l-7.5,2.1
					c-1.3,0.4-2.5,0.6-3.6,1.1s-2.1,1.1-3,1.9c-1.8,1.6-3.1,3.7-3.5,6c-0.2,1.2-0.2,2.4,0.1,3.5l0.2,0.9l0.3,0.9l0.5,1.9l4.4,14.9
					c2.9,9.9,5.9,19.8,8.8,29.7l8.7,29.7l4.4,14.9l2.2,7.4c0.8,2.5,1.4,5,2.4,7.4c-1.9-4.8-3.4-9.8-5-14.7l-4.8-14.8l-9.2-29.6
					c-3.1-9.9-6-19.8-9-29.6l-4.5-14.8l-0.6-1.9l-0.3-0.9l-0.2-1c-0.3-1.4-0.3-2.8-0.1-4.2c0.5-2.8,2-5.3,4.1-7.1
					c1.1-0.9,2.3-1.6,3.5-2.2c1.3-0.6,2.6-0.8,3.8-1.2l7.5-2.1l14.9-4.2c10-2.8,19.9-5.6,29.9-8.3l29.9-8.2
					C1318,460.7,1327.9,457.9,1337.9,455.3z"/>
			</g>
		</g>
		<g>
			<defs>
				<rect id="SVGID_63_" width="1584" height="466"/>
			</defs>
			<clipPath id="SVGID_64_">
				<use xlink:href="#SVGID_63_"  style="overflow:visible;"/>
			</clipPath>
			<g class="st33">
			</g>
		</g>
		<g>
			<defs>
				<rect id="SVGID_65_" width="1584" height="466"/>
			</defs>
			<clipPath id="SVGID_66_">
				<use xlink:href="#SVGID_65_"  style="overflow:visible;"/>
			</clipPath>
			<path class="st34" d="M1870.2,405.5c0,0-0.5,3.5-3.7,4.5L1586,509.1c-5.5,1.8-9.6-1.1-11.3-6.4l-32.9-108.1l-5.1,8.1
				c0,0-0.9,2,0.9,8.2c1.8,6,33.6,95.3,33.6,95.3s2,7.5,6.3,11.2c6.3,5.3,20.8-1.1,20.8-1.1l37.8-13.9c0.3-0.1,0.5-0.2,0.8-0.3
				c0.8-0.3,1.6-0.6,2.3-0.9c1.2-0.5,2.5-0.9,3.7-1.4c1.7-0.6,3.4-1.2,5-1.8c2.1-0.8,4.2-1.5,6.2-2.3c2.4-0.9,4.9-1.8,7.3-2.7
				c2.8-1,5.5-2,8.3-3c3-1.1,6.1-2.2,9.1-3.3c3.3-1.2,6.5-2.4,9.8-3.6c3.5-1.3,7-2.5,10.4-3.8c3.6-1.3,7.3-2.7,10.9-4
				c3.8-1.4,7.6-2.8,11.3-4.1c3.9-1.4,7.7-2.8,11.6-4.2c3.9-1.4,7.8-2.9,11.8-4.3c3.9-1.4,7.9-2.9,11.8-4.3s7.8-2.9,11.7-4.3
				c3.8-1.4,7.7-2.8,11.5-4.2c3.7-1.4,7.5-2.7,11.2-4.1c3.6-1.3,7.2-2.6,10.8-4c3.4-1.3,6.9-2.5,10.3-3.8c3.2-1.2,6.4-2.4,9.7-3.5
				c3-1.1,5.9-2.2,8.9-3.3c2.7-1,5.4-2,8-2.9c2.4-0.9,4.7-1.7,7.1-2.6c3.1-1.2,6.3-2.3,9.5-3.4c5.4-1.9,12.4-5.1,14.9-10.1
				C1871.1,410.5,1870.7,408.6,1870.2,405.5z"/>
		</g>
		<g>
			<defs>
				<rect id="SVGID_67_" width="1584" height="466"/>
			</defs>
			<clipPath id="SVGID_68_">
				<use xlink:href="#SVGID_67_"  style="overflow:visible;"/>
			</clipPath>
			<path class="st35" d="M1590.5,515.5c0,0,124.7-45.6,206.4-75.5c39.3-14.4,67.3-25.4,68-25.7c10.7-4.5,6.7-11.4,5.9-13.1
				l-45.8-90.9c-2.4-5.3-8.1-8-13.6-6.4l-264.3,87.5c-6.4,1.9-10,8.1-7.9,14.5c0,0,36.8,104.5,38.1,106.2
				C1580.5,515.9,1585.2,517.6,1590.5,515.5z"/>
		</g>
		<g>
			<defs>
				<rect id="SVGID_69_" width="1584" height="466"/>
			</defs>
			<clipPath id="SVGID_70_">
				<use xlink:href="#SVGID_69_"  style="overflow:visible;"/>
			</clipPath>
			<g class="st36">
			</g>
		</g>
		<g>
			<defs>
				<rect id="SVGID_71_" width="1584" height="466"/>
			</defs>
			<clipPath id="SVGID_72_">
				<use xlink:href="#SVGID_71_"  style="overflow:visible;"/>
			</clipPath>
			<g class="st37">
				<path class="st13" d="M1579.1,424.9c0.3,0.7-0.1,1.2-0.5,1.3c-0.4,0.1-1,0-1.2-0.7l-0.3-0.8l0,0c-0.3,1.5-1.2,2.5-2.4,2.9
					c-3.2,1.1-6.1-1.3-7.3-4.5c-1.2-3.2-0.5-6.8,2.7-7.9c1.3-0.4,2.4-0.2,3.7,0.6l0,0l-0.2-0.6c-0.3-0.7,0.1-1.1,0.5-1.3
					c0.4-0.1,1,0,1.2,0.7L1579.1,424.9z M1573.9,425.8c2.3-0.8,2.2-3.5,1.4-5.5c-0.8-2-2.5-4.2-4.8-3.4c-2.3,0.8-2.2,3.5-1.4,5.5
					C1569.9,424.4,1571.6,426.6,1573.9,425.8z"/>
				<path class="st13" d="M1583.8,423.1c0.2,0.7,0,1.2-0.5,1.4c-0.6,0.2-1.1-0.1-1.3-0.7l-5.8-15.6c-0.2-0.7,0-1.2,0.5-1.4
					c0.6-0.2,1.1,0.1,1.3,0.8L1583.8,423.1z"/>
				<path class="st13" d="M1582.2,408.1c-0.2-0.7,0-1.2,0.5-1.4c0.6-0.2,1.1,0.1,1.3,0.7l1,2.6l0.8-0.3c0.6-0.2,1.1,0,1.3,0.5
					c0.2,0.5,0,1-0.6,1.2l-0.8,0.3l3.5,9.4c0.2,0.7,0,1.2-0.5,1.4c-0.6,0.2-1.1-0.1-1.3-0.7l-3.5-9.4l-0.8,0.3
					c-0.6,0.2-1.1,0-1.3-0.5c-0.2-0.5,0-1,0.6-1.2l0.8-0.3L1582.2,408.1z"/>
			</g>
		</g>
		<g>
			<defs>
				<rect id="SVGID_73_" width="1584" height="466"/>
			</defs>
			<clipPath id="SVGID_74_">
				<use xlink:href="#SVGID_73_"  style="overflow:visible;"/>
			</clipPath>
			<g class="st38">
				<path class="st32" d="M1656.5,356.6c-9.6,3.4-19.3,6.7-28.9,10l-29,9.9c-9.7,3.3-19.4,6.5-29,9.7l-14.5,4.9l-3.6,1.2
					c-1.2,0.4-2.5,0.8-3.6,1.2c-2.2,0.9-4.1,2.4-5.3,4.5c-1.2,2-1.6,4.4-1.2,6.8c0.1,0.6,0.3,1.1,0.4,1.7l0.6,1.8l1.3,3.6l5.1,14.5
					c3.4,9.6,6.8,19.2,10.1,28.9l10,28.9l5,14.5l2.5,7.2c0.9,2.4,1.6,4.8,2.7,7.2c-2.1-4.6-3.8-9.5-5.7-14.2l-5.4-14.3l-10.5-28.8
					c-3.5-9.6-6.9-19.2-10.3-28.8l-5.1-14.4l-1.3-3.6l-0.6-1.8c-0.2-0.7-0.4-1.3-0.5-2c-0.5-2.7,0-5.6,1.4-8s3.7-4.2,6.2-5.2
					c1.3-0.5,2.5-0.8,3.7-1.2l3.6-1.2l14.5-4.8c9.7-3.2,19.4-6.4,29.1-9.5l29.1-9.4C1637,362.7,1646.8,359.6,1656.5,356.6z"/>
			</g>
		</g>
		<g>
			<defs>
				<rect id="SVGID_75_" width="1584" height="466"/>
			</defs>
			<clipPath id="SVGID_76_">
				<use xlink:href="#SVGID_75_"  style="overflow:visible;"/>
			</clipPath>
			<g class="st39">
				<g>
					<path class="st32" d="M1293.9,180.3l-13.4-2.9l-10.2-2.2l-7.8,6.9l-10.3,9.1l5.7,21.9l0,0l0.1,0.2l13.4,2.9l10.2,2.2l7.8-6.9
						l10.3-9.1l-0.1-0.2l0,0L1293.9,180.3L1293.9,180.3z M1279.2,209.4l-13.6-3l-3.4-12.9l10.4-9.2l13.6,2.9l3.4,12.9h0.1l0,0h-0.1
						v0.1l0,0v-0.1L1279.2,209.4z"/>
					<polygon class="st32" points="1281.7,218.5 1291.9,220.7 1299.6,213.8 1289.5,211.6 					"/>
				</g>
				<g>
					<polygon class="st32" points="1265.5,206.1 1257.9,212.8 1267.9,214.9 					"/>
					<polygon class="st32" points="1289.5,199.8 1299.4,201.9 1291.8,208.7 					"/>
					<g>
						<polygon class="st32" points="1257.8,212.8 1257.9,212.8 1265.5,206.1 1262.2,193.2 1272.5,183.9 1262.3,181.8 1252.1,190.9 
													"/>
						<polygon class="st32" points="1286.1,186.9 1289.5,199.8 1299.4,201.9 1299.5,201.8 1293.8,179.9 1280.3,177.1 1272.5,183.9 
													"/>
						<polygon class="st32" points="1280.3,177.1 1270.1,174.9 1262.3,181.8 1272.5,183.9 						"/>
						<polygon class="st32" points="1280.3,177.1 1270.1,174.9 1262.3,181.8 1272.5,183.9 						"/>
					</g>
				</g>
				<g>
					<g>
						<polygon class="st32" points="1297.1,193.1 1289.5,199.9 1289.5,199.8 1279.1,209 1289.3,211.2 1299.6,202.1 						"/>
						<polygon class="st32" points="1265.5,206 1265.6,206.2 1255.6,204 1257.9,213 1271.3,215.9 1279.1,209 						"/>
						<polygon class="st32" points="1271.3,215.9 1281.5,218.1 1289.3,211.2 1279.1,209 						"/>
						<polygon class="st32" points="1271.3,215.9 1281.5,218.1 1289.3,211.2 1279.1,209 						"/>
						<polygon class="st32" points="1281.6,218.1 1291.8,220.3 1299.5,213.4 1289.4,211.2 						"/>
					</g>
				</g>
			</g>
		</g>
		<g>
			<defs>
				<rect id="SVGID_77_" width="1584" height="466"/>
			</defs>
			<clipPath id="SVGID_78_">
				<use xlink:href="#SVGID_77_"  style="overflow:visible;"/>
			</clipPath>
			<g class="st40">
				<text transform="matrix(0.7846 -0.2096 0.2581 0.9661 1262.3781 259.2937)" class="st32 st41 st42">Create Quiz</text>
			</g>
		</g>
	</g>
	<g>
		<g id="BG_1_">
		</g>
		<g id="Object_1_">
			<line class="st43" x1="684" y1="210.4" x2="684" y2="210.4"/>
			<g>
				<path class="st44" d="M44.6,88.7L44.6,88.7c0-3.3,1-6.1,2.2-6.1h1.2c1.2,0,2.2-2.8,2.2-6.1l0,0c0-3.3-1-6.1-2.2-6.1H31.7
					c-1.2,0-2.2,2.8-2.2,6.1l0,0c0,3.3,1,6.1,2.2,6.1h7c1.2,0,2.2,2.8,2.2,6.1l0,0c0,3.3-1,6.1-2.2,6.1h-2.9c-1.2,0-2.2,2.8-2.2,6.1
					l0,0c0,3.3,1,6.1,2.2,6.1h20.3c1.2,0,2.2-2.8,2.2-6.1l0,0c0-3.3-1-6.1-2.2-6.1h-9.3C45.6,94.8,44.6,92,44.6,88.7z"/>
				<path class="st44" d="M459.1,180.8L459.1,180.8c0,3.3-1.2,5.3-2.4,5.3h-1.2c-1.5,0-2.4,2.6-2.4,5.3l0,0c0,3.3,1.2,5.3,2.4,5.3
					h19c1.5,0,2.4-2.6,2.4-5.3l0,0c0-3.3-1.2-5.3-2.4-5.3h-8.1c-1.5,0-2.4-2.6-2.4-5.3l0,0c0-3.3,1.2-5.3,2.4-5.3h3.6
					c1.5,0,2.4-2.6,2.4-5.3l0,0c0-3.3-1.2-5.3-2.4-5.3h-24.5c-1.5,0-2.4,2.6-2.4,5.3l0,0c0,3.3,1.2,5.3,2.4,5.3h10.9
					C457.8,175.5,459.1,178.1,459.1,180.8z"/>
				<path class="st44" d="M341.7,371.6l0.7-5c0-0.9-0.7-0.9-0.7-0.9l-2.1,3c-0.7,0.9-1.4,0.9-2.1,0.9l-3.3-0.9
					c-0.7,0-0.7,0.9-0.7,0.9l2.1,3c0.7,0.9,0.7,2,0.7,3l-0.7,5c0,0.9,0.7,0.9,0.7,0.9l2.1-3c0.7-0.9,1.4-0.9,2.1-0.9l3.3,0.9
					c0.7,0,0.7-0.9,0.7-0.9l-2.1-3C341.7,374.6,341.7,373.5,341.7,371.6z"/>
				<path class="st45" d="M226.4,54.7l3-3.5c0-0.8,0-1.8-1-0.8l-3.6,1.8c-1,0-2,0-3,0l-3.6-2.7c-1,0-2,0-1,0.8l2,3.5
					c1,0.8,0,1.8,0,2.7l-3.6,3.5c-1,0.8,0,1.8,1,0.8l3.6-1.8c1-0.8,2,0,3,0l3.6,2.7c1,0,2,0,1-0.8l-1-3.5
					C225.4,56.5,225.4,55.7,226.4,54.7z"/>
				<path class="st45" d="M100,445.1l2.1-3.9c0-0.9,0-2-0.7-0.9l-2.6,2c-0.7,0.9-1.4,0-2.1,0l-2.6-3c-0.7-0.9-1.4,0-0.7,0.9l1.4,3.9
					c0.7,0.9,0,2,0,3l-2.6,3.9c0,0.9,0,2,0.7,0.9l2.6-2c0.7-0.9,1.4,0,2.1,0l2.6,3c0.7,0,1.4,0,0.7-0.9l-1.4-3.9
					C100,447.2,100,446.1,100,445.1z"/>
				<path class="st46" d="M399.9,104.3l5.5-0.9c0.7,0,0.7-2,0-2l-4.8-2c-1.4-0.9-2.1-2-2.6-3.9l-0.7-8c0-0.9-1.4-0.9-1.4,0l-1.4,6.9
					c-0.7,2-1.4,3-2.6,3.9l-5.5,0.9c-0.7,0-0.7,2,0,2l4.8,2c1.4,0.9,2.1,2,2.6,3.9l0.7,8c0,0.9,1.4,0.9,1.4,0l1.4-6.9
					C397.8,105.2,398.5,104.3,399.9,104.3z"/>
				<path class="st46" d="M80.1,279.1l-2.5-3c-0.7-0.9-1.4,0-0.7,0.9l1.4,5c0,0.9,0,3-0.7,3.9l-2.1,3.9c-0.7,0.9,0,2,0.7,0.9l3.2-2
					c0.7,0,2.1,0,2.5,0.9l2.5,3c0.7,0.9,1.4,0,0.7-0.9l-2.1-5c0-0.9,0-3,0.7-3.9l2.1-3.9c0.7-0.9,0-2-0.7-0.9l-3.2,2
					C81.3,280.2,80.6,280.2,80.1,279.1z"/>
				<path class="st46" d="M249.1,167.6l2.1-5c0-0.9-1-2-2.1-0.9l-3.8,3.9c-1,0.9-2.1,0.9-3.8,0.9l-4.8-2c-1,0-2.1,0.9-1,2l3.8,3.9
					c1,0.9,1,2,1,3.9l-2.1,5c0,0.9,1,2,2.1,0.9l3.8-3.9c1-0.9,2.1-0.9,3.8-0.9l4.8,2c1,0,2.1-0.9,1-2l-3.8-3.9
					C249.1,170.6,249.1,168.6,249.1,167.6z"/>
				<g>
					<g>
						<path class="st45" d="M420.9,309c-3.1,0-5.6-3-5.6-6.9s2.5-6.9,5.6-6.9s5.6,3,5.6,6.9S424,309,420.9,309z M420.9,299
							c-0.8,0-2.5,0.9-2.5,3s0.8,3,2.5,3c0.8,0,2.5-0.9,2.5-3S421.5,299,420.9,299z"/>
					</g>
				</g>
				<g>
					<path class="st46" d="M134.4,79.3c-4.6,0-8.5-3.9-8.5-8.9c0-5,3.6-8.9,8.5-8.9s8.5,3.9,8.5,8.9C142.9,75.4,139,79.3,134.4,79.3
						z M134.4,64.4c-3,0-5.6,3-5.6,6s3,6,5.6,6s5.6-3,5.6-6C140,66.5,137.4,64.4,134.4,64.4z"/>
				</g>
				<g>
					<g>
						<path class="st44" d="M176.9,365.7c-2.9,0-6-3.9-6-8c0-3.9,2.9-8,6-8c2.9,0,6,3.9,6,8C182.9,361.7,180.5,365.7,176.9,365.7z
							 M176.9,353.7c-1.6,0-2.3,2-2.3,3c0,2,1.6,3,2.3,3c1.6,0,2.3-2,2.3-3C179,355.8,178.2,353.7,176.9,353.7z"/>
					</g>
				</g>
			</g>
			<g>
				<g>
					<path class="st47" d="M1132,367.4h-21.2c-4.3,0-7.9-4.3-7.9-9.5s3.3-9.2,7.7-9.5c1.3-4.6,5.1-8,9.4-8c4.1,0,7.9,3.1,9.2,7.3
						c2,0.3,3.8,2.4,4.1,4.9c2.6,0.9,4.6,3.7,4.6,7C1137.9,364,1135.3,367.4,1132,367.4z M1110.8,349.9c-3.6,0-6.6,3.7-6.6,8
						s3.1,8,6.6,8h21.2c2.6,0,4.6-2.4,4.6-5.5c0-2.8-1.8-5.2-4.1-5.5h-0.5v-0.6c0-2.1-1.5-4-3.3-4.3h-0.5v-1c-1-4-4.3-6.7-8.2-6.7
						c-3.8,0-7.4,3.1-8.2,7.3l-0.3,0.6L1110.8,349.9C1111.1,349.9,1110.8,349.9,1110.8,349.9z"/>
				</g>
			</g>
			<g>
				<path class="st47" d="M1098.3,79.1h-21.2c-4.3,0-7.9-4.3-7.9-9.5s3.3-9.2,7.7-9.5c1.3-4.6,5.1-8,9.4-8c4.1,0,7.9,3.1,9.2,7.3
					c2,0.3,3.8,2.4,4.1,4.9c2.6,0.9,4.6,3.7,4.6,7C1104.4,76,1101.6,79.1,1098.3,79.1z M1077.1,61.9c-3.6,0-6.6,3.7-6.6,8
					s3.1,8,6.6,8h21.2c2.6,0,4.6-2.4,4.6-5.5c0-2.8-1.8-5.2-4.1-5.5h-0.5v-0.6c0-2.1-1.5-4-3.3-4.3h-0.5l-0.3-0.6
					c-1-4-4.3-6.7-8.2-6.7s-7.4,3.1-8.2,7.3l-0.3,0.6L1077.1,61.9C1077.4,61.9,1077.4,61.9,1077.1,61.9z"/>
			</g>
		</g>
		<g id="Text_1_">
		</g>
	</g>
</g>
</svg>
